M48
; DRILL file {KiCad 5.1.6-c6e7f7d~87~ubuntu18.04.1} date Tue Dec 28 13:40:12 2021
; FORMAT={-:-/ absolute / inch / decimal}
; #@! TF.CreationDate,2021-12-28T13:40:12-05:00
; #@! TF.GenerationSoftware,Kicad,Pcbnew,5.1.6-c6e7f7d~87~ubuntu18.04.1
FMAT,2
INCH
T1C0.0157
T2C0.0295
T3C0.0315
T4C0.0390
T5C0.0394
T6C0.0433
T7C0.0512
T8C0.0551
T9C0.1063
%
G90
G05
T1
X0.0512Y-1.9016
X0.0561Y-1.2392
X0.063Y-0.6329
X0.0669Y-2.1112
X0.0689Y-3.7825
X0.0817Y-0.2431
X0.1112Y-0.9222
X0.1181Y-0.811
X0.125Y-3.6722
X0.1291Y-1.3227
X0.1388Y-3.9006
X0.1457Y-3.4094
X0.1634Y-1.8189
X0.1663Y-1.4439
X0.1732Y-2.3317
X0.1811Y-2.8789
X0.1841Y-2.5108
X0.187Y-2.9557
X0.2018Y-2.4498
X0.2037Y-1.3248
X0.2067Y-1.6841
X0.2293Y-1.9803
X0.249Y-0.1909
X0.253Y-0.2874
X0.253Y-1.4409
X0.253Y-1.6732
X0.2913Y-0.2293
X0.2943Y-1.0502
X0.3012Y-1.9488
X0.3031Y-0.1014
X0.3091Y-1.19
X0.311Y-2.4045
X0.3272Y-3.7835
X0.328Y-3.698
X0.3445Y-0.0624
X0.3474Y-1.2352
X0.3661Y-2.5177
X0.374Y-1.7411
X0.3823Y-3.8256
X0.3831Y-4.2413
X0.3996Y-1.3366
X0.4026Y-2.0128
X0.4035Y-1.2274
X0.4055Y-2.249
X0.4232Y-2.8307
X0.4543Y-3.9268
X0.4547Y-2.3927
X0.4695Y-1.3907
X0.4695Y-1.5758
X0.4793Y-1.7441
X0.5118Y-1.503
X0.5295Y-2.563
X0.5524Y-3.6972
X0.5689Y-2.9281
X0.6093Y-2.0846
X0.6567Y-3.365
X0.6752Y-1.3346
X0.6772Y-3.4833
X0.6988Y-2.9675
X0.7437Y-3.1661
X0.7453Y-3.2972
X0.8378Y-3.365
X0.8474Y-1.9892
X0.8573Y-2.247
X0.8732Y-3.9228
X0.8776Y-4.0866
X0.9385Y-1.7347
X0.9744Y-2.0807
X1.0098Y-2.2579
X1.0138Y-3.0394
X1.0169Y-1.5913
X1.0217Y-4.1606
X1.0374Y-2.7116
X1.0659Y-1.7441
X1.0738Y-2.3543
X1.0787Y-2.248
X1.0807Y-2.9665
X1.0984Y-3.0896
X1.1059Y-3.189
X1.1191Y-2.3022
X1.1289Y-1.7293
X1.1329Y-2.0787
X1.1437Y-4.0846
X1.1524Y-3.9846
X1.1752Y-2.3632
X1.1783Y-3.2264
X1.2165Y-2.6752
X1.2313Y-2.5236
X1.2394Y-4.2209
X1.2409Y-4.0559
X1.247Y-3.0915
X1.2539Y-3.1516
X1.2608Y-2.9301
X1.2825Y-2.5453
X1.2884Y-1.7372
X1.3002Y-1.9213
X1.313Y-1.4783
X1.3297Y-1.1171
X1.3661Y-2.0935
X1.372Y-3.3028
X1.3976Y-2.5305
X1.4063Y-3.7067
X1.4094Y-1.6732
X1.4209Y-3.8287
X1.4252Y-2.7244
X1.4291Y-1.9518
X1.4301Y-2.3248
X1.4616Y-3.5728
X1.4724Y-1.7274
X1.4744Y-2.5541
X1.4758Y-2.2524
X1.4902Y-1.3425
X1.4919Y-2.4577
X1.5167Y-2.1516
X1.5187Y-1.8947
X1.5205Y-3.976
X1.5228Y-3.65
X1.5285Y-1.5305
X1.5315Y-3.1398
X1.5325Y-2.252
X1.5778Y-1.4291
X1.5876Y-2.5404
X1.6161Y-3.9776
X1.6249Y-1.3848
X1.627Y-2.065
X1.627Y-3.1388
X1.6319Y-1.5994
X1.6319Y-2.9646
X1.6506Y-2.2569
X1.6545Y-2.2077
X1.674Y-2.8705
X1.6781Y-2.4931
X1.6831Y-1.749
X1.6939Y-2.4085
X1.7028Y-1.1348
X1.7096Y-2.6831
X1.7215Y-2.4606
X1.7232Y-3.2244
X1.7244Y-1.7608
X1.7252Y-3.6543
X1.7313Y-0.122
X1.7313Y-1.19
X1.7677Y-2.3061
X1.7697Y-1.2156
X1.7697Y-2.6801
X1.8169Y-3.2205
X1.8337Y-2.8179
X1.8376Y-1.7756
X1.8433Y-2.6258
X1.8789Y-2.4006
X1.8927Y-1.8524
X1.8996Y-0.9429
X1.9006Y-2.5344
X1.9193Y-3.1673
X1.9577Y-2.813
X1.9577Y-3.6093
X1.9616Y-2.3022
X1.9646Y-1.5876
X1.9754Y-2.374
X1.999Y-2.6339
X2.0059Y-3.3041
X2.0079Y-2.1929
X2.0106Y-0.9508
X2.0106Y-1.1732
X2.0108Y-1.5453
T2
X0.6555Y-3.1654
X0.6555Y-3.2441
T3
X0.6302Y-1.9504
X0.6302Y-2.4504
X0.9302Y-1.9504
X0.9302Y-2.4504
X0.1043Y-1.9504
X0.1043Y-2.4504
X0.4807Y-4.0717
X0.4807Y-4.1701
X1.4028Y-2.461
X1.9028Y-2.461
X0.7802Y-1.9504
X0.7802Y-2.4504
X0.4802Y-1.9504
X0.4802Y-2.4504
X0.7071Y-4.0701
X0.7071Y-4.1685
X1.0339Y-3.3937
X1.5339Y-3.3937
X1.0802Y-1.9504
X1.0802Y-2.4504
X0.226Y-2.2039
X0.326Y-2.1039
X0.326Y-2.3039
T4
X1.8996Y-1.0622
X1.8996Y-1.2394
X1.898Y-1.4626
X1.898Y-1.6398
T5
X0.2745Y-3.5751
X0.3745Y-3.5751
X0.4745Y-3.5751
X0.5745Y-3.5751
X0.6745Y-3.5751
X0.7745Y-3.5751
X0.8745Y-3.5751
X0.9745Y-3.5751
X1.0745Y-3.5751
X1.1745Y-3.5751
X1.2745Y-3.5751
X1.3745Y-3.5751
X0.874Y-1.6819
X0.974Y-1.6819
X1.074Y-1.6819
X1.174Y-1.6819
X0.6744Y-1.5362
X0.7744Y-1.5362
X0.8744Y-1.5362
X0.9744Y-1.5362
X1.0744Y-1.5362
X1.1744Y-1.5362
X1.2744Y-1.5362
X1.3744Y-1.5362
X1.9732Y-0.4807
X1.9732Y-0.5807
X1.9732Y-0.6807
X0.4276Y-0.274
X0.5276Y-0.274
X0.6276Y-0.274
X0.7276Y-0.274
X0.8276Y-0.274
X0.9276Y-0.274
X1.0276Y-0.274
X1.1276Y-0.274
X1.2276Y-0.274
X1.3276Y-0.274
X1.4276Y-0.274
X1.5276Y-0.274
X1.6276Y-0.274
X0.273Y-1.8272
X0.373Y-1.8272
X0.473Y-1.8272
X0.573Y-1.8272
X0.673Y-1.8272
X0.773Y-1.8272
X0.873Y-1.8272
X0.973Y-1.8272
X1.073Y-1.8272
X1.173Y-1.8272
X1.273Y-1.8272
X1.373Y-1.8272
X1.473Y-1.8272
X1.573Y-1.8272
X1.673Y-1.8272
X1.773Y-1.8272
X0.2733Y-2.6258
X0.3733Y-2.6258
X0.4733Y-2.6258
X0.5733Y-2.6258
X0.6733Y-2.6258
X0.7733Y-2.6258
X0.8733Y-2.6258
X0.9733Y-2.6258
X1.0733Y-2.6258
X1.1733Y-2.6258
X1.2733Y-2.6258
X1.3733Y-2.6258
X0.2741Y-2.7765
X0.3741Y-2.7765
X0.4741Y-2.7765
X0.5741Y-2.7765
X0.6741Y-2.7765
X0.7741Y-2.7765
X0.8741Y-2.7765
X0.9741Y-2.7765
X1.0741Y-2.7765
X1.1741Y-2.7765
X1.2741Y-2.7765
X1.3741Y-2.7765
X1.4741Y-2.7765
X1.5741Y-2.7765
X1.6741Y-2.7765
X1.7741Y-2.7765
X1.8016Y-0.3783
X1.8016Y-0.4783
X1.8016Y-0.5783
X1.8016Y-0.6783
X1.8016Y-0.7783
X1.8016Y-0.8783
X0.4534Y-3.7661
X0.5534Y-3.7661
X0.6534Y-3.7661
X0.0689Y-1.4319
X0.0689Y-1.5319
X0.0689Y-1.6319
X0.1827Y-0.3217
X0.1827Y-0.4217
X0.1827Y-0.5217
X0.1827Y-0.6217
X0.1827Y-0.7217
X0.1827Y-0.8217
X0.1827Y-0.9217
X0.1827Y-1.0217
X0.1827Y-1.1217
X0.1827Y-1.2217
X0.6256Y-1.389
X0.7256Y-1.389
X0.8256Y-1.389
X0.9256Y-1.389
X1.0256Y-1.389
X1.1256Y-1.389
X1.2256Y-1.389
X1.3256Y-1.389
X1.4256Y-1.389
X1.8165Y-3.7228
X1.8165Y-3.9787
X1.9937Y-3.7228
X1.9937Y-3.9787
X1.0249Y-1.2445
X1.1249Y-1.2445
X1.2249Y-1.2445
X1.3249Y-1.2445
X1.4249Y-1.2445
X1.5249Y-1.2445
X1.6249Y-1.2445
T6
X1.2303Y-2.0524
X1.2303Y-2.1524
X1.2303Y-2.2524
X0.8386Y-2.9902
X0.8386Y-3.0902
X0.8386Y-3.1902
T7
X1.8016Y-1.013
X1.8016Y-1.289
X1.8Y-1.4134
X1.8Y-1.6894
X1.4209Y-3.8287
X1.6177Y-3.8287
T8
X1.7299Y-2.9665
X1.7299Y-3.4665
X1.9268Y-2.9665
X1.9268Y-3.4665
T9
X0.1492Y-4.15
X0.1476Y-0.0886
X1.8996Y-4.15
X1.8996Y-0.0894
T5
G00X0.9806Y-3.73
M15
G01X1.0594Y-3.73
M16
G05
G00X0.9806Y-3.9662
M15
G01X1.0594Y-3.9662
M16
G05
G00X1.205Y-3.8875
M15
G01X1.205Y-3.8087
M16
G05
T0
M30
