%TF.GenerationSoftware,KiCad,Pcbnew,5.1.6-c6e7f7d~87~ubuntu18.04.1*%
%TF.CreationDate,2021-12-28T13:40:06-05:00*%
%TF.ProjectId,remote,72656d6f-7465-42e6-9b69-6361645f7063,rev?*%
%TF.SameCoordinates,Original*%
%TF.FileFunction,Legend,Top*%
%TF.FilePolarity,Positive*%
%FSLAX46Y46*%
G04 Gerber Fmt 4.6, Leading zero omitted, Abs format (unit mm)*
G04 Created by KiCad (PCBNEW 5.1.6-c6e7f7d~87~ubuntu18.04.1) date 2021-12-28 13:40:06*
%MOMM*%
%LPD*%
G01*
G04 APERTURE LIST*
%ADD10C,0.150000*%
%ADD11C,0.120000*%
%ADD12C,0.300000*%
%ADD13C,0.100000*%
%ADD14C,0.127000*%
G04 APERTURE END LIST*
D10*
X845714Y-34382380D02*
X369523Y-34382380D01*
X369523Y-33382380D01*
X1369523Y-33382380D02*
X1560000Y-33382380D01*
X1655238Y-33430000D01*
X1750476Y-33525238D01*
X1798095Y-33715714D01*
X1798095Y-34049047D01*
X1750476Y-34239523D01*
X1655238Y-34334761D01*
X1560000Y-34382380D01*
X1369523Y-34382380D01*
X1274285Y-34334761D01*
X1179047Y-34239523D01*
X1131428Y-34049047D01*
X1131428Y-33715714D01*
X1179047Y-33525238D01*
X1274285Y-33430000D01*
X1369523Y-33382380D01*
X2750476Y-33430000D02*
X2655238Y-33382380D01*
X2512380Y-33382380D01*
X2369523Y-33430000D01*
X2274285Y-33525238D01*
X2226666Y-33620476D01*
X2179047Y-33810952D01*
X2179047Y-33953809D01*
X2226666Y-34144285D01*
X2274285Y-34239523D01*
X2369523Y-34334761D01*
X2512380Y-34382380D01*
X2607619Y-34382380D01*
X2750476Y-34334761D01*
X2798095Y-34287142D01*
X2798095Y-33953809D01*
X2607619Y-33953809D01*
X31611428Y-86902857D02*
X30925714Y-86902857D01*
X31268571Y-86902857D02*
X31268571Y-85702857D01*
X31154285Y-85874285D01*
X31040000Y-85988571D01*
X30925714Y-86045714D01*
X32354285Y-85702857D02*
X32468571Y-85702857D01*
X32582857Y-85760000D01*
X32640000Y-85817142D01*
X32697142Y-85931428D01*
X32754285Y-86160000D01*
X32754285Y-86445714D01*
X32697142Y-86674285D01*
X32640000Y-86788571D01*
X32582857Y-86845714D01*
X32468571Y-86902857D01*
X32354285Y-86902857D01*
X32240000Y-86845714D01*
X32182857Y-86788571D01*
X32125714Y-86674285D01*
X32068571Y-86445714D01*
X32068571Y-86160000D01*
X32125714Y-85931428D01*
X32182857Y-85817142D01*
X32240000Y-85760000D01*
X32354285Y-85702857D01*
X33268571Y-86902857D02*
X33268571Y-85702857D01*
X33954285Y-86902857D02*
X33440000Y-86217142D01*
X33954285Y-85702857D02*
X33268571Y-86388571D01*
X41521428Y-63222857D02*
X40835714Y-63222857D01*
X41178571Y-63222857D02*
X41178571Y-62022857D01*
X41064285Y-62194285D01*
X40950000Y-62308571D01*
X40835714Y-62365714D01*
X42264285Y-62022857D02*
X42378571Y-62022857D01*
X42492857Y-62080000D01*
X42550000Y-62137142D01*
X42607142Y-62251428D01*
X42664285Y-62480000D01*
X42664285Y-62765714D01*
X42607142Y-62994285D01*
X42550000Y-63108571D01*
X42492857Y-63165714D01*
X42378571Y-63222857D01*
X42264285Y-63222857D01*
X42150000Y-63165714D01*
X42092857Y-63108571D01*
X42035714Y-62994285D01*
X41978571Y-62765714D01*
X41978571Y-62480000D01*
X42035714Y-62251428D01*
X42092857Y-62137142D01*
X42150000Y-62080000D01*
X42264285Y-62022857D01*
X43178571Y-63222857D02*
X43178571Y-62022857D01*
X43864285Y-63222857D02*
X43350000Y-62537142D01*
X43864285Y-62022857D02*
X43178571Y-62708571D01*
X2167142Y-54790000D02*
X2167142Y-54104285D01*
X2167142Y-54447142D02*
X3367142Y-54447142D01*
X3195714Y-54332857D01*
X3081428Y-54218571D01*
X3024285Y-54104285D01*
X3367142Y-55532857D02*
X3367142Y-55647142D01*
X3310000Y-55761428D01*
X3252857Y-55818571D01*
X3138571Y-55875714D01*
X2910000Y-55932857D01*
X2624285Y-55932857D01*
X2395714Y-55875714D01*
X2281428Y-55818571D01*
X2224285Y-55761428D01*
X2167142Y-55647142D01*
X2167142Y-55532857D01*
X2224285Y-55418571D01*
X2281428Y-55361428D01*
X2395714Y-55304285D01*
X2624285Y-55247142D01*
X2910000Y-55247142D01*
X3138571Y-55304285D01*
X3252857Y-55361428D01*
X3310000Y-55418571D01*
X3367142Y-55532857D01*
X3367142Y-56675714D02*
X3367142Y-56790000D01*
X3310000Y-56904285D01*
X3252857Y-56961428D01*
X3138571Y-57018571D01*
X2909999Y-57075714D01*
X2624285Y-57075714D01*
X2395714Y-57018571D01*
X2281428Y-56961428D01*
X2224285Y-56904285D01*
X2167142Y-56790000D01*
X2167142Y-56675714D01*
X2224285Y-56561428D01*
X2281428Y-56504285D01*
X2395714Y-56447142D01*
X2624285Y-56390000D01*
X2910000Y-56390000D01*
X3138571Y-56447142D01*
X3252857Y-56504285D01*
X3310000Y-56561428D01*
X3367142Y-56675714D01*
X5748571Y-79322857D02*
X6148571Y-80522857D01*
X6548571Y-79322857D01*
X7348571Y-79894285D02*
X7520000Y-79951428D01*
X7577142Y-80008571D01*
X7634285Y-80122857D01*
X7634285Y-80294285D01*
X7577142Y-80408571D01*
X7520000Y-80465714D01*
X7405714Y-80522857D01*
X6948571Y-80522857D01*
X6948571Y-79322857D01*
X7348571Y-79322857D01*
X7462857Y-79380000D01*
X7520000Y-79437142D01*
X7577142Y-79551428D01*
X7577142Y-79665714D01*
X7520000Y-79780000D01*
X7462857Y-79837142D01*
X7348571Y-79894285D01*
X6948571Y-79894285D01*
X8091428Y-80180000D02*
X8662857Y-80180000D01*
X7977142Y-80522857D02*
X8377142Y-79322857D01*
X8777142Y-80522857D01*
X9005714Y-79322857D02*
X9691428Y-79322857D01*
X9348571Y-80522857D02*
X9348571Y-79322857D01*
X6775714Y-82520000D02*
X6661428Y-82462857D01*
X6490000Y-82462857D01*
X6318571Y-82520000D01*
X6204285Y-82634285D01*
X6147142Y-82748571D01*
X6090000Y-82977142D01*
X6090000Y-83148571D01*
X6147142Y-83377142D01*
X6204285Y-83491428D01*
X6318571Y-83605714D01*
X6490000Y-83662857D01*
X6604285Y-83662857D01*
X6775714Y-83605714D01*
X6832857Y-83548571D01*
X6832857Y-83148571D01*
X6604285Y-83148571D01*
X7347142Y-83662857D02*
X7347142Y-82462857D01*
X8032857Y-83662857D01*
X8032857Y-82462857D01*
X8604285Y-83662857D02*
X8604285Y-82462857D01*
X8890000Y-82462857D01*
X9061428Y-82520000D01*
X9175714Y-82634285D01*
X9232857Y-82748571D01*
X9290000Y-82977142D01*
X9290000Y-83148571D01*
X9232857Y-83377142D01*
X9175714Y-83491428D01*
X9061428Y-83605714D01*
X8890000Y-83662857D01*
X8604285Y-83662857D01*
X2408095Y-25570000D02*
X2303333Y-25517619D01*
X2146190Y-25517619D01*
X1989047Y-25570000D01*
X1884285Y-25674761D01*
X1831904Y-25779523D01*
X1779523Y-25989047D01*
X1779523Y-26146190D01*
X1831904Y-26355714D01*
X1884285Y-26460476D01*
X1989047Y-26565238D01*
X2146190Y-26617619D01*
X2250952Y-26617619D01*
X2408095Y-26565238D01*
X2460476Y-26512857D01*
X2460476Y-26146190D01*
X2250952Y-26146190D01*
D11*
X34920000Y-57270000D02*
X32530000Y-57270000D01*
X34920000Y-59950000D02*
X34920000Y-57270000D01*
X50930000Y-59950000D02*
X34920000Y-59950000D01*
X50930000Y-49500000D02*
X50930000Y-59950000D01*
X34960000Y-49500000D02*
X50930000Y-49500000D01*
X34960000Y-52110000D02*
X34960000Y-49500000D01*
X32380000Y-52110000D02*
X34960000Y-52110000D01*
X22440000Y-75880000D02*
X25020000Y-75880000D01*
X25070000Y-81570000D02*
X22590000Y-81570000D01*
X25070000Y-83510000D02*
X25070000Y-81570000D01*
X40930000Y-83510000D02*
X25070000Y-83510000D01*
X40930000Y-73390000D02*
X40930000Y-83510000D01*
X25100000Y-73390000D02*
X40930000Y-73390000D01*
D10*
X613000Y-74303000D02*
X613000Y-69253000D01*
D12*
X44518172Y-106348832D02*
X45043451Y-106874111D01*
X44437360Y-106914517D01*
X44558578Y-107035735D01*
X44598984Y-107156954D01*
X44598984Y-107237766D01*
X44558578Y-107358984D01*
X44356548Y-107561015D01*
X44235329Y-107601421D01*
X44154517Y-107601421D01*
X44033299Y-107561015D01*
X43790862Y-107318578D01*
X43750456Y-107197360D01*
X43750456Y-107116548D01*
X45285888Y-107116548D02*
X44720203Y-108247918D01*
X45851573Y-107682233D01*
X6229238Y-107792233D02*
X6108019Y-107832639D01*
X5986801Y-107953857D01*
X5905989Y-108115482D01*
X5905989Y-108277106D01*
X5946395Y-108398325D01*
X6067613Y-108600355D01*
X6188832Y-108721573D01*
X6390862Y-108842792D01*
X6512081Y-108883198D01*
X6673705Y-108883198D01*
X6835329Y-108802386D01*
X6916142Y-108721573D01*
X6996954Y-108559949D01*
X6996954Y-108479137D01*
X6714111Y-108196294D01*
X6552487Y-108357918D01*
X7441421Y-108196294D02*
X6592893Y-107347766D01*
X7926294Y-107711421D01*
X7077766Y-106862893D01*
X8330355Y-107307360D02*
X7481827Y-106458832D01*
X7683857Y-106256801D01*
X7845482Y-106175989D01*
X8007106Y-106175989D01*
X8128325Y-106216395D01*
X8330355Y-106337613D01*
X8451573Y-106458832D01*
X8572792Y-106660862D01*
X8613198Y-106782081D01*
X8613198Y-106943705D01*
X8532386Y-107105329D01*
X8330355Y-107307360D01*
X6006395Y426700D02*
X6087207Y265076D01*
X6289238Y63045D01*
X6410456Y22639D01*
X6491268Y22639D01*
X6612487Y63045D01*
X6693299Y143857D01*
X6733705Y265076D01*
X6733705Y345888D01*
X6693299Y467106D01*
X6572081Y669137D01*
X6531674Y790355D01*
X6531674Y871167D01*
X6572081Y992386D01*
X6652893Y1073198D01*
X6774111Y1113604D01*
X6854923Y1113604D01*
X6976142Y1073198D01*
X7178172Y871167D01*
X7258984Y709543D01*
X7380203Y-866294D02*
X7299390Y-866294D01*
X7137766Y-785482D01*
X7056954Y-704670D01*
X6976142Y-543045D01*
X6976142Y-381421D01*
X7016548Y-260203D01*
X7137766Y-58172D01*
X7258984Y63045D01*
X7461015Y184264D01*
X7582233Y224670D01*
X7743857Y224670D01*
X7905482Y143857D01*
X7986294Y63045D01*
X8067106Y-98578D01*
X8067106Y-179390D01*
X8067106Y-1714822D02*
X7663045Y-1310761D01*
X8511573Y-462233D01*
D13*
X38484285Y-66994285D02*
X38084285Y-66994285D01*
X38084285Y-67622857D02*
X38084285Y-66422857D01*
X38655714Y-66422857D01*
X39570000Y-67565714D02*
X39455714Y-67622857D01*
X39227142Y-67622857D01*
X39112857Y-67565714D01*
X39055714Y-67451428D01*
X39055714Y-66994285D01*
X39112857Y-66880000D01*
X39227142Y-66822857D01*
X39455714Y-66822857D01*
X39570000Y-66880000D01*
X39627142Y-66994285D01*
X39627142Y-67108571D01*
X39055714Y-67222857D01*
X40655714Y-67622857D02*
X40655714Y-66994285D01*
X40598571Y-66880000D01*
X40484285Y-66822857D01*
X40255714Y-66822857D01*
X40141428Y-66880000D01*
X40655714Y-67565714D02*
X40541428Y-67622857D01*
X40255714Y-67622857D01*
X40141428Y-67565714D01*
X40084285Y-67451428D01*
X40084285Y-67337142D01*
X40141428Y-67222857D01*
X40255714Y-67165714D01*
X40541428Y-67165714D01*
X40655714Y-67108571D01*
X41055714Y-66822857D02*
X41512857Y-66822857D01*
X41227142Y-66422857D02*
X41227142Y-67451428D01*
X41284285Y-67565714D01*
X41398571Y-67622857D01*
X41512857Y-67622857D01*
X41912857Y-67622857D02*
X41912857Y-66422857D01*
X42427142Y-67622857D02*
X42427142Y-66994285D01*
X42370000Y-66880000D01*
X42255714Y-66822857D01*
X42084285Y-66822857D01*
X41970000Y-66880000D01*
X41912857Y-66937142D01*
X43455714Y-67565714D02*
X43341428Y-67622857D01*
X43112857Y-67622857D01*
X42998571Y-67565714D01*
X42941428Y-67451428D01*
X42941428Y-66994285D01*
X42998571Y-66880000D01*
X43112857Y-66822857D01*
X43341428Y-66822857D01*
X43455714Y-66880000D01*
X43512857Y-66994285D01*
X43512857Y-67108571D01*
X42941428Y-67222857D01*
X44027142Y-67622857D02*
X44027142Y-66822857D01*
X44027142Y-67051428D02*
X44084285Y-66937142D01*
X44141428Y-66880000D01*
X44255714Y-66822857D01*
X44370000Y-66822857D01*
X44484285Y-67737142D02*
X45398571Y-67737142D01*
X45627142Y-66537142D02*
X45684285Y-66480000D01*
X45798571Y-66422857D01*
X46084285Y-66422857D01*
X46198571Y-66480000D01*
X46255714Y-66537142D01*
X46312857Y-66651428D01*
X46312857Y-66765714D01*
X46255714Y-66937142D01*
X45570000Y-67622857D01*
X46312857Y-67622857D01*
D10*
X13536190Y-43275238D02*
X13640952Y-43327619D01*
X13850476Y-43327619D01*
X13955238Y-43275238D01*
X14007619Y-43170476D01*
X14007619Y-43118095D01*
X13955238Y-43013333D01*
X13850476Y-42960952D01*
X13693333Y-42960952D01*
X13588571Y-42908571D01*
X13536190Y-42803809D01*
X13536190Y-42751428D01*
X13588571Y-42646666D01*
X13693333Y-42594285D01*
X13850476Y-42594285D01*
X13955238Y-42646666D01*
X14426666Y-43275238D02*
X14531428Y-43327619D01*
X14740952Y-43327619D01*
X14845714Y-43275238D01*
X14898095Y-43170476D01*
X14898095Y-43118095D01*
X14845714Y-43013333D01*
X14740952Y-42960952D01*
X14583809Y-42960952D01*
X14479047Y-42908571D01*
X14426666Y-42803809D01*
X14426666Y-42751428D01*
X14479047Y-42646666D01*
X14583809Y-42594285D01*
X14740952Y-42594285D01*
X14845714Y-42646666D01*
X15840952Y-43327619D02*
X15840952Y-42227619D01*
X15840952Y-43275238D02*
X15736190Y-43327619D01*
X15526666Y-43327619D01*
X15421904Y-43275238D01*
X15369523Y-43222857D01*
X15317142Y-43118095D01*
X15317142Y-42803809D01*
X15369523Y-42699047D01*
X15421904Y-42646666D01*
X15526666Y-42594285D01*
X15736190Y-42594285D01*
X15840952Y-42646666D01*
X16940952Y-43327619D02*
X16312380Y-43327619D01*
X16626666Y-43327619D02*
X16626666Y-42227619D01*
X16521904Y-42384761D01*
X16417142Y-42489523D01*
X16312380Y-42541904D01*
X17307619Y-42227619D02*
X17988571Y-42227619D01*
X17621904Y-42646666D01*
X17779047Y-42646666D01*
X17883809Y-42699047D01*
X17936190Y-42751428D01*
X17988571Y-42856190D01*
X17988571Y-43118095D01*
X17936190Y-43222857D01*
X17883809Y-43275238D01*
X17779047Y-43327619D01*
X17464761Y-43327619D01*
X17360000Y-43275238D01*
X17307619Y-43222857D01*
X18669523Y-42227619D02*
X18774285Y-42227619D01*
X18879047Y-42280000D01*
X18931428Y-42332380D01*
X18983809Y-42437142D01*
X19036190Y-42646666D01*
X19036190Y-42908571D01*
X18983809Y-43118095D01*
X18931428Y-43222857D01*
X18879047Y-43275238D01*
X18774285Y-43327619D01*
X18669523Y-43327619D01*
X18564761Y-43275238D01*
X18512380Y-43222857D01*
X18460000Y-43118095D01*
X18407619Y-42908571D01*
X18407619Y-42646666D01*
X18460000Y-42437142D01*
X18512380Y-42332380D01*
X18564761Y-42280000D01*
X18669523Y-42227619D01*
X19979047Y-42227619D02*
X19769523Y-42227619D01*
X19664761Y-42280000D01*
X19612380Y-42332380D01*
X19507619Y-42489523D01*
X19455238Y-42699047D01*
X19455238Y-43118095D01*
X19507619Y-43222857D01*
X19560000Y-43275238D01*
X19664761Y-43327619D01*
X19874285Y-43327619D01*
X19979047Y-43275238D01*
X20031428Y-43222857D01*
X20083809Y-43118095D01*
X20083809Y-42856190D01*
X20031428Y-42751428D01*
X19979047Y-42699047D01*
X19874285Y-42646666D01*
X19664761Y-42646666D01*
X19560000Y-42699047D01*
X19507619Y-42751428D01*
X19455238Y-42856190D01*
X12104285Y-39637619D02*
X11999523Y-39585238D01*
X11947142Y-39532857D01*
X11894761Y-39428095D01*
X11894761Y-39113809D01*
X11947142Y-39009047D01*
X11999523Y-38956666D01*
X12104285Y-38904285D01*
X12261428Y-38904285D01*
X12366190Y-38956666D01*
X12418571Y-39009047D01*
X12470952Y-39113809D01*
X12470952Y-39428095D01*
X12418571Y-39532857D01*
X12366190Y-39585238D01*
X12261428Y-39637619D01*
X12104285Y-39637619D01*
X13099523Y-39637619D02*
X12994761Y-39585238D01*
X12942380Y-39480476D01*
X12942380Y-38537619D01*
X13937619Y-39585238D02*
X13832857Y-39637619D01*
X13623333Y-39637619D01*
X13518571Y-39585238D01*
X13466190Y-39480476D01*
X13466190Y-39061428D01*
X13518571Y-38956666D01*
X13623333Y-38904285D01*
X13832857Y-38904285D01*
X13937619Y-38956666D01*
X13990000Y-39061428D01*
X13990000Y-39166190D01*
X13466190Y-39270952D01*
X14932857Y-39637619D02*
X14932857Y-38537619D01*
X14932857Y-39585238D02*
X14828095Y-39637619D01*
X14618571Y-39637619D01*
X14513809Y-39585238D01*
X14461428Y-39532857D01*
X14409047Y-39428095D01*
X14409047Y-39113809D01*
X14461428Y-39009047D01*
X14513809Y-38956666D01*
X14618571Y-38904285D01*
X14828095Y-38904285D01*
X14932857Y-38956666D01*
X9660952Y-36005238D02*
X9765714Y-36057619D01*
X9975238Y-36057619D01*
X10080000Y-36005238D01*
X10132380Y-35900476D01*
X10132380Y-35848095D01*
X10080000Y-35743333D01*
X9975238Y-35690952D01*
X9818095Y-35690952D01*
X9713333Y-35638571D01*
X9660952Y-35533809D01*
X9660952Y-35481428D01*
X9713333Y-35376666D01*
X9818095Y-35324285D01*
X9975238Y-35324285D01*
X10080000Y-35376666D01*
X10603809Y-36057619D02*
X10603809Y-34957619D01*
X11075238Y-36057619D02*
X11075238Y-35481428D01*
X11022857Y-35376666D01*
X10918095Y-35324285D01*
X10760952Y-35324285D01*
X10656190Y-35376666D01*
X10603809Y-35429047D01*
X12070476Y-36057619D02*
X12070476Y-35481428D01*
X12018095Y-35376666D01*
X11913333Y-35324285D01*
X11703809Y-35324285D01*
X11599047Y-35376666D01*
X12070476Y-36005238D02*
X11965714Y-36057619D01*
X11703809Y-36057619D01*
X11599047Y-36005238D01*
X11546666Y-35900476D01*
X11546666Y-35795714D01*
X11599047Y-35690952D01*
X11703809Y-35638571D01*
X11965714Y-35638571D01*
X12070476Y-35586190D01*
X12594285Y-36057619D02*
X12594285Y-35324285D01*
X12594285Y-35533809D02*
X12646666Y-35429047D01*
X12699047Y-35376666D01*
X12803809Y-35324285D01*
X12908571Y-35324285D01*
X13275238Y-35324285D02*
X13275238Y-36424285D01*
X13275238Y-35376666D02*
X13380000Y-35324285D01*
X13589523Y-35324285D01*
X13694285Y-35376666D01*
X13746666Y-35429047D01*
X13799047Y-35533809D01*
X13799047Y-35848095D01*
X13746666Y-35952857D01*
X13694285Y-36005238D01*
X13589523Y-36057619D01*
X13380000Y-36057619D01*
X13275238Y-36005238D01*
X415714Y-19004761D02*
X558571Y-19052380D01*
X796666Y-19052380D01*
X891904Y-19004761D01*
X939523Y-18957142D01*
X987142Y-18861904D01*
X987142Y-18766666D01*
X939523Y-18671428D01*
X891904Y-18623809D01*
X796666Y-18576190D01*
X606190Y-18528571D01*
X510952Y-18480952D01*
X463333Y-18433333D01*
X415714Y-18338095D01*
X415714Y-18242857D01*
X463333Y-18147619D01*
X510952Y-18100000D01*
X606190Y-18052380D01*
X844285Y-18052380D01*
X987142Y-18100000D01*
X1415714Y-19052380D02*
X1415714Y-18052380D01*
X1653809Y-18052380D01*
X1796666Y-18100000D01*
X1891904Y-18195238D01*
X1939523Y-18290476D01*
X1987142Y-18480952D01*
X1987142Y-18623809D01*
X1939523Y-18814285D01*
X1891904Y-18909523D01*
X1796666Y-19004761D01*
X1653809Y-19052380D01*
X1415714Y-19052380D01*
X2368095Y-18766666D02*
X2844285Y-18766666D01*
X2272857Y-19052380D02*
X2606190Y-18052380D01*
X2939523Y-19052380D01*
X499523Y-21504761D02*
X642380Y-21552380D01*
X880476Y-21552380D01*
X975714Y-21504761D01*
X1023333Y-21457142D01*
X1070952Y-21361904D01*
X1070952Y-21266666D01*
X1023333Y-21171428D01*
X975714Y-21123809D01*
X880476Y-21076190D01*
X690000Y-21028571D01*
X594761Y-20980952D01*
X547142Y-20933333D01*
X499523Y-20838095D01*
X499523Y-20742857D01*
X547142Y-20647619D01*
X594761Y-20600000D01*
X690000Y-20552380D01*
X928095Y-20552380D01*
X1070952Y-20600000D01*
X2070952Y-21457142D02*
X2023333Y-21504761D01*
X1880476Y-21552380D01*
X1785238Y-21552380D01*
X1642380Y-21504761D01*
X1547142Y-21409523D01*
X1499523Y-21314285D01*
X1451904Y-21123809D01*
X1451904Y-20980952D01*
X1499523Y-20790476D01*
X1547142Y-20695238D01*
X1642380Y-20600000D01*
X1785238Y-20552380D01*
X1880476Y-20552380D01*
X2023333Y-20600000D01*
X2070952Y-20647619D01*
X2975714Y-21552380D02*
X2499523Y-21552380D01*
X2499523Y-20552380D01*
X1161904Y-15217619D02*
X1842857Y-15217619D01*
X1476190Y-15636666D01*
X1633333Y-15636666D01*
X1738095Y-15689047D01*
X1790476Y-15741428D01*
X1842857Y-15846190D01*
X1842857Y-16108095D01*
X1790476Y-16212857D01*
X1738095Y-16265238D01*
X1633333Y-16317619D01*
X1319047Y-16317619D01*
X1214285Y-16265238D01*
X1161904Y-16212857D01*
X2157142Y-15217619D02*
X2523809Y-16317619D01*
X2890476Y-15217619D01*
X1614285Y-22920000D02*
X1509523Y-22867619D01*
X1352380Y-22867619D01*
X1195238Y-22920000D01*
X1090476Y-23024761D01*
X1038095Y-23129523D01*
X985714Y-23339047D01*
X985714Y-23496190D01*
X1038095Y-23705714D01*
X1090476Y-23810476D01*
X1195238Y-23915238D01*
X1352380Y-23967619D01*
X1457142Y-23967619D01*
X1614285Y-23915238D01*
X1666666Y-23862857D01*
X1666666Y-23496190D01*
X1457142Y-23496190D01*
X2714285Y-23967619D02*
X2085714Y-23967619D01*
X2400000Y-23967619D02*
X2400000Y-22867619D01*
X2295238Y-23024761D01*
X2190476Y-23129523D01*
X2085714Y-23181904D01*
X1646666Y-29167619D02*
X1280000Y-28643809D01*
X1018095Y-29167619D02*
X1018095Y-28067619D01*
X1437142Y-28067619D01*
X1541904Y-28120000D01*
X1594285Y-28172380D01*
X1646666Y-28277142D01*
X1646666Y-28434285D01*
X1594285Y-28539047D01*
X1541904Y-28591428D01*
X1437142Y-28643809D01*
X1018095Y-28643809D01*
X2013333Y-28067619D02*
X2746666Y-29167619D01*
X2746666Y-28067619D02*
X2013333Y-29167619D01*
X1171904Y-30877619D02*
X1800476Y-30877619D01*
X1486190Y-31977619D02*
X1486190Y-30877619D01*
X2062380Y-30877619D02*
X2795714Y-31977619D01*
X2795714Y-30877619D02*
X2062380Y-31977619D01*
X384285Y-44422380D02*
X384285Y-43422380D01*
X765238Y-43422380D01*
X860476Y-43470000D01*
X908095Y-43517619D01*
X955714Y-43612857D01*
X955714Y-43755714D01*
X908095Y-43850952D01*
X860476Y-43898571D01*
X765238Y-43946190D01*
X384285Y-43946190D01*
X1955714Y-44422380D02*
X1622380Y-43946190D01*
X1384285Y-44422380D02*
X1384285Y-43422380D01*
X1765238Y-43422380D01*
X1860476Y-43470000D01*
X1908095Y-43517619D01*
X1955714Y-43612857D01*
X1955714Y-43755714D01*
X1908095Y-43850952D01*
X1860476Y-43898571D01*
X1765238Y-43946190D01*
X1384285Y-43946190D01*
X2574761Y-43422380D02*
X2765238Y-43422380D01*
X2860476Y-43470000D01*
X2955714Y-43565238D01*
X3003333Y-43755714D01*
X3003333Y-44089047D01*
X2955714Y-44279523D01*
X2860476Y-44374761D01*
X2765238Y-44422380D01*
X2574761Y-44422380D01*
X2479523Y-44374761D01*
X2384285Y-44279523D01*
X2336666Y-44089047D01*
X2336666Y-43755714D01*
X2384285Y-43565238D01*
X2479523Y-43470000D01*
X2574761Y-43422380D01*
X3955714Y-43470000D02*
X3860476Y-43422380D01*
X3717619Y-43422380D01*
X3574761Y-43470000D01*
X3479523Y-43565238D01*
X3431904Y-43660476D01*
X3384285Y-43850952D01*
X3384285Y-43993809D01*
X3431904Y-44184285D01*
X3479523Y-44279523D01*
X3574761Y-44374761D01*
X3717619Y-44422380D01*
X3812857Y-44422380D01*
X3955714Y-44374761D01*
X4003333Y-44327142D01*
X4003333Y-43993809D01*
X3812857Y-43993809D01*
X48947142Y-19692857D02*
X49175714Y-19692857D01*
X49290000Y-19750000D01*
X49404285Y-19864285D01*
X49461428Y-20092857D01*
X49461428Y-20492857D01*
X49404285Y-20721428D01*
X49290000Y-20835714D01*
X49175714Y-20892857D01*
X48947142Y-20892857D01*
X48832857Y-20835714D01*
X48718571Y-20721428D01*
X48661428Y-20492857D01*
X48661428Y-20092857D01*
X48718571Y-19864285D01*
X48832857Y-19750000D01*
X48947142Y-19692857D01*
X50375714Y-20264285D02*
X49975714Y-20264285D01*
X49975714Y-20892857D02*
X49975714Y-19692857D01*
X50547142Y-19692857D01*
X51404285Y-20264285D02*
X51004285Y-20264285D01*
X51004285Y-20892857D02*
X51004285Y-19692857D01*
X51575714Y-19692857D01*
X49907142Y-8842857D02*
X50135714Y-8842857D01*
X50250000Y-8900000D01*
X50364285Y-9014285D01*
X50421428Y-9242857D01*
X50421428Y-9642857D01*
X50364285Y-9871428D01*
X50250000Y-9985714D01*
X50135714Y-10042857D01*
X49907142Y-10042857D01*
X49792857Y-9985714D01*
X49678571Y-9871428D01*
X49621428Y-9642857D01*
X49621428Y-9242857D01*
X49678571Y-9014285D01*
X49792857Y-8900000D01*
X49907142Y-8842857D01*
X50935714Y-10042857D02*
X50935714Y-8842857D01*
X51621428Y-10042857D01*
X51621428Y-8842857D01*
X45762857Y-39327142D02*
X46048571Y-39422380D01*
X46143809Y-39517619D01*
X46239047Y-39708095D01*
X46239047Y-39993809D01*
X46143809Y-40184285D01*
X46048571Y-40279523D01*
X45858095Y-40374761D01*
X45096190Y-40374761D01*
X45096190Y-38374761D01*
X45762857Y-38374761D01*
X45953333Y-38470000D01*
X46048571Y-38565238D01*
X46143809Y-38755714D01*
X46143809Y-38946190D01*
X46048571Y-39136666D01*
X45953333Y-39231904D01*
X45762857Y-39327142D01*
X45096190Y-39327142D01*
X47812857Y-93882857D02*
X47412857Y-93311428D01*
X47127142Y-93882857D02*
X47127142Y-92682857D01*
X47584285Y-92682857D01*
X47698571Y-92740000D01*
X47755714Y-92797142D01*
X47812857Y-92911428D01*
X47812857Y-93082857D01*
X47755714Y-93197142D01*
X47698571Y-93254285D01*
X47584285Y-93311428D01*
X47127142Y-93311428D01*
X48270000Y-93825714D02*
X48441428Y-93882857D01*
X48727142Y-93882857D01*
X48841428Y-93825714D01*
X48898571Y-93768571D01*
X48955714Y-93654285D01*
X48955714Y-93540000D01*
X48898571Y-93425714D01*
X48841428Y-93368571D01*
X48727142Y-93311428D01*
X48498571Y-93254285D01*
X48384285Y-93197142D01*
X48327142Y-93140000D01*
X48270000Y-93025714D01*
X48270000Y-92911428D01*
X48327142Y-92797142D01*
X48384285Y-92740000D01*
X48498571Y-92682857D01*
X48784285Y-92682857D01*
X48955714Y-92740000D01*
X49298571Y-92682857D02*
X49984285Y-92682857D01*
X49641428Y-93882857D02*
X49641428Y-92682857D01*
X34146714Y-29698142D02*
X34203857Y-29526714D01*
X34203857Y-29241000D01*
X34146714Y-29126714D01*
X34089571Y-29069571D01*
X33975285Y-29012428D01*
X33861000Y-29012428D01*
X33746714Y-29069571D01*
X33689571Y-29126714D01*
X33632428Y-29241000D01*
X33575285Y-29469571D01*
X33518142Y-29583857D01*
X33461000Y-29641000D01*
X33346714Y-29698142D01*
X33232428Y-29698142D01*
X33118142Y-29641000D01*
X33061000Y-29583857D01*
X33003857Y-29469571D01*
X33003857Y-29183857D01*
X33061000Y-29012428D01*
X34203857Y-28498142D02*
X33003857Y-28498142D01*
X33003857Y-28212428D01*
X33061000Y-28041000D01*
X33175285Y-27926714D01*
X33289571Y-27869571D01*
X33518142Y-27812428D01*
X33689571Y-27812428D01*
X33918142Y-27869571D01*
X34032428Y-27926714D01*
X34146714Y-28041000D01*
X34203857Y-28212428D01*
X34203857Y-28498142D01*
X33861000Y-27355285D02*
X33861000Y-26783857D01*
X34203857Y-27469571D02*
X33003857Y-27069571D01*
X34203857Y-26669571D01*
X38171000Y-29012428D02*
X38113857Y-29126714D01*
X38113857Y-29298143D01*
X38171000Y-29469571D01*
X38285285Y-29583857D01*
X38399571Y-29641000D01*
X38628142Y-29698143D01*
X38799571Y-29698143D01*
X39028142Y-29641000D01*
X39142428Y-29583857D01*
X39256714Y-29469571D01*
X39313857Y-29298143D01*
X39313857Y-29183857D01*
X39256714Y-29012428D01*
X39199571Y-28955285D01*
X38799571Y-28955285D01*
X38799571Y-29183857D01*
X39313857Y-28441000D02*
X38113857Y-28441000D01*
X39313857Y-27755285D01*
X38113857Y-27755285D01*
X39313857Y-27183857D02*
X38113857Y-27183857D01*
X38113857Y-26898143D01*
X38171000Y-26726714D01*
X38285285Y-26612428D01*
X38399571Y-26555285D01*
X38628142Y-26498143D01*
X38799571Y-26498143D01*
X39028142Y-26555285D01*
X39142428Y-26612428D01*
X39256714Y-26726714D01*
X39313857Y-26898143D01*
X39313857Y-27183857D01*
X40623857Y-29755285D02*
X40623857Y-29012428D01*
X41081000Y-29412428D01*
X41081000Y-29241000D01*
X41138142Y-29126714D01*
X41195285Y-29069571D01*
X41309571Y-29012428D01*
X41595285Y-29012428D01*
X41709571Y-29069571D01*
X41766714Y-29126714D01*
X41823857Y-29241000D01*
X41823857Y-29583857D01*
X41766714Y-29698142D01*
X41709571Y-29755285D01*
X40623857Y-28669571D02*
X41823857Y-28269571D01*
X40623857Y-27869571D01*
X36736714Y-29698142D02*
X36793857Y-29526713D01*
X36793857Y-29240999D01*
X36736714Y-29126713D01*
X36679571Y-29069571D01*
X36565285Y-29012428D01*
X36451000Y-29012428D01*
X36336714Y-29069571D01*
X36279571Y-29126713D01*
X36222428Y-29240999D01*
X36165285Y-29469571D01*
X36108142Y-29583856D01*
X36051000Y-29640999D01*
X35936714Y-29698142D01*
X35822428Y-29698142D01*
X35708142Y-29640999D01*
X35651000Y-29583856D01*
X35593857Y-29469571D01*
X35593857Y-29183856D01*
X35651000Y-29012428D01*
X36679571Y-27812428D02*
X36736714Y-27869571D01*
X36793857Y-28040999D01*
X36793857Y-28155285D01*
X36736714Y-28326713D01*
X36622428Y-28440999D01*
X36508142Y-28498142D01*
X36279571Y-28555285D01*
X36108142Y-28555285D01*
X35879571Y-28498142D01*
X35765285Y-28440999D01*
X35651000Y-28326713D01*
X35593857Y-28155285D01*
X35593857Y-28040999D01*
X35651000Y-27869571D01*
X35708142Y-27812428D01*
X36793857Y-26726713D02*
X36793857Y-27298142D01*
X35593857Y-27298142D01*
X613000Y-92120000D02*
X613000Y-87070000D01*
X51413000Y-69253000D02*
X613000Y-69253000D01*
X51413000Y-92113000D02*
X51413000Y-69253000D01*
D11*
X14938000Y-70820000D02*
X43798000Y-70820000D01*
D10*
X45003809Y-29663333D02*
X45956190Y-29663333D01*
X44813333Y-30234761D02*
X45480000Y-28234761D01*
X46146666Y-30234761D01*
D13*
X38694285Y-91034285D02*
X38294285Y-91034285D01*
X38294285Y-91662857D02*
X38294285Y-90462857D01*
X38865714Y-90462857D01*
X39780000Y-91605714D02*
X39665714Y-91662857D01*
X39437142Y-91662857D01*
X39322857Y-91605714D01*
X39265714Y-91491428D01*
X39265714Y-91034285D01*
X39322857Y-90920000D01*
X39437142Y-90862857D01*
X39665714Y-90862857D01*
X39780000Y-90920000D01*
X39837142Y-91034285D01*
X39837142Y-91148571D01*
X39265714Y-91262857D01*
X40865714Y-91662857D02*
X40865714Y-91034285D01*
X40808571Y-90920000D01*
X40694285Y-90862857D01*
X40465714Y-90862857D01*
X40351428Y-90920000D01*
X40865714Y-91605714D02*
X40751428Y-91662857D01*
X40465714Y-91662857D01*
X40351428Y-91605714D01*
X40294285Y-91491428D01*
X40294285Y-91377142D01*
X40351428Y-91262857D01*
X40465714Y-91205714D01*
X40751428Y-91205714D01*
X40865714Y-91148571D01*
X41265714Y-90862857D02*
X41722857Y-90862857D01*
X41437142Y-90462857D02*
X41437142Y-91491428D01*
X41494285Y-91605714D01*
X41608571Y-91662857D01*
X41722857Y-91662857D01*
X42122857Y-91662857D02*
X42122857Y-90462857D01*
X42637142Y-91662857D02*
X42637142Y-91034285D01*
X42580000Y-90920000D01*
X42465714Y-90862857D01*
X42294285Y-90862857D01*
X42180000Y-90920000D01*
X42122857Y-90977142D01*
X43665714Y-91605714D02*
X43551428Y-91662857D01*
X43322857Y-91662857D01*
X43208571Y-91605714D01*
X43151428Y-91491428D01*
X43151428Y-91034285D01*
X43208571Y-90920000D01*
X43322857Y-90862857D01*
X43551428Y-90862857D01*
X43665714Y-90920000D01*
X43722857Y-91034285D01*
X43722857Y-91148571D01*
X43151428Y-91262857D01*
X44237142Y-91662857D02*
X44237142Y-90862857D01*
X44237142Y-91091428D02*
X44294285Y-90977142D01*
X44351428Y-90920000D01*
X44465714Y-90862857D01*
X44580000Y-90862857D01*
X44694285Y-91777142D02*
X45608571Y-91777142D01*
X46522857Y-91662857D02*
X45837142Y-91662857D01*
X46180000Y-91662857D02*
X46180000Y-90462857D01*
X46065714Y-90634285D01*
X45951428Y-90748571D01*
X45837142Y-90805714D01*
D10*
X51413000Y-92113000D02*
X618000Y-92113000D01*
X48341303Y-3188095D02*
X48341303Y-2507142D01*
X48760350Y-2873809D01*
X48760350Y-2716666D01*
X48812731Y-2611904D01*
X48865112Y-2559523D01*
X48969874Y-2507142D01*
X49231779Y-2507142D01*
X49336541Y-2559523D01*
X49388922Y-2611904D01*
X49441303Y-2716666D01*
X49441303Y-3030952D01*
X49388922Y-3135714D01*
X49336541Y-3188095D01*
X48341303Y-2192857D02*
X49441303Y-1826190D01*
X48341303Y-1459523D01*
X34975238Y-102847619D02*
X35341904Y-103947619D01*
X35708571Y-102847619D01*
X36075238Y-103947619D02*
X36075238Y-102847619D01*
X36599047Y-103947619D02*
X36599047Y-102847619D01*
X37227619Y-103947619D01*
X37227619Y-102847619D01*
X40211904Y-102900000D02*
X40107142Y-102847619D01*
X39950000Y-102847619D01*
X39792857Y-102900000D01*
X39688095Y-103004761D01*
X39635714Y-103109523D01*
X39583333Y-103319047D01*
X39583333Y-103476190D01*
X39635714Y-103685714D01*
X39688095Y-103790476D01*
X39792857Y-103895238D01*
X39950000Y-103947619D01*
X40054761Y-103947619D01*
X40211904Y-103895238D01*
X40264285Y-103842857D01*
X40264285Y-103476190D01*
X40054761Y-103476190D01*
X40735714Y-103947619D02*
X40735714Y-102847619D01*
X41364285Y-103947619D01*
X41364285Y-102847619D01*
X41888095Y-103947619D02*
X41888095Y-102847619D01*
X42150000Y-102847619D01*
X42307142Y-102900000D01*
X42411904Y-103004761D01*
X42464285Y-103109523D01*
X42516666Y-103319047D01*
X42516666Y-103476190D01*
X42464285Y-103685714D01*
X42411904Y-103790476D01*
X42307142Y-103895238D01*
X42150000Y-103947619D01*
X41888095Y-103947619D01*
D11*
X14908000Y-46708000D02*
X43768000Y-46708000D01*
D12*
X43833096Y-1563807D02*
X43994720Y-1482995D01*
X44196751Y-1280964D01*
X44237157Y-1159746D01*
X44237157Y-1078934D01*
X44196751Y-957715D01*
X44115938Y-876903D01*
X43994720Y-836497D01*
X43913908Y-836497D01*
X43792690Y-876903D01*
X43590659Y-998122D01*
X43469441Y-1038528D01*
X43388629Y-1038528D01*
X43267410Y-998122D01*
X43186598Y-917309D01*
X43146192Y-796091D01*
X43146192Y-715279D01*
X43186598Y-594061D01*
X43388629Y-392030D01*
X43550253Y-311218D01*
X44722030Y-755685D02*
X43873502Y92842D01*
X44075532Y294873D01*
X44237157Y375685D01*
X44398781Y375685D01*
X44520000Y335279D01*
X44722030Y214061D01*
X44843248Y92842D01*
X44964467Y-109187D01*
X45004873Y-230406D01*
X45004873Y-392030D01*
X44924061Y-553654D01*
X44722030Y-755685D01*
X45287715Y294873D02*
X45691776Y698934D01*
X45449340Y-28375D02*
X44883654Y1102995D01*
X46015025Y537309D01*
D10*
X27440142Y-54660428D02*
X26640142Y-54660428D01*
X27897285Y-54374714D02*
X27040142Y-54089000D01*
X27040142Y-54831857D01*
X26754428Y-55289000D02*
X26697285Y-55346142D01*
X26640142Y-55289000D01*
X26697285Y-55231857D01*
X26754428Y-55289000D01*
X26640142Y-55289000D01*
X27840142Y-55746142D02*
X27840142Y-56546142D01*
X26640142Y-56031857D01*
X26640142Y-57003285D02*
X27840142Y-57003285D01*
X26640142Y-57689000D02*
X27325857Y-57174714D01*
X27840142Y-57689000D02*
X27154428Y-57003285D01*
D13*
X9118142Y-32296714D02*
X9289571Y-32353857D01*
X9575285Y-32353857D01*
X9689571Y-32296714D01*
X9746714Y-32239571D01*
X9803857Y-32125285D01*
X9803857Y-32011000D01*
X9746714Y-31896714D01*
X9689571Y-31839571D01*
X9575285Y-31782428D01*
X9346714Y-31725285D01*
X9232428Y-31668142D01*
X9175285Y-31611000D01*
X9118142Y-31496714D01*
X9118142Y-31382428D01*
X9175285Y-31268142D01*
X9232428Y-31211000D01*
X9346714Y-31153857D01*
X9632428Y-31153857D01*
X9803857Y-31211000D01*
X11003857Y-32239571D02*
X10946714Y-32296714D01*
X10775285Y-32353857D01*
X10661000Y-32353857D01*
X10489571Y-32296714D01*
X10375285Y-32182428D01*
X10318142Y-32068142D01*
X10261000Y-31839571D01*
X10261000Y-31668142D01*
X10318142Y-31439571D01*
X10375285Y-31325285D01*
X10489571Y-31211000D01*
X10661000Y-31153857D01*
X10775285Y-31153857D01*
X10946714Y-31211000D01*
X11003857Y-31268142D01*
X11518142Y-32353857D02*
X11518142Y-31153857D01*
X11803857Y-31153857D01*
X11975285Y-31211000D01*
X12089571Y-31325285D01*
X12146714Y-31439571D01*
X12203857Y-31668142D01*
X12203857Y-31839571D01*
X12146714Y-32068142D01*
X12089571Y-32182428D01*
X11975285Y-32296714D01*
X11803857Y-32353857D01*
X11518142Y-32353857D01*
X12603857Y-31153857D02*
X13346714Y-31153857D01*
X12946714Y-31611000D01*
X13118142Y-31611000D01*
X13232428Y-31668142D01*
X13289571Y-31725285D01*
X13346714Y-31839571D01*
X13346714Y-32125285D01*
X13289571Y-32239571D01*
X13232428Y-32296714D01*
X13118142Y-32353857D01*
X12775285Y-32353857D01*
X12661000Y-32296714D01*
X12603857Y-32239571D01*
X14089571Y-31153857D02*
X14203857Y-31153857D01*
X14318142Y-31211000D01*
X14375285Y-31268142D01*
X14432428Y-31382428D01*
X14489571Y-31611000D01*
X14489571Y-31896714D01*
X14432428Y-32125285D01*
X14375285Y-32239571D01*
X14318142Y-32296714D01*
X14203857Y-32353857D01*
X14089571Y-32353857D01*
X13975285Y-32296714D01*
X13918142Y-32239571D01*
X13861000Y-32125285D01*
X13803857Y-31896714D01*
X13803857Y-31611000D01*
X13861000Y-31382428D01*
X13918142Y-31268142D01*
X13975285Y-31211000D01*
X14089571Y-31153857D01*
X16261000Y-32811000D02*
X16203857Y-32753857D01*
X16089571Y-32582428D01*
X16032428Y-32468142D01*
X15975285Y-32296714D01*
X15918142Y-32011000D01*
X15918142Y-31782428D01*
X15975285Y-31496714D01*
X16032428Y-31325285D01*
X16089571Y-31211000D01*
X16203857Y-31039571D01*
X16261000Y-30982428D01*
X17403857Y-32239571D02*
X17346714Y-32296714D01*
X17175285Y-32353857D01*
X17061000Y-32353857D01*
X16889571Y-32296714D01*
X16775285Y-32182428D01*
X16718142Y-32068142D01*
X16661000Y-31839571D01*
X16661000Y-31668142D01*
X16718142Y-31439571D01*
X16775285Y-31325285D01*
X16889571Y-31211000D01*
X17061000Y-31153857D01*
X17175285Y-31153857D01*
X17346714Y-31211000D01*
X17403857Y-31268142D01*
X18146714Y-31153857D02*
X18375285Y-31153857D01*
X18489571Y-31211000D01*
X18603857Y-31325285D01*
X18661000Y-31553857D01*
X18661000Y-31953857D01*
X18603857Y-32182428D01*
X18489571Y-32296714D01*
X18375285Y-32353857D01*
X18146714Y-32353857D01*
X18032428Y-32296714D01*
X17918142Y-32182428D01*
X17861000Y-31953857D01*
X17861000Y-31553857D01*
X17918142Y-31325285D01*
X18032428Y-31211000D01*
X18146714Y-31153857D01*
X19118142Y-31268142D02*
X19175285Y-31211000D01*
X19289571Y-31153857D01*
X19575285Y-31153857D01*
X19689571Y-31211000D01*
X19746714Y-31268142D01*
X19803857Y-31382428D01*
X19803857Y-31496714D01*
X19746714Y-31668142D01*
X19061000Y-32353857D01*
X19803857Y-32353857D01*
X20203857Y-32811000D02*
X20261000Y-32753857D01*
X20375285Y-32582428D01*
X20432428Y-32468142D01*
X20489571Y-32296714D01*
X20546714Y-32011000D01*
X20546714Y-31782428D01*
X20489571Y-31496714D01*
X20432428Y-31325285D01*
X20375285Y-31211000D01*
X20261000Y-31039571D01*
X20203857Y-30982428D01*
D11*
X43281000Y-32971000D02*
X43281000Y-9201000D01*
X6921000Y-32971000D02*
X43281000Y-32971000D01*
X6921000Y-9201000D02*
X43281000Y-9201000D01*
X6921000Y-9201000D02*
X6921000Y-32971000D01*
X20137000Y-93569000D02*
X20137000Y-93789000D01*
X8057000Y-93569000D02*
X20137000Y-93569000D01*
X8057000Y-101339000D02*
X8057000Y-93569000D01*
X20127000Y-101339000D02*
X8057000Y-101339000D01*
D10*
X23884142Y-54848428D02*
X23084142Y-54848428D01*
X24341285Y-54562714D02*
X23484142Y-54277000D01*
X23484142Y-55019857D01*
X23198428Y-55477000D02*
X23141285Y-55534142D01*
X23084142Y-55477000D01*
X23141285Y-55419857D01*
X23198428Y-55477000D01*
X23084142Y-55477000D01*
X24284142Y-55934142D02*
X24284142Y-56734142D01*
X23084142Y-56219857D01*
X23084142Y-57191285D02*
X24284142Y-57191285D01*
X23084142Y-57877000D02*
X23769857Y-57362714D01*
X24284142Y-57877000D02*
X23598428Y-57191285D01*
X12454142Y-54406428D02*
X11654142Y-54406428D01*
X12911285Y-54120714D02*
X12054142Y-53835000D01*
X12054142Y-54577857D01*
X11768428Y-55035000D02*
X11711285Y-55092142D01*
X11654142Y-55035000D01*
X11711285Y-54977857D01*
X11768428Y-55035000D01*
X11654142Y-55035000D01*
X12854142Y-55492142D02*
X12854142Y-56292142D01*
X11654142Y-55777857D01*
X11654142Y-56749285D02*
X12854142Y-56749285D01*
X11654142Y-57435000D02*
X12339857Y-56920714D01*
X12854142Y-57435000D02*
X12168428Y-56749285D01*
X20074142Y-54914428D02*
X19274142Y-54914428D01*
X20531285Y-54628714D02*
X19674142Y-54343000D01*
X19674142Y-55085857D01*
X19388428Y-55543000D02*
X19331285Y-55600142D01*
X19274142Y-55543000D01*
X19331285Y-55485857D01*
X19388428Y-55543000D01*
X19274142Y-55543000D01*
X20474142Y-56000142D02*
X20474142Y-56800142D01*
X19274142Y-56285857D01*
X19274142Y-57257285D02*
X20474142Y-57257285D01*
X19274142Y-57943000D02*
X19959857Y-57428714D01*
X20474142Y-57943000D02*
X19788428Y-57257285D01*
X16264142Y-54660428D02*
X15464142Y-54660428D01*
X16721285Y-54374714D02*
X15864142Y-54089000D01*
X15864142Y-54831857D01*
X15578428Y-55289000D02*
X15521285Y-55346142D01*
X15464142Y-55289000D01*
X15521285Y-55231857D01*
X15578428Y-55289000D01*
X15464142Y-55289000D01*
X16664142Y-55746142D02*
X16664142Y-56546142D01*
X15464142Y-56031857D01*
X15464142Y-57003285D02*
X16664142Y-57003285D01*
X15464142Y-57689000D02*
X16149857Y-57174714D01*
X16664142Y-57689000D02*
X15978428Y-57003285D01*
X10799857Y-98686714D02*
X10799857Y-99258143D01*
X11371285Y-99315285D01*
X11314142Y-99258143D01*
X11257000Y-99143857D01*
X11257000Y-98858143D01*
X11314142Y-98743857D01*
X11371285Y-98686714D01*
X11485571Y-98629571D01*
X11771285Y-98629571D01*
X11885571Y-98686714D01*
X11942714Y-98743857D01*
X11999857Y-98858143D01*
X11999857Y-99143857D01*
X11942714Y-99258143D01*
X11885571Y-99315285D01*
X10799857Y-98286714D02*
X11999857Y-97886714D01*
X10799857Y-97486714D01*
X13587000Y-100115285D02*
X13529857Y-100229571D01*
X13529857Y-100401000D01*
X13587000Y-100572428D01*
X13701285Y-100686714D01*
X13815571Y-100743857D01*
X14044142Y-100801000D01*
X14215571Y-100801000D01*
X14444142Y-100743857D01*
X14558428Y-100686714D01*
X14672714Y-100572428D01*
X14729857Y-100401000D01*
X14729857Y-100286714D01*
X14672714Y-100115285D01*
X14615571Y-100058142D01*
X14215571Y-100058142D01*
X14215571Y-100286714D01*
X14729857Y-99543857D02*
X13529857Y-99543857D01*
X14729857Y-98858142D01*
X13529857Y-98858142D01*
X14729857Y-98286714D02*
X13529857Y-98286714D01*
X13529857Y-98001000D01*
X13587000Y-97829571D01*
X13701285Y-97715285D01*
X13815571Y-97658142D01*
X14044142Y-97601000D01*
X14215571Y-97601000D01*
X14444142Y-97658142D01*
X14558428Y-97715285D01*
X14672714Y-97829571D01*
X14729857Y-98001000D01*
X14729857Y-98286714D01*
X15929857Y-100115285D02*
X17129857Y-99715285D01*
X15929857Y-99315285D01*
X17129857Y-98915285D02*
X15929857Y-98915285D01*
X17129857Y-98343857D02*
X15929857Y-98343857D01*
X17129857Y-97658142D01*
X15929857Y-97658142D01*
X51383000Y-68001000D02*
X588000Y-68001000D01*
X51383000Y-45141000D02*
X583000Y-45141000D01*
X51383000Y-68001000D02*
X51383000Y-45141000D01*
X583000Y-68008000D02*
X583000Y-45141000D01*
D11*
X20128600Y-93782000D02*
X20128600Y-101332000D01*
%TO.C,J14*%
X15800000Y-39020000D02*
X15800000Y-37690000D01*
X15800000Y-37690000D02*
X17130000Y-37690000D01*
X18400000Y-37690000D02*
X36240000Y-37690000D01*
X36240000Y-40350000D02*
X36240000Y-37690000D01*
X18400000Y-40350000D02*
X36240000Y-40350000D01*
X18400000Y-40350000D02*
X18400000Y-37690000D01*
%TO.C,J3*%
X5633000Y-70523000D02*
X5633000Y-69193000D01*
X5633000Y-69193000D02*
X6963000Y-69193000D01*
X8233000Y-69193000D02*
X46393000Y-69193000D01*
X46393000Y-71853000D02*
X46393000Y-69193000D01*
X8233000Y-71853000D02*
X46393000Y-71853000D01*
X8233000Y-71853000D02*
X8233000Y-69193000D01*
%TO.C,Q3*%
X9980000Y-57920000D02*
X9980000Y-54070000D01*
X9392264Y-53677617D02*
G75*
G02*
X9980000Y-54070000I-1112264J-2302383D01*
G01*
X7190487Y-53643537D02*
G75*
G03*
X5930000Y-54920000I1089513J-2336463D01*
G01*
X7185214Y-58327775D02*
G75*
G02*
X5930000Y-57070000I1094786J2347775D01*
G01*
X9402045Y-58302631D02*
G75*
G03*
X9980000Y-57920000I-1122045J2322631D01*
G01*
D14*
%TO.C,SP1*%
X38940000Y-1080000D02*
G75*
G03*
X38940000Y-1080000I-500000J0D01*
G01*
X36040000Y-4580000D02*
X36040000Y420000D01*
X41040000Y-4580000D02*
X36040000Y-4580000D01*
X41040000Y-380000D02*
X41040000Y-4580000D01*
X40240000Y420000D02*
X41040000Y-380000D01*
X36040000Y420000D02*
X40240000Y420000D01*
D11*
%TO.C,R8*%
X2650000Y-50580000D02*
X2650000Y-51270000D01*
X2650000Y-61200000D02*
X2650000Y-60510000D01*
X930000Y-51270000D02*
X930000Y-60510000D01*
X4370000Y-51270000D02*
X930000Y-51270000D01*
X4370000Y-60510000D02*
X4370000Y-51270000D01*
X930000Y-60510000D02*
X4370000Y-60510000D01*
%TO.C,D2*%
X50910000Y-78465000D02*
X46970000Y-78465000D01*
X50910000Y-78705000D02*
X46970000Y-78705000D01*
X50910000Y-78585000D02*
X46970000Y-78585000D01*
X48940000Y-86410000D02*
X48940000Y-86270000D01*
X48940000Y-76990000D02*
X48940000Y-77130000D01*
X50910000Y-86270000D02*
X50910000Y-77130000D01*
X46970000Y-86270000D02*
X50910000Y-86270000D01*
X46970000Y-77130000D02*
X46970000Y-86270000D01*
X50910000Y-77130000D02*
X46970000Y-77130000D01*
%TO.C,Q2*%
X34520000Y-49550000D02*
X34520000Y-59790000D01*
X29879000Y-49550000D02*
X29879000Y-59790000D01*
X34520000Y-49550000D02*
X29879000Y-49550000D01*
X34520000Y-59790000D02*
X29879000Y-59790000D01*
X33010000Y-49550000D02*
X33010000Y-59790000D01*
X34520000Y-52820000D02*
X33010000Y-52820000D01*
X34520000Y-56521000D02*
X33010000Y-56521000D01*
%TO.C,Q1*%
X24570000Y-73370000D02*
X24570000Y-83610000D01*
X19929000Y-73370000D02*
X19929000Y-83610000D01*
X24570000Y-73370000D02*
X19929000Y-73370000D01*
X24570000Y-83610000D02*
X19929000Y-83610000D01*
X23060000Y-73370000D02*
X23060000Y-83610000D01*
X24570000Y-76640000D02*
X23060000Y-76640000D01*
X24570000Y-80341000D02*
X23060000Y-80341000D01*
%TO.C,J20*%
X17900000Y-1145000D02*
X17900000Y-3645000D01*
X17900000Y-3645000D02*
X16850000Y-3645000D01*
X16850000Y-3645000D02*
X16850000Y-4635000D01*
X11680000Y-1145000D02*
X11680000Y-3645000D01*
X11680000Y-3645000D02*
X12730000Y-3645000D01*
X16730000Y825000D02*
X12850000Y825000D01*
%TO.C,J18*%
X44430000Y-10880000D02*
X47090000Y-10880000D01*
X44430000Y-10880000D02*
X44430000Y-23640000D01*
X44430000Y-23640000D02*
X47090000Y-23640000D01*
X47090000Y-10880000D02*
X47090000Y-23640000D01*
X47090000Y-8280000D02*
X47090000Y-9610000D01*
X45760000Y-8280000D02*
X47090000Y-8280000D01*
%TO.C,R7*%
X37360000Y-60790000D02*
X37360000Y-64230000D01*
X37360000Y-64230000D02*
X46600000Y-64230000D01*
X46600000Y-64230000D02*
X46600000Y-60790000D01*
X46600000Y-60790000D02*
X37360000Y-60790000D01*
X36670000Y-62510000D02*
X37360000Y-62510000D01*
X47290000Y-62510000D02*
X46600000Y-62510000D01*
%TO.C,R6*%
X37920000Y-86200000D02*
X37230000Y-86200000D01*
X27300000Y-86200000D02*
X27990000Y-86200000D01*
X37230000Y-84480000D02*
X27990000Y-84480000D01*
X37230000Y-87920000D02*
X37230000Y-84480000D01*
X27990000Y-87920000D02*
X37230000Y-87920000D01*
X27990000Y-84480000D02*
X27990000Y-87920000D01*
%TO.C,J15*%
X37540000Y-35280000D02*
X37540000Y-36610000D01*
X37540000Y-36610000D02*
X36210000Y-36610000D01*
X34940000Y-36610000D02*
X14560000Y-36610000D01*
X14560000Y-33950000D02*
X14560000Y-36610000D01*
X34940000Y-33950000D02*
X14560000Y-33950000D01*
X34940000Y-33950000D02*
X34940000Y-36610000D01*
%TO.C,J11*%
X3310000Y-9440000D02*
X5970000Y-9440000D01*
X3310000Y-9440000D02*
X3310000Y-32360000D01*
X3310000Y-32360000D02*
X5970000Y-32360000D01*
X5970000Y-9440000D02*
X5970000Y-32360000D01*
X5970000Y-6840000D02*
X5970000Y-8170000D01*
X4640000Y-6840000D02*
X5970000Y-6840000D01*
%TO.C,J6*%
X9530000Y-6960000D02*
X9530000Y-5630000D01*
X9530000Y-5630000D02*
X10860000Y-5630000D01*
X12130000Y-5630000D02*
X42670000Y-5630000D01*
X42670000Y-8290000D02*
X42670000Y-5630000D01*
X12130000Y-8290000D02*
X42670000Y-8290000D01*
X12130000Y-8290000D02*
X12130000Y-5630000D01*
%TO.C,J2*%
X36243000Y-90807000D02*
X36243000Y-92137000D01*
X36243000Y-92137000D02*
X34913000Y-92137000D01*
X33643000Y-92137000D02*
X5643000Y-92137000D01*
X5643000Y-89477000D02*
X5643000Y-92137000D01*
X33643000Y-89477000D02*
X5643000Y-89477000D01*
X33643000Y-89477000D02*
X33643000Y-92137000D01*
%TO.C,SW4*%
X49730000Y-100930000D02*
X47050000Y-100930000D01*
X47050000Y-94690000D02*
X49730000Y-94690000D01*
X51510000Y-94840000D02*
X51510000Y-100780000D01*
X45270000Y-94840000D02*
X45270000Y-100780000D01*
X49804214Y-97810000D02*
G75*
G03*
X49804214Y-97810000I-1414214J0D01*
G01*
%TO.C,R5*%
X25717000Y-60509000D02*
X29157000Y-60509000D01*
X29157000Y-60509000D02*
X29157000Y-51269000D01*
X29157000Y-51269000D02*
X25717000Y-51269000D01*
X25717000Y-51269000D02*
X25717000Y-60509000D01*
X27437000Y-61199000D02*
X27437000Y-60509000D01*
X27437000Y-50579000D02*
X27437000Y-51269000D01*
%TO.C,J19*%
X1750000Y-42780000D02*
X420000Y-42780000D01*
X420000Y-42780000D02*
X420000Y-41450000D01*
X420000Y-40180000D02*
X420000Y-35040000D01*
X3080000Y-35040000D02*
X420000Y-35040000D01*
X3080000Y-40180000D02*
X3080000Y-35040000D01*
X3080000Y-40180000D02*
X420000Y-40180000D01*
%TO.C,J9*%
X33613000Y-65365000D02*
X33613000Y-68025000D01*
X33613000Y-65365000D02*
X5613000Y-65365000D01*
X5613000Y-65365000D02*
X5613000Y-68025000D01*
X33613000Y-68025000D02*
X5613000Y-68025000D01*
X36213000Y-68025000D02*
X34883000Y-68025000D01*
X36213000Y-66695000D02*
X36213000Y-68025000D01*
%TO.C,J16*%
X23470000Y-44050000D02*
X23470000Y-41390000D01*
X23470000Y-44050000D02*
X31150000Y-44050000D01*
X31150000Y-44050000D02*
X31150000Y-41390000D01*
X23470000Y-41390000D02*
X31150000Y-41390000D01*
X20870000Y-41390000D02*
X22200000Y-41390000D01*
X20870000Y-42720000D02*
X20870000Y-41390000D01*
%TO.C,J17*%
X40003000Y-30281000D02*
X40003000Y-32941000D01*
X40003000Y-30281000D02*
X24703000Y-30281000D01*
X24703000Y-30281000D02*
X24703000Y-32941000D01*
X40003000Y-32941000D02*
X24703000Y-32941000D01*
X42603000Y-32941000D02*
X41273000Y-32941000D01*
X42603000Y-31611000D02*
X42603000Y-32941000D01*
%TO.C,J5*%
X51450000Y-16020000D02*
X48790000Y-16020000D01*
X51450000Y-16020000D02*
X51450000Y-10880000D01*
X51450000Y-10880000D02*
X48790000Y-10880000D01*
X48790000Y-16020000D02*
X48790000Y-10880000D01*
X48790000Y-18620000D02*
X48790000Y-17290000D01*
X50120000Y-18620000D02*
X48790000Y-18620000D01*
%TO.C,SW2*%
X47240000Y-36060000D02*
X47010000Y-36060000D01*
X50910000Y-35540000D02*
X50910000Y-43260000D01*
X50910000Y-43260000D02*
X47010000Y-43260000D01*
X43900000Y-35540000D02*
X43900000Y-36060000D01*
X50910000Y-35540000D02*
X47010000Y-35540000D01*
X47240000Y-42740000D02*
X47010000Y-42740000D01*
X44410000Y-36060000D02*
X43900000Y-36060000D01*
X44410000Y-35540000D02*
X43900000Y-35540000D01*
X47240000Y-42200000D02*
X47240000Y-42740000D01*
X44410000Y-42740000D02*
X43900000Y-42740000D01*
X43900000Y-42740000D02*
X43900000Y-43260000D01*
X44410000Y-43260000D02*
X43900000Y-43260000D01*
X47240000Y-36060000D02*
X47240000Y-36600000D01*
X47240000Y-37700000D02*
X47240000Y-41100000D01*
%TO.C,SW1*%
X47280000Y-27530000D02*
X47280000Y-30930000D01*
X47280000Y-25890000D02*
X47280000Y-26430000D01*
X44450000Y-33090000D02*
X43940000Y-33090000D01*
X43940000Y-32570000D02*
X43940000Y-33090000D01*
X44450000Y-32570000D02*
X43940000Y-32570000D01*
X47280000Y-32030000D02*
X47280000Y-32570000D01*
X44450000Y-25370000D02*
X43940000Y-25370000D01*
X44450000Y-25890000D02*
X43940000Y-25890000D01*
X47280000Y-32570000D02*
X47050000Y-32570000D01*
X50950000Y-25370000D02*
X47050000Y-25370000D01*
X43940000Y-25370000D02*
X43940000Y-25890000D01*
X50950000Y-33090000D02*
X47050000Y-33090000D01*
X50950000Y-25370000D02*
X50950000Y-33090000D01*
X47280000Y-25890000D02*
X47050000Y-25890000D01*
%TO.C,J1*%
X16510000Y-79540000D02*
X16510000Y-79260000D01*
X16510000Y-79260000D02*
X18110000Y-79260000D01*
X18110000Y-79260000D02*
X18110000Y-78340000D01*
X18110000Y-78340000D02*
X10290000Y-78340000D01*
X10290000Y-78340000D02*
X10290000Y-84460000D01*
X10290000Y-84460000D02*
X18110000Y-84460000D01*
X18110000Y-84460000D02*
X18110000Y-83540000D01*
X18110000Y-83540000D02*
X16510000Y-83540000D01*
X16510000Y-83540000D02*
X16510000Y-83260000D01*
X10290000Y-80900000D02*
X14650000Y-80900000D01*
X14650000Y-80900000D02*
X14650000Y-81900000D01*
X14650000Y-81900000D02*
X10290000Y-81900000D01*
X16510000Y-78340000D02*
X16510000Y-79260000D01*
X16510000Y-84460000D02*
X16510000Y-83540000D01*
X14150000Y-79100000D02*
X12550000Y-79100000D01*
X12550000Y-79100000D02*
X12550000Y-80100000D01*
X12550000Y-80100000D02*
X14150000Y-80100000D01*
X14150000Y-80100000D02*
X14150000Y-79100000D01*
X14150000Y-83700000D02*
X12550000Y-83700000D01*
X12550000Y-83700000D02*
X12550000Y-82700000D01*
X12550000Y-82700000D02*
X14150000Y-82700000D01*
X14150000Y-82700000D02*
X14150000Y-83700000D01*
X12550000Y-80100000D02*
X10290000Y-80100000D01*
X12550000Y-79600000D02*
X10290000Y-79600000D01*
X16510000Y-79540000D02*
X17725000Y-79540000D01*
%TO.C,J10*%
X8203000Y-47741000D02*
X8203000Y-45081000D01*
X8203000Y-47741000D02*
X46363000Y-47741000D01*
X46363000Y-47741000D02*
X46363000Y-45081000D01*
X8203000Y-45081000D02*
X46363000Y-45081000D01*
X5603000Y-45081000D02*
X6933000Y-45081000D01*
X5603000Y-46411000D02*
X5603000Y-45081000D01*
%TO.C,D1*%
X45910000Y-78465000D02*
X41970000Y-78465000D01*
X45910000Y-78705000D02*
X41970000Y-78705000D01*
X45910000Y-78585000D02*
X41970000Y-78585000D01*
X43940000Y-86410000D02*
X43940000Y-86270000D01*
X43940000Y-76990000D02*
X43940000Y-77130000D01*
X45910000Y-86270000D02*
X45910000Y-77130000D01*
X41970000Y-86270000D02*
X45910000Y-86270000D01*
X41970000Y-77130000D02*
X41970000Y-86270000D01*
X45910000Y-77130000D02*
X41970000Y-77130000D01*
%TO.C,C2*%
X13935000Y-102115225D02*
X13435000Y-102115225D01*
X13685000Y-101865225D02*
X13685000Y-102365225D01*
X12494000Y-107271000D02*
X11926000Y-107271000D01*
X12728000Y-107231000D02*
X11692000Y-107231000D01*
X12887000Y-107191000D02*
X11533000Y-107191000D01*
X13015000Y-107151000D02*
X11405000Y-107151000D01*
X13125000Y-107111000D02*
X11295000Y-107111000D01*
X13221000Y-107071000D02*
X11199000Y-107071000D01*
X13308000Y-107031000D02*
X11112000Y-107031000D01*
X13388000Y-106991000D02*
X11032000Y-106991000D01*
X11170000Y-106951000D02*
X10959000Y-106951000D01*
X13461000Y-106951000D02*
X13250000Y-106951000D01*
X11170000Y-106911000D02*
X10891000Y-106911000D01*
X13529000Y-106911000D02*
X13250000Y-106911000D01*
X11170000Y-106871000D02*
X10827000Y-106871000D01*
X13593000Y-106871000D02*
X13250000Y-106871000D01*
X11170000Y-106831000D02*
X10767000Y-106831000D01*
X13653000Y-106831000D02*
X13250000Y-106831000D01*
X11170000Y-106791000D02*
X10710000Y-106791000D01*
X13710000Y-106791000D02*
X13250000Y-106791000D01*
X11170000Y-106751000D02*
X10656000Y-106751000D01*
X13764000Y-106751000D02*
X13250000Y-106751000D01*
X11170000Y-106711000D02*
X10605000Y-106711000D01*
X13815000Y-106711000D02*
X13250000Y-106711000D01*
X11170000Y-106671000D02*
X10557000Y-106671000D01*
X13863000Y-106671000D02*
X13250000Y-106671000D01*
X11170000Y-106631000D02*
X10511000Y-106631000D01*
X13909000Y-106631000D02*
X13250000Y-106631000D01*
X11170000Y-106591000D02*
X10467000Y-106591000D01*
X13953000Y-106591000D02*
X13250000Y-106591000D01*
X11170000Y-106551000D02*
X10425000Y-106551000D01*
X13995000Y-106551000D02*
X13250000Y-106551000D01*
X11170000Y-106511000D02*
X10384000Y-106511000D01*
X14036000Y-106511000D02*
X13250000Y-106511000D01*
X11170000Y-106471000D02*
X10346000Y-106471000D01*
X14074000Y-106471000D02*
X13250000Y-106471000D01*
X11170000Y-106431000D02*
X10309000Y-106431000D01*
X14111000Y-106431000D02*
X13250000Y-106431000D01*
X11170000Y-106391000D02*
X10273000Y-106391000D01*
X14147000Y-106391000D02*
X13250000Y-106391000D01*
X11170000Y-106351000D02*
X10239000Y-106351000D01*
X14181000Y-106351000D02*
X13250000Y-106351000D01*
X11170000Y-106311000D02*
X10206000Y-106311000D01*
X14214000Y-106311000D02*
X13250000Y-106311000D01*
X11170000Y-106271000D02*
X10175000Y-106271000D01*
X14245000Y-106271000D02*
X13250000Y-106271000D01*
X11170000Y-106231000D02*
X10145000Y-106231000D01*
X14275000Y-106231000D02*
X13250000Y-106231000D01*
X11170000Y-106191000D02*
X10115000Y-106191000D01*
X14305000Y-106191000D02*
X13250000Y-106191000D01*
X11170000Y-106151000D02*
X10088000Y-106151000D01*
X14332000Y-106151000D02*
X13250000Y-106151000D01*
X11170000Y-106111000D02*
X10061000Y-106111000D01*
X14359000Y-106111000D02*
X13250000Y-106111000D01*
X11170000Y-106071000D02*
X10035000Y-106071000D01*
X14385000Y-106071000D02*
X13250000Y-106071000D01*
X11170000Y-106031000D02*
X10010000Y-106031000D01*
X14410000Y-106031000D02*
X13250000Y-106031000D01*
X11170000Y-105991000D02*
X9986000Y-105991000D01*
X14434000Y-105991000D02*
X13250000Y-105991000D01*
X11170000Y-105951000D02*
X9963000Y-105951000D01*
X14457000Y-105951000D02*
X13250000Y-105951000D01*
X11170000Y-105911000D02*
X9942000Y-105911000D01*
X14478000Y-105911000D02*
X13250000Y-105911000D01*
X11170000Y-105871000D02*
X9920000Y-105871000D01*
X14500000Y-105871000D02*
X13250000Y-105871000D01*
X11170000Y-105831000D02*
X9900000Y-105831000D01*
X14520000Y-105831000D02*
X13250000Y-105831000D01*
X11170000Y-105791000D02*
X9881000Y-105791000D01*
X14539000Y-105791000D02*
X13250000Y-105791000D01*
X11170000Y-105751000D02*
X9862000Y-105751000D01*
X14558000Y-105751000D02*
X13250000Y-105751000D01*
X11170000Y-105711000D02*
X9845000Y-105711000D01*
X14575000Y-105711000D02*
X13250000Y-105711000D01*
X11170000Y-105671000D02*
X9828000Y-105671000D01*
X14592000Y-105671000D02*
X13250000Y-105671000D01*
X11170000Y-105631000D02*
X9812000Y-105631000D01*
X14608000Y-105631000D02*
X13250000Y-105631000D01*
X11170000Y-105591000D02*
X9796000Y-105591000D01*
X14624000Y-105591000D02*
X13250000Y-105591000D01*
X11170000Y-105551000D02*
X9782000Y-105551000D01*
X14638000Y-105551000D02*
X13250000Y-105551000D01*
X11170000Y-105511000D02*
X9768000Y-105511000D01*
X14652000Y-105511000D02*
X13250000Y-105511000D01*
X11170000Y-105471000D02*
X9755000Y-105471000D01*
X14665000Y-105471000D02*
X13250000Y-105471000D01*
X11170000Y-105431000D02*
X9742000Y-105431000D01*
X14678000Y-105431000D02*
X13250000Y-105431000D01*
X11170000Y-105391000D02*
X9730000Y-105391000D01*
X14690000Y-105391000D02*
X13250000Y-105391000D01*
X11170000Y-105350000D02*
X9719000Y-105350000D01*
X14701000Y-105350000D02*
X13250000Y-105350000D01*
X11170000Y-105310000D02*
X9709000Y-105310000D01*
X14711000Y-105310000D02*
X13250000Y-105310000D01*
X11170000Y-105270000D02*
X9699000Y-105270000D01*
X14721000Y-105270000D02*
X13250000Y-105270000D01*
X11170000Y-105230000D02*
X9690000Y-105230000D01*
X14730000Y-105230000D02*
X13250000Y-105230000D01*
X11170000Y-105190000D02*
X9682000Y-105190000D01*
X14738000Y-105190000D02*
X13250000Y-105190000D01*
X11170000Y-105150000D02*
X9674000Y-105150000D01*
X14746000Y-105150000D02*
X13250000Y-105150000D01*
X11170000Y-105110000D02*
X9667000Y-105110000D01*
X14753000Y-105110000D02*
X13250000Y-105110000D01*
X11170000Y-105070000D02*
X9660000Y-105070000D01*
X14760000Y-105070000D02*
X13250000Y-105070000D01*
X11170000Y-105030000D02*
X9654000Y-105030000D01*
X14766000Y-105030000D02*
X13250000Y-105030000D01*
X11170000Y-104990000D02*
X9649000Y-104990000D01*
X14771000Y-104990000D02*
X13250000Y-104990000D01*
X11170000Y-104950000D02*
X9645000Y-104950000D01*
X14775000Y-104950000D02*
X13250000Y-104950000D01*
X11170000Y-104910000D02*
X9641000Y-104910000D01*
X14779000Y-104910000D02*
X13250000Y-104910000D01*
X14783000Y-104870000D02*
X9637000Y-104870000D01*
X14786000Y-104830000D02*
X9634000Y-104830000D01*
X14788000Y-104790000D02*
X9632000Y-104790000D01*
X14789000Y-104750000D02*
X9631000Y-104750000D01*
X14790000Y-104710000D02*
X9630000Y-104710000D01*
X14790000Y-104670000D02*
X9630000Y-104670000D01*
X14830000Y-104670000D02*
G75*
G03*
X14830000Y-104670000I-2620000J0D01*
G01*
%TO.C,C1*%
X20580000Y-104630000D02*
G75*
G03*
X20580000Y-104630000I-2620000J0D01*
G01*
X20540000Y-104630000D02*
X15380000Y-104630000D01*
X20540000Y-104670000D02*
X15380000Y-104670000D01*
X20539000Y-104710000D02*
X15381000Y-104710000D01*
X20538000Y-104750000D02*
X15382000Y-104750000D01*
X20536000Y-104790000D02*
X15384000Y-104790000D01*
X20533000Y-104830000D02*
X15387000Y-104830000D01*
X20529000Y-104870000D02*
X19000000Y-104870000D01*
X16920000Y-104870000D02*
X15391000Y-104870000D01*
X20525000Y-104910000D02*
X19000000Y-104910000D01*
X16920000Y-104910000D02*
X15395000Y-104910000D01*
X20521000Y-104950000D02*
X19000000Y-104950000D01*
X16920000Y-104950000D02*
X15399000Y-104950000D01*
X20516000Y-104990000D02*
X19000000Y-104990000D01*
X16920000Y-104990000D02*
X15404000Y-104990000D01*
X20510000Y-105030000D02*
X19000000Y-105030000D01*
X16920000Y-105030000D02*
X15410000Y-105030000D01*
X20503000Y-105070000D02*
X19000000Y-105070000D01*
X16920000Y-105070000D02*
X15417000Y-105070000D01*
X20496000Y-105110000D02*
X19000000Y-105110000D01*
X16920000Y-105110000D02*
X15424000Y-105110000D01*
X20488000Y-105150000D02*
X19000000Y-105150000D01*
X16920000Y-105150000D02*
X15432000Y-105150000D01*
X20480000Y-105190000D02*
X19000000Y-105190000D01*
X16920000Y-105190000D02*
X15440000Y-105190000D01*
X20471000Y-105230000D02*
X19000000Y-105230000D01*
X16920000Y-105230000D02*
X15449000Y-105230000D01*
X20461000Y-105270000D02*
X19000000Y-105270000D01*
X16920000Y-105270000D02*
X15459000Y-105270000D01*
X20451000Y-105310000D02*
X19000000Y-105310000D01*
X16920000Y-105310000D02*
X15469000Y-105310000D01*
X20440000Y-105351000D02*
X19000000Y-105351000D01*
X16920000Y-105351000D02*
X15480000Y-105351000D01*
X20428000Y-105391000D02*
X19000000Y-105391000D01*
X16920000Y-105391000D02*
X15492000Y-105391000D01*
X20415000Y-105431000D02*
X19000000Y-105431000D01*
X16920000Y-105431000D02*
X15505000Y-105431000D01*
X20402000Y-105471000D02*
X19000000Y-105471000D01*
X16920000Y-105471000D02*
X15518000Y-105471000D01*
X20388000Y-105511000D02*
X19000000Y-105511000D01*
X16920000Y-105511000D02*
X15532000Y-105511000D01*
X20374000Y-105551000D02*
X19000000Y-105551000D01*
X16920000Y-105551000D02*
X15546000Y-105551000D01*
X20358000Y-105591000D02*
X19000000Y-105591000D01*
X16920000Y-105591000D02*
X15562000Y-105591000D01*
X20342000Y-105631000D02*
X19000000Y-105631000D01*
X16920000Y-105631000D02*
X15578000Y-105631000D01*
X20325000Y-105671000D02*
X19000000Y-105671000D01*
X16920000Y-105671000D02*
X15595000Y-105671000D01*
X20308000Y-105711000D02*
X19000000Y-105711000D01*
X16920000Y-105711000D02*
X15612000Y-105711000D01*
X20289000Y-105751000D02*
X19000000Y-105751000D01*
X16920000Y-105751000D02*
X15631000Y-105751000D01*
X20270000Y-105791000D02*
X19000000Y-105791000D01*
X16920000Y-105791000D02*
X15650000Y-105791000D01*
X20250000Y-105831000D02*
X19000000Y-105831000D01*
X16920000Y-105831000D02*
X15670000Y-105831000D01*
X20228000Y-105871000D02*
X19000000Y-105871000D01*
X16920000Y-105871000D02*
X15692000Y-105871000D01*
X20207000Y-105911000D02*
X19000000Y-105911000D01*
X16920000Y-105911000D02*
X15713000Y-105911000D01*
X20184000Y-105951000D02*
X19000000Y-105951000D01*
X16920000Y-105951000D02*
X15736000Y-105951000D01*
X20160000Y-105991000D02*
X19000000Y-105991000D01*
X16920000Y-105991000D02*
X15760000Y-105991000D01*
X20135000Y-106031000D02*
X19000000Y-106031000D01*
X16920000Y-106031000D02*
X15785000Y-106031000D01*
X20109000Y-106071000D02*
X19000000Y-106071000D01*
X16920000Y-106071000D02*
X15811000Y-106071000D01*
X20082000Y-106111000D02*
X19000000Y-106111000D01*
X16920000Y-106111000D02*
X15838000Y-106111000D01*
X20055000Y-106151000D02*
X19000000Y-106151000D01*
X16920000Y-106151000D02*
X15865000Y-106151000D01*
X20025000Y-106191000D02*
X19000000Y-106191000D01*
X16920000Y-106191000D02*
X15895000Y-106191000D01*
X19995000Y-106231000D02*
X19000000Y-106231000D01*
X16920000Y-106231000D02*
X15925000Y-106231000D01*
X19964000Y-106271000D02*
X19000000Y-106271000D01*
X16920000Y-106271000D02*
X15956000Y-106271000D01*
X19931000Y-106311000D02*
X19000000Y-106311000D01*
X16920000Y-106311000D02*
X15989000Y-106311000D01*
X19897000Y-106351000D02*
X19000000Y-106351000D01*
X16920000Y-106351000D02*
X16023000Y-106351000D01*
X19861000Y-106391000D02*
X19000000Y-106391000D01*
X16920000Y-106391000D02*
X16059000Y-106391000D01*
X19824000Y-106431000D02*
X19000000Y-106431000D01*
X16920000Y-106431000D02*
X16096000Y-106431000D01*
X19786000Y-106471000D02*
X19000000Y-106471000D01*
X16920000Y-106471000D02*
X16134000Y-106471000D01*
X19745000Y-106511000D02*
X19000000Y-106511000D01*
X16920000Y-106511000D02*
X16175000Y-106511000D01*
X19703000Y-106551000D02*
X19000000Y-106551000D01*
X16920000Y-106551000D02*
X16217000Y-106551000D01*
X19659000Y-106591000D02*
X19000000Y-106591000D01*
X16920000Y-106591000D02*
X16261000Y-106591000D01*
X19613000Y-106631000D02*
X19000000Y-106631000D01*
X16920000Y-106631000D02*
X16307000Y-106631000D01*
X19565000Y-106671000D02*
X19000000Y-106671000D01*
X16920000Y-106671000D02*
X16355000Y-106671000D01*
X19514000Y-106711000D02*
X19000000Y-106711000D01*
X16920000Y-106711000D02*
X16406000Y-106711000D01*
X19460000Y-106751000D02*
X19000000Y-106751000D01*
X16920000Y-106751000D02*
X16460000Y-106751000D01*
X19403000Y-106791000D02*
X19000000Y-106791000D01*
X16920000Y-106791000D02*
X16517000Y-106791000D01*
X19343000Y-106831000D02*
X19000000Y-106831000D01*
X16920000Y-106831000D02*
X16577000Y-106831000D01*
X19279000Y-106871000D02*
X19000000Y-106871000D01*
X16920000Y-106871000D02*
X16641000Y-106871000D01*
X19211000Y-106911000D02*
X19000000Y-106911000D01*
X16920000Y-106911000D02*
X16709000Y-106911000D01*
X19138000Y-106951000D02*
X16782000Y-106951000D01*
X19058000Y-106991000D02*
X16862000Y-106991000D01*
X18971000Y-107031000D02*
X16949000Y-107031000D01*
X18875000Y-107071000D02*
X17045000Y-107071000D01*
X18765000Y-107111000D02*
X17155000Y-107111000D01*
X18637000Y-107151000D02*
X17283000Y-107151000D01*
X18478000Y-107191000D02*
X17442000Y-107191000D01*
X18244000Y-107231000D02*
X17676000Y-107231000D01*
X19435000Y-101825225D02*
X19435000Y-102325225D01*
X19685000Y-102075225D02*
X19185000Y-102075225D01*
%TO.C,J4*%
X17927000Y-95659000D02*
X17927000Y-96989000D01*
X17927000Y-96989000D02*
X16597000Y-96989000D01*
X15327000Y-96989000D02*
X10187000Y-96989000D01*
X10187000Y-94329000D02*
X10187000Y-96989000D01*
X15327000Y-94329000D02*
X10187000Y-94329000D01*
X15327000Y-94329000D02*
X15327000Y-96989000D01*
%TO.C,R4*%
X21907000Y-60509000D02*
X25347000Y-60509000D01*
X25347000Y-60509000D02*
X25347000Y-51269000D01*
X25347000Y-51269000D02*
X21907000Y-51269000D01*
X21907000Y-51269000D02*
X21907000Y-60509000D01*
X23627000Y-61199000D02*
X23627000Y-60509000D01*
X23627000Y-50579000D02*
X23627000Y-51269000D01*
%TO.C,J12*%
X835000Y-95700000D02*
X835000Y-99580000D01*
X5305000Y-100750000D02*
X5305000Y-99700000D01*
X2805000Y-100750000D02*
X5305000Y-100750000D01*
X5305000Y-95580000D02*
X6295000Y-95580000D01*
X5305000Y-94530000D02*
X5305000Y-95580000D01*
X2805000Y-94530000D02*
X5305000Y-94530000D01*
%TO.C,J7*%
X22158000Y-93642000D02*
X21108000Y-93642000D01*
X21108000Y-94692000D02*
X21108000Y-93642000D01*
X30508000Y-99742000D02*
X30508000Y-108542000D01*
X30508000Y-108542000D02*
X21308000Y-108542000D01*
X27808000Y-93842000D02*
X30508000Y-93842000D01*
X30508000Y-93842000D02*
X30508000Y-95742000D01*
X21308000Y-108542000D02*
X21308000Y-93842000D01*
X21308000Y-93842000D02*
X23908000Y-93842000D01*
%TO.C,J8*%
X33290000Y-102550000D02*
X33690000Y-102550000D01*
X33290000Y-101910000D02*
X33290000Y-102550000D01*
X39832000Y-98242000D02*
X39437000Y-98638000D01*
X42478000Y-95596000D02*
X42098000Y-95976000D01*
X40083000Y-98524000D02*
X39703000Y-98904000D01*
X42744000Y-95862000D02*
X42349000Y-96258000D01*
X34542000Y-98531000D02*
X34436000Y-98638000D01*
X37478000Y-95596000D02*
X37371000Y-95703000D01*
X34808000Y-98797000D02*
X34702000Y-98904000D01*
X37744000Y-95862000D02*
X37637000Y-95969000D01*
X43650000Y-93190000D02*
X43650000Y-102310000D01*
X33530000Y-93190000D02*
X33530000Y-102310000D01*
X33530000Y-102310000D02*
X43650000Y-102310000D01*
X33530000Y-93190000D02*
X43650000Y-93190000D01*
X33530000Y-100750000D02*
X43650000Y-100750000D01*
X33530000Y-101850000D02*
X43650000Y-101850000D01*
X43270000Y-97250000D02*
G75*
G03*
X43270000Y-97250000I-2180000J0D01*
G01*
X38270000Y-97250000D02*
G75*
G03*
X38270000Y-97250000I-2180000J0D01*
G01*
%TO.C,R2*%
X14287000Y-60509000D02*
X17727000Y-60509000D01*
X17727000Y-60509000D02*
X17727000Y-51269000D01*
X17727000Y-51269000D02*
X14287000Y-51269000D01*
X14287000Y-51269000D02*
X14287000Y-60509000D01*
X16007000Y-61199000D02*
X16007000Y-60509000D01*
X16007000Y-50579000D02*
X16007000Y-51269000D01*
%TO.C,R1*%
X10477000Y-60509000D02*
X13917000Y-60509000D01*
X13917000Y-60509000D02*
X13917000Y-51269000D01*
X13917000Y-51269000D02*
X10477000Y-51269000D01*
X10477000Y-51269000D02*
X10477000Y-60509000D01*
X12197000Y-61199000D02*
X12197000Y-60509000D01*
X12197000Y-50579000D02*
X12197000Y-51269000D01*
%TO.C,R3*%
X18097000Y-60509000D02*
X21537000Y-60509000D01*
X21537000Y-60509000D02*
X21537000Y-51269000D01*
X21537000Y-51269000D02*
X18097000Y-51269000D01*
X18097000Y-51269000D02*
X18097000Y-60509000D01*
X19817000Y-61199000D02*
X19817000Y-60509000D01*
X19817000Y-50579000D02*
X19817000Y-51269000D01*
%TO.C,J14*%
D10*
X36812380Y-39719523D02*
X37526666Y-39719523D01*
X37669523Y-39767142D01*
X37764761Y-39862380D01*
X37812380Y-40005238D01*
X37812380Y-40100476D01*
X37812380Y-38719523D02*
X37812380Y-39290952D01*
X37812380Y-39005238D02*
X36812380Y-39005238D01*
X36955238Y-39100476D01*
X37050476Y-39195714D01*
X37098095Y-39290952D01*
X37145714Y-37862380D02*
X37812380Y-37862380D01*
X36764761Y-38100476D02*
X37479047Y-38338571D01*
X37479047Y-37719523D01*
%TO.C,J3*%
X3842380Y-71143333D02*
X4556666Y-71143333D01*
X4699523Y-71190952D01*
X4794761Y-71286190D01*
X4842380Y-71429047D01*
X4842380Y-71524285D01*
X3842380Y-70762380D02*
X3842380Y-70143333D01*
X4223333Y-70476666D01*
X4223333Y-70333809D01*
X4270952Y-70238571D01*
X4318571Y-70190952D01*
X4413809Y-70143333D01*
X4651904Y-70143333D01*
X4747142Y-70190952D01*
X4794761Y-70238571D01*
X4842380Y-70333809D01*
X4842380Y-70619523D01*
X4794761Y-70714761D01*
X4747142Y-70762380D01*
%TO.C,Q3*%
X7294761Y-51817619D02*
X7199523Y-51770000D01*
X7104285Y-51674761D01*
X6961428Y-51531904D01*
X6866190Y-51484285D01*
X6770952Y-51484285D01*
X6818571Y-51722380D02*
X6723333Y-51674761D01*
X6628095Y-51579523D01*
X6580476Y-51389047D01*
X6580476Y-51055714D01*
X6628095Y-50865238D01*
X6723333Y-50770000D01*
X6818571Y-50722380D01*
X7009047Y-50722380D01*
X7104285Y-50770000D01*
X7199523Y-50865238D01*
X7247142Y-51055714D01*
X7247142Y-51389047D01*
X7199523Y-51579523D01*
X7104285Y-51674761D01*
X7009047Y-51722380D01*
X6818571Y-51722380D01*
X7580476Y-50722380D02*
X8199523Y-50722380D01*
X7866190Y-51103333D01*
X8009047Y-51103333D01*
X8104285Y-51150952D01*
X8151904Y-51198571D01*
X8199523Y-51293809D01*
X8199523Y-51531904D01*
X8151904Y-51627142D01*
X8104285Y-51674761D01*
X8009047Y-51722380D01*
X7723333Y-51722380D01*
X7628095Y-51674761D01*
X7580476Y-51627142D01*
%TO.C,R8*%
X2413333Y-64612380D02*
X2080000Y-64136190D01*
X1841904Y-64612380D02*
X1841904Y-63612380D01*
X2222857Y-63612380D01*
X2318095Y-63660000D01*
X2365714Y-63707619D01*
X2413333Y-63802857D01*
X2413333Y-63945714D01*
X2365714Y-64040952D01*
X2318095Y-64088571D01*
X2222857Y-64136190D01*
X1841904Y-64136190D01*
X2984761Y-64040952D02*
X2889523Y-63993333D01*
X2841904Y-63945714D01*
X2794285Y-63850476D01*
X2794285Y-63802857D01*
X2841904Y-63707619D01*
X2889523Y-63660000D01*
X2984761Y-63612380D01*
X3175238Y-63612380D01*
X3270476Y-63660000D01*
X3318095Y-63707619D01*
X3365714Y-63802857D01*
X3365714Y-63850476D01*
X3318095Y-63945714D01*
X3270476Y-63993333D01*
X3175238Y-64040952D01*
X2984761Y-64040952D01*
X2889523Y-64088571D01*
X2841904Y-64136190D01*
X2794285Y-64231428D01*
X2794285Y-64421904D01*
X2841904Y-64517142D01*
X2889523Y-64564761D01*
X2984761Y-64612380D01*
X3175238Y-64612380D01*
X3270476Y-64564761D01*
X3318095Y-64517142D01*
X3365714Y-64421904D01*
X3365714Y-64231428D01*
X3318095Y-64136190D01*
X3270476Y-64088571D01*
X3175238Y-64040952D01*
%TO.C,D2*%
X46872380Y-88698095D02*
X45872380Y-88698095D01*
X45872380Y-88460000D01*
X45920000Y-88317142D01*
X46015238Y-88221904D01*
X46110476Y-88174285D01*
X46300952Y-88126666D01*
X46443809Y-88126666D01*
X46634285Y-88174285D01*
X46729523Y-88221904D01*
X46824761Y-88317142D01*
X46872380Y-88460000D01*
X46872380Y-88698095D01*
X45967619Y-87745714D02*
X45920000Y-87698095D01*
X45872380Y-87602857D01*
X45872380Y-87364761D01*
X45920000Y-87269523D01*
X45967619Y-87221904D01*
X46062857Y-87174285D01*
X46158095Y-87174285D01*
X46300952Y-87221904D01*
X46872380Y-87793333D01*
X46872380Y-87174285D01*
X49392380Y-79741904D02*
X48392380Y-79741904D01*
X49392380Y-79170476D02*
X48820952Y-79599047D01*
X48392380Y-79170476D02*
X48963809Y-79741904D01*
%TO.C,Q2*%
X44474761Y-55447619D02*
X44379523Y-55400000D01*
X44284285Y-55304761D01*
X44141428Y-55161904D01*
X44046190Y-55114285D01*
X43950952Y-55114285D01*
X43998571Y-55352380D02*
X43903333Y-55304761D01*
X43808095Y-55209523D01*
X43760476Y-55019047D01*
X43760476Y-54685714D01*
X43808095Y-54495238D01*
X43903333Y-54400000D01*
X43998571Y-54352380D01*
X44189047Y-54352380D01*
X44284285Y-54400000D01*
X44379523Y-54495238D01*
X44427142Y-54685714D01*
X44427142Y-55019047D01*
X44379523Y-55209523D01*
X44284285Y-55304761D01*
X44189047Y-55352380D01*
X43998571Y-55352380D01*
X44808095Y-54447619D02*
X44855714Y-54400000D01*
X44950952Y-54352380D01*
X45189047Y-54352380D01*
X45284285Y-54400000D01*
X45331904Y-54447619D01*
X45379523Y-54542857D01*
X45379523Y-54638095D01*
X45331904Y-54780952D01*
X44760476Y-55352380D01*
X45379523Y-55352380D01*
%TO.C,Q1*%
X35364761Y-78997619D02*
X35269523Y-78950000D01*
X35174285Y-78854761D01*
X35031428Y-78711904D01*
X34936190Y-78664285D01*
X34840952Y-78664285D01*
X34888571Y-78902380D02*
X34793333Y-78854761D01*
X34698095Y-78759523D01*
X34650476Y-78569047D01*
X34650476Y-78235714D01*
X34698095Y-78045238D01*
X34793333Y-77950000D01*
X34888571Y-77902380D01*
X35079047Y-77902380D01*
X35174285Y-77950000D01*
X35269523Y-78045238D01*
X35317142Y-78235714D01*
X35317142Y-78569047D01*
X35269523Y-78759523D01*
X35174285Y-78854761D01*
X35079047Y-78902380D01*
X34888571Y-78902380D01*
X36269523Y-78902380D02*
X35698095Y-78902380D01*
X35983809Y-78902380D02*
X35983809Y-77902380D01*
X35888571Y-78045238D01*
X35793333Y-78140476D01*
X35698095Y-78188095D01*
%TO.C,J20*%
X10210476Y-3972380D02*
X10210476Y-4686666D01*
X10162857Y-4829523D01*
X10067619Y-4924761D01*
X9924761Y-4972380D01*
X9829523Y-4972380D01*
X10639047Y-4067619D02*
X10686666Y-4020000D01*
X10781904Y-3972380D01*
X11020000Y-3972380D01*
X11115238Y-4020000D01*
X11162857Y-4067619D01*
X11210476Y-4162857D01*
X11210476Y-4258095D01*
X11162857Y-4400952D01*
X10591428Y-4972380D01*
X11210476Y-4972380D01*
X11829523Y-3972380D02*
X11924761Y-3972380D01*
X12020000Y-4020000D01*
X12067619Y-4067619D01*
X12115238Y-4162857D01*
X12162857Y-4353333D01*
X12162857Y-4591428D01*
X12115238Y-4781904D01*
X12067619Y-4877142D01*
X12020000Y-4924761D01*
X11924761Y-4972380D01*
X11829523Y-4972380D01*
X11734285Y-4924761D01*
X11686666Y-4877142D01*
X11639047Y-4781904D01*
X11591428Y-4591428D01*
X11591428Y-4353333D01*
X11639047Y-4162857D01*
X11686666Y-4067619D01*
X11734285Y-4020000D01*
X11829523Y-3972380D01*
%TO.C,J18*%
X44950476Y-6292380D02*
X44950476Y-7006666D01*
X44902857Y-7149523D01*
X44807619Y-7244761D01*
X44664761Y-7292380D01*
X44569523Y-7292380D01*
X45950476Y-7292380D02*
X45379047Y-7292380D01*
X45664761Y-7292380D02*
X45664761Y-6292380D01*
X45569523Y-6435238D01*
X45474285Y-6530476D01*
X45379047Y-6578095D01*
X46521904Y-6720952D02*
X46426666Y-6673333D01*
X46379047Y-6625714D01*
X46331428Y-6530476D01*
X46331428Y-6482857D01*
X46379047Y-6387619D01*
X46426666Y-6340000D01*
X46521904Y-6292380D01*
X46712380Y-6292380D01*
X46807619Y-6340000D01*
X46855238Y-6387619D01*
X46902857Y-6482857D01*
X46902857Y-6530476D01*
X46855238Y-6625714D01*
X46807619Y-6673333D01*
X46712380Y-6720952D01*
X46521904Y-6720952D01*
X46426666Y-6768571D01*
X46379047Y-6816190D01*
X46331428Y-6911428D01*
X46331428Y-7101904D01*
X46379047Y-7197142D01*
X46426666Y-7244761D01*
X46521904Y-7292380D01*
X46712380Y-7292380D01*
X46807619Y-7244761D01*
X46855238Y-7197142D01*
X46902857Y-7101904D01*
X46902857Y-6911428D01*
X46855238Y-6816190D01*
X46807619Y-6768571D01*
X46712380Y-6720952D01*
%TO.C,R7*%
X33073333Y-63072380D02*
X32740000Y-62596190D01*
X32501904Y-63072380D02*
X32501904Y-62072380D01*
X32882857Y-62072380D01*
X32978095Y-62120000D01*
X33025714Y-62167619D01*
X33073333Y-62262857D01*
X33073333Y-62405714D01*
X33025714Y-62500952D01*
X32978095Y-62548571D01*
X32882857Y-62596190D01*
X32501904Y-62596190D01*
X33406666Y-62072380D02*
X34073333Y-62072380D01*
X33644761Y-63072380D01*
%TO.C,R6*%
X23513333Y-86702380D02*
X23180000Y-86226190D01*
X22941904Y-86702380D02*
X22941904Y-85702380D01*
X23322857Y-85702380D01*
X23418095Y-85750000D01*
X23465714Y-85797619D01*
X23513333Y-85892857D01*
X23513333Y-86035714D01*
X23465714Y-86130952D01*
X23418095Y-86178571D01*
X23322857Y-86226190D01*
X22941904Y-86226190D01*
X24370476Y-85702380D02*
X24180000Y-85702380D01*
X24084761Y-85750000D01*
X24037142Y-85797619D01*
X23941904Y-85940476D01*
X23894285Y-86130952D01*
X23894285Y-86511904D01*
X23941904Y-86607142D01*
X23989523Y-86654761D01*
X24084761Y-86702380D01*
X24275238Y-86702380D01*
X24370476Y-86654761D01*
X24418095Y-86607142D01*
X24465714Y-86511904D01*
X24465714Y-86273809D01*
X24418095Y-86178571D01*
X24370476Y-86130952D01*
X24275238Y-86083333D01*
X24084761Y-86083333D01*
X23989523Y-86130952D01*
X23941904Y-86178571D01*
X23894285Y-86273809D01*
%TO.C,J15*%
X38127380Y-36284523D02*
X38841666Y-36284523D01*
X38984523Y-36332142D01*
X39079761Y-36427380D01*
X39127380Y-36570238D01*
X39127380Y-36665476D01*
X39127380Y-35284523D02*
X39127380Y-35855952D01*
X39127380Y-35570238D02*
X38127380Y-35570238D01*
X38270238Y-35665476D01*
X38365476Y-35760714D01*
X38413095Y-35855952D01*
X38127380Y-34379761D02*
X38127380Y-34855952D01*
X38603571Y-34903571D01*
X38555952Y-34855952D01*
X38508333Y-34760714D01*
X38508333Y-34522619D01*
X38555952Y-34427380D01*
X38603571Y-34379761D01*
X38698809Y-34332142D01*
X38936904Y-34332142D01*
X39032142Y-34379761D01*
X39079761Y-34427380D01*
X39127380Y-34522619D01*
X39127380Y-34760714D01*
X39079761Y-34855952D01*
X39032142Y-34903571D01*
%TO.C,J11*%
X4952380Y-34619523D02*
X5666666Y-34619523D01*
X5809523Y-34667142D01*
X5904761Y-34762380D01*
X5952380Y-34905238D01*
X5952380Y-35000476D01*
X5952380Y-33619523D02*
X5952380Y-34190952D01*
X5952380Y-33905238D02*
X4952380Y-33905238D01*
X5095238Y-34000476D01*
X5190476Y-34095714D01*
X5238095Y-34190952D01*
X5952380Y-32667142D02*
X5952380Y-33238571D01*
X5952380Y-32952857D02*
X4952380Y-32952857D01*
X5095238Y-33048095D01*
X5190476Y-33143333D01*
X5238095Y-33238571D01*
%TO.C,J6*%
X7542380Y-7293333D02*
X8256666Y-7293333D01*
X8399523Y-7340952D01*
X8494761Y-7436190D01*
X8542380Y-7579047D01*
X8542380Y-7674285D01*
X7542380Y-6388571D02*
X7542380Y-6579047D01*
X7590000Y-6674285D01*
X7637619Y-6721904D01*
X7780476Y-6817142D01*
X7970952Y-6864761D01*
X8351904Y-6864761D01*
X8447142Y-6817142D01*
X8494761Y-6769523D01*
X8542380Y-6674285D01*
X8542380Y-6483809D01*
X8494761Y-6388571D01*
X8447142Y-6340952D01*
X8351904Y-6293333D01*
X8113809Y-6293333D01*
X8018571Y-6340952D01*
X7970952Y-6388571D01*
X7923333Y-6483809D01*
X7923333Y-6674285D01*
X7970952Y-6769523D01*
X8018571Y-6817142D01*
X8113809Y-6864761D01*
%TO.C,J2*%
X3902380Y-91113333D02*
X4616666Y-91113333D01*
X4759523Y-91160952D01*
X4854761Y-91256190D01*
X4902380Y-91399047D01*
X4902380Y-91494285D01*
X3997619Y-90684761D02*
X3950000Y-90637142D01*
X3902380Y-90541904D01*
X3902380Y-90303809D01*
X3950000Y-90208571D01*
X3997619Y-90160952D01*
X4092857Y-90113333D01*
X4188095Y-90113333D01*
X4330952Y-90160952D01*
X4902380Y-90732380D01*
X4902380Y-90113333D01*
%TO.C,SW4*%
X51088761Y-99443333D02*
X51136380Y-99300476D01*
X51136380Y-99062380D01*
X51088761Y-98967142D01*
X51041142Y-98919523D01*
X50945904Y-98871904D01*
X50850666Y-98871904D01*
X50755428Y-98919523D01*
X50707809Y-98967142D01*
X50660190Y-99062380D01*
X50612571Y-99252857D01*
X50564952Y-99348095D01*
X50517333Y-99395714D01*
X50422095Y-99443333D01*
X50326857Y-99443333D01*
X50231619Y-99395714D01*
X50184000Y-99348095D01*
X50136380Y-99252857D01*
X50136380Y-99014761D01*
X50184000Y-98871904D01*
X50136380Y-98538571D02*
X51136380Y-98300476D01*
X50422095Y-98110000D01*
X51136380Y-97919523D01*
X50136380Y-97681428D01*
X50469714Y-96871904D02*
X51136380Y-96871904D01*
X50088761Y-97110000D02*
X50803047Y-97348095D01*
X50803047Y-96729047D01*
%TO.C,R5*%
X27270333Y-64723380D02*
X26937000Y-64247190D01*
X26698904Y-64723380D02*
X26698904Y-63723380D01*
X27079857Y-63723380D01*
X27175095Y-63771000D01*
X27222714Y-63818619D01*
X27270333Y-63913857D01*
X27270333Y-64056714D01*
X27222714Y-64151952D01*
X27175095Y-64199571D01*
X27079857Y-64247190D01*
X26698904Y-64247190D01*
X28175095Y-63723380D02*
X27698904Y-63723380D01*
X27651285Y-64199571D01*
X27698904Y-64151952D01*
X27794142Y-64104333D01*
X28032238Y-64104333D01*
X28127476Y-64151952D01*
X28175095Y-64199571D01*
X28222714Y-64294809D01*
X28222714Y-64532904D01*
X28175095Y-64628142D01*
X28127476Y-64675761D01*
X28032238Y-64723380D01*
X27794142Y-64723380D01*
X27698904Y-64675761D01*
X27651285Y-64628142D01*
%TO.C,J19*%
X3532380Y-39979523D02*
X4246666Y-39979523D01*
X4389523Y-40027142D01*
X4484761Y-40122380D01*
X4532380Y-40265238D01*
X4532380Y-40360476D01*
X4532380Y-38979523D02*
X4532380Y-39550952D01*
X4532380Y-39265238D02*
X3532380Y-39265238D01*
X3675238Y-39360476D01*
X3770476Y-39455714D01*
X3818095Y-39550952D01*
X4532380Y-38503333D02*
X4532380Y-38312857D01*
X4484761Y-38217619D01*
X4437142Y-38170000D01*
X4294285Y-38074761D01*
X4103809Y-38027142D01*
X3722857Y-38027142D01*
X3627619Y-38074761D01*
X3580000Y-38122380D01*
X3532380Y-38217619D01*
X3532380Y-38408095D01*
X3580000Y-38503333D01*
X3627619Y-38550952D01*
X3722857Y-38598571D01*
X3960952Y-38598571D01*
X4056190Y-38550952D01*
X4103809Y-38503333D01*
X4151428Y-38408095D01*
X4151428Y-38217619D01*
X4103809Y-38122380D01*
X4056190Y-38074761D01*
X3960952Y-38027142D01*
%TO.C,J9*%
X3862380Y-66943333D02*
X4576666Y-66943333D01*
X4719523Y-66990952D01*
X4814761Y-67086190D01*
X4862380Y-67229047D01*
X4862380Y-67324285D01*
X4862380Y-66419523D02*
X4862380Y-66229047D01*
X4814761Y-66133809D01*
X4767142Y-66086190D01*
X4624285Y-65990952D01*
X4433809Y-65943333D01*
X4052857Y-65943333D01*
X3957619Y-65990952D01*
X3910000Y-66038571D01*
X3862380Y-66133809D01*
X3862380Y-66324285D01*
X3910000Y-66419523D01*
X3957619Y-66467142D01*
X4052857Y-66514761D01*
X4290952Y-66514761D01*
X4386190Y-66467142D01*
X4433809Y-66419523D01*
X4481428Y-66324285D01*
X4481428Y-66133809D01*
X4433809Y-66038571D01*
X4386190Y-65990952D01*
X4290952Y-65943333D01*
%TO.C,J16*%
X31916380Y-43577523D02*
X32630666Y-43577523D01*
X32773523Y-43625142D01*
X32868761Y-43720380D01*
X32916380Y-43863238D01*
X32916380Y-43958476D01*
X32916380Y-42577523D02*
X32916380Y-43148952D01*
X32916380Y-42863238D02*
X31916380Y-42863238D01*
X32059238Y-42958476D01*
X32154476Y-43053714D01*
X32202095Y-43148952D01*
X31916380Y-41720380D02*
X31916380Y-41910857D01*
X31964000Y-42006095D01*
X32011619Y-42053714D01*
X32154476Y-42148952D01*
X32344952Y-42196571D01*
X32725904Y-42196571D01*
X32821142Y-42148952D01*
X32868761Y-42101333D01*
X32916380Y-42006095D01*
X32916380Y-41815619D01*
X32868761Y-41720380D01*
X32821142Y-41672761D01*
X32725904Y-41625142D01*
X32487809Y-41625142D01*
X32392571Y-41672761D01*
X32344952Y-41720380D01*
X32297333Y-41815619D01*
X32297333Y-42006095D01*
X32344952Y-42101333D01*
X32392571Y-42148952D01*
X32487809Y-42196571D01*
%TO.C,J17*%
X23323380Y-32360523D02*
X24037666Y-32360523D01*
X24180523Y-32408142D01*
X24275761Y-32503380D01*
X24323380Y-32646238D01*
X24323380Y-32741476D01*
X24323380Y-31360523D02*
X24323380Y-31931952D01*
X24323380Y-31646238D02*
X23323380Y-31646238D01*
X23466238Y-31741476D01*
X23561476Y-31836714D01*
X23609095Y-31931952D01*
X23323380Y-31027190D02*
X23323380Y-30360523D01*
X24323380Y-30789095D01*
%TO.C,J5*%
X51858380Y-14829333D02*
X52572666Y-14829333D01*
X52715523Y-14876952D01*
X52810761Y-14972190D01*
X52858380Y-15115047D01*
X52858380Y-15210285D01*
X51858380Y-13876952D02*
X51858380Y-14353142D01*
X52334571Y-14400761D01*
X52286952Y-14353142D01*
X52239333Y-14257904D01*
X52239333Y-14019809D01*
X52286952Y-13924571D01*
X52334571Y-13876952D01*
X52429809Y-13829333D01*
X52667904Y-13829333D01*
X52763142Y-13876952D01*
X52810761Y-13924571D01*
X52858380Y-14019809D01*
X52858380Y-14257904D01*
X52810761Y-14353142D01*
X52763142Y-14400761D01*
%TO.C,SW2*%
X50184761Y-40843333D02*
X50232380Y-40700476D01*
X50232380Y-40462380D01*
X50184761Y-40367142D01*
X50137142Y-40319523D01*
X50041904Y-40271904D01*
X49946666Y-40271904D01*
X49851428Y-40319523D01*
X49803809Y-40367142D01*
X49756190Y-40462380D01*
X49708571Y-40652857D01*
X49660952Y-40748095D01*
X49613333Y-40795714D01*
X49518095Y-40843333D01*
X49422857Y-40843333D01*
X49327619Y-40795714D01*
X49280000Y-40748095D01*
X49232380Y-40652857D01*
X49232380Y-40414761D01*
X49280000Y-40271904D01*
X49232380Y-39938571D02*
X50232380Y-39700476D01*
X49518095Y-39510000D01*
X50232380Y-39319523D01*
X49232380Y-39081428D01*
X49327619Y-38748095D02*
X49280000Y-38700476D01*
X49232380Y-38605238D01*
X49232380Y-38367142D01*
X49280000Y-38271904D01*
X49327619Y-38224285D01*
X49422857Y-38176666D01*
X49518095Y-38176666D01*
X49660952Y-38224285D01*
X50232380Y-38795714D01*
X50232380Y-38176666D01*
%TO.C,SW1*%
X50374761Y-30613333D02*
X50422380Y-30470476D01*
X50422380Y-30232380D01*
X50374761Y-30137142D01*
X50327142Y-30089523D01*
X50231904Y-30041904D01*
X50136666Y-30041904D01*
X50041428Y-30089523D01*
X49993809Y-30137142D01*
X49946190Y-30232380D01*
X49898571Y-30422857D01*
X49850952Y-30518095D01*
X49803333Y-30565714D01*
X49708095Y-30613333D01*
X49612857Y-30613333D01*
X49517619Y-30565714D01*
X49470000Y-30518095D01*
X49422380Y-30422857D01*
X49422380Y-30184761D01*
X49470000Y-30041904D01*
X49422380Y-29708571D02*
X50422380Y-29470476D01*
X49708095Y-29280000D01*
X50422380Y-29089523D01*
X49422380Y-28851428D01*
X50422380Y-27946666D02*
X50422380Y-28518095D01*
X50422380Y-28232380D02*
X49422380Y-28232380D01*
X49565238Y-28327619D01*
X49660476Y-28422857D01*
X49708095Y-28518095D01*
%TO.C,J1*%
X12510666Y-76794380D02*
X12510666Y-77508666D01*
X12463047Y-77651523D01*
X12367809Y-77746761D01*
X12224952Y-77794380D01*
X12129714Y-77794380D01*
X13510666Y-77794380D02*
X12939238Y-77794380D01*
X13224952Y-77794380D02*
X13224952Y-76794380D01*
X13129714Y-76937238D01*
X13034476Y-77032476D01*
X12939238Y-77080095D01*
%TO.C,J10*%
X46973476Y-45997380D02*
X46973476Y-46711666D01*
X46925857Y-46854523D01*
X46830619Y-46949761D01*
X46687761Y-46997380D01*
X46592523Y-46997380D01*
X47973476Y-46997380D02*
X47402047Y-46997380D01*
X47687761Y-46997380D02*
X47687761Y-45997380D01*
X47592523Y-46140238D01*
X47497285Y-46235476D01*
X47402047Y-46283095D01*
X48592523Y-45997380D02*
X48687761Y-45997380D01*
X48783000Y-46045000D01*
X48830619Y-46092619D01*
X48878238Y-46187857D01*
X48925857Y-46378333D01*
X48925857Y-46616428D01*
X48878238Y-46806904D01*
X48830619Y-46902142D01*
X48783000Y-46949761D01*
X48687761Y-46997380D01*
X48592523Y-46997380D01*
X48497285Y-46949761D01*
X48449666Y-46902142D01*
X48402047Y-46806904D01*
X48354428Y-46616428D01*
X48354428Y-46378333D01*
X48402047Y-46187857D01*
X48449666Y-46092619D01*
X48497285Y-46045000D01*
X48592523Y-45997380D01*
%TO.C,D1*%
X41432380Y-86308095D02*
X40432380Y-86308095D01*
X40432380Y-86070000D01*
X40480000Y-85927142D01*
X40575238Y-85831904D01*
X40670476Y-85784285D01*
X40860952Y-85736666D01*
X41003809Y-85736666D01*
X41194285Y-85784285D01*
X41289523Y-85831904D01*
X41384761Y-85927142D01*
X41432380Y-86070000D01*
X41432380Y-86308095D01*
X41432380Y-84784285D02*
X41432380Y-85355714D01*
X41432380Y-85070000D02*
X40432380Y-85070000D01*
X40575238Y-85165238D01*
X40670476Y-85260476D01*
X40718095Y-85355714D01*
X44142380Y-79711904D02*
X43142380Y-79711904D01*
X44142380Y-79140476D02*
X43570952Y-79569047D01*
X43142380Y-79140476D02*
X43713809Y-79711904D01*
%TO.C,C2*%
X11943333Y-108677142D02*
X11895714Y-108724761D01*
X11752857Y-108772380D01*
X11657619Y-108772380D01*
X11514761Y-108724761D01*
X11419523Y-108629523D01*
X11371904Y-108534285D01*
X11324285Y-108343809D01*
X11324285Y-108200952D01*
X11371904Y-108010476D01*
X11419523Y-107915238D01*
X11514761Y-107820000D01*
X11657619Y-107772380D01*
X11752857Y-107772380D01*
X11895714Y-107820000D01*
X11943333Y-107867619D01*
X12324285Y-107867619D02*
X12371904Y-107820000D01*
X12467142Y-107772380D01*
X12705238Y-107772380D01*
X12800476Y-107820000D01*
X12848095Y-107867619D01*
X12895714Y-107962857D01*
X12895714Y-108058095D01*
X12848095Y-108200952D01*
X12276666Y-108772380D01*
X12895714Y-108772380D01*
%TO.C,C1*%
X17853333Y-108657142D02*
X17805714Y-108704761D01*
X17662857Y-108752380D01*
X17567619Y-108752380D01*
X17424761Y-108704761D01*
X17329523Y-108609523D01*
X17281904Y-108514285D01*
X17234285Y-108323809D01*
X17234285Y-108180952D01*
X17281904Y-107990476D01*
X17329523Y-107895238D01*
X17424761Y-107800000D01*
X17567619Y-107752380D01*
X17662857Y-107752380D01*
X17805714Y-107800000D01*
X17853333Y-107847619D01*
X18805714Y-108752380D02*
X18234285Y-108752380D01*
X18520000Y-108752380D02*
X18520000Y-107752380D01*
X18424761Y-107895238D01*
X18329523Y-107990476D01*
X18234285Y-108038095D01*
%TO.C,J4*%
X18387380Y-96106333D02*
X19101666Y-96106333D01*
X19244523Y-96153952D01*
X19339761Y-96249190D01*
X19387380Y-96392047D01*
X19387380Y-96487285D01*
X18720714Y-95201571D02*
X19387380Y-95201571D01*
X18339761Y-95439666D02*
X19054047Y-95677761D01*
X19054047Y-95058714D01*
%TO.C,R4*%
X23330333Y-64611380D02*
X22997000Y-64135190D01*
X22758904Y-64611380D02*
X22758904Y-63611380D01*
X23139857Y-63611380D01*
X23235095Y-63659000D01*
X23282714Y-63706619D01*
X23330333Y-63801857D01*
X23330333Y-63944714D01*
X23282714Y-64039952D01*
X23235095Y-64087571D01*
X23139857Y-64135190D01*
X22758904Y-64135190D01*
X24187476Y-63944714D02*
X24187476Y-64611380D01*
X23949380Y-63563761D02*
X23711285Y-64278047D01*
X24330333Y-64278047D01*
%TO.C,J12*%
X3264476Y-93300380D02*
X3264476Y-94014666D01*
X3216857Y-94157523D01*
X3121619Y-94252761D01*
X2978761Y-94300380D01*
X2883523Y-94300380D01*
X4264476Y-94300380D02*
X3693047Y-94300380D01*
X3978761Y-94300380D02*
X3978761Y-93300380D01*
X3883523Y-93443238D01*
X3788285Y-93538476D01*
X3693047Y-93586095D01*
X4645428Y-93395619D02*
X4693047Y-93348000D01*
X4788285Y-93300380D01*
X5026380Y-93300380D01*
X5121619Y-93348000D01*
X5169238Y-93395619D01*
X5216857Y-93490857D01*
X5216857Y-93586095D01*
X5169238Y-93728952D01*
X4597809Y-94300380D01*
X5216857Y-94300380D01*
%TO.C,J7*%
X31092380Y-106723333D02*
X31806666Y-106723333D01*
X31949523Y-106770952D01*
X32044761Y-106866190D01*
X32092380Y-107009047D01*
X32092380Y-107104285D01*
X31092380Y-106342380D02*
X31092380Y-105675714D01*
X32092380Y-106104285D01*
%TO.C,J8*%
X31962380Y-101963333D02*
X32676666Y-101963333D01*
X32819523Y-102010952D01*
X32914761Y-102106190D01*
X32962380Y-102249047D01*
X32962380Y-102344285D01*
X32390952Y-101344285D02*
X32343333Y-101439523D01*
X32295714Y-101487142D01*
X32200476Y-101534761D01*
X32152857Y-101534761D01*
X32057619Y-101487142D01*
X32010000Y-101439523D01*
X31962380Y-101344285D01*
X31962380Y-101153809D01*
X32010000Y-101058571D01*
X32057619Y-101010952D01*
X32152857Y-100963333D01*
X32200476Y-100963333D01*
X32295714Y-101010952D01*
X32343333Y-101058571D01*
X32390952Y-101153809D01*
X32390952Y-101344285D01*
X32438571Y-101439523D01*
X32486190Y-101487142D01*
X32581428Y-101534761D01*
X32771904Y-101534761D01*
X32867142Y-101487142D01*
X32914761Y-101439523D01*
X32962380Y-101344285D01*
X32962380Y-101153809D01*
X32914761Y-101058571D01*
X32867142Y-101010952D01*
X32771904Y-100963333D01*
X32581428Y-100963333D01*
X32486190Y-101010952D01*
X32438571Y-101058571D01*
X32390952Y-101153809D01*
%TO.C,R2*%
X15810333Y-64611380D02*
X15477000Y-64135190D01*
X15238904Y-64611380D02*
X15238904Y-63611380D01*
X15619857Y-63611380D01*
X15715095Y-63659000D01*
X15762714Y-63706619D01*
X15810333Y-63801857D01*
X15810333Y-63944714D01*
X15762714Y-64039952D01*
X15715095Y-64087571D01*
X15619857Y-64135190D01*
X15238904Y-64135190D01*
X16191285Y-63706619D02*
X16238904Y-63659000D01*
X16334142Y-63611380D01*
X16572238Y-63611380D01*
X16667476Y-63659000D01*
X16715095Y-63706619D01*
X16762714Y-63801857D01*
X16762714Y-63897095D01*
X16715095Y-64039952D01*
X16143666Y-64611380D01*
X16762714Y-64611380D01*
%TO.C,R1*%
X12000333Y-64611380D02*
X11667000Y-64135190D01*
X11428904Y-64611380D02*
X11428904Y-63611380D01*
X11809857Y-63611380D01*
X11905095Y-63659000D01*
X11952714Y-63706619D01*
X12000333Y-63801857D01*
X12000333Y-63944714D01*
X11952714Y-64039952D01*
X11905095Y-64087571D01*
X11809857Y-64135190D01*
X11428904Y-64135190D01*
X12952714Y-64611380D02*
X12381285Y-64611380D01*
X12667000Y-64611380D02*
X12667000Y-63611380D01*
X12571761Y-63754238D01*
X12476523Y-63849476D01*
X12381285Y-63897095D01*
%TO.C,R3*%
X19690333Y-64611380D02*
X19357000Y-64135190D01*
X19118904Y-64611380D02*
X19118904Y-63611380D01*
X19499857Y-63611380D01*
X19595095Y-63659000D01*
X19642714Y-63706619D01*
X19690333Y-63801857D01*
X19690333Y-63944714D01*
X19642714Y-64039952D01*
X19595095Y-64087571D01*
X19499857Y-64135190D01*
X19118904Y-64135190D01*
X20023666Y-63611380D02*
X20642714Y-63611380D01*
X20309380Y-63992333D01*
X20452238Y-63992333D01*
X20547476Y-64039952D01*
X20595095Y-64087571D01*
X20642714Y-64182809D01*
X20642714Y-64420904D01*
X20595095Y-64516142D01*
X20547476Y-64563761D01*
X20452238Y-64611380D01*
X20166523Y-64611380D01*
X20071285Y-64563761D01*
X20023666Y-64516142D01*
%TD*%
M02*
