%TF.GenerationSoftware,KiCad,Pcbnew,5.1.6-c6e7f7d~87~ubuntu18.04.1*%
%TF.CreationDate,2021-12-28T13:40:06-05:00*%
%TF.ProjectId,remote,72656d6f-7465-42e6-9b69-6361645f7063,rev?*%
%TF.SameCoordinates,Original*%
%TF.FileFunction,Copper,L1,Top*%
%TF.FilePolarity,Positive*%
%FSLAX46Y46*%
G04 Gerber Fmt 4.6, Leading zero omitted, Abs format (unit mm)*
G04 Created by KiCad (PCBNEW 5.1.6-c6e7f7d~87~ubuntu18.04.1) date 2021-12-28 13:40:06*
%MOMM*%
%LPD*%
G01*
G04 APERTURE LIST*
%TA.AperFunction,ComponentPad*%
%ADD10R,1.700000X1.700000*%
%TD*%
%TA.AperFunction,ComponentPad*%
%ADD11O,1.700000X1.700000*%
%TD*%
%TA.AperFunction,ComponentPad*%
%ADD12R,1.500000X1.500000*%
%TD*%
%TA.AperFunction,ComponentPad*%
%ADD13C,1.500000*%
%TD*%
%TA.AperFunction,SMDPad,CuDef*%
%ADD14R,1.500000X1.000000*%
%TD*%
%TA.AperFunction,ComponentPad*%
%ADD15C,1.600000*%
%TD*%
%TA.AperFunction,ComponentPad*%
%ADD16O,1.600000X1.600000*%
%TD*%
%TA.AperFunction,ComponentPad*%
%ADD17R,2.800000X2.800000*%
%TD*%
%TA.AperFunction,ComponentPad*%
%ADD18O,2.800000X2.800000*%
%TD*%
%TA.AperFunction,ComponentPad*%
%ADD19O,2.000000X1.905000*%
%TD*%
%TA.AperFunction,ComponentPad*%
%ADD20R,2.000000X1.905000*%
%TD*%
%TA.AperFunction,ComponentPad*%
%ADD21C,1.700000*%
%TD*%
%TA.AperFunction,ComponentPad*%
%ADD22C,5.400000*%
%TD*%
%TA.AperFunction,ComponentPad*%
%ADD23C,2.100000*%
%TD*%
%TA.AperFunction,ComponentPad*%
%ADD24C,1.750000*%
%TD*%
%TA.AperFunction,ComponentPad*%
%ADD25O,1.750000X1.200000*%
%TD*%
%TA.AperFunction,ComponentPad*%
%ADD26R,1.600000X1.600000*%
%TD*%
%TA.AperFunction,ComponentPad*%
%ADD27R,3.500000X3.500000*%
%TD*%
%TA.AperFunction,ComponentPad*%
%ADD28R,2.600000X2.600000*%
%TD*%
%TA.AperFunction,ComponentPad*%
%ADD29C,2.600000*%
%TD*%
%TA.AperFunction,ViaPad*%
%ADD30C,0.800000*%
%TD*%
%TA.AperFunction,Conductor*%
%ADD31C,0.700000*%
%TD*%
%TA.AperFunction,Conductor*%
%ADD32C,0.400000*%
%TD*%
G04 APERTURE END LIST*
D10*
%TO.P,J14,1*%
%TO.N,MOSI*%
X17130000Y-39020000D03*
D11*
%TO.P,J14,2*%
%TO.N,SCK*%
X19670000Y-39020000D03*
%TO.P,J14,3*%
%TO.N,A1*%
X22210000Y-39020000D03*
%TO.P,J14,4*%
%TO.N,A2*%
X24750000Y-39020000D03*
%TO.P,J14,5*%
%TO.N,D5*%
X27290000Y-39020000D03*
%TO.P,J14,6*%
%TO.N,N/C*%
X29830000Y-39020000D03*
%TO.P,J14,7*%
%TO.N,+3V3*%
X32370000Y-39020000D03*
%TO.P,J14,8*%
%TO.N,POWER_2*%
X34910000Y-39020000D03*
%TD*%
%TO.P,J3,16*%
%TO.N,~RESET*%
X45063000Y-70523000D03*
%TO.P,J3,15*%
%TO.N,+3V3*%
X42523000Y-70523000D03*
%TO.P,J3,14*%
%TO.N,AREF*%
X39983000Y-70523000D03*
%TO.P,J3,13*%
%TO.N,GND*%
X37443000Y-70523000D03*
%TO.P,J3,12*%
%TO.N,A0*%
X34903000Y-70523000D03*
%TO.P,J3,11*%
%TO.N,A1*%
X32363000Y-70523000D03*
%TO.P,J3,10*%
%TO.N,A2*%
X29823000Y-70523000D03*
%TO.P,J3,9*%
%TO.N,A3*%
X27283000Y-70523000D03*
%TO.P,J3,8*%
%TO.N,A4*%
X24743000Y-70523000D03*
%TO.P,J3,7*%
%TO.N,A5*%
X22203000Y-70523000D03*
%TO.P,J3,6*%
%TO.N,SCK*%
X19663000Y-70523000D03*
%TO.P,J3,5*%
%TO.N,MOSI*%
X17123000Y-70523000D03*
%TO.P,J3,4*%
%TO.N,MISO*%
X14583000Y-70523000D03*
%TO.P,J3,3*%
%TO.N,RX_D0*%
X12043000Y-70523000D03*
%TO.P,J3,2*%
%TO.N,TX_D1*%
X9503000Y-70523000D03*
D10*
%TO.P,J3,1*%
%TO.N,DW*%
X6963000Y-70523000D03*
%TD*%
D12*
%TO.P,Q3,1*%
%TO.N,GND*%
X8280000Y-58520000D03*
D13*
%TO.P,Q3,3*%
%TO.N,Net-(D2-Pad2)*%
X8280000Y-53440000D03*
%TO.P,Q3,2*%
%TO.N,Net-(Q3-Pad2)*%
X5740000Y-55980000D03*
%TD*%
D14*
%TO.P,SP1,+*%
%TO.N,Net-(D2-Pad2)*%
X35940000Y-3680000D03*
%TO.P,SP1,-*%
%TO.N,+3V3*%
X41040000Y-3680000D03*
%TO.P,SP1,MT*%
%TO.N,N/C*%
X35940000Y-280000D03*
%TD*%
D15*
%TO.P,R8,1*%
%TO.N,Net-(Q3-Pad2)*%
X2650000Y-62240000D03*
D16*
%TO.P,R8,2*%
%TO.N,A0*%
X2650000Y-49540000D03*
%TD*%
D17*
%TO.P,D2,1*%
%TO.N,+3V3*%
X48940000Y-75350000D03*
D18*
%TO.P,D2,2*%
%TO.N,Net-(D2-Pad2)*%
X48940000Y-88050000D03*
%TD*%
D19*
%TO.P,Q2,3*%
%TO.N,GND*%
X31250000Y-57210000D03*
%TO.P,Q2,2*%
%TO.N,POWER_2*%
X31250000Y-54670000D03*
D20*
%TO.P,Q2,1*%
%TO.N,D6*%
X31250000Y-52130000D03*
%TD*%
D19*
%TO.P,Q1,3*%
%TO.N,GND*%
X21300000Y-81030000D03*
%TO.P,Q1,2*%
%TO.N,POWER_1*%
X21300000Y-78490000D03*
D20*
%TO.P,Q1,1*%
%TO.N,D9*%
X21300000Y-75950000D03*
%TD*%
%TO.P,J20,1*%
%TO.N,GND*%
%TA.AperFunction,SMDPad,CuDef*%
G36*
G01*
X16590000Y-3235000D02*
X16590000Y-4485000D01*
G75*
G02*
X16440000Y-4635000I-150000J0D01*
G01*
X16140000Y-4635000D01*
G75*
G02*
X15990000Y-4485000I0J150000D01*
G01*
X15990000Y-3235000D01*
G75*
G02*
X16140000Y-3085000I150000J0D01*
G01*
X16440000Y-3085000D01*
G75*
G02*
X16590000Y-3235000I0J-150000D01*
G01*
G37*
%TD.AperFunction*%
%TO.P,J20,2*%
%TO.N,+3V3*%
%TA.AperFunction,SMDPad,CuDef*%
G36*
G01*
X15590000Y-3235000D02*
X15590000Y-4485000D01*
G75*
G02*
X15440000Y-4635000I-150000J0D01*
G01*
X15140000Y-4635000D01*
G75*
G02*
X14990000Y-4485000I0J150000D01*
G01*
X14990000Y-3235000D01*
G75*
G02*
X15140000Y-3085000I150000J0D01*
G01*
X15440000Y-3085000D01*
G75*
G02*
X15590000Y-3235000I0J-150000D01*
G01*
G37*
%TD.AperFunction*%
%TO.P,J20,3*%
%TO.N,SDA*%
%TA.AperFunction,SMDPad,CuDef*%
G36*
G01*
X14590000Y-3235000D02*
X14590000Y-4485000D01*
G75*
G02*
X14440000Y-4635000I-150000J0D01*
G01*
X14140000Y-4635000D01*
G75*
G02*
X13990000Y-4485000I0J150000D01*
G01*
X13990000Y-3235000D01*
G75*
G02*
X14140000Y-3085000I150000J0D01*
G01*
X14440000Y-3085000D01*
G75*
G02*
X14590000Y-3235000I0J-150000D01*
G01*
G37*
%TD.AperFunction*%
%TO.P,J20,4*%
%TO.N,SCL*%
%TA.AperFunction,SMDPad,CuDef*%
G36*
G01*
X13590000Y-3235000D02*
X13590000Y-4485000D01*
G75*
G02*
X13440000Y-4635000I-150000J0D01*
G01*
X13140000Y-4635000D01*
G75*
G02*
X12990000Y-4485000I0J150000D01*
G01*
X12990000Y-3235000D01*
G75*
G02*
X13140000Y-3085000I150000J0D01*
G01*
X13440000Y-3085000D01*
G75*
G02*
X13590000Y-3235000I0J-150000D01*
G01*
G37*
%TD.AperFunction*%
%TO.P,J20,MP*%
%TO.N,N/C*%
%TA.AperFunction,SMDPad,CuDef*%
G36*
G01*
X18190000Y665001D02*
X18190000Y-635001D01*
G75*
G02*
X17940001Y-885000I-249999J0D01*
G01*
X17239999Y-885000D01*
G75*
G02*
X16990000Y-635001I0J249999D01*
G01*
X16990000Y665001D01*
G75*
G02*
X17239999Y915000I249999J0D01*
G01*
X17940001Y915000D01*
G75*
G02*
X18190000Y665001I0J-249999D01*
G01*
G37*
%TD.AperFunction*%
%TA.AperFunction,SMDPad,CuDef*%
G36*
G01*
X12590000Y665001D02*
X12590000Y-635001D01*
G75*
G02*
X12340001Y-885000I-249999J0D01*
G01*
X11639999Y-885000D01*
G75*
G02*
X11390000Y-635001I0J249999D01*
G01*
X11390000Y665001D01*
G75*
G02*
X11639999Y915000I249999J0D01*
G01*
X12340001Y915000D01*
G75*
G02*
X12590000Y665001I0J-249999D01*
G01*
G37*
%TD.AperFunction*%
%TD*%
D11*
%TO.P,J18,6*%
%TO.N,N/C*%
X45760000Y-22310000D03*
%TO.P,J18,5*%
X45760000Y-19770000D03*
%TO.P,J18,4*%
X45760000Y-17230000D03*
%TO.P,J18,3*%
X45760000Y-14690000D03*
%TO.P,J18,2*%
X45760000Y-12150000D03*
D10*
%TO.P,J18,1*%
X45760000Y-9610000D03*
%TD*%
D16*
%TO.P,R7,2*%
%TO.N,GND*%
X48330000Y-62510000D03*
D15*
%TO.P,R7,1*%
%TO.N,D6*%
X35630000Y-62510000D03*
%TD*%
%TO.P,R6,1*%
%TO.N,D9*%
X26260000Y-86200000D03*
D16*
%TO.P,R6,2*%
%TO.N,GND*%
X38960000Y-86200000D03*
%TD*%
D10*
%TO.P,J15,1*%
%TO.N,+3V3*%
X36210000Y-35280000D03*
D11*
%TO.P,J15,2*%
%TO.N,N/C*%
X33670000Y-35280000D03*
%TO.P,J15,3*%
%TO.N,GND*%
X31130000Y-35280000D03*
%TO.P,J15,4*%
%TO.N,SCK*%
X28590000Y-35280000D03*
%TO.P,J15,5*%
%TO.N,MOSI*%
X26050000Y-35280000D03*
%TO.P,J15,6*%
%TO.N,D5*%
X23510000Y-35280000D03*
%TO.P,J15,7*%
%TO.N,N/C*%
X20970000Y-35280000D03*
%TO.P,J15,8*%
X18430000Y-35280000D03*
%TO.P,J15,9*%
X15890000Y-35280000D03*
%TD*%
D10*
%TO.P,J11,1*%
%TO.N,N/C*%
X4640000Y-8170000D03*
D11*
%TO.P,J11,2*%
X4640000Y-10710000D03*
%TO.P,J11,3*%
X4640000Y-13250000D03*
%TO.P,J11,4*%
%TO.N,+3V3*%
X4640000Y-15790000D03*
%TO.P,J11,5*%
%TO.N,SDA*%
X4640000Y-18330000D03*
%TO.P,J11,6*%
%TO.N,SCL*%
X4640000Y-20870000D03*
%TO.P,J11,7*%
%TO.N,POWER_1*%
X4640000Y-23410000D03*
%TO.P,J11,8*%
%TO.N,GND*%
X4640000Y-25950000D03*
%TO.P,J11,9*%
%TO.N,RX_D0*%
X4640000Y-28490000D03*
%TO.P,J11,10*%
%TO.N,TX_D1*%
X4640000Y-31030000D03*
%TD*%
%TO.P,J6,13*%
%TO.N,N/C*%
X41340000Y-6960000D03*
%TO.P,J6,12*%
X38800000Y-6960000D03*
%TO.P,J6,11*%
X36260000Y-6960000D03*
%TO.P,J6,10*%
X33720000Y-6960000D03*
%TO.P,J6,9*%
X31180000Y-6960000D03*
%TO.P,J6,8*%
X28640000Y-6960000D03*
%TO.P,J6,7*%
X26100000Y-6960000D03*
%TO.P,J6,6*%
X23560000Y-6960000D03*
%TO.P,J6,5*%
X21020000Y-6960000D03*
%TO.P,J6,4*%
X18480000Y-6960000D03*
%TO.P,J6,3*%
X15940000Y-6960000D03*
%TO.P,J6,2*%
X13400000Y-6960000D03*
D10*
%TO.P,J6,1*%
X10860000Y-6960000D03*
%TD*%
D11*
%TO.P,J2,12*%
%TO.N,SDA*%
X6973000Y-90807000D03*
%TO.P,J2,11*%
%TO.N,SCL*%
X9513000Y-90807000D03*
%TO.P,J2,10*%
%TO.N,D5*%
X12053000Y-90807000D03*
%TO.P,J2,9*%
%TO.N,D6*%
X14593000Y-90807000D03*
%TO.P,J2,8*%
%TO.N,D9*%
X17133000Y-90807000D03*
%TO.P,J2,7*%
%TO.N,D10*%
X19673000Y-90807000D03*
%TO.P,J2,6*%
%TO.N,D11*%
X22213000Y-90807000D03*
%TO.P,J2,5*%
%TO.N,D12*%
X24753000Y-90807000D03*
%TO.P,J2,4*%
%TO.N,D13*%
X27293000Y-90807000D03*
%TO.P,J2,3*%
%TO.N,VBUS*%
X29833000Y-90807000D03*
%TO.P,J2,2*%
%TO.N,EN*%
X32373000Y-90807000D03*
D10*
%TO.P,J2,1*%
%TO.N,VBAT*%
X34913000Y-90807000D03*
%TD*%
D21*
%TO.P,SW4,1*%
%TO.N,~RESET*%
X50640000Y-94560000D03*
%TO.P,SW4,2*%
X50640000Y-101060000D03*
%TO.P,SW4,3*%
%TO.N,GND*%
X46140000Y-94560000D03*
%TO.P,SW4,4*%
X46140000Y-101060000D03*
%TD*%
D22*
%TO.P,H6,1*%
%TO.N,SCL*%
X3750000Y-2250000D03*
%TD*%
D16*
%TO.P,R5,2*%
%TO.N,GND*%
X27437000Y-49539000D03*
D15*
%TO.P,R5,1*%
%TO.N,Net-(J19-Pad2)*%
X27437000Y-62239000D03*
%TD*%
D10*
%TO.P,J19,1*%
%TO.N,N/C*%
X1750000Y-41450000D03*
D11*
%TO.P,J19,2*%
%TO.N,Net-(J19-Pad2)*%
X1750000Y-38910000D03*
%TO.P,J19,3*%
%TO.N,A3*%
X1750000Y-36370000D03*
%TD*%
D22*
%TO.P,H5,1*%
%TO.N,SDA*%
X48250000Y-2270000D03*
%TD*%
D11*
%TO.P,J9,12*%
%TO.N,SDA*%
X6943000Y-66695000D03*
%TO.P,J9,11*%
%TO.N,SCL*%
X9483000Y-66695000D03*
%TO.P,J9,10*%
%TO.N,D5*%
X12023000Y-66695000D03*
%TO.P,J9,9*%
%TO.N,D6*%
X14563000Y-66695000D03*
%TO.P,J9,8*%
%TO.N,D9*%
X17103000Y-66695000D03*
%TO.P,J9,7*%
%TO.N,D10*%
X19643000Y-66695000D03*
%TO.P,J9,6*%
%TO.N,D11*%
X22183000Y-66695000D03*
%TO.P,J9,5*%
%TO.N,D12*%
X24723000Y-66695000D03*
%TO.P,J9,4*%
%TO.N,D13*%
X27263000Y-66695000D03*
%TO.P,J9,3*%
%TO.N,VBUS*%
X29803000Y-66695000D03*
%TO.P,J9,2*%
%TO.N,EN*%
X32343000Y-66695000D03*
D10*
%TO.P,J9,1*%
%TO.N,VBAT*%
X34883000Y-66695000D03*
%TD*%
%TO.P,J16,1*%
%TO.N,GND*%
X22200000Y-42720000D03*
D11*
%TO.P,J16,2*%
%TO.N,+3V3*%
X24740000Y-42720000D03*
%TO.P,J16,3*%
%TO.N,SCL*%
X27280000Y-42720000D03*
%TO.P,J16,4*%
%TO.N,SDA*%
X29820000Y-42720000D03*
%TD*%
%TO.P,J17,7*%
%TO.N,N/C*%
X26033000Y-31611000D03*
%TO.P,J17,6*%
X28573000Y-31611000D03*
%TO.P,J17,5*%
X31113000Y-31611000D03*
%TO.P,J17,4*%
%TO.N,SDA*%
X33653000Y-31611000D03*
%TO.P,J17,3*%
%TO.N,SCL*%
X36193000Y-31611000D03*
%TO.P,J17,2*%
%TO.N,POWER_1*%
X38733000Y-31611000D03*
D10*
%TO.P,J17,1*%
%TO.N,+3V3*%
X41273000Y-31611000D03*
%TD*%
D22*
%TO.P,H2,1*%
%TO.N,+3V3*%
X48250000Y-105410000D03*
%TD*%
%TO.P,H1,1*%
%TO.N,GND*%
X3790000Y-105410000D03*
%TD*%
D10*
%TO.P,J5,1*%
%TO.N,GND*%
X50120000Y-17290000D03*
D11*
%TO.P,J5,2*%
%TO.N,VBAT*%
X50120000Y-14750000D03*
%TO.P,J5,3*%
%TO.N,N/C*%
X50120000Y-12210000D03*
%TD*%
D23*
%TO.P,SW2,*%
%TO.N,*%
X45720000Y-35900000D03*
D24*
%TO.P,SW2,1*%
%TO.N,A5*%
X48210000Y-37150000D03*
%TO.P,SW2,2*%
%TO.N,GND*%
X48210000Y-41650000D03*
D23*
%TO.P,SW2,*%
%TO.N,*%
X45720000Y-42910000D03*
%TD*%
%TO.P,SW1,*%
%TO.N,*%
X45760000Y-32740000D03*
D24*
%TO.P,SW1,2*%
%TO.N,GND*%
X48250000Y-31480000D03*
%TO.P,SW1,1*%
%TO.N,A4*%
X48250000Y-26980000D03*
D23*
%TO.P,SW1,*%
%TO.N,*%
X45760000Y-25730000D03*
%TD*%
%TO.P,J1,1*%
%TO.N,VBAT*%
%TA.AperFunction,ComponentPad*%
G36*
G01*
X16024999Y-79800000D02*
X17275001Y-79800000D01*
G75*
G02*
X17525000Y-80049999I0J-249999D01*
G01*
X17525000Y-80750001D01*
G75*
G02*
X17275001Y-81000000I-249999J0D01*
G01*
X16024999Y-81000000D01*
G75*
G02*
X15775000Y-80750001I0J249999D01*
G01*
X15775000Y-80049999D01*
G75*
G02*
X16024999Y-79800000I249999J0D01*
G01*
G37*
%TD.AperFunction*%
D25*
%TO.P,J1,2*%
%TO.N,GND*%
X16650000Y-82400000D03*
%TD*%
D11*
%TO.P,J10,16*%
%TO.N,~RESET*%
X45033000Y-46411000D03*
%TO.P,J10,15*%
%TO.N,+3V3*%
X42493000Y-46411000D03*
%TO.P,J10,14*%
%TO.N,AREF*%
X39953000Y-46411000D03*
%TO.P,J10,13*%
%TO.N,GND*%
X37413000Y-46411000D03*
%TO.P,J10,12*%
%TO.N,A0*%
X34873000Y-46411000D03*
%TO.P,J10,11*%
%TO.N,A1*%
X32333000Y-46411000D03*
%TO.P,J10,10*%
%TO.N,A2*%
X29793000Y-46411000D03*
%TO.P,J10,9*%
%TO.N,A3*%
X27253000Y-46411000D03*
%TO.P,J10,8*%
%TO.N,A4*%
X24713000Y-46411000D03*
%TO.P,J10,7*%
%TO.N,A5*%
X22173000Y-46411000D03*
%TO.P,J10,6*%
%TO.N,SCK*%
X19633000Y-46411000D03*
%TO.P,J10,5*%
%TO.N,MOSI*%
X17093000Y-46411000D03*
%TO.P,J10,4*%
%TO.N,MISO*%
X14553000Y-46411000D03*
%TO.P,J10,3*%
%TO.N,RX_D0*%
X12013000Y-46411000D03*
%TO.P,J10,2*%
%TO.N,TX_D1*%
X9473000Y-46411000D03*
D10*
%TO.P,J10,1*%
%TO.N,DW*%
X6933000Y-46411000D03*
%TD*%
D18*
%TO.P,D1,2*%
%TO.N,VOUT_DCDC*%
X43940000Y-88050000D03*
D17*
%TO.P,D1,1*%
%TO.N,VBUS*%
X43940000Y-75350000D03*
%TD*%
D26*
%TO.P,C2,1*%
%TO.N,VOUT_DCDC*%
X12210000Y-103420000D03*
D15*
%TO.P,C2,2*%
%TO.N,GND*%
X12210000Y-105920000D03*
%TD*%
%TO.P,C1,2*%
%TO.N,GND*%
X17960000Y-105880000D03*
D26*
%TO.P,C1,1*%
%TO.N,VIN_DCDC*%
X17960000Y-103380000D03*
%TD*%
D10*
%TO.P,J4,1*%
%TO.N,VIN_DCDC*%
X16597000Y-95659000D03*
D11*
%TO.P,J4,2*%
%TO.N,GND*%
X14057000Y-95659000D03*
%TO.P,J4,3*%
%TO.N,VOUT_DCDC*%
X11517000Y-95659000D03*
%TD*%
D16*
%TO.P,R4,2*%
%TO.N,A4*%
X23627000Y-49539000D03*
D15*
%TO.P,R4,1*%
%TO.N,+3V3*%
X23627000Y-62239000D03*
%TD*%
%TO.P,J12,MP*%
%TO.N,N/C*%
%TA.AperFunction,SMDPad,CuDef*%
G36*
G01*
X994999Y-99840000D02*
X2295001Y-99840000D01*
G75*
G02*
X2545000Y-100089999I0J-249999D01*
G01*
X2545000Y-100790001D01*
G75*
G02*
X2295001Y-101040000I-249999J0D01*
G01*
X994999Y-101040000D01*
G75*
G02*
X745000Y-100790001I0J249999D01*
G01*
X745000Y-100089999D01*
G75*
G02*
X994999Y-99840000I249999J0D01*
G01*
G37*
%TD.AperFunction*%
%TA.AperFunction,SMDPad,CuDef*%
G36*
G01*
X994999Y-94240000D02*
X2295001Y-94240000D01*
G75*
G02*
X2545000Y-94489999I0J-249999D01*
G01*
X2545000Y-95190001D01*
G75*
G02*
X2295001Y-95440000I-249999J0D01*
G01*
X994999Y-95440000D01*
G75*
G02*
X745000Y-95190001I0J249999D01*
G01*
X745000Y-94489999D01*
G75*
G02*
X994999Y-94240000I249999J0D01*
G01*
G37*
%TD.AperFunction*%
%TO.P,J12,4*%
%TO.N,SCL*%
%TA.AperFunction,SMDPad,CuDef*%
G36*
G01*
X4895000Y-98840000D02*
X6145000Y-98840000D01*
G75*
G02*
X6295000Y-98990000I0J-150000D01*
G01*
X6295000Y-99290000D01*
G75*
G02*
X6145000Y-99440000I-150000J0D01*
G01*
X4895000Y-99440000D01*
G75*
G02*
X4745000Y-99290000I0J150000D01*
G01*
X4745000Y-98990000D01*
G75*
G02*
X4895000Y-98840000I150000J0D01*
G01*
G37*
%TD.AperFunction*%
%TO.P,J12,3*%
%TO.N,SDA*%
%TA.AperFunction,SMDPad,CuDef*%
G36*
G01*
X4895000Y-97840000D02*
X6145000Y-97840000D01*
G75*
G02*
X6295000Y-97990000I0J-150000D01*
G01*
X6295000Y-98290000D01*
G75*
G02*
X6145000Y-98440000I-150000J0D01*
G01*
X4895000Y-98440000D01*
G75*
G02*
X4745000Y-98290000I0J150000D01*
G01*
X4745000Y-97990000D01*
G75*
G02*
X4895000Y-97840000I150000J0D01*
G01*
G37*
%TD.AperFunction*%
%TO.P,J12,2*%
%TO.N,+3V3*%
%TA.AperFunction,SMDPad,CuDef*%
G36*
G01*
X4895000Y-96840000D02*
X6145000Y-96840000D01*
G75*
G02*
X6295000Y-96990000I0J-150000D01*
G01*
X6295000Y-97290000D01*
G75*
G02*
X6145000Y-97440000I-150000J0D01*
G01*
X4895000Y-97440000D01*
G75*
G02*
X4745000Y-97290000I0J150000D01*
G01*
X4745000Y-96990000D01*
G75*
G02*
X4895000Y-96840000I150000J0D01*
G01*
G37*
%TD.AperFunction*%
%TO.P,J12,1*%
%TO.N,GND*%
%TA.AperFunction,SMDPad,CuDef*%
G36*
G01*
X4895000Y-95840000D02*
X6145000Y-95840000D01*
G75*
G02*
X6295000Y-95990000I0J-150000D01*
G01*
X6295000Y-96290000D01*
G75*
G02*
X6145000Y-96440000I-150000J0D01*
G01*
X4895000Y-96440000D01*
G75*
G02*
X4745000Y-96290000I0J150000D01*
G01*
X4745000Y-95990000D01*
G75*
G02*
X4895000Y-95840000I150000J0D01*
G01*
G37*
%TD.AperFunction*%
%TD*%
D27*
%TO.P,J7,1*%
%TO.N,VIN_DCDC*%
X25908000Y-94742000D03*
%TO.P,J7,2*%
%TO.N,GND*%
%TA.AperFunction,ComponentPad*%
G36*
G01*
X26908000Y-102242000D02*
X24908000Y-102242000D01*
G75*
G02*
X24158000Y-101492000I0J750000D01*
G01*
X24158000Y-99992000D01*
G75*
G02*
X24908000Y-99242000I750000J0D01*
G01*
X26908000Y-99242000D01*
G75*
G02*
X27658000Y-99992000I0J-750000D01*
G01*
X27658000Y-101492000D01*
G75*
G02*
X26908000Y-102242000I-750000J0D01*
G01*
G37*
%TD.AperFunction*%
%TO.P,J7,3*%
%TO.N,N/C*%
%TA.AperFunction,ComponentPad*%
G36*
G01*
X31483000Y-99492000D02*
X29733000Y-99492000D01*
G75*
G02*
X28858000Y-98617000I0J875000D01*
G01*
X28858000Y-96867000D01*
G75*
G02*
X29733000Y-95992000I875000J0D01*
G01*
X31483000Y-95992000D01*
G75*
G02*
X32358000Y-96867000I0J-875000D01*
G01*
X32358000Y-98617000D01*
G75*
G02*
X31483000Y-99492000I-875000J0D01*
G01*
G37*
%TD.AperFunction*%
%TD*%
D28*
%TO.P,J8,1*%
%TO.N,VIN_DCDC*%
X36090000Y-97250000D03*
D29*
%TO.P,J8,2*%
%TO.N,GND*%
X41090000Y-97250000D03*
%TD*%
D15*
%TO.P,R2,1*%
%TO.N,+3V3*%
X16007000Y-62239000D03*
D16*
%TO.P,R2,2*%
%TO.N,SCL*%
X16007000Y-49539000D03*
%TD*%
D15*
%TO.P,R1,1*%
%TO.N,+3V3*%
X12197000Y-62239000D03*
D16*
%TO.P,R1,2*%
%TO.N,SDA*%
X12197000Y-49539000D03*
%TD*%
D15*
%TO.P,R3,1*%
%TO.N,+3V3*%
X19817000Y-62239000D03*
D16*
%TO.P,R3,2*%
%TO.N,A5*%
X19817000Y-49539000D03*
%TD*%
D30*
%TO.N,+3V3*%
X9710000Y-97170000D03*
X9730000Y-107730000D03*
X31480000Y-107210000D03*
X31520000Y-103020000D03*
X42520000Y-72910000D03*
X11925000Y-35325000D03*
X7700000Y-2575000D03*
X7400000Y-5825000D03*
X2075000Y-6175000D03*
X1600000Y-16075000D03*
X1425000Y-31475000D03*
X4675000Y-63775000D03*
X4600000Y-73125000D03*
X43025000Y-61175000D03*
X41273000Y-35173000D03*
X11925000Y-40025000D03*
X25829999Y-40420001D03*
X41450000Y-40625000D03*
%TO.N,GND*%
X25950000Y-105680000D03*
X41050000Y-101030000D03*
X8310000Y-96100000D03*
X8330000Y-93930000D03*
X14030000Y-93910000D03*
X16680000Y-85470000D03*
X21280000Y-85470000D03*
X28090000Y-81000000D03*
X38900000Y-79750000D03*
X31850000Y-80050000D03*
X40325000Y-64525000D03*
X37450000Y-64875000D03*
X48275000Y-64375000D03*
X37485000Y-57210000D03*
X38925000Y-57200000D03*
X27400000Y-57100000D03*
X6425000Y-42500000D03*
X8750000Y-1584990D03*
X3700000Y-86600000D03*
X3175000Y-93275000D03*
X10300000Y-57125000D03*
X5825000Y-50300000D03*
X10225000Y-51125000D03*
X6425000Y-36600000D03*
X37400000Y-43875000D03*
%TO.N,SDA*%
X7475000Y-26675000D03*
X7850000Y-30225000D03*
X6325000Y-4850000D03*
X6425000Y-7300000D03*
X33775000Y-28375000D03*
X1750000Y-96075000D03*
X31275000Y-64100000D03*
X11550000Y-60775000D03*
X7900000Y-61075000D03*
X9300000Y-63950000D03*
X4750000Y-75075000D03*
%TO.N,SCL*%
X3000000Y-20600000D03*
X3525000Y-99075000D03*
X24750000Y-52850000D03*
X13450000Y-65100000D03*
X15475000Y-52950000D03*
X10750000Y-71900000D03*
X35800000Y-42500000D03*
%TO.N,VIN_DCDC*%
X35720000Y-94150000D03*
X36090000Y-97250000D03*
%TO.N,VOUT_DCDC*%
X29270000Y-101210000D03*
X43820000Y-92820000D03*
X38620000Y-100990000D03*
X11540000Y-99740000D03*
X22290000Y-103800000D03*
X29050000Y-103750000D03*
X38680000Y-92710000D03*
X22180000Y-99640000D03*
%TO.N,TX_D1*%
X3278248Y-33596752D03*
X5250000Y-42775000D03*
%TO.N,RX_D0*%
X8825000Y-31375000D03*
%TO.N,MOSI*%
X17150000Y-33900000D03*
%TO.N,A5*%
X38575000Y-48125000D03*
X40075000Y-36300000D03*
%TO.N,A4*%
X43250000Y-28825000D03*
X42750000Y-44425000D03*
%TO.N,A3*%
X28775000Y-52800000D03*
X1700000Y-53625000D03*
X1300001Y-48300001D03*
X4150000Y-46200000D03*
X4225000Y-36675000D03*
X27450000Y-75350000D03*
X41450000Y-75300000D03*
X42625000Y-63325000D03*
X37893001Y-62425000D03*
X36325000Y-59050000D03*
X28425000Y-58475000D03*
%TO.N,A2*%
X27075000Y-44300000D03*
X23837500Y-44062500D03*
%TO.N,A1*%
X33025010Y-48800000D03*
X21525000Y-50525000D03*
X25650000Y-57350000D03*
X21775000Y-57075000D03*
X26350000Y-68875000D03*
%TO.N,A0*%
X7650000Y-49500000D03*
X9500000Y-44225000D03*
X12175000Y-44300000D03*
X33350000Y-37550000D03*
X13000000Y-38175000D03*
%TO.N,AREF*%
X41325000Y-52450000D03*
X41925000Y-57325000D03*
%TO.N,~RESET*%
X49725000Y-91675000D03*
X37125000Y-90750000D03*
X36200000Y-69200000D03*
X43425000Y-68150000D03*
X43725000Y-62500000D03*
X47725000Y-60975000D03*
X48075000Y-47050000D03*
%TO.N,VBAT*%
X18890000Y-80420000D03*
X18930000Y-83750000D03*
X34850000Y-83890000D03*
X50775000Y-66900000D03*
X50950000Y-83925000D03*
X43800000Y-44725000D03*
X46675000Y-45100000D03*
X46820000Y-66695000D03*
X48250000Y-23950000D03*
X51070000Y-24150000D03*
X51070000Y-29800000D03*
X43975000Y-30225000D03*
%TO.N,VBUS*%
X29930000Y-81950000D03*
X43770000Y-81900000D03*
X29850000Y-60025000D03*
X50175000Y-60300000D03*
X49725000Y-71450000D03*
X46575000Y-71575000D03*
X46150000Y-81800000D03*
%TO.N,D9*%
X17750000Y-75375000D03*
X25750000Y-77200000D03*
X17200000Y-88475000D03*
%TO.N,D5*%
X14450000Y-74375000D03*
X32025000Y-74425000D03*
X32725000Y-44125000D03*
X28675000Y-43925000D03*
%TO.N,D6*%
X34700000Y-53175000D03*
X32575000Y-64650000D03*
X35500000Y-64275000D03*
X30900000Y-67950000D03*
%TO.N,POWER_1*%
X27900000Y-78475000D03*
X38825000Y-38875000D03*
X31675000Y-78525000D03*
X2825000Y-23425000D03*
X10150000Y-33950000D03*
X10250000Y-31175000D03*
X5175000Y-33650000D03*
X49900000Y-40325000D03*
X49825000Y-58475000D03*
X44900000Y-58575000D03*
X44950000Y-68075000D03*
%TO.N,POWER_2*%
X42025000Y-56075000D03*
X51075000Y-39250000D03*
X51000000Y-55700000D03*
X38525000Y-54650000D03*
%TO.N,Net-(J19-Pad2)*%
X27275000Y-59800000D03*
X4400000Y-59225000D03*
%TO.N,Net-(D2-Pad2)*%
X43975000Y-3100000D03*
X44950000Y-30875000D03*
X48750000Y-80450000D03*
X41325000Y-79725000D03*
X36300001Y-49575000D03*
X37850000Y-34100000D03*
%TO.N,Net-(Q3-Pad2)*%
X5125000Y-62225000D03*
%TD*%
D31*
%TO.N,+3V3*%
X5520000Y-97140000D02*
X9680000Y-97140000D01*
X9680000Y-97140000D02*
X9710000Y-97170000D01*
X9730000Y-107730000D02*
X30960000Y-107730000D01*
X30960000Y-107730000D02*
X31480000Y-107210000D01*
X45860000Y-103020000D02*
X48250000Y-105410000D01*
X31520000Y-103020000D02*
X45860000Y-103020000D01*
X48950000Y-72910000D02*
X48950000Y-75340000D01*
X42520000Y-72910000D02*
X48950000Y-72910000D01*
X48950000Y-75340000D02*
X48940000Y-75350000D01*
X12197000Y-62239000D02*
X16007000Y-62239000D01*
X16007000Y-62239000D02*
X19817000Y-62239000D01*
X19817000Y-62239000D02*
X23627000Y-62239000D01*
X15890000Y-35280000D02*
X11970000Y-35280000D01*
X11970000Y-35280000D02*
X11925000Y-35325000D01*
X41040000Y-3680000D02*
X41040000Y-4385000D01*
X41040000Y-4385000D02*
X40300000Y-5125000D01*
X40300000Y-5125000D02*
X32975000Y-5125000D01*
X32975000Y-5125000D02*
X32825000Y-5275000D01*
X32825000Y-5275000D02*
X15250000Y-5275000D01*
X15290000Y-5235000D02*
X15290000Y-3860000D01*
X15250000Y-5275000D02*
X15290000Y-5235000D01*
X15290000Y-3860000D02*
X15290000Y-2715000D01*
X15109990Y-2534990D02*
X8459990Y-2534990D01*
X15290000Y-2715000D02*
X15109990Y-2534990D01*
X8459990Y-2534990D02*
X8419980Y-2575000D01*
X8419980Y-2575000D02*
X7700000Y-2575000D01*
X7400000Y-5825000D02*
X2425000Y-5825000D01*
X2425000Y-5825000D02*
X2075000Y-6175000D01*
X4355000Y-16075000D02*
X4640000Y-15790000D01*
X1600000Y-16075000D02*
X4355000Y-16075000D01*
X1425000Y-33350000D02*
X1425000Y-31475000D01*
X11925000Y-35325000D02*
X11900000Y-35300000D01*
X11900000Y-35300000D02*
X3375000Y-35300000D01*
X3375000Y-35300000D02*
X1425000Y-33350000D01*
X12197000Y-62239000D02*
X7011000Y-62239000D01*
X7011000Y-62239000D02*
X5475000Y-63775000D01*
X5475000Y-63775000D02*
X4675000Y-63775000D01*
X42305000Y-73125000D02*
X42520000Y-72910000D01*
X4600000Y-73125000D02*
X42305000Y-73125000D01*
X28356001Y-61159999D02*
X43009999Y-61159999D01*
X28085001Y-60888999D02*
X28356001Y-61159999D01*
X23627000Y-62239000D02*
X24977001Y-60888999D01*
X24977001Y-60888999D02*
X28085001Y-60888999D01*
X43009999Y-61159999D02*
X43025000Y-61175000D01*
X41166000Y-35280000D02*
X41273000Y-35173000D01*
X36210000Y-35280000D02*
X41166000Y-35280000D01*
X12320001Y-40420001D02*
X11925000Y-40025000D01*
X32370000Y-39020000D02*
X30969999Y-40420001D01*
X30969999Y-40420001D02*
X25829999Y-40420001D01*
X25829999Y-40420001D02*
X12320001Y-40420001D01*
X33975000Y-40625000D02*
X41450000Y-40625000D01*
X32370000Y-39020000D02*
X33975000Y-40625000D01*
%TO.N,GND*%
X17920000Y-105920000D02*
X17960000Y-105880000D01*
X12210000Y-105920000D02*
X17920000Y-105920000D01*
X11700000Y-105410000D02*
X12210000Y-105920000D01*
X3790000Y-105410000D02*
X11700000Y-105410000D01*
X17960000Y-105880000D02*
X25750000Y-105880000D01*
X25750000Y-105880000D02*
X25950000Y-105680000D01*
X46140000Y-101060000D02*
X41080000Y-101060000D01*
X41080000Y-101060000D02*
X41050000Y-101030000D01*
X5520000Y-96140000D02*
X8270000Y-96140000D01*
X8270000Y-96140000D02*
X8310000Y-96100000D01*
X8330000Y-93930000D02*
X14010000Y-93930000D01*
X14010000Y-93930000D02*
X14030000Y-93910000D01*
X16680000Y-85470000D02*
X21280000Y-85470000D01*
X21300000Y-81030000D02*
X28060000Y-81030000D01*
X28060000Y-81030000D02*
X28090000Y-81000000D01*
X38900000Y-79750000D02*
X32150000Y-79750000D01*
X32150000Y-79750000D02*
X31850000Y-80050000D01*
X40325000Y-64525000D02*
X37800000Y-64525000D01*
X37800000Y-64525000D02*
X37450000Y-64875000D01*
X40475000Y-64375000D02*
X40325000Y-64525000D01*
X48275000Y-64375000D02*
X40475000Y-64375000D01*
X38585000Y-57210000D02*
X38600000Y-57225000D01*
X31250000Y-57210000D02*
X37485000Y-57210000D01*
X37485000Y-57210000D02*
X38585000Y-57210000D01*
X38585000Y-57210000D02*
X38915000Y-57210000D01*
X38915000Y-57210000D02*
X38925000Y-57200000D01*
X31250000Y-57210000D02*
X27510000Y-57210000D01*
X27510000Y-57210000D02*
X27400000Y-57100000D01*
X48210000Y-41650000D02*
X47600000Y-41650000D01*
X22200000Y-42720000D02*
X6645000Y-42720000D01*
X6645000Y-42720000D02*
X6425000Y-42500000D01*
X4840000Y-26150000D02*
X4640000Y-25950000D01*
X16290000Y-3860000D02*
X16290000Y-1865000D01*
X16290000Y-1865000D02*
X16009990Y-1584990D01*
X16009990Y-1584990D02*
X8750000Y-1584990D01*
X3830000Y-93930000D02*
X3175000Y-93275000D01*
X8330000Y-93930000D02*
X3830000Y-93930000D01*
X16680000Y-85995000D02*
X16680000Y-85470000D01*
X3700000Y-86600000D02*
X16075000Y-86600000D01*
X16075000Y-86600000D02*
X16680000Y-85995000D01*
X11695000Y-58520000D02*
X10300000Y-57125000D01*
X12955000Y-58520000D02*
X11695000Y-58520000D01*
X5825000Y-50300000D02*
X6300000Y-50775000D01*
X6300000Y-50775000D02*
X9875000Y-50775000D01*
X9875000Y-50775000D02*
X10225000Y-51125000D01*
X27400000Y-57100000D02*
X26125000Y-58375000D01*
X12015000Y-58375000D02*
X11870000Y-58520000D01*
X8280000Y-58520000D02*
X11870000Y-58520000D01*
X26125000Y-58375000D02*
X12015000Y-58375000D01*
X11870000Y-58520000D02*
X12955000Y-58520000D01*
X6505001Y-36680001D02*
X31019999Y-36680001D01*
X6425000Y-36600000D02*
X6505001Y-36680001D01*
X31130000Y-36570000D02*
X31130000Y-35280000D01*
X31019999Y-36680001D02*
X31130000Y-36570000D01*
X46488001Y-41309999D02*
X44140001Y-41309999D01*
X48210000Y-41650000D02*
X46828002Y-41650000D01*
X46828002Y-41650000D02*
X46488001Y-41309999D01*
X44140001Y-41309999D02*
X41875000Y-43575000D01*
X41875000Y-43575000D02*
X37700000Y-43575000D01*
X37700000Y-43575000D02*
X37400000Y-43875000D01*
D32*
%TO.N,SDA*%
X4640000Y-18330000D02*
X6205000Y-18330000D01*
X6205000Y-18330000D02*
X6775000Y-18900000D01*
X6775000Y-18900000D02*
X6775000Y-19950000D01*
X6775000Y-19950000D02*
X6650000Y-20075000D01*
X6650000Y-20075000D02*
X6650000Y-24525000D01*
X6650000Y-24525000D02*
X6650000Y-25850000D01*
X6650000Y-25850000D02*
X7475000Y-26675000D01*
X7850000Y-30225000D02*
X33300000Y-30225000D01*
X33653000Y-30578000D02*
X33653000Y-31611000D01*
X33300000Y-30225000D02*
X33653000Y-30578000D01*
X14290000Y-3860000D02*
X14290000Y-4885000D01*
X12727166Y-4850000D02*
X6325000Y-4850000D01*
X12912176Y-5035010D02*
X12727166Y-4850000D01*
X14290000Y-4885000D02*
X14139990Y-5035010D01*
X14139990Y-5035010D02*
X12912176Y-5035010D01*
X6205000Y-18330000D02*
X6205000Y-7495000D01*
X6205000Y-7495000D02*
X6425000Y-7275000D01*
X6425000Y-7275000D02*
X6425000Y-7300000D01*
X48250000Y-2270000D02*
X44000000Y-6520000D01*
X44000000Y-6520000D02*
X44000000Y-26650000D01*
X44000000Y-26650000D02*
X42525000Y-28125000D01*
X42525000Y-28125000D02*
X34025000Y-28125000D01*
X34025000Y-28125000D02*
X33775000Y-28375000D01*
X1750000Y-96075000D02*
X1275000Y-96550000D01*
X1275000Y-96550000D02*
X1275000Y-97700000D01*
X1715000Y-98140000D02*
X5520000Y-98140000D01*
X1275000Y-97700000D02*
X1715000Y-98140000D01*
X31275000Y-64100000D02*
X25825000Y-64100000D01*
X25825000Y-64100000D02*
X25800000Y-64125000D01*
X25800000Y-64125000D02*
X9475000Y-64125000D01*
X11550000Y-60775000D02*
X8200000Y-60775000D01*
X8200000Y-60775000D02*
X7900000Y-61075000D01*
X9475000Y-64125000D02*
X9300000Y-63950000D01*
X6943000Y-66695000D02*
X2700000Y-70938000D01*
X2700000Y-70938000D02*
X2700000Y-73025000D01*
X2700000Y-73025000D02*
X4750000Y-75075000D01*
%TO.N,SCL*%
X36193000Y-31611000D02*
X36193000Y-30443000D01*
X35525000Y-29775000D02*
X33750000Y-29775000D01*
X36193000Y-30443000D02*
X35525000Y-29775000D01*
X33750000Y-29775000D02*
X33525000Y-29550000D01*
X33525000Y-29550000D02*
X8825000Y-29550000D01*
X8825000Y-29550000D02*
X8500000Y-29225000D01*
X5890001Y-22120001D02*
X4640000Y-20870000D01*
X5890001Y-27265001D02*
X5890001Y-22120001D01*
X7850000Y-29225000D02*
X5890001Y-27265001D01*
X8500000Y-29225000D02*
X7850000Y-29225000D01*
X4640000Y-20870000D02*
X3270000Y-20870000D01*
X3270000Y-20870000D02*
X3000000Y-20600000D01*
X5360000Y-3860000D02*
X3750000Y-2250000D01*
X13290000Y-3860000D02*
X5360000Y-3860000D01*
X5520000Y-99140000D02*
X3590000Y-99140000D01*
X3590000Y-99140000D02*
X3525000Y-99075000D01*
X24750000Y-52850000D02*
X24350000Y-53250000D01*
X24350000Y-53250000D02*
X17650000Y-53250000D01*
X11078000Y-65100000D02*
X9483000Y-66695000D01*
X13450000Y-65100000D02*
X11078000Y-65100000D01*
X17650000Y-53250000D02*
X15775000Y-53250000D01*
X15775000Y-53250000D02*
X15475000Y-52950000D01*
X10753001Y-71896999D02*
X10750000Y-71900000D01*
X9483000Y-66695000D02*
X10753001Y-67965001D01*
X10753001Y-67965001D02*
X10753001Y-71896999D01*
X28530001Y-41469999D02*
X32244999Y-41469999D01*
X27280000Y-42720000D02*
X28530001Y-41469999D01*
X32244999Y-41469999D02*
X33275000Y-42500000D01*
X33275000Y-42500000D02*
X35800000Y-42500000D01*
D31*
%TO.N,VIN_DCDC*%
X25908000Y-94742000D02*
X35128000Y-94742000D01*
X35128000Y-94742000D02*
X35720000Y-94150000D01*
X24991000Y-95659000D02*
X25908000Y-94742000D01*
X16597000Y-95659000D02*
X24991000Y-95659000D01*
%TO.N,VOUT_DCDC*%
X43710000Y-92710000D02*
X43820000Y-92820000D01*
X22290000Y-103800000D02*
X29000000Y-103800000D01*
X38400000Y-101210000D02*
X38620000Y-100990000D01*
X29270000Y-101210000D02*
X38400000Y-101210000D01*
X22080000Y-99740000D02*
X22180000Y-99640000D01*
X11540000Y-99740000D02*
X22080000Y-99740000D01*
X29000000Y-103800000D02*
X29050000Y-103750000D01*
X38680000Y-92710000D02*
X43710000Y-92710000D01*
D32*
%TO.N,TX_D1*%
X4640000Y-31030000D02*
X4640000Y-32235000D01*
X4640000Y-32235000D02*
X3278248Y-33596752D01*
X7562000Y-44500000D02*
X9473000Y-46411000D01*
X7169000Y-44694000D02*
X7756000Y-44694000D01*
X5250000Y-42775000D02*
X7169000Y-44694000D01*
X7756000Y-44694000D02*
X9473000Y-46411000D01*
%TO.N,RX_D0*%
X4640000Y-28490000D02*
X5840000Y-28490000D01*
X5840000Y-28490000D02*
X6850000Y-29500000D01*
X6850000Y-29500000D02*
X6850000Y-30800000D01*
X6850000Y-30800000D02*
X7425000Y-31375000D01*
X7425000Y-31375000D02*
X8825000Y-31375000D01*
%TO.N,MOSI*%
X26050000Y-35280000D02*
X24420000Y-33650000D01*
X24420000Y-33650000D02*
X17400000Y-33650000D01*
X17400000Y-33650000D02*
X17150000Y-33900000D01*
%TO.N,A5*%
X48210000Y-37150000D02*
X48210000Y-35912564D01*
X46747435Y-34449999D02*
X42425001Y-34449999D01*
X48210000Y-35912564D02*
X46747435Y-34449999D01*
X38575000Y-48125000D02*
X37975000Y-48725000D01*
X37975000Y-48725000D02*
X34875000Y-48725000D01*
X34875000Y-48725000D02*
X34150000Y-48000000D01*
X23762000Y-48000000D02*
X22173000Y-46411000D01*
X34150000Y-48000000D02*
X23762000Y-48000000D01*
X19817000Y-48767000D02*
X19817000Y-49539000D01*
X22173000Y-46411000D02*
X19817000Y-48767000D01*
X42425001Y-34449999D02*
X42425001Y-35649999D01*
X42425001Y-35649999D02*
X41775000Y-36300000D01*
X41775000Y-36300000D02*
X40075000Y-36300000D01*
%TO.N,A4*%
X43250000Y-28825000D02*
X44175000Y-27900000D01*
X47330000Y-27900000D02*
X48250000Y-26980000D01*
X44175000Y-27900000D02*
X47330000Y-27900000D01*
X42750000Y-44425000D02*
X42375000Y-44800000D01*
X42014001Y-45160999D02*
X42750000Y-44425000D01*
X25963001Y-45160999D02*
X42014001Y-45160999D01*
X24713000Y-46411000D02*
X25963001Y-45160999D01*
%TO.N,A3*%
X28775000Y-52800000D02*
X27275000Y-54300000D01*
X27275000Y-54300000D02*
X10675000Y-54300000D01*
X10675000Y-54300000D02*
X10350000Y-54625000D01*
X10350000Y-54625000D02*
X2700000Y-54625000D01*
X2700000Y-54625000D02*
X1700000Y-53625000D01*
X2550002Y-47050000D02*
X1300001Y-48300001D01*
X3313998Y-47050000D02*
X2550002Y-47050000D01*
X3313998Y-47050000D02*
X3313998Y-47036002D01*
X3313998Y-47036002D02*
X4150000Y-46200000D01*
X2055000Y-36675000D02*
X1750000Y-36370000D01*
X4225000Y-36675000D02*
X2055000Y-36675000D01*
X27450000Y-75350000D02*
X28575000Y-76475000D01*
X28575000Y-76475000D02*
X40275000Y-76475000D01*
X40275000Y-76475000D02*
X41450000Y-75300000D01*
X42625000Y-63325000D02*
X41900000Y-62600000D01*
X41900000Y-62600000D02*
X38068001Y-62600000D01*
X38068001Y-62600000D02*
X37893001Y-62425000D01*
X36325000Y-59050000D02*
X31550000Y-59050000D01*
X31550000Y-59050000D02*
X29000000Y-59050000D01*
X29000000Y-59050000D02*
X28425000Y-58475000D01*
%TO.N,A2*%
X27075000Y-44300000D02*
X24075000Y-44300000D01*
X24075000Y-44300000D02*
X23837500Y-44062500D01*
%TO.N,A1*%
X33025010Y-48800000D02*
X32325010Y-49500000D01*
X32325010Y-49500000D02*
X29875000Y-49500000D01*
X29875000Y-49500000D02*
X28100000Y-51275000D01*
X28100000Y-51275000D02*
X22275000Y-51275000D01*
X22275000Y-51275000D02*
X21525000Y-50525000D01*
X25650000Y-57350000D02*
X22050000Y-57350000D01*
X22050000Y-57350000D02*
X21775000Y-57075000D01*
X30715000Y-68875000D02*
X32363000Y-70523000D01*
X26350000Y-68875000D02*
X30715000Y-68875000D01*
%TO.N,A0*%
X2690000Y-49500000D02*
X2650000Y-49540000D01*
X7650000Y-49500000D02*
X2690000Y-49500000D01*
X9575000Y-44300000D02*
X9500000Y-44225000D01*
X12175000Y-44300000D02*
X9575000Y-44300000D01*
X33350000Y-37550000D02*
X13625000Y-37550000D01*
X13625000Y-37550000D02*
X13000000Y-38175000D01*
%TO.N,AREF*%
X41325000Y-52450000D02*
X40925001Y-52849999D01*
X40925001Y-56325001D02*
X40925001Y-56225001D01*
X41925000Y-57325000D02*
X40925001Y-56325001D01*
X40925001Y-52849999D02*
X40925001Y-56225001D01*
%TO.N,~RESET*%
X49725000Y-91675000D02*
X39650000Y-91675000D01*
X39650000Y-91675000D02*
X39600000Y-91625000D01*
X39600000Y-91625000D02*
X38000000Y-91625000D01*
X38000000Y-91625000D02*
X37125000Y-90750000D01*
X36200000Y-69200000D02*
X36700000Y-68700000D01*
X36700000Y-68700000D02*
X36700000Y-68675000D01*
X36700000Y-68675000D02*
X37225000Y-68150000D01*
X37225000Y-68150000D02*
X43425000Y-68150000D01*
X43725000Y-62500000D02*
X45250000Y-60975000D01*
X45250000Y-60975000D02*
X47725000Y-60975000D01*
X48075000Y-47050000D02*
X47300000Y-46275000D01*
X45169000Y-46275000D02*
X45033000Y-46411000D01*
X47300000Y-46275000D02*
X45169000Y-46275000D01*
D31*
%TO.N,VBAT*%
X16650000Y-80400000D02*
X18870000Y-80400000D01*
X18870000Y-80400000D02*
X18890000Y-80420000D01*
X18930000Y-83750000D02*
X34710000Y-83750000D01*
X34710000Y-83750000D02*
X34850000Y-83890000D01*
X50570000Y-66695000D02*
X50775000Y-66900000D01*
X34885000Y-83925000D02*
X34850000Y-83890000D01*
X50950000Y-83925000D02*
X34885000Y-83925000D01*
X34883000Y-66695000D02*
X45170000Y-66695000D01*
X43800000Y-44725000D02*
X46300000Y-44725000D01*
X46300000Y-44725000D02*
X46675000Y-45100000D01*
X45170000Y-66695000D02*
X46820000Y-66695000D01*
X46820000Y-66695000D02*
X50570000Y-66695000D01*
X48250000Y-23950000D02*
X50870000Y-23950000D01*
X50870000Y-23950000D02*
X51070000Y-24150000D01*
X44400000Y-29800000D02*
X43975000Y-30225000D01*
X51070000Y-29800000D02*
X44400000Y-29800000D01*
%TO.N,VBUS*%
X29930000Y-81950000D02*
X43720000Y-81950000D01*
X43720000Y-81950000D02*
X43770000Y-81900000D01*
X29850000Y-60025000D02*
X49900000Y-60025000D01*
X49900000Y-60025000D02*
X50175000Y-60300000D01*
X49725000Y-71450000D02*
X46700000Y-71450000D01*
X46700000Y-71450000D02*
X46575000Y-71575000D01*
X43870000Y-81800000D02*
X43770000Y-81900000D01*
X46150000Y-81800000D02*
X43870000Y-81800000D01*
D32*
%TO.N,D9*%
X17750000Y-75375000D02*
X18900000Y-76525000D01*
X20725000Y-76525000D02*
X21300000Y-75950000D01*
X18900000Y-76525000D02*
X20725000Y-76525000D01*
X21300000Y-75950000D02*
X24500000Y-75950000D01*
X24500000Y-75950000D02*
X25750000Y-77200000D01*
X26260000Y-86200000D02*
X25335000Y-87125000D01*
X25335000Y-87125000D02*
X18550000Y-87125000D01*
X18550000Y-87125000D02*
X17200000Y-88475000D01*
%TO.N,D5*%
X14450000Y-74375000D02*
X31975000Y-74375000D01*
X31975000Y-74375000D02*
X32025000Y-74425000D01*
X32725000Y-44125000D02*
X28875000Y-44125000D01*
X28875000Y-44125000D02*
X28675000Y-43925000D01*
%TO.N,D6*%
X31250000Y-52130000D02*
X33655000Y-52130000D01*
X33655000Y-52130000D02*
X34700000Y-53175000D01*
X32575000Y-64650000D02*
X35125000Y-64650000D01*
X35125000Y-64650000D02*
X35500000Y-64275000D01*
X15818000Y-67950000D02*
X14563000Y-66695000D01*
X30900000Y-67950000D02*
X15818000Y-67950000D01*
D31*
%TO.N,POWER_1*%
X21300000Y-78490000D02*
X27885000Y-78490000D01*
X27885000Y-78490000D02*
X27900000Y-78475000D01*
X39275000Y-39325000D02*
X38825000Y-38875000D01*
X51125000Y-69350000D02*
X51125000Y-68650000D01*
X50600000Y-78525000D02*
X51175000Y-77950000D01*
X31675000Y-78525000D02*
X50600000Y-78525000D01*
X51175000Y-77950000D02*
X51175000Y-69400000D01*
X50600000Y-68125000D02*
X46375000Y-68125000D01*
X51175000Y-69400000D02*
X51125000Y-69350000D01*
X51125000Y-68650000D02*
X50600000Y-68125000D01*
X4640000Y-23410000D02*
X2840000Y-23410000D01*
X2840000Y-23410000D02*
X2825000Y-23425000D01*
X10075000Y-33875000D02*
X10150000Y-33950000D01*
X9850000Y-33650000D02*
X10150000Y-33950000D01*
X5175000Y-33650000D02*
X9850000Y-33650000D01*
X39275000Y-39325000D02*
X46250000Y-39325000D01*
X46547806Y-39325000D02*
X47222806Y-40000000D01*
X46250000Y-39325000D02*
X46547806Y-39325000D01*
X47222806Y-40000000D02*
X49575000Y-40000000D01*
X49575000Y-40000000D02*
X49900000Y-40325000D01*
X49825000Y-58475000D02*
X45000000Y-58475000D01*
X45000000Y-58475000D02*
X44900000Y-58575000D01*
X46325000Y-68075000D02*
X46375000Y-68125000D01*
X44950000Y-68075000D02*
X46325000Y-68075000D01*
X37119000Y-33225000D02*
X38733000Y-31611000D01*
X10250000Y-31175000D02*
X15375000Y-31175000D01*
X25574998Y-33225000D02*
X37119000Y-33225000D01*
X15475000Y-31275000D02*
X22925000Y-31275000D01*
X23350002Y-31700002D02*
X24050000Y-31700002D01*
X15375000Y-31175000D02*
X15475000Y-31275000D01*
X22925000Y-31275000D02*
X23350002Y-31700002D01*
X24050000Y-31700002D02*
X25574998Y-33225000D01*
%TO.N,POWER_2*%
X42375000Y-55725000D02*
X42025000Y-56075000D01*
X49425000Y-55725000D02*
X42375000Y-55725000D01*
X49450000Y-55700000D02*
X49425000Y-55725000D01*
X51000000Y-55700000D02*
X49450000Y-55700000D01*
D32*
X31250000Y-54670000D02*
X38505000Y-54670000D01*
X38505000Y-54670000D02*
X38525000Y-54650000D01*
D31*
X35050000Y-38880000D02*
X34910000Y-39020000D01*
X50650000Y-38825000D02*
X47350000Y-38825000D01*
X51075000Y-39250000D02*
X50650000Y-38825000D01*
X35050000Y-37275000D02*
X35050000Y-38880000D01*
X47350000Y-38825000D02*
X46525000Y-38000000D01*
X46525000Y-38000000D02*
X42950000Y-38000000D01*
X42950000Y-38000000D02*
X42225000Y-37275000D01*
X42225000Y-37275000D02*
X35050000Y-37275000D01*
D32*
%TO.N,Net-(J19-Pad2)*%
X1890000Y-39050000D02*
X1750000Y-38910000D01*
X4975000Y-59800000D02*
X4875000Y-59700000D01*
X5100000Y-59800000D02*
X4975000Y-59800000D01*
X27275000Y-59800000D02*
X5100000Y-59800000D01*
X4975000Y-59800000D02*
X4400000Y-59225000D01*
D31*
%TO.N,Net-(D2-Pad2)*%
X35940000Y-3680000D02*
X35940000Y-3365000D01*
D32*
X35940000Y-3680000D02*
X37145000Y-3680000D01*
X37145000Y-3680000D02*
X38500000Y-2325000D01*
X38500000Y-2325000D02*
X43200000Y-2325000D01*
X43200000Y-2325000D02*
X43975000Y-3100000D01*
X48325000Y-80025000D02*
X41625000Y-80025000D01*
X41625000Y-80025000D02*
X41325000Y-79725000D01*
X48750000Y-80450000D02*
X48325000Y-80025000D01*
X35800001Y-50075000D02*
X36300001Y-49575000D01*
X32975000Y-50075000D02*
X35800001Y-50075000D01*
X32950000Y-50100000D02*
X32975000Y-50075000D01*
X30290998Y-50100000D02*
X32950000Y-50100000D01*
X28140998Y-52000000D02*
X28265998Y-52125000D01*
X28265998Y-52125000D02*
X30290998Y-50100000D01*
X8315000Y-53475000D02*
X8280000Y-53440000D01*
X25134001Y-52049999D02*
X12475001Y-52049999D01*
X25209002Y-52125000D02*
X25134001Y-52049999D01*
X28265998Y-52125000D02*
X25209002Y-52125000D01*
X12475001Y-52049999D02*
X11050000Y-53475000D01*
X11050000Y-53475000D02*
X8315000Y-53475000D01*
X44950000Y-30875000D02*
X41725000Y-34100000D01*
X41725000Y-34100000D02*
X37850000Y-34100000D01*
%TO.N,Net-(Q3-Pad2)*%
X2665000Y-62225000D02*
X2650000Y-62240000D01*
X5125000Y-62225000D02*
X2665000Y-62225000D01*
%TD*%
M02*
