%TF.GenerationSoftware,KiCad,Pcbnew,5.1.12-84ad8e8a86~92~ubuntu18.04.1*%
%TF.CreationDate,2022-01-08T13:07:40-05:00*%
%TF.ProjectId,remote,72656d6f-7465-42e6-9b69-6361645f7063,rev?*%
%TF.SameCoordinates,Original*%
%TF.FileFunction,Legend,Bot*%
%TF.FilePolarity,Positive*%
%FSLAX46Y46*%
G04 Gerber Fmt 4.6, Leading zero omitted, Abs format (unit mm)*
G04 Created by KiCad (PCBNEW 5.1.12-84ad8e8a86~92~ubuntu18.04.1) date 2022-01-08 13:07:40*
%MOMM*%
%LPD*%
G01*
G04 APERTURE LIST*
%ADD10C,0.150000*%
%ADD11C,0.120000*%
%ADD12C,0.500000*%
%ADD13C,0.300000*%
%ADD14C,0.200000*%
G04 APERTURE END LIST*
D10*
X80179880Y-143301190D02*
X79994166Y-143363095D01*
X79684642Y-143363095D01*
X79560833Y-143301190D01*
X79498928Y-143239285D01*
X79437023Y-143115476D01*
X79437023Y-142991666D01*
X79498928Y-142867857D01*
X79560833Y-142805952D01*
X79684642Y-142744047D01*
X79932261Y-142682142D01*
X80056071Y-142620238D01*
X80117976Y-142558333D01*
X80179880Y-142434523D01*
X80179880Y-142310714D01*
X80117976Y-142186904D01*
X80056071Y-142125000D01*
X79932261Y-142063095D01*
X79622738Y-142063095D01*
X79437023Y-142125000D01*
X79065595Y-142063095D02*
X78322738Y-142063095D01*
X78694166Y-143363095D02*
X78694166Y-142063095D01*
X77889404Y-142682142D02*
X77456071Y-142682142D01*
X77270357Y-143363095D02*
X77889404Y-143363095D01*
X77889404Y-142063095D01*
X77270357Y-142063095D01*
X76713214Y-143363095D02*
X76713214Y-142063095D01*
X76279880Y-142991666D01*
X75846547Y-142063095D01*
X75846547Y-143363095D01*
X75227500Y-143363095D02*
X75227500Y-142063095D01*
X74794166Y-142991666D01*
X74360833Y-142063095D01*
X74360833Y-143363095D01*
X73803690Y-142991666D02*
X73184642Y-142991666D01*
X73927500Y-143363095D02*
X73494166Y-142063095D01*
X73060833Y-143363095D01*
X80117976Y-145463095D02*
X80117976Y-144163095D01*
X79560833Y-144286904D02*
X79498928Y-144225000D01*
X79375119Y-144163095D01*
X79065595Y-144163095D01*
X78941785Y-144225000D01*
X78879880Y-144286904D01*
X78817976Y-144410714D01*
X78817976Y-144534523D01*
X78879880Y-144720238D01*
X79622738Y-145463095D01*
X78817976Y-145463095D01*
X77517976Y-145339285D02*
X77579880Y-145401190D01*
X77765595Y-145463095D01*
X77889404Y-145463095D01*
X78075119Y-145401190D01*
X78198928Y-145277380D01*
X78260833Y-145153571D01*
X78322738Y-144905952D01*
X78322738Y-144720238D01*
X78260833Y-144472619D01*
X78198928Y-144348809D01*
X78075119Y-144225000D01*
X77889404Y-144163095D01*
X77765595Y-144163095D01*
X77579880Y-144225000D01*
X77517976Y-144286904D01*
X111053571Y-61500000D02*
X111177380Y-61438095D01*
X111363095Y-61438095D01*
X111548809Y-61500000D01*
X111672619Y-61623809D01*
X111734523Y-61747619D01*
X111796428Y-61995238D01*
X111796428Y-62180952D01*
X111734523Y-62428571D01*
X111672619Y-62552380D01*
X111548809Y-62676190D01*
X111363095Y-62738095D01*
X111239285Y-62738095D01*
X111053571Y-62676190D01*
X110991666Y-62614285D01*
X110991666Y-62180952D01*
X111239285Y-62180952D01*
X110434523Y-62738095D02*
X110434523Y-61438095D01*
X109939285Y-61438095D01*
X109815476Y-61500000D01*
X109753571Y-61561904D01*
X109691666Y-61685714D01*
X109691666Y-61871428D01*
X109753571Y-61995238D01*
X109815476Y-62057142D01*
X109939285Y-62119047D01*
X110434523Y-62119047D01*
X109196428Y-62676190D02*
X109010714Y-62738095D01*
X108701190Y-62738095D01*
X108577380Y-62676190D01*
X108515476Y-62614285D01*
X108453571Y-62490476D01*
X108453571Y-62366666D01*
X108515476Y-62242857D01*
X108577380Y-62180952D01*
X108701190Y-62119047D01*
X108948809Y-62057142D01*
X109072619Y-61995238D01*
X109134523Y-61933333D01*
X109196428Y-61809523D01*
X109196428Y-61685714D01*
X109134523Y-61561904D01*
X109072619Y-61500000D01*
X108948809Y-61438095D01*
X108639285Y-61438095D01*
X108453571Y-61500000D01*
X87767857Y-62738095D02*
X88386904Y-62738095D01*
X88386904Y-61438095D01*
X87148809Y-62738095D02*
X87272619Y-62676190D01*
X87334523Y-62614285D01*
X87396428Y-62490476D01*
X87396428Y-62119047D01*
X87334523Y-61995238D01*
X87272619Y-61933333D01*
X87148809Y-61871428D01*
X86963095Y-61871428D01*
X86839285Y-61933333D01*
X86777380Y-61995238D01*
X86715476Y-62119047D01*
X86715476Y-62490476D01*
X86777380Y-62614285D01*
X86839285Y-62676190D01*
X86963095Y-62738095D01*
X87148809Y-62738095D01*
X85415476Y-62738095D02*
X85848809Y-62119047D01*
X86158333Y-62738095D02*
X86158333Y-61438095D01*
X85663095Y-61438095D01*
X85539285Y-61500000D01*
X85477380Y-61561904D01*
X85415476Y-61685714D01*
X85415476Y-61871428D01*
X85477380Y-61995238D01*
X85539285Y-62057142D01*
X85663095Y-62119047D01*
X86158333Y-62119047D01*
X84920238Y-62366666D02*
X84301190Y-62366666D01*
X85044047Y-62738095D02*
X84610714Y-61438095D01*
X84177380Y-62738095D01*
X123346428Y-142971428D02*
X123346428Y-143838095D01*
X123903571Y-142971428D02*
X123903571Y-143652380D01*
X123841666Y-143776190D01*
X123717857Y-143838095D01*
X123532142Y-143838095D01*
X123408333Y-143776190D01*
X123346428Y-143714285D01*
X122727380Y-142538095D02*
X122727380Y-143590476D01*
X122665476Y-143714285D01*
X122603571Y-143776190D01*
X122479761Y-143838095D01*
X122232142Y-143838095D01*
X122108333Y-143776190D01*
X122046428Y-143714285D01*
X121984523Y-143590476D01*
X121984523Y-142538095D01*
X121427380Y-143776190D02*
X121241666Y-143838095D01*
X120932142Y-143838095D01*
X120808333Y-143776190D01*
X120746428Y-143714285D01*
X120684523Y-143590476D01*
X120684523Y-143466666D01*
X120746428Y-143342857D01*
X120808333Y-143280952D01*
X120932142Y-143219047D01*
X121179761Y-143157142D01*
X121303571Y-143095238D01*
X121365476Y-143033333D01*
X121427380Y-142909523D01*
X121427380Y-142785714D01*
X121365476Y-142661904D01*
X121303571Y-142600000D01*
X121179761Y-142538095D01*
X120870238Y-142538095D01*
X120684523Y-142600000D01*
X119694047Y-143157142D02*
X119508333Y-143219047D01*
X119446428Y-143280952D01*
X119384523Y-143404761D01*
X119384523Y-143590476D01*
X119446428Y-143714285D01*
X119508333Y-143776190D01*
X119632142Y-143838095D01*
X120127380Y-143838095D01*
X120127380Y-142538095D01*
X119694047Y-142538095D01*
X119570238Y-142600000D01*
X119508333Y-142661904D01*
X119446428Y-142785714D01*
X119446428Y-142909523D01*
X119508333Y-143033333D01*
X119570238Y-143095238D01*
X119694047Y-143157142D01*
X120127380Y-143157142D01*
D11*
X124350000Y-116450000D02*
X120625000Y-116450000D01*
D12*
X105075000Y-93000000D02*
X104575000Y-93550000D01*
X105075000Y-94000000D02*
X104575000Y-93550000D01*
D11*
X106275001Y-93550000D02*
G75*
G03*
X106275001Y-93550000I-1767767J0D01*
G01*
D10*
X87592857Y-93253571D02*
X87235714Y-94253571D01*
X86878571Y-93253571D01*
X86021428Y-92753571D02*
X85878571Y-92753571D01*
X85735714Y-92825000D01*
X85664285Y-92896428D01*
X85592857Y-93039285D01*
X85521428Y-93325000D01*
X85521428Y-93682142D01*
X85592857Y-93967857D01*
X85664285Y-94110714D01*
X85735714Y-94182142D01*
X85878571Y-94253571D01*
X86021428Y-94253571D01*
X86164285Y-94182142D01*
X86235714Y-94110714D01*
X86307142Y-93967857D01*
X86378571Y-93682142D01*
X86378571Y-93325000D01*
X86307142Y-93039285D01*
X86235714Y-92896428D01*
X86164285Y-92825000D01*
X86021428Y-92753571D01*
X84878571Y-94110714D02*
X84807142Y-94182142D01*
X84878571Y-94253571D01*
X84950000Y-94182142D01*
X84878571Y-94110714D01*
X84878571Y-94253571D01*
X83378571Y-94253571D02*
X84235714Y-94253571D01*
X83807142Y-94253571D02*
X83807142Y-92753571D01*
X83950000Y-92967857D01*
X84092857Y-93110714D01*
X84235714Y-93182142D01*
D12*
X104575000Y-94550000D02*
X103575000Y-93550000D01*
X104475000Y-92550000D02*
X103575000Y-93550000D01*
D13*
X101359523Y-93164285D02*
X100407142Y-93164285D01*
X101002380Y-92330952D02*
X101002380Y-94473809D01*
X100883333Y-94711904D01*
X100645238Y-94830952D01*
X100407142Y-94830952D01*
X99573809Y-94830952D02*
X99573809Y-93164285D01*
X99573809Y-93640476D02*
X99454761Y-93402380D01*
X99335714Y-93283333D01*
X99097619Y-93164285D01*
X98859523Y-93164285D01*
X96954761Y-94830952D02*
X96954761Y-93521428D01*
X97073809Y-93283333D01*
X97311904Y-93164285D01*
X97788095Y-93164285D01*
X98026190Y-93283333D01*
X96954761Y-94711904D02*
X97192857Y-94830952D01*
X97788095Y-94830952D01*
X98026190Y-94711904D01*
X98145238Y-94473809D01*
X98145238Y-94235714D01*
X98026190Y-93997619D01*
X97788095Y-93878571D01*
X97192857Y-93878571D01*
X96954761Y-93759523D01*
X94692857Y-94711904D02*
X94930952Y-94830952D01*
X95407142Y-94830952D01*
X95645238Y-94711904D01*
X95764285Y-94592857D01*
X95883333Y-94354761D01*
X95883333Y-93640476D01*
X95764285Y-93402380D01*
X95645238Y-93283333D01*
X95407142Y-93164285D01*
X94930952Y-93164285D01*
X94692857Y-93283333D01*
X93621428Y-94830952D02*
X93621428Y-92330952D01*
X93383333Y-93878571D02*
X92669047Y-94830952D01*
X92669047Y-93164285D02*
X93621428Y-94116666D01*
X90645238Y-94711904D02*
X90883333Y-94830952D01*
X91359523Y-94830952D01*
X91597619Y-94711904D01*
X91716666Y-94473809D01*
X91716666Y-93521428D01*
X91597619Y-93283333D01*
X91359523Y-93164285D01*
X90883333Y-93164285D01*
X90645238Y-93283333D01*
X90526190Y-93521428D01*
X90526190Y-93759523D01*
X91716666Y-93997619D01*
X89454761Y-94830952D02*
X89454761Y-93164285D01*
X89454761Y-93640476D02*
X89335714Y-93402380D01*
X89216666Y-93283333D01*
X88978571Y-93164285D01*
X88740476Y-93164285D01*
D14*
X104405952Y-97460714D02*
X104405952Y-99160714D01*
X104405952Y-97541666D02*
X104244047Y-97460714D01*
X103920238Y-97460714D01*
X103758333Y-97541666D01*
X103677380Y-97622619D01*
X103596428Y-97784523D01*
X103596428Y-98270238D01*
X103677380Y-98432142D01*
X103758333Y-98513095D01*
X103920238Y-98594047D01*
X104244047Y-98594047D01*
X104405952Y-98513095D01*
X103029761Y-97460714D02*
X102625000Y-98594047D01*
X102220238Y-97460714D01*
X101329761Y-98594047D02*
X101491666Y-98513095D01*
X101572619Y-98432142D01*
X101653571Y-98270238D01*
X101653571Y-97784523D01*
X101572619Y-97622619D01*
X101491666Y-97541666D01*
X101329761Y-97460714D01*
X101086904Y-97460714D01*
X100925000Y-97541666D01*
X100844047Y-97622619D01*
X100763095Y-97784523D01*
X100763095Y-98270238D01*
X100844047Y-98432142D01*
X100925000Y-98513095D01*
X101086904Y-98594047D01*
X101329761Y-98594047D01*
X100115476Y-98513095D02*
X99953571Y-98594047D01*
X99629761Y-98594047D01*
X99467857Y-98513095D01*
X99386904Y-98351190D01*
X99386904Y-98270238D01*
X99467857Y-98108333D01*
X99629761Y-98027380D01*
X99872619Y-98027380D01*
X100034523Y-97946428D01*
X100115476Y-97784523D01*
X100115476Y-97703571D01*
X100034523Y-97541666D01*
X99872619Y-97460714D01*
X99629761Y-97460714D01*
X99467857Y-97541666D01*
X98658333Y-98432142D02*
X98577380Y-98513095D01*
X98658333Y-98594047D01*
X98739285Y-98513095D01*
X98658333Y-98432142D01*
X98658333Y-98594047D01*
X97605952Y-98594047D02*
X97767857Y-98513095D01*
X97848809Y-98432142D01*
X97929761Y-98270238D01*
X97929761Y-97784523D01*
X97848809Y-97622619D01*
X97767857Y-97541666D01*
X97605952Y-97460714D01*
X97363095Y-97460714D01*
X97201190Y-97541666D01*
X97120238Y-97622619D01*
X97039285Y-97784523D01*
X97039285Y-98270238D01*
X97120238Y-98432142D01*
X97201190Y-98513095D01*
X97363095Y-98594047D01*
X97605952Y-98594047D01*
X96310714Y-98594047D02*
X96310714Y-97460714D01*
X96310714Y-97784523D02*
X96229761Y-97622619D01*
X96148809Y-97541666D01*
X95986904Y-97460714D01*
X95825000Y-97460714D01*
X94529761Y-97460714D02*
X94529761Y-98836904D01*
X94610714Y-98998809D01*
X94691666Y-99079761D01*
X94853571Y-99160714D01*
X95096428Y-99160714D01*
X95258333Y-99079761D01*
X94529761Y-98513095D02*
X94691666Y-98594047D01*
X95015476Y-98594047D01*
X95177380Y-98513095D01*
X95258333Y-98432142D01*
X95339285Y-98270238D01*
X95339285Y-97784523D01*
X95258333Y-97622619D01*
X95177380Y-97541666D01*
X95015476Y-97460714D01*
X94691666Y-97460714D01*
X94529761Y-97541666D01*
X92505952Y-96813095D02*
X93963095Y-98998809D01*
X92182142Y-97460714D02*
X91534523Y-97460714D01*
X91939285Y-96894047D02*
X91939285Y-98351190D01*
X91858333Y-98513095D01*
X91696428Y-98594047D01*
X91534523Y-98594047D01*
X90967857Y-98594047D02*
X90967857Y-97460714D01*
X90967857Y-97784523D02*
X90886904Y-97622619D01*
X90805952Y-97541666D01*
X90644047Y-97460714D01*
X90482142Y-97460714D01*
X89186904Y-98594047D02*
X89186904Y-97703571D01*
X89267857Y-97541666D01*
X89429761Y-97460714D01*
X89753571Y-97460714D01*
X89915476Y-97541666D01*
X89186904Y-98513095D02*
X89348809Y-98594047D01*
X89753571Y-98594047D01*
X89915476Y-98513095D01*
X89996428Y-98351190D01*
X89996428Y-98189285D01*
X89915476Y-98027380D01*
X89753571Y-97946428D01*
X89348809Y-97946428D01*
X89186904Y-97865476D01*
X87648809Y-98513095D02*
X87810714Y-98594047D01*
X88134523Y-98594047D01*
X88296428Y-98513095D01*
X88377380Y-98432142D01*
X88458333Y-98270238D01*
X88458333Y-97784523D01*
X88377380Y-97622619D01*
X88296428Y-97541666D01*
X88134523Y-97460714D01*
X87810714Y-97460714D01*
X87648809Y-97541666D01*
X86920238Y-98594047D02*
X86920238Y-96894047D01*
X86758333Y-97946428D02*
X86272619Y-98594047D01*
X86272619Y-97460714D02*
X86920238Y-98108333D01*
X84896428Y-98513095D02*
X85058333Y-98594047D01*
X85382142Y-98594047D01*
X85544047Y-98513095D01*
X85625000Y-98351190D01*
X85625000Y-97703571D01*
X85544047Y-97541666D01*
X85382142Y-97460714D01*
X85058333Y-97460714D01*
X84896428Y-97541666D01*
X84815476Y-97703571D01*
X84815476Y-97865476D01*
X85625000Y-98027380D01*
X84086904Y-98594047D02*
X84086904Y-97460714D01*
X84086904Y-97784523D02*
X84005952Y-97622619D01*
X83925000Y-97541666D01*
X83763095Y-97460714D01*
X83601190Y-97460714D01*
D10*
X103290476Y-160338095D02*
X103909523Y-160338095D01*
X103909523Y-159038095D01*
X102609523Y-159038095D02*
X102361904Y-159038095D01*
X102238095Y-159100000D01*
X102114285Y-159223809D01*
X102052380Y-159471428D01*
X102052380Y-159904761D01*
X102114285Y-160152380D01*
X102238095Y-160276190D01*
X102361904Y-160338095D01*
X102609523Y-160338095D01*
X102733333Y-160276190D01*
X102857142Y-160152380D01*
X102919047Y-159904761D01*
X102919047Y-159471428D01*
X102857142Y-159223809D01*
X102733333Y-159100000D01*
X102609523Y-159038095D01*
X100814285Y-159100000D02*
X100938095Y-159038095D01*
X101123809Y-159038095D01*
X101309523Y-159100000D01*
X101433333Y-159223809D01*
X101495238Y-159347619D01*
X101557142Y-159595238D01*
X101557142Y-159780952D01*
X101495238Y-160028571D01*
X101433333Y-160152380D01*
X101309523Y-160276190D01*
X101123809Y-160338095D01*
X101000000Y-160338095D01*
X100814285Y-160276190D01*
X100752380Y-160214285D01*
X100752380Y-159780952D01*
X101000000Y-159780952D01*
X99266666Y-158976190D02*
X100380952Y-160647619D01*
X98833333Y-160338095D02*
X98833333Y-159038095D01*
X98338095Y-159038095D01*
X98214285Y-159100000D01*
X98152380Y-159161904D01*
X98090476Y-159285714D01*
X98090476Y-159471428D01*
X98152380Y-159595238D01*
X98214285Y-159657142D01*
X98338095Y-159719047D01*
X98833333Y-159719047D01*
X96790476Y-160338095D02*
X97223809Y-159719047D01*
X97533333Y-160338095D02*
X97533333Y-159038095D01*
X97038095Y-159038095D01*
X96914285Y-159100000D01*
X96852380Y-159161904D01*
X96790476Y-159285714D01*
X96790476Y-159471428D01*
X96852380Y-159595238D01*
X96914285Y-159657142D01*
X97038095Y-159719047D01*
X97533333Y-159719047D01*
X95985714Y-159038095D02*
X95738095Y-159038095D01*
X95614285Y-159100000D01*
X95490476Y-159223809D01*
X95428571Y-159471428D01*
X95428571Y-159904761D01*
X95490476Y-160152380D01*
X95614285Y-160276190D01*
X95738095Y-160338095D01*
X95985714Y-160338095D01*
X96109523Y-160276190D01*
X96233333Y-160152380D01*
X96295238Y-159904761D01*
X96295238Y-159471428D01*
X96233333Y-159223809D01*
X96109523Y-159100000D01*
X95985714Y-159038095D01*
X94190476Y-159100000D02*
X94314285Y-159038095D01*
X94500000Y-159038095D01*
X94685714Y-159100000D01*
X94809523Y-159223809D01*
X94871428Y-159347619D01*
X94933333Y-159595238D01*
X94933333Y-159780952D01*
X94871428Y-160028571D01*
X94809523Y-160152380D01*
X94685714Y-160276190D01*
X94500000Y-160338095D01*
X94376190Y-160338095D01*
X94190476Y-160276190D01*
X94128571Y-160214285D01*
X94128571Y-159780952D01*
X94376190Y-159780952D01*
X121179761Y-72700000D02*
X120227380Y-72700000D01*
X121370237Y-73214285D02*
X120703571Y-71414285D01*
X120036904Y-73214285D01*
X120432142Y-86971428D02*
X120146428Y-87057142D01*
X120051190Y-87142857D01*
X119955952Y-87314285D01*
X119955952Y-87571428D01*
X120051190Y-87742857D01*
X120146428Y-87828571D01*
X120336904Y-87914285D01*
X121098809Y-87914285D01*
X121098809Y-86114285D01*
X120432142Y-86114285D01*
X120241666Y-86200000D01*
X120146428Y-86285714D01*
X120051190Y-86457142D01*
X120051190Y-86628571D01*
X120146428Y-86800000D01*
X120241666Y-86885714D01*
X120432142Y-86971428D01*
X121098809Y-86971428D01*
X119955952Y-98014285D02*
X120051190Y-98109523D01*
X120336904Y-98204761D01*
X120527380Y-98204761D01*
X120813095Y-98109523D01*
X121003571Y-97919047D01*
X121098809Y-97728571D01*
X121194047Y-97347619D01*
X121194047Y-97061904D01*
X121098809Y-96680952D01*
X121003571Y-96490476D01*
X120813095Y-96300000D01*
X120527380Y-96204761D01*
X120336904Y-96204761D01*
X120051190Y-96300000D01*
X119955952Y-96395238D01*
D14*
X123614285Y-117614285D02*
X123271428Y-117614285D01*
X123100000Y-117700000D01*
X122928571Y-117871428D01*
X122842857Y-118214285D01*
X122842857Y-118814285D01*
X122928571Y-119157142D01*
X123100000Y-119328571D01*
X123271428Y-119414285D01*
X123614285Y-119414285D01*
X123785714Y-119328571D01*
X123957142Y-119157142D01*
X124042857Y-118814285D01*
X124042857Y-118214285D01*
X123957142Y-117871428D01*
X123785714Y-117700000D01*
X123614285Y-117614285D01*
X121471428Y-118471428D02*
X122071428Y-118471428D01*
X122071428Y-119414285D02*
X122071428Y-117614285D01*
X121214285Y-117614285D01*
X119928571Y-118471428D02*
X120528571Y-118471428D01*
X120528571Y-119414285D02*
X120528571Y-117614285D01*
X119671428Y-117614285D01*
X123714285Y-113464285D02*
X123371428Y-113464285D01*
X123200000Y-113550000D01*
X123028571Y-113721428D01*
X122942857Y-114064285D01*
X122942857Y-114664285D01*
X123028571Y-115007142D01*
X123200000Y-115178571D01*
X123371428Y-115264285D01*
X123714285Y-115264285D01*
X123885714Y-115178571D01*
X124057142Y-115007142D01*
X124142857Y-114664285D01*
X124142857Y-114064285D01*
X124057142Y-113721428D01*
X123885714Y-113550000D01*
X123714285Y-113464285D01*
X122171428Y-115264285D02*
X122171428Y-113464285D01*
X121142857Y-115264285D01*
X121142857Y-113464285D01*
D10*
X89013095Y-160338095D02*
X89446428Y-159719047D01*
X89755952Y-160338095D02*
X89755952Y-159038095D01*
X89260714Y-159038095D01*
X89136904Y-159100000D01*
X89075000Y-159161904D01*
X89013095Y-159285714D01*
X89013095Y-159471428D01*
X89075000Y-159595238D01*
X89136904Y-159657142D01*
X89260714Y-159719047D01*
X89755952Y-159719047D01*
X88455952Y-159657142D02*
X88022619Y-159657142D01*
X87836904Y-160338095D02*
X88455952Y-160338095D01*
X88455952Y-159038095D01*
X87836904Y-159038095D01*
X87341666Y-160276190D02*
X87155952Y-160338095D01*
X86846428Y-160338095D01*
X86722619Y-160276190D01*
X86660714Y-160214285D01*
X86598809Y-160090476D01*
X86598809Y-159966666D01*
X86660714Y-159842857D01*
X86722619Y-159780952D01*
X86846428Y-159719047D01*
X87094047Y-159657142D01*
X87217857Y-159595238D01*
X87279761Y-159533333D01*
X87341666Y-159409523D01*
X87341666Y-159285714D01*
X87279761Y-159161904D01*
X87217857Y-159100000D01*
X87094047Y-159038095D01*
X86784523Y-159038095D01*
X86598809Y-159100000D01*
X86041666Y-159657142D02*
X85608333Y-159657142D01*
X85422619Y-160338095D02*
X86041666Y-160338095D01*
X86041666Y-159038095D01*
X85422619Y-159038095D01*
X85051190Y-159038095D02*
X84308333Y-159038095D01*
X84679761Y-160338095D02*
X84679761Y-159038095D01*
X114469047Y-156288095D02*
X113664285Y-156288095D01*
X114097619Y-156783333D01*
X113911904Y-156783333D01*
X113788095Y-156845238D01*
X113726190Y-156907142D01*
X113664285Y-157030952D01*
X113664285Y-157340476D01*
X113726190Y-157464285D01*
X113788095Y-157526190D01*
X113911904Y-157588095D01*
X114283333Y-157588095D01*
X114407142Y-157526190D01*
X114469047Y-157464285D01*
X113107142Y-157464285D02*
X113045238Y-157526190D01*
X113107142Y-157588095D01*
X113169047Y-157526190D01*
X113107142Y-157464285D01*
X113107142Y-157588095D01*
X112611904Y-156288095D02*
X111745238Y-156288095D01*
X112302380Y-157588095D01*
X111435714Y-156288095D02*
X111002380Y-157588095D01*
X110569047Y-156288095D01*
M02*
