%TF.GenerationSoftware,KiCad,Pcbnew,5.1.12-84ad8e8a86~92~ubuntu18.04.1*%
%TF.CreationDate,2022-01-05T22:45:31-05:00*%
%TF.ProjectId,remote,72656d6f-7465-42e6-9b69-6361645f7063,rev?*%
%TF.SameCoordinates,Original*%
%TF.FileFunction,Copper,L2,Bot*%
%TF.FilePolarity,Positive*%
%FSLAX46Y46*%
G04 Gerber Fmt 4.6, Leading zero omitted, Abs format (unit mm)*
G04 Created by KiCad (PCBNEW 5.1.12-84ad8e8a86~92~ubuntu18.04.1) date 2022-01-05 22:45:31*
%MOMM*%
%LPD*%
G01*
G04 APERTURE LIST*
%TA.AperFunction,ComponentPad*%
%ADD10O,1.700000X1.700000*%
%TD*%
%TA.AperFunction,ComponentPad*%
%ADD11R,1.700000X1.700000*%
%TD*%
%TA.AperFunction,ComponentPad*%
%ADD12O,1.905000X2.000000*%
%TD*%
%TA.AperFunction,ComponentPad*%
%ADD13R,1.905000X2.000000*%
%TD*%
%TA.AperFunction,SMDPad,CuDef*%
%ADD14R,1.000000X1.500000*%
%TD*%
%TA.AperFunction,ComponentPad*%
%ADD15C,2.250000*%
%TD*%
%TA.AperFunction,ComponentPad*%
%ADD16C,2.050000*%
%TD*%
%TA.AperFunction,ComponentPad*%
%ADD17C,2.100000*%
%TD*%
%TA.AperFunction,ComponentPad*%
%ADD18C,1.750000*%
%TD*%
%TA.AperFunction,ComponentPad*%
%ADD19O,1.600000X1.600000*%
%TD*%
%TA.AperFunction,ComponentPad*%
%ADD20C,1.600000*%
%TD*%
%TA.AperFunction,ComponentPad*%
%ADD21C,5.400000*%
%TD*%
%TA.AperFunction,WasherPad*%
%ADD22C,5.400000*%
%TD*%
%TA.AperFunction,ComponentPad*%
%ADD23C,1.700000*%
%TD*%
%TA.AperFunction,ComponentPad*%
%ADD24R,1.500000X1.500000*%
%TD*%
%TA.AperFunction,ComponentPad*%
%ADD25C,1.500000*%
%TD*%
%TA.AperFunction,SMDPad,CuDef*%
%ADD26R,1.500000X1.000000*%
%TD*%
%TA.AperFunction,ComponentPad*%
%ADD27R,2.800000X2.800000*%
%TD*%
%TA.AperFunction,ComponentPad*%
%ADD28O,2.800000X2.800000*%
%TD*%
%TA.AperFunction,ViaPad*%
%ADD29C,0.800000*%
%TD*%
%TA.AperFunction,Conductor*%
%ADD30C,0.700000*%
%TD*%
%TA.AperFunction,Conductor*%
%ADD31C,0.400000*%
%TD*%
G04 APERTURE END LIST*
D10*
%TO.P,U2,28*%
%TO.N,N/C*%
X-24175720Y-46476920D03*
%TO.P,U2,27*%
%TO.N,TX_D1*%
X-21635720Y-46476920D03*
%TO.P,U2,26*%
%TO.N,RX_D0*%
X-19095720Y-46476920D03*
%TO.P,U2,25*%
%TO.N,MISO*%
X-16555720Y-46476920D03*
%TO.P,U2,24*%
%TO.N,MOSI*%
X-14015720Y-46476920D03*
%TO.P,U2,23*%
%TO.N,SCK*%
X-11475720Y-46476920D03*
%TO.P,U2,22*%
%TO.N,A5*%
X-8935720Y-46476920D03*
%TO.P,U2,21*%
%TO.N,A4*%
X-6395720Y-46476920D03*
%TO.P,U2,20*%
%TO.N,A3*%
X-3855720Y-46476920D03*
%TO.P,U2,19*%
%TO.N,A2*%
X-1315720Y-46476920D03*
%TO.P,U2,18*%
%TO.N,A1*%
X1224280Y-46476920D03*
%TO.P,U2,17*%
%TO.N,A0*%
X3764280Y-46476920D03*
%TO.P,U2,16*%
%TO.N,GND*%
X6304280Y-46476920D03*
%TO.P,U2,15*%
%TO.N,N/C*%
X8844280Y-46476920D03*
%TO.P,U2,14*%
%TO.N,+3V3*%
X11384280Y-46476920D03*
D11*
%TO.P,U2,13*%
%TO.N,~RESET*%
X13924280Y-46476920D03*
D10*
%TO.P,U2,5*%
%TO.N,D12*%
X-6475720Y-66796920D03*
%TO.P,U2,4*%
%TO.N,D13*%
X-3935720Y-66796920D03*
%TO.P,U2,10*%
%TO.N,D5*%
X-19175720Y-66796920D03*
%TO.P,U2,9*%
%TO.N,D6*%
X-16635720Y-66796920D03*
%TO.P,U2,12*%
%TO.N,SDA*%
X-24255720Y-66796920D03*
%TO.P,U2,7*%
%TO.N,D10*%
X-11555720Y-66796920D03*
%TO.P,U2,6*%
%TO.N,D11*%
X-9015720Y-66796920D03*
%TO.P,U2,2*%
%TO.N,EN*%
X1144280Y-66796920D03*
%TO.P,U2,11*%
%TO.N,SCL*%
X-21715720Y-66796920D03*
%TO.P,U2,8*%
%TO.N,D9*%
X-14095720Y-66796920D03*
D11*
%TO.P,U2,1*%
%TO.N,N/C*%
X3684280Y-66796920D03*
D10*
%TO.P,U2,3*%
X-1395720Y-66796920D03*
%TD*%
D12*
%TO.P,Q1,3*%
%TO.N,GND*%
X2450000Y-3150000D03*
%TO.P,Q1,2*%
%TO.N,POWER_1*%
X4990000Y-3150000D03*
D13*
%TO.P,Q1,1*%
%TO.N,D9*%
X7530000Y-3150000D03*
%TD*%
D10*
%TO.P,J2,6*%
%TO.N,+3V3*%
X-26070000Y-27630000D03*
%TO.P,J2,5*%
%TO.N,A0*%
X-26070000Y-25090000D03*
%TO.P,J2,4*%
%TO.N,A1*%
X-26070000Y-22550000D03*
%TO.P,J2,3*%
%TO.N,D13*%
X-26070000Y-20010000D03*
%TO.P,J2,2*%
%TO.N,D10*%
X-26070000Y-17470000D03*
D11*
%TO.P,J2,1*%
%TO.N,GND*%
X-26070000Y-14930000D03*
%TD*%
D14*
%TO.P,JP2,1*%
%TO.N,Net-(JP2-Pad1)*%
X-14900000Y3460000D03*
%TO.P,JP2,2*%
%TO.N,A0*%
X-13600000Y3460000D03*
%TD*%
D15*
%TO.P,J1,2*%
%TO.N,GND*%
X-19690080Y18450560D03*
X-19690080Y23530560D03*
X-14610080Y23530560D03*
X-14610080Y18450560D03*
D16*
%TO.P,J1,1*%
%TO.N,Net-(J1-Pad1)*%
X-17150080Y20990560D03*
%TD*%
D17*
%TO.P,SW3,*%
%TO.N,*%
X12845380Y-15030500D03*
D18*
%TO.P,SW3,2*%
%TO.N,GND*%
X15335380Y-13770500D03*
%TO.P,SW3,1*%
%TO.N,A4*%
X15335380Y-9270500D03*
D17*
%TO.P,SW3,*%
%TO.N,*%
X12845380Y-8020500D03*
%TD*%
D19*
%TO.P,R4,2*%
%TO.N,A4*%
X-7607136Y-51281920D03*
D20*
%TO.P,R4,1*%
%TO.N,+3V3*%
X-7607136Y-63981920D03*
%TD*%
D21*
%TO.P,H2,1*%
%TO.N,+3V3*%
X17813960Y-71924920D03*
%TD*%
D10*
%TO.P,U5,5*%
%TO.N,+3V3*%
X-5080000Y-35560000D03*
%TO.P,U5,4*%
%TO.N,POWER_1*%
X-7620000Y-35560000D03*
%TO.P,U5,3*%
%TO.N,TX_D1*%
X-10160000Y-35560000D03*
%TO.P,U5,2*%
%TO.N,RX_D0*%
X-12700000Y-35560000D03*
D11*
%TO.P,U5,1*%
%TO.N,N/C*%
X-15240000Y-35560000D03*
%TD*%
D10*
%TO.P,U4,9*%
%TO.N,N/C*%
X0Y-41910000D03*
%TO.P,U4,8*%
X-2540000Y-41910000D03*
%TO.P,U4,7*%
X-5080000Y-41910000D03*
%TO.P,U4,6*%
%TO.N,D5*%
X-7620000Y-41910000D03*
%TO.P,U4,5*%
%TO.N,MOSI*%
X-10160000Y-41910000D03*
%TO.P,U4,4*%
%TO.N,SCK*%
X-12700000Y-41910000D03*
%TO.P,U4,3*%
%TO.N,GND*%
X-15240000Y-41910000D03*
%TO.P,U4,2*%
%TO.N,N/C*%
X-17780000Y-41910000D03*
D11*
%TO.P,U4,1*%
%TO.N,+3V3*%
X-20320000Y-41910000D03*
D22*
%TO.P,U4,*%
%TO.N,*%
X6850000Y-41430000D03*
X-27170000Y-41430000D03*
X6850000Y-8410000D03*
X-27170000Y-8410000D03*
%TD*%
D10*
%TO.P,U3,6*%
%TO.N,N/C*%
X-11021060Y-1960880D03*
%TO.P,U3,5*%
%TO.N,SDA*%
X-13561060Y-1960880D03*
%TO.P,U3,4*%
%TO.N,SCL*%
X-16101060Y-1960880D03*
%TO.P,U3,3*%
%TO.N,GND*%
X-18641060Y-1960880D03*
%TO.P,U3,2*%
%TO.N,N/C*%
X-21181060Y-1960880D03*
D11*
%TO.P,U3,1*%
%TO.N,+3V3*%
X-23721060Y-1960880D03*
%TD*%
D23*
%TO.P,SW4,1*%
%TO.N,~RESET*%
X-12920000Y-74580000D03*
%TO.P,SW4,2*%
X-19420000Y-74580000D03*
%TO.P,SW4,3*%
%TO.N,GND*%
X-12920000Y-70080000D03*
%TO.P,SW4,4*%
X-19420000Y-70080000D03*
%TD*%
D17*
%TO.P,SW2,*%
%TO.N,*%
X12845380Y-5073700D03*
D18*
%TO.P,SW2,2*%
%TO.N,GND*%
X15335380Y-3813700D03*
%TO.P,SW2,1*%
%TO.N,A3*%
X15335380Y686300D03*
D17*
%TO.P,SW2,*%
%TO.N,*%
X12845380Y1936300D03*
%TD*%
%TO.P,SW1,*%
%TO.N,*%
X12720000Y9520000D03*
D18*
%TO.P,SW1,2*%
%TO.N,GND*%
X15210000Y10780000D03*
%TO.P,SW1,1*%
%TO.N,A2*%
X15210000Y15280000D03*
D17*
%TO.P,SW1,*%
%TO.N,*%
X12720000Y16530000D03*
%TD*%
D19*
%TO.P,R7,2*%
%TO.N,A1*%
X4565268Y-51281920D03*
D20*
%TO.P,R7,1*%
%TO.N,Net-(Q3-Pad2)*%
X4565268Y-63981920D03*
%TD*%
D19*
%TO.P,R3,2*%
%TO.N,GND*%
X-11664604Y-51281920D03*
D20*
%TO.P,R3,1*%
%TO.N,D9*%
X-11664604Y-63981920D03*
%TD*%
D19*
%TO.P,R6,2*%
%TO.N,A2*%
X507800Y-51281920D03*
D20*
%TO.P,R6,1*%
%TO.N,+3V3*%
X507800Y-63981920D03*
%TD*%
D19*
%TO.P,R5,2*%
%TO.N,A3*%
X-3549668Y-51281920D03*
D20*
%TO.P,R5,1*%
%TO.N,+3V3*%
X-3549668Y-63981920D03*
%TD*%
D19*
%TO.P,R2,2*%
%TO.N,SCL*%
X-15722072Y-63981920D03*
D20*
%TO.P,R2,1*%
%TO.N,+3V3*%
X-15722072Y-51281920D03*
%TD*%
D19*
%TO.P,R1,2*%
%TO.N,SDA*%
X-19779540Y-63981920D03*
D20*
%TO.P,R1,1*%
%TO.N,+3V3*%
X-19779540Y-51281920D03*
%TD*%
D24*
%TO.P,Q3,1*%
%TO.N,GND*%
X-26880820Y-36576000D03*
D25*
%TO.P,Q3,3*%
%TO.N,Net-(D1-Pad2)*%
X-26880820Y-31496000D03*
%TO.P,Q3,2*%
%TO.N,Net-(Q3-Pad2)*%
X-29420820Y-34036000D03*
%TD*%
D26*
%TO.P,JP1,1*%
%TO.N,GND*%
X6744999Y-26965001D03*
%TO.P,JP1,2*%
%TO.N,POWER_1*%
X6744999Y-25665001D03*
%TD*%
D11*
%TO.P,J19,1*%
%TO.N,N/C*%
X-1541780Y-73751440D03*
D10*
%TO.P,J19,2*%
%TO.N,GND*%
X-4081780Y-73751440D03*
%TO.P,J19,3*%
%TO.N,A5*%
X-6621780Y-73751440D03*
%TD*%
%TO.P,J16,4*%
%TO.N,SDA*%
X-6800000Y-6930000D03*
%TO.P,J16,3*%
%TO.N,SCL*%
X-9340000Y-6930000D03*
%TO.P,J16,2*%
%TO.N,+3V3*%
X-11880000Y-6930000D03*
D11*
%TO.P,J16,1*%
%TO.N,GND*%
X-14420000Y-6930000D03*
%TD*%
%TO.P,J5,1*%
%TO.N,N/C*%
X19672300Y-28582620D03*
D10*
%TO.P,J5,2*%
%TO.N,EN*%
X19672300Y-31122620D03*
%TO.P,J5,3*%
%TO.N,GND*%
X19672300Y-33662620D03*
%TD*%
D21*
%TO.P,H6,1*%
%TO.N,SCL*%
X-28133040Y21833840D03*
%TD*%
%TO.P,H5,1*%
%TO.N,SDA*%
X17813960Y21833840D03*
%TD*%
%TO.P,H1,1*%
%TO.N,GND*%
X-28133040Y-71924920D03*
%TD*%
D27*
%TO.P,D1,1*%
%TO.N,+3V3*%
X10090000Y-51890000D03*
D28*
%TO.P,D1,2*%
%TO.N,Net-(D1-Pad2)*%
X10090000Y-64590000D03*
%TD*%
D29*
%TO.N,GND*%
X-11720000Y-55740000D03*
X6300000Y-55690000D03*
X19190000Y-55690000D03*
X15287380Y-33662620D03*
X-14320000Y-14810000D03*
X-18630000Y-7040000D03*
X2350000Y-14490000D03*
X-5830000Y-3060000D03*
X-5700000Y1330000D03*
X-5610000Y15380000D03*
X10140000Y1270000D03*
X10370000Y-2780000D03*
X15250000Y4680000D03*
X17550000Y4680000D03*
X17690000Y-3710000D03*
X-20260000Y13390000D03*
X-5700000Y13370000D03*
X-17670000Y-37110000D03*
X-17620000Y-32070000D03*
X6540000Y-32140000D03*
X15335380Y-32024620D03*
X-13000000Y-72250000D03*
X5750000Y-71750000D03*
X-15250000Y-37250000D03*
%TO.N,+3V3*%
X17740000Y-51930000D03*
X-19890000Y-56870000D03*
X-7840000Y-56840000D03*
X490000Y-57780000D03*
X9920000Y-57820000D03*
X-20270000Y-38850000D03*
X-5040000Y-38850000D03*
X11310000Y-37430000D03*
X-5160000Y-27910000D03*
X-23670000Y7330000D03*
X-11810000Y-11570000D03*
X-23170000Y-11570000D03*
X1310000Y22470000D03*
X-11270000Y7220000D03*
X-17770000Y-11570000D03*
X-17890000Y-27910000D03*
X1000000Y16500000D03*
X-11250000Y16250000D03*
%TO.N,SDA*%
X-23080000Y-64130000D03*
X-24750000Y-57750000D03*
X-24000000Y-54250000D03*
X16000000Y-53250000D03*
X13750000Y-18250000D03*
X-6750000Y-17250000D03*
X-1250000Y-6500000D03*
X-500000Y-250000D03*
X11090000Y250000D03*
X11500000Y21750000D03*
X-12750000Y-5300000D03*
%TO.N,SCL*%
X-20830000Y-61800000D03*
X-16870000Y-61800000D03*
X-28000000Y-58500000D03*
X-29500000Y-13250000D03*
X-9500000Y-12750000D03*
X-16750000Y-12750000D03*
X-17500000Y-250000D03*
X-25500000Y500000D03*
X-21750000Y-59500000D03*
%TO.N,D9*%
X7000000Y-1000000D03*
X250000Y-1250000D03*
X0Y-33500000D03*
X2000000Y-56750000D03*
X-11750000Y-58200000D03*
X2250000Y-33500000D03*
%TO.N,~RESET*%
X14120000Y-59150000D03*
X-12550000Y-60500000D03*
%TO.N,A0*%
X2750000Y-25750000D03*
X-15090000Y-25090000D03*
%TO.N,A3*%
X11250000Y-1000000D03*
X10000000Y-44750000D03*
%TO.N,A4*%
X16500000Y-47500000D03*
%TO.N,A5*%
X-10250000Y-53000000D03*
X7254280Y-53250000D03*
X7750000Y-70250000D03*
X-6621780Y-71121780D03*
%TO.N,POWER_1*%
X-6250000Y-24950000D03*
X6250000Y-24000000D03*
X3750000Y-24000000D03*
%TO.N,Net-(Q3-Pad2)*%
X-7000000Y-33750000D03*
X-4750000Y-59250000D03*
X4250000Y-59500000D03*
%TO.N,RX_D0*%
X-13500000Y-33020000D03*
X-16500000Y-33236000D03*
%TO.N,TX_D1*%
X-12750000Y-47500000D03*
X-12750000Y-44250000D03*
X-11410001Y-42839999D03*
%TO.N,A2*%
X9250000Y14500000D03*
X9500000Y-15750000D03*
X1000000Y-16250000D03*
X500000Y-36500000D03*
X-1250000Y-36750000D03*
%TO.N,Net-(J1-Pad1)*%
X-17250000Y17000000D03*
%TO.N,EN*%
X-1480000Y-30800000D03*
%TO.N,SCK*%
X-9000000Y6500000D03*
X-9500000Y-4000000D03*
X-20000000Y-5000000D03*
X-13000000Y-40500000D03*
X-19250000Y-40250000D03*
%TO.N,MOSI*%
X-4500000Y4750000D03*
X-5500000Y-21750000D03*
X-11250000Y-22750000D03*
X-11449999Y-39949999D03*
X-13500000Y-49000000D03*
X-10250000Y-48500000D03*
%TO.N,D5*%
X-8000000Y-43750000D03*
X-17845719Y-45345719D03*
%TO.N,A1*%
X13000000Y-20750000D03*
X12750000Y-49000000D03*
X1500000Y-49500000D03*
%TO.N,MISO*%
X-3500000Y2750000D03*
X-3500000Y-37750000D03*
X-13750000Y-37750000D03*
X-14250000Y-43250000D03*
X-16250000Y-43460000D03*
%TO.N,D6*%
X-7510000Y11040000D03*
X-8400000Y-29510000D03*
X-22070000Y-31330000D03*
X-22340000Y-57860000D03*
X-14750000Y-58130000D03*
%TO.N,Net-(JP2-Pad1)*%
X-16250000Y4250000D03*
%TO.N,D12*%
X-20250000Y4500000D03*
X-20500000Y-59000000D03*
X-6500000Y-59250000D03*
%TO.N,D13*%
X-3500000Y-69050000D03*
X13500000Y-69250000D03*
X13000000Y-50750000D03*
X18240000Y-49250000D03*
X17750000Y-19750000D03*
%TO.N,D10*%
X12260000Y-39750000D03*
X17250000Y-44500000D03*
X15750000Y-67750000D03*
X12050000Y-19000000D03*
%TO.N,D11*%
X-7220000Y8840000D03*
X-6870000Y-4800000D03*
X-4220000Y-5570000D03*
X-5000000Y-23250000D03*
X-9500000Y-24750000D03*
%TO.N,Net-(D1-Pad2)*%
X9180000Y-61770000D03*
X7500000Y22500000D03*
X6500000Y17500000D03*
X-12500000Y17250000D03*
X-13250000Y10250000D03*
X-22250000Y9750000D03*
X-23000000Y-30000000D03*
X-29750000Y-62000000D03*
X-23480000Y-43520000D03*
X-30750000Y-45750000D03*
%TD*%
D30*
%TO.N,GND*%
X-4350000Y-73483220D02*
X-4081780Y-73751440D01*
X6304280Y-69924280D02*
X6310000Y-69930000D01*
X-11720000Y-51337316D02*
X-11664604Y-51281920D01*
X-11720000Y-55740000D02*
X-11720000Y-51337316D01*
X6304280Y-55694280D02*
X6304280Y-69924280D01*
X6304280Y-55694280D02*
X6300000Y-55690000D01*
X6304280Y-46476920D02*
X6304280Y-55694280D01*
X19190000Y-34144920D02*
X19672300Y-33662620D01*
X19190000Y-55690000D02*
X19190000Y-34144920D01*
X6540000Y-27170000D02*
X6744999Y-26965001D01*
X15335380Y-33614620D02*
X15287380Y-33662620D01*
X-14420000Y-6930000D02*
X-14420000Y-14710000D01*
X-14420000Y-14710000D02*
X-14320000Y-14810000D01*
X-18641060Y-1960880D02*
X-18641060Y-7028940D01*
X-18641060Y-7028940D02*
X-18630000Y-7040000D01*
X2450000Y-3150000D02*
X2450000Y-14390000D01*
X2450000Y-14390000D02*
X2350000Y-14490000D01*
X-5830000Y-3060000D02*
X-5830000Y1200000D01*
X-5830000Y1200000D02*
X-5700000Y1330000D01*
X-5700000Y15290000D02*
X-5610000Y15380000D01*
X10140000Y1270000D02*
X10140000Y-2550000D01*
X10140000Y-2550000D02*
X10370000Y-2780000D01*
X15210000Y10780000D02*
X15210000Y4620000D01*
X15210000Y4620000D02*
X15210000Y4640000D01*
X15210000Y4640000D02*
X15250000Y4680000D01*
X17550000Y4680000D02*
X17550000Y-3570000D01*
X17550000Y-3570000D02*
X17690000Y-3710000D01*
X-20260000Y17880640D02*
X-19690080Y18450560D01*
X-20260000Y13390000D02*
X-20260000Y17880640D01*
X-19690080Y18450560D02*
X-19690080Y23530560D01*
X-14610080Y18450560D02*
X-14610080Y23530560D01*
X-5700000Y1330000D02*
X-5700000Y13370000D01*
X-5700000Y13370000D02*
X-5700000Y15290000D01*
X-15240000Y-41910000D02*
X-15240000Y-39540000D01*
X-17670000Y-37110000D02*
X-17670000Y-32120000D01*
X-17670000Y-32120000D02*
X-17620000Y-32070000D01*
X6540000Y-32140000D02*
X6540000Y-27170000D01*
X15335380Y-13770500D02*
X15335380Y-32024620D01*
X15335380Y-32024620D02*
X15335380Y-33614620D01*
X-12920000Y-70080000D02*
X-12920000Y-72170000D01*
X-12920000Y-72170000D02*
X-13000000Y-72250000D01*
X6304280Y-69924280D02*
X6304280Y-71195720D01*
X6304280Y-71195720D02*
X5750000Y-71750000D01*
X-15240000Y-39540000D02*
X-15240000Y-37260000D01*
X-15240000Y-37260000D02*
X-15250000Y-37250000D01*
%TO.N,+3V3*%
X17779680Y-71924920D02*
X17779680Y-51969680D01*
X17779680Y-51969680D02*
X17740000Y-51930000D01*
X11384280Y-50595720D02*
X10090000Y-51890000D01*
X11384280Y-46476920D02*
X11384280Y-50595720D01*
X-19890000Y-51392380D02*
X-19779540Y-51281920D01*
X-19890000Y-56870000D02*
X-19890000Y-51392380D01*
X-7840000Y-63749056D02*
X-7607136Y-63981920D01*
X-7840000Y-56840000D02*
X-7840000Y-63749056D01*
X507800Y-63981920D02*
X507800Y-57797800D01*
X507800Y-57797800D02*
X490000Y-57780000D01*
X9920000Y-52060000D02*
X10090000Y-51890000D01*
X9920000Y-57820000D02*
X9920000Y-52060000D01*
X-20320000Y-41910000D02*
X-20320000Y-38900000D01*
X-20320000Y-38900000D02*
X-20270000Y-38850000D01*
X-5040000Y-35600000D02*
X-5080000Y-35560000D01*
X-5040000Y-38850000D02*
X-5040000Y-35600000D01*
X11310000Y-46402640D02*
X11384280Y-46476920D01*
X11310000Y-37430000D02*
X11310000Y-46402640D01*
X-5080000Y-35560000D02*
X-5080000Y-27990000D01*
X-5080000Y-27990000D02*
X-5160000Y-27910000D01*
X-23721060Y-1960880D02*
X-23721060Y7278940D01*
X-23721060Y7278940D02*
X-23670000Y7330000D01*
X-11880000Y-6930000D02*
X-11880000Y-11500000D01*
X-11880000Y-11500000D02*
X-11810000Y-11570000D01*
X-23170000Y-2511940D02*
X-23721060Y-1960880D01*
X1310000Y22470000D02*
X1310000Y17210000D01*
X1310000Y17210000D02*
X1200000Y17100000D01*
X-17770000Y-27790000D02*
X-17890000Y-27910000D01*
X-17770000Y-11570000D02*
X-17770000Y-27790000D01*
X1310000Y17210000D02*
X1310000Y16810000D01*
X1310000Y16810000D02*
X1000000Y16500000D01*
X-11250000Y7240000D02*
X-11270000Y7220000D01*
X-11250000Y16250000D02*
X-11250000Y7240000D01*
X-23170000Y-11570000D02*
X-23180000Y-11570000D01*
X-23180000Y-11570000D02*
X-23500000Y-11250000D01*
X-23500000Y-2181940D02*
X-23721060Y-1960880D01*
X-23500000Y-11250000D02*
X-23500000Y-2181940D01*
D31*
%TO.N,SDA*%
X-24255720Y-66796920D02*
X-24255720Y-65305720D01*
X-24255720Y-65305720D02*
X-23080000Y-64130000D01*
X-24750000Y-57750000D02*
X-24250000Y-57250000D01*
X-24250000Y-57250000D02*
X-24250000Y-56000000D01*
X-24250000Y-56000000D02*
X-24250000Y-54500000D01*
X-24250000Y-54500000D02*
X-24000000Y-54250000D01*
X16000000Y-53250000D02*
X15500000Y-52750000D01*
X15500000Y-52750000D02*
X15500000Y-37000000D01*
X15500000Y-37000000D02*
X14250000Y-35750000D01*
X14250000Y-35750000D02*
X14250000Y-30250000D01*
X14250000Y-30250000D02*
X14250000Y-18750000D01*
X14250000Y-18750000D02*
X13750000Y-18250000D01*
X-6750000Y-6980000D02*
X-6800000Y-6930000D01*
X-6750000Y-17250000D02*
X-6750000Y-6980000D01*
X-1250000Y-6500000D02*
X-1250000Y-1000000D01*
X-1250000Y-1000000D02*
X-500000Y-250000D01*
X11090000Y250000D02*
X11090000Y21340000D01*
X11090000Y21340000D02*
X11500000Y21750000D01*
X-13561060Y-1960880D02*
X-13561060Y-4488940D01*
X-13561060Y-4488940D02*
X-12750000Y-5300000D01*
X-23080000Y-59420000D02*
X-24750000Y-57750000D01*
X-23080000Y-64130000D02*
X-23080000Y-59420000D01*
%TO.N,SCL*%
X-21715720Y-66796920D02*
X-21715720Y-62685720D01*
X-21715720Y-62685720D02*
X-20830000Y-61800000D01*
X-16870000Y-62833992D02*
X-15722072Y-63981920D01*
X-16870000Y-61800000D02*
X-16870000Y-62833992D01*
X-28000000Y-58500000D02*
X-28500000Y-58000000D01*
X-28500000Y-58000000D02*
X-28500000Y-45750000D01*
X-28500000Y-45750000D02*
X-30750000Y-43500000D01*
X-30750000Y-43500000D02*
X-30750000Y-14500000D01*
X-30750000Y-14500000D02*
X-29500000Y-13250000D01*
X-9500000Y-12750000D02*
X-9250000Y-12500000D01*
X-9250000Y-7020000D02*
X-9340000Y-6930000D01*
X-9250000Y-12500000D02*
X-9250000Y-7020000D01*
X-16750000Y-2609820D02*
X-16101060Y-1960880D01*
X-16750000Y-12750000D02*
X-16750000Y-2609820D01*
X-16101060Y-1960880D02*
X-16101060Y-898940D01*
X-16101060Y-898940D02*
X-16750000Y-250000D01*
X-16750000Y-250000D02*
X-17500000Y-250000D01*
X-25500000Y500000D02*
X-26750000Y1750000D01*
X-26750000Y20450800D02*
X-28133040Y21833840D01*
X-26750000Y1750000D02*
X-26750000Y20450800D01*
X-21750000Y-62651440D02*
X-21715720Y-62685720D01*
X-21750000Y-59500000D02*
X-21750000Y-62651440D01*
%TO.N,D9*%
X7530000Y-3150000D02*
X7530000Y-1530000D01*
X7530000Y-1530000D02*
X7000000Y-1000000D01*
X250000Y-1250000D02*
X-250000Y-1750000D01*
X-250000Y-1750000D02*
X-250000Y-33250000D01*
X-250000Y-33250000D02*
X0Y-33500000D01*
X2474281Y-56275719D02*
X2000000Y-56750000D01*
X2474281Y-34525719D02*
X2474281Y-56275719D01*
X-11750000Y-63896524D02*
X-11664604Y-63981920D01*
X-11750000Y-58200000D02*
X-11750000Y-63896524D01*
X2474281Y-34525719D02*
X2474281Y-33724281D01*
X2474281Y-33724281D02*
X2250000Y-33500000D01*
%TO.N,~RESET*%
X-12920000Y-74580000D02*
X-11669999Y-73329999D01*
X-11669999Y-68572641D02*
X-12845719Y-67396921D01*
X-12845719Y-66196919D02*
X-12864605Y-66178033D01*
X-11669999Y-73329999D02*
X-11669999Y-68572641D01*
X-12845719Y-67396921D02*
X-12845719Y-66196919D01*
X-12864605Y-66178033D02*
X-12864605Y-63405919D01*
X14120000Y-46672640D02*
X13924280Y-46476920D01*
X14120000Y-59150000D02*
X14120000Y-46672640D01*
X-12864605Y-63405919D02*
X-12864605Y-60814605D01*
X-12864605Y-60814605D02*
X-12550000Y-60500000D01*
%TO.N,A0*%
X3250000Y-45962640D02*
X3764280Y-46476920D01*
X3250000Y-34250000D02*
X3250000Y-45962640D01*
X3500000Y-34000000D02*
X3250000Y-34250000D01*
X2750000Y-25750000D02*
X3500000Y-26500000D01*
X3500000Y-26500000D02*
X3500000Y-34000000D01*
X-14811061Y-1360879D02*
X-14811061Y-4311061D01*
X-13600000Y3460000D02*
X-13600000Y-149818D01*
X-13600000Y-149818D02*
X-14811061Y-1360879D01*
X-15670001Y-24509999D02*
X-15090000Y-25090000D01*
X-15670001Y-5170001D02*
X-15670001Y-24509999D01*
X-14811061Y-4311061D02*
X-15670001Y-5170001D01*
%TO.N,A3*%
X11250000Y-1000000D02*
X11250000Y-21750000D01*
X11250000Y-21750000D02*
X11250000Y-36000000D01*
X11250000Y-36000000D02*
X10500000Y-36750000D01*
X10500000Y-36750000D02*
X10500000Y-40500000D01*
X10500000Y-40500000D02*
X10500000Y-44250000D01*
X10500000Y-44250000D02*
X10000000Y-44750000D01*
X-3855720Y-50975868D02*
X-3549668Y-51281920D01*
X-3855720Y-46476920D02*
X-3855720Y-50975868D01*
%TO.N,A4*%
X15335380Y-9270500D02*
X15335380Y-11335380D01*
X15335380Y-11335380D02*
X16750000Y-12750000D01*
X16750000Y-12750000D02*
X16750000Y-14750000D01*
X16750000Y-14750000D02*
X16250000Y-15250000D01*
X16250000Y-15250000D02*
X16250000Y-21500000D01*
X16250000Y-21500000D02*
X16250000Y-41750000D01*
X16250000Y-41750000D02*
X16250000Y-45500000D01*
X16250000Y-45500000D02*
X16500000Y-45750000D01*
X16500000Y-45750000D02*
X16500000Y-47500000D01*
X-6395720Y-50070504D02*
X-7607136Y-51281920D01*
X-6395720Y-46476920D02*
X-6395720Y-50070504D01*
%TO.N,A5*%
X-8935720Y-46476920D02*
X-8935720Y-48685720D01*
X-8935720Y-48685720D02*
X-10250000Y-50000000D01*
X-10250000Y-50000000D02*
X-10250000Y-53000000D01*
X7254280Y-53250000D02*
X7750000Y-53745720D01*
X7750000Y-53745720D02*
X7750000Y-70250000D01*
X-6621780Y-73751440D02*
X-6621780Y-71121780D01*
X-6621780Y-71121780D02*
X-6621780Y-70871780D01*
%TO.N,POWER_1*%
X-7620000Y-35560000D02*
X-7620000Y-34880000D01*
X-7620000Y-34880000D02*
X-8000000Y-34500000D01*
X-8000000Y-34500000D02*
X-8000000Y-30500000D01*
X-8000000Y-30500000D02*
X-7000000Y-29500000D01*
X-7000000Y-29500000D02*
X-7000000Y-25700000D01*
X-7000000Y-25700000D02*
X-6250000Y-24950000D01*
X6744999Y-25665001D02*
X6744999Y-24494999D01*
X6744999Y-24494999D02*
X6250000Y-24000000D01*
X3250000Y-23500000D02*
X3750000Y-24000000D01*
X4990000Y-3150000D02*
X4990000Y-4260000D01*
X4990000Y-4260000D02*
X3250000Y-6000000D01*
X3250000Y-6000000D02*
X3250000Y-23500000D01*
%TO.N,Net-(Q3-Pad2)*%
X-5105721Y-58894279D02*
X-4750000Y-59250000D01*
X-5105721Y-45876919D02*
X-5105721Y-58894279D01*
X-6330001Y-44652639D02*
X-5105721Y-45876919D01*
X-7000000Y-33750000D02*
X-6330001Y-34419999D01*
X-6330001Y-34419999D02*
X-6330001Y-44652639D01*
X4565268Y-59815268D02*
X4565268Y-63981920D01*
X4250000Y-59500000D02*
X4565268Y-59815268D01*
%TO.N,RX_D0*%
X-17179999Y-43160001D02*
X-16529999Y-42510001D01*
X-18380001Y-43160001D02*
X-17179999Y-43160001D01*
X-19095720Y-46476920D02*
X-19095720Y-43875720D01*
X-19095720Y-43875720D02*
X-18380001Y-43160001D01*
X-12700000Y-35560000D02*
X-12700000Y-33820000D01*
X-12700000Y-33820000D02*
X-13500000Y-33020000D01*
X-16500000Y-40750000D02*
X-16529999Y-40779999D01*
X-16500000Y-33236000D02*
X-16500000Y-40750000D01*
X-16529999Y-42510001D02*
X-16529999Y-40779999D01*
X-16529999Y-40779999D02*
X-16529999Y-39970001D01*
%TO.N,TX_D1*%
X-12750000Y-45250000D02*
X-12750000Y-47500000D01*
X-10160000Y-35560000D02*
X-10160000Y-40059998D01*
X-10160000Y-40059998D02*
X-11410001Y-41309999D01*
X-11410001Y-41309999D02*
X-11410001Y-41660001D01*
X-11410001Y-41660001D02*
X-11449999Y-41699999D01*
X-12750000Y-44250000D02*
X-12750000Y-45250000D01*
X-11410001Y-41660001D02*
X-11410001Y-42839999D01*
X-11410001Y-42839999D02*
X-11410001Y-43049999D01*
%TO.N,A2*%
X9250000Y14500000D02*
X8750000Y14000000D01*
X8882501Y13867499D02*
X8882501Y-4882501D01*
X8750000Y14000000D02*
X8882501Y13867499D01*
X8882501Y-4882501D02*
X10250000Y-6250000D01*
X10250000Y-6250000D02*
X10250000Y-10250000D01*
X10250000Y-10250000D02*
X10250000Y-15000000D01*
X10250000Y-15000000D02*
X9500000Y-15750000D01*
X1000000Y-16250000D02*
X750000Y-16500000D01*
X800001Y-36199999D02*
X500000Y-36500000D01*
X750000Y-16500000D02*
X800001Y-16550001D01*
X800001Y-16550001D02*
X800001Y-36199999D01*
X-1250000Y-46411200D02*
X-1315720Y-46476920D01*
X-1250000Y-36750000D02*
X-1250000Y-46411200D01*
X-1315720Y-46476920D02*
X-1315720Y-48934280D01*
X507800Y-50757800D02*
X507800Y-51281920D01*
X-1315720Y-48934280D02*
X507800Y-50757800D01*
%TO.N,Net-(J1-Pad1)*%
X-17250000Y20890640D02*
X-17150080Y20990560D01*
X-17250000Y17000000D02*
X-17250000Y20890640D01*
%TO.N,EN*%
X-1670000Y-49710000D02*
X-1670000Y-63982640D01*
X-2250000Y-31570000D02*
X-2250000Y-39750000D01*
X-1480000Y-30800000D02*
X-2250000Y-31570000D01*
X-1670000Y-63982640D02*
X1144280Y-66796920D01*
X-2250000Y-39750000D02*
X-3790001Y-41290001D01*
X-2565721Y-48814279D02*
X-1670000Y-49710000D01*
X-2565721Y-45916917D02*
X-2565721Y-48814279D01*
X-3790001Y-41290001D02*
X-3790001Y-44692637D01*
X-3790001Y-44692637D02*
X-2565721Y-45916917D01*
%TO.N,SCK*%
X-9000000Y6500000D02*
X-9000000Y-3500000D01*
X-9000000Y-3500000D02*
X-9500000Y-4000000D01*
X-20000000Y-5000000D02*
X-20000000Y-35750000D01*
X-20000000Y-35750000D02*
X-19250000Y-36500000D01*
X-12700000Y-41910000D02*
X-12700000Y-40800000D01*
X-12700000Y-40800000D02*
X-13000000Y-40500000D01*
X-19250000Y-40250000D02*
X-19250000Y-39250000D01*
X-19250000Y-36500000D02*
X-19250000Y-39250000D01*
X-19250000Y-39250000D02*
X-19250000Y-39500000D01*
X-11475720Y-44340278D02*
X-11475720Y-46476920D01*
X-12700000Y-43115998D02*
X-11475720Y-44340278D01*
X-12700000Y-41910000D02*
X-12700000Y-43115998D01*
%TO.N,MOSI*%
X-4500000Y4750000D02*
X-4500000Y-2914002D01*
X-4500000Y-2914002D02*
X-4500000Y-4000000D01*
X-5020001Y-4520001D02*
X-5020001Y-6979999D01*
X-4500000Y-4000000D02*
X-5020001Y-4520001D01*
X-5020001Y-6979999D02*
X-5500000Y-7459998D01*
X-5500000Y-7459998D02*
X-5500000Y-21750000D01*
X-11250000Y-22750000D02*
X-11500000Y-23000000D01*
X-11500000Y-24500000D02*
X-11449999Y-24550001D01*
X-11500000Y-23000000D02*
X-11500000Y-24500000D01*
X-11449999Y-24550001D02*
X-11449999Y-39949999D01*
X-14015720Y-46476920D02*
X-14015720Y-48484280D01*
X-14015720Y-48484280D02*
X-13500000Y-49000000D01*
X-10185721Y-47036923D02*
X-10185721Y-44685721D01*
X-10250000Y-47101202D02*
X-10185721Y-47036923D01*
X-10250000Y-48500000D02*
X-10250000Y-47101202D01*
X-10185721Y-44685721D02*
X-10160000Y-44660000D01*
X-10160000Y-41910000D02*
X-10160000Y-44660000D01*
X-10160000Y-44660000D02*
X-10160000Y-45160000D01*
%TO.N,D5*%
X-19175720Y-66796920D02*
X-17845719Y-65466919D01*
X-7680000Y-41970000D02*
X-7620000Y-41910000D01*
X-7620000Y-41910000D02*
X-7620000Y-43120000D01*
X-7620000Y-43120000D02*
X-8000000Y-43500000D01*
X-8000000Y-43500000D02*
X-8000000Y-43750000D01*
X-17845719Y-65466919D02*
X-17845719Y-45345719D01*
%TO.N,A1*%
X13000000Y-20750000D02*
X13500000Y-21250000D01*
X13500000Y-21250000D02*
X13500000Y-32250000D01*
X13500000Y-32250000D02*
X13500000Y-43000000D01*
X12674279Y-48924279D02*
X12750000Y-49000000D01*
X13500000Y-43000000D02*
X12674279Y-43825721D01*
X12674279Y-43825721D02*
X12674279Y-48924279D01*
X1224280Y-46476920D02*
X1224280Y-49224280D01*
X1224280Y-49224280D02*
X1500000Y-49500000D01*
%TO.N,MISO*%
X-3500000Y2750000D02*
X-3500000Y250000D01*
X-3500000Y250000D02*
X-3250000Y0D01*
X-3250000Y0D02*
X-3250000Y-34500000D01*
X-3250000Y-34500000D02*
X-3250000Y-37500000D01*
X-3250000Y-37500000D02*
X-3500000Y-37750000D01*
X-13950001Y-42950001D02*
X-14250000Y-43250000D01*
X-13750000Y-37750000D02*
X-13950001Y-37950001D01*
X-13950001Y-37950001D02*
X-13950001Y-42950001D01*
X-16250000Y-46171200D02*
X-16555720Y-46476920D01*
X-16250000Y-43460000D02*
X-16250000Y-46171200D01*
%TO.N,D6*%
X-8089999Y-29199999D02*
X-8400000Y-29510000D01*
X-7510000Y11040000D02*
X-8089999Y10460001D01*
X-8089999Y10460001D02*
X-8089999Y-29199999D01*
X-22885721Y-57314279D02*
X-22340000Y-57860000D01*
X-22885721Y-45876919D02*
X-22885721Y-57314279D01*
X-14350001Y-58529999D02*
X-14350001Y-64511201D01*
X-14350001Y-64511201D02*
X-16635720Y-66796920D01*
X-14750000Y-58130000D02*
X-14350001Y-58529999D01*
X-22600010Y-31860010D02*
X-22070000Y-31330000D01*
X-22600010Y-45114012D02*
X-22600010Y-31860010D01*
X-22885721Y-45399723D02*
X-22600010Y-45114012D01*
X-22885721Y-45876919D02*
X-22885721Y-45399723D01*
%TO.N,Net-(JP2-Pad1)*%
X-15690000Y4250000D02*
X-14900000Y3460000D01*
X-16250000Y4250000D02*
X-15690000Y4250000D01*
%TO.N,D12*%
X-19931059Y4181059D02*
X-19931059Y-3431059D01*
X-20250000Y4500000D02*
X-19931059Y4181059D01*
X-20800001Y-4300001D02*
X-20800001Y-6300001D01*
X-19931059Y-3431059D02*
X-20800001Y-4300001D01*
X-20600010Y-6499992D02*
X-20600010Y-37350010D01*
X-20800001Y-6300001D02*
X-20600010Y-6499992D01*
X-20600010Y-37350010D02*
X-21250000Y-38000000D01*
X-21250000Y-38000000D02*
X-22000000Y-38750000D01*
X-22000000Y-38750000D02*
X-22000000Y-42750000D01*
X-22000000Y-42750000D02*
X-22000000Y-43250000D01*
X-20345721Y-44904279D02*
X-20345721Y-49845721D01*
X-22000000Y-43250000D02*
X-20345721Y-44904279D01*
X-20345721Y-49845721D02*
X-20979541Y-50479541D01*
X-20979541Y-58520459D02*
X-20500000Y-59000000D01*
X-20979541Y-50479541D02*
X-20979541Y-58520459D01*
X-6100001Y-66421201D02*
X-6475720Y-66796920D01*
X-6100001Y-59649999D02*
X-6100001Y-66421201D01*
X-6500000Y-59250000D02*
X-6100001Y-59649999D01*
%TO.N,D13*%
X-3935720Y-66796920D02*
X-3935720Y-68614280D01*
X-3935720Y-68614280D02*
X-3500000Y-69050000D01*
X13500000Y-69250000D02*
X13750000Y-69250000D01*
X13750000Y-69250000D02*
X13750000Y-61250000D01*
X13750000Y-61250000D02*
X13250000Y-60750000D01*
X13250000Y-60750000D02*
X13250000Y-51000000D01*
X13250000Y-51000000D02*
X13000000Y-50750000D01*
X18250009Y-20250009D02*
X17750000Y-19750000D01*
X18240000Y-49250000D02*
X18250009Y-49239991D01*
X18250009Y-49239991D02*
X18250009Y-20250009D01*
%TO.N,D10*%
X12000000Y-36935998D02*
X12250000Y-37185998D01*
X12250000Y-37185998D02*
X12250000Y-39740000D01*
X12250000Y-39740000D02*
X12260000Y-39750000D01*
X17649999Y-44899999D02*
X17649999Y-48100001D01*
X17250000Y-44500000D02*
X17649999Y-44899999D01*
X16800001Y-66699999D02*
X15750000Y-67750000D01*
X17649999Y-48100001D02*
X16800001Y-48949999D01*
X16800001Y-48949999D02*
X16800001Y-66699999D01*
X12050000Y-20200000D02*
X12000000Y-20250000D01*
X12050000Y-19000000D02*
X12050000Y-20200000D01*
X12000000Y-20000000D02*
X12000000Y-20250000D01*
X12000000Y-20250000D02*
X12000000Y-36935998D01*
%TO.N,D11*%
X-7220000Y8840000D02*
X-7220000Y-4450000D01*
X-7220000Y-4450000D02*
X-6870000Y-4800000D01*
X-4220000Y-5570000D02*
X-4220000Y-17690000D01*
X-4220000Y-17690000D02*
X-4220000Y-22380000D01*
X-4220000Y-22380000D02*
X-4220000Y-22470000D01*
X-4220000Y-22470000D02*
X-5000000Y-23250000D01*
X-9000000Y-59825998D02*
X-8779999Y-60045999D01*
X-9000000Y-50898782D02*
X-9000000Y-59825998D01*
X-8779999Y-63378781D02*
X-9015720Y-63614502D01*
X-7685719Y-49584501D02*
X-9000000Y-50898782D01*
X-7685719Y-45876919D02*
X-7685719Y-49584501D01*
X-8779999Y-60045999D02*
X-8779999Y-63378781D01*
X-8870001Y-44692637D02*
X-7685719Y-45876919D01*
X-8870001Y-30224001D02*
X-8870001Y-44692637D01*
X-9015720Y-63614502D02*
X-9015720Y-66796920D01*
X-9500000Y-29594002D02*
X-8870001Y-30224001D01*
X-9500000Y-24750000D02*
X-9500000Y-29594002D01*
%TO.N,Net-(D1-Pad2)*%
X10090000Y-64590000D02*
X10090000Y-62680000D01*
X10090000Y-62680000D02*
X9180000Y-61770000D01*
X7500000Y22500000D02*
X7000000Y22000000D01*
X7000000Y22000000D02*
X7000000Y18000000D01*
X7000000Y18000000D02*
X6500000Y17500000D01*
X-12500000Y17250000D02*
X-13000000Y16750000D01*
X-13000000Y16750000D02*
X-13000000Y10500000D01*
X-13000000Y10500000D02*
X-13250000Y10250000D01*
X-22369999Y-11185999D02*
X-22369999Y-29369999D01*
X-22419990Y-2201276D02*
X-22419990Y-11136008D01*
X-22471059Y-2150207D02*
X-22419990Y-2201276D01*
X-22250000Y9750000D02*
X-22471059Y9528941D01*
X-22419990Y-11136008D02*
X-22369999Y-11185999D01*
X-22471059Y9528941D02*
X-22471059Y-2150207D01*
X-22369999Y-29369999D02*
X-22870001Y-29870001D01*
X-22870001Y-29870001D02*
X-23000000Y-30000000D01*
X-23480000Y-30480000D02*
X-23000000Y-30000000D01*
X-23480000Y-43520000D02*
X-23480000Y-30480000D01*
X-30750000Y-45750000D02*
X-30750000Y-61000000D01*
X-30750000Y-61000000D02*
X-30250000Y-61500000D01*
X-29750000Y-62000000D02*
X-30250000Y-61500000D01*
X-30250000Y-61500000D02*
X-30500000Y-61250000D01*
%TD*%
M02*
