%TF.GenerationSoftware,KiCad,Pcbnew,5.1.12-84ad8e8a86~92~ubuntu18.04.1*%
%TF.CreationDate,2022-01-05T22:45:31-05:00*%
%TF.ProjectId,remote,72656d6f-7465-42e6-9b69-6361645f7063,rev?*%
%TF.SameCoordinates,Original*%
%TF.FileFunction,Legend,Bot*%
%TF.FilePolarity,Positive*%
%FSLAX46Y46*%
G04 Gerber Fmt 4.6, Leading zero omitted, Abs format (unit mm)*
G04 Created by KiCad (PCBNEW 5.1.12-84ad8e8a86~92~ubuntu18.04.1) date 2022-01-05 22:45:31*
%MOMM*%
%LPD*%
G01*
G04 APERTURE LIST*
%ADD10C,0.120000*%
%ADD11C,0.300000*%
%ADD12C,0.150000*%
G04 APERTURE END LIST*
D10*
X4250000Y-17250000D02*
X4250000Y-17000000D01*
X-17000000Y-17250000D02*
X4250000Y-17250000D01*
X-17000000Y-13000000D02*
X-17000000Y-17250000D01*
X4250000Y-13000000D02*
X-17000000Y-13000000D01*
X4250000Y-17000000D02*
X4250000Y-13000000D01*
D11*
X3597619Y-14528571D02*
X2759523Y-14528571D01*
X3283333Y-13795238D02*
X3283333Y-15680952D01*
X3178571Y-15890476D01*
X2969047Y-15995238D01*
X2759523Y-15995238D01*
X2026190Y-15995238D02*
X2026190Y-14528571D01*
X2026190Y-14947619D02*
X1921428Y-14738095D01*
X1816666Y-14633333D01*
X1607142Y-14528571D01*
X1397619Y-14528571D01*
X-278571Y-15995238D02*
X-278571Y-14842857D01*
X-173809Y-14633333D01*
X35714Y-14528571D01*
X454761Y-14528571D01*
X664285Y-14633333D01*
X-278571Y-15890476D02*
X-69047Y-15995238D01*
X454761Y-15995238D01*
X664285Y-15890476D01*
X769047Y-15680952D01*
X769047Y-15471428D01*
X664285Y-15261904D01*
X454761Y-15157142D01*
X-69047Y-15157142D01*
X-278571Y-15052380D01*
X-2269047Y-15890476D02*
X-2059523Y-15995238D01*
X-1640476Y-15995238D01*
X-1430952Y-15890476D01*
X-1326190Y-15785714D01*
X-1221428Y-15576190D01*
X-1221428Y-14947619D01*
X-1326190Y-14738095D01*
X-1430952Y-14633333D01*
X-1640476Y-14528571D01*
X-2059523Y-14528571D01*
X-2269047Y-14633333D01*
X-3211904Y-15995238D02*
X-3211904Y-13795238D01*
X-3421428Y-15157142D02*
X-4050000Y-15995238D01*
X-4050000Y-14528571D02*
X-3211904Y-15366666D01*
X-5830952Y-15890476D02*
X-5621428Y-15995238D01*
X-5202380Y-15995238D01*
X-4992857Y-15890476D01*
X-4888095Y-15680952D01*
X-4888095Y-14842857D01*
X-4992857Y-14633333D01*
X-5202380Y-14528571D01*
X-5621428Y-14528571D01*
X-5830952Y-14633333D01*
X-5935714Y-14842857D01*
X-5935714Y-15052380D01*
X-4888095Y-15261904D01*
X-6878571Y-15995238D02*
X-6878571Y-14528571D01*
X-6878571Y-14947619D02*
X-6983333Y-14738095D01*
X-7088095Y-14633333D01*
X-7297619Y-14528571D01*
X-7507142Y-14528571D01*
X-9707142Y-14528571D02*
X-10230952Y-15995238D01*
X-10754761Y-14528571D01*
X-12011904Y-13795238D02*
X-12221428Y-13795238D01*
X-12430952Y-13900000D01*
X-12535714Y-14004761D01*
X-12640476Y-14214285D01*
X-12745238Y-14633333D01*
X-12745238Y-15157142D01*
X-12640476Y-15576190D01*
X-12535714Y-15785714D01*
X-12430952Y-15890476D01*
X-12221428Y-15995238D01*
X-12011904Y-15995238D01*
X-11802380Y-15890476D01*
X-11697619Y-15785714D01*
X-11592857Y-15576190D01*
X-11488095Y-15157142D01*
X-11488095Y-14633333D01*
X-11592857Y-14214285D01*
X-11697619Y-14004761D01*
X-11802380Y-13900000D01*
X-12011904Y-13795238D01*
X-13688095Y-15785714D02*
X-13792857Y-15890476D01*
X-13688095Y-15995238D01*
X-13583333Y-15890476D01*
X-13688095Y-15785714D01*
X-13688095Y-15995238D01*
X-15888095Y-15995238D02*
X-14630952Y-15995238D01*
X-15259523Y-15995238D02*
X-15259523Y-13795238D01*
X-15049999Y-14109523D01*
X-14840476Y-14319047D01*
X-14630952Y-14423809D01*
X7054761Y-19778571D02*
X7054761Y-21978571D01*
X7054761Y-19883333D02*
X6845238Y-19778571D01*
X6426190Y-19778571D01*
X6216666Y-19883333D01*
X6111904Y-19988095D01*
X6007142Y-20197619D01*
X6007142Y-20826190D01*
X6111904Y-21035714D01*
X6216666Y-21140476D01*
X6426190Y-21245238D01*
X6845238Y-21245238D01*
X7054761Y-21140476D01*
X5273809Y-19778571D02*
X4750000Y-21245238D01*
X4226190Y-19778571D01*
X3073809Y-21245238D02*
X3283333Y-21140476D01*
X3388095Y-21035714D01*
X3492857Y-20826190D01*
X3492857Y-20197619D01*
X3388095Y-19988095D01*
X3283333Y-19883333D01*
X3073809Y-19778571D01*
X2759523Y-19778571D01*
X2550000Y-19883333D01*
X2445238Y-19988095D01*
X2340476Y-20197619D01*
X2340476Y-20826190D01*
X2445238Y-21035714D01*
X2550000Y-21140476D01*
X2759523Y-21245238D01*
X3073809Y-21245238D01*
X1502380Y-21140476D02*
X1292857Y-21245238D01*
X873809Y-21245238D01*
X664285Y-21140476D01*
X559523Y-20930952D01*
X559523Y-20826190D01*
X664285Y-20616666D01*
X873809Y-20511904D01*
X1188095Y-20511904D01*
X1397619Y-20407142D01*
X1502380Y-20197619D01*
X1502380Y-20092857D01*
X1397619Y-19883333D01*
X1188095Y-19778571D01*
X873809Y-19778571D01*
X664285Y-19883333D01*
X-383333Y-21035714D02*
X-488095Y-21140476D01*
X-383333Y-21245238D01*
X-278571Y-21140476D01*
X-383333Y-21035714D01*
X-383333Y-21245238D01*
X-1745238Y-21245238D02*
X-1535714Y-21140476D01*
X-1430952Y-21035714D01*
X-1326190Y-20826190D01*
X-1326190Y-20197619D01*
X-1430952Y-19988095D01*
X-1535714Y-19883333D01*
X-1745238Y-19778571D01*
X-2059523Y-19778571D01*
X-2269047Y-19883333D01*
X-2373809Y-19988095D01*
X-2478571Y-20197619D01*
X-2478571Y-20826190D01*
X-2373809Y-21035714D01*
X-2269047Y-21140476D01*
X-2059523Y-21245238D01*
X-1745238Y-21245238D01*
X-3421428Y-21245238D02*
X-3421428Y-19778571D01*
X-3421428Y-20197619D02*
X-3526190Y-19988095D01*
X-3630952Y-19883333D01*
X-3840476Y-19778571D01*
X-4050000Y-19778571D01*
X-5726190Y-19778571D02*
X-5726190Y-21559523D01*
X-5621428Y-21769047D01*
X-5516666Y-21873809D01*
X-5307142Y-21978571D01*
X-4992857Y-21978571D01*
X-4783333Y-21873809D01*
X-5726190Y-21140476D02*
X-5516666Y-21245238D01*
X-5097619Y-21245238D01*
X-4888095Y-21140476D01*
X-4783333Y-21035714D01*
X-4678571Y-20826190D01*
X-4678571Y-20197619D01*
X-4783333Y-19988095D01*
X-4888095Y-19883333D01*
X-5097619Y-19778571D01*
X-5516666Y-19778571D01*
X-5726190Y-19883333D01*
X-8345238Y-18940476D02*
X-6459523Y-21769047D01*
X-8764285Y-19778571D02*
X-9602380Y-19778571D01*
X-9078571Y-19045238D02*
X-9078571Y-20930952D01*
X-9183333Y-21140476D01*
X-9392857Y-21245238D01*
X-9602380Y-21245238D01*
X-10335714Y-21245238D02*
X-10335714Y-19778571D01*
X-10335714Y-20197619D02*
X-10440476Y-19988095D01*
X-10545238Y-19883333D01*
X-10754761Y-19778571D01*
X-10964285Y-19778571D01*
X-12640476Y-21245238D02*
X-12640476Y-20092857D01*
X-12535714Y-19883333D01*
X-12326190Y-19778571D01*
X-11907142Y-19778571D01*
X-11697619Y-19883333D01*
X-12640476Y-21140476D02*
X-12430952Y-21245238D01*
X-11907142Y-21245238D01*
X-11697619Y-21140476D01*
X-11592857Y-20930952D01*
X-11592857Y-20721428D01*
X-11697619Y-20511904D01*
X-11907142Y-20407142D01*
X-12430952Y-20407142D01*
X-12640476Y-20302380D01*
X-14630952Y-21140476D02*
X-14421428Y-21245238D01*
X-14002380Y-21245238D01*
X-13792857Y-21140476D01*
X-13688095Y-21035714D01*
X-13583333Y-20826190D01*
X-13583333Y-20197619D01*
X-13688095Y-19988095D01*
X-13792857Y-19883333D01*
X-14002380Y-19778571D01*
X-14421428Y-19778571D01*
X-14630952Y-19883333D01*
X-15573809Y-21245238D02*
X-15573809Y-19045238D01*
X-15783333Y-20407142D02*
X-16411904Y-21245238D01*
X-16411904Y-19778571D02*
X-15573809Y-20616666D01*
X-18192857Y-21140476D02*
X-17983333Y-21245238D01*
X-17564285Y-21245238D01*
X-17354761Y-21140476D01*
X-17250000Y-20930952D01*
X-17250000Y-20092857D01*
X-17354761Y-19883333D01*
X-17564285Y-19778571D01*
X-17983333Y-19778571D01*
X-18192857Y-19883333D01*
X-18297619Y-20092857D01*
X-18297619Y-20302380D01*
X-17250000Y-20511904D01*
X-19240476Y-21245238D02*
X-19240476Y-19778571D01*
X-19240476Y-20197619D02*
X-19345238Y-19988095D01*
X-19450000Y-19883333D01*
X-19659523Y-19778571D01*
X-19869047Y-19778571D01*
D10*
%TO.C,JP2*%
X-15650000Y4460000D02*
X-15650000Y2460000D01*
X-12850000Y4460000D02*
X-15650000Y4460000D01*
X-12850000Y2460000D02*
X-12850000Y4460000D01*
X-15650000Y2460000D02*
X-12850000Y2460000D01*
%TO.C,JP1*%
X7744999Y-27715001D02*
X7744999Y-24915001D01*
X7744999Y-24915001D02*
X5744999Y-24915001D01*
X5744999Y-24915001D02*
X5744999Y-27715001D01*
X5744999Y-27715001D02*
X7744999Y-27715001D01*
%TO.C,JP2*%
D12*
X-13416666Y2207619D02*
X-13416666Y1493333D01*
X-13369047Y1350476D01*
X-13273809Y1255238D01*
X-13130952Y1207619D01*
X-13035714Y1207619D01*
X-13892857Y1207619D02*
X-13892857Y2207619D01*
X-14273809Y2207619D01*
X-14369047Y2160000D01*
X-14416666Y2112380D01*
X-14464285Y2017142D01*
X-14464285Y1874285D01*
X-14416666Y1779047D01*
X-14369047Y1731428D01*
X-14273809Y1683809D01*
X-13892857Y1683809D01*
X-14845238Y2112380D02*
X-14892857Y2160000D01*
X-14988095Y2207619D01*
X-15226190Y2207619D01*
X-15321428Y2160000D01*
X-15369047Y2112380D01*
X-15416666Y2017142D01*
X-15416666Y1921904D01*
X-15369047Y1779047D01*
X-14797619Y1207619D01*
X-15416666Y1207619D01*
%TO.C,JP1*%
X9092618Y-27148334D02*
X8378332Y-27148334D01*
X8235475Y-27195953D01*
X8140237Y-27291191D01*
X8092618Y-27434048D01*
X8092618Y-27529286D01*
X8092618Y-26672143D02*
X9092618Y-26672143D01*
X9092618Y-26291191D01*
X9044999Y-26195953D01*
X8997379Y-26148334D01*
X8902141Y-26100715D01*
X8759284Y-26100715D01*
X8664046Y-26148334D01*
X8616427Y-26195953D01*
X8568808Y-26291191D01*
X8568808Y-26672143D01*
X8092618Y-25148334D02*
X8092618Y-25719762D01*
X8092618Y-25434048D02*
X9092618Y-25434048D01*
X8949760Y-25529286D01*
X8854522Y-25624524D01*
X8806903Y-25719762D01*
%TD*%
M02*
