M48
; DRILL file {KiCad 5.1.12-84ad8e8a86~92~ubuntu18.04.1} date Sat 08 Jan 2022 01:36:06 PM EST
; FORMAT={-:-/ absolute / inch / decimal}
; #@! TF.CreationDate,2022-01-08T13:36:06-05:00
; #@! TF.GenerationSoftware,Kicad,Pcbnew,5.1.12-84ad8e8a86~92~ubuntu18.04.1
FMAT,2
INCH
T1C0.0157
T2C0.0315
T3C0.0390
T4C0.0394
T5C0.0433
T6C0.0512
T7C0.0551
T8C0.0591
T9C0.0669
T10C0.1063
T11C0.1063
T12C0.1378
%
G90
G05
T1
X2.8691Y-5.1604
X2.9085Y-5.8002
X2.9183Y-3.8809
X2.9774Y-5.6624
X3.0758Y-3.3396
X3.1053Y-5.6329
X3.1348Y-5.4951
X3.1478Y-3.0707
X3.1553Y-5.0726
X3.1675Y-3.8148
X3.1711Y-5.8841
X3.1742Y-4.5404
X3.2002Y-5.6372
X3.2037Y-2.9754
X3.2108Y-4.5927
X3.2234Y-5.7018
X3.2596Y-5.7923
X3.2726Y-5.6821
X3.2817Y-4.8888
X3.2821Y-2.8321
X3.2825Y-3.1821
X3.2923Y-3.5561
X3.2967Y-5.5982
X3.3219Y-4.9439
X3.3463Y-3.6364
X3.3754Y-4.4581
X3.3771Y-5.1445
X3.3801Y-3.8148
X3.3841Y-4.8203
X3.386Y-4.6219
X3.3907Y-3.3691
X3.4006Y-2.69
X3.4156Y-5.7923
X3.4203Y-3.8612
X3.4301Y-4.6678
X3.44Y-3.1919
X3.44Y-5.0703
X3.4793Y-4.8258
X3.4856Y-4.347
X3.499Y-5.6478
X3.5159Y-3.9423
X3.5187Y-5.062
X3.5384Y-4.8455
X3.5482Y-4.6593
X3.5482Y-5.2884
X3.5581Y-2.9557
X3.5679Y-4.9537
X3.5679Y-6.2037
X3.5778Y-3.5679
X3.5778Y-5.1014
X3.5778Y-5.2293
X3.5856Y-5.7411
X3.5876Y-2.6801
X3.6148Y-3.8148
X3.6171Y-5.6506
X3.6183Y-5.5537
X3.6289Y-4.9321
X3.6305Y-5.0459
X3.636Y-3.075
X3.6368Y-2.7195
X3.6368Y-4.2549
X3.6762Y-5.2687
X3.6762Y-5.4459
X3.7057Y-3.5167
X3.7057Y-3.8612
X3.7057Y-4.3337
X3.7254Y-3.1033
X3.749Y-4.5211
X3.7648Y-5.0817
X3.7711Y-5.597
X3.7841Y-2.9246
X3.7955Y-3.0112
X3.8041Y-4.688
X3.8093Y-3.5482
X3.814Y-4.0384
X3.819Y-6.1593
X3.8238Y-5.6919
X3.8337Y-4.3415
X3.8502Y-3.4797
X3.8553Y-2.8329
X3.8553Y-3.3069
X3.8589Y-2.7537
X3.8632Y-4.2156
X3.8766Y-4.4581
X3.8813Y-4.8888
X3.8829Y-4.2746
X3.8927Y-5.6919
X3.9026Y-3.1722
X3.9136Y-3.5785
X3.9419Y-3.251
X3.9419Y-4.8455
X3.9419Y-6.0778
X4.0215Y-4.5719
X4.0305Y-3.6152
X4.0305Y-4.8061
X4.06Y-3.3691
X4.0797Y-4.6781
X4.0896Y-3.4085
X4.099Y-5.6341
X4.0994Y-4.7963
X4.1191Y-2.7096
X4.1191Y-3.999
X4.1313Y-2.4746
X4.1388Y-5.3081
X4.1585Y-5.5935
X4.1683Y-4.6781
X4.1722Y-3.9297
X4.188Y-4.373
X4.2274Y-4.3041
X4.247Y-5.7018
X4.3061Y-6.1841
X4.3258Y-4.3041
X4.3278Y-5.5518
X4.3356Y-2.6703
X4.3372Y-4.6246
X4.3553Y-3.3986
X4.3653Y-5.4557
X4.375Y-2.4734
X4.3848Y-6.125
X4.4411Y-5.7911
X4.4439Y-2.7884
X4.4537Y-3.9793
X4.4703Y-5.6356
X4.4734Y-5.1211
X4.4789Y-3.3093
X4.488Y-3.4687
X4.5163Y-3.3494
X4.5226Y-3.3986
X4.525Y-4.8329
X4.5325Y-2.503
X4.5541Y-4.1073
X4.5624Y-4.9242
X4.5817Y-5.2884
X4.5915Y-4.1762
X4.5915Y-5.3573
X4.6112Y-6.0856
X4.6211Y-4.0778
X4.6356Y-5.688
X4.6801Y-3.175
X4.6816Y-4.6846
X4.6835Y-4.6201
X4.6998Y-6.0266
X4.7096Y-5.4557
X4.7293Y-5.2293
X4.7589Y-5.1112
X4.7707Y-3.175
X4.7762Y-3.5053
X4.7781Y-5.4037
X4.7785Y-4.1368
X4.7978Y-5.2982
X4.8352Y-5.5518
T2
X2.9214Y-4.6993
X3.0214Y-4.5993
X3.0214Y-4.7993
X3.301Y-5.3782
X3.301Y-5.8782
X3.4607Y-5.3782
X3.4607Y-5.8782
X3.6205Y-5.3782
X3.6205Y-5.8782
X3.7802Y-5.3782
X3.7802Y-5.8782
X3.94Y-5.3782
X3.94Y-5.8782
X4.0997Y-5.3782
X4.0997Y-5.8782
X4.2595Y-5.3782
X4.2595Y-5.8782
T3
X4.6785Y-2.7577
X4.6785Y-2.9348
X4.6835Y-3.3322
X4.6835Y-3.5094
X4.6835Y-3.7242
X4.6835Y-3.9014
T4
X3.0533Y-3.947
X3.0533Y-4.047
X3.0533Y-4.147
X3.0533Y-4.247
X3.0533Y-4.347
X3.0533Y-4.447
X3.1248Y-5.9891
X3.1279Y-5.1891
X3.1458Y-3.4365
X3.2248Y-5.9891
X3.2279Y-5.1891
X3.2458Y-3.4365
X3.2797Y-5.0093
X3.3152Y-6.1183
X3.3152Y-6.2955
X3.3248Y-5.9891
X3.3279Y-5.1891
X3.3458Y-3.4365
X3.3797Y-5.0093
X3.4248Y-5.9891
X3.4279Y-5.1891
X3.4458Y-3.4365
X3.4797Y-5.0093
X3.512Y-3.6321
X3.5248Y-5.9891
X3.5279Y-5.1891
X3.5458Y-3.4365
X3.5711Y-6.1183
X3.5711Y-6.2955
X3.5797Y-5.0093
X3.612Y-3.6321
X3.6248Y-5.9891
X3.6279Y-5.1891
X3.6458Y-3.4365
X3.6797Y-5.0093
X3.712Y-3.6321
X3.7248Y-5.9891
X3.7279Y-5.1891
X3.7797Y-5.0093
X3.812Y-3.6321
X3.819Y-6.2629
X3.8248Y-5.9891
X3.8279Y-5.1891
X3.8797Y-5.0093
X3.919Y-6.2629
X3.9248Y-5.9891
X3.9279Y-5.1891
X3.9797Y-5.0093
X4.019Y-6.2629
X4.0248Y-5.9891
X4.0279Y-5.1891
X4.0797Y-5.0093
X4.1248Y-5.9891
X4.1279Y-5.1891
X4.2248Y-5.9891
X4.2279Y-5.1891
X4.3279Y-5.1891
X4.4279Y-5.1891
X4.5279Y-5.1891
X4.6279Y-5.1891
X4.8542Y-4.4846
X4.8542Y-4.5846
X4.8542Y-4.6846
T5
X4.1762Y-3.4833
X4.2762Y-3.4833
X4.3762Y-3.4833
T6
X4.5805Y-2.7085
X4.5805Y-2.9844
X4.5854Y-3.283
X4.5854Y-3.559
X4.5854Y-3.675
X4.5854Y-3.951
T7
X4.477Y-5.4022
X4.477Y-5.9022
T8
X3.4045Y-2.5329
T9
X3.3045Y-2.4329
X3.3045Y-2.6329
X3.5045Y-2.4329
X3.5045Y-2.6329
T10
X2.9721Y-2.4997
X2.9721Y-6.1909
X4.7811Y-2.4997
X4.7811Y-6.1909
T11
X3.01Y-3.6904
X3.01Y-4.9904
X4.3494Y-3.6904
X4.3494Y-4.9904
T12
X4.2762Y-2.8274
T0
M30
