%TF.GenerationSoftware,KiCad,Pcbnew,5.1.12-84ad8e8a86~92~ubuntu18.04.1*%
%TF.CreationDate,2022-01-08T13:00:48-05:00*%
%TF.ProjectId,remote,72656d6f-7465-42e6-9b69-6361645f7063,rev?*%
%TF.SameCoordinates,Original*%
%TF.FileFunction,Legend,Top*%
%TF.FilePolarity,Positive*%
%FSLAX46Y46*%
G04 Gerber Fmt 4.6, Leading zero omitted, Abs format (unit mm)*
G04 Created by KiCad (PCBNEW 5.1.12-84ad8e8a86~92~ubuntu18.04.1) date 2022-01-08 13:00:48*
%MOMM*%
%LPD*%
G01*
G04 APERTURE LIST*
%ADD10C,0.150000*%
%ADD11C,0.120000*%
%ADD12C,0.500000*%
%ADD13C,0.300000*%
%ADD14C,0.200000*%
G04 APERTURE END LIST*
D10*
X73420119Y-143251190D02*
X73605833Y-143313095D01*
X73915357Y-143313095D01*
X74039166Y-143251190D01*
X74101071Y-143189285D01*
X74162976Y-143065476D01*
X74162976Y-142941666D01*
X74101071Y-142817857D01*
X74039166Y-142755952D01*
X73915357Y-142694047D01*
X73667738Y-142632142D01*
X73543928Y-142570238D01*
X73482023Y-142508333D01*
X73420119Y-142384523D01*
X73420119Y-142260714D01*
X73482023Y-142136904D01*
X73543928Y-142075000D01*
X73667738Y-142013095D01*
X73977261Y-142013095D01*
X74162976Y-142075000D01*
X74534404Y-142013095D02*
X75277261Y-142013095D01*
X74905833Y-143313095D02*
X74905833Y-142013095D01*
X75710595Y-142632142D02*
X76143928Y-142632142D01*
X76329642Y-143313095D02*
X75710595Y-143313095D01*
X75710595Y-142013095D01*
X76329642Y-142013095D01*
X76886785Y-143313095D02*
X76886785Y-142013095D01*
X77320119Y-142941666D01*
X77753452Y-142013095D01*
X77753452Y-143313095D01*
X78372500Y-143313095D02*
X78372500Y-142013095D01*
X78805833Y-142941666D01*
X79239166Y-142013095D01*
X79239166Y-143313095D01*
X79796309Y-142941666D02*
X80415357Y-142941666D01*
X79672500Y-143313095D02*
X80105833Y-142013095D01*
X80539166Y-143313095D01*
X73482023Y-145413095D02*
X73482023Y-144113095D01*
X74039166Y-144236904D02*
X74101071Y-144175000D01*
X74224880Y-144113095D01*
X74534404Y-144113095D01*
X74658214Y-144175000D01*
X74720119Y-144236904D01*
X74782023Y-144360714D01*
X74782023Y-144484523D01*
X74720119Y-144670238D01*
X73977261Y-145413095D01*
X74782023Y-145413095D01*
X76082023Y-145289285D02*
X76020119Y-145351190D01*
X75834404Y-145413095D01*
X75710595Y-145413095D01*
X75524880Y-145351190D01*
X75401071Y-145227380D01*
X75339166Y-145103571D01*
X75277261Y-144855952D01*
X75277261Y-144670238D01*
X75339166Y-144422619D01*
X75401071Y-144298809D01*
X75524880Y-144175000D01*
X75710595Y-144113095D01*
X75834404Y-144113095D01*
X76020119Y-144175000D01*
X76082023Y-144236904D01*
X109196428Y-61500000D02*
X109072619Y-61438095D01*
X108886904Y-61438095D01*
X108701190Y-61500000D01*
X108577380Y-61623809D01*
X108515476Y-61747619D01*
X108453571Y-61995238D01*
X108453571Y-62180952D01*
X108515476Y-62428571D01*
X108577380Y-62552380D01*
X108701190Y-62676190D01*
X108886904Y-62738095D01*
X109010714Y-62738095D01*
X109196428Y-62676190D01*
X109258333Y-62614285D01*
X109258333Y-62180952D01*
X109010714Y-62180952D01*
X109815476Y-62738095D02*
X109815476Y-61438095D01*
X110310714Y-61438095D01*
X110434523Y-61500000D01*
X110496428Y-61561904D01*
X110558333Y-61685714D01*
X110558333Y-61871428D01*
X110496428Y-61995238D01*
X110434523Y-62057142D01*
X110310714Y-62119047D01*
X109815476Y-62119047D01*
X111053571Y-62676190D02*
X111239285Y-62738095D01*
X111548809Y-62738095D01*
X111672619Y-62676190D01*
X111734523Y-62614285D01*
X111796428Y-62490476D01*
X111796428Y-62366666D01*
X111734523Y-62242857D01*
X111672619Y-62180952D01*
X111548809Y-62119047D01*
X111301190Y-62057142D01*
X111177380Y-61995238D01*
X111115476Y-61933333D01*
X111053571Y-61809523D01*
X111053571Y-61685714D01*
X111115476Y-61561904D01*
X111177380Y-61500000D01*
X111301190Y-61438095D01*
X111610714Y-61438095D01*
X111796428Y-61500000D01*
X84982142Y-62738095D02*
X84363095Y-62738095D01*
X84363095Y-61438095D01*
X85601190Y-62738095D02*
X85477380Y-62676190D01*
X85415476Y-62614285D01*
X85353571Y-62490476D01*
X85353571Y-62119047D01*
X85415476Y-61995238D01*
X85477380Y-61933333D01*
X85601190Y-61871428D01*
X85786904Y-61871428D01*
X85910714Y-61933333D01*
X85972619Y-61995238D01*
X86034523Y-62119047D01*
X86034523Y-62490476D01*
X85972619Y-62614285D01*
X85910714Y-62676190D01*
X85786904Y-62738095D01*
X85601190Y-62738095D01*
X87334523Y-62738095D02*
X86901190Y-62119047D01*
X86591666Y-62738095D02*
X86591666Y-61438095D01*
X87086904Y-61438095D01*
X87210714Y-61500000D01*
X87272619Y-61561904D01*
X87334523Y-61685714D01*
X87334523Y-61871428D01*
X87272619Y-61995238D01*
X87210714Y-62057142D01*
X87086904Y-62119047D01*
X86591666Y-62119047D01*
X87829761Y-62366666D02*
X88448809Y-62366666D01*
X87705952Y-62738095D02*
X88139285Y-61438095D01*
X88572619Y-62738095D01*
X120003571Y-142971428D02*
X120003571Y-143838095D01*
X119446428Y-142971428D02*
X119446428Y-143652380D01*
X119508333Y-143776190D01*
X119632142Y-143838095D01*
X119817857Y-143838095D01*
X119941666Y-143776190D01*
X120003571Y-143714285D01*
X120622619Y-142538095D02*
X120622619Y-143590476D01*
X120684523Y-143714285D01*
X120746428Y-143776190D01*
X120870238Y-143838095D01*
X121117857Y-143838095D01*
X121241666Y-143776190D01*
X121303571Y-143714285D01*
X121365476Y-143590476D01*
X121365476Y-142538095D01*
X121922619Y-143776190D02*
X122108333Y-143838095D01*
X122417857Y-143838095D01*
X122541666Y-143776190D01*
X122603571Y-143714285D01*
X122665476Y-143590476D01*
X122665476Y-143466666D01*
X122603571Y-143342857D01*
X122541666Y-143280952D01*
X122417857Y-143219047D01*
X122170238Y-143157142D01*
X122046428Y-143095238D01*
X121984523Y-143033333D01*
X121922619Y-142909523D01*
X121922619Y-142785714D01*
X121984523Y-142661904D01*
X122046428Y-142600000D01*
X122170238Y-142538095D01*
X122479761Y-142538095D01*
X122665476Y-142600000D01*
X123655952Y-143157142D02*
X123841666Y-143219047D01*
X123903571Y-143280952D01*
X123965476Y-143404761D01*
X123965476Y-143590476D01*
X123903571Y-143714285D01*
X123841666Y-143776190D01*
X123717857Y-143838095D01*
X123222619Y-143838095D01*
X123222619Y-142538095D01*
X123655952Y-142538095D01*
X123779761Y-142600000D01*
X123841666Y-142661904D01*
X123903571Y-142785714D01*
X123903571Y-142909523D01*
X123841666Y-143033333D01*
X123779761Y-143095238D01*
X123655952Y-143157142D01*
X123222619Y-143157142D01*
D11*
X124350000Y-116450000D02*
X120625000Y-116450000D01*
D12*
X83050000Y-94200000D02*
X83550000Y-93650000D01*
X83050000Y-93200000D02*
X83550000Y-93650000D01*
D11*
X85385533Y-93650000D02*
G75*
G03*
X85385533Y-93650000I-1767767J0D01*
G01*
D10*
X100257142Y-93128571D02*
X100614285Y-94128571D01*
X100971428Y-93128571D01*
X101828571Y-92628571D02*
X101971428Y-92628571D01*
X102114285Y-92700000D01*
X102185714Y-92771428D01*
X102257142Y-92914285D01*
X102328571Y-93200000D01*
X102328571Y-93557142D01*
X102257142Y-93842857D01*
X102185714Y-93985714D01*
X102114285Y-94057142D01*
X101971428Y-94128571D01*
X101828571Y-94128571D01*
X101685714Y-94057142D01*
X101614285Y-93985714D01*
X101542857Y-93842857D01*
X101471428Y-93557142D01*
X101471428Y-93200000D01*
X101542857Y-92914285D01*
X101614285Y-92771428D01*
X101685714Y-92700000D01*
X101828571Y-92628571D01*
X102971428Y-93985714D02*
X103042857Y-94057142D01*
X102971428Y-94128571D01*
X102900000Y-94057142D01*
X102971428Y-93985714D01*
X102971428Y-94128571D01*
X104471428Y-94128571D02*
X103614285Y-94128571D01*
X104042857Y-94128571D02*
X104042857Y-92628571D01*
X103900000Y-92842857D01*
X103757142Y-92985714D01*
X103614285Y-93057142D01*
D12*
X83550000Y-92650000D02*
X84550000Y-93650000D01*
X83650000Y-94650000D02*
X84550000Y-93650000D01*
D13*
X86590476Y-93164285D02*
X87542857Y-93164285D01*
X86947619Y-92330952D02*
X86947619Y-94473809D01*
X87066666Y-94711904D01*
X87304761Y-94830952D01*
X87542857Y-94830952D01*
X88376190Y-94830952D02*
X88376190Y-93164285D01*
X88376190Y-93640476D02*
X88495238Y-93402380D01*
X88614285Y-93283333D01*
X88852380Y-93164285D01*
X89090476Y-93164285D01*
X90995238Y-94830952D02*
X90995238Y-93521428D01*
X90876190Y-93283333D01*
X90638095Y-93164285D01*
X90161904Y-93164285D01*
X89923809Y-93283333D01*
X90995238Y-94711904D02*
X90757142Y-94830952D01*
X90161904Y-94830952D01*
X89923809Y-94711904D01*
X89804761Y-94473809D01*
X89804761Y-94235714D01*
X89923809Y-93997619D01*
X90161904Y-93878571D01*
X90757142Y-93878571D01*
X90995238Y-93759523D01*
X93257142Y-94711904D02*
X93019047Y-94830952D01*
X92542857Y-94830952D01*
X92304761Y-94711904D01*
X92185714Y-94592857D01*
X92066666Y-94354761D01*
X92066666Y-93640476D01*
X92185714Y-93402380D01*
X92304761Y-93283333D01*
X92542857Y-93164285D01*
X93019047Y-93164285D01*
X93257142Y-93283333D01*
X94328571Y-94830952D02*
X94328571Y-92330952D01*
X94566666Y-93878571D02*
X95280952Y-94830952D01*
X95280952Y-93164285D02*
X94328571Y-94116666D01*
X97304761Y-94711904D02*
X97066666Y-94830952D01*
X96590476Y-94830952D01*
X96352380Y-94711904D01*
X96233333Y-94473809D01*
X96233333Y-93521428D01*
X96352380Y-93283333D01*
X96590476Y-93164285D01*
X97066666Y-93164285D01*
X97304761Y-93283333D01*
X97423809Y-93521428D01*
X97423809Y-93759523D01*
X96233333Y-93997619D01*
X98495238Y-94830952D02*
X98495238Y-93164285D01*
X98495238Y-93640476D02*
X98614285Y-93402380D01*
X98733333Y-93283333D01*
X98971428Y-93164285D01*
X99209523Y-93164285D01*
D14*
X83019047Y-126210714D02*
X83019047Y-127910714D01*
X83019047Y-126291666D02*
X83180952Y-126210714D01*
X83504761Y-126210714D01*
X83666666Y-126291666D01*
X83747619Y-126372619D01*
X83828571Y-126534523D01*
X83828571Y-127020238D01*
X83747619Y-127182142D01*
X83666666Y-127263095D01*
X83504761Y-127344047D01*
X83180952Y-127344047D01*
X83019047Y-127263095D01*
X84395238Y-126210714D02*
X84800000Y-127344047D01*
X85204761Y-126210714D01*
X86095238Y-127344047D02*
X85933333Y-127263095D01*
X85852380Y-127182142D01*
X85771428Y-127020238D01*
X85771428Y-126534523D01*
X85852380Y-126372619D01*
X85933333Y-126291666D01*
X86095238Y-126210714D01*
X86338095Y-126210714D01*
X86500000Y-126291666D01*
X86580952Y-126372619D01*
X86661904Y-126534523D01*
X86661904Y-127020238D01*
X86580952Y-127182142D01*
X86500000Y-127263095D01*
X86338095Y-127344047D01*
X86095238Y-127344047D01*
X87309523Y-127263095D02*
X87471428Y-127344047D01*
X87795238Y-127344047D01*
X87957142Y-127263095D01*
X88038095Y-127101190D01*
X88038095Y-127020238D01*
X87957142Y-126858333D01*
X87795238Y-126777380D01*
X87552380Y-126777380D01*
X87390476Y-126696428D01*
X87309523Y-126534523D01*
X87309523Y-126453571D01*
X87390476Y-126291666D01*
X87552380Y-126210714D01*
X87795238Y-126210714D01*
X87957142Y-126291666D01*
X88766666Y-127182142D02*
X88847619Y-127263095D01*
X88766666Y-127344047D01*
X88685714Y-127263095D01*
X88766666Y-127182142D01*
X88766666Y-127344047D01*
X89819047Y-127344047D02*
X89657142Y-127263095D01*
X89576190Y-127182142D01*
X89495238Y-127020238D01*
X89495238Y-126534523D01*
X89576190Y-126372619D01*
X89657142Y-126291666D01*
X89819047Y-126210714D01*
X90061904Y-126210714D01*
X90223809Y-126291666D01*
X90304761Y-126372619D01*
X90385714Y-126534523D01*
X90385714Y-127020238D01*
X90304761Y-127182142D01*
X90223809Y-127263095D01*
X90061904Y-127344047D01*
X89819047Y-127344047D01*
X91114285Y-127344047D02*
X91114285Y-126210714D01*
X91114285Y-126534523D02*
X91195238Y-126372619D01*
X91276190Y-126291666D01*
X91438095Y-126210714D01*
X91600000Y-126210714D01*
X92895238Y-126210714D02*
X92895238Y-127586904D01*
X92814285Y-127748809D01*
X92733333Y-127829761D01*
X92571428Y-127910714D01*
X92328571Y-127910714D01*
X92166666Y-127829761D01*
X92895238Y-127263095D02*
X92733333Y-127344047D01*
X92409523Y-127344047D01*
X92247619Y-127263095D01*
X92166666Y-127182142D01*
X92085714Y-127020238D01*
X92085714Y-126534523D01*
X92166666Y-126372619D01*
X92247619Y-126291666D01*
X92409523Y-126210714D01*
X92733333Y-126210714D01*
X92895238Y-126291666D01*
X94919047Y-125563095D02*
X93461904Y-127748809D01*
X95242857Y-126210714D02*
X95890476Y-126210714D01*
X95485714Y-125644047D02*
X95485714Y-127101190D01*
X95566666Y-127263095D01*
X95728571Y-127344047D01*
X95890476Y-127344047D01*
X96457142Y-127344047D02*
X96457142Y-126210714D01*
X96457142Y-126534523D02*
X96538095Y-126372619D01*
X96619047Y-126291666D01*
X96780952Y-126210714D01*
X96942857Y-126210714D01*
X98238095Y-127344047D02*
X98238095Y-126453571D01*
X98157142Y-126291666D01*
X97995238Y-126210714D01*
X97671428Y-126210714D01*
X97509523Y-126291666D01*
X98238095Y-127263095D02*
X98076190Y-127344047D01*
X97671428Y-127344047D01*
X97509523Y-127263095D01*
X97428571Y-127101190D01*
X97428571Y-126939285D01*
X97509523Y-126777380D01*
X97671428Y-126696428D01*
X98076190Y-126696428D01*
X98238095Y-126615476D01*
X99776190Y-127263095D02*
X99614285Y-127344047D01*
X99290476Y-127344047D01*
X99128571Y-127263095D01*
X99047619Y-127182142D01*
X98966666Y-127020238D01*
X98966666Y-126534523D01*
X99047619Y-126372619D01*
X99128571Y-126291666D01*
X99290476Y-126210714D01*
X99614285Y-126210714D01*
X99776190Y-126291666D01*
X100504761Y-127344047D02*
X100504761Y-125644047D01*
X100666666Y-126696428D02*
X101152380Y-127344047D01*
X101152380Y-126210714D02*
X100504761Y-126858333D01*
X102528571Y-127263095D02*
X102366666Y-127344047D01*
X102042857Y-127344047D01*
X101880952Y-127263095D01*
X101800000Y-127101190D01*
X101800000Y-126453571D01*
X101880952Y-126291666D01*
X102042857Y-126210714D01*
X102366666Y-126210714D01*
X102528571Y-126291666D01*
X102609523Y-126453571D01*
X102609523Y-126615476D01*
X101800000Y-126777380D01*
X103338095Y-127344047D02*
X103338095Y-126210714D01*
X103338095Y-126534523D02*
X103419047Y-126372619D01*
X103500000Y-126291666D01*
X103661904Y-126210714D01*
X103823809Y-126210714D01*
D10*
X94809523Y-160338095D02*
X94190476Y-160338095D01*
X94190476Y-159038095D01*
X95490476Y-159038095D02*
X95738095Y-159038095D01*
X95861904Y-159100000D01*
X95985714Y-159223809D01*
X96047619Y-159471428D01*
X96047619Y-159904761D01*
X95985714Y-160152380D01*
X95861904Y-160276190D01*
X95738095Y-160338095D01*
X95490476Y-160338095D01*
X95366666Y-160276190D01*
X95242857Y-160152380D01*
X95180952Y-159904761D01*
X95180952Y-159471428D01*
X95242857Y-159223809D01*
X95366666Y-159100000D01*
X95490476Y-159038095D01*
X97285714Y-159100000D02*
X97161904Y-159038095D01*
X96976190Y-159038095D01*
X96790476Y-159100000D01*
X96666666Y-159223809D01*
X96604761Y-159347619D01*
X96542857Y-159595238D01*
X96542857Y-159780952D01*
X96604761Y-160028571D01*
X96666666Y-160152380D01*
X96790476Y-160276190D01*
X96976190Y-160338095D01*
X97100000Y-160338095D01*
X97285714Y-160276190D01*
X97347619Y-160214285D01*
X97347619Y-159780952D01*
X97100000Y-159780952D01*
X98833333Y-158976190D02*
X97719047Y-160647619D01*
X99266666Y-160338095D02*
X99266666Y-159038095D01*
X99761904Y-159038095D01*
X99885714Y-159100000D01*
X99947619Y-159161904D01*
X100009523Y-159285714D01*
X100009523Y-159471428D01*
X99947619Y-159595238D01*
X99885714Y-159657142D01*
X99761904Y-159719047D01*
X99266666Y-159719047D01*
X101309523Y-160338095D02*
X100876190Y-159719047D01*
X100566666Y-160338095D02*
X100566666Y-159038095D01*
X101061904Y-159038095D01*
X101185714Y-159100000D01*
X101247619Y-159161904D01*
X101309523Y-159285714D01*
X101309523Y-159471428D01*
X101247619Y-159595238D01*
X101185714Y-159657142D01*
X101061904Y-159719047D01*
X100566666Y-159719047D01*
X102114285Y-159038095D02*
X102361904Y-159038095D01*
X102485714Y-159100000D01*
X102609523Y-159223809D01*
X102671428Y-159471428D01*
X102671428Y-159904761D01*
X102609523Y-160152380D01*
X102485714Y-160276190D01*
X102361904Y-160338095D01*
X102114285Y-160338095D01*
X101990476Y-160276190D01*
X101866666Y-160152380D01*
X101804761Y-159904761D01*
X101804761Y-159471428D01*
X101866666Y-159223809D01*
X101990476Y-159100000D01*
X102114285Y-159038095D01*
X103909523Y-159100000D02*
X103785714Y-159038095D01*
X103600000Y-159038095D01*
X103414285Y-159100000D01*
X103290476Y-159223809D01*
X103228571Y-159347619D01*
X103166666Y-159595238D01*
X103166666Y-159780952D01*
X103228571Y-160028571D01*
X103290476Y-160152380D01*
X103414285Y-160276190D01*
X103600000Y-160338095D01*
X103723809Y-160338095D01*
X103909523Y-160276190D01*
X103971428Y-160214285D01*
X103971428Y-159780952D01*
X103723809Y-159780952D01*
X120227380Y-72700000D02*
X121179761Y-72700000D01*
X120036904Y-73214285D02*
X120703571Y-71414285D01*
X121370237Y-73214285D01*
X120717857Y-86971428D02*
X121003571Y-87057142D01*
X121098809Y-87142857D01*
X121194047Y-87314285D01*
X121194047Y-87571428D01*
X121098809Y-87742857D01*
X121003571Y-87828571D01*
X120813095Y-87914285D01*
X120051190Y-87914285D01*
X120051190Y-86114285D01*
X120717857Y-86114285D01*
X120908333Y-86200000D01*
X121003571Y-86285714D01*
X121098809Y-86457142D01*
X121098809Y-86628571D01*
X121003571Y-86800000D01*
X120908333Y-86885714D01*
X120717857Y-86971428D01*
X120051190Y-86971428D01*
X121194047Y-98014285D02*
X121098809Y-98109523D01*
X120813095Y-98204761D01*
X120622619Y-98204761D01*
X120336904Y-98109523D01*
X120146428Y-97919047D01*
X120051190Y-97728571D01*
X119955952Y-97347619D01*
X119955952Y-97061904D01*
X120051190Y-96680952D01*
X120146428Y-96490476D01*
X120336904Y-96300000D01*
X120622619Y-96204761D01*
X120813095Y-96204761D01*
X121098809Y-96300000D01*
X121194047Y-96395238D01*
D14*
X120185714Y-117614285D02*
X120528571Y-117614285D01*
X120700000Y-117700000D01*
X120871428Y-117871428D01*
X120957142Y-118214285D01*
X120957142Y-118814285D01*
X120871428Y-119157142D01*
X120700000Y-119328571D01*
X120528571Y-119414285D01*
X120185714Y-119414285D01*
X120014285Y-119328571D01*
X119842857Y-119157142D01*
X119757142Y-118814285D01*
X119757142Y-118214285D01*
X119842857Y-117871428D01*
X120014285Y-117700000D01*
X120185714Y-117614285D01*
X122328571Y-118471428D02*
X121728571Y-118471428D01*
X121728571Y-119414285D02*
X121728571Y-117614285D01*
X122585714Y-117614285D01*
X123871428Y-118471428D02*
X123271428Y-118471428D01*
X123271428Y-119414285D02*
X123271428Y-117614285D01*
X124128571Y-117614285D01*
X121485714Y-113464285D02*
X121828571Y-113464285D01*
X122000000Y-113550000D01*
X122171428Y-113721428D01*
X122257142Y-114064285D01*
X122257142Y-114664285D01*
X122171428Y-115007142D01*
X122000000Y-115178571D01*
X121828571Y-115264285D01*
X121485714Y-115264285D01*
X121314285Y-115178571D01*
X121142857Y-115007142D01*
X121057142Y-114664285D01*
X121057142Y-114064285D01*
X121142857Y-113721428D01*
X121314285Y-113550000D01*
X121485714Y-113464285D01*
X123028571Y-115264285D02*
X123028571Y-113464285D01*
X124057142Y-115264285D01*
X124057142Y-113464285D01*
D10*
X85236904Y-160338095D02*
X84803571Y-159719047D01*
X84494047Y-160338095D02*
X84494047Y-159038095D01*
X84989285Y-159038095D01*
X85113095Y-159100000D01*
X85175000Y-159161904D01*
X85236904Y-159285714D01*
X85236904Y-159471428D01*
X85175000Y-159595238D01*
X85113095Y-159657142D01*
X84989285Y-159719047D01*
X84494047Y-159719047D01*
X85794047Y-159657142D02*
X86227380Y-159657142D01*
X86413095Y-160338095D02*
X85794047Y-160338095D01*
X85794047Y-159038095D01*
X86413095Y-159038095D01*
X86908333Y-160276190D02*
X87094047Y-160338095D01*
X87403571Y-160338095D01*
X87527380Y-160276190D01*
X87589285Y-160214285D01*
X87651190Y-160090476D01*
X87651190Y-159966666D01*
X87589285Y-159842857D01*
X87527380Y-159780952D01*
X87403571Y-159719047D01*
X87155952Y-159657142D01*
X87032142Y-159595238D01*
X86970238Y-159533333D01*
X86908333Y-159409523D01*
X86908333Y-159285714D01*
X86970238Y-159161904D01*
X87032142Y-159100000D01*
X87155952Y-159038095D01*
X87465476Y-159038095D01*
X87651190Y-159100000D01*
X88208333Y-159657142D02*
X88641666Y-159657142D01*
X88827380Y-160338095D02*
X88208333Y-160338095D01*
X88208333Y-159038095D01*
X88827380Y-159038095D01*
X89198809Y-159038095D02*
X89941666Y-159038095D01*
X89570238Y-160338095D02*
X89570238Y-159038095D01*
X110630952Y-156288095D02*
X111435714Y-156288095D01*
X111002380Y-156783333D01*
X111188095Y-156783333D01*
X111311904Y-156845238D01*
X111373809Y-156907142D01*
X111435714Y-157030952D01*
X111435714Y-157340476D01*
X111373809Y-157464285D01*
X111311904Y-157526190D01*
X111188095Y-157588095D01*
X110816666Y-157588095D01*
X110692857Y-157526190D01*
X110630952Y-157464285D01*
X111992857Y-157464285D02*
X112054761Y-157526190D01*
X111992857Y-157588095D01*
X111930952Y-157526190D01*
X111992857Y-157464285D01*
X111992857Y-157588095D01*
X112488095Y-156288095D02*
X113354761Y-156288095D01*
X112797619Y-157588095D01*
X113664285Y-156288095D02*
X114097619Y-157588095D01*
X114530952Y-156288095D01*
M02*
