%TF.GenerationSoftware,KiCad,Pcbnew,5.1.12-84ad8e8a86~92~ubuntu18.04.1*%
%TF.CreationDate,2022-01-08T21:29:22-05:00*%
%TF.ProjectId,remote,72656d6f-7465-42e6-9b69-6361645f7063,rev?*%
%TF.SameCoordinates,Original*%
%TF.FileFunction,Soldermask,Top*%
%TF.FilePolarity,Negative*%
%FSLAX46Y46*%
G04 Gerber Fmt 4.6, Leading zero omitted, Abs format (unit mm)*
G04 Created by KiCad (PCBNEW 5.1.12-84ad8e8a86~92~ubuntu18.04.1) date 2022-01-08 21:29:22*
%MOMM*%
%LPD*%
G01*
G04 APERTURE LIST*
%ADD10O,1.800000X1.800000*%
%ADD11O,2.100000X2.005000*%
%ADD12O,3.600000X3.600000*%
%ADD13O,1.700000X1.700000*%
%ADD14C,1.700000*%
%ADD15O,1.100000X2.100000*%
%ADD16C,2.350000*%
%ADD17C,2.150000*%
G04 APERTURE END LIST*
D10*
%TO.C,J2*%
X23550000Y-115270000D03*
X23550000Y-117810000D03*
X23550000Y-120350000D03*
X23550000Y-122890000D03*
G36*
G01*
X24450000Y-124580000D02*
X24450000Y-126280000D01*
G75*
G02*
X24400000Y-126330000I-50000J0D01*
G01*
X22700000Y-126330000D01*
G75*
G02*
X22650000Y-126280000I0J50000D01*
G01*
X22650000Y-124580000D01*
G75*
G02*
X22700000Y-124530000I50000J0D01*
G01*
X24400000Y-124530000D01*
G75*
G02*
X24450000Y-124580000I0J-50000D01*
G01*
G37*
%TD*%
D11*
%TO.C,Q1*%
X26940000Y-144730000D03*
X26940000Y-147270000D03*
G36*
G01*
X27940000Y-150812500D02*
X25940000Y-150812500D01*
G75*
G02*
X25890000Y-150762500I0J50000D01*
G01*
X25890000Y-148857500D01*
G75*
G02*
X25940000Y-148807500I50000J0D01*
G01*
X27940000Y-148807500D01*
G75*
G02*
X27990000Y-148857500I0J-50000D01*
G01*
X27990000Y-150762500D01*
G75*
G02*
X27940000Y-150812500I-50000J0D01*
G01*
G37*
D12*
X43600000Y-147270000D03*
%TD*%
D13*
%TO.C,R3*%
X44670000Y-140140000D03*
D14*
X31970000Y-140140000D03*
%TD*%
%TO.C,JP1*%
G36*
G01*
X23510000Y-153550000D02*
X25010000Y-153550000D01*
G75*
G02*
X25060000Y-153600000I0J-50000D01*
G01*
X25060000Y-154600000D01*
G75*
G02*
X25010000Y-154650000I-50000J0D01*
G01*
X23510000Y-154650000D01*
G75*
G02*
X23460000Y-154600000I0J50000D01*
G01*
X23460000Y-153600000D01*
G75*
G02*
X23510000Y-153550000I50000J0D01*
G01*
G37*
G36*
G01*
X23510000Y-154850000D02*
X25010000Y-154850000D01*
G75*
G02*
X25060000Y-154900000I0J-50000D01*
G01*
X25060000Y-155900000D01*
G75*
G02*
X25010000Y-155950000I-50000J0D01*
G01*
X23510000Y-155950000D01*
G75*
G02*
X23460000Y-155900000I0J50000D01*
G01*
X23460000Y-154900000D01*
G75*
G02*
X23510000Y-154850000I50000J0D01*
G01*
G37*
%TD*%
D15*
%TO.C,U1*%
X31040000Y-119480000D03*
X33040000Y-119480000D03*
X35040000Y-119480000D03*
X37040000Y-119480000D03*
X39040000Y-119480000D03*
X41040000Y-119480000D03*
X43040000Y-119480000D03*
X45040000Y-119480000D03*
X45040000Y-103480000D03*
X43040000Y-103480000D03*
X41040000Y-103480000D03*
X39040000Y-103480000D03*
X37040000Y-103480000D03*
X35040000Y-103480000D03*
X33040000Y-103480000D03*
X31040000Y-103480000D03*
%TD*%
%TO.C,J20*%
G36*
G01*
X34510000Y-152530000D02*
X34510000Y-151230000D01*
G75*
G02*
X34685000Y-151055000I175000J0D01*
G01*
X35035000Y-151055000D01*
G75*
G02*
X35210000Y-151230000I0J-175000D01*
G01*
X35210000Y-152530000D01*
G75*
G02*
X35035000Y-152705000I-175000J0D01*
G01*
X34685000Y-152705000D01*
G75*
G02*
X34510000Y-152530000I0J175000D01*
G01*
G37*
G36*
G01*
X35510000Y-152530000D02*
X35510000Y-151230000D01*
G75*
G02*
X35685000Y-151055000I175000J0D01*
G01*
X36035000Y-151055000D01*
G75*
G02*
X36210000Y-151230000I0J-175000D01*
G01*
X36210000Y-152530000D01*
G75*
G02*
X36035000Y-152705000I-175000J0D01*
G01*
X35685000Y-152705000D01*
G75*
G02*
X35510000Y-152530000I0J175000D01*
G01*
G37*
G36*
G01*
X36510000Y-152530000D02*
X36510000Y-151230000D01*
G75*
G02*
X36685000Y-151055000I175000J0D01*
G01*
X37035000Y-151055000D01*
G75*
G02*
X37210000Y-151230000I0J-175000D01*
G01*
X37210000Y-152530000D01*
G75*
G02*
X37035000Y-152705000I-175000J0D01*
G01*
X36685000Y-152705000D01*
G75*
G02*
X36510000Y-152530000I0J175000D01*
G01*
G37*
G36*
G01*
X37510000Y-152530000D02*
X37510000Y-151230000D01*
G75*
G02*
X37685000Y-151055000I175000J0D01*
G01*
X38035000Y-151055000D01*
G75*
G02*
X38210000Y-151230000I0J-175000D01*
G01*
X38210000Y-152530000D01*
G75*
G02*
X38035000Y-152705000I-175000J0D01*
G01*
X37685000Y-152705000D01*
G75*
G02*
X37510000Y-152530000I0J175000D01*
G01*
G37*
G36*
G01*
X32910000Y-156434168D02*
X32910000Y-155075832D01*
G75*
G02*
X33180832Y-154805000I270832J0D01*
G01*
X33939168Y-154805000D01*
G75*
G02*
X34210000Y-155075832I0J-270832D01*
G01*
X34210000Y-156434168D01*
G75*
G02*
X33939168Y-156705000I-270832J0D01*
G01*
X33180832Y-156705000D01*
G75*
G02*
X32910000Y-156434168I0J270832D01*
G01*
G37*
G36*
G01*
X38510000Y-156434168D02*
X38510000Y-155075832D01*
G75*
G02*
X38780832Y-154805000I270832J0D01*
G01*
X39539168Y-154805000D01*
G75*
G02*
X39810000Y-155075832I0J-270832D01*
G01*
X39810000Y-156434168D01*
G75*
G02*
X39539168Y-156705000I-270832J0D01*
G01*
X38780832Y-156705000D01*
G75*
G02*
X38510000Y-156434168I0J270832D01*
G01*
G37*
%TD*%
D10*
%TO.C,U2*%
X27740000Y-134990000D03*
G36*
G01*
X28640000Y-139220000D02*
X28640000Y-140920000D01*
G75*
G02*
X28590000Y-140970000I-50000J0D01*
G01*
X26890000Y-140970000D01*
G75*
G02*
X26840000Y-140920000I0J50000D01*
G01*
X26840000Y-139220000D01*
G75*
G02*
X26890000Y-139170000I50000J0D01*
G01*
X28590000Y-139170000D01*
G75*
G02*
X28640000Y-139220000I0J-50000D01*
G01*
G37*
X27740000Y-122290000D03*
X27740000Y-114670000D03*
X27740000Y-137530000D03*
X27740000Y-127370000D03*
X27740000Y-124830000D03*
X27740000Y-112130000D03*
X27740000Y-119750000D03*
X27740000Y-117210000D03*
X27740000Y-132450000D03*
X27740000Y-129910000D03*
G36*
G01*
X48960000Y-149460000D02*
X48960000Y-151160000D01*
G75*
G02*
X48910000Y-151210000I-50000J0D01*
G01*
X47210000Y-151210000D01*
G75*
G02*
X47160000Y-151160000I0J50000D01*
G01*
X47160000Y-149460000D01*
G75*
G02*
X47210000Y-149410000I50000J0D01*
G01*
X48910000Y-149410000D01*
G75*
G02*
X48960000Y-149460000I0J-50000D01*
G01*
G37*
X48060000Y-147770000D03*
X48060000Y-145230000D03*
X48060000Y-142690000D03*
X48060000Y-140150000D03*
X48060000Y-137610000D03*
X48060000Y-135070000D03*
X48060000Y-132530000D03*
X48060000Y-129990000D03*
X48060000Y-127450000D03*
X48060000Y-124910000D03*
X48060000Y-122370000D03*
X48060000Y-119830000D03*
X48060000Y-117290000D03*
X48060000Y-114750000D03*
X48060000Y-112210000D03*
%TD*%
D16*
%TO.C,J1*%
X42640000Y-100500000D03*
X42640000Y-95420000D03*
X47720000Y-95420000D03*
X47720000Y-100500000D03*
D17*
X45180000Y-97960000D03*
%TD*%
%TO.C,U5*%
G36*
G01*
X42480000Y-129180000D02*
X40780000Y-129180000D01*
G75*
G02*
X40730000Y-129130000I0J50000D01*
G01*
X40730000Y-127430000D01*
G75*
G02*
X40780000Y-127380000I50000J0D01*
G01*
X42480000Y-127380000D01*
G75*
G02*
X42530000Y-127430000I0J-50000D01*
G01*
X42530000Y-129130000D01*
G75*
G02*
X42480000Y-129180000I-50000J0D01*
G01*
G37*
D10*
X39090000Y-128280000D03*
X36550000Y-128280000D03*
X34010000Y-128280000D03*
X31470000Y-128280000D03*
%TD*%
D13*
%TO.C,R1*%
X44740000Y-132280000D03*
D14*
X32040000Y-132280000D03*
%TD*%
D13*
%TO.C,R2*%
X44740000Y-136210000D03*
D14*
X32040000Y-136210000D03*
%TD*%
D10*
%TO.C,J19*%
X23550000Y-104600000D03*
X23550000Y-107140000D03*
G36*
G01*
X24450000Y-108830000D02*
X24450000Y-110530000D01*
G75*
G02*
X24400000Y-110580000I-50000J0D01*
G01*
X22700000Y-110580000D01*
G75*
G02*
X22650000Y-110530000I0J50000D01*
G01*
X22650000Y-108830000D01*
G75*
G02*
X22700000Y-108780000I50000J0D01*
G01*
X24400000Y-108780000D01*
G75*
G02*
X24450000Y-108830000I0J-50000D01*
G01*
G37*
%TD*%
%TO.C,J5*%
X23600000Y-136770000D03*
X23600000Y-134230000D03*
G36*
G01*
X22700000Y-132540000D02*
X22700000Y-130840000D01*
G75*
G02*
X22750000Y-130790000I50000J0D01*
G01*
X24450000Y-130790000D01*
G75*
G02*
X24500000Y-130840000I0J-50000D01*
G01*
X24500000Y-132540000D01*
G75*
G02*
X24450000Y-132590000I-50000J0D01*
G01*
X22750000Y-132590000D01*
G75*
G02*
X22700000Y-132540000I0J50000D01*
G01*
G37*
%TD*%
M02*
