M48
; DRILL file {KiCad 5.1.12-84ad8e8a86~92~ubuntu18.04.1} date Sat 08 Jan 2022 09:29:27 PM EST
; FORMAT={-:-/ absolute / inch / decimal}
; #@! TF.CreationDate,2022-01-08T21:29:27-05:00
; #@! TF.GenerationSoftware,Kicad,Pcbnew,5.1.12-84ad8e8a86~92~ubuntu18.04.1
FMAT,2
INCH
T1C0.0157
T2C0.0315
T3C0.0394
T4C0.0433
T5C0.0591
T6C0.0669
T7C0.1378
%
G90
G05
T1
X0.9709Y-5.698
X0.9882Y-4.5339
X1.0256Y-4.3768
X1.037Y-4.9622
X1.037Y-5.5909
X1.0374Y-6.126
X1.1504Y-4.8685
X1.152Y-5.4524
X1.1622Y-4.4394
X1.1795Y-5.8016
X1.1795Y-6.1276
X1.1941Y-5.3689
X1.2059Y-5.302
X1.2094Y-5.5925
X1.2181Y-4.8059
X1.2181Y-4.9
X1.2189Y-4.2122
X1.2366Y-4.9476
X1.248Y-5.8823
X1.265Y-4.6354
X1.2764Y-4.9034
X1.2791Y-4.8642
X1.2874Y-4.9906
X1.3055Y-4.8224
X1.3228Y-5.7984
X1.3386Y-4.9087
X1.3681Y-5.6906
X1.372Y-5.6102
X1.3823Y-4.335
X1.3835Y-4.7965
X1.4004Y-5.2917
X1.4043Y-4.5177
X1.411Y-5.6921
X1.4193Y-4.2898
X1.4469Y-5.1575
X1.4547Y-5.3874
X1.4579Y-4.5425
X1.4583Y-4.7736
X1.4591Y-4.9461
X1.4996Y-4.4055
X1.511Y-5.2091
X1.5173Y-4.1614
X1.5201Y-4.3118
X1.5343Y-4.7866
X1.537Y-4.4661
X1.5378Y-4.9433
X1.6043Y-4.6138
X1.6161Y-4.8543
X1.6421Y-5.5063
X1.6492Y-4.5264
X1.6496Y-5.1311
X1.6898Y-4.8634
X1.6941Y-4.4504
X1.6945Y-4.2067
X1.6969Y-4.9157
X1.6996Y-5.2665
X1.7252Y-4.5209
X1.7283Y-5.1626
X1.7598Y-5.6122
X1.7717Y-4.4547
X1.7799Y-5.0098
X1.8098Y-4.3787
X1.8161Y-4.9772
X1.8185Y-4.8047
X1.8185Y-4.9252
X1.8189Y-5.6906
X1.826Y-5.4287
T2
X1.2587Y-5.5173
X1.2614Y-5.2079
X1.2614Y-5.3626
X1.7587Y-5.5173
X1.7614Y-5.2079
X1.7614Y-5.3626
T3
X0.9272Y-4.1181
X0.9272Y-4.2181
X0.9272Y-4.3181
X0.9272Y-4.5382
X0.9272Y-4.6382
X0.9272Y-4.7382
X0.9272Y-4.8382
X0.9272Y-4.9382
X0.9291Y-5.1846
X0.9291Y-5.2846
X0.9291Y-5.3846
X1.0921Y-4.4146
X1.0921Y-4.5146
X1.0921Y-4.6146
X1.0921Y-4.7146
X1.0921Y-4.8146
X1.0921Y-4.9146
X1.0921Y-5.0146
X1.0921Y-5.1146
X1.0921Y-5.2146
X1.0921Y-5.3146
X1.0921Y-5.4146
X1.0921Y-5.5146
X1.239Y-5.0504
X1.339Y-5.0504
X1.439Y-5.0504
X1.539Y-5.0504
X1.639Y-5.0504
X1.8921Y-4.4177
X1.8921Y-4.5177
X1.8921Y-4.6177
X1.8921Y-4.7177
X1.8921Y-4.8177
X1.8921Y-4.9177
X1.8921Y-5.0177
X1.8921Y-5.1177
X1.8921Y-5.2177
X1.8921Y-5.3177
X1.8921Y-5.4177
X1.8921Y-5.5177
X1.8921Y-5.6177
X1.8921Y-5.7177
X1.8921Y-5.8177
X1.8921Y-5.9177
T4
X1.0606Y-5.698
X1.0606Y-5.798
X1.0606Y-5.898
T5
X1.7787Y-3.8567
T6
X1.6787Y-3.7567
X1.6787Y-3.9567
X1.8787Y-3.7567
X1.8787Y-3.9567
T7
X1.7165Y-5.798
T0
M30
