M48
; DRILL file {KiCad 5.1.12-84ad8e8a86~92~ubuntu18.04.1} date Wed 05 Jan 2022 10:45:34 PM EST
; FORMAT={-:-/ absolute / inch / decimal}
; #@! TF.CreationDate,2022-01-05T22:45:34-05:00
; #@! TF.GenerationSoftware,Kicad,Pcbnew,5.1.12-84ad8e8a86~92~ubuntu18.04.1
FMAT,2
INCH
T1C0.0157
T2C0.0315
T3C0.0390
T4C0.0394
T5C0.0433
T6C0.0512
T7C0.0551
T8C0.0591
T9C0.0669
T10C0.1063
T11C0.1063
T12C0.1378
%
G90
G05
T1
X-1.2106Y-1.8012
X-1.1713Y-2.4409
X-1.1614Y-0.5217
X-1.1024Y-2.3031
X-1.0039Y0.0197
X-0.9744Y-2.2736
X-0.9449Y-2.1358
X-0.9319Y0.2886
X-0.9244Y-1.7134
X-0.9122Y-0.4555
X-0.9087Y-2.5248
X-0.9055Y-1.1811
X-0.8795Y-2.278
X-0.876Y0.3839
X-0.8689Y-1.2335
X-0.8563Y-2.3425
X-0.8201Y-2.4331
X-0.8071Y-2.3228
X-0.798Y-1.5295
X-0.7976Y0.5272
X-0.7972Y0.1772
X-0.7874Y-0.1969
X-0.7831Y-2.239
X-0.7579Y-1.5846
X-0.7335Y-0.2772
X-0.7043Y-1.0988
X-0.7026Y-1.7853
X-0.6996Y-0.4555
X-0.6957Y-1.461
X-0.6937Y-1.2626
X-0.689Y-0.0098
X-0.6791Y0.6693
X-0.6642Y-2.4331
X-0.6594Y-0.502
X-0.6496Y-1.3085
X-0.6398Y0.1673
X-0.6398Y-1.711
X-0.6004Y-1.4665
X-0.5941Y-0.9878
X-0.5807Y-2.2886
X-0.5638Y-0.5831
X-0.561Y-1.7028
X-0.5413Y-1.4862
X-0.5315Y-1.3
X-0.5315Y-1.9291
X-0.5217Y0.4035
X-0.5118Y-1.5945
X-0.5118Y-2.8445
X-0.502Y-0.2087
X-0.502Y-1.7421
X-0.502Y-1.8701
X-0.4941Y-2.3819
X-0.4921Y0.6791
X-0.465Y-0.4555
X-0.4626Y-2.2913
X-0.4614Y-2.1945
X-0.4508Y-1.5728
X-0.4492Y-1.6866
X-0.4437Y0.2843
X-0.4429Y0.6398
X-0.4429Y-0.8957
X-0.4035Y-1.9094
X-0.4035Y-2.0866
X-0.374Y-0.1575
X-0.374Y-0.502
X-0.374Y-0.9744
X-0.3543Y0.2559
X-0.3307Y-1.1618
X-0.315Y-1.7224
X-0.3087Y-2.2378
X-0.2957Y0.4346
X-0.2843Y0.348
X-0.2756Y-1.3287
X-0.2705Y-0.189
X-0.2657Y-0.6791
X-0.2607Y-2.8001
X-0.2559Y-2.3327
X-0.2461Y-0.9823
X-0.2295Y-0.1205
X-0.2244Y0.5264
X-0.2244Y0.0524
X-0.2209Y0.6055
X-0.2165Y-0.8563
X-0.2031Y-1.0988
X-0.1984Y-1.5295
X-0.1969Y-0.9154
X-0.187Y-2.3327
X-0.1772Y0.187
X-0.1661Y-0.2193
X-0.1378Y0.1083
X-0.1378Y-1.4862
X-0.1378Y-2.7185
X-0.0583Y-1.2126
X-0.0492Y-0.2559
X-0.0492Y-1.4469
X-0.0197Y-0.0098
X0.0Y-1.3189
X0.0098Y-0.0492
X0.0193Y-2.2748
X0.0197Y-1.437
X0.0394Y0.6496
X0.0394Y-0.6398
X0.0516Y0.8846
X0.0591Y-1.9488
X0.0787Y-2.2343
X0.0886Y-1.3189
X0.0925Y-0.5705
X0.1083Y-1.0138
X0.1476Y-0.9449
X0.1673Y-2.3425
X0.2264Y-2.8248
X0.2461Y-0.9449
X0.248Y-2.1925
X0.2559Y0.689
X0.2575Y-1.2654
X0.2756Y-0.0394
X0.2856Y-2.0965
X0.2953Y0.8858
X0.3051Y-2.7657
X0.3614Y-2.4319
X0.3642Y0.5709
X0.374Y-0.6201
X0.3906Y-2.2764
X0.3937Y-1.7618
X0.3992Y0.05
X0.4083Y-0.1094
X0.4366Y0.0098
X0.4429Y-0.0394
X0.4453Y-1.4736
X0.4528Y0.8563
X0.4744Y-0.748
X0.4827Y-1.565
X0.502Y-1.9291
X0.5118Y-0.8169
X0.5118Y-1.998
X0.5315Y-2.7264
X0.5413Y-0.7185
X0.5559Y-2.3287
X0.6004Y0.1843
X0.6019Y-1.3253
X0.6038Y-1.2608
X0.6201Y-2.6673
X0.6299Y-2.0965
X0.6496Y-1.8701
X0.6791Y-1.752
X0.6909Y0.1843
X0.6965Y-0.1461
X0.6984Y-2.0445
X0.6988Y-0.7776
X0.7181Y-1.939
X0.7555Y-2.1925
T2
X-1.1583Y-1.34
X-1.0583Y-1.24
X-1.0583Y-1.44
X-0.7787Y-2.019
X-0.7787Y-2.519
X-0.619Y-2.019
X-0.619Y-2.519
X-0.4592Y-2.019
X-0.4592Y-2.519
X-0.2995Y-2.019
X-0.2995Y-2.519
X-0.1398Y-2.019
X-0.1398Y-2.519
X0.02Y-2.019
X0.02Y-2.519
X0.1797Y-2.019
X0.1797Y-2.519
T3
X0.5988Y0.6016
X0.5988Y0.4244
X0.6038Y0.027
X0.6038Y-0.1501
X0.6038Y-0.365
X0.6038Y-0.5421
T4
X-1.0264Y-0.5878
X-1.0264Y-0.6878
X-1.0264Y-0.7878
X-1.0264Y-0.8878
X-1.0264Y-0.9878
X-1.0264Y-1.0878
X-0.9549Y-2.6298
X-0.9518Y-1.8298
X-0.9339Y-0.0772
X-0.8549Y-2.6298
X-0.8518Y-1.8298
X-0.8339Y-0.0772
X-0.8Y-1.65
X-0.7646Y-2.7591
X-0.7646Y-2.9362
X-0.7549Y-2.6298
X-0.7518Y-1.8298
X-0.7339Y-0.0772
X-0.7Y-1.65
X-0.6549Y-2.6298
X-0.6518Y-1.8298
X-0.6339Y-0.0772
X-0.6Y-1.4
X-0.6Y-1.65
X-0.5677Y-0.2728
X-0.5549Y-2.6298
X-0.5518Y-1.8298
X-0.5339Y-0.0772
X-0.5087Y-2.7591
X-0.5087Y-2.9362
X-0.5Y-1.4
X-0.5Y-1.65
X-0.4677Y-0.2728
X-0.4549Y-2.6298
X-0.4518Y-1.8298
X-0.4339Y-0.0772
X-0.4Y-1.4
X-0.4Y-1.65
X-0.3677Y-0.2728
X-0.3549Y-2.6298
X-0.3518Y-1.8298
X-0.3Y-1.4
X-0.3Y-1.65
X-0.2677Y-0.2728
X-0.2607Y-2.9036
X-0.2549Y-2.6298
X-0.2518Y-1.8298
X-0.2Y-1.4
X-0.2Y-1.65
X-0.1607Y-2.9036
X-0.1549Y-2.6298
X-0.1518Y-1.8298
X-0.1Y-1.65
X-0.0607Y-2.9036
X-0.0549Y-2.6298
X-0.0518Y-1.8298
X0.0Y-1.65
X0.0451Y-2.6298
X0.0482Y-1.8298
X0.1451Y-2.6298
X0.1482Y-1.8298
X0.2482Y-1.8298
X0.3482Y-1.8298
X0.4482Y-1.8298
X0.5482Y-1.8298
X0.7745Y-1.1253
X0.7745Y-1.2253
X0.7745Y-1.3253
T5
X0.0965Y-0.124
X0.1965Y-0.124
X0.2965Y-0.124
T6
X0.5008Y0.6508
X0.5008Y0.3748
X0.5057Y0.0762
X0.5057Y-0.1998
X0.5057Y-0.3158
X0.5057Y-0.5918
T7
X0.3972Y-2.0429
X0.3972Y-2.5429
T8
X-0.6752Y0.8264
T9
X-0.7752Y0.9264
X-0.7752Y0.7264
X-0.5752Y0.9264
X-0.5752Y0.7264
T10
X-1.1076Y0.8596
X-1.1076Y-2.8317
X0.7013Y0.8596
X0.7013Y-2.8317
T11
X-1.0697Y-0.3311
X-1.0697Y-1.6311
X0.2697Y-0.3311
X0.2697Y-1.6311
T12
X0.1965Y0.5319
T0
M30
