%TF.GenerationSoftware,KiCad,Pcbnew,5.1.12-84ad8e8a86~92~ubuntu18.04.1*%
%TF.CreationDate,2022-01-05T22:45:31-05:00*%
%TF.ProjectId,remote,72656d6f-7465-42e6-9b69-6361645f7063,rev?*%
%TF.SameCoordinates,Original*%
%TF.FileFunction,Paste,Top*%
%TF.FilePolarity,Positive*%
%FSLAX46Y46*%
G04 Gerber Fmt 4.6, Leading zero omitted, Abs format (unit mm)*
G04 Created by KiCad (PCBNEW 5.1.12-84ad8e8a86~92~ubuntu18.04.1) date 2022-01-05 22:45:31*
%MOMM*%
%LPD*%
G01*
G04 APERTURE LIST*
%ADD10O,2.000000X1.000000*%
%ADD11R,1.500000X1.000000*%
G04 APERTURE END LIST*
D10*
%TO.C,U1*%
X-1709420Y1353820D03*
X-1709420Y3353820D03*
X-1709420Y5353820D03*
X-1709420Y7353820D03*
X-1709420Y9353820D03*
X-1709420Y11353820D03*
X-1709420Y13353820D03*
X-1709420Y15353820D03*
X-17709420Y15353820D03*
X-17709420Y13353820D03*
X-17709420Y11353820D03*
X-17709420Y9353820D03*
X-17709420Y7353820D03*
X-17709420Y5353820D03*
X-17709420Y3353820D03*
X-17709420Y1353820D03*
%TD*%
D11*
%TO.C,SP1*%
X9417360Y22478800D03*
X4317360Y22478800D03*
X9417360Y19078800D03*
%TD*%
%TO.C,J20*%
G36*
G01*
X-26885000Y-55450000D02*
X-25635000Y-55450000D01*
G75*
G02*
X-25485000Y-55600000I0J-150000D01*
G01*
X-25485000Y-55900000D01*
G75*
G02*
X-25635000Y-56050000I-150000J0D01*
G01*
X-26885000Y-56050000D01*
G75*
G02*
X-27035000Y-55900000I0J150000D01*
G01*
X-27035000Y-55600000D01*
G75*
G02*
X-26885000Y-55450000I150000J0D01*
G01*
G37*
G36*
G01*
X-26885000Y-56450000D02*
X-25635000Y-56450000D01*
G75*
G02*
X-25485000Y-56600000I0J-150000D01*
G01*
X-25485000Y-56900000D01*
G75*
G02*
X-25635000Y-57050000I-150000J0D01*
G01*
X-26885000Y-57050000D01*
G75*
G02*
X-27035000Y-56900000I0J150000D01*
G01*
X-27035000Y-56600000D01*
G75*
G02*
X-26885000Y-56450000I150000J0D01*
G01*
G37*
G36*
G01*
X-26885000Y-57450000D02*
X-25635000Y-57450000D01*
G75*
G02*
X-25485000Y-57600000I0J-150000D01*
G01*
X-25485000Y-57900000D01*
G75*
G02*
X-25635000Y-58050000I-150000J0D01*
G01*
X-26885000Y-58050000D01*
G75*
G02*
X-27035000Y-57900000I0J150000D01*
G01*
X-27035000Y-57600000D01*
G75*
G02*
X-26885000Y-57450000I150000J0D01*
G01*
G37*
G36*
G01*
X-26885000Y-58450000D02*
X-25635000Y-58450000D01*
G75*
G02*
X-25485000Y-58600000I0J-150000D01*
G01*
X-25485000Y-58900000D01*
G75*
G02*
X-25635000Y-59050000I-150000J0D01*
G01*
X-26885000Y-59050000D01*
G75*
G02*
X-27035000Y-58900000I0J150000D01*
G01*
X-27035000Y-58600000D01*
G75*
G02*
X-26885000Y-58450000I150000J0D01*
G01*
G37*
G36*
G01*
X-30785001Y-53850000D02*
X-29484999Y-53850000D01*
G75*
G02*
X-29235000Y-54099999I0J-249999D01*
G01*
X-29235000Y-54800001D01*
G75*
G02*
X-29484999Y-55050000I-249999J0D01*
G01*
X-30785001Y-55050000D01*
G75*
G02*
X-31035000Y-54800001I0J249999D01*
G01*
X-31035000Y-54099999D01*
G75*
G02*
X-30785001Y-53850000I249999J0D01*
G01*
G37*
G36*
G01*
X-30785001Y-59450000D02*
X-29484999Y-59450000D01*
G75*
G02*
X-29235000Y-59699999I0J-249999D01*
G01*
X-29235000Y-60400001D01*
G75*
G02*
X-29484999Y-60650000I-249999J0D01*
G01*
X-30785001Y-60650000D01*
G75*
G02*
X-31035000Y-60400001I0J249999D01*
G01*
X-31035000Y-59699999D01*
G75*
G02*
X-30785001Y-59450000I249999J0D01*
G01*
G37*
%TD*%
M02*
