  0
SECTION
  2
HEADER
  9
$ANGBASE
  50
0.0
  9
$ANGDIR
  70
1
  9
$MEASUREMENT
  70
0
  0
ENDSEC
  0
SECTION
  2
TABLES
  0
TABLE
  2
LTYPE
  70
4
  0
LTYPE
  5
40F
  2
CONTINUOUS
  70
0
  3
Solid line
  72
65
  73
0
  40
0.0
  0
LTYPE
  5
410
  2
DASHDOT
 70
0
  3
Dash Dot ____ _ ____ _
 72
65
 73
4
 40
2.0
 49
1.25
 49
-0.25
 49
0.25
 49
-0.25
  0
LTYPE
  5
411
  2
DASHED
 70
0
  3
Dashed __ __ __ __ __
 72
65
 73
2
 40
0.75
 49
0.5
 49
-0.25
  0
LTYPE
  5
43B
  2
DOTTED
 70
0
  3
Dotted .  .  .  .
 72
65
 73
2
 40
0.2
 49
0.0
 49
-0.2
  0
ENDTAB
  0
TABLE
  2
STYLE
  70
4
  0
STYLE
  2
KICAD
  70
0
  40
0
  41
1
  42
1
  50
0
  71
0
  3
isocp.shx
  0
STYLE
  2
KICADB
  70
0
  40
0
  41
1
  42
1
  50
0
  71
0
  3
isocp.shx
  0
STYLE
  2
KICADI
  70
0
  40
0
  41
1
  42
1
  50
15
  71
0
  3
isocp.shx
  0
STYLE
  2
KICADBI
  70
0
  40
0
  41
1
  42
1
  50
15
  71
0
  3
isocp.shx
  0
ENDTAB
  0
TABLE
  2
LAYER
  70
1
  0
LAYER
  2
BLACK
  70
0
  62
7
  6
CONTINUOUS
  0
ENDTAB
  0
ENDSEC
  0
SECTION
  2
ENTITIES
0
LINE
8
BLACK
6
CONTINUOUS
10
4.9307
20
-2.51085
11
4.9307
21
-2.51085
0
LINE
8
BLACK
6
CONTINUOUS
10
4.9307
20
-2.51085
11
4.92762
21
-2.54435
0
LINE
8
BLACK
6
CONTINUOUS
10
4.92762
20
-2.54435
11
4.92762
21
-2.54437
0
LINE
8
BLACK
6
CONTINUOUS
10
4.92762
20
-2.54437
11
4.9276
21
-2.54445
0
LINE
8
BLACK
6
CONTINUOUS
10
4.9276
20
-2.54445
11
4.92759
21
-2.54453
0
LINE
8
BLACK
6
CONTINUOUS
10
4.92759
20
-2.54453
11
4.91845
21
-2.5769
0
LINE
8
BLACK
6
CONTINUOUS
10
4.91845
20
-2.5769
11
4.91844
21
-2.57693
0
LINE
8
BLACK
6
CONTINUOUS
10
4.91844
20
-2.57693
11
4.91841
21
-2.577
0
LINE
8
BLACK
6
CONTINUOUS
10
4.91841
20
-2.577
11
4.91838
21
-2.57707
0
LINE
8
BLACK
6
CONTINUOUS
10
4.91838
20
-2.57707
11
4.9035
21
-2.60724
0
LINE
8
BLACK
6
CONTINUOUS
10
4.9035
20
-2.60724
11
4.90349
21
-2.60727
0
LINE
8
BLACK
6
CONTINUOUS
10
4.90349
20
-2.60727
11
4.90344
21
-2.60733
0
LINE
8
BLACK
6
CONTINUOUS
10
4.90344
20
-2.60733
11
4.9034
21
-2.6074
0
LINE
8
BLACK
6
CONTINUOUS
10
4.9034
20
-2.6074
11
4.88327
21
-2.63435
0
LINE
8
BLACK
6
CONTINUOUS
10
4.88327
20
-2.63435
11
4.88325
21
-2.63437
0
LINE
8
BLACK
6
CONTINUOUS
10
4.88325
20
-2.63437
11
4.88322
21
-2.6344
0
LINE
8
BLACK
6
CONTINUOUS
10
4.88322
20
-2.6344
11
4.88319
21
-2.63444
0
LINE
8
BLACK
6
CONTINUOUS
10
4.88319
20
-2.63444
11
4.87659
21
-2.64139
0
LINE
8
BLACK
6
CONTINUOUS
10
4.87659
20
-2.64139
11
4.87003
21
-2.6483
0
LINE
8
BLACK
6
CONTINUOUS
10
4.87003
20
-2.6483
11
4.84999
21
-2.67514
0
LINE
8
BLACK
6
CONTINUOUS
10
4.84999
20
-2.67514
11
4.83518
21
-2.70515
0
LINE
8
BLACK
6
CONTINUOUS
10
4.83518
20
-2.70515
11
4.82609
21
-2.73735
0
LINE
8
BLACK
6
CONTINUOUS
10
4.82609
20
-2.73735
11
4.82302
21
-2.77071
0
LINE
8
BLACK
6
CONTINUOUS
10
4.82302
20
-2.77071
11
4.82302
21
-3.92653
0
LINE
8
BLACK
6
CONTINUOUS
10
4.82302
20
-3.92653
11
4.82327
21
-3.93604
0
LINE
8
BLACK
6
CONTINUOUS
10
4.82327
20
-3.93604
11
4.82808
21
-3.96919
0
LINE
8
BLACK
6
CONTINUOUS
10
4.82808
20
-3.96919
11
4.83883
21
-4.00088
0
LINE
8
BLACK
6
CONTINUOUS
10
4.83883
20
-4.00088
11
4.85518
21
-4.03007
0
LINE
8
BLACK
6
CONTINUOUS
10
4.85518
20
-4.03007
11
4.87664
21
-4.05587
0
LINE
8
BLACK
6
CONTINUOUS
10
4.87664
20
-4.05587
11
4.89815
21
-4.08173
0
LINE
8
BLACK
6
CONTINUOUS
10
4.89815
20
-4.08173
11
4.89817
21
-4.08175
0
LINE
8
BLACK
6
CONTINUOUS
10
4.89817
20
-4.08175
11
4.89821
21
-4.08182
0
LINE
8
BLACK
6
CONTINUOUS
10
4.89821
20
-4.08182
11
4.89825
21
-4.08188
0
LINE
8
BLACK
6
CONTINUOUS
10
4.89825
20
-4.08188
11
4.91469
21
-4.11123
0
LINE
8
BLACK
6
CONTINUOUS
10
4.91469
20
-4.11123
11
4.9147
21
-4.11126
0
LINE
8
BLACK
6
CONTINUOUS
10
4.9147
20
-4.11126
11
4.91473
21
-4.11133
0
LINE
8
BLACK
6
CONTINUOUS
10
4.91473
20
-4.11133
11
4.91476
21
-4.1114
0
LINE
8
BLACK
6
CONTINUOUS
10
4.91476
20
-4.1114
11
4.92558
21
-4.14326
0
LINE
8
BLACK
6
CONTINUOUS
10
4.92558
20
-4.14326
11
4.92558
21
-4.14328
0
LINE
8
BLACK
6
CONTINUOUS
10
4.92558
20
-4.14328
11
4.9256
21
-4.14336
0
LINE
8
BLACK
6
CONTINUOUS
10
4.9256
20
-4.14336
11
4.92562
21
-4.14343
0
LINE
8
BLACK
6
CONTINUOUS
10
4.92562
20
-4.14343
11
4.93045
21
-4.17673
0
LINE
8
BLACK
6
CONTINUOUS
10
4.93045
20
-4.17673
11
4.93045
21
-4.17675
0
LINE
8
BLACK
6
CONTINUOUS
10
4.93045
20
-4.17675
11
4.93045
21
-4.1768
0
LINE
8
BLACK
6
CONTINUOUS
10
4.93045
20
-4.1768
11
4.93046
21
-4.17684
0
LINE
8
BLACK
6
CONTINUOUS
10
4.93046
20
-4.17684
11
4.93071
21
-4.18639
0
LINE
8
BLACK
6
CONTINUOUS
10
4.93071
20
-4.18639
11
4.93071
21
-4.1864
0
LINE
8
BLACK
6
CONTINUOUS
10
4.93071
20
-4.1864
11
4.93071
21
-6.2317
0
LINE
8
BLACK
6
CONTINUOUS
10
4.93071
20
-6.2317
11
4.9307
21
-6.23175
0
LINE
8
BLACK
6
CONTINUOUS
10
4.9307
20
-6.23175
11
4.9307
21
-6.23175
0
LINE
8
BLACK
6
CONTINUOUS
10
4.9307
20
-6.23175
11
4.92852
21
-6.25401
0
LINE
8
BLACK
6
CONTINUOUS
10
4.92852
20
-6.25401
11
4.92852
21
-6.25403
0
LINE
8
BLACK
6
CONTINUOUS
10
4.92852
20
-6.25403
11
4.9285
21
-6.25411
0
LINE
8
BLACK
6
CONTINUOUS
10
4.9285
20
-6.25411
11
4.92848
21
-6.2542
0
LINE
8
BLACK
6
CONTINUOUS
10
4.92848
20
-6.2542
11
4.92202
21
-6.27562
0
LINE
8
BLACK
6
CONTINUOUS
10
4.92202
20
-6.27562
11
4.92201
21
-6.27563
0
LINE
8
BLACK
6
CONTINUOUS
10
4.92201
20
-6.27563
11
4.92198
21
-6.27571
0
LINE
8
BLACK
6
CONTINUOUS
10
4.92198
20
-6.27571
11
4.92194
21
-6.27579
0
LINE
8
BLACK
6
CONTINUOUS
10
4.92194
20
-6.27579
11
4.91144
21
-6.29554
0
LINE
8
BLACK
6
CONTINUOUS
10
4.91144
20
-6.29554
11
4.91144
21
-6.29556
0
LINE
8
BLACK
6
CONTINUOUS
10
4.91144
20
-6.29556
11
4.91139
21
-6.29563
0
LINE
8
BLACK
6
CONTINUOUS
10
4.91139
20
-6.29563
11
4.91134
21
-6.2957
0
LINE
8
BLACK
6
CONTINUOUS
10
4.91134
20
-6.2957
11
4.8972
21
-6.31304
0
LINE
8
BLACK
6
CONTINUOUS
10
4.8972
20
-6.31304
11
4.89719
21
-6.31305
0
LINE
8
BLACK
6
CONTINUOUS
10
4.89719
20
-6.31305
11
4.89713
21
-6.31311
0
LINE
8
BLACK
6
CONTINUOUS
10
4.89713
20
-6.31311
11
4.89706
21
-6.31318
0
LINE
8
BLACK
6
CONTINUOUS
10
4.89706
20
-6.31318
11
4.87983
21
-6.32744
0
LINE
8
BLACK
6
CONTINUOUS
10
4.87983
20
-6.32744
11
4.87982
21
-6.32744
0
LINE
8
BLACK
6
CONTINUOUS
10
4.87982
20
-6.32744
11
4.87974
21
-6.32749
0
LINE
8
BLACK
6
CONTINUOUS
10
4.87974
20
-6.32749
11
4.87967
21
-6.32754
0
LINE
8
BLACK
6
CONTINUOUS
10
4.87967
20
-6.32754
11
4.85999
21
-6.33818
0
LINE
8
BLACK
6
CONTINUOUS
10
4.85999
20
-6.33818
11
4.85998
21
-6.33819
0
LINE
8
BLACK
6
CONTINUOUS
10
4.85998
20
-6.33819
11
4.85989
21
-6.33822
0
LINE
8
BLACK
6
CONTINUOUS
10
4.85989
20
-6.33822
11
4.85981
21
-6.33826
0
LINE
8
BLACK
6
CONTINUOUS
10
4.85981
20
-6.33826
11
4.83844
21
-6.34487
0
LINE
8
BLACK
6
CONTINUOUS
10
4.83844
20
-6.34487
11
4.83843
21
-6.34488
0
LINE
8
BLACK
6
CONTINUOUS
10
4.83843
20
-6.34488
11
4.83834
21
-6.34489
0
LINE
8
BLACK
6
CONTINUOUS
10
4.83834
20
-6.34489
11
4.83825
21
-6.34491
0
LINE
8
BLACK
6
CONTINUOUS
10
4.83825
20
-6.34491
11
4.81601
21
-6.34725
0
LINE
8
BLACK
6
CONTINUOUS
10
4.81601
20
-6.34725
11
4.81599
21
-6.34725
0
LINE
8
BLACK
6
CONTINUOUS
10
4.81599
20
-6.34725
11
4.81595
21
-6.34725
0
LINE
8
BLACK
6
CONTINUOUS
10
4.81595
20
-6.34725
11
4.81591
21
-6.34725
0
LINE
8
BLACK
6
CONTINUOUS
10
4.81591
20
-6.34725
11
4.81515
21
-6.34726
0
LINE
8
BLACK
6
CONTINUOUS
10
4.81515
20
-6.34726
11
4.81515
21
-6.34726
0
LINE
8
BLACK
6
CONTINUOUS
10
4.81515
20
-6.34726
11
4.78788
21
-6.34726
0
LINE
8
BLACK
6
CONTINUOUS
10
4.78788
20
-6.34726
11
4.78783
21
-6.34725
0
LINE
8
BLACK
6
CONTINUOUS
10
4.78783
20
-6.34725
11
4.78783
21
-6.34725
0
LINE
8
BLACK
6
CONTINUOUS
10
4.78783
20
-6.34725
11
4.75433
21
-6.34417
0
LINE
8
BLACK
6
CONTINUOUS
10
4.75433
20
-6.34417
11
4.75431
21
-6.34417
0
LINE
8
BLACK
6
CONTINUOUS
10
4.75431
20
-6.34417
11
4.75423
21
-6.34415
0
LINE
8
BLACK
6
CONTINUOUS
10
4.75423
20
-6.34415
11
4.75416
21
-6.34414
0
LINE
8
BLACK
6
CONTINUOUS
10
4.75416
20
-6.34414
11
4.72178
21
-6.335
0
LINE
8
BLACK
6
CONTINUOUS
10
4.72178
20
-6.335
11
4.72175
21
-6.33499
0
LINE
8
BLACK
6
CONTINUOUS
10
4.72175
20
-6.33499
11
4.72168
21
-6.33496
0
LINE
8
BLACK
6
CONTINUOUS
10
4.72168
20
-6.33496
11
4.72161
21
-6.33493
0
LINE
8
BLACK
6
CONTINUOUS
10
4.72161
20
-6.33493
11
4.69144
21
-6.32005
0
LINE
8
BLACK
6
CONTINUOUS
10
4.69144
20
-6.32005
11
4.69142
21
-6.32003
0
LINE
8
BLACK
6
CONTINUOUS
10
4.69142
20
-6.32003
11
4.69135
21
-6.31999
0
LINE
8
BLACK
6
CONTINUOUS
10
4.69135
20
-6.31999
11
4.69129
21
-6.31995
0
LINE
8
BLACK
6
CONTINUOUS
10
4.69129
20
-6.31995
11
4.66433
21
-6.29982
0
LINE
8
BLACK
6
CONTINUOUS
10
4.66433
20
-6.29982
11
4.66431
21
-6.2998
0
LINE
8
BLACK
6
CONTINUOUS
10
4.66431
20
-6.2998
11
4.66428
21
-6.29977
0
LINE
8
BLACK
6
CONTINUOUS
10
4.66428
20
-6.29977
11
4.66425
21
-6.29974
0
LINE
8
BLACK
6
CONTINUOUS
10
4.66425
20
-6.29974
11
4.65729
21
-6.29314
0
LINE
8
BLACK
6
CONTINUOUS
10
4.65729
20
-6.29314
11
4.65038
21
-6.28658
0
LINE
8
BLACK
6
CONTINUOUS
10
4.65038
20
-6.28658
11
4.62355
21
-6.26654
0
LINE
8
BLACK
6
CONTINUOUS
10
4.62355
20
-6.26654
11
4.59354
21
-6.25173
0
LINE
8
BLACK
6
CONTINUOUS
10
4.59354
20
-6.25173
11
4.56133
21
-6.24264
0
LINE
8
BLACK
6
CONTINUOUS
10
4.56133
20
-6.24264
11
4.52797
21
-6.23957
0
LINE
8
BLACK
6
CONTINUOUS
10
4.52797
20
-6.23957
11
4.33205
21
-6.23957
0
LINE
8
BLACK
6
CONTINUOUS
10
4.33205
20
-6.23957
11
4.32253
21
-6.23982
0
LINE
8
BLACK
6
CONTINUOUS
10
4.32253
20
-6.23982
11
4.28939
21
-6.24462
0
LINE
8
BLACK
6
CONTINUOUS
10
4.28939
20
-6.24462
11
4.2577
21
-6.25538
0
LINE
8
BLACK
6
CONTINUOUS
10
4.2577
20
-6.25538
11
4.22851
21
-6.27173
0
LINE
8
BLACK
6
CONTINUOUS
10
4.22851
20
-6.27173
11
4.20271
21
-6.29319
0
LINE
8
BLACK
6
CONTINUOUS
10
4.20271
20
-6.29319
11
4.17684
21
-6.3147
0
LINE
8
BLACK
6
CONTINUOUS
10
4.17684
20
-6.3147
11
4.17682
21
-6.31471
0
LINE
8
BLACK
6
CONTINUOUS
10
4.17682
20
-6.31471
11
4.17676
21
-6.31476
0
LINE
8
BLACK
6
CONTINUOUS
10
4.17676
20
-6.31476
11
4.1767
21
-6.3148
0
LINE
8
BLACK
6
CONTINUOUS
10
4.1767
20
-6.3148
11
4.14734
21
-6.33124
0
LINE
8
BLACK
6
CONTINUOUS
10
4.14734
20
-6.33124
11
4.14732
21
-6.33125
0
LINE
8
BLACK
6
CONTINUOUS
10
4.14732
20
-6.33125
11
4.14725
21
-6.33128
0
LINE
8
BLACK
6
CONTINUOUS
10
4.14725
20
-6.33128
11
4.14718
21
-6.33131
0
LINE
8
BLACK
6
CONTINUOUS
10
4.14718
20
-6.33131
11
4.11532
21
-6.34213
0
LINE
8
BLACK
6
CONTINUOUS
10
4.11532
20
-6.34213
11
4.1153
21
-6.34213
0
LINE
8
BLACK
6
CONTINUOUS
10
4.1153
20
-6.34213
11
4.11522
21
-6.34215
0
LINE
8
BLACK
6
CONTINUOUS
10
4.11522
20
-6.34215
11
4.11515
21
-6.34217
0
LINE
8
BLACK
6
CONTINUOUS
10
4.11515
20
-6.34217
11
4.08185
21
-6.347
0
LINE
8
BLACK
6
CONTINUOUS
10
4.08185
20
-6.347
11
4.08183
21
-6.347
0
LINE
8
BLACK
6
CONTINUOUS
10
4.08183
20
-6.347
11
4.08178
21
-6.347
0
LINE
8
BLACK
6
CONTINUOUS
10
4.08178
20
-6.347
11
4.08174
21
-6.34701
0
LINE
8
BLACK
6
CONTINUOUS
10
4.08174
20
-6.34701
11
4.07219
21
-6.34726
0
LINE
8
BLACK
6
CONTINUOUS
10
4.07219
20
-6.34726
11
4.07217
21
-6.34726
0
LINE
8
BLACK
6
CONTINUOUS
10
4.07217
20
-6.34726
11
2.94428
21
-6.34726
0
LINE
8
BLACK
6
CONTINUOUS
10
2.94428
20
-6.34726
11
2.94423
21
-6.34725
0
LINE
8
BLACK
6
CONTINUOUS
10
2.94423
20
-6.34725
11
2.94423
21
-6.34725
0
LINE
8
BLACK
6
CONTINUOUS
10
2.94423
20
-6.34725
11
2.92197
21
-6.34507
0
LINE
8
BLACK
6
CONTINUOUS
10
2.92197
20
-6.34507
11
2.92195
21
-6.34507
0
LINE
8
BLACK
6
CONTINUOUS
10
2.92195
20
-6.34507
11
2.92186
21
-6.34505
0
LINE
8
BLACK
6
CONTINUOUS
10
2.92186
20
-6.34505
11
2.92178
21
-6.34503
0
LINE
8
BLACK
6
CONTINUOUS
10
2.92178
20
-6.34503
11
2.90036
21
-6.33857
0
LINE
8
BLACK
6
CONTINUOUS
10
2.90036
20
-6.33857
11
2.90035
21
-6.33856
0
LINE
8
BLACK
6
CONTINUOUS
10
2.90035
20
-6.33856
11
2.90027
21
-6.33853
0
LINE
8
BLACK
6
CONTINUOUS
10
2.90027
20
-6.33853
11
2.90018
21
-6.33849
0
LINE
8
BLACK
6
CONTINUOUS
10
2.90018
20
-6.33849
11
2.88043
21
-6.32799
0
LINE
8
BLACK
6
CONTINUOUS
10
2.88043
20
-6.32799
11
2.88042
21
-6.32798
0
LINE
8
BLACK
6
CONTINUOUS
10
2.88042
20
-6.32798
11
2.88035
21
-6.32793
0
LINE
8
BLACK
6
CONTINUOUS
10
2.88035
20
-6.32793
11
2.88027
21
-6.32789
0
LINE
8
BLACK
6
CONTINUOUS
10
2.88027
20
-6.32789
11
2.86294
21
-6.31375
0
LINE
8
BLACK
6
CONTINUOUS
10
2.86294
20
-6.31375
11
2.86293
21
-6.31374
0
LINE
8
BLACK
6
CONTINUOUS
10
2.86293
20
-6.31374
11
2.86286
21
-6.31367
0
LINE
8
BLACK
6
CONTINUOUS
10
2.86286
20
-6.31367
11
2.8628
21
-6.31361
0
LINE
8
BLACK
6
CONTINUOUS
10
2.8628
20
-6.31361
11
2.84854
21
-6.29637
0
LINE
8
BLACK
6
CONTINUOUS
10
2.84854
20
-6.29637
11
2.84853
21
-6.29636
0
LINE
8
BLACK
6
CONTINUOUS
10
2.84853
20
-6.29636
11
2.84848
21
-6.29629
0
LINE
8
BLACK
6
CONTINUOUS
10
2.84848
20
-6.29629
11
2.84843
21
-6.29622
0
LINE
8
BLACK
6
CONTINUOUS
10
2.84843
20
-6.29622
11
2.83779
21
-6.27654
0
LINE
8
BLACK
6
CONTINUOUS
10
2.83779
20
-6.27654
11
2.83779
21
-6.27653
0
LINE
8
BLACK
6
CONTINUOUS
10
2.83779
20
-6.27653
11
2.83775
21
-6.27644
0
LINE
8
BLACK
6
CONTINUOUS
10
2.83775
20
-6.27644
11
2.83772
21
-6.27636
0
LINE
8
BLACK
6
CONTINUOUS
10
2.83772
20
-6.27636
11
2.8311
21
-6.25499
0
LINE
8
BLACK
6
CONTINUOUS
10
2.8311
20
-6.25499
11
2.8311
21
-6.25498
0
LINE
8
BLACK
6
CONTINUOUS
10
2.8311
20
-6.25498
11
2.83108
21
-6.25489
0
LINE
8
BLACK
6
CONTINUOUS
10
2.83108
20
-6.25489
11
2.83107
21
-6.2548
0
LINE
8
BLACK
6
CONTINUOUS
10
2.83107
20
-6.2548
11
2.82873
21
-6.23256
0
LINE
8
BLACK
6
CONTINUOUS
10
2.82873
20
-6.23256
11
2.82873
21
-6.23254
0
LINE
8
BLACK
6
CONTINUOUS
10
2.82873
20
-6.23254
11
2.82873
21
-6.2325
0
LINE
8
BLACK
6
CONTINUOUS
10
2.82873
20
-6.2325
11
2.82872
21
-6.23246
0
LINE
8
BLACK
6
CONTINUOUS
10
2.82872
20
-6.23246
11
2.82872
21
-6.2317
0
LINE
8
BLACK
6
CONTINUOUS
10
2.82872
20
-6.2317
11
2.82872
21
-6.2317
0
LINE
8
BLACK
6
CONTINUOUS
10
2.82872
20
-6.2317
11
2.82872
21
-6.23167
0
LINE
8
BLACK
6
CONTINUOUS
10
2.82872
20
-6.23167
11
2.82872
21
-6.23166
0
LINE
8
BLACK
6
CONTINUOUS
10
2.82872
20
-6.23166
11
2.82872
21
-6.23164
0
LINE
8
BLACK
6
CONTINUOUS
10
2.82872
20
-6.23164
11
2.82872
21
-3.4672
0
LINE
8
BLACK
6
CONTINUOUS
10
2.82872
20
-3.4672
11
2.82872
21
-3.4672
0
LINE
8
BLACK
6
CONTINUOUS
10
2.82872
20
-3.4672
11
2.82872
21
-2.47383
0
LINE
8
BLACK
6
CONTINUOUS
10
2.82872
20
-2.47383
11
2.82872
21
-2.47378
0
LINE
8
BLACK
6
CONTINUOUS
10
2.82872
20
-2.47378
11
2.82872
21
-2.47378
0
LINE
8
BLACK
6
CONTINUOUS
10
2.82872
20
-2.47378
11
2.83091
21
-2.45151
0
LINE
8
BLACK
6
CONTINUOUS
10
2.83091
20
-2.45151
11
2.83091
21
-2.4515
0
LINE
8
BLACK
6
CONTINUOUS
10
2.83091
20
-2.4515
11
2.83093
21
-2.45141
0
LINE
8
BLACK
6
CONTINUOUS
10
2.83093
20
-2.45141
11
2.83094
21
-2.45133
0
LINE
8
BLACK
6
CONTINUOUS
10
2.83094
20
-2.45133
11
2.83741
21
-2.42991
0
LINE
8
BLACK
6
CONTINUOUS
10
2.83741
20
-2.42991
11
2.83741
21
-2.4299
0
LINE
8
BLACK
6
CONTINUOUS
10
2.83741
20
-2.4299
11
2.83745
21
-2.42981
0
LINE
8
BLACK
6
CONTINUOUS
10
2.83745
20
-2.42981
11
2.83748
21
-2.42973
0
LINE
8
BLACK
6
CONTINUOUS
10
2.83748
20
-2.42973
11
2.84798
21
-2.40998
0
LINE
8
BLACK
6
CONTINUOUS
10
2.84798
20
-2.40998
11
2.84799
21
-2.40997
0
LINE
8
BLACK
6
CONTINUOUS
10
2.84799
20
-2.40997
11
2.84804
21
-2.4099
0
LINE
8
BLACK
6
CONTINUOUS
10
2.84804
20
-2.4099
11
2.84809
21
-2.40982
0
LINE
8
BLACK
6
CONTINUOUS
10
2.84809
20
-2.40982
11
2.86223
21
-2.39249
0
LINE
8
BLACK
6
CONTINUOUS
10
2.86223
20
-2.39249
11
2.86224
21
-2.39247
0
LINE
8
BLACK
6
CONTINUOUS
10
2.86224
20
-2.39247
11
2.8623
21
-2.39241
0
LINE
8
BLACK
6
CONTINUOUS
10
2.8623
20
-2.39241
11
2.86237
21
-2.39235
0
LINE
8
BLACK
6
CONTINUOUS
10
2.86237
20
-2.39235
11
2.8796
21
-2.37809
0
LINE
8
BLACK
6
CONTINUOUS
10
2.8796
20
-2.37809
11
2.8796
21
-2.37809
0
LINE
8
BLACK
6
CONTINUOUS
10
2.8796
20
-2.37809
11
2.8796
21
-2.37809
0
LINE
8
BLACK
6
CONTINUOUS
10
2.8796
20
-2.37809
11
2.87961
21
-2.37808
0
LINE
8
BLACK
6
CONTINUOUS
10
2.87961
20
-2.37808
11
2.87969
21
-2.37803
0
LINE
8
BLACK
6
CONTINUOUS
10
2.87969
20
-2.37803
11
2.87976
21
-2.37798
0
LINE
8
BLACK
6
CONTINUOUS
10
2.87976
20
-2.37798
11
2.89944
21
-2.36734
0
LINE
8
BLACK
6
CONTINUOUS
10
2.89944
20
-2.36734
11
2.89944
21
-2.36734
0
LINE
8
BLACK
6
CONTINUOUS
10
2.89944
20
-2.36734
11
2.89944
21
-2.36734
0
LINE
8
BLACK
6
CONTINUOUS
10
2.89944
20
-2.36734
11
2.89945
21
-2.36734
0
LINE
8
BLACK
6
CONTINUOUS
10
2.89945
20
-2.36734
11
2.89953
21
-2.3673
0
LINE
8
BLACK
6
CONTINUOUS
10
2.89953
20
-2.3673
11
2.89962
21
-2.36727
0
LINE
8
BLACK
6
CONTINUOUS
10
2.89962
20
-2.36727
11
2.92099
21
-2.36065
0
LINE
8
BLACK
6
CONTINUOUS
10
2.92099
20
-2.36065
11
2.921
21
-2.36065
0
LINE
8
BLACK
6
CONTINUOUS
10
2.921
20
-2.36065
11
2.92109
21
-2.36063
0
LINE
8
BLACK
6
CONTINUOUS
10
2.92109
20
-2.36063
11
2.92117
21
-2.36061
0
LINE
8
BLACK
6
CONTINUOUS
10
2.92117
20
-2.36061
11
2.94342
21
-2.35828
0
LINE
8
BLACK
6
CONTINUOUS
10
2.94342
20
-2.35828
11
2.94344
21
-2.35827
0
LINE
8
BLACK
6
CONTINUOUS
10
2.94344
20
-2.35827
11
2.94348
21
-2.35827
0
LINE
8
BLACK
6
CONTINUOUS
10
2.94348
20
-2.35827
11
2.94352
21
-2.35827
0
LINE
8
BLACK
6
CONTINUOUS
10
2.94352
20
-2.35827
11
2.94427
21
-2.35827
0
LINE
8
BLACK
6
CONTINUOUS
10
2.94427
20
-2.35827
11
2.94428
21
-2.35827
0
LINE
8
BLACK
6
CONTINUOUS
10
2.94428
20
-2.35827
11
4.05294
21
-2.35827
0
LINE
8
BLACK
6
CONTINUOUS
10
4.05294
20
-2.35827
11
4.05292
21
-1.92283
0
LINE
8
BLACK
6
CONTINUOUS
10
4.05292
20
-1.92283
11
4.05292
21
-1.92278
0
LINE
8
BLACK
6
CONTINUOUS
10
4.05292
20
-1.92278
11
4.05292
21
-1.92278
0
LINE
8
BLACK
6
CONTINUOUS
10
4.05292
20
-1.92278
11
4.05511
21
-1.90051
0
LINE
8
BLACK
6
CONTINUOUS
10
4.05511
20
-1.90051
11
4.05511
21
-1.9005
0
LINE
8
BLACK
6
CONTINUOUS
10
4.05511
20
-1.9005
11
4.05513
21
-1.90041
0
LINE
8
BLACK
6
CONTINUOUS
10
4.05513
20
-1.90041
11
4.05514
21
-1.90033
0
LINE
8
BLACK
6
CONTINUOUS
10
4.05514
20
-1.90033
11
4.06161
21
-1.87891
0
LINE
8
BLACK
6
CONTINUOUS
10
4.06161
20
-1.87891
11
4.06161
21
-1.8789
0
LINE
8
BLACK
6
CONTINUOUS
10
4.06161
20
-1.8789
11
4.06165
21
-1.87881
0
LINE
8
BLACK
6
CONTINUOUS
10
4.06165
20
-1.87881
11
4.06168
21
-1.87873
0
LINE
8
BLACK
6
CONTINUOUS
10
4.06168
20
-1.87873
11
4.07219
21
-1.85898
0
LINE
8
BLACK
6
CONTINUOUS
10
4.07219
20
-1.85898
11
4.07219
21
-1.85897
0
LINE
8
BLACK
6
CONTINUOUS
10
4.07219
20
-1.85897
11
4.07224
21
-1.8589
0
LINE
8
BLACK
6
CONTINUOUS
10
4.07224
20
-1.8589
11
4.07229
21
-1.85882
0
LINE
8
BLACK
6
CONTINUOUS
10
4.07229
20
-1.85882
11
4.08643
21
-1.84149
0
LINE
8
BLACK
6
CONTINUOUS
10
4.08643
20
-1.84149
11
4.08644
21
-1.84147
0
LINE
8
BLACK
6
CONTINUOUS
10
4.08644
20
-1.84147
11
4.0865
21
-1.84141
0
LINE
8
BLACK
6
CONTINUOUS
10
4.0865
20
-1.84141
11
4.08657
21
-1.84135
0
LINE
8
BLACK
6
CONTINUOUS
10
4.08657
20
-1.84135
11
4.1038
21
-1.82709
0
LINE
8
BLACK
6
CONTINUOUS
10
4.1038
20
-1.82709
11
4.1038
21
-1.82709
0
LINE
8
BLACK
6
CONTINUOUS
10
4.1038
20
-1.82709
11
4.1038
21
-1.82709
0
LINE
8
BLACK
6
CONTINUOUS
10
4.1038
20
-1.82709
11
4.10381
21
-1.82708
0
LINE
8
BLACK
6
CONTINUOUS
10
4.10381
20
-1.82708
11
4.10389
21
-1.82703
0
LINE
8
BLACK
6
CONTINUOUS
10
4.10389
20
-1.82703
11
4.10396
21
-1.82698
0
LINE
8
BLACK
6
CONTINUOUS
10
4.10396
20
-1.82698
11
4.12364
21
-1.81634
0
LINE
8
BLACK
6
CONTINUOUS
10
4.12364
20
-1.81634
11
4.12364
21
-1.81634
0
LINE
8
BLACK
6
CONTINUOUS
10
4.12364
20
-1.81634
11
4.12364
21
-1.81634
0
LINE
8
BLACK
6
CONTINUOUS
10
4.12364
20
-1.81634
11
4.12365
21
-1.81634
0
LINE
8
BLACK
6
CONTINUOUS
10
4.12365
20
-1.81634
11
4.12373
21
-1.8163
0
LINE
8
BLACK
6
CONTINUOUS
10
4.12373
20
-1.8163
11
4.12382
21
-1.81627
0
LINE
8
BLACK
6
CONTINUOUS
10
4.12382
20
-1.81627
11
4.14519
21
-1.80965
0
LINE
8
BLACK
6
CONTINUOUS
10
4.14519
20
-1.80965
11
4.1452
21
-1.80965
0
LINE
8
BLACK
6
CONTINUOUS
10
4.1452
20
-1.80965
11
4.14529
21
-1.80963
0
LINE
8
BLACK
6
CONTINUOUS
10
4.14529
20
-1.80963
11
4.14537
21
-1.80961
0
LINE
8
BLACK
6
CONTINUOUS
10
4.14537
20
-1.80961
11
4.16762
21
-1.80728
0
LINE
8
BLACK
6
CONTINUOUS
10
4.16762
20
-1.80728
11
4.16763
21
-1.80727
0
LINE
8
BLACK
6
CONTINUOUS
10
4.16763
20
-1.80727
11
4.16768
21
-1.80727
0
LINE
8
BLACK
6
CONTINUOUS
10
4.16768
20
-1.80727
11
4.16772
21
-1.80727
0
LINE
8
BLACK
6
CONTINUOUS
10
4.16772
20
-1.80727
11
4.16847
21
-1.80727
0
LINE
8
BLACK
6
CONTINUOUS
10
4.16847
20
-1.80727
11
4.16848
21
-1.80727
0
LINE
8
BLACK
6
CONTINUOUS
10
4.16848
20
-1.80727
11
4.49135
21
-1.80727
0
LINE
8
BLACK
6
CONTINUOUS
10
4.49135
20
-1.80727
11
4.4914
21
-1.80727
0
LINE
8
BLACK
6
CONTINUOUS
10
4.4914
20
-1.80727
11
4.4914
21
-1.80727
0
LINE
8
BLACK
6
CONTINUOUS
10
4.4914
20
-1.80727
11
4.51366
21
-1.80946
0
LINE
8
BLACK
6
CONTINUOUS
10
4.51366
20
-1.80946
11
4.51368
21
-1.80946
0
LINE
8
BLACK
6
CONTINUOUS
10
4.51368
20
-1.80946
11
4.51377
21
-1.80948
0
LINE
8
BLACK
6
CONTINUOUS
10
4.51377
20
-1.80948
11
4.51385
21
-1.80949
0
LINE
8
BLACK
6
CONTINUOUS
10
4.51385
20
-1.80949
11
4.53527
21
-1.81596
0
LINE
8
BLACK
6
CONTINUOUS
10
4.53527
20
-1.81596
11
4.53528
21
-1.81596
0
LINE
8
BLACK
6
CONTINUOUS
10
4.53528
20
-1.81596
11
4.53536
21
-1.816
0
LINE
8
BLACK
6
CONTINUOUS
10
4.53536
20
-1.816
11
4.53544
21
-1.81603
0
LINE
8
BLACK
6
CONTINUOUS
10
4.53544
20
-1.81603
11
4.5552
21
-1.82653
0
LINE
8
BLACK
6
CONTINUOUS
10
4.5552
20
-1.82653
11
4.55521
21
-1.82654
0
LINE
8
BLACK
6
CONTINUOUS
10
4.55521
20
-1.82654
11
4.55528
21
-1.82659
0
LINE
8
BLACK
6
CONTINUOUS
10
4.55528
20
-1.82659
11
4.55536
21
-1.82664
0
LINE
8
BLACK
6
CONTINUOUS
10
4.55536
20
-1.82664
11
4.57269
21
-1.84078
0
LINE
8
BLACK
6
CONTINUOUS
10
4.57269
20
-1.84078
11
4.5727
21
-1.84079
0
LINE
8
BLACK
6
CONTINUOUS
10
4.5727
20
-1.84079
11
4.57276
21
-1.84085
0
LINE
8
BLACK
6
CONTINUOUS
10
4.57276
20
-1.84085
11
4.57283
21
-1.84091
0
LINE
8
BLACK
6
CONTINUOUS
10
4.57283
20
-1.84091
11
4.58709
21
-1.85815
0
LINE
8
BLACK
6
CONTINUOUS
10
4.58709
20
-1.85815
11
4.58709
21
-1.85815
0
LINE
8
BLACK
6
CONTINUOUS
10
4.58709
20
-1.85815
11
4.58709
21
-1.85815
0
LINE
8
BLACK
6
CONTINUOUS
10
4.58709
20
-1.85815
11
4.5871
21
-1.85816
0
LINE
8
BLACK
6
CONTINUOUS
10
4.5871
20
-1.85816
11
4.58714
21
-1.85824
0
LINE
8
BLACK
6
CONTINUOUS
10
4.58714
20
-1.85824
11
4.58719
21
-1.85831
0
LINE
8
BLACK
6
CONTINUOUS
10
4.58719
20
-1.85831
11
4.59783
21
-1.87799
0
LINE
8
BLACK
6
CONTINUOUS
10
4.59783
20
-1.87799
11
4.59783
21
-1.87799
0
LINE
8
BLACK
6
CONTINUOUS
10
4.59783
20
-1.87799
11
4.59783
21
-1.87799
0
LINE
8
BLACK
6
CONTINUOUS
10
4.59783
20
-1.87799
11
4.59784
21
-1.878
0
LINE
8
BLACK
6
CONTINUOUS
10
4.59784
20
-1.878
11
4.59787
21
-1.87808
0
LINE
8
BLACK
6
CONTINUOUS
10
4.59787
20
-1.87808
11
4.59791
21
-1.87816
0
LINE
8
BLACK
6
CONTINUOUS
10
4.59791
20
-1.87816
11
4.60452
21
-1.89953
0
LINE
8
BLACK
6
CONTINUOUS
10
4.60452
20
-1.89953
11
4.60453
21
-1.89955
0
LINE
8
BLACK
6
CONTINUOUS
10
4.60453
20
-1.89955
11
4.60454
21
-1.89964
0
LINE
8
BLACK
6
CONTINUOUS
10
4.60454
20
-1.89964
11
4.60456
21
-1.89972
0
LINE
8
BLACK
6
CONTINUOUS
10
4.60456
20
-1.89972
11
4.6069
21
-1.92197
0
LINE
8
BLACK
6
CONTINUOUS
10
4.6069
20
-1.92197
11
4.6069
21
-1.92198
0
LINE
8
BLACK
6
CONTINUOUS
10
4.6069
20
-1.92198
11
4.6069
21
-1.92203
0
LINE
8
BLACK
6
CONTINUOUS
10
4.6069
20
-1.92203
11
4.60691
21
-1.92207
0
LINE
8
BLACK
6
CONTINUOUS
10
4.60691
20
-1.92207
11
4.60691
21
-1.92282
0
LINE
8
BLACK
6
CONTINUOUS
10
4.60691
20
-1.92282
11
4.60691
21
-1.92283
0
LINE
8
BLACK
6
CONTINUOUS
10
4.60691
20
-1.92283
11
4.60691
21
-1.92286
0
LINE
8
BLACK
6
CONTINUOUS
10
4.60691
20
-1.92286
11
4.60691
21
-1.92287
0
LINE
8
BLACK
6
CONTINUOUS
10
4.60691
20
-1.92287
11
4.60691
21
-1.92288
0
LINE
8
BLACK
6
CONTINUOUS
10
4.60691
20
-1.92288
11
4.60693
21
-2.35827
0
LINE
8
BLACK
6
CONTINUOUS
10
4.60693
20
-2.35827
11
4.81515
21
-2.35827
0
LINE
8
BLACK
6
CONTINUOUS
10
4.81515
20
-2.35827
11
4.8152
21
-2.35827
0
LINE
8
BLACK
6
CONTINUOUS
10
4.8152
20
-2.35827
11
4.8152
21
-2.35827
0
LINE
8
BLACK
6
CONTINUOUS
10
4.8152
20
-2.35827
11
4.83746
21
-2.36046
0
LINE
8
BLACK
6
CONTINUOUS
10
4.83746
20
-2.36046
11
4.83748
21
-2.36046
0
LINE
8
BLACK
6
CONTINUOUS
10
4.83748
20
-2.36046
11
4.83757
21
-2.36048
0
LINE
8
BLACK
6
CONTINUOUS
10
4.83757
20
-2.36048
11
4.83765
21
-2.36049
0
LINE
8
BLACK
6
CONTINUOUS
10
4.83765
20
-2.36049
11
4.85907
21
-2.36696
0
LINE
8
BLACK
6
CONTINUOUS
10
4.85907
20
-2.36696
11
4.85908
21
-2.36696
0
LINE
8
BLACK
6
CONTINUOUS
10
4.85908
20
-2.36696
11
4.85916
21
-2.367
0
LINE
8
BLACK
6
CONTINUOUS
10
4.85916
20
-2.367
11
4.85924
21
-2.36703
0
LINE
8
BLACK
6
CONTINUOUS
10
4.85924
20
-2.36703
11
4.879
21
-2.37753
0
LINE
8
BLACK
6
CONTINUOUS
10
4.879
20
-2.37753
11
4.87901
21
-2.37754
0
LINE
8
BLACK
6
CONTINUOUS
10
4.87901
20
-2.37754
11
4.87908
21
-2.37759
0
LINE
8
BLACK
6
CONTINUOUS
10
4.87908
20
-2.37759
11
4.87916
21
-2.37764
0
LINE
8
BLACK
6
CONTINUOUS
10
4.87916
20
-2.37764
11
4.89649
21
-2.39178
0
LINE
8
BLACK
6
CONTINUOUS
10
4.89649
20
-2.39178
11
4.8965
21
-2.39179
0
LINE
8
BLACK
6
CONTINUOUS
10
4.8965
20
-2.39179
11
4.89656
21
-2.39185
0
LINE
8
BLACK
6
CONTINUOUS
10
4.89656
20
-2.39185
11
4.89663
21
-2.39191
0
LINE
8
BLACK
6
CONTINUOUS
10
4.89663
20
-2.39191
11
4.91089
21
-2.40915
0
LINE
8
BLACK
6
CONTINUOUS
10
4.91089
20
-2.40915
11
4.91089
21
-2.40915
0
LINE
8
BLACK
6
CONTINUOUS
10
4.91089
20
-2.40915
11
4.91089
21
-2.40915
0
LINE
8
BLACK
6
CONTINUOUS
10
4.91089
20
-2.40915
11
4.9109
21
-2.40916
0
LINE
8
BLACK
6
CONTINUOUS
10
4.9109
20
-2.40916
11
4.91094
21
-2.40924
0
LINE
8
BLACK
6
CONTINUOUS
10
4.91094
20
-2.40924
11
4.91099
21
-2.40931
0
LINE
8
BLACK
6
CONTINUOUS
10
4.91099
20
-2.40931
11
4.92163
21
-2.42899
0
LINE
8
BLACK
6
CONTINUOUS
10
4.92163
20
-2.42899
11
4.92163
21
-2.42899
0
LINE
8
BLACK
6
CONTINUOUS
10
4.92163
20
-2.42899
11
4.92163
21
-2.42899
0
LINE
8
BLACK
6
CONTINUOUS
10
4.92163
20
-2.42899
11
4.92164
21
-2.429
0
LINE
8
BLACK
6
CONTINUOUS
10
4.92164
20
-2.429
11
4.92167
21
-2.42908
0
LINE
8
BLACK
6
CONTINUOUS
10
4.92167
20
-2.42908
11
4.92171
21
-2.42916
0
LINE
8
BLACK
6
CONTINUOUS
10
4.92171
20
-2.42916
11
4.92832
21
-2.45053
0
LINE
8
BLACK
6
CONTINUOUS
10
4.92832
20
-2.45053
11
4.92833
21
-2.45055
0
LINE
8
BLACK
6
CONTINUOUS
10
4.92833
20
-2.45055
11
4.92834
21
-2.45064
0
LINE
8
BLACK
6
CONTINUOUS
10
4.92834
20
-2.45064
11
4.92836
21
-2.45072
0
LINE
8
BLACK
6
CONTINUOUS
10
4.92836
20
-2.45072
11
4.9307
21
-2.47297
0
LINE
8
BLACK
6
CONTINUOUS
10
4.9307
20
-2.47297
11
4.9307
21
-2.47298
0
LINE
8
BLACK
6
CONTINUOUS
10
4.9307
20
-2.47298
11
4.9307
21
-2.47303
0
LINE
8
BLACK
6
CONTINUOUS
10
4.9307
20
-2.47303
11
4.93071
21
-2.47307
0
LINE
8
BLACK
6
CONTINUOUS
10
4.93071
20
-2.47307
11
4.93071
21
-2.47377
0
LINE
8
BLACK
6
CONTINUOUS
10
4.93071
20
-2.47377
11
4.93071
21
-2.47377
0
LINE
8
BLACK
6
CONTINUOUS
10
4.93071
20
-2.47377
11
4.93071
21
-2.51081
0
LINE
8
BLACK
6
CONTINUOUS
10
4.93071
20
-2.51081
11
4.9307
21
-2.51085
0
LINE
8
BLACK
6
CONTINUOUS
10
2.83069
20
-6.2324
11
2.83301
21
-6.2545
0
LINE
8
BLACK
6
CONTINUOUS
10
2.83301
20
-6.2545
11
2.83957
21
-6.27569
0
LINE
8
BLACK
6
CONTINUOUS
10
2.83957
20
-6.27569
11
2.85012
21
-6.29519
0
LINE
8
BLACK
6
CONTINUOUS
10
2.85012
20
-6.29519
11
2.86426
21
-6.31228
0
LINE
8
BLACK
6
CONTINUOUS
10
2.86426
20
-6.31228
11
2.88144
21
-6.3263
0
LINE
8
BLACK
6
CONTINUOUS
10
2.88144
20
-6.3263
11
2.90102
21
-6.33671
0
LINE
8
BLACK
6
CONTINUOUS
10
2.90102
20
-6.33671
11
2.92225
21
-6.34312
0
LINE
8
BLACK
6
CONTINUOUS
10
2.92225
20
-6.34312
11
2.94437
21
-6.34529
0
LINE
8
BLACK
6
CONTINUOUS
10
2.94437
20
-6.34529
11
4.07211
21
-6.34529
0
LINE
8
BLACK
6
CONTINUOUS
10
4.07211
20
-6.34529
11
4.08163
21
-6.34504
0
LINE
8
BLACK
6
CONTINUOUS
10
4.08163
20
-6.34504
11
4.11477
21
-6.34023
0
LINE
8
BLACK
6
CONTINUOUS
10
4.11477
20
-6.34023
11
4.14646
21
-6.32948
0
LINE
8
BLACK
6
CONTINUOUS
10
4.14646
20
-6.32948
11
4.17565
21
-6.31313
0
LINE
8
BLACK
6
CONTINUOUS
10
4.17565
20
-6.31313
11
4.20145
21
-6.29167
0
LINE
8
BLACK
6
CONTINUOUS
10
4.20145
20
-6.29167
11
4.22732
21
-6.27016
0
LINE
8
BLACK
6
CONTINUOUS
10
4.22732
20
-6.27016
11
4.22734
21
-6.27014
0
LINE
8
BLACK
6
CONTINUOUS
10
4.22734
20
-6.27014
11
4.2274
21
-6.2701
0
LINE
8
BLACK
6
CONTINUOUS
10
4.2274
20
-6.2701
11
4.22746
21
-6.27006
0
LINE
8
BLACK
6
CONTINUOUS
10
4.22746
20
-6.27006
11
4.25682
21
-6.25362
0
LINE
8
BLACK
6
CONTINUOUS
10
4.25682
20
-6.25362
11
4.25684
21
-6.25361
0
LINE
8
BLACK
6
CONTINUOUS
10
4.25684
20
-6.25361
11
4.25691
21
-6.25358
0
LINE
8
BLACK
6
CONTINUOUS
10
4.25691
20
-6.25358
11
4.25698
21
-6.25355
0
LINE
8
BLACK
6
CONTINUOUS
10
4.25698
20
-6.25355
11
4.28884
21
-6.24273
0
LINE
8
BLACK
6
CONTINUOUS
10
4.28884
20
-6.24273
11
4.28886
21
-6.24272
0
LINE
8
BLACK
6
CONTINUOUS
10
4.28886
20
-6.24272
11
4.28894
21
-6.24271
0
LINE
8
BLACK
6
CONTINUOUS
10
4.28894
20
-6.24271
11
4.28901
21
-6.24269
0
LINE
8
BLACK
6
CONTINUOUS
10
4.28901
20
-6.24269
11
4.32231
21
-6.23786
0
LINE
8
BLACK
6
CONTINUOUS
10
4.32231
20
-6.23786
11
4.32233
21
-6.23786
0
LINE
8
BLACK
6
CONTINUOUS
10
4.32233
20
-6.23786
11
4.32238
21
-6.23786
0
LINE
8
BLACK
6
CONTINUOUS
10
4.32238
20
-6.23786
11
4.32242
21
-6.23785
0
LINE
8
BLACK
6
CONTINUOUS
10
4.32242
20
-6.23785
11
4.33197
21
-6.2376
0
LINE
8
BLACK
6
CONTINUOUS
10
4.33197
20
-6.2376
11
4.33199
21
-6.2376
0
LINE
8
BLACK
6
CONTINUOUS
10
4.33199
20
-6.2376
11
4.52806
21
-6.2376
0
LINE
8
BLACK
6
CONTINUOUS
10
4.52806
20
-6.2376
11
4.5281
21
-6.2376
0
LINE
8
BLACK
6
CONTINUOUS
10
4.5281
20
-6.2376
11
4.5281
21
-6.2376
0
LINE
8
BLACK
6
CONTINUOUS
10
4.5281
20
-6.2376
11
4.5616
21
-6.24069
0
LINE
8
BLACK
6
CONTINUOUS
10
4.5616
20
-6.24069
11
4.56163
21
-6.24069
0
LINE
8
BLACK
6
CONTINUOUS
10
4.56163
20
-6.24069
11
4.56171
21
-6.24071
0
LINE
8
BLACK
6
CONTINUOUS
10
4.56171
20
-6.24071
11
4.56178
21
-6.24072
0
LINE
8
BLACK
6
CONTINUOUS
10
4.56178
20
-6.24072
11
4.59416
21
-6.24986
0
LINE
8
BLACK
6
CONTINUOUS
10
4.59416
20
-6.24986
11
4.59418
21
-6.24987
0
LINE
8
BLACK
6
CONTINUOUS
10
4.59418
20
-6.24987
11
4.59426
21
-6.2499
0
LINE
8
BLACK
6
CONTINUOUS
10
4.59426
20
-6.2499
11
4.59433
21
-6.24992
0
LINE
8
BLACK
6
CONTINUOUS
10
4.59433
20
-6.24992
11
4.6245
21
-6.26481
0
LINE
8
BLACK
6
CONTINUOUS
10
4.6245
20
-6.26481
11
4.62452
21
-6.26482
0
LINE
8
BLACK
6
CONTINUOUS
10
4.62452
20
-6.26482
11
4.62459
21
-6.26487
0
LINE
8
BLACK
6
CONTINUOUS
10
4.62459
20
-6.26487
11
4.62465
21
-6.2649
0
LINE
8
BLACK
6
CONTINUOUS
10
4.62465
20
-6.2649
11
4.6516
21
-6.28504
0
LINE
8
BLACK
6
CONTINUOUS
10
4.6516
20
-6.28504
11
4.65162
21
-6.28506
0
LINE
8
BLACK
6
CONTINUOUS
10
4.65162
20
-6.28506
11
4.65166
21
-6.28509
0
LINE
8
BLACK
6
CONTINUOUS
10
4.65166
20
-6.28509
11
4.65169
21
-6.28511
0
LINE
8
BLACK
6
CONTINUOUS
10
4.65169
20
-6.28511
11
4.65865
21
-6.29171
0
LINE
8
BLACK
6
CONTINUOUS
10
4.65865
20
-6.29171
11
4.66556
21
-6.29828
0
LINE
8
BLACK
6
CONTINUOUS
10
4.66556
20
-6.29828
11
4.69239
21
-6.31832
0
LINE
8
BLACK
6
CONTINUOUS
10
4.69239
20
-6.31832
11
4.7224
21
-6.33313
0
LINE
8
BLACK
6
CONTINUOUS
10
4.7224
20
-6.33313
11
4.7546
21
-6.34222
0
LINE
8
BLACK
6
CONTINUOUS
10
4.7546
20
-6.34222
11
4.78797
21
-6.34529
0
LINE
8
BLACK
6
CONTINUOUS
10
4.78797
20
-6.34529
11
4.8151
21
-6.34529
0
LINE
8
BLACK
6
CONTINUOUS
10
4.8151
20
-6.34529
11
4.81585
21
-6.34529
0
LINE
8
BLACK
6
CONTINUOUS
10
4.81585
20
-6.34529
11
4.83795
21
-6.34296
0
LINE
8
BLACK
6
CONTINUOUS
10
4.83795
20
-6.34296
11
4.85914
21
-6.33641
0
LINE
8
BLACK
6
CONTINUOUS
10
4.85914
20
-6.33641
11
4.87865
21
-6.32586
0
LINE
8
BLACK
6
CONTINUOUS
10
4.87865
20
-6.32586
11
4.89573
21
-6.31172
0
LINE
8
BLACK
6
CONTINUOUS
10
4.89573
20
-6.31172
11
4.90975
21
-6.29453
0
LINE
8
BLACK
6
CONTINUOUS
10
4.90975
20
-6.29453
11
4.92016
21
-6.27495
0
LINE
8
BLACK
6
CONTINUOUS
10
4.92016
20
-6.27495
11
4.92657
21
-6.25372
0
LINE
8
BLACK
6
CONTINUOUS
10
4.92657
20
-6.25372
11
4.92874
21
-6.2316
0
LINE
8
BLACK
6
CONTINUOUS
10
4.92874
20
-6.2316
11
4.92874
21
-4.18647
0
LINE
8
BLACK
6
CONTINUOUS
10
4.92874
20
-4.18647
11
4.92849
21
-4.17695
0
LINE
8
BLACK
6
CONTINUOUS
10
4.92849
20
-4.17695
11
4.92368
21
-4.1438
0
LINE
8
BLACK
6
CONTINUOUS
10
4.92368
20
-4.1438
11
4.91293
21
-4.11212
0
LINE
8
BLACK
6
CONTINUOUS
10
4.91293
20
-4.11212
11
4.89658
21
-4.08292
0
LINE
8
BLACK
6
CONTINUOUS
10
4.89658
20
-4.08292
11
4.87512
21
-4.05713
0
LINE
8
BLACK
6
CONTINUOUS
10
4.87512
20
-4.05713
11
4.85361
21
-4.03126
0
LINE
8
BLACK
6
CONTINUOUS
10
4.85361
20
-4.03126
11
4.85359
21
-4.03124
0
LINE
8
BLACK
6
CONTINUOUS
10
4.85359
20
-4.03124
11
4.85355
21
-4.03118
0
LINE
8
BLACK
6
CONTINUOUS
10
4.85355
20
-4.03118
11
4.85351
21
-4.03111
0
LINE
8
BLACK
6
CONTINUOUS
10
4.85351
20
-4.03111
11
4.83707
21
-4.00176
0
LINE
8
BLACK
6
CONTINUOUS
10
4.83707
20
-4.00176
11
4.83706
21
-4.00174
0
LINE
8
BLACK
6
CONTINUOUS
10
4.83706
20
-4.00174
11
4.83703
21
-4.00166
0
LINE
8
BLACK
6
CONTINUOUS
10
4.83703
20
-4.00166
11
4.837
21
-4.00159
0
LINE
8
BLACK
6
CONTINUOUS
10
4.837
20
-4.00159
11
4.82618
21
-3.96974
0
LINE
8
BLACK
6
CONTINUOUS
10
4.82618
20
-3.96974
11
4.82618
21
-3.96971
0
LINE
8
BLACK
6
CONTINUOUS
10
4.82618
20
-3.96971
11
4.82616
21
-3.96964
0
LINE
8
BLACK
6
CONTINUOUS
10
4.82616
20
-3.96964
11
4.82614
21
-3.96956
0
LINE
8
BLACK
6
CONTINUOUS
10
4.82614
20
-3.96956
11
4.82131
21
-3.93627
0
LINE
8
BLACK
6
CONTINUOUS
10
4.82131
20
-3.93627
11
4.82131
21
-3.93624
0
LINE
8
BLACK
6
CONTINUOUS
10
4.82131
20
-3.93624
11
4.82131
21
-3.9362
0
LINE
8
BLACK
6
CONTINUOUS
10
4.82131
20
-3.9362
11
4.8213
21
-3.93615
0
LINE
8
BLACK
6
CONTINUOUS
10
4.8213
20
-3.93615
11
4.82105
21
-3.9266
0
LINE
8
BLACK
6
CONTINUOUS
10
4.82105
20
-3.9266
11
4.82105
21
-3.92659
0
LINE
8
BLACK
6
CONTINUOUS
10
4.82105
20
-3.92659
11
4.82105
21
-3.92654
0
LINE
8
BLACK
6
CONTINUOUS
10
4.82105
20
-3.92654
11
4.82105
21
-3.92654
0
LINE
8
BLACK
6
CONTINUOUS
10
4.82105
20
-3.92654
11
4.82105
21
-3.92654
0
LINE
8
BLACK
6
CONTINUOUS
10
4.82105
20
-3.92654
11
4.82105
21
-2.77062
0
LINE
8
BLACK
6
CONTINUOUS
10
4.82105
20
-2.77062
11
4.82106
21
-2.77058
0
LINE
8
BLACK
6
CONTINUOUS
10
4.82106
20
-2.77058
11
4.82106
21
-2.77058
0
LINE
8
BLACK
6
CONTINUOUS
10
4.82106
20
-2.77058
11
4.82414
21
-2.73708
0
LINE
8
BLACK
6
CONTINUOUS
10
4.82414
20
-2.73708
11
4.82414
21
-2.73705
0
LINE
8
BLACK
6
CONTINUOUS
10
4.82414
20
-2.73705
11
4.82416
21
-2.73698
0
LINE
8
BLACK
6
CONTINUOUS
10
4.82416
20
-2.73698
11
4.82417
21
-2.7369
0
LINE
8
BLACK
6
CONTINUOUS
10
4.82417
20
-2.7369
11
4.83331
21
-2.70452
0
LINE
8
BLACK
6
CONTINUOUS
10
4.83331
20
-2.70452
11
4.83332
21
-2.7045
0
LINE
8
BLACK
6
CONTINUOUS
10
4.83332
20
-2.7045
11
4.83335
21
-2.70443
0
LINE
8
BLACK
6
CONTINUOUS
10
4.83335
20
-2.70443
11
4.83338
21
-2.70436
0
LINE
8
BLACK
6
CONTINUOUS
10
4.83338
20
-2.70436
11
4.84826
21
-2.67418
0
LINE
8
BLACK
6
CONTINUOUS
10
4.84826
20
-2.67418
11
4.84827
21
-2.67416
0
LINE
8
BLACK
6
CONTINUOUS
10
4.84827
20
-2.67416
11
4.84832
21
-2.6741
0
LINE
8
BLACK
6
CONTINUOUS
10
4.84832
20
-2.6741
11
4.84836
21
-2.67403
0
LINE
8
BLACK
6
CONTINUOUS
10
4.84836
20
-2.67403
11
4.86849
21
-2.64708
0
LINE
8
BLACK
6
CONTINUOUS
10
4.86849
20
-2.64708
11
4.86851
21
-2.64706
0
LINE
8
BLACK
6
CONTINUOUS
10
4.86851
20
-2.64706
11
4.86854
21
-2.64703
0
LINE
8
BLACK
6
CONTINUOUS
10
4.86854
20
-2.64703
11
4.86857
21
-2.64699
0
LINE
8
BLACK
6
CONTINUOUS
10
4.86857
20
-2.64699
11
4.87517
21
-2.64004
0
LINE
8
BLACK
6
CONTINUOUS
10
4.87517
20
-2.64004
11
4.88173
21
-2.63312
0
LINE
8
BLACK
6
CONTINUOUS
10
4.88173
20
-2.63312
11
4.90177
21
-2.60629
0
LINE
8
BLACK
6
CONTINUOUS
10
4.90177
20
-2.60629
11
4.91658
21
-2.57628
0
LINE
8
BLACK
6
CONTINUOUS
10
4.91658
20
-2.57628
11
4.92567
21
-2.54408
0
LINE
8
BLACK
6
CONTINUOUS
10
4.92567
20
-2.54408
11
4.92874
21
-2.51071
0
LINE
8
BLACK
6
CONTINUOUS
10
4.92874
20
-2.51071
11
4.92874
21
-2.47383
0
LINE
8
BLACK
6
CONTINUOUS
10
4.92874
20
-2.47383
11
4.92874
21
-2.47382
0
LINE
8
BLACK
6
CONTINUOUS
10
4.92874
20
-2.47382
11
4.92874
21
-2.47313
0
LINE
8
BLACK
6
CONTINUOUS
10
4.92874
20
-2.47313
11
4.92641
21
-2.45102
0
LINE
8
BLACK
6
CONTINUOUS
10
4.92641
20
-2.45102
11
4.91986
21
-2.42984
0
LINE
8
BLACK
6
CONTINUOUS
10
4.91986
20
-2.42984
11
4.90931
21
-2.41033
0
LINE
8
BLACK
6
CONTINUOUS
10
4.90931
20
-2.41033
11
4.89517
21
-2.39324
0
LINE
8
BLACK
6
CONTINUOUS
10
4.89517
20
-2.39324
11
4.87799
21
-2.37923
0
LINE
8
BLACK
6
CONTINUOUS
10
4.87799
20
-2.37923
11
4.85841
21
-2.36881
0
LINE
8
BLACK
6
CONTINUOUS
10
4.85841
20
-2.36881
11
4.83717
21
-2.36241
0
LINE
8
BLACK
6
CONTINUOUS
10
4.83717
20
-2.36241
11
4.81506
21
-2.36024
0
LINE
8
BLACK
6
CONTINUOUS
10
4.81506
20
-2.36024
11
4.60599
21
-2.36024
0
LINE
8
BLACK
6
CONTINUOUS
10
4.60599
20
-2.36024
11
4.60595
21
-2.36024
0
LINE
8
BLACK
6
CONTINUOUS
10
4.60595
20
-2.36024
11
4.6059
21
-2.36024
0
LINE
8
BLACK
6
CONTINUOUS
10
4.6059
20
-2.36024
11
4.6059
21
-2.36024
0
LINE
8
BLACK
6
CONTINUOUS
10
4.6059
20
-2.36024
11
4.60575
21
-2.36022
0
LINE
8
BLACK
6
CONTINUOUS
10
4.60575
20
-2.36022
11
4.60557
21
-2.36017
0
LINE
8
BLACK
6
CONTINUOUS
10
4.60557
20
-2.36017
11
4.6054
21
-2.36007
0
LINE
8
BLACK
6
CONTINUOUS
10
4.6054
20
-2.36007
11
4.60525
21
-2.35995
0
LINE
8
BLACK
6
CONTINUOUS
10
4.60525
20
-2.35995
11
4.60512
21
-2.3598
0
LINE
8
BLACK
6
CONTINUOUS
10
4.60512
20
-2.3598
11
4.60503
21
-2.35963
0
LINE
8
BLACK
6
CONTINUOUS
10
4.60503
20
-2.35963
11
4.60498
21
-2.35944
0
LINE
8
BLACK
6
CONTINUOUS
10
4.60498
20
-2.35944
11
4.60496
21
-2.35925
0
LINE
8
BLACK
6
CONTINUOUS
10
4.60496
20
-2.35925
11
4.60496
21
-2.3592
0
LINE
8
BLACK
6
CONTINUOUS
10
4.60496
20
-2.3592
11
4.60494
21
-1.92288
0
LINE
8
BLACK
6
CONTINUOUS
10
4.60494
20
-1.92288
11
4.60494
21
-1.92213
0
LINE
8
BLACK
6
CONTINUOUS
10
4.60494
20
-1.92213
11
4.60261
21
-1.90002
0
LINE
8
BLACK
6
CONTINUOUS
10
4.60261
20
-1.90002
11
4.59606
21
-1.87884
0
LINE
8
BLACK
6
CONTINUOUS
10
4.59606
20
-1.87884
11
4.58551
21
-1.85933
0
LINE
8
BLACK
6
CONTINUOUS
10
4.58551
20
-1.85933
11
4.57137
21
-1.84224
0
LINE
8
BLACK
6
CONTINUOUS
10
4.57137
20
-1.84224
11
4.55419
21
-1.82823
0
LINE
8
BLACK
6
CONTINUOUS
10
4.55419
20
-1.82823
11
4.53461
21
-1.81781
0
LINE
8
BLACK
6
CONTINUOUS
10
4.53461
20
-1.81781
11
4.51337
21
-1.81141
0
LINE
8
BLACK
6
CONTINUOUS
10
4.51337
20
-1.81141
11
4.49126
21
-1.80924
0
LINE
8
BLACK
6
CONTINUOUS
10
4.49126
20
-1.80924
11
4.16853
21
-1.80924
0
LINE
8
BLACK
6
CONTINUOUS
10
4.16853
20
-1.80924
11
4.16778
21
-1.80924
0
LINE
8
BLACK
6
CONTINUOUS
10
4.16778
20
-1.80924
11
4.14568
21
-1.81156
0
LINE
8
BLACK
6
CONTINUOUS
10
4.14568
20
-1.81156
11
4.12449
21
-1.81812
0
LINE
8
BLACK
6
CONTINUOUS
10
4.12449
20
-1.81812
11
4.10498
21
-1.82867
0
LINE
8
BLACK
6
CONTINUOUS
10
4.10498
20
-1.82867
11
4.08789
21
-1.8428
0
LINE
8
BLACK
6
CONTINUOUS
10
4.08789
20
-1.8428
11
4.07388
21
-1.85999
0
LINE
8
BLACK
6
CONTINUOUS
10
4.07388
20
-1.85999
11
4.06347
21
-1.87957
0
LINE
8
BLACK
6
CONTINUOUS
10
4.06347
20
-1.87957
11
4.05706
21
-1.9008
0
LINE
8
BLACK
6
CONTINUOUS
10
4.05706
20
-1.9008
11
4.05489
21
-1.92292
0
LINE
8
BLACK
6
CONTINUOUS
10
4.05489
20
-1.92292
11
4.05491
21
-2.3592
0
LINE
8
BLACK
6
CONTINUOUS
10
4.05491
20
-2.3592
11
4.05491
21
-2.35925
0
LINE
8
BLACK
6
CONTINUOUS
10
4.05491
20
-2.35925
11
4.05489
21
-2.35944
0
LINE
8
BLACK
6
CONTINUOUS
10
4.05489
20
-2.35944
11
4.05484
21
-2.35963
0
LINE
8
BLACK
6
CONTINUOUS
10
4.05484
20
-2.35963
11
4.05475
21
-2.3598
0
LINE
8
BLACK
6
CONTINUOUS
10
4.05475
20
-2.3598
11
4.05462
21
-2.35995
0
LINE
8
BLACK
6
CONTINUOUS
10
4.05462
20
-2.35995
11
4.05447
21
-2.36007
0
LINE
8
BLACK
6
CONTINUOUS
10
4.05447
20
-2.36007
11
4.0543
21
-2.36017
0
LINE
8
BLACK
6
CONTINUOUS
10
4.0543
20
-2.36017
11
4.05412
21
-2.36022
0
LINE
8
BLACK
6
CONTINUOUS
10
4.05412
20
-2.36022
11
4.05397
21
-2.36024
0
LINE
8
BLACK
6
CONTINUOUS
10
4.05397
20
-2.36024
11
4.05397
21
-2.36024
0
LINE
8
BLACK
6
CONTINUOUS
10
4.05397
20
-2.36024
11
4.05392
21
-2.36024
0
LINE
8
BLACK
6
CONTINUOUS
10
4.05392
20
-2.36024
11
4.05388
21
-2.36024
0
LINE
8
BLACK
6
CONTINUOUS
10
4.05388
20
-2.36024
11
2.94433
21
-2.36024
0
LINE
8
BLACK
6
CONTINUOUS
10
2.94433
20
-2.36024
11
2.94358
21
-2.36024
0
LINE
8
BLACK
6
CONTINUOUS
10
2.94358
20
-2.36024
11
2.92148
21
-2.36256
0
LINE
8
BLACK
6
CONTINUOUS
10
2.92148
20
-2.36256
11
2.90029
21
-2.36912
0
LINE
8
BLACK
6
CONTINUOUS
10
2.90029
20
-2.36912
11
2.88078
21
-2.37967
0
LINE
8
BLACK
6
CONTINUOUS
10
2.88078
20
-2.37967
11
2.86369
21
-2.3938
0
LINE
8
BLACK
6
CONTINUOUS
10
2.86369
20
-2.3938
11
2.84968
21
-2.41099
0
LINE
8
BLACK
6
CONTINUOUS
10
2.84968
20
-2.41099
11
2.83927
21
-2.43057
0
LINE
8
BLACK
6
CONTINUOUS
10
2.83927
20
-2.43057
11
2.83286
21
-2.4518
0
LINE
8
BLACK
6
CONTINUOUS
10
2.83286
20
-2.4518
11
2.83069
21
-2.47392
0
LINE
8
BLACK
6
CONTINUOUS
10
2.83069
20
-2.47392
11
2.83069
21
-6.23165
0
LINE
8
BLACK
6
CONTINUOUS
10
2.83069
20
-6.23165
11
2.83069
21
-6.2324
0
LINE
8
BLACK
6
CONTINUOUS
10
3.97238
20
-2.61533
11
3.97229
21
-2.61535
0
LINE
8
BLACK
6
CONTINUOUS
10
3.97229
20
-2.61535
11
3.9722
21
-2.61537
0
LINE
8
BLACK
6
CONTINUOUS
10
3.9722
20
-2.61537
11
3.956
21
-2.61718
0
LINE
8
BLACK
6
CONTINUOUS
10
3.956
20
-2.61718
11
3.95599
21
-2.61719
0
LINE
8
BLACK
6
CONTINUOUS
10
3.95599
20
-2.61719
11
3.95594
21
-2.61719
0
LINE
8
BLACK
6
CONTINUOUS
10
3.95594
20
-2.61719
11
3.9559
21
-2.61719
0
LINE
8
BLACK
6
CONTINUOUS
10
3.9559
20
-2.61719
11
3.95474
21
-2.6172
0
LINE
8
BLACK
6
CONTINUOUS
10
3.95474
20
-2.6172
11
3.95474
21
-2.6172
0
LINE
8
BLACK
6
CONTINUOUS
10
3.95474
20
-2.6172
11
3.80428
21
-2.6172
0
LINE
8
BLACK
6
CONTINUOUS
10
3.80428
20
-2.6172
11
3.80423
21
-2.61719
0
LINE
8
BLACK
6
CONTINUOUS
10
3.80423
20
-2.61719
11
3.80423
21
-2.61719
0
LINE
8
BLACK
6
CONTINUOUS
10
3.80423
20
-2.61719
11
3.788
21
-2.6156
0
LINE
8
BLACK
6
CONTINUOUS
10
3.788
20
-2.6156
11
3.78799
21
-2.6156
0
LINE
8
BLACK
6
CONTINUOUS
10
3.78799
20
-2.6156
11
3.7879
21
-2.61558
0
LINE
8
BLACK
6
CONTINUOUS
10
3.7879
20
-2.61558
11
3.78782
21
-2.61557
0
LINE
8
BLACK
6
CONTINUOUS
10
3.78782
20
-2.61557
11
3.77221
21
-2.61085
0
LINE
8
BLACK
6
CONTINUOUS
10
3.77221
20
-2.61085
11
3.7722
21
-2.61085
0
LINE
8
BLACK
6
CONTINUOUS
10
3.7722
20
-2.61085
11
3.77211
21
-2.61081
0
LINE
8
BLACK
6
CONTINUOUS
10
3.77211
20
-2.61081
11
3.77203
21
-2.61078
0
LINE
8
BLACK
6
CONTINUOUS
10
3.77203
20
-2.61078
11
3.75764
21
-2.60313
0
LINE
8
BLACK
6
CONTINUOUS
10
3.75764
20
-2.60313
11
3.75762
21
-2.60312
0
LINE
8
BLACK
6
CONTINUOUS
10
3.75762
20
-2.60312
11
3.75755
21
-2.60307
0
LINE
8
BLACK
6
CONTINUOUS
10
3.75755
20
-2.60307
11
3.75748
21
-2.60302
0
LINE
8
BLACK
6
CONTINUOUS
10
3.75748
20
-2.60302
11
3.74484
21
-2.59272
0
LINE
8
BLACK
6
CONTINUOUS
10
3.74484
20
-2.59272
11
3.74483
21
-2.59271
0
LINE
8
BLACK
6
CONTINUOUS
10
3.74483
20
-2.59271
11
3.74477
21
-2.59264
0
LINE
8
BLACK
6
CONTINUOUS
10
3.74477
20
-2.59264
11
3.74471
21
-2.59258
0
LINE
8
BLACK
6
CONTINUOUS
10
3.74471
20
-2.59258
11
3.73432
21
-2.58002
0
LINE
8
BLACK
6
CONTINUOUS
10
3.73432
20
-2.58002
11
3.73431
21
-2.58001
0
LINE
8
BLACK
6
CONTINUOUS
10
3.73431
20
-2.58001
11
3.73426
21
-2.57993
0
LINE
8
BLACK
6
CONTINUOUS
10
3.73426
20
-2.57993
11
3.73421
21
-2.57986
0
LINE
8
BLACK
6
CONTINUOUS
10
3.73421
20
-2.57986
11
3.72645
21
-2.56552
0
LINE
8
BLACK
6
CONTINUOUS
10
3.72645
20
-2.56552
11
3.72645
21
-2.56551
0
LINE
8
BLACK
6
CONTINUOUS
10
3.72645
20
-2.56551
11
3.72641
21
-2.56543
0
LINE
8
BLACK
6
CONTINUOUS
10
3.72641
20
-2.56543
11
3.72638
21
-2.56534
0
LINE
8
BLACK
6
CONTINUOUS
10
3.72638
20
-2.56534
11
3.72156
21
-2.54977
0
LINE
8
BLACK
6
CONTINUOUS
10
3.72156
20
-2.54977
11
3.72156
21
-2.54976
0
LINE
8
BLACK
6
CONTINUOUS
10
3.72156
20
-2.54976
11
3.72154
21
-2.54967
0
LINE
8
BLACK
6
CONTINUOUS
10
3.72154
20
-2.54967
11
3.72152
21
-2.54958
0
LINE
8
BLACK
6
CONTINUOUS
10
3.72152
20
-2.54958
11
3.71982
21
-2.53337
0
LINE
8
BLACK
6
CONTINUOUS
10
3.71982
20
-2.53337
11
3.71982
21
-2.53336
0
LINE
8
BLACK
6
CONTINUOUS
10
3.71982
20
-2.53336
11
3.71982
21
-2.53326
0
LINE
8
BLACK
6
CONTINUOUS
10
3.71982
20
-2.53326
11
3.71982
21
-2.53318
0
LINE
8
BLACK
6
CONTINUOUS
10
3.71982
20
-2.53318
11
3.72129
21
-2.51694
0
LINE
8
BLACK
6
CONTINUOUS
10
3.72129
20
-2.51694
11
3.72129
21
-2.51693
0
LINE
8
BLACK
6
CONTINUOUS
10
3.72129
20
-2.51693
11
3.72131
21
-2.51684
0
LINE
8
BLACK
6
CONTINUOUS
10
3.72131
20
-2.51684
11
3.72133
21
-2.51675
0
LINE
8
BLACK
6
CONTINUOUS
10
3.72133
20
-2.51675
11
3.72593
21
-2.50111
0
LINE
8
BLACK
6
CONTINUOUS
10
3.72593
20
-2.50111
11
3.72594
21
-2.5011
0
LINE
8
BLACK
6
CONTINUOUS
10
3.72594
20
-2.5011
11
3.72597
21
-2.50102
0
LINE
8
BLACK
6
CONTINUOUS
10
3.72597
20
-2.50102
11
3.726
21
-2.50094
0
LINE
8
BLACK
6
CONTINUOUS
10
3.726
20
-2.50094
11
3.73356
21
-2.48649
0
LINE
8
BLACK
6
CONTINUOUS
10
3.73356
20
-2.48649
11
3.73356
21
-2.48648
0
LINE
8
BLACK
6
CONTINUOUS
10
3.73356
20
-2.48648
11
3.73361
21
-2.4864
0
LINE
8
BLACK
6
CONTINUOUS
10
3.73361
20
-2.4864
11
3.73366
21
-2.48633
0
LINE
8
BLACK
6
CONTINUOUS
10
3.73366
20
-2.48633
11
3.74388
21
-2.47362
0
LINE
8
BLACK
6
CONTINUOUS
10
3.74388
20
-2.47362
11
3.74389
21
-2.47361
0
LINE
8
BLACK
6
CONTINUOUS
10
3.74389
20
-2.47361
11
3.74395
21
-2.47355
0
LINE
8
BLACK
6
CONTINUOUS
10
3.74395
20
-2.47355
11
3.74401
21
-2.47349
0
LINE
8
BLACK
6
CONTINUOUS
10
3.74401
20
-2.47349
11
3.7565
21
-2.46301
0
LINE
8
BLACK
6
CONTINUOUS
10
3.7565
20
-2.46301
11
3.75651
21
-2.463
0
LINE
8
BLACK
6
CONTINUOUS
10
3.75651
20
-2.463
11
3.75658
21
-2.46295
0
LINE
8
BLACK
6
CONTINUOUS
10
3.75658
20
-2.46295
11
3.75666
21
-2.4629
0
LINE
8
BLACK
6
CONTINUOUS
10
3.75666
20
-2.4629
11
3.77094
21
-2.45504
0
LINE
8
BLACK
6
CONTINUOUS
10
3.77094
20
-2.45504
11
3.77096
21
-2.45504
0
LINE
8
BLACK
6
CONTINUOUS
10
3.77096
20
-2.45504
11
3.77104
21
-2.455
0
LINE
8
BLACK
6
CONTINUOUS
10
3.77104
20
-2.455
11
3.77112
21
-2.45497
0
LINE
8
BLACK
6
CONTINUOUS
10
3.77112
20
-2.45497
11
3.78666
21
-2.45004
0
LINE
8
BLACK
6
CONTINUOUS
10
3.78666
20
-2.45004
11
3.78667
21
-2.45004
0
LINE
8
BLACK
6
CONTINUOUS
10
3.78667
20
-2.45004
11
3.78676
21
-2.45002
0
LINE
8
BLACK
6
CONTINUOUS
10
3.78676
20
-2.45002
11
3.78685
21
-2.45
0
LINE
8
BLACK
6
CONTINUOUS
10
3.78685
20
-2.45
11
3.80305
21
-2.44818
0
LINE
8
BLACK
6
CONTINUOUS
10
3.80305
20
-2.44818
11
3.80306
21
-2.44818
0
LINE
8
BLACK
6
CONTINUOUS
10
3.80306
20
-2.44818
11
3.80311
21
-2.44818
0
LINE
8
BLACK
6
CONTINUOUS
10
3.80311
20
-2.44818
11
3.80315
21
-2.44818
0
LINE
8
BLACK
6
CONTINUOUS
10
3.80315
20
-2.44818
11
3.80427
21
-2.44817
0
LINE
8
BLACK
6
CONTINUOUS
10
3.80427
20
-2.44817
11
3.80428
21
-2.44817
0
LINE
8
BLACK
6
CONTINUOUS
10
3.80428
20
-2.44817
11
3.95477
21
-2.44817
0
LINE
8
BLACK
6
CONTINUOUS
10
3.95477
20
-2.44817
11
3.95482
21
-2.44817
0
LINE
8
BLACK
6
CONTINUOUS
10
3.95482
20
-2.44817
11
3.95482
21
-2.44817
0
LINE
8
BLACK
6
CONTINUOUS
10
3.95482
20
-2.44817
11
3.97105
21
-2.44976
0
LINE
8
BLACK
6
CONTINUOUS
10
3.97105
20
-2.44976
11
3.97106
21
-2.44976
0
LINE
8
BLACK
6
CONTINUOUS
10
3.97106
20
-2.44976
11
3.97115
21
-2.44978
0
LINE
8
BLACK
6
CONTINUOUS
10
3.97115
20
-2.44978
11
3.97123
21
-2.4498
0
LINE
8
BLACK
6
CONTINUOUS
10
3.97123
20
-2.4498
11
3.98684
21
-2.45451
0
LINE
8
BLACK
6
CONTINUOUS
10
3.98684
20
-2.45451
11
3.98685
21
-2.45452
0
LINE
8
BLACK
6
CONTINUOUS
10
3.98685
20
-2.45452
11
3.98694
21
-2.45455
0
LINE
8
BLACK
6
CONTINUOUS
10
3.98694
20
-2.45455
11
3.98702
21
-2.45459
0
LINE
8
BLACK
6
CONTINUOUS
10
3.98702
20
-2.45459
11
4.00141
21
-2.46224
0
LINE
8
BLACK
6
CONTINUOUS
10
4.00141
20
-2.46224
11
4.00142
21
-2.46225
0
LINE
8
BLACK
6
CONTINUOUS
10
4.00142
20
-2.46225
11
4.0015
21
-2.4623
0
LINE
8
BLACK
6
CONTINUOUS
10
4.0015
20
-2.4623
11
4.00157
21
-2.46235
0
LINE
8
BLACK
6
CONTINUOUS
10
4.00157
20
-2.46235
11
4.01421
21
-2.47265
0
LINE
8
BLACK
6
CONTINUOUS
10
4.01421
20
-2.47265
11
4.01421
21
-2.47265
0
LINE
8
BLACK
6
CONTINUOUS
10
4.01421
20
-2.47265
11
4.01421
21
-2.47265
0
LINE
8
BLACK
6
CONTINUOUS
10
4.01421
20
-2.47265
11
4.01422
21
-2.47266
0
LINE
8
BLACK
6
CONTINUOUS
10
4.01422
20
-2.47266
11
4.01428
21
-2.47272
0
LINE
8
BLACK
6
CONTINUOUS
10
4.01428
20
-2.47272
11
4.01434
21
-2.47278
0
LINE
8
BLACK
6
CONTINUOUS
10
4.01434
20
-2.47278
11
4.02473
21
-2.48535
0
LINE
8
BLACK
6
CONTINUOUS
10
4.02473
20
-2.48535
11
4.02473
21
-2.48535
0
LINE
8
BLACK
6
CONTINUOUS
10
4.02473
20
-2.48535
11
4.02473
21
-2.48535
0
LINE
8
BLACK
6
CONTINUOUS
10
4.02473
20
-2.48535
11
4.02474
21
-2.48536
0
LINE
8
BLACK
6
CONTINUOUS
10
4.02474
20
-2.48536
11
4.02479
21
-2.48543
0
LINE
8
BLACK
6
CONTINUOUS
10
4.02479
20
-2.48543
11
4.02484
21
-2.4855
0
LINE
8
BLACK
6
CONTINUOUS
10
4.02484
20
-2.4855
11
4.03259
21
-2.49985
0
LINE
8
BLACK
6
CONTINUOUS
10
4.03259
20
-2.49985
11
4.0326
21
-2.49986
0
LINE
8
BLACK
6
CONTINUOUS
10
4.0326
20
-2.49986
11
4.03263
21
-2.49994
0
LINE
8
BLACK
6
CONTINUOUS
10
4.03263
20
-2.49994
11
4.03267
21
-2.50002
0
LINE
8
BLACK
6
CONTINUOUS
10
4.03267
20
-2.50002
11
4.03749
21
-2.5156
0
LINE
8
BLACK
6
CONTINUOUS
10
4.03749
20
-2.5156
11
4.03749
21
-2.51561
0
LINE
8
BLACK
6
CONTINUOUS
10
4.03749
20
-2.51561
11
4.03751
21
-2.5157
0
LINE
8
BLACK
6
CONTINUOUS
10
4.03751
20
-2.5157
11
4.03753
21
-2.51578
0
LINE
8
BLACK
6
CONTINUOUS
10
4.03753
20
-2.51578
11
4.03923
21
-2.532
0
LINE
8
BLACK
6
CONTINUOUS
10
4.03923
20
-2.532
11
4.03923
21
-2.53201
0
LINE
8
BLACK
6
CONTINUOUS
10
4.03923
20
-2.53201
11
4.03923
21
-2.5321
0
LINE
8
BLACK
6
CONTINUOUS
10
4.03923
20
-2.5321
11
4.03923
21
-2.53219
0
LINE
8
BLACK
6
CONTINUOUS
10
4.03923
20
-2.53219
11
4.03776
21
-2.54842
0
LINE
8
BLACK
6
CONTINUOUS
10
4.03776
20
-2.54842
11
4.03775
21
-2.54844
0
LINE
8
BLACK
6
CONTINUOUS
10
4.03775
20
-2.54844
11
4.03774
21
-2.54853
0
LINE
8
BLACK
6
CONTINUOUS
10
4.03774
20
-2.54853
11
4.03772
21
-2.54861
0
LINE
8
BLACK
6
CONTINUOUS
10
4.03772
20
-2.54861
11
4.03312
21
-2.56425
0
LINE
8
BLACK
6
CONTINUOUS
10
4.03312
20
-2.56425
11
4.03311
21
-2.56427
0
LINE
8
BLACK
6
CONTINUOUS
10
4.03311
20
-2.56427
11
4.03308
21
-2.56435
0
LINE
8
BLACK
6
CONTINUOUS
10
4.03308
20
-2.56435
11
4.03305
21
-2.56443
0
LINE
8
BLACK
6
CONTINUOUS
10
4.03305
20
-2.56443
11
4.02549
21
-2.57888
0
LINE
8
BLACK
6
CONTINUOUS
10
4.02549
20
-2.57888
11
4.02549
21
-2.57889
0
LINE
8
BLACK
6
CONTINUOUS
10
4.02549
20
-2.57889
11
4.02543
21
-2.57897
0
LINE
8
BLACK
6
CONTINUOUS
10
4.02543
20
-2.57897
11
4.02539
21
-2.57904
0
LINE
8
BLACK
6
CONTINUOUS
10
4.02539
20
-2.57904
11
4.01517
21
-2.59174
0
LINE
8
BLACK
6
CONTINUOUS
10
4.01517
20
-2.59174
11
4.01517
21
-2.59174
0
LINE
8
BLACK
6
CONTINUOUS
10
4.01517
20
-2.59174
11
4.01517
21
-2.59174
0
LINE
8
BLACK
6
CONTINUOUS
10
4.01517
20
-2.59174
11
4.01516
21
-2.59175
0
LINE
8
BLACK
6
CONTINUOUS
10
4.01516
20
-2.59175
11
4.0151
21
-2.59182
0
LINE
8
BLACK
6
CONTINUOUS
10
4.0151
20
-2.59182
11
4.01504
21
-2.59188
0
LINE
8
BLACK
6
CONTINUOUS
10
4.01504
20
-2.59188
11
4.00255
21
-2.60236
0
LINE
8
BLACK
6
CONTINUOUS
10
4.00255
20
-2.60236
11
4.00254
21
-2.60237
0
LINE
8
BLACK
6
CONTINUOUS
10
4.00254
20
-2.60237
11
4.00246
21
-2.60242
0
LINE
8
BLACK
6
CONTINUOUS
10
4.00246
20
-2.60242
11
4.00239
21
-2.60247
0
LINE
8
BLACK
6
CONTINUOUS
10
4.00239
20
-2.60247
11
3.98811
21
-2.61032
0
LINE
8
BLACK
6
CONTINUOUS
10
3.98811
20
-2.61032
11
3.98809
21
-2.61033
0
LINE
8
BLACK
6
CONTINUOUS
10
3.98809
20
-2.61033
11
3.98801
21
-2.61036
0
LINE
8
BLACK
6
CONTINUOUS
10
3.98801
20
-2.61036
11
3.98793
21
-2.6104
0
LINE
8
BLACK
6
CONTINUOUS
10
3.98793
20
-2.6104
11
3.97239
21
-2.61533
0
LINE
8
BLACK
6
CONTINUOUS
10
3.97239
20
-2.61533
11
3.97239
21
-2.61533
0
LINE
8
BLACK
6
CONTINUOUS
10
3.97239
20
-2.61533
11
3.97238
21
-2.61533
0
LINE
8
BLACK
6
CONTINUOUS
10
3.80433
20
-2.45014
11
3.80322
21
-2.45014
0
LINE
8
BLACK
6
CONTINUOUS
10
3.80322
20
-2.45014
11
3.78716
21
-2.45194
0
LINE
8
BLACK
6
CONTINUOUS
10
3.78716
20
-2.45194
11
3.77181
21
-2.45682
0
LINE
8
BLACK
6
CONTINUOUS
10
3.77181
20
-2.45682
11
3.75769
21
-2.46458
0
LINE
8
BLACK
6
CONTINUOUS
10
3.75769
20
-2.46458
11
3.74535
21
-2.47493
0
LINE
8
BLACK
6
CONTINUOUS
10
3.74535
20
-2.47493
11
3.73526
21
-2.48749
0
LINE
8
BLACK
6
CONTINUOUS
10
3.73526
20
-2.48749
11
3.72779
21
-2.50176
0
LINE
8
BLACK
6
CONTINUOUS
10
3.72779
20
-2.50176
11
3.72324
21
-2.51722
0
LINE
8
BLACK
6
CONTINUOUS
10
3.72324
20
-2.51722
11
3.72178
21
-2.53326
0
LINE
8
BLACK
6
CONTINUOUS
10
3.72178
20
-2.53326
11
3.72347
21
-2.54928
0
LINE
8
BLACK
6
CONTINUOUS
10
3.72347
20
-2.54928
11
3.72823
21
-2.56467
0
LINE
8
BLACK
6
CONTINUOUS
10
3.72823
20
-2.56467
11
3.73589
21
-2.57884
0
LINE
8
BLACK
6
CONTINUOUS
10
3.73589
20
-2.57884
11
3.74616
21
-2.59125
0
LINE
8
BLACK
6
CONTINUOUS
10
3.74616
20
-2.59125
11
3.75865
21
-2.60143
0
LINE
8
BLACK
6
CONTINUOUS
10
3.75865
20
-2.60143
11
3.77287
21
-2.609
0
LINE
8
BLACK
6
CONTINUOUS
10
3.77287
20
-2.609
11
3.78829
21
-2.61365
0
LINE
8
BLACK
6
CONTINUOUS
10
3.78829
20
-2.61365
11
3.80437
21
-2.61523
0
LINE
8
BLACK
6
CONTINUOUS
10
3.80437
20
-2.61523
11
3.95469
21
-2.61523
0
LINE
8
BLACK
6
CONTINUOUS
10
3.95469
20
-2.61523
11
3.95583
21
-2.61522
0
LINE
8
BLACK
6
CONTINUOUS
10
3.95583
20
-2.61522
11
3.97189
21
-2.61342
0
LINE
8
BLACK
6
CONTINUOUS
10
3.97189
20
-2.61342
11
3.98724
21
-2.60855
0
LINE
8
BLACK
6
CONTINUOUS
10
3.98724
20
-2.60855
11
4.00136
21
-2.60079
0
LINE
8
BLACK
6
CONTINUOUS
10
4.00136
20
-2.60079
11
4.0137
21
-2.59043
0
LINE
8
BLACK
6
CONTINUOUS
10
4.0137
20
-2.59043
11
4.02379
21
-2.57788
0
LINE
8
BLACK
6
CONTINUOUS
10
4.02379
20
-2.57788
11
4.03126
21
-2.5636
0
LINE
8
BLACK
6
CONTINUOUS
10
4.03126
20
-2.5636
11
4.0358
21
-2.54815
0
LINE
8
BLACK
6
CONTINUOUS
10
4.0358
20
-2.54815
11
4.03726
21
-2.53211
0
LINE
8
BLACK
6
CONTINUOUS
10
4.03726
20
-2.53211
11
4.03558
21
-2.51609
0
LINE
8
BLACK
6
CONTINUOUS
10
4.03558
20
-2.51609
11
4.03082
21
-2.5007
0
LINE
8
BLACK
6
CONTINUOUS
10
4.03082
20
-2.5007
11
4.02316
21
-2.48653
0
LINE
8
BLACK
6
CONTINUOUS
10
4.02316
20
-2.48653
11
4.01289
21
-2.47411
0
LINE
8
BLACK
6
CONTINUOUS
10
4.01289
20
-2.47411
11
4.0004
21
-2.46393
0
LINE
8
BLACK
6
CONTINUOUS
10
4.0004
20
-2.46393
11
3.98618
21
-2.45637
0
LINE
8
BLACK
6
CONTINUOUS
10
3.98618
20
-2.45637
11
3.97076
21
-2.45171
0
LINE
8
BLACK
6
CONTINUOUS
10
3.97076
20
-2.45171
11
3.95468
21
-2.45014
0
LINE
8
BLACK
6
CONTINUOUS
10
3.95468
20
-2.45014
11
3.80433
21
-2.45014
  0
ENDSEC
  0
EOF
