%TF.GenerationSoftware,KiCad,Pcbnew,5.1.12-84ad8e8a86~92~ubuntu18.04.1*%
%TF.CreationDate,2022-01-12T14:22:02-05:00*%
%TF.ProjectId,remote,72656d6f-7465-42e6-9b69-6361645f7063,rev?*%
%TF.SameCoordinates,Original*%
%TF.FileFunction,Soldermask,Bot*%
%TF.FilePolarity,Negative*%
%FSLAX46Y46*%
G04 Gerber Fmt 4.6, Leading zero omitted, Abs format (unit mm)*
G04 Created by KiCad (PCBNEW 5.1.12-84ad8e8a86~92~ubuntu18.04.1) date 2022-01-12 14:22:02*
%MOMM*%
%LPD*%
G01*
G04 APERTURE LIST*
%ADD10C,5.500000*%
%ADD11O,1.800000X1.800000*%
%ADD12O,3.600000X3.600000*%
%ADD13O,2.005000X2.100000*%
%ADD14C,2.350000*%
%ADD15C,2.150000*%
%ADD16C,2.200000*%
%ADD17C,1.850000*%
%ADD18O,1.700000X1.700000*%
%ADD19C,1.700000*%
%ADD20C,1.800000*%
%ADD21C,1.600000*%
%ADD22O,2.900000X2.900000*%
G04 APERTURE END LIST*
D10*
%TO.C,U4*%
X76455000Y-93735000D03*
X110475000Y-93735000D03*
X76455000Y-126755000D03*
X110475000Y-126755000D03*
G36*
G01*
X84155000Y-128135000D02*
X82455000Y-128135000D01*
G75*
G02*
X82405000Y-128085000I0J50000D01*
G01*
X82405000Y-126385000D01*
G75*
G02*
X82455000Y-126335000I50000J0D01*
G01*
X84155000Y-126335000D01*
G75*
G02*
X84205000Y-126385000I0J-50000D01*
G01*
X84205000Y-128085000D01*
G75*
G02*
X84155000Y-128135000I-50000J0D01*
G01*
G37*
D11*
X85845000Y-127235000D03*
X88385000Y-127235000D03*
X90925000Y-127235000D03*
X93465000Y-127235000D03*
X96005000Y-127235000D03*
X98545000Y-127235000D03*
X101085000Y-127235000D03*
X103625000Y-127235000D03*
%TD*%
%TO.C,U2*%
X102229280Y-152121920D03*
G36*
G01*
X106459280Y-151221920D02*
X108159280Y-151221920D01*
G75*
G02*
X108209280Y-151271920I0J-50000D01*
G01*
X108209280Y-152971920D01*
G75*
G02*
X108159280Y-153021920I-50000J0D01*
G01*
X106459280Y-153021920D01*
G75*
G02*
X106409280Y-152971920I0J50000D01*
G01*
X106409280Y-151271920D01*
G75*
G02*
X106459280Y-151221920I50000J0D01*
G01*
G37*
X89529280Y-152121920D03*
X81909280Y-152121920D03*
X104769280Y-152121920D03*
X94609280Y-152121920D03*
X92069280Y-152121920D03*
X79369280Y-152121920D03*
X86989280Y-152121920D03*
X84449280Y-152121920D03*
X99689280Y-152121920D03*
X97149280Y-152121920D03*
G36*
G01*
X116699280Y-130901920D02*
X118399280Y-130901920D01*
G75*
G02*
X118449280Y-130951920I0J-50000D01*
G01*
X118449280Y-132651920D01*
G75*
G02*
X118399280Y-132701920I-50000J0D01*
G01*
X116699280Y-132701920D01*
G75*
G02*
X116649280Y-132651920I0J50000D01*
G01*
X116649280Y-130951920D01*
G75*
G02*
X116699280Y-130901920I50000J0D01*
G01*
G37*
X115009280Y-131801920D03*
X112469280Y-131801920D03*
X109929280Y-131801920D03*
X107389280Y-131801920D03*
X104849280Y-131801920D03*
X102309280Y-131801920D03*
X99769280Y-131801920D03*
X97229280Y-131801920D03*
X94689280Y-131801920D03*
X92149280Y-131801920D03*
X89609280Y-131801920D03*
X87069280Y-131801920D03*
X84529280Y-131801920D03*
X81989280Y-131801920D03*
X79449280Y-131801920D03*
%TD*%
D12*
%TO.C,Q1*%
X108615000Y-71815000D03*
G36*
G01*
X112157500Y-87475000D02*
X112157500Y-89475000D01*
G75*
G02*
X112107500Y-89525000I-50000J0D01*
G01*
X110202500Y-89525000D01*
G75*
G02*
X110152500Y-89475000I0J50000D01*
G01*
X110152500Y-87475000D01*
G75*
G02*
X110202500Y-87425000I50000J0D01*
G01*
X112107500Y-87425000D01*
G75*
G02*
X112157500Y-87475000I0J-50000D01*
G01*
G37*
D13*
X108615000Y-88475000D03*
X106075000Y-88475000D03*
%TD*%
D11*
%TO.C,J2*%
X77555000Y-112955000D03*
X77555000Y-110415000D03*
X77555000Y-107875000D03*
X77555000Y-105335000D03*
X77555000Y-102795000D03*
G36*
G01*
X76655000Y-101105000D02*
X76655000Y-99405000D01*
G75*
G02*
X76705000Y-99355000I50000J0D01*
G01*
X78405000Y-99355000D01*
G75*
G02*
X78455000Y-99405000I0J-50000D01*
G01*
X78455000Y-101105000D01*
G75*
G02*
X78405000Y-101155000I-50000J0D01*
G01*
X76705000Y-101155000D01*
G75*
G02*
X76655000Y-101105000I0J50000D01*
G01*
G37*
%TD*%
%TO.C,JP2*%
G36*
G01*
X88175000Y-82615000D02*
X88175000Y-81115000D01*
G75*
G02*
X88225000Y-81065000I50000J0D01*
G01*
X89225000Y-81065000D01*
G75*
G02*
X89275000Y-81115000I0J-50000D01*
G01*
X89275000Y-82615000D01*
G75*
G02*
X89225000Y-82665000I-50000J0D01*
G01*
X88225000Y-82665000D01*
G75*
G02*
X88175000Y-82615000I0J50000D01*
G01*
G37*
G36*
G01*
X89475000Y-82615000D02*
X89475000Y-81115000D01*
G75*
G02*
X89525000Y-81065000I50000J0D01*
G01*
X90525000Y-81065000D01*
G75*
G02*
X90575000Y-81115000I0J-50000D01*
G01*
X90575000Y-82615000D01*
G75*
G02*
X90525000Y-82665000I-50000J0D01*
G01*
X89525000Y-82665000D01*
G75*
G02*
X89475000Y-82615000I0J50000D01*
G01*
G37*
%TD*%
D14*
%TO.C,J1*%
X83934920Y-66874440D03*
X83934920Y-61794440D03*
X89014920Y-61794440D03*
X89014920Y-66874440D03*
D15*
X86474920Y-64334440D03*
%TD*%
D16*
%TO.C,SW3*%
X116470380Y-93345500D03*
D17*
X118960380Y-94595500D03*
X118960380Y-99095500D03*
D16*
X116470380Y-100355500D03*
%TD*%
D18*
%TO.C,R4*%
X96017864Y-136606920D03*
D19*
X96017864Y-149306920D03*
%TD*%
D10*
%TO.C,H2*%
X121438960Y-157249920D03*
%TD*%
%TO.C,U5*%
G36*
G01*
X89235000Y-121785000D02*
X87535000Y-121785000D01*
G75*
G02*
X87485000Y-121735000I0J50000D01*
G01*
X87485000Y-120035000D01*
G75*
G02*
X87535000Y-119985000I50000J0D01*
G01*
X89235000Y-119985000D01*
G75*
G02*
X89285000Y-120035000I0J-50000D01*
G01*
X89285000Y-121735000D01*
G75*
G02*
X89235000Y-121785000I-50000J0D01*
G01*
G37*
D11*
X90925000Y-120885000D03*
X93465000Y-120885000D03*
X96005000Y-120885000D03*
X98545000Y-120885000D03*
%TD*%
%TO.C,U3*%
G36*
G01*
X80753940Y-88185880D02*
X79053940Y-88185880D01*
G75*
G02*
X79003940Y-88135880I0J50000D01*
G01*
X79003940Y-86435880D01*
G75*
G02*
X79053940Y-86385880I50000J0D01*
G01*
X80753940Y-86385880D01*
G75*
G02*
X80803940Y-86435880I0J-50000D01*
G01*
X80803940Y-88135880D01*
G75*
G02*
X80753940Y-88185880I-50000J0D01*
G01*
G37*
X82443940Y-87285880D03*
X84983940Y-87285880D03*
X87523940Y-87285880D03*
X90063940Y-87285880D03*
X92603940Y-87285880D03*
%TD*%
D20*
%TO.C,SW4*%
X90705000Y-159905000D03*
X84205000Y-159905000D03*
X90705000Y-155405000D03*
X84205000Y-155405000D03*
%TD*%
D16*
%TO.C,SW2*%
X116470380Y-83388700D03*
D17*
X118960380Y-84638700D03*
X118960380Y-89138700D03*
D16*
X116470380Y-90398700D03*
%TD*%
%TO.C,SW1*%
X116345000Y-68795000D03*
D17*
X118835000Y-70045000D03*
X118835000Y-74545000D03*
D16*
X116345000Y-75805000D03*
%TD*%
D18*
%TO.C,R7*%
X108190268Y-136606920D03*
D19*
X108190268Y-149306920D03*
%TD*%
D18*
%TO.C,R3*%
X91960396Y-136606920D03*
D19*
X91960396Y-149306920D03*
%TD*%
D18*
%TO.C,R6*%
X104132800Y-136606920D03*
D19*
X104132800Y-149306920D03*
%TD*%
D18*
%TO.C,R5*%
X100075332Y-136606920D03*
D19*
X100075332Y-149306920D03*
%TD*%
D18*
%TO.C,R2*%
X87902928Y-149306920D03*
D19*
X87902928Y-136606920D03*
%TD*%
D18*
%TO.C,R1*%
X83845460Y-149306920D03*
D19*
X83845460Y-136606920D03*
%TD*%
%TO.C,Q3*%
G36*
G01*
X77494180Y-122701000D02*
X75994180Y-122701000D01*
G75*
G02*
X75944180Y-122651000I0J50000D01*
G01*
X75944180Y-121151000D01*
G75*
G02*
X75994180Y-121101000I50000J0D01*
G01*
X77494180Y-121101000D01*
G75*
G02*
X77544180Y-121151000I0J-50000D01*
G01*
X77544180Y-122651000D01*
G75*
G02*
X77494180Y-122701000I-50000J0D01*
G01*
G37*
D21*
X76744180Y-116821000D03*
X74204180Y-119361000D03*
%TD*%
%TO.C,JP1*%
G36*
G01*
X111119999Y-112840001D02*
X109619999Y-112840001D01*
G75*
G02*
X109569999Y-112790001I0J50000D01*
G01*
X109569999Y-111790001D01*
G75*
G02*
X109619999Y-111740001I50000J0D01*
G01*
X111119999Y-111740001D01*
G75*
G02*
X111169999Y-111790001I0J-50000D01*
G01*
X111169999Y-112790001D01*
G75*
G02*
X111119999Y-112840001I-50000J0D01*
G01*
G37*
G36*
G01*
X111119999Y-111540001D02*
X109619999Y-111540001D01*
G75*
G02*
X109569999Y-111490001I0J50000D01*
G01*
X109569999Y-110490001D01*
G75*
G02*
X109619999Y-110440001I50000J0D01*
G01*
X111119999Y-110440001D01*
G75*
G02*
X111169999Y-110490001I0J-50000D01*
G01*
X111169999Y-111490001D01*
G75*
G02*
X111119999Y-111540001I-50000J0D01*
G01*
G37*
%TD*%
D11*
%TO.C,J19*%
X97003220Y-159076440D03*
X99543220Y-159076440D03*
G36*
G01*
X101233220Y-158176440D02*
X102933220Y-158176440D01*
G75*
G02*
X102983220Y-158226440I0J-50000D01*
G01*
X102983220Y-159926440D01*
G75*
G02*
X102933220Y-159976440I-50000J0D01*
G01*
X101233220Y-159976440D01*
G75*
G02*
X101183220Y-159926440I0J50000D01*
G01*
X101183220Y-158226440D01*
G75*
G02*
X101233220Y-158176440I50000J0D01*
G01*
G37*
%TD*%
%TO.C,J16*%
X96825000Y-92255000D03*
X94285000Y-92255000D03*
X91745000Y-92255000D03*
G36*
G01*
X90055000Y-93155000D02*
X88355000Y-93155000D01*
G75*
G02*
X88305000Y-93105000I0J50000D01*
G01*
X88305000Y-91405000D01*
G75*
G02*
X88355000Y-91355000I50000J0D01*
G01*
X90055000Y-91355000D01*
G75*
G02*
X90105000Y-91405000I0J-50000D01*
G01*
X90105000Y-93105000D01*
G75*
G02*
X90055000Y-93155000I-50000J0D01*
G01*
G37*
%TD*%
%TO.C,J5*%
X123297300Y-118987620D03*
X123297300Y-116447620D03*
G36*
G01*
X122397300Y-114757620D02*
X122397300Y-113057620D01*
G75*
G02*
X122447300Y-113007620I50000J0D01*
G01*
X124147300Y-113007620D01*
G75*
G02*
X124197300Y-113057620I0J-50000D01*
G01*
X124197300Y-114757620D01*
G75*
G02*
X124147300Y-114807620I-50000J0D01*
G01*
X122447300Y-114807620D01*
G75*
G02*
X122397300Y-114757620I0J50000D01*
G01*
G37*
%TD*%
D10*
%TO.C,H6*%
X75491960Y-63491160D03*
%TD*%
%TO.C,H5*%
X121438960Y-63491160D03*
%TD*%
%TO.C,H1*%
X75491960Y-157249920D03*
%TD*%
%TO.C,D1*%
G36*
G01*
X112315000Y-135765000D02*
X115115000Y-135765000D01*
G75*
G02*
X115165000Y-135815000I0J-50000D01*
G01*
X115165000Y-138615000D01*
G75*
G02*
X115115000Y-138665000I-50000J0D01*
G01*
X112315000Y-138665000D01*
G75*
G02*
X112265000Y-138615000I0J50000D01*
G01*
X112265000Y-135815000D01*
G75*
G02*
X112315000Y-135765000I50000J0D01*
G01*
G37*
D22*
X113715000Y-149915000D03*
%TD*%
M02*
