%TF.GenerationSoftware,KiCad,Pcbnew,5.1.12-84ad8e8a86~92~ubuntu18.04.1*%
%TF.CreationDate,2022-01-08T21:29:22-05:00*%
%TF.ProjectId,remote,72656d6f-7465-42e6-9b69-6361645f7063,rev?*%
%TF.SameCoordinates,Original*%
%TF.FileFunction,Copper,L1,Top*%
%TF.FilePolarity,Positive*%
%FSLAX46Y46*%
G04 Gerber Fmt 4.6, Leading zero omitted, Abs format (unit mm)*
G04 Created by KiCad (PCBNEW 5.1.12-84ad8e8a86~92~ubuntu18.04.1) date 2022-01-08 21:29:22*
%MOMM*%
%LPD*%
G01*
G04 APERTURE LIST*
%TA.AperFunction,ComponentPad*%
%ADD10O,1.700000X1.700000*%
%TD*%
%TA.AperFunction,ComponentPad*%
%ADD11R,1.700000X1.700000*%
%TD*%
%TA.AperFunction,ComponentPad*%
%ADD12O,2.000000X1.905000*%
%TD*%
%TA.AperFunction,ComponentPad*%
%ADD13R,2.000000X1.905000*%
%TD*%
%TA.AperFunction,ComponentPad*%
%ADD14O,1.600000X1.600000*%
%TD*%
%TA.AperFunction,ComponentPad*%
%ADD15C,1.600000*%
%TD*%
%TA.AperFunction,SMDPad,CuDef*%
%ADD16R,1.500000X1.000000*%
%TD*%
%TA.AperFunction,SMDPad,CuDef*%
%ADD17O,1.000000X2.000000*%
%TD*%
%TA.AperFunction,ComponentPad*%
%ADD18C,2.250000*%
%TD*%
%TA.AperFunction,ComponentPad*%
%ADD19C,2.050000*%
%TD*%
%TA.AperFunction,ViaPad*%
%ADD20C,0.800000*%
%TD*%
%TA.AperFunction,Conductor*%
%ADD21C,0.700000*%
%TD*%
%TA.AperFunction,Conductor*%
%ADD22C,0.400000*%
%TD*%
G04 APERTURE END LIST*
D10*
%TO.P,J2,5*%
%TO.N,GND*%
X23550000Y-115270000D03*
%TO.P,J2,4*%
%TO.N,A2*%
X23550000Y-117810000D03*
%TO.P,J2,3*%
%TO.N,A1*%
X23550000Y-120350000D03*
%TO.P,J2,2*%
%TO.N,A0*%
X23550000Y-122890000D03*
D11*
%TO.P,J2,1*%
%TO.N,+3V3*%
X23550000Y-125430000D03*
%TD*%
D12*
%TO.P,Q1,3*%
%TO.N,GND*%
X26940000Y-144730000D03*
%TO.P,Q1,2*%
%TO.N,POWER_1*%
X26940000Y-147270000D03*
D13*
%TO.P,Q1,1*%
%TO.N,A4*%
X26940000Y-149810000D03*
%TD*%
D14*
%TO.P,R3,2*%
%TO.N,GND*%
X44670000Y-140140000D03*
D15*
%TO.P,R3,1*%
%TO.N,A4*%
X31970000Y-140140000D03*
%TD*%
D16*
%TO.P,JP1,1*%
%TO.N,GND*%
X24260000Y-154100000D03*
%TO.P,JP1,2*%
%TO.N,POWER_1*%
X24260000Y-155400000D03*
%TD*%
D17*
%TO.P,U1,1*%
%TO.N,GND*%
X31040000Y-119480000D03*
%TO.P,U1,2*%
%TO.N,MISO*%
X33040000Y-119480000D03*
%TO.P,U1,3*%
%TO.N,MOSI*%
X35040000Y-119480000D03*
%TO.P,U1,4*%
%TO.N,SCK*%
X37040000Y-119480000D03*
%TO.P,U1,5*%
%TO.N,D5*%
X39040000Y-119480000D03*
%TO.P,U1,6*%
%TO.N,D6*%
X41040000Y-119480000D03*
%TO.P,U1,7*%
%TO.N,N/C*%
X43040000Y-119480000D03*
%TO.P,U1,8*%
%TO.N,GND*%
X45040000Y-119480000D03*
%TO.P,U1,9*%
%TO.N,Net-(J1-Pad1)*%
X45040000Y-103480000D03*
%TO.P,U1,10*%
%TO.N,GND*%
X43040000Y-103480000D03*
%TO.P,U1,11*%
%TO.N,N/C*%
X41040000Y-103480000D03*
%TO.P,U1,12*%
X39040000Y-103480000D03*
%TO.P,U1,13*%
%TO.N,+3V3*%
X37040000Y-103480000D03*
%TO.P,U1,14*%
%TO.N,D9*%
X35040000Y-103480000D03*
%TO.P,U1,15*%
%TO.N,A3*%
X33040000Y-103480000D03*
%TO.P,U1,16*%
%TO.N,N/C*%
X31040000Y-103480000D03*
%TD*%
%TO.P,J20,1*%
%TO.N,GND*%
%TA.AperFunction,SMDPad,CuDef*%
G36*
G01*
X34560000Y-152505000D02*
X34560000Y-151255000D01*
G75*
G02*
X34710000Y-151105000I150000J0D01*
G01*
X35010000Y-151105000D01*
G75*
G02*
X35160000Y-151255000I0J-150000D01*
G01*
X35160000Y-152505000D01*
G75*
G02*
X35010000Y-152655000I-150000J0D01*
G01*
X34710000Y-152655000D01*
G75*
G02*
X34560000Y-152505000I0J150000D01*
G01*
G37*
%TD.AperFunction*%
%TO.P,J20,2*%
%TO.N,+3V3*%
%TA.AperFunction,SMDPad,CuDef*%
G36*
G01*
X35560000Y-152505000D02*
X35560000Y-151255000D01*
G75*
G02*
X35710000Y-151105000I150000J0D01*
G01*
X36010000Y-151105000D01*
G75*
G02*
X36160000Y-151255000I0J-150000D01*
G01*
X36160000Y-152505000D01*
G75*
G02*
X36010000Y-152655000I-150000J0D01*
G01*
X35710000Y-152655000D01*
G75*
G02*
X35560000Y-152505000I0J150000D01*
G01*
G37*
%TD.AperFunction*%
%TO.P,J20,3*%
%TO.N,SDA*%
%TA.AperFunction,SMDPad,CuDef*%
G36*
G01*
X36560000Y-152505000D02*
X36560000Y-151255000D01*
G75*
G02*
X36710000Y-151105000I150000J0D01*
G01*
X37010000Y-151105000D01*
G75*
G02*
X37160000Y-151255000I0J-150000D01*
G01*
X37160000Y-152505000D01*
G75*
G02*
X37010000Y-152655000I-150000J0D01*
G01*
X36710000Y-152655000D01*
G75*
G02*
X36560000Y-152505000I0J150000D01*
G01*
G37*
%TD.AperFunction*%
%TO.P,J20,4*%
%TO.N,SCL*%
%TA.AperFunction,SMDPad,CuDef*%
G36*
G01*
X37560000Y-152505000D02*
X37560000Y-151255000D01*
G75*
G02*
X37710000Y-151105000I150000J0D01*
G01*
X38010000Y-151105000D01*
G75*
G02*
X38160000Y-151255000I0J-150000D01*
G01*
X38160000Y-152505000D01*
G75*
G02*
X38010000Y-152655000I-150000J0D01*
G01*
X37710000Y-152655000D01*
G75*
G02*
X37560000Y-152505000I0J150000D01*
G01*
G37*
%TD.AperFunction*%
%TO.P,J20,MP*%
%TO.N,N/C*%
%TA.AperFunction,SMDPad,CuDef*%
G36*
G01*
X32960000Y-156405001D02*
X32960000Y-155104999D01*
G75*
G02*
X33209999Y-154855000I249999J0D01*
G01*
X33910001Y-154855000D01*
G75*
G02*
X34160000Y-155104999I0J-249999D01*
G01*
X34160000Y-156405001D01*
G75*
G02*
X33910001Y-156655000I-249999J0D01*
G01*
X33209999Y-156655000D01*
G75*
G02*
X32960000Y-156405001I0J249999D01*
G01*
G37*
%TD.AperFunction*%
%TA.AperFunction,SMDPad,CuDef*%
G36*
G01*
X38560000Y-156405001D02*
X38560000Y-155104999D01*
G75*
G02*
X38809999Y-154855000I249999J0D01*
G01*
X39510001Y-154855000D01*
G75*
G02*
X39760000Y-155104999I0J-249999D01*
G01*
X39760000Y-156405001D01*
G75*
G02*
X39510001Y-156655000I-249999J0D01*
G01*
X38809999Y-156655000D01*
G75*
G02*
X38560000Y-156405001I0J249999D01*
G01*
G37*
%TD.AperFunction*%
%TD*%
D10*
%TO.P,U2,3*%
%TO.N,N/C*%
X27740000Y-134990000D03*
D11*
%TO.P,U2,1*%
X27740000Y-140070000D03*
D10*
%TO.P,U2,8*%
%TO.N,D9*%
X27740000Y-122290000D03*
%TO.P,U2,11*%
%TO.N,SCL*%
X27740000Y-114670000D03*
%TO.P,U2,2*%
%TO.N,EN*%
X27740000Y-137530000D03*
%TO.P,U2,6*%
%TO.N,N/C*%
X27740000Y-127370000D03*
%TO.P,U2,7*%
X27740000Y-124830000D03*
%TO.P,U2,12*%
%TO.N,SDA*%
X27740000Y-112130000D03*
%TO.P,U2,9*%
%TO.N,D6*%
X27740000Y-119750000D03*
%TO.P,U2,10*%
%TO.N,D5*%
X27740000Y-117210000D03*
%TO.P,U2,4*%
%TO.N,N/C*%
X27740000Y-132450000D03*
%TO.P,U2,5*%
X27740000Y-129910000D03*
D11*
%TO.P,U2,13*%
X48060000Y-150310000D03*
D10*
%TO.P,U2,14*%
%TO.N,+3V3*%
X48060000Y-147770000D03*
%TO.P,U2,15*%
%TO.N,N/C*%
X48060000Y-145230000D03*
%TO.P,U2,16*%
%TO.N,GND*%
X48060000Y-142690000D03*
%TO.P,U2,17*%
%TO.N,A0*%
X48060000Y-140150000D03*
%TO.P,U2,18*%
%TO.N,A1*%
X48060000Y-137610000D03*
%TO.P,U2,19*%
%TO.N,A2*%
X48060000Y-135070000D03*
%TO.P,U2,20*%
%TO.N,A3*%
X48060000Y-132530000D03*
%TO.P,U2,21*%
%TO.N,A4*%
X48060000Y-129990000D03*
%TO.P,U2,22*%
%TO.N,A5*%
X48060000Y-127450000D03*
%TO.P,U2,23*%
%TO.N,SCK*%
X48060000Y-124910000D03*
%TO.P,U2,24*%
%TO.N,MOSI*%
X48060000Y-122370000D03*
%TO.P,U2,25*%
%TO.N,MISO*%
X48060000Y-119830000D03*
%TO.P,U2,26*%
%TO.N,RX_D0*%
X48060000Y-117290000D03*
%TO.P,U2,27*%
%TO.N,TX_D1*%
X48060000Y-114750000D03*
%TO.P,U2,28*%
%TO.N,N/C*%
X48060000Y-112210000D03*
%TD*%
D18*
%TO.P,J1,2*%
%TO.N,GND*%
X42640000Y-100500000D03*
X42640000Y-95420000D03*
X47720000Y-95420000D03*
X47720000Y-100500000D03*
D19*
%TO.P,J1,1*%
%TO.N,Net-(J1-Pad1)*%
X45180000Y-97960000D03*
%TD*%
D11*
%TO.P,U5,1*%
%TO.N,N/C*%
X41630000Y-128280000D03*
D10*
%TO.P,U5,2*%
%TO.N,RX_D0*%
X39090000Y-128280000D03*
%TO.P,U5,3*%
%TO.N,TX_D1*%
X36550000Y-128280000D03*
%TO.P,U5,4*%
%TO.N,POWER_1*%
X34010000Y-128280000D03*
%TO.P,U5,5*%
%TO.N,+3V3*%
X31470000Y-128280000D03*
%TD*%
D14*
%TO.P,R1,2*%
%TO.N,SCL*%
X44740000Y-132280000D03*
D15*
%TO.P,R1,1*%
%TO.N,+3V3*%
X32040000Y-132280000D03*
%TD*%
D14*
%TO.P,R2,2*%
%TO.N,SDA*%
X44740000Y-136210000D03*
D15*
%TO.P,R2,1*%
%TO.N,+3V3*%
X32040000Y-136210000D03*
%TD*%
D10*
%TO.P,J19,3*%
%TO.N,A5*%
X23550000Y-104600000D03*
%TO.P,J19,2*%
%TO.N,GND*%
X23550000Y-107140000D03*
D11*
%TO.P,J19,1*%
%TO.N,N/C*%
X23550000Y-109680000D03*
%TD*%
D10*
%TO.P,J5,3*%
%TO.N,GND*%
X23600000Y-136770000D03*
%TO.P,J5,2*%
%TO.N,EN*%
X23600000Y-134230000D03*
D11*
%TO.P,J5,1*%
%TO.N,N/C*%
X23600000Y-131690000D03*
%TD*%
D20*
%TO.N,GND*%
X34750000Y-144540000D03*
X24660000Y-144730000D03*
X44700000Y-142550000D03*
X34850000Y-142500000D03*
X25100000Y-115160000D03*
X30960000Y-106990000D03*
X43040000Y-106850000D03*
X43030000Y-113040000D03*
X45000000Y-113150000D03*
%TO.N,+3V3*%
X35840000Y-144580000D03*
X46200000Y-144540000D03*
X26340000Y-126040000D03*
X26340000Y-142010000D03*
X30720000Y-142050000D03*
X30330000Y-136370000D03*
X37060000Y-125630000D03*
X31410000Y-125670000D03*
X37040000Y-121250000D03*
X37030000Y-115380000D03*
%TO.N,SDA*%
X36950000Y-136840000D03*
X29520000Y-112760000D03*
X30630000Y-134670000D03*
%TO.N,SCL*%
X38380000Y-132310000D03*
X38090000Y-111900000D03*
%TO.N,D9*%
X35110000Y-110110000D03*
X26050000Y-111170000D03*
%TO.N,A0*%
X29260000Y-138490000D03*
X29220000Y-123660000D03*
%TO.N,A5*%
X45210000Y-127250000D03*
X38540000Y-105700000D03*
X38610000Y-109520000D03*
X45970000Y-111220000D03*
%TO.N,POWER_1*%
X29960000Y-147360000D03*
X29960000Y-155640000D03*
X26350000Y-155600000D03*
X33600000Y-147280000D03*
%TO.N,RX_D0*%
X40750000Y-117190000D03*
%TO.N,TX_D1*%
X36750000Y-131000000D03*
X43900000Y-131130000D03*
X43820000Y-114830000D03*
%TO.N,A2*%
X35570000Y-134410000D03*
X36050000Y-108960000D03*
%TO.N,SCK*%
X35670000Y-114750000D03*
X41890000Y-114970000D03*
X42920000Y-123530000D03*
%TO.N,MOSI*%
X35140010Y-121830000D03*
X38970000Y-121580000D03*
X39060000Y-125560000D03*
X46190000Y-125100000D03*
%TO.N,A1*%
X46130000Y-126420000D03*
X46380000Y-137890000D03*
X32700000Y-126760000D03*
X32419469Y-124547512D03*
X30940000Y-124460000D03*
X30939990Y-122070000D03*
%TO.N,MISO*%
X33160000Y-122490000D03*
X46190000Y-122040000D03*
%TO.N,D6*%
X32130000Y-117740000D03*
X32490000Y-123550000D03*
X41050000Y-123300000D03*
%TO.N,A4*%
X31700000Y-149410000D03*
X41710000Y-139860000D03*
X41900000Y-130330000D03*
%TO.N,A3*%
X34000000Y-124680000D03*
X43100000Y-124860000D03*
X43170000Y-133770000D03*
%TO.N,D5*%
X39040000Y-113440000D03*
%TD*%
D21*
%TO.N,GND*%
X34860000Y-151880000D02*
X34860000Y-144650000D01*
X34860000Y-144650000D02*
X34750000Y-144540000D01*
X24260000Y-154100000D02*
X24260000Y-145130000D01*
X24260000Y-145130000D02*
X24660000Y-144730000D01*
X24660000Y-137830000D02*
X23600000Y-136770000D01*
X48060000Y-142690000D02*
X44840000Y-142690000D01*
X44840000Y-142690000D02*
X44700000Y-142550000D01*
X34850000Y-144440000D02*
X34750000Y-144540000D01*
X34850000Y-142500000D02*
X34850000Y-144440000D01*
X24660000Y-138470000D02*
X24660000Y-137120000D01*
X24660000Y-138470000D02*
X24660000Y-137830000D01*
X24660000Y-144730000D02*
X24660000Y-138470000D01*
X25000001Y-136779999D02*
X25010001Y-136779999D01*
X24660000Y-137120000D02*
X25000001Y-136779999D01*
X25010001Y-136779999D02*
X25260000Y-136530000D01*
X25260000Y-136530000D02*
X25260000Y-115320000D01*
X25260000Y-115320000D02*
X25100000Y-115160000D01*
X31040000Y-119480000D02*
X31040000Y-107070000D01*
X31040000Y-107070000D02*
X30960000Y-106990000D01*
X43040000Y-106850000D02*
X43040000Y-103480000D01*
X43040000Y-100900000D02*
X42640000Y-100500000D01*
X43040000Y-103480000D02*
X43040000Y-100900000D01*
X42640000Y-95420000D02*
X42640000Y-100500000D01*
X47720000Y-95420000D02*
X47720000Y-100500000D01*
X25100000Y-108690000D02*
X23550000Y-107140000D01*
X25100000Y-115160000D02*
X25100000Y-108690000D01*
X43040000Y-106850000D02*
X43040000Y-113030000D01*
X43040000Y-113030000D02*
X43030000Y-113040000D01*
X45000000Y-119440000D02*
X45040000Y-119480000D01*
X45000000Y-113150000D02*
X45000000Y-119440000D01*
%TO.N,+3V3*%
X35860000Y-151880000D02*
X35860000Y-144600000D01*
X35860000Y-144600000D02*
X35840000Y-144580000D01*
X46200000Y-145910000D02*
X48060000Y-147770000D01*
X46200000Y-144540000D02*
X46200000Y-145910000D01*
X26340000Y-126040000D02*
X26340000Y-142010000D01*
X30720000Y-142050000D02*
X30330000Y-141660000D01*
X30330000Y-141660000D02*
X30330000Y-136370000D01*
X32040000Y-136210000D02*
X32040000Y-132280000D01*
X31470000Y-131710000D02*
X32040000Y-132280000D01*
X31470000Y-128280000D02*
X31470000Y-131710000D01*
X31410000Y-128220000D02*
X31470000Y-128280000D01*
X31410000Y-125670000D02*
X31410000Y-128220000D01*
X37080000Y-125610000D02*
X37060000Y-125630000D01*
X37040000Y-125610000D02*
X37060000Y-125630000D01*
X37040000Y-121250000D02*
X37040000Y-125610000D01*
X37040000Y-103480000D02*
X37040000Y-115370000D01*
X37040000Y-115370000D02*
X37030000Y-115380000D01*
D22*
%TO.N,SDA*%
X36950000Y-151790000D02*
X36860000Y-151880000D01*
X36950000Y-136840000D02*
X36950000Y-151790000D01*
X30139990Y-134179990D02*
X30630000Y-134670000D01*
X29520000Y-112760000D02*
X30139990Y-113379990D01*
X30139990Y-113379990D02*
X30139990Y-134179990D01*
%TO.N,SCL*%
X37860000Y-151880000D02*
X37860000Y-132830000D01*
X37860000Y-132830000D02*
X38380000Y-132310000D01*
X38139990Y-127380008D02*
X38139990Y-114130010D01*
X37839999Y-127679999D02*
X38139990Y-127380008D01*
X38380000Y-132310000D02*
X37839999Y-131769999D01*
X37839999Y-131769999D02*
X37839999Y-127679999D01*
X38090000Y-114080020D02*
X38139990Y-114130010D01*
X38090000Y-111900000D02*
X38090000Y-114080020D01*
%TO.N,D9*%
X35040000Y-103480000D02*
X35040000Y-110040000D01*
X35040000Y-110040000D02*
X35110000Y-110110000D01*
X26050000Y-120600000D02*
X27740000Y-122290000D01*
X26050000Y-111170000D02*
X26050000Y-120600000D01*
%TO.N,A0*%
X29260000Y-138490000D02*
X29260000Y-123700000D01*
X29260000Y-123700000D02*
X29220000Y-123660000D01*
%TO.N,A5*%
X38540000Y-105700000D02*
X38540000Y-109150000D01*
X38540000Y-109150000D02*
X38540000Y-109450000D01*
X38540000Y-109450000D02*
X38610000Y-109520000D01*
X45210000Y-121082806D02*
X45210000Y-127250000D01*
X45970000Y-111220000D02*
X45970000Y-120322806D01*
X45970000Y-120322806D02*
X45210000Y-121082806D01*
D21*
%TO.N,POWER_1*%
X29960000Y-147360000D02*
X29960000Y-155640000D01*
X24460000Y-155600000D02*
X24260000Y-155400000D01*
X26350000Y-155600000D02*
X24460000Y-155600000D01*
X34010000Y-128280000D02*
X34010000Y-141790000D01*
X34010000Y-141790000D02*
X33600000Y-142200000D01*
X33600000Y-142200000D02*
X33600000Y-147280000D01*
D22*
%TO.N,RX_D0*%
X39940010Y-117999990D02*
X40750000Y-117190000D01*
X39090000Y-128280000D02*
X39940010Y-127429990D01*
X39940010Y-127429990D02*
X39940010Y-117999990D01*
%TO.N,TX_D1*%
X36550000Y-128280000D02*
X36550000Y-130800000D01*
X36550000Y-130800000D02*
X36750000Y-131000000D01*
X43900000Y-131130000D02*
X43900000Y-127430000D01*
X43940010Y-114950010D02*
X43820000Y-114830000D01*
X43900000Y-127430000D02*
X43940010Y-127389990D01*
X43940010Y-127389990D02*
X43940010Y-114950010D01*
%TO.N,A2*%
X35299999Y-134139999D02*
X35570000Y-134410000D01*
X35299999Y-127679999D02*
X35299999Y-134139999D01*
X35940010Y-127039988D02*
X35299999Y-127679999D01*
X35940010Y-118607204D02*
X35132806Y-117800000D01*
X35940010Y-127039988D02*
X35940010Y-118607204D01*
X35132806Y-117800000D02*
X34960000Y-117800000D01*
X34960000Y-117800000D02*
X34690000Y-117530000D01*
X34690000Y-117530000D02*
X34690000Y-112030000D01*
X34690000Y-112030000D02*
X36050000Y-110670000D01*
X36050000Y-110670000D02*
X36050000Y-108960000D01*
D21*
%TO.N,Net-(J1-Pad1)*%
X45180000Y-103340000D02*
X45040000Y-103480000D01*
X45180000Y-97960000D02*
X45180000Y-103340000D01*
D22*
%TO.N,SCK*%
X37040000Y-119480000D02*
X37040000Y-118190000D01*
X37040000Y-118190000D02*
X35670000Y-116820000D01*
X35670000Y-116820000D02*
X35670000Y-114750000D01*
X42139990Y-122749990D02*
X42920000Y-123530000D01*
X41890000Y-114970000D02*
X42139990Y-115219990D01*
X42139990Y-115219990D02*
X42139990Y-122749990D01*
%TO.N,MOSI*%
X35040000Y-119480000D02*
X35040000Y-121729990D01*
X35040000Y-121729990D02*
X35140010Y-121830000D01*
X38970000Y-121580000D02*
X38970000Y-125470000D01*
X38970000Y-125470000D02*
X39060000Y-125560000D01*
X46190000Y-124240000D02*
X48060000Y-122370000D01*
X46190000Y-125100000D02*
X46190000Y-124240000D01*
%TO.N,A1*%
X46130000Y-126420000D02*
X46130000Y-137860000D01*
X46130000Y-137860000D02*
X46160000Y-137890000D01*
X46160000Y-137890000D02*
X46380000Y-137890000D01*
X32700000Y-126760000D02*
X32700000Y-124828043D01*
X32700000Y-124828043D02*
X32419469Y-124547512D01*
X30940000Y-124460000D02*
X30940000Y-122070010D01*
X30940000Y-122070010D02*
X30939990Y-122070000D01*
%TO.N,MISO*%
X33040000Y-119480000D02*
X33040000Y-122370000D01*
X33040000Y-122370000D02*
X33160000Y-122490000D01*
X46190000Y-122040000D02*
X46690000Y-121540000D01*
X46690000Y-121200000D02*
X48060000Y-119830000D01*
X46690000Y-121540000D02*
X46690000Y-121200000D01*
%TO.N,D6*%
X32130000Y-117740000D02*
X32130000Y-123190000D01*
X32130000Y-123190000D02*
X32490000Y-123550000D01*
X41050000Y-119490000D02*
X41040000Y-119480000D01*
X41050000Y-123300000D02*
X41050000Y-119490000D01*
%TO.N,A4*%
X31700000Y-140410000D02*
X31970000Y-140140000D01*
X31700000Y-149410000D02*
X31700000Y-140410000D01*
X41710000Y-139860000D02*
X41710000Y-130520000D01*
X41710000Y-130520000D02*
X41900000Y-130330000D01*
%TO.N,A3*%
X34000000Y-103540000D02*
X34000000Y-124680000D01*
X33040000Y-103480000D02*
X33940000Y-103480000D01*
X33940000Y-103480000D02*
X34000000Y-103540000D01*
X43100000Y-124860000D02*
X43100000Y-133700000D01*
X43100000Y-133700000D02*
X43170000Y-133770000D01*
%TO.N,D5*%
X39060000Y-116240000D02*
X39060000Y-116710000D01*
X39040000Y-116730000D02*
X39040000Y-119480000D01*
X39060000Y-116710000D02*
X39040000Y-116730000D01*
X39060000Y-116710000D02*
X39060000Y-113460000D01*
X39060000Y-113460000D02*
X39040000Y-113440000D01*
%TD*%
M02*
