%TF.GenerationSoftware,KiCad,Pcbnew,5.1.6-c6e7f7d~87~ubuntu18.04.1*%
%TF.CreationDate,2021-12-28T13:40:06-05:00*%
%TF.ProjectId,remote,72656d6f-7465-42e6-9b69-6361645f7063,rev?*%
%TF.SameCoordinates,Original*%
%TF.FileFunction,Soldermask,Bot*%
%TF.FilePolarity,Negative*%
%FSLAX46Y46*%
G04 Gerber Fmt 4.6, Leading zero omitted, Abs format (unit mm)*
G04 Created by KiCad (PCBNEW 5.1.6-c6e7f7d~87~ubuntu18.04.1) date 2021-12-28 13:40:06*
%MOMM*%
%LPD*%
G01*
G04 APERTURE LIST*
%ADD10R,1.800000X1.800000*%
%ADD11O,1.800000X1.800000*%
%ADD12R,1.600000X1.600000*%
%ADD13C,1.600000*%
%ADD14C,1.700000*%
%ADD15O,1.700000X1.700000*%
%ADD16R,2.900000X2.900000*%
%ADD17O,2.900000X2.900000*%
%ADD18O,2.100000X2.005000*%
%ADD19R,2.100000X2.005000*%
%ADD20R,1.600000X1.100000*%
%ADD21C,1.800000*%
%ADD22C,5.500000*%
%ADD23C,2.200000*%
%ADD24C,1.850000*%
%ADD25O,1.850000X1.300000*%
%ADD26R,1.700000X1.700000*%
%ADD27R,3.600000X3.600000*%
%ADD28R,2.700000X2.700000*%
%ADD29C,2.700000*%
G04 APERTURE END LIST*
D10*
%TO.C,J14*%
X17130000Y-39020000D03*
D11*
X19670000Y-39020000D03*
X22210000Y-39020000D03*
X24750000Y-39020000D03*
X27290000Y-39020000D03*
X29830000Y-39020000D03*
X32370000Y-39020000D03*
X34910000Y-39020000D03*
%TD*%
%TO.C,J3*%
X45063000Y-70523000D03*
X42523000Y-70523000D03*
X39983000Y-70523000D03*
X37443000Y-70523000D03*
X34903000Y-70523000D03*
X32363000Y-70523000D03*
X29823000Y-70523000D03*
X27283000Y-70523000D03*
X24743000Y-70523000D03*
X22203000Y-70523000D03*
X19663000Y-70523000D03*
X17123000Y-70523000D03*
X14583000Y-70523000D03*
X12043000Y-70523000D03*
X9503000Y-70523000D03*
D10*
X6963000Y-70523000D03*
%TD*%
D12*
%TO.C,Q3*%
X8280000Y-58520000D03*
D13*
X8280000Y-53440000D03*
X5740000Y-55980000D03*
%TD*%
D14*
%TO.C,R8*%
X2650000Y-62240000D03*
D15*
X2650000Y-49540000D03*
%TD*%
D16*
%TO.C,D2*%
X48940000Y-75350000D03*
D17*
X48940000Y-88050000D03*
%TD*%
D18*
%TO.C,Q2*%
X31250000Y-57210000D03*
X31250000Y-54670000D03*
D19*
X31250000Y-52130000D03*
%TD*%
D18*
%TO.C,Q1*%
X21300000Y-81030000D03*
X21300000Y-78490000D03*
D19*
X21300000Y-75950000D03*
%TD*%
D20*
%TO.C,JP1*%
X30060000Y-79940000D03*
X30060000Y-78640000D03*
%TD*%
%TO.C,JP3*%
X9350000Y-40900000D03*
X9350000Y-39600000D03*
%TD*%
%TO.C,JP2*%
X40310000Y-57250000D03*
X40310000Y-55950000D03*
%TD*%
D11*
%TO.C,J18*%
X45760000Y-22310000D03*
X45760000Y-19770000D03*
X45760000Y-17230000D03*
X45760000Y-14690000D03*
X45760000Y-12150000D03*
D10*
X45760000Y-9610000D03*
%TD*%
D15*
%TO.C,R7*%
X48330000Y-62510000D03*
D14*
X35630000Y-62510000D03*
%TD*%
%TO.C,R6*%
X26260000Y-86200000D03*
D15*
X38960000Y-86200000D03*
%TD*%
D10*
%TO.C,J15*%
X36210000Y-35280000D03*
D11*
X33670000Y-35280000D03*
X31130000Y-35280000D03*
X28590000Y-35280000D03*
X26050000Y-35280000D03*
X23510000Y-35280000D03*
X20970000Y-35280000D03*
X18430000Y-35280000D03*
X15890000Y-35280000D03*
%TD*%
D10*
%TO.C,J11*%
X4640000Y-8170000D03*
D11*
X4640000Y-10710000D03*
X4640000Y-13250000D03*
X4640000Y-15790000D03*
X4640000Y-18330000D03*
X4640000Y-20870000D03*
X4640000Y-23410000D03*
X4640000Y-25950000D03*
X4640000Y-28490000D03*
X4640000Y-31030000D03*
%TD*%
%TO.C,J6*%
X41340000Y-6960000D03*
X38800000Y-6960000D03*
X36260000Y-6960000D03*
X33720000Y-6960000D03*
X31180000Y-6960000D03*
X28640000Y-6960000D03*
X26100000Y-6960000D03*
X23560000Y-6960000D03*
X21020000Y-6960000D03*
X18480000Y-6960000D03*
X15940000Y-6960000D03*
X13400000Y-6960000D03*
D10*
X10860000Y-6960000D03*
%TD*%
D11*
%TO.C,J2*%
X6973000Y-90807000D03*
X9513000Y-90807000D03*
X12053000Y-90807000D03*
X14593000Y-90807000D03*
X17133000Y-90807000D03*
X19673000Y-90807000D03*
X22213000Y-90807000D03*
X24753000Y-90807000D03*
X27293000Y-90807000D03*
X29833000Y-90807000D03*
X32373000Y-90807000D03*
D10*
X34913000Y-90807000D03*
%TD*%
D21*
%TO.C,SW4*%
X50640000Y-94560000D03*
X50640000Y-101060000D03*
X46140000Y-94560000D03*
X46140000Y-101060000D03*
%TD*%
D22*
%TO.C,H6*%
X3750000Y-2250000D03*
%TD*%
D15*
%TO.C,R5*%
X27437000Y-49539000D03*
D14*
X27437000Y-62239000D03*
%TD*%
D10*
%TO.C,J19*%
X1750000Y-41450000D03*
D11*
X1750000Y-38910000D03*
X1750000Y-36370000D03*
%TD*%
D22*
%TO.C,H5*%
X48250000Y-2270000D03*
%TD*%
D11*
%TO.C,J9*%
X6943000Y-66695000D03*
X9483000Y-66695000D03*
X12023000Y-66695000D03*
X14563000Y-66695000D03*
X17103000Y-66695000D03*
X19643000Y-66695000D03*
X22183000Y-66695000D03*
X24723000Y-66695000D03*
X27263000Y-66695000D03*
X29803000Y-66695000D03*
X32343000Y-66695000D03*
D10*
X34883000Y-66695000D03*
%TD*%
%TO.C,J16*%
X22200000Y-42720000D03*
D11*
X24740000Y-42720000D03*
X27280000Y-42720000D03*
X29820000Y-42720000D03*
%TD*%
%TO.C,J17*%
X26033000Y-31611000D03*
X28573000Y-31611000D03*
X31113000Y-31611000D03*
X33653000Y-31611000D03*
X36193000Y-31611000D03*
X38733000Y-31611000D03*
D10*
X41273000Y-31611000D03*
%TD*%
D22*
%TO.C,H2*%
X48250000Y-105410000D03*
%TD*%
%TO.C,H1*%
X3790000Y-105410000D03*
%TD*%
D10*
%TO.C,J5*%
X50120000Y-17290000D03*
D11*
X50120000Y-14750000D03*
X50120000Y-12210000D03*
%TD*%
D23*
%TO.C,SW2*%
X45720000Y-35900000D03*
D24*
X48210000Y-37150000D03*
X48210000Y-41650000D03*
D23*
X45720000Y-42910000D03*
%TD*%
%TO.C,SW1*%
X45760000Y-32740000D03*
D24*
X48250000Y-31480000D03*
X48250000Y-26980000D03*
D23*
X45760000Y-25730000D03*
%TD*%
%TO.C,J1*%
G36*
G01*
X15995832Y-79750000D02*
X17304168Y-79750000D01*
G75*
G02*
X17575000Y-80020832I0J-270832D01*
G01*
X17575000Y-80779168D01*
G75*
G02*
X17304168Y-81050000I-270832J0D01*
G01*
X15995832Y-81050000D01*
G75*
G02*
X15725000Y-80779168I0J270832D01*
G01*
X15725000Y-80020832D01*
G75*
G02*
X15995832Y-79750000I270832J0D01*
G01*
G37*
D25*
X16650000Y-82400000D03*
%TD*%
D11*
%TO.C,J10*%
X45033000Y-46411000D03*
X42493000Y-46411000D03*
X39953000Y-46411000D03*
X37413000Y-46411000D03*
X34873000Y-46411000D03*
X32333000Y-46411000D03*
X29793000Y-46411000D03*
X27253000Y-46411000D03*
X24713000Y-46411000D03*
X22173000Y-46411000D03*
X19633000Y-46411000D03*
X17093000Y-46411000D03*
X14553000Y-46411000D03*
X12013000Y-46411000D03*
X9473000Y-46411000D03*
D10*
X6933000Y-46411000D03*
%TD*%
D17*
%TO.C,D1*%
X43940000Y-88050000D03*
D16*
X43940000Y-75350000D03*
%TD*%
D26*
%TO.C,C2*%
X12210000Y-103420000D03*
D14*
X12210000Y-105920000D03*
%TD*%
%TO.C,C1*%
X17960000Y-105880000D03*
D26*
X17960000Y-103380000D03*
%TD*%
D10*
%TO.C,J4*%
X16597000Y-95659000D03*
D11*
X14057000Y-95659000D03*
X11517000Y-95659000D03*
%TD*%
D15*
%TO.C,R4*%
X23627000Y-49539000D03*
D14*
X23627000Y-62239000D03*
%TD*%
D27*
%TO.C,J7*%
X25908000Y-94742000D03*
G36*
G01*
X26933000Y-102292000D02*
X24883000Y-102292000D01*
G75*
G02*
X24108000Y-101517000I0J775000D01*
G01*
X24108000Y-99967000D01*
G75*
G02*
X24883000Y-99192000I775000J0D01*
G01*
X26933000Y-99192000D01*
G75*
G02*
X27708000Y-99967000I0J-775000D01*
G01*
X27708000Y-101517000D01*
G75*
G02*
X26933000Y-102292000I-775000J0D01*
G01*
G37*
G36*
G01*
X31508000Y-99542000D02*
X29708000Y-99542000D01*
G75*
G02*
X28808000Y-98642000I0J900000D01*
G01*
X28808000Y-96842000D01*
G75*
G02*
X29708000Y-95942000I900000J0D01*
G01*
X31508000Y-95942000D01*
G75*
G02*
X32408000Y-96842000I0J-900000D01*
G01*
X32408000Y-98642000D01*
G75*
G02*
X31508000Y-99542000I-900000J0D01*
G01*
G37*
%TD*%
D28*
%TO.C,J8*%
X36090000Y-97250000D03*
D29*
X41090000Y-97250000D03*
%TD*%
D14*
%TO.C,R2*%
X16007000Y-62239000D03*
D15*
X16007000Y-49539000D03*
%TD*%
D14*
%TO.C,R1*%
X12197000Y-62239000D03*
D15*
X12197000Y-49539000D03*
%TD*%
D14*
%TO.C,R3*%
X19817000Y-62239000D03*
D15*
X19817000Y-49539000D03*
%TD*%
M02*
