<?xml version="1.0" standalone="no"?>
 <!DOCTYPE svg PUBLIC "-//W3C//DTD SVG 1.1//EN" 
 "http://www.w3.org/Graphics/SVG/1.1/DTD/svg11.dtd"> 
<svg
  xmlns:svg="http://www.w3.org/2000/svg"
  xmlns="http://www.w3.org/2000/svg"
  xmlns:xlink="http://www.w3.org/1999/xlink"
  version="1.1"
  width="5.339080cm" height="11.529060cm" viewBox="0 0 21020 45390">
<title>SVG Picture created as remote-brd.svg date 2022/01/10 14:33:46 </title>
  <desc>Picture generated by PCBNEW </desc>
<g style="fill:#000000; fill-opacity:1;stroke:#000000; stroke-opacity:1;
stroke-linecap:round; stroke-linejoin:round;"
 transform="translate(0 0) scale(1 1)">
</g>
<g style="fill:#000000; fill-opacity:0.0; 
stroke:#000000; stroke-width:-0.000393701; stroke-opacity:1; 
stroke-linecap:round; stroke-linejoin:round;">
</g>
<g style="fill:#000000; fill-opacity:0.0; 
stroke:#000000; stroke-width:59.0551; stroke-opacity:1; 
stroke-linecap:round; stroke-linejoin:round;">
<path d="M2019 38635
L2326 38635
" />
<path d="M2031 38254
L2346 38254
" />
<path d="M2000 37860
L2350 37860
" />
<path d="M1980 37447
L2366 37447
" />
<path d="M19559 8856
L18027 8856
" />
<path d="M19559 11907
L19559 8856
" />
<path d="M18015 11907
L19559 11907
" />
<path d="M19610 14620
L18063 14620
" />
<path d="M19610 17655
L19610 14620
" />
<path d="M18075 17655
L19610 17655
" />
<path d="M19606 18541
L18071 18541
" />
<path d="M19606 21576
L19606 18541
" />
<path d="M18071 21576
L19606 21576
" />
<path d="M13130 20057
L3889 20057
" />
<path d="M13130 30612
L13130 20057
" />
<path d="M3882 30612
L13130 30612
" />
<path d="M3882 20053
L3882 30612
" />
<path d="M12665 43876
L12665 45234
" />
<path d="M9197 43876
L12665 43876
" />
<path d="M9197 45206
L9197 43876
" />
<path d="M4441 42738
L4441 45250
" />
<path d="M7862 42738
L4441 42738
" />
<path d="M7862 45305
L7862 42738
" />
<path d="M2665 39592
L82 39592
" />
<path d="M2665 36525
L2665 39592
" />
<path d="M43 36525
L2665 36525
" />
<path d="M18523 36517
L20996 36517
" />
<path d="M18523 40025
L18523 36517
" />
<path d="M20826 40025
L18523 40025
" />
<path d="M19480 29458
L20913 29458
" />
<path d="M19480 26045
L19480 29458
" />
<path d="M20952 26045
L19480 26045
" />
<g >
</g>
<g >
</g>
<g >
</g>
<g >
</g>
<g >
</g>
<g >
</g>
<g >
</g>
<g >
</g>
<g >
</g>
<g >
</g>
<g >
</g>
<g >
</g>
<g >
</g>
<g >
</g>
<g >
</g>
<g >
</g>
<g >
</g>
<g >
</g>
<g >
</g>
<g >
</g>
<g >
</g>
<g >
</g>
<g >
</g>
<g >
</g>
<g >
</g>
<g >
</g>
<g >
</g>
<g >
</g>
<g >
</g>
<g >
</g>
<g >
</g>
<g >
</g>
<g >
</g>
</g>
<g style="fill:#000000; fill-opacity:0.0; 
stroke:#000000; stroke-width:59.0551; stroke-opacity:1; 
stroke-linecap:round; stroke-linejoin:round;">
</g>
<g style="fill:#000000; fill-opacity:0.0; 
stroke:#000000; stroke-width:19.685; stroke-opacity:1; 
stroke-linecap:round; stroke-linejoin:round;">
<path d="M21010 6666
L21010 7034
" />
<path d="M21010 6665
L21010 6666
" />
<path d="M19592 45390
L19863 45390
" />
<path d="M15033 44313
L16992 44313
" />
<path d="M18292.5 44851.6 A1838.36 1838.36 0.0 0 0 16992.9 44313.2" />
<path d="M18292.5 44851.6 A1838.36 1838.36 0.0 0 0 19592.1 45390.1" />
<path d="M12434.1 45390.1 A1838.36 1838.36 0.0 0 0 13733.6 44851.6" />
<path d="M15033.2 44313.2 A1838.36 1838.36 0.0 0 0 13733.6 44851.6" />
<path d="M21010 44243
L21010 23791
" />
<path d="M19933.2 21192.7 A1838.36 1838.36 0.0 0 0 20471.6 22492.3" />
<path d="M21010.1 23791.8 A1838.36 1838.36 0.0 0 0 20471.6 22492.3" />
<path d="M19933 9634
L19933 21192
" />
<path d="M20471.6 8334.46 A1838.36 1838.36 0.0 0 0 19933.2 9634.02" />
<path d="M20471.6 8334.46 A1838.36 1838.36 0.0 0 0 21010.1 7034.9" />
<path d="M11259 8089
L9756 8089
" />
<path d="M11260 6418
L9756 6418
" />
<path d="M9756.05 6418.84 A835.311 835.311 0.0 0 0 9756.05 8089.47" />
<path d="M11259.7 8089.47 A835.311 835.311 0.0 1 0 11260.1 6418.84" />
<path d="M9 6666
L9 16599
" />
<path d="M19863 5519
L17772 5519
" />
<path d="M21010.1 6665.51 A1146.21 1146.21 0.0 0 0 19863.8 5519.84" />
<path d="M17772 5519
L17772 1156
" />
<path d="M9.84291 44243.8 A1146.21 1146.21 0.0 0 0 1156.05 45390.1" />
<path d="M12434 45390
L1156 45390
" />
<path d="M19863.8 45390.1 A1146.21 1146.21 0.0 0 0 21010.1 44243.8" />
<path d="M17772.1 1156.05 A1146.21 1146.21 0.0 0 0 16625.8 9.84291" />
<path d="M13398.1 9.84291 A1146.21 1146.21 0.0 0 0 12251.8 1156.05" />
<path d="M1156.05 5519.84 A1146.21 1146.21 0.0 0 0 9.84291 6666.05" />
<path d="M12251 1156
L12252 5519
" />
<path d="M13398 9
L16625 9
" />
<path d="M1156 5519
L12252 5519
" />
<path d="M9 16599
L9 44243
" />
<g >
</g>
<g >
</g>
<g >
</g>
<g >
</g>
<g >
</g>
<g >
</g>
<g >
</g>
<g >
</g>
<g >
</g>
<g >
</g>
<g >
</g>
<g >
</g>
<g >
</g>
<g >
</g>
<g >
</g>
<g >
</g>
<g >
</g>
<g >
</g>
<g >
</g>
<g >
</g>
<g >
</g>
<g >
</g>
<g >
</g>
<g >
</g>
<g >
</g>
<g >
</g>
<g >
</g>
<g >
</g>
<g >
</g>
<g >
</g>
<g >
</g>
<g >
</g>
<g >
</g>
</g> 
</svg>
