%TF.GenerationSoftware,KiCad,Pcbnew,5.1.12-84ad8e8a86~92~ubuntu18.04.1*%
%TF.CreationDate,2022-01-05T22:45:31-05:00*%
%TF.ProjectId,remote,72656d6f-7465-42e6-9b69-6361645f7063,rev?*%
%TF.SameCoordinates,Original*%
%TF.FileFunction,Legend,Top*%
%TF.FilePolarity,Positive*%
%FSLAX46Y46*%
G04 Gerber Fmt 4.6, Leading zero omitted, Abs format (unit mm)*
G04 Created by KiCad (PCBNEW 5.1.12-84ad8e8a86~92~ubuntu18.04.1) date 2022-01-05 22:45:31*
%MOMM*%
%LPD*%
G01*
G04 APERTURE LIST*
%ADD10C,0.500000*%
%ADD11C,0.120000*%
%ADD12C,0.150000*%
%ADD13C,0.300000*%
%ADD14C,0.200000*%
%ADD15C,0.127000*%
G04 APERTURE END LIST*
D10*
X14000000Y-42200000D02*
X13450000Y-41700000D01*
X13000000Y-42200000D02*
X13450000Y-41700000D01*
D11*
X15217767Y-41632234D02*
G75*
G03*
X15217767Y-41632234I-1767767J0D01*
G01*
D12*
X12928571Y-24992857D02*
X13928571Y-24635714D01*
X12928571Y-24278571D01*
X12428571Y-23421428D02*
X12428571Y-23278571D01*
X12500000Y-23135714D01*
X12571428Y-23064285D01*
X12714285Y-22992857D01*
X13000000Y-22921428D01*
X13357142Y-22921428D01*
X13642857Y-22992857D01*
X13785714Y-23064285D01*
X13857142Y-23135714D01*
X13928571Y-23278571D01*
X13928571Y-23421428D01*
X13857142Y-23564285D01*
X13785714Y-23635714D01*
X13642857Y-23707142D01*
X13357142Y-23778571D01*
X13000000Y-23778571D01*
X12714285Y-23707142D01*
X12571428Y-23635714D01*
X12500000Y-23564285D01*
X12428571Y-23421428D01*
X13785714Y-22278571D02*
X13857142Y-22207142D01*
X13928571Y-22278571D01*
X13857142Y-22350000D01*
X13785714Y-22278571D01*
X13928571Y-22278571D01*
X13928571Y-20778571D02*
X13928571Y-21635714D01*
X13928571Y-21207142D02*
X12428571Y-21207142D01*
X12642857Y-21350000D01*
X12785714Y-21492857D01*
X12857142Y-21635714D01*
D10*
X12450000Y-41700000D02*
X13450000Y-40700000D01*
X14450000Y-41600000D02*
X13450000Y-40700000D01*
D13*
X12964285Y-38659523D02*
X12964285Y-37707142D01*
X12130952Y-38302380D02*
X14273809Y-38302380D01*
X14511904Y-38183333D01*
X14630952Y-37945238D01*
X14630952Y-37707142D01*
X14630952Y-36873809D02*
X12964285Y-36873809D01*
X13440476Y-36873809D02*
X13202380Y-36754761D01*
X13083333Y-36635714D01*
X12964285Y-36397619D01*
X12964285Y-36159523D01*
X14630952Y-34254761D02*
X13321428Y-34254761D01*
X13083333Y-34373809D01*
X12964285Y-34611904D01*
X12964285Y-35088095D01*
X13083333Y-35326190D01*
X14511904Y-34254761D02*
X14630952Y-34492857D01*
X14630952Y-35088095D01*
X14511904Y-35326190D01*
X14273809Y-35445238D01*
X14035714Y-35445238D01*
X13797619Y-35326190D01*
X13678571Y-35088095D01*
X13678571Y-34492857D01*
X13559523Y-34254761D01*
X14511904Y-31992857D02*
X14630952Y-32230952D01*
X14630952Y-32707142D01*
X14511904Y-32945238D01*
X14392857Y-33064285D01*
X14154761Y-33183333D01*
X13440476Y-33183333D01*
X13202380Y-33064285D01*
X13083333Y-32945238D01*
X12964285Y-32707142D01*
X12964285Y-32230952D01*
X13083333Y-31992857D01*
X14630952Y-30921428D02*
X12130952Y-30921428D01*
X13678571Y-30683333D02*
X14630952Y-29969047D01*
X12964285Y-29969047D02*
X13916666Y-30921428D01*
X14511904Y-27945238D02*
X14630952Y-28183333D01*
X14630952Y-28659523D01*
X14511904Y-28897619D01*
X14273809Y-29016666D01*
X13321428Y-29016666D01*
X13083333Y-28897619D01*
X12964285Y-28659523D01*
X12964285Y-28183333D01*
X13083333Y-27945238D01*
X13321428Y-27826190D01*
X13559523Y-27826190D01*
X13797619Y-29016666D01*
X14630952Y-26754761D02*
X12964285Y-26754761D01*
X13440476Y-26754761D02*
X13202380Y-26635714D01*
X13083333Y-26516666D01*
X12964285Y-26278571D01*
X12964285Y-26040476D01*
D12*
X-29297619Y8154761D02*
X-30297619Y8154761D01*
X-29297619Y8630952D02*
X-30297619Y8630952D01*
X-29583333Y8964285D01*
X-30297619Y9297619D01*
X-29297619Y9297619D01*
X-30297619Y9773809D02*
X-29488095Y9773809D01*
X-29392857Y9821428D01*
X-29345238Y9869047D01*
X-29297619Y9964285D01*
X-29297619Y10154761D01*
X-29345238Y10250000D01*
X-29392857Y10297619D01*
X-29488095Y10345238D01*
X-30297619Y10345238D01*
D14*
X14377142Y19828571D02*
X14448571Y20042857D01*
X14448571Y20400000D01*
X14377142Y20542857D01*
X14305714Y20614285D01*
X14162857Y20685714D01*
X14020000Y20685714D01*
X13877142Y20614285D01*
X13805714Y20542857D01*
X13734285Y20400000D01*
X13662857Y20114285D01*
X13591428Y19971428D01*
X13520000Y19900000D01*
X13377142Y19828571D01*
X13234285Y19828571D01*
X13091428Y19900000D01*
X13020000Y19971428D01*
X12948571Y20114285D01*
X12948571Y20471428D01*
X13020000Y20685714D01*
X14448571Y21328571D02*
X12948571Y21328571D01*
X12948571Y21685714D01*
X13020000Y21900000D01*
X13162857Y22042857D01*
X13305714Y22114285D01*
X13591428Y22185714D01*
X13805714Y22185714D01*
X14091428Y22114285D01*
X14234285Y22042857D01*
X14377142Y21900000D01*
X14448571Y21685714D01*
X14448571Y21328571D01*
X14020000Y22757142D02*
X14020000Y23471428D01*
X14448571Y22614285D02*
X12948571Y23114285D01*
X14448571Y23614285D01*
X-25050000Y-73912857D02*
X-25121428Y-74055714D01*
X-25121428Y-74270000D01*
X-25050000Y-74484285D01*
X-24907142Y-74627142D01*
X-24764285Y-74698571D01*
X-24478571Y-74770000D01*
X-24264285Y-74770000D01*
X-23978571Y-74698571D01*
X-23835714Y-74627142D01*
X-23692857Y-74484285D01*
X-23621428Y-74270000D01*
X-23621428Y-74127142D01*
X-23692857Y-73912857D01*
X-23764285Y-73841428D01*
X-24264285Y-73841428D01*
X-24264285Y-74127142D01*
X-23621428Y-73198571D02*
X-25121428Y-73198571D01*
X-23621428Y-72341428D01*
X-25121428Y-72341428D01*
X-23621428Y-71627142D02*
X-25121428Y-71627142D01*
X-25121428Y-71270000D01*
X-25050000Y-71055714D01*
X-24907142Y-70912857D01*
X-24764285Y-70841428D01*
X-24478571Y-70770000D01*
X-24264285Y-70770000D01*
X-23978571Y-70841428D01*
X-23835714Y-70912857D01*
X-23692857Y-71055714D01*
X-23621428Y-71270000D01*
X-23621428Y-71627142D01*
X13008571Y-72942857D02*
X13008571Y-72014285D01*
X13580000Y-72514285D01*
X13580000Y-72300000D01*
X13651428Y-72157142D01*
X13722857Y-72085714D01*
X13865714Y-72014285D01*
X14222857Y-72014285D01*
X14365714Y-72085714D01*
X14437142Y-72157142D01*
X14508571Y-72300000D01*
X14508571Y-72728571D01*
X14437142Y-72871428D01*
X14365714Y-72942857D01*
X13008571Y-71585714D02*
X14508571Y-71085714D01*
X13008571Y-70585714D01*
X-24737142Y23255714D02*
X-24808571Y23041428D01*
X-24808571Y22684285D01*
X-24737142Y22541428D01*
X-24665714Y22470000D01*
X-24522857Y22398571D01*
X-24380000Y22398571D01*
X-24237142Y22470000D01*
X-24165714Y22541428D01*
X-24094285Y22684285D01*
X-24022857Y22970000D01*
X-23951428Y23112857D01*
X-23880000Y23184285D01*
X-23737142Y23255714D01*
X-23594285Y23255714D01*
X-23451428Y23184285D01*
X-23380000Y23112857D01*
X-23308571Y22970000D01*
X-23308571Y22612857D01*
X-23380000Y22398571D01*
X-24665714Y20898571D02*
X-24737142Y20970000D01*
X-24808571Y21184285D01*
X-24808571Y21327142D01*
X-24737142Y21541428D01*
X-24594285Y21684285D01*
X-24451428Y21755714D01*
X-24165714Y21827142D01*
X-23951428Y21827142D01*
X-23665714Y21755714D01*
X-23522857Y21684285D01*
X-23380000Y21541428D01*
X-23308571Y21327142D01*
X-23308571Y21184285D01*
X-23380000Y20970000D01*
X-23451428Y20898571D01*
X-24808571Y19541428D02*
X-24808571Y20255714D01*
X-23308571Y20255714D01*
D12*
X1858095Y-75051428D02*
X558095Y-75051428D01*
X558095Y-74556190D01*
X619999Y-74432380D01*
X681904Y-74370476D01*
X805714Y-74308571D01*
X991428Y-74308571D01*
X1115238Y-74370476D01*
X1177142Y-74432380D01*
X1239047Y-74556190D01*
X1239047Y-75051428D01*
X1858095Y-73008571D02*
X1239047Y-73441904D01*
X1858095Y-73751428D02*
X558095Y-73751428D01*
X558095Y-73256190D01*
X620000Y-73132380D01*
X681904Y-73070476D01*
X805714Y-73008571D01*
X991428Y-73008571D01*
X1115238Y-73070476D01*
X1177142Y-73132380D01*
X1239047Y-73256190D01*
X1239047Y-73751428D01*
X558095Y-72203809D02*
X558095Y-71956190D01*
X620000Y-71832380D01*
X743809Y-71708571D01*
X991428Y-71646666D01*
X1424761Y-71646666D01*
X1672380Y-71708571D01*
X1796190Y-71832380D01*
X1858095Y-71956190D01*
X1858095Y-72203809D01*
X1796190Y-72327619D01*
X1672380Y-72451428D01*
X1424761Y-72513333D01*
X991428Y-72513333D01*
X743809Y-72451428D01*
X620000Y-72327619D01*
X558095Y-72203809D01*
X620000Y-70408571D02*
X558095Y-70532380D01*
X558095Y-70718095D01*
X620000Y-70903809D01*
X743809Y-71027619D01*
X867619Y-71089523D01*
X1115238Y-71151428D01*
X1300952Y-71151428D01*
X1548571Y-71089523D01*
X1672380Y-71027619D01*
X1796190Y-70903809D01*
X1858095Y-70718095D01*
X1858095Y-70594285D01*
X1796190Y-70408571D01*
X1734285Y-70346666D01*
X1300952Y-70346666D01*
X1300952Y-70594285D01*
X-8621904Y-74798571D02*
X-8621904Y-75417619D01*
X-9921904Y-75417619D01*
X-9921904Y-74117619D02*
X-9921904Y-73870000D01*
X-9860000Y-73746190D01*
X-9736190Y-73622380D01*
X-9488571Y-73560476D01*
X-9055238Y-73560476D01*
X-8807619Y-73622380D01*
X-8683809Y-73746190D01*
X-8621904Y-73870000D01*
X-8621904Y-74117619D01*
X-8683809Y-74241428D01*
X-8807619Y-74365238D01*
X-9055238Y-74427142D01*
X-9488571Y-74427142D01*
X-9736190Y-74365238D01*
X-9860000Y-74241428D01*
X-9921904Y-74117619D01*
X-9860000Y-72322380D02*
X-9921904Y-72446190D01*
X-9921904Y-72631904D01*
X-9860000Y-72817619D01*
X-9736190Y-72941428D01*
X-9612380Y-73003333D01*
X-9364761Y-73065238D01*
X-9179047Y-73065238D01*
X-8931428Y-73003333D01*
X-8807619Y-72941428D01*
X-8683809Y-72817619D01*
X-8621904Y-72631904D01*
X-8621904Y-72508095D01*
X-8683809Y-72322380D01*
X-8745714Y-72260476D01*
X-9179047Y-72260476D01*
X-9179047Y-72508095D01*
D11*
X-15940000Y20930000D02*
X-12660000Y20930000D01*
D12*
X-12462857Y20763333D02*
X-11986666Y20763333D01*
X-12558095Y20477619D02*
X-12224761Y21477619D01*
X-11891428Y20477619D01*
X-11558095Y20477619D02*
X-11558095Y21477619D01*
X-10986666Y20477619D01*
X-10986666Y21477619D01*
X-10653333Y21477619D02*
X-10081904Y21477619D01*
X-10367619Y20477619D02*
X-10367619Y21477619D01*
X1692857Y30540000D02*
X2407142Y30540000D01*
X1550000Y30111428D02*
X2050000Y31611428D01*
X2550000Y30111428D01*
X3050000Y30111428D02*
X3050000Y31611428D01*
X3907142Y30111428D01*
X3907142Y31611428D01*
X4407142Y31611428D02*
X5264285Y31611428D01*
X4835714Y30111428D02*
X4835714Y31611428D01*
X5764285Y30897142D02*
X6264285Y30897142D01*
X6478571Y30111428D02*
X5764285Y30111428D01*
X5764285Y31611428D01*
X6478571Y31611428D01*
X7121428Y30111428D02*
X7121428Y31611428D01*
X7978571Y30111428D01*
X7978571Y31611428D01*
X8692857Y30111428D02*
X8692857Y31611428D01*
X9550000Y30111428D01*
X9550000Y31611428D01*
X10192857Y30540000D02*
X10907142Y30540000D01*
X10050000Y30111428D02*
X10550000Y31611428D01*
X11050000Y30111428D01*
X4968571Y33990000D02*
X4825714Y34061428D01*
X4611428Y34061428D01*
X4397142Y33990000D01*
X4254285Y33847142D01*
X4182857Y33704285D01*
X4111428Y33418571D01*
X4111428Y33204285D01*
X4182857Y32918571D01*
X4254285Y32775714D01*
X4397142Y32632857D01*
X4611428Y32561428D01*
X4754285Y32561428D01*
X4968571Y32632857D01*
X5040000Y32704285D01*
X5040000Y33204285D01*
X4754285Y33204285D01*
X5682857Y32561428D02*
X5682857Y34061428D01*
X6254285Y34061428D01*
X6397142Y33990000D01*
X6468571Y33918571D01*
X6540000Y33775714D01*
X6540000Y33561428D01*
X6468571Y33418571D01*
X6397142Y33347142D01*
X6254285Y33275714D01*
X5682857Y33275714D01*
X7111428Y32632857D02*
X7325714Y32561428D01*
X7682857Y32561428D01*
X7825714Y32632857D01*
X7897142Y32704285D01*
X7968571Y32847142D01*
X7968571Y32990000D01*
X7897142Y33132857D01*
X7825714Y33204285D01*
X7682857Y33275714D01*
X7397142Y33347142D01*
X7254285Y33418571D01*
X7182857Y33490000D01*
X7111428Y33632857D01*
X7111428Y33775714D01*
X7182857Y33918571D01*
X7254285Y33990000D01*
X7397142Y34061428D01*
X7754285Y34061428D01*
X7968571Y33990000D01*
X-13714285Y8071428D02*
X-14214285Y8785714D01*
X-14571428Y8071428D02*
X-14571428Y9571428D01*
X-14000000Y9571428D01*
X-13857142Y9500000D01*
X-13785714Y9428571D01*
X-13714285Y9285714D01*
X-13714285Y9071428D01*
X-13785714Y8928571D01*
X-13857142Y8857142D01*
X-14000000Y8785714D01*
X-14571428Y8785714D01*
X-12571428Y8857142D02*
X-13071428Y8857142D01*
X-13071428Y8071428D02*
X-13071428Y9571428D01*
X-12357142Y9571428D01*
X-11785714Y8071428D02*
X-11785714Y9571428D01*
X-11285714Y8500000D01*
X-10785714Y9571428D01*
X-10785714Y8071428D01*
X-10000000Y8071428D02*
X-9714285Y8071428D01*
X-9571428Y8142857D01*
X-9500000Y8214285D01*
X-9357142Y8428571D01*
X-9285714Y8714285D01*
X-9285714Y9285714D01*
X-9357142Y9428571D01*
X-9428571Y9500000D01*
X-9571428Y9571428D01*
X-9857142Y9571428D01*
X-10000000Y9500000D01*
X-10071428Y9428571D01*
X-10142857Y9285714D01*
X-10142857Y8928571D01*
X-10071428Y8785714D01*
X-10000000Y8714285D01*
X-9857142Y8642857D01*
X-9571428Y8642857D01*
X-9428571Y8714285D01*
X-9357142Y8785714D01*
X-9285714Y8928571D01*
X-7928571Y9571428D02*
X-8642857Y9571428D01*
X-8714285Y8857142D01*
X-8642857Y8928571D01*
X-8500000Y9000000D01*
X-8142857Y9000000D01*
X-8000000Y8928571D01*
X-7928571Y8857142D01*
X-7857142Y8714285D01*
X-7857142Y8357142D01*
X-7928571Y8214285D01*
X-8000000Y8142857D01*
X-8142857Y8071428D01*
X-8500000Y8071428D01*
X-8642857Y8142857D01*
X-8714285Y8214285D01*
X-16382857Y14903333D02*
X-15906666Y14903333D01*
X-16478095Y14617619D02*
X-16144761Y15617619D01*
X-15811428Y14617619D01*
X-15478095Y14617619D02*
X-15478095Y15617619D01*
X-14906666Y14617619D01*
X-14906666Y15617619D01*
X-14573333Y15617619D02*
X-14001904Y15617619D01*
X-14287619Y14617619D02*
X-14287619Y15617619D01*
X17001428Y7270000D02*
X17858571Y7270000D01*
X16830000Y6755714D02*
X17430000Y8555714D01*
X18030000Y6755714D01*
X17430000Y3698571D02*
X17687143Y3612857D01*
X17772857Y3527142D01*
X17858571Y3355714D01*
X17858571Y3098571D01*
X17772857Y2927142D01*
X17687143Y2841428D01*
X17515714Y2755714D01*
X16830000Y2755714D01*
X16830000Y4555714D01*
X17430000Y4555714D01*
X17601429Y4470000D01*
X17687143Y4384285D01*
X17772857Y4212857D01*
X17772857Y4041428D01*
X17687143Y3870000D01*
X17601429Y3784285D01*
X17430000Y3698571D01*
X16830000Y3698571D01*
X17858571Y-17672857D02*
X17772857Y-17758571D01*
X17515714Y-17844285D01*
X17344286Y-17844285D01*
X17087143Y-17758571D01*
X16915714Y-17587142D01*
X16830000Y-17415714D01*
X16744286Y-17072857D01*
X16744286Y-16815714D01*
X16830000Y-16472857D01*
X16915714Y-16301428D01*
X17087143Y-16130000D01*
X17344286Y-16044285D01*
X17515714Y-16044285D01*
X17772857Y-16130000D01*
X17858571Y-16215714D01*
D14*
X17035714Y-36154285D02*
X17378571Y-36154285D01*
X17550000Y-36240000D01*
X17721428Y-36411428D01*
X17807142Y-36754285D01*
X17807142Y-37354285D01*
X17721428Y-37697142D01*
X17550000Y-37868571D01*
X17378571Y-37954285D01*
X17035714Y-37954285D01*
X16864285Y-37868571D01*
X16692857Y-37697142D01*
X16607142Y-37354285D01*
X16607142Y-36754285D01*
X16692857Y-36411428D01*
X16864285Y-36240000D01*
X17035714Y-36154285D01*
X19178571Y-37011428D02*
X18578571Y-37011428D01*
X18578571Y-37954285D02*
X18578571Y-36154285D01*
X19435714Y-36154285D01*
X20721428Y-37011428D02*
X20121428Y-37011428D01*
X20121428Y-37954285D02*
X20121428Y-36154285D01*
X20978571Y-36154285D01*
X18105714Y-24084285D02*
X18448571Y-24084285D01*
X18620000Y-24170000D01*
X18791428Y-24341428D01*
X18877142Y-24684285D01*
X18877142Y-25284285D01*
X18791428Y-25627142D01*
X18620000Y-25798571D01*
X18448571Y-25884285D01*
X18105714Y-25884285D01*
X17934285Y-25798571D01*
X17762857Y-25627142D01*
X17677142Y-25284285D01*
X17677142Y-24684285D01*
X17762857Y-24341428D01*
X17934285Y-24170000D01*
X18105714Y-24084285D01*
X19648571Y-25884285D02*
X19648571Y-24084285D01*
X20677142Y-25884285D01*
X20677142Y-24084285D01*
D12*
X-20811904Y-74268095D02*
X-21430952Y-74701428D01*
X-20811904Y-75010952D02*
X-22111904Y-75010952D01*
X-22111904Y-74515714D01*
X-22050000Y-74391904D01*
X-21988095Y-74330000D01*
X-21864285Y-74268095D01*
X-21678571Y-74268095D01*
X-21554761Y-74330000D01*
X-21492857Y-74391904D01*
X-21430952Y-74515714D01*
X-21430952Y-75010952D01*
X-21492857Y-73710952D02*
X-21492857Y-73277619D01*
X-20811904Y-73091904D02*
X-20811904Y-73710952D01*
X-22111904Y-73710952D01*
X-22111904Y-73091904D01*
X-20873809Y-72596666D02*
X-20811904Y-72410952D01*
X-20811904Y-72101428D01*
X-20873809Y-71977619D01*
X-20935714Y-71915714D01*
X-21059523Y-71853809D01*
X-21183333Y-71853809D01*
X-21307142Y-71915714D01*
X-21369047Y-71977619D01*
X-21430952Y-72101428D01*
X-21492857Y-72349047D01*
X-21554761Y-72472857D01*
X-21616666Y-72534761D01*
X-21740476Y-72596666D01*
X-21864285Y-72596666D01*
X-21988095Y-72534761D01*
X-22050000Y-72472857D01*
X-22111904Y-72349047D01*
X-22111904Y-72039523D01*
X-22050000Y-71853809D01*
X-21492857Y-71296666D02*
X-21492857Y-70863333D01*
X-20811904Y-70677619D02*
X-20811904Y-71296666D01*
X-22111904Y-71296666D01*
X-22111904Y-70677619D01*
X-22111904Y-70306190D02*
X-22111904Y-69563333D01*
X-20811904Y-69934761D02*
X-22111904Y-69934761D01*
X-24097619Y-538095D02*
X-24097619Y80952D01*
X-23716666Y-252380D01*
X-23716666Y-109523D01*
X-23669047Y-14285D01*
X-23621428Y33333D01*
X-23526190Y80952D01*
X-23288095Y80952D01*
X-23192857Y33333D01*
X-23145238Y-14285D01*
X-23097619Y-109523D01*
X-23097619Y-395238D01*
X-23145238Y-490476D01*
X-23192857Y-538095D01*
X-24097619Y366666D02*
X-23097619Y700000D01*
X-24097619Y1033333D01*
X-24097619Y1271428D02*
X-24097619Y1890476D01*
X-23716666Y1557142D01*
X-23716666Y1700000D01*
X-23669047Y1795238D01*
X-23621428Y1842857D01*
X-23526190Y1890476D01*
X-23288095Y1890476D01*
X-23192857Y1842857D01*
X-23145238Y1795238D01*
X-23097619Y1700000D01*
X-23097619Y1414285D01*
X-23145238Y1319047D01*
X-23192857Y1271428D01*
X-19100000Y-5751904D02*
X-19147619Y-5847142D01*
X-19147619Y-5990000D01*
X-19100000Y-6132857D01*
X-19004761Y-6228095D01*
X-18909523Y-6275714D01*
X-18719047Y-6323333D01*
X-18576190Y-6323333D01*
X-18385714Y-6275714D01*
X-18290476Y-6228095D01*
X-18195238Y-6132857D01*
X-18147619Y-5990000D01*
X-18147619Y-5894761D01*
X-18195238Y-5751904D01*
X-18242857Y-5704285D01*
X-18576190Y-5704285D01*
X-18576190Y-5894761D01*
X-18147619Y-5275714D02*
X-19147619Y-5275714D01*
X-18147619Y-4704285D01*
X-19147619Y-4704285D01*
X-18147619Y-4228095D02*
X-19147619Y-4228095D01*
X-19147619Y-3990000D01*
X-19100000Y-3847142D01*
X-19004761Y-3751904D01*
X-18909523Y-3704285D01*
X-18719047Y-3656666D01*
X-18576190Y-3656666D01*
X-18385714Y-3704285D01*
X-18290476Y-3751904D01*
X-18195238Y-3847142D01*
X-18147619Y-3990000D01*
X-18147619Y-4228095D01*
X-15365238Y-190476D02*
X-15317619Y-47619D01*
X-15317619Y190476D01*
X-15365238Y285714D01*
X-15412857Y333333D01*
X-15508095Y380952D01*
X-15603333Y380952D01*
X-15698571Y333333D01*
X-15746190Y285714D01*
X-15793809Y190476D01*
X-15841428Y0D01*
X-15889047Y-95238D01*
X-15936666Y-142857D01*
X-16031904Y-190476D01*
X-16127142Y-190476D01*
X-16222380Y-142857D01*
X-16270000Y-95238D01*
X-16317619Y0D01*
X-16317619Y238095D01*
X-16270000Y380952D01*
X-15412857Y1380952D02*
X-15365238Y1333333D01*
X-15317619Y1190476D01*
X-15317619Y1095238D01*
X-15365238Y952380D01*
X-15460476Y857142D01*
X-15555714Y809523D01*
X-15746190Y761904D01*
X-15889047Y761904D01*
X-16079523Y809523D01*
X-16174761Y857142D01*
X-16270000Y952380D01*
X-16317619Y1095238D01*
X-16317619Y1190476D01*
X-16270000Y1333333D01*
X-16222380Y1380952D01*
X-15317619Y2285714D02*
X-15317619Y1809523D01*
X-16317619Y1809523D01*
X-13235238Y-214285D02*
X-13187619Y-71428D01*
X-13187619Y166666D01*
X-13235238Y261904D01*
X-13282857Y309523D01*
X-13378095Y357142D01*
X-13473333Y357142D01*
X-13568571Y309523D01*
X-13616190Y261904D01*
X-13663809Y166666D01*
X-13711428Y-23809D01*
X-13759047Y-119047D01*
X-13806666Y-166666D01*
X-13901904Y-214285D01*
X-13997142Y-214285D01*
X-14092380Y-166666D01*
X-14140000Y-119047D01*
X-14187619Y-23809D01*
X-14187619Y214285D01*
X-14140000Y357142D01*
X-13187619Y785714D02*
X-14187619Y785714D01*
X-14187619Y1023809D01*
X-14140000Y1166666D01*
X-14044761Y1261904D01*
X-13949523Y1309523D01*
X-13759047Y1357142D01*
X-13616190Y1357142D01*
X-13425714Y1309523D01*
X-13330476Y1261904D01*
X-13235238Y1166666D01*
X-13187619Y1023809D01*
X-13187619Y785714D01*
X-13473333Y1738095D02*
X-13473333Y2214285D01*
X-13187619Y1642857D02*
X-14187619Y1976190D01*
X-13187619Y2309523D01*
X-8875238Y-11147619D02*
X-8827619Y-11004762D01*
X-8827619Y-10766666D01*
X-8875238Y-10671428D01*
X-8922857Y-10623809D01*
X-9018095Y-10576190D01*
X-9113333Y-10576190D01*
X-9208571Y-10623809D01*
X-9256190Y-10671428D01*
X-9303809Y-10766666D01*
X-9351428Y-10957143D01*
X-9399047Y-11052381D01*
X-9446666Y-11100000D01*
X-9541904Y-11147619D01*
X-9637142Y-11147619D01*
X-9732380Y-11100000D01*
X-9780000Y-11052381D01*
X-9827619Y-10957143D01*
X-9827619Y-10719047D01*
X-9780000Y-10576190D01*
X-8922857Y-9576190D02*
X-8875238Y-9623809D01*
X-8827619Y-9766666D01*
X-8827619Y-9861904D01*
X-8875238Y-10004762D01*
X-8970476Y-10100000D01*
X-9065714Y-10147619D01*
X-9256190Y-10195238D01*
X-9399047Y-10195238D01*
X-9589523Y-10147619D01*
X-9684761Y-10100000D01*
X-9780000Y-10004762D01*
X-9827619Y-9861904D01*
X-9827619Y-9766666D01*
X-9780000Y-9623809D01*
X-9732380Y-9576190D01*
X-8827619Y-8671428D02*
X-8827619Y-9147619D01*
X-9827619Y-9147619D01*
X-14920000Y-10861904D02*
X-14967619Y-10957142D01*
X-14967619Y-11100000D01*
X-14920000Y-11242857D01*
X-14824761Y-11338095D01*
X-14729523Y-11385714D01*
X-14539047Y-11433333D01*
X-14396190Y-11433333D01*
X-14205714Y-11385714D01*
X-14110476Y-11338095D01*
X-14015238Y-11242857D01*
X-13967619Y-11100000D01*
X-13967619Y-11004761D01*
X-14015238Y-10861904D01*
X-14062857Y-10814285D01*
X-14396190Y-10814285D01*
X-14396190Y-11004761D01*
X-13967619Y-10385714D02*
X-14967619Y-10385714D01*
X-13967619Y-9814285D01*
X-14967619Y-9814285D01*
X-13967619Y-9338095D02*
X-14967619Y-9338095D01*
X-14967619Y-9100000D01*
X-14920000Y-8957142D01*
X-14824761Y-8861904D01*
X-14729523Y-8814285D01*
X-14539047Y-8766666D01*
X-14396190Y-8766666D01*
X-14205714Y-8814285D01*
X-14110476Y-8861904D01*
X-14015238Y-8957142D01*
X-13967619Y-9100000D01*
X-13967619Y-9338095D01*
X-12297619Y-11195238D02*
X-12297619Y-10576190D01*
X-11916666Y-10909523D01*
X-11916666Y-10766666D01*
X-11869047Y-10671428D01*
X-11821428Y-10623809D01*
X-11726190Y-10576190D01*
X-11488095Y-10576190D01*
X-11392857Y-10623809D01*
X-11345238Y-10671428D01*
X-11297619Y-10766666D01*
X-11297619Y-11052381D01*
X-11345238Y-11147619D01*
X-11392857Y-11195238D01*
X-12297619Y-10290476D02*
X-11297619Y-9957143D01*
X-12297619Y-9623809D01*
X-12297619Y-9385714D02*
X-12297619Y-8766666D01*
X-11916666Y-9100000D01*
X-11916666Y-8957143D01*
X-11869047Y-8861904D01*
X-11821428Y-8814285D01*
X-11726190Y-8766666D01*
X-11488095Y-8766666D01*
X-11392857Y-8814285D01*
X-11345238Y-8861904D01*
X-11297619Y-8957143D01*
X-11297619Y-9242857D01*
X-11345238Y-9338095D01*
X-11392857Y-9385714D01*
X-6285238Y-11195237D02*
X-6237619Y-11052380D01*
X-6237619Y-10814285D01*
X-6285238Y-10719047D01*
X-6332857Y-10671428D01*
X-6428095Y-10623809D01*
X-6523333Y-10623809D01*
X-6618571Y-10671428D01*
X-6666190Y-10719047D01*
X-6713809Y-10814285D01*
X-6761428Y-11004761D01*
X-6809047Y-11099999D01*
X-6856666Y-11147618D01*
X-6951904Y-11195237D01*
X-7047142Y-11195237D01*
X-7142380Y-11147618D01*
X-7190000Y-11099999D01*
X-7237619Y-11004761D01*
X-7237619Y-10766666D01*
X-7190000Y-10623809D01*
X-6237619Y-10195237D02*
X-7237619Y-10195237D01*
X-7237619Y-9957142D01*
X-7190000Y-9814285D01*
X-7094761Y-9719047D01*
X-6999523Y-9671428D01*
X-6809047Y-9623809D01*
X-6666190Y-9623809D01*
X-6475714Y-9671428D01*
X-6380476Y-9719047D01*
X-6285238Y-9814285D01*
X-6237619Y-9957142D01*
X-6237619Y-10195237D01*
X-6523333Y-9242856D02*
X-6523333Y-8766666D01*
X-6237619Y-9338094D02*
X-7237619Y-9004761D01*
X-6237619Y-8671428D01*
X-8220000Y-33129047D02*
X-8267619Y-33224285D01*
X-8267619Y-33367142D01*
X-8220000Y-33510000D01*
X-8124761Y-33605238D01*
X-8029523Y-33652857D01*
X-7839047Y-33700476D01*
X-7696190Y-33700476D01*
X-7505714Y-33652857D01*
X-7410476Y-33605238D01*
X-7315238Y-33510000D01*
X-7267619Y-33367142D01*
X-7267619Y-33271904D01*
X-7315238Y-33129047D01*
X-7362857Y-33081428D01*
X-7696190Y-33081428D01*
X-7696190Y-33271904D01*
X-7267619Y-32129047D02*
X-7267619Y-32700476D01*
X-7267619Y-32414762D02*
X-8267619Y-32414762D01*
X-8124761Y-32510000D01*
X-8029523Y-32605238D01*
X-7981904Y-32700476D01*
X-10687619Y-33795714D02*
X-10687619Y-33224286D01*
X-9687619Y-33510000D02*
X-10687619Y-33510000D01*
X-10687619Y-32986190D02*
X-9687619Y-32319524D01*
X-10687619Y-32319524D02*
X-9687619Y-32986190D01*
X-9592380Y-32176667D02*
X-9592380Y-31414762D01*
X-9687619Y-31176667D02*
X-10687619Y-31176667D01*
X-10687619Y-30938571D01*
X-10640000Y-30795714D01*
X-10544761Y-30700476D01*
X-10449523Y-30652857D01*
X-10259047Y-30605238D01*
X-10116190Y-30605238D01*
X-9925714Y-30652857D01*
X-9830476Y-30700476D01*
X-9735238Y-30795714D01*
X-9687619Y-30938571D01*
X-9687619Y-31176667D01*
X-9687619Y-29652857D02*
X-9687619Y-30224286D01*
X-9687619Y-29938571D02*
X-10687619Y-29938571D01*
X-10544761Y-30033809D01*
X-10449523Y-30129047D01*
X-10401904Y-30224286D01*
X-12317619Y-33081428D02*
X-12793809Y-33414761D01*
X-12317619Y-33652857D02*
X-13317619Y-33652857D01*
X-13317619Y-33271904D01*
X-13270000Y-33176666D01*
X-13222380Y-33129047D01*
X-13127142Y-33081428D01*
X-12984285Y-33081428D01*
X-12889047Y-33129047D01*
X-12841428Y-33176666D01*
X-12793809Y-33271904D01*
X-12793809Y-33652857D01*
X-13317619Y-32748095D02*
X-12317619Y-32081428D01*
X-13317619Y-32081428D02*
X-12317619Y-32748095D01*
X-12222380Y-31938571D02*
X-12222380Y-31176666D01*
X-12317619Y-30938571D02*
X-13317619Y-30938571D01*
X-13317619Y-30700476D01*
X-13270000Y-30557619D01*
X-13174761Y-30462380D01*
X-13079523Y-30414761D01*
X-12889047Y-30367142D01*
X-12746190Y-30367142D01*
X-12555714Y-30414761D01*
X-12460476Y-30462380D01*
X-12365238Y-30557619D01*
X-12317619Y-30700476D01*
X-12317619Y-30938571D01*
X-13317619Y-29748095D02*
X-13317619Y-29557619D01*
X-13270000Y-29462380D01*
X-13174761Y-29367142D01*
X-12984285Y-29319523D01*
X-12650952Y-29319523D01*
X-12460476Y-29367142D01*
X-12365238Y-29462380D01*
X-12317619Y-29557619D01*
X-12317619Y-29748095D01*
X-12365238Y-29843333D01*
X-12460476Y-29938571D01*
X-12650952Y-29986190D01*
X-12984285Y-29986190D01*
X-13174761Y-29938571D01*
X-13270000Y-29843333D01*
X-13317619Y-29748095D01*
X-29861904Y-14630000D02*
X-29957142Y-14582380D01*
X-30100000Y-14582380D01*
X-30242857Y-14630000D01*
X-30338095Y-14725238D01*
X-30385714Y-14820476D01*
X-30433333Y-15010952D01*
X-30433333Y-15153809D01*
X-30385714Y-15344285D01*
X-30338095Y-15439523D01*
X-30242857Y-15534761D01*
X-30100000Y-15582380D01*
X-30004761Y-15582380D01*
X-29861904Y-15534761D01*
X-29814285Y-15487142D01*
X-29814285Y-15153809D01*
X-30004761Y-15153809D01*
X-29385714Y-15582380D02*
X-29385714Y-14582380D01*
X-28814285Y-15582380D01*
X-28814285Y-14582380D01*
X-28338095Y-15582380D02*
X-28338095Y-14582380D01*
X-28100000Y-14582380D01*
X-27957142Y-14630000D01*
X-27861904Y-14725238D01*
X-27814285Y-14820476D01*
X-27766666Y-15010952D01*
X-27766666Y-15153809D01*
X-27814285Y-15344285D01*
X-27861904Y-15439523D01*
X-27957142Y-15534761D01*
X-28100000Y-15582380D01*
X-28338095Y-15582380D01*
X-30242856Y-18092380D02*
X-30242856Y-17092380D01*
X-30004761Y-17092380D01*
X-29861904Y-17140000D01*
X-29766666Y-17235238D01*
X-29719047Y-17330476D01*
X-29671428Y-17520952D01*
X-29671428Y-17663809D01*
X-29719047Y-17854285D01*
X-29766666Y-17949523D01*
X-29861904Y-18044761D01*
X-30004761Y-18092380D01*
X-30242856Y-18092380D01*
X-28719047Y-18092380D02*
X-29290475Y-18092380D01*
X-29004761Y-18092380D02*
X-29004761Y-17092380D01*
X-29099999Y-17235238D01*
X-29195237Y-17330476D01*
X-29290475Y-17378095D01*
X-27766666Y-18092380D02*
X-28338094Y-18092380D01*
X-28052380Y-18092380D02*
X-28052380Y-17092380D01*
X-28147618Y-17235238D01*
X-28242856Y-17330476D01*
X-28338094Y-17378095D01*
X-30242856Y-20512380D02*
X-30242856Y-19512380D01*
X-30004761Y-19512380D01*
X-29861904Y-19560000D01*
X-29766666Y-19655238D01*
X-29719047Y-19750476D01*
X-29671428Y-19940952D01*
X-29671428Y-20083809D01*
X-29719047Y-20274285D01*
X-29766666Y-20369523D01*
X-29861904Y-20464761D01*
X-30004761Y-20512380D01*
X-30242856Y-20512380D01*
X-28719047Y-20512380D02*
X-29290475Y-20512380D01*
X-29004761Y-20512380D02*
X-29004761Y-19512380D01*
X-29099999Y-19655238D01*
X-29195237Y-19750476D01*
X-29290475Y-19798095D01*
X-28338094Y-19607619D02*
X-28290475Y-19560000D01*
X-28195237Y-19512380D01*
X-27957142Y-19512380D01*
X-27861904Y-19560000D01*
X-27814285Y-19607619D01*
X-27766666Y-19702857D01*
X-27766666Y-19798095D01*
X-27814285Y-19940952D01*
X-28385713Y-20512380D01*
X-27766666Y-20512380D01*
X-30242856Y-23282380D02*
X-30242856Y-22282380D01*
X-30004761Y-22282380D01*
X-29861904Y-22330000D01*
X-29766666Y-22425238D01*
X-29719047Y-22520476D01*
X-29671428Y-22710952D01*
X-29671428Y-22853809D01*
X-29719047Y-23044285D01*
X-29766666Y-23139523D01*
X-29861904Y-23234761D01*
X-30004761Y-23282380D01*
X-30242856Y-23282380D01*
X-28719047Y-23282380D02*
X-29290475Y-23282380D01*
X-29004761Y-23282380D02*
X-29004761Y-22282380D01*
X-29099999Y-22425238D01*
X-29195237Y-22520476D01*
X-29290475Y-22568095D01*
X-28385713Y-22282380D02*
X-27766666Y-22282380D01*
X-28099999Y-22663333D01*
X-27957142Y-22663333D01*
X-27861904Y-22710952D01*
X-27814285Y-22758571D01*
X-27766666Y-22853809D01*
X-27766666Y-23091904D01*
X-27814285Y-23187142D01*
X-27861904Y-23234761D01*
X-27957142Y-23282380D01*
X-28242856Y-23282380D01*
X-28338094Y-23234761D01*
X-28385713Y-23187142D01*
X-29195237Y-25446666D02*
X-28719047Y-25446666D01*
X-29290475Y-25732380D02*
X-28957142Y-24732380D01*
X-28623809Y-25732380D01*
X-27766666Y-25732380D02*
X-28338094Y-25732380D01*
X-28052380Y-25732380D02*
X-28052380Y-24732380D01*
X-28147618Y-24875238D01*
X-28242856Y-24970476D01*
X-28338094Y-25018095D01*
X-29242856Y-27402380D02*
X-28623809Y-27402380D01*
X-28957142Y-27783333D01*
X-28814285Y-27783333D01*
X-28719047Y-27830952D01*
X-28671428Y-27878571D01*
X-28623809Y-27973809D01*
X-28623809Y-28211904D01*
X-28671428Y-28307142D01*
X-28719047Y-28354761D01*
X-28814285Y-28402380D01*
X-29099999Y-28402380D01*
X-29195237Y-28354761D01*
X-29242856Y-28307142D01*
X-28338094Y-27402380D02*
X-28004761Y-28402380D01*
X-27671428Y-27402380D01*
X9644761Y-35905238D02*
X9692380Y-35762380D01*
X9692380Y-35524285D01*
X9644761Y-35429047D01*
X9597142Y-35381428D01*
X9501904Y-35333809D01*
X9406666Y-35333809D01*
X9311428Y-35381428D01*
X9263809Y-35429047D01*
X9216190Y-35524285D01*
X9168571Y-35714761D01*
X9120952Y-35810000D01*
X9073333Y-35857619D01*
X8978095Y-35905238D01*
X8882857Y-35905238D01*
X8787619Y-35857619D01*
X8740000Y-35810000D01*
X8692380Y-35714761D01*
X8692380Y-35476666D01*
X8740000Y-35333809D01*
X9692380Y-34905238D02*
X8692380Y-34905238D01*
X9692380Y-34476666D02*
X9168571Y-34476666D01*
X9073333Y-34524285D01*
X9025714Y-34619523D01*
X9025714Y-34762380D01*
X9073333Y-34857619D01*
X9120952Y-34905238D01*
X9692380Y-33571904D02*
X9168571Y-33571904D01*
X9073333Y-33619523D01*
X9025714Y-33714761D01*
X9025714Y-33905238D01*
X9073333Y-34000476D01*
X9644761Y-33571904D02*
X9692380Y-33667142D01*
X9692380Y-33905238D01*
X9644761Y-34000476D01*
X9549523Y-34048095D01*
X9454285Y-34048095D01*
X9359047Y-34000476D01*
X9311428Y-33905238D01*
X9311428Y-33667142D01*
X9263809Y-33571904D01*
X9692380Y-33095714D02*
X9025714Y-33095714D01*
X9216190Y-33095714D02*
X9120952Y-33048095D01*
X9073333Y-33000476D01*
X9025714Y-32905238D01*
X9025714Y-32810000D01*
X9025714Y-32476666D02*
X10025714Y-32476666D01*
X9073333Y-32476666D02*
X9025714Y-32381428D01*
X9025714Y-32190952D01*
X9073333Y-32095714D01*
X9120952Y-32048095D01*
X9216190Y-32000476D01*
X9501904Y-32000476D01*
X9597142Y-32048095D01*
X9644761Y-32095714D01*
X9692380Y-32190952D01*
X9692380Y-32381428D01*
X9644761Y-32476666D01*
X9692380Y-30381428D02*
X8692380Y-30381428D01*
X9644761Y-30381428D02*
X9692380Y-30476666D01*
X9692380Y-30667142D01*
X9644761Y-30762380D01*
X9597142Y-30810000D01*
X9501904Y-30857619D01*
X9216190Y-30857619D01*
X9120952Y-30810000D01*
X9073333Y-30762380D01*
X9025714Y-30667142D01*
X9025714Y-30476666D01*
X9073333Y-30381428D01*
X9692380Y-29905238D02*
X9025714Y-29905238D01*
X8692380Y-29905238D02*
X8740000Y-29952857D01*
X8787619Y-29905238D01*
X8740000Y-29857619D01*
X8692380Y-29905238D01*
X8787619Y-29905238D01*
X9644761Y-29476666D02*
X9692380Y-29381428D01*
X9692380Y-29190952D01*
X9644761Y-29095714D01*
X9549523Y-29048095D01*
X9501904Y-29048095D01*
X9406666Y-29095714D01*
X9359047Y-29190952D01*
X9359047Y-29333809D01*
X9311428Y-29429047D01*
X9216190Y-29476666D01*
X9168571Y-29476666D01*
X9073333Y-29429047D01*
X9025714Y-29333809D01*
X9025714Y-29190952D01*
X9073333Y-29095714D01*
X9025714Y-28619523D02*
X10025714Y-28619523D01*
X9073333Y-28619523D02*
X9025714Y-28524285D01*
X9025714Y-28333809D01*
X9073333Y-28238571D01*
X9120952Y-28190952D01*
X9216190Y-28143333D01*
X9501904Y-28143333D01*
X9597142Y-28190952D01*
X9644761Y-28238571D01*
X9692380Y-28333809D01*
X9692380Y-28524285D01*
X9644761Y-28619523D01*
X9692380Y-27571904D02*
X9644761Y-27667142D01*
X9549523Y-27714761D01*
X8692380Y-27714761D01*
X9692380Y-26762380D02*
X9168571Y-26762380D01*
X9073333Y-26810000D01*
X9025714Y-26905238D01*
X9025714Y-27095714D01*
X9073333Y-27190952D01*
X9644761Y-26762380D02*
X9692380Y-26857619D01*
X9692380Y-27095714D01*
X9644761Y-27190952D01*
X9549523Y-27238571D01*
X9454285Y-27238571D01*
X9359047Y-27190952D01*
X9311428Y-27095714D01*
X9311428Y-26857619D01*
X9263809Y-26762380D01*
X9025714Y-26381428D02*
X9692380Y-26143333D01*
X9025714Y-25905238D02*
X9692380Y-26143333D01*
X9930476Y-26238571D01*
X9978095Y-26286190D01*
X10025714Y-26381428D01*
X9692380Y-24762380D02*
X8692380Y-24762380D01*
X9073333Y-24762380D02*
X9025714Y-24667142D01*
X9025714Y-24476666D01*
X9073333Y-24381428D01*
X9120952Y-24333809D01*
X9216190Y-24286190D01*
X9501904Y-24286190D01*
X9597142Y-24333809D01*
X9644761Y-24381428D01*
X9692380Y-24476666D01*
X9692380Y-24667142D01*
X9644761Y-24762380D01*
X9692380Y-23857619D02*
X9025714Y-23857619D01*
X9216190Y-23857619D02*
X9120952Y-23810000D01*
X9073333Y-23762380D01*
X9025714Y-23667142D01*
X9025714Y-23571904D01*
X9644761Y-22857619D02*
X9692380Y-22952857D01*
X9692380Y-23143333D01*
X9644761Y-23238571D01*
X9549523Y-23286190D01*
X9168571Y-23286190D01*
X9073333Y-23238571D01*
X9025714Y-23143333D01*
X9025714Y-22952857D01*
X9073333Y-22857619D01*
X9168571Y-22810000D01*
X9263809Y-22810000D01*
X9359047Y-23286190D01*
X9692380Y-21952857D02*
X9168571Y-21952857D01*
X9073333Y-22000476D01*
X9025714Y-22095714D01*
X9025714Y-22286190D01*
X9073333Y-22381428D01*
X9644761Y-21952857D02*
X9692380Y-22048095D01*
X9692380Y-22286190D01*
X9644761Y-22381428D01*
X9549523Y-22429047D01*
X9454285Y-22429047D01*
X9359047Y-22381428D01*
X9311428Y-22286190D01*
X9311428Y-22048095D01*
X9263809Y-21952857D01*
X9692380Y-21476666D02*
X8692380Y-21476666D01*
X9311428Y-21381428D02*
X9692380Y-21095714D01*
X9025714Y-21095714D02*
X9406666Y-21476666D01*
X9692380Y-20524285D02*
X9644761Y-20619523D01*
X9597142Y-20667142D01*
X9501904Y-20714761D01*
X9216190Y-20714761D01*
X9120952Y-20667142D01*
X9073333Y-20619523D01*
X9025714Y-20524285D01*
X9025714Y-20381428D01*
X9073333Y-20286190D01*
X9120952Y-20238571D01*
X9216190Y-20190952D01*
X9501904Y-20190952D01*
X9597142Y-20238571D01*
X9644761Y-20286190D01*
X9692380Y-20381428D01*
X9692380Y-20524285D01*
X9025714Y-19333809D02*
X9692380Y-19333809D01*
X9025714Y-19762380D02*
X9549523Y-19762380D01*
X9644761Y-19714761D01*
X9692380Y-19619523D01*
X9692380Y-19476666D01*
X9644761Y-19381428D01*
X9597142Y-19333809D01*
X9025714Y-19000476D02*
X9025714Y-18619523D01*
X8692380Y-18857619D02*
X9549523Y-18857619D01*
X9644761Y-18810000D01*
X9692380Y-18714761D01*
X9692380Y-18619523D01*
X844761Y-28756190D02*
X892380Y-28613333D01*
X892380Y-28375238D01*
X844761Y-28280000D01*
X797142Y-28232380D01*
X701904Y-28184761D01*
X606666Y-28184761D01*
X511428Y-28232380D01*
X463809Y-28280000D01*
X416190Y-28375238D01*
X368571Y-28565714D01*
X320952Y-28660952D01*
X273333Y-28708571D01*
X178095Y-28756190D01*
X82857Y-28756190D01*
X-12380Y-28708571D01*
X-60000Y-28660952D01*
X-107619Y-28565714D01*
X-107619Y-28327619D01*
X-60000Y-28184761D01*
X892380Y-27756190D02*
X-107619Y-27756190D01*
X892380Y-27327619D02*
X368571Y-27327619D01*
X273333Y-27375238D01*
X225714Y-27470476D01*
X225714Y-27613333D01*
X273333Y-27708571D01*
X320952Y-27756190D01*
X892380Y-26422857D02*
X368571Y-26422857D01*
X273333Y-26470476D01*
X225714Y-26565714D01*
X225714Y-26756190D01*
X273333Y-26851428D01*
X844761Y-26422857D02*
X892380Y-26518095D01*
X892380Y-26756190D01*
X844761Y-26851428D01*
X749523Y-26899047D01*
X654285Y-26899047D01*
X559047Y-26851428D01*
X511428Y-26756190D01*
X511428Y-26518095D01*
X463809Y-26422857D01*
X892380Y-25946666D02*
X225714Y-25946666D01*
X416190Y-25946666D02*
X320952Y-25899047D01*
X273333Y-25851428D01*
X225714Y-25756190D01*
X225714Y-25660952D01*
X225714Y-25327619D02*
X1225714Y-25327619D01*
X273333Y-25327619D02*
X225714Y-25232380D01*
X225714Y-25041904D01*
X273333Y-24946666D01*
X320952Y-24899047D01*
X416190Y-24851428D01*
X701904Y-24851428D01*
X797142Y-24899047D01*
X844761Y-24946666D01*
X892380Y-25041904D01*
X892380Y-25232380D01*
X844761Y-25327619D01*
X892380Y-23232380D02*
X-107619Y-23232380D01*
X844761Y-23232380D02*
X892380Y-23327619D01*
X892380Y-23518095D01*
X844761Y-23613333D01*
X797142Y-23660952D01*
X701904Y-23708571D01*
X416190Y-23708571D01*
X320952Y-23660952D01*
X273333Y-23613333D01*
X225714Y-23518095D01*
X225714Y-23327619D01*
X273333Y-23232380D01*
X892380Y-22756190D02*
X225714Y-22756190D01*
X-107619Y-22756190D02*
X-59999Y-22803809D01*
X-12380Y-22756190D01*
X-59999Y-22708571D01*
X-107619Y-22756190D01*
X-12380Y-22756190D01*
X844761Y-22327619D02*
X892380Y-22232380D01*
X892380Y-22041904D01*
X844761Y-21946666D01*
X749523Y-21899047D01*
X701904Y-21899047D01*
X606666Y-21946666D01*
X559047Y-22041904D01*
X559047Y-22184761D01*
X511428Y-22280000D01*
X416190Y-22327619D01*
X368571Y-22327619D01*
X273333Y-22280000D01*
X225714Y-22184761D01*
X225714Y-22041904D01*
X273333Y-21946666D01*
X225714Y-21470476D02*
X1225714Y-21470476D01*
X273333Y-21470476D02*
X225714Y-21375238D01*
X225714Y-21184761D01*
X273333Y-21089523D01*
X320952Y-21041904D01*
X416190Y-20994285D01*
X701904Y-20994285D01*
X797142Y-21041904D01*
X844761Y-21089523D01*
X892380Y-21184761D01*
X892380Y-21375238D01*
X844761Y-21470476D01*
X892380Y-20422857D02*
X844761Y-20518095D01*
X749523Y-20565714D01*
X-107619Y-20565714D01*
X892380Y-19613333D02*
X368571Y-19613333D01*
X273333Y-19660952D01*
X225714Y-19756190D01*
X225714Y-19946666D01*
X273333Y-20041904D01*
X844761Y-19613333D02*
X892380Y-19708571D01*
X892380Y-19946666D01*
X844761Y-20041904D01*
X749523Y-20089523D01*
X654285Y-20089523D01*
X559047Y-20041904D01*
X511428Y-19946666D01*
X511428Y-19708571D01*
X463809Y-19613333D01*
X225714Y-19232380D02*
X892380Y-18994285D01*
X225714Y-18756190D02*
X892380Y-18994285D01*
X1130476Y-19089523D01*
X1178095Y-19137142D01*
X1225714Y-19232380D01*
X-5647619Y-33748095D02*
X-5647619Y-33129047D01*
X-5266666Y-33462380D01*
X-5266666Y-33319523D01*
X-5219047Y-33224285D01*
X-5171428Y-33176666D01*
X-5076190Y-33129047D01*
X-4838095Y-33129047D01*
X-4742857Y-33176666D01*
X-4695238Y-33224285D01*
X-4647619Y-33319523D01*
X-4647619Y-33605238D01*
X-4695238Y-33700476D01*
X-4742857Y-33748095D01*
X-5647619Y-32843333D02*
X-4647619Y-32510000D01*
X-5647619Y-32176666D01*
X-5647619Y-31938571D02*
X-5647619Y-31319523D01*
X-5266666Y-31652857D01*
X-5266666Y-31510000D01*
X-5219047Y-31414761D01*
X-5171428Y-31367142D01*
X-5076190Y-31319523D01*
X-4838095Y-31319523D01*
X-4742857Y-31367142D01*
X-4695238Y-31414761D01*
X-4647619Y-31510000D01*
X-4647619Y-31795714D01*
X-4695238Y-31890952D01*
X-4742857Y-31938571D01*
X4130000Y-16964285D02*
X4082380Y-17059523D01*
X4082380Y-17202380D01*
X4130000Y-17345238D01*
X4225238Y-17440476D01*
X4320476Y-17488095D01*
X4510952Y-17535714D01*
X4653809Y-17535714D01*
X4844285Y-17488095D01*
X4939523Y-17440476D01*
X5034761Y-17345238D01*
X5082380Y-17202380D01*
X5082380Y-17107142D01*
X5034761Y-16964285D01*
X4987142Y-16916666D01*
X4653809Y-16916666D01*
X4653809Y-17107142D01*
X5082380Y-16488095D02*
X4082380Y-16488095D01*
X4082380Y-16107142D01*
X4130000Y-16011904D01*
X4177619Y-15964285D01*
X4272857Y-15916666D01*
X4415714Y-15916666D01*
X4510952Y-15964285D01*
X4558571Y-16011904D01*
X4606190Y-16107142D01*
X4606190Y-16488095D01*
X5034761Y-15535714D02*
X5082380Y-15392857D01*
X5082380Y-15154761D01*
X5034761Y-15059523D01*
X4987142Y-15011904D01*
X4891904Y-14964285D01*
X4796666Y-14964285D01*
X4701428Y-15011904D01*
X4653809Y-15059523D01*
X4606190Y-15154761D01*
X4558571Y-15345238D01*
X4510952Y-15440476D01*
X4463333Y-15488095D01*
X4368095Y-15535714D01*
X4272857Y-15535714D01*
X4177619Y-15488095D01*
X4130000Y-15440476D01*
X4082380Y-15345238D01*
X4082380Y-15107142D01*
X4130000Y-14964285D01*
X7991428Y-71108095D02*
X7991428Y-72036666D01*
X7929523Y-72222380D01*
X7805714Y-72346190D01*
X7620000Y-72408095D01*
X7496190Y-72408095D01*
X8548571Y-72346190D02*
X8734285Y-72408095D01*
X9043809Y-72408095D01*
X9167619Y-72346190D01*
X9229523Y-72284285D01*
X9291428Y-72160476D01*
X9291428Y-72036666D01*
X9229523Y-71912857D01*
X9167619Y-71850952D01*
X9043809Y-71789047D01*
X8796190Y-71727142D01*
X8672380Y-71665238D01*
X8610476Y-71603333D01*
X8548571Y-71479523D01*
X8548571Y-71355714D01*
X8610476Y-71231904D01*
X8672380Y-71170000D01*
X8796190Y-71108095D01*
X9105714Y-71108095D01*
X9291428Y-71170000D01*
X9662857Y-71108095D02*
X10405714Y-71108095D01*
X10034285Y-72408095D02*
X10034285Y-71108095D01*
X7000952Y-69068095D02*
X7805714Y-69068095D01*
X7372380Y-69563333D01*
X7558095Y-69563333D01*
X7681904Y-69625238D01*
X7743809Y-69687142D01*
X7805714Y-69810952D01*
X7805714Y-70120476D01*
X7743809Y-70244285D01*
X7681904Y-70306190D01*
X7558095Y-70368095D01*
X7186666Y-70368095D01*
X7062857Y-70306190D01*
X7000952Y-70244285D01*
X8362857Y-70244285D02*
X8424761Y-70306190D01*
X8362857Y-70368095D01*
X8300952Y-70306190D01*
X8362857Y-70244285D01*
X8362857Y-70368095D01*
X8858095Y-69068095D02*
X9724761Y-69068095D01*
X9167619Y-70368095D01*
X10034285Y-69068095D02*
X10467619Y-70368095D01*
X10900952Y-69068095D01*
D11*
X15240000Y-62230000D02*
X20320000Y-62230000D01*
X15240000Y-53340000D02*
X15240000Y-62230000D01*
X20320000Y-53340000D02*
X15240000Y-53340000D01*
X11430000Y-72920000D02*
X11430000Y-66675000D01*
X6350000Y-65786000D02*
X6350000Y-73070000D01*
%TO.C,U2*%
X15254280Y-45146920D02*
X15254280Y-46476920D01*
X13924280Y-45146920D02*
X15254280Y-45146920D01*
X12654280Y-45146920D02*
X12654280Y-47806920D01*
X12654280Y-47806920D02*
X-25505720Y-47806920D01*
X-25505720Y-45146920D02*
X-25505720Y-47806920D01*
X3684280Y-65466920D02*
X5014280Y-65466920D01*
X2414280Y-68126920D02*
X-25635720Y-68126920D01*
X2414280Y-65466920D02*
X-25635720Y-65466920D01*
X2414280Y-65466920D02*
X2414280Y-68126920D01*
X5014280Y-65466920D02*
X5014280Y-66796920D01*
X-25635720Y-65466920D02*
X-25635720Y-68126920D01*
X-30525720Y-45146920D02*
X20274280Y-45146920D01*
X-30525720Y-68136920D02*
X20274280Y-68136920D01*
X20274280Y-68136920D02*
X20274280Y-45146920D01*
X-30525720Y-45146920D02*
X-30525720Y-68136920D01*
%TO.C,Q1*%
X10110000Y540000D02*
X-130000Y540000D01*
X10110000Y10030000D02*
X-130000Y10030000D01*
X10110000Y540000D02*
X10110000Y10030000D01*
X-130000Y540000D02*
X-130000Y10030000D01*
X10110000Y16430000D02*
X8910000Y16430000D01*
X7711000Y16430000D02*
X6510000Y16430000D01*
X5310000Y16430000D02*
X4110000Y16430000D01*
X2910000Y16430000D02*
X1710000Y16430000D01*
X510000Y16430000D02*
X-130000Y16430000D01*
X10110000Y10270000D02*
X10110000Y11470000D01*
X10110000Y12670000D02*
X10110000Y13870000D01*
X10110000Y15070000D02*
X10110000Y16270000D01*
X-130000Y10270000D02*
X-130000Y11470000D01*
X-130000Y12670000D02*
X-130000Y13870000D01*
X-130000Y15070000D02*
X-130000Y16270000D01*
X7530000Y-2000000D02*
X7530000Y540000D01*
X4990000Y-2000000D02*
X4990000Y540000D01*
X2450000Y-2000000D02*
X2450000Y540000D01*
%TO.C,J2*%
X-27400000Y-28960000D02*
X-24740000Y-28960000D01*
X-27400000Y-16200000D02*
X-27400000Y-28960000D01*
X-24740000Y-16200000D02*
X-24740000Y-28960000D01*
X-27400000Y-16200000D02*
X-24740000Y-16200000D01*
X-27400000Y-14930000D02*
X-27400000Y-13600000D01*
X-27400000Y-13600000D02*
X-26070000Y-13600000D01*
%TO.C,J1*%
X-20830080Y22790560D02*
X-20830080Y19190560D01*
X-13470080Y22790560D02*
X-13470080Y19190560D01*
X-18950080Y17310560D02*
X-15350080Y17310560D01*
X-18950080Y24670560D02*
X-15350080Y24670560D01*
%TO.C,SW3*%
X14365380Y-8180500D02*
X14135380Y-8180500D01*
X18035380Y-7660500D02*
X18035380Y-15380500D01*
X18035380Y-15380500D02*
X14135380Y-15380500D01*
X11025380Y-7660500D02*
X11025380Y-8180500D01*
X18035380Y-7660500D02*
X14135380Y-7660500D01*
X14365380Y-14860500D02*
X14135380Y-14860500D01*
X11535380Y-8180500D02*
X11025380Y-8180500D01*
X11535380Y-7660500D02*
X11025380Y-7660500D01*
X14365380Y-14320500D02*
X14365380Y-14860500D01*
X11535380Y-14860500D02*
X11025380Y-14860500D01*
X11025380Y-14860500D02*
X11025380Y-15380500D01*
X11535380Y-15380500D02*
X11025380Y-15380500D01*
X14365380Y-8180500D02*
X14365380Y-8720500D01*
X14365380Y-9820500D02*
X14365380Y-13220500D01*
%TO.C,R4*%
X-7607136Y-52321920D02*
X-7607136Y-53011920D01*
X-7607136Y-62941920D02*
X-7607136Y-62251920D01*
X-9327136Y-53011920D02*
X-9327136Y-62251920D01*
X-5887136Y-53011920D02*
X-9327136Y-53011920D01*
X-5887136Y-62251920D02*
X-5887136Y-53011920D01*
X-9327136Y-62251920D02*
X-5887136Y-62251920D01*
%TO.C,U5*%
X-3750000Y-36890000D02*
X-3750000Y-34230000D01*
X-13970000Y-36890000D02*
X-3750000Y-36890000D01*
X-13970000Y-34230000D02*
X-3750000Y-34230000D01*
X-13970000Y-36890000D02*
X-13970000Y-34230000D01*
X-15240000Y-36890000D02*
X-16570000Y-36890000D01*
X-16570000Y-36890000D02*
X-16570000Y-35560000D01*
X-23930000Y-36900000D02*
X-23930000Y-9940000D01*
X3620000Y-36900000D02*
X3620000Y-9940000D01*
X-23930000Y-9940000D02*
X3620000Y-9940000D01*
X-23930000Y-36900000D02*
X3620000Y-36900000D01*
%TO.C,U4*%
X-19050000Y-43240000D02*
X-19050000Y-40580000D01*
X-19050000Y-43240000D02*
X1330000Y-43240000D01*
X1330000Y-43240000D02*
X1330000Y-40580000D01*
X-19050000Y-40580000D02*
X1330000Y-40580000D01*
X-21650000Y-40580000D02*
X-20320000Y-40580000D01*
X-21650000Y-41910000D02*
X-21650000Y-40580000D01*
X1590000Y-38370000D02*
X1590000Y-11520000D01*
X10280000Y-44310000D02*
X10280000Y-5194000D01*
X1590000Y-38370000D02*
X-21910000Y-38370000D01*
X1590000Y-11520000D02*
X-21910000Y-11520000D01*
X-30840000Y-44310000D02*
X-30840000Y-5194000D01*
X10280000Y-44310000D02*
X-30840000Y-44310000D01*
X-30840000Y-5194000D02*
X10280000Y-5194000D01*
X-21910000Y-38370000D02*
X-21910000Y-11520000D01*
%TO.C,U3*%
X-9691060Y-3290880D02*
X-9691060Y-630880D01*
X-22451060Y-3290880D02*
X-9691060Y-3290880D01*
X-22451060Y-630880D02*
X-9691060Y-630880D01*
X-22451060Y-3290880D02*
X-22451060Y-630880D01*
X-23721060Y-3290880D02*
X-25051060Y-3290880D01*
X-25051060Y-3290880D02*
X-25051060Y-1960880D01*
X-4036060Y-4500880D02*
X-17371060Y-4500880D01*
X-30706060Y-4500880D02*
X-17371060Y-4500880D01*
X-30706060Y15819120D02*
X-30706060Y-4500880D01*
X-4036060Y15819120D02*
X-4036060Y-4500880D01*
X-23721060Y-1960880D02*
X-23721060Y-3230880D01*
X-30706060Y15819120D02*
X-4036060Y15819120D01*
D14*
%TO.C,U1*%
X-1709420Y353820D02*
X-17709420Y353820D01*
X-1709420Y12153820D02*
X-1709420Y12553820D01*
X-1709420Y10153820D02*
X-1709420Y10553820D01*
X-1709420Y8153820D02*
X-1709420Y8553820D01*
X-1709420Y6153820D02*
X-1709420Y6553820D01*
X-1709420Y4553820D02*
X-1709420Y4153820D01*
X-1709420Y2553820D02*
X-1709420Y2153820D01*
X-709420Y553820D02*
X-1709420Y553820D01*
X-1709420Y553820D02*
X-1709420Y353820D01*
X-1709420Y14153820D02*
X-1709420Y14553820D01*
X-17709420Y353820D02*
X-17709420Y553820D01*
X-17709420Y2153820D02*
X-17709420Y2553820D01*
X-17709420Y4153820D02*
X-17709420Y4553820D01*
X-17709420Y6153820D02*
X-17709420Y6553820D01*
X-17709420Y8153820D02*
X-17709420Y8553820D01*
X-17709420Y10153820D02*
X-17709420Y10553820D01*
X-17709420Y12153820D02*
X-17709420Y12553820D01*
X-17709420Y14153820D02*
X-17709420Y14553820D01*
X-17709420Y16153820D02*
X-17709420Y16353820D01*
X-17709420Y16353820D02*
X-1709420Y16353820D01*
X-1709420Y16353820D02*
X-1709420Y16153820D01*
D11*
%TO.C,SW4*%
X-19290000Y-73670000D02*
X-19290000Y-70990000D01*
X-13050000Y-70990000D02*
X-13050000Y-73670000D01*
X-13200000Y-75450000D02*
X-19140000Y-75450000D01*
X-13200000Y-69210000D02*
X-19140000Y-69210000D01*
X-14755786Y-72330000D02*
G75*
G03*
X-14755786Y-72330000I-1414214J0D01*
G01*
%TO.C,SW2*%
X14365380Y1776300D02*
X14135380Y1776300D01*
X18035380Y2296300D02*
X18035380Y-5423700D01*
X18035380Y-5423700D02*
X14135380Y-5423700D01*
X11025380Y2296300D02*
X11025380Y1776300D01*
X18035380Y2296300D02*
X14135380Y2296300D01*
X14365380Y-4903700D02*
X14135380Y-4903700D01*
X11535380Y1776300D02*
X11025380Y1776300D01*
X11535380Y2296300D02*
X11025380Y2296300D01*
X14365380Y-4363700D02*
X14365380Y-4903700D01*
X11535380Y-4903700D02*
X11025380Y-4903700D01*
X11025380Y-4903700D02*
X11025380Y-5423700D01*
X11535380Y-5423700D02*
X11025380Y-5423700D01*
X14365380Y1776300D02*
X14365380Y1236300D01*
X14365380Y136300D02*
X14365380Y-3263700D01*
%TO.C,SW1*%
X14240000Y16370000D02*
X14010000Y16370000D01*
X17910000Y16890000D02*
X17910000Y9170000D01*
X17910000Y9170000D02*
X14010000Y9170000D01*
X10900000Y16890000D02*
X10900000Y16370000D01*
X17910000Y16890000D02*
X14010000Y16890000D01*
X14240000Y9690000D02*
X14010000Y9690000D01*
X11410000Y16370000D02*
X10900000Y16370000D01*
X11410000Y16890000D02*
X10900000Y16890000D01*
X14240000Y10230000D02*
X14240000Y9690000D01*
X11410000Y9690000D02*
X10900000Y9690000D01*
X10900000Y9690000D02*
X10900000Y9170000D01*
X11410000Y9170000D02*
X10900000Y9170000D01*
X14240000Y16370000D02*
X14240000Y15830000D01*
X14240000Y14730000D02*
X14240000Y11330000D01*
D15*
%TO.C,SP1*%
X9317360Y18378800D02*
X5117360Y18378800D01*
X5117360Y18378800D02*
X4317360Y19178800D01*
X4317360Y19178800D02*
X4317360Y23378800D01*
X4317360Y23378800D02*
X9317360Y23378800D01*
X9317360Y23378800D02*
X9317360Y18378800D01*
X7417360Y19878800D02*
G75*
G03*
X7417360Y19878800I-500000J0D01*
G01*
D11*
%TO.C,R7*%
X4565268Y-52321920D02*
X4565268Y-53011920D01*
X4565268Y-62941920D02*
X4565268Y-62251920D01*
X2845268Y-53011920D02*
X2845268Y-62251920D01*
X6285268Y-53011920D02*
X2845268Y-53011920D01*
X6285268Y-62251920D02*
X6285268Y-53011920D01*
X2845268Y-62251920D02*
X6285268Y-62251920D01*
%TO.C,R3*%
X-11664604Y-52321920D02*
X-11664604Y-53011920D01*
X-11664604Y-62941920D02*
X-11664604Y-62251920D01*
X-13384604Y-53011920D02*
X-13384604Y-62251920D01*
X-9944604Y-53011920D02*
X-13384604Y-53011920D01*
X-9944604Y-62251920D02*
X-9944604Y-53011920D01*
X-13384604Y-62251920D02*
X-9944604Y-62251920D01*
%TO.C,R6*%
X507800Y-52321920D02*
X507800Y-53011920D01*
X507800Y-62941920D02*
X507800Y-62251920D01*
X-1212200Y-53011920D02*
X-1212200Y-62251920D01*
X2227800Y-53011920D02*
X-1212200Y-53011920D01*
X2227800Y-62251920D02*
X2227800Y-53011920D01*
X-1212200Y-62251920D02*
X2227800Y-62251920D01*
%TO.C,R5*%
X-3549668Y-52321920D02*
X-3549668Y-53011920D01*
X-3549668Y-62941920D02*
X-3549668Y-62251920D01*
X-5269668Y-53011920D02*
X-5269668Y-62251920D01*
X-1829668Y-53011920D02*
X-5269668Y-53011920D01*
X-1829668Y-62251920D02*
X-1829668Y-53011920D01*
X-5269668Y-62251920D02*
X-1829668Y-62251920D01*
%TO.C,R2*%
X-15722072Y-62941920D02*
X-15722072Y-62251920D01*
X-15722072Y-52321920D02*
X-15722072Y-53011920D01*
X-14002072Y-62251920D02*
X-14002072Y-53011920D01*
X-17442072Y-62251920D02*
X-14002072Y-62251920D01*
X-17442072Y-53011920D02*
X-17442072Y-62251920D01*
X-14002072Y-53011920D02*
X-17442072Y-53011920D01*
%TO.C,R1*%
X-19779540Y-62941920D02*
X-19779540Y-62251920D01*
X-19779540Y-52321920D02*
X-19779540Y-53011920D01*
X-18059540Y-62251920D02*
X-18059540Y-53011920D01*
X-21499540Y-62251920D02*
X-18059540Y-62251920D01*
X-21499540Y-53011920D02*
X-21499540Y-62251920D01*
X-18059540Y-53011920D02*
X-21499540Y-53011920D01*
%TO.C,Q3*%
X-25180820Y-35976000D02*
X-25180820Y-32126000D01*
X-25768556Y-31733617D02*
G75*
G02*
X-25180820Y-32126000I-1112264J-2302383D01*
G01*
X-27970333Y-31699537D02*
G75*
G03*
X-29230820Y-32976000I1089513J-2336463D01*
G01*
X-27975606Y-36383775D02*
G75*
G02*
X-29230820Y-35126000I1094786J2347775D01*
G01*
X-25758775Y-36358631D02*
G75*
G03*
X-25180820Y-35976000I-1122045J2322631D01*
G01*
%TO.C,J20*%
X-28975000Y-54140000D02*
X-26475000Y-54140000D01*
X-26475000Y-54140000D02*
X-26475000Y-55190000D01*
X-26475000Y-55190000D02*
X-25485000Y-55190000D01*
X-28975000Y-60360000D02*
X-26475000Y-60360000D01*
X-26475000Y-60360000D02*
X-26475000Y-59310000D01*
X-30945000Y-55310000D02*
X-30945000Y-59190000D01*
%TO.C,J19*%
X-2811780Y-72421440D02*
X-2811780Y-75081440D01*
X-2811780Y-72421440D02*
X-7951780Y-72421440D01*
X-7951780Y-72421440D02*
X-7951780Y-75081440D01*
X-2811780Y-75081440D02*
X-7951780Y-75081440D01*
X-211780Y-75081440D02*
X-1541780Y-75081440D01*
X-211780Y-73751440D02*
X-211780Y-75081440D01*
%TO.C,J16*%
X-15750000Y-6930000D02*
X-15750000Y-5600000D01*
X-15750000Y-5600000D02*
X-14420000Y-5600000D01*
X-13150000Y-5600000D02*
X-5470000Y-5600000D01*
X-5470000Y-8260000D02*
X-5470000Y-5600000D01*
X-13150000Y-8260000D02*
X-5470000Y-8260000D01*
X-13150000Y-8260000D02*
X-13150000Y-5600000D01*
%TO.C,J5*%
X18342300Y-29852620D02*
X21002300Y-29852620D01*
X18342300Y-29852620D02*
X18342300Y-34992620D01*
X18342300Y-34992620D02*
X21002300Y-34992620D01*
X21002300Y-29852620D02*
X21002300Y-34992620D01*
X21002300Y-27252620D02*
X21002300Y-28582620D01*
X19672300Y-27252620D02*
X21002300Y-27252620D01*
%TO.C,D1*%
X12060000Y-53670000D02*
X8120000Y-53670000D01*
X8120000Y-53670000D02*
X8120000Y-62810000D01*
X8120000Y-62810000D02*
X12060000Y-62810000D01*
X12060000Y-62810000D02*
X12060000Y-53670000D01*
X10090000Y-53530000D02*
X10090000Y-53670000D01*
X10090000Y-62950000D02*
X10090000Y-62810000D01*
X12060000Y-55125000D02*
X8120000Y-55125000D01*
X12060000Y-55245000D02*
X8120000Y-55245000D01*
X12060000Y-55005000D02*
X8120000Y-55005000D01*
%TO.C,U2*%
D12*
X15922380Y-47351904D02*
X16731904Y-47351904D01*
X16827142Y-47304285D01*
X16874761Y-47256666D01*
X16922380Y-47161428D01*
X16922380Y-46970952D01*
X16874761Y-46875714D01*
X16827142Y-46828095D01*
X16731904Y-46780476D01*
X15922380Y-46780476D01*
X16017619Y-46351904D02*
X15970000Y-46304285D01*
X15922380Y-46209047D01*
X15922380Y-45970952D01*
X15970000Y-45875714D01*
X16017619Y-45828095D01*
X16112857Y-45780476D01*
X16208095Y-45780476D01*
X16350952Y-45828095D01*
X16922380Y-46399523D01*
X16922380Y-45780476D01*
X16736666Y-49372380D02*
X16403333Y-48896190D01*
X16165238Y-49372380D02*
X16165238Y-48372380D01*
X16546190Y-48372380D01*
X16641428Y-48420000D01*
X16689047Y-48467619D01*
X16736666Y-48562857D01*
X16736666Y-48705714D01*
X16689047Y-48800952D01*
X16641428Y-48848571D01*
X16546190Y-48896190D01*
X16165238Y-48896190D01*
X17165238Y-48848571D02*
X17498571Y-48848571D01*
X17641428Y-49372380D02*
X17165238Y-49372380D01*
X17165238Y-48372380D01*
X17641428Y-48372380D01*
X18403333Y-48848571D02*
X18070000Y-48848571D01*
X18070000Y-49372380D02*
X18070000Y-48372380D01*
X18546190Y-48372380D01*
X19070000Y-48372380D02*
X19070000Y-48610476D01*
X18831904Y-48515238D02*
X19070000Y-48610476D01*
X19308095Y-48515238D01*
X18927142Y-48800952D02*
X19070000Y-48610476D01*
X19212857Y-48800952D01*
X19831904Y-48372380D02*
X19831904Y-48610476D01*
X19593809Y-48515238D02*
X19831904Y-48610476D01*
X20070000Y-48515238D01*
X19689047Y-48800952D02*
X19831904Y-48610476D01*
X19974761Y-48800952D01*
%TO.C,Q1*%
X1554761Y16902380D02*
X1459523Y16950000D01*
X1364285Y17045238D01*
X1221428Y17188095D01*
X1126190Y17235714D01*
X1030952Y17235714D01*
X1078571Y16997619D02*
X983333Y17045238D01*
X888095Y17140476D01*
X840476Y17330952D01*
X840476Y17664285D01*
X888095Y17854761D01*
X983333Y17950000D01*
X1078571Y17997619D01*
X1269047Y17997619D01*
X1364285Y17950000D01*
X1459523Y17854761D01*
X1507142Y17664285D01*
X1507142Y17330952D01*
X1459523Y17140476D01*
X1364285Y17045238D01*
X1269047Y16997619D01*
X1078571Y16997619D01*
X2459523Y16997619D02*
X1888095Y16997619D01*
X2173809Y16997619D02*
X2173809Y17997619D01*
X2078571Y17854761D01*
X1983333Y17759523D01*
X1888095Y17711904D01*
%TO.C,J2*%
X-24370059Y-28717653D02*
X-23655773Y-28717653D01*
X-23512916Y-28765272D01*
X-23417678Y-28860510D01*
X-23370059Y-29003367D01*
X-23370059Y-29098605D01*
X-24274820Y-28289081D02*
X-24322440Y-28241462D01*
X-24370059Y-28146224D01*
X-24370059Y-27908129D01*
X-24322440Y-27812891D01*
X-24274820Y-27765272D01*
X-24179582Y-27717653D01*
X-24084344Y-27717653D01*
X-23941487Y-27765272D01*
X-23370059Y-28336700D01*
X-23370059Y-27717653D01*
%TO.C,J1*%
X-22277619Y20626666D02*
X-21563333Y20626666D01*
X-21420476Y20579047D01*
X-21325238Y20483809D01*
X-21277619Y20340952D01*
X-21277619Y20245714D01*
X-21277619Y21626666D02*
X-21277619Y21055238D01*
X-21277619Y21340952D02*
X-22277619Y21340952D01*
X-22134761Y21245714D01*
X-22039523Y21150476D01*
X-21991904Y21055238D01*
%TO.C,SW3*%
X14060141Y-12853833D02*
X14107760Y-12710976D01*
X14107760Y-12472880D01*
X14060141Y-12377642D01*
X14012522Y-12330023D01*
X13917284Y-12282404D01*
X13822046Y-12282404D01*
X13726808Y-12330023D01*
X13679189Y-12377642D01*
X13631570Y-12472880D01*
X13583951Y-12663357D01*
X13536332Y-12758595D01*
X13488713Y-12806214D01*
X13393475Y-12853833D01*
X13298237Y-12853833D01*
X13202999Y-12806214D01*
X13155380Y-12758595D01*
X13107760Y-12663357D01*
X13107760Y-12425261D01*
X13155380Y-12282404D01*
X13107760Y-11949071D02*
X14107760Y-11710976D01*
X13393475Y-11520500D01*
X14107760Y-11330023D01*
X13107760Y-11091928D01*
X13107760Y-10806214D02*
X13107760Y-10187166D01*
X13488713Y-10520500D01*
X13488713Y-10377642D01*
X13536332Y-10282404D01*
X13583951Y-10234785D01*
X13679189Y-10187166D01*
X13917284Y-10187166D01*
X14012522Y-10234785D01*
X14060141Y-10282404D01*
X14107760Y-10377642D01*
X14107760Y-10663357D01*
X14060141Y-10758595D01*
X14012522Y-10806214D01*
%TO.C,R4*%
X-7626666Y-49852380D02*
X-7960000Y-49376190D01*
X-8198095Y-49852380D02*
X-8198095Y-48852380D01*
X-7817142Y-48852380D01*
X-7721904Y-48900000D01*
X-7674285Y-48947619D01*
X-7626666Y-49042857D01*
X-7626666Y-49185714D01*
X-7674285Y-49280952D01*
X-7721904Y-49328571D01*
X-7817142Y-49376190D01*
X-8198095Y-49376190D01*
X-6769523Y-49185714D02*
X-6769523Y-49852380D01*
X-7007619Y-48804761D02*
X-7245714Y-49519047D01*
X-6626666Y-49519047D01*
%TO.C,U5*%
X-18427619Y-36411904D02*
X-17618095Y-36411904D01*
X-17522857Y-36364285D01*
X-17475238Y-36316666D01*
X-17427619Y-36221428D01*
X-17427619Y-36030952D01*
X-17475238Y-35935714D01*
X-17522857Y-35888095D01*
X-17618095Y-35840476D01*
X-18427619Y-35840476D01*
X-18427619Y-34888095D02*
X-18427619Y-35364285D01*
X-17951428Y-35411904D01*
X-17999047Y-35364285D01*
X-18046666Y-35269047D01*
X-18046666Y-35030952D01*
X-17999047Y-34935714D01*
X-17951428Y-34888095D01*
X-17856190Y-34840476D01*
X-17618095Y-34840476D01*
X-17522857Y-34888095D01*
X-17475238Y-34935714D01*
X-17427619Y-35030952D01*
X-17427619Y-35269047D01*
X-17475238Y-35364285D01*
X-17522857Y-35411904D01*
%TO.C,U4*%
X-23637619Y-42671904D02*
X-22828095Y-42671904D01*
X-22732857Y-42624285D01*
X-22685238Y-42576666D01*
X-22637619Y-42481428D01*
X-22637619Y-42290952D01*
X-22685238Y-42195714D01*
X-22732857Y-42148095D01*
X-22828095Y-42100476D01*
X-23637619Y-42100476D01*
X-23304285Y-41195714D02*
X-22637619Y-41195714D01*
X-23685238Y-41433809D02*
X-22970952Y-41671904D01*
X-22970952Y-41052857D01*
%TO.C,U3*%
X-26797619Y-2771904D02*
X-25988095Y-2771904D01*
X-25892857Y-2724285D01*
X-25845238Y-2676666D01*
X-25797619Y-2581428D01*
X-25797619Y-2390952D01*
X-25845238Y-2295714D01*
X-25892857Y-2248095D01*
X-25988095Y-2200476D01*
X-26797619Y-2200476D01*
X-26797619Y-1819523D02*
X-26797619Y-1200476D01*
X-26416666Y-1533809D01*
X-26416666Y-1390952D01*
X-26369047Y-1295714D01*
X-26321428Y-1248095D01*
X-26226190Y-1200476D01*
X-25988095Y-1200476D01*
X-25892857Y-1248095D01*
X-25845238Y-1295714D01*
X-25797619Y-1390952D01*
X-25797619Y-1676666D01*
X-25845238Y-1771904D01*
X-25892857Y-1819523D01*
%TO.C,U1*%
X-8011904Y15297619D02*
X-8011904Y14488095D01*
X-7964285Y14392857D01*
X-7916666Y14345238D01*
X-7821428Y14297619D01*
X-7630952Y14297619D01*
X-7535714Y14345238D01*
X-7488095Y14392857D01*
X-7440476Y14488095D01*
X-7440476Y15297619D01*
X-6440476Y14297619D02*
X-7011904Y14297619D01*
X-6726190Y14297619D02*
X-6726190Y15297619D01*
X-6821428Y15154761D01*
X-6916666Y15059523D01*
X-7011904Y15011904D01*
%TO.C,SW4*%
X-17373813Y-74969741D02*
X-17230956Y-75017360D01*
X-16992860Y-75017360D01*
X-16897622Y-74969741D01*
X-16850003Y-74922122D01*
X-16802384Y-74826884D01*
X-16802384Y-74731646D01*
X-16850003Y-74636408D01*
X-16897622Y-74588789D01*
X-16992860Y-74541170D01*
X-17183337Y-74493551D01*
X-17278575Y-74445932D01*
X-17326194Y-74398313D01*
X-17373813Y-74303075D01*
X-17373813Y-74207837D01*
X-17326194Y-74112599D01*
X-17278575Y-74064980D01*
X-17183337Y-74017360D01*
X-16945241Y-74017360D01*
X-16802384Y-74064980D01*
X-16469051Y-74017360D02*
X-16230956Y-75017360D01*
X-16040479Y-74303075D01*
X-15850003Y-75017360D01*
X-15611908Y-74017360D01*
X-14802384Y-74350694D02*
X-14802384Y-75017360D01*
X-15040479Y-73969741D02*
X-15278575Y-74684027D01*
X-14659527Y-74684027D01*
%TO.C,SW2*%
X14060141Y-2897033D02*
X14107760Y-2754176D01*
X14107760Y-2516080D01*
X14060141Y-2420842D01*
X14012522Y-2373223D01*
X13917284Y-2325604D01*
X13822046Y-2325604D01*
X13726808Y-2373223D01*
X13679189Y-2420842D01*
X13631570Y-2516080D01*
X13583951Y-2706557D01*
X13536332Y-2801795D01*
X13488713Y-2849414D01*
X13393475Y-2897033D01*
X13298237Y-2897033D01*
X13202999Y-2849414D01*
X13155380Y-2801795D01*
X13107760Y-2706557D01*
X13107760Y-2468461D01*
X13155380Y-2325604D01*
X13107760Y-1992271D02*
X14107760Y-1754176D01*
X13393475Y-1563700D01*
X14107760Y-1373223D01*
X13107760Y-1135128D01*
X13202999Y-801795D02*
X13155380Y-754176D01*
X13107760Y-658938D01*
X13107760Y-420842D01*
X13155380Y-325604D01*
X13202999Y-277985D01*
X13298237Y-230366D01*
X13393475Y-230366D01*
X13536332Y-277985D01*
X14107760Y-849414D01*
X14107760Y-230366D01*
%TO.C,SW1*%
X13934761Y11696666D02*
X13982380Y11839523D01*
X13982380Y12077619D01*
X13934761Y12172857D01*
X13887142Y12220476D01*
X13791904Y12268095D01*
X13696666Y12268095D01*
X13601428Y12220476D01*
X13553809Y12172857D01*
X13506190Y12077619D01*
X13458571Y11887142D01*
X13410952Y11791904D01*
X13363333Y11744285D01*
X13268095Y11696666D01*
X13172857Y11696666D01*
X13077619Y11744285D01*
X13030000Y11791904D01*
X12982380Y11887142D01*
X12982380Y12125238D01*
X13030000Y12268095D01*
X12982380Y12601428D02*
X13982380Y12839523D01*
X13268095Y13030000D01*
X13982380Y13220476D01*
X12982380Y13458571D01*
X13982380Y14363333D02*
X13982380Y13791904D01*
X13982380Y14077619D02*
X12982380Y14077619D01*
X13125238Y13982380D01*
X13220476Y13887142D01*
X13268095Y13791904D01*
%TO.C,SP1*%
X5227380Y23985952D02*
X5408809Y23925476D01*
X5711190Y23925476D01*
X5832142Y23985952D01*
X5892619Y24046428D01*
X5953095Y24167380D01*
X5953095Y24288333D01*
X5892619Y24409285D01*
X5832142Y24469761D01*
X5711190Y24530238D01*
X5469285Y24590714D01*
X5348333Y24651190D01*
X5287857Y24711666D01*
X5227380Y24832619D01*
X5227380Y24953571D01*
X5287857Y25074523D01*
X5348333Y25135000D01*
X5469285Y25195476D01*
X5771666Y25195476D01*
X5953095Y25135000D01*
X6497380Y23925476D02*
X6497380Y25195476D01*
X6981190Y25195476D01*
X7102142Y25135000D01*
X7162619Y25074523D01*
X7223095Y24953571D01*
X7223095Y24772142D01*
X7162619Y24651190D01*
X7102142Y24590714D01*
X6981190Y24530238D01*
X6497380Y24530238D01*
X8432619Y23925476D02*
X7706904Y23925476D01*
X8069761Y23925476D02*
X8069761Y25195476D01*
X7948809Y25014047D01*
X7827857Y24893095D01*
X7706904Y24832619D01*
%TO.C,R7*%
X4163333Y-49852380D02*
X3830000Y-49376190D01*
X3591904Y-49852380D02*
X3591904Y-48852380D01*
X3972857Y-48852380D01*
X4068095Y-48900000D01*
X4115714Y-48947619D01*
X4163333Y-49042857D01*
X4163333Y-49185714D01*
X4115714Y-49280952D01*
X4068095Y-49328571D01*
X3972857Y-49376190D01*
X3591904Y-49376190D01*
X4496666Y-48852380D02*
X5163333Y-48852380D01*
X4734761Y-49852380D01*
%TO.C,R3*%
X-11796666Y-49852380D02*
X-12130000Y-49376190D01*
X-12368095Y-49852380D02*
X-12368095Y-48852380D01*
X-11987142Y-48852380D01*
X-11891904Y-48900000D01*
X-11844285Y-48947619D01*
X-11796666Y-49042857D01*
X-11796666Y-49185714D01*
X-11844285Y-49280952D01*
X-11891904Y-49328571D01*
X-11987142Y-49376190D01*
X-12368095Y-49376190D01*
X-11463333Y-48852380D02*
X-10844285Y-48852380D01*
X-11177619Y-49233333D01*
X-11034761Y-49233333D01*
X-10939523Y-49280952D01*
X-10891904Y-49328571D01*
X-10844285Y-49423809D01*
X-10844285Y-49661904D01*
X-10891904Y-49757142D01*
X-10939523Y-49804761D01*
X-11034761Y-49852380D01*
X-11320476Y-49852380D01*
X-11415714Y-49804761D01*
X-11463333Y-49757142D01*
%TO.C,R6*%
X213333Y-49852380D02*
X-120000Y-49376190D01*
X-358095Y-49852380D02*
X-358095Y-48852380D01*
X22857Y-48852380D01*
X118095Y-48900000D01*
X165714Y-48947619D01*
X213333Y-49042857D01*
X213333Y-49185714D01*
X165714Y-49280952D01*
X118095Y-49328571D01*
X22857Y-49376190D01*
X-358095Y-49376190D01*
X1070476Y-48852380D02*
X879999Y-48852380D01*
X784761Y-48900000D01*
X737142Y-48947619D01*
X641904Y-49090476D01*
X594285Y-49280952D01*
X594285Y-49661904D01*
X641904Y-49757142D01*
X689523Y-49804761D01*
X784761Y-49852380D01*
X975238Y-49852380D01*
X1070476Y-49804761D01*
X1118095Y-49757142D01*
X1165714Y-49661904D01*
X1165714Y-49423809D01*
X1118095Y-49328571D01*
X1070476Y-49280952D01*
X975238Y-49233333D01*
X784761Y-49233333D01*
X689523Y-49280952D01*
X641904Y-49328571D01*
X594285Y-49423809D01*
%TO.C,R5*%
X-3746666Y-49852380D02*
X-4079999Y-49376190D01*
X-4318095Y-49852380D02*
X-4318095Y-48852380D01*
X-3937142Y-48852380D01*
X-3841904Y-48900000D01*
X-3794285Y-48947619D01*
X-3746666Y-49042857D01*
X-3746666Y-49185714D01*
X-3794285Y-49280952D01*
X-3841904Y-49328571D01*
X-3937142Y-49376190D01*
X-4318095Y-49376190D01*
X-2841904Y-48852380D02*
X-3318095Y-48852380D01*
X-3365714Y-49328571D01*
X-3318095Y-49280952D01*
X-3222857Y-49233333D01*
X-2984761Y-49233333D01*
X-2889523Y-49280952D01*
X-2841904Y-49328571D01*
X-2794285Y-49423809D01*
X-2794285Y-49661904D01*
X-2841904Y-49757142D01*
X-2889523Y-49804761D01*
X-2984761Y-49852380D01*
X-3222857Y-49852380D01*
X-3318095Y-49804761D01*
X-3365714Y-49757142D01*
%TO.C,R2*%
X-16096666Y-49852380D02*
X-16430000Y-49376190D01*
X-16668095Y-49852380D02*
X-16668095Y-48852380D01*
X-16287142Y-48852380D01*
X-16191904Y-48900000D01*
X-16144285Y-48947619D01*
X-16096666Y-49042857D01*
X-16096666Y-49185714D01*
X-16144285Y-49280952D01*
X-16191904Y-49328571D01*
X-16287142Y-49376190D01*
X-16668095Y-49376190D01*
X-15715714Y-48947619D02*
X-15668095Y-48900000D01*
X-15572857Y-48852380D01*
X-15334761Y-48852380D01*
X-15239523Y-48900000D01*
X-15191904Y-48947619D01*
X-15144285Y-49042857D01*
X-15144285Y-49138095D01*
X-15191904Y-49280952D01*
X-15763333Y-49852380D01*
X-15144285Y-49852380D01*
%TO.C,R1*%
X-19906666Y-49852380D02*
X-20240000Y-49376190D01*
X-20478095Y-49852380D02*
X-20478095Y-48852380D01*
X-20097142Y-48852380D01*
X-20001904Y-48900000D01*
X-19954285Y-48947619D01*
X-19906666Y-49042857D01*
X-19906666Y-49185714D01*
X-19954285Y-49280952D01*
X-20001904Y-49328571D01*
X-20097142Y-49376190D01*
X-20478095Y-49376190D01*
X-18954285Y-49852380D02*
X-19525714Y-49852380D01*
X-19240000Y-49852380D02*
X-19240000Y-48852380D01*
X-19335238Y-48995238D01*
X-19430476Y-49090476D01*
X-19525714Y-49138095D01*
%TO.C,Q3*%
X-29315238Y-37637619D02*
X-29410476Y-37590000D01*
X-29505714Y-37494761D01*
X-29648571Y-37351904D01*
X-29743809Y-37304285D01*
X-29839047Y-37304285D01*
X-29791428Y-37542380D02*
X-29886666Y-37494761D01*
X-29981904Y-37399523D01*
X-30029523Y-37209047D01*
X-30029523Y-36875714D01*
X-29981904Y-36685238D01*
X-29886666Y-36590000D01*
X-29791428Y-36542380D01*
X-29600952Y-36542380D01*
X-29505714Y-36590000D01*
X-29410476Y-36685238D01*
X-29362857Y-36875714D01*
X-29362857Y-37209047D01*
X-29410476Y-37399523D01*
X-29505714Y-37494761D01*
X-29600952Y-37542380D01*
X-29791428Y-37542380D01*
X-29029523Y-36542380D02*
X-28410476Y-36542380D01*
X-28743809Y-36923333D01*
X-28600952Y-36923333D01*
X-28505714Y-36970952D01*
X-28458095Y-37018571D01*
X-28410476Y-37113809D01*
X-28410476Y-37351904D01*
X-28458095Y-37447142D01*
X-28505714Y-37494761D01*
X-28600952Y-37542380D01*
X-28886666Y-37542380D01*
X-28981904Y-37494761D01*
X-29029523Y-37447142D01*
%TO.C,J20*%
X-28389003Y-61029300D02*
X-28389003Y-61743586D01*
X-28436622Y-61886443D01*
X-28531860Y-61981681D01*
X-28674718Y-62029300D01*
X-28769956Y-62029300D01*
X-27960432Y-61124539D02*
X-27912813Y-61076920D01*
X-27817575Y-61029300D01*
X-27579480Y-61029300D01*
X-27484241Y-61076920D01*
X-27436622Y-61124539D01*
X-27389003Y-61219777D01*
X-27389003Y-61315015D01*
X-27436622Y-61457872D01*
X-28008051Y-62029300D01*
X-27389003Y-62029300D01*
X-26769956Y-61029300D02*
X-26674718Y-61029300D01*
X-26579480Y-61076920D01*
X-26531860Y-61124539D01*
X-26484241Y-61219777D01*
X-26436622Y-61410253D01*
X-26436622Y-61648348D01*
X-26484241Y-61838824D01*
X-26531860Y-61934062D01*
X-26579480Y-61981681D01*
X-26674718Y-62029300D01*
X-26769956Y-62029300D01*
X-26865194Y-61981681D01*
X-26912813Y-61934062D01*
X-26960432Y-61838824D01*
X-27008051Y-61648348D01*
X-27008051Y-61410253D01*
X-26960432Y-61219777D01*
X-26912813Y-61124539D01*
X-26865194Y-61076920D01*
X-26769956Y-61029300D01*
%TO.C,J19*%
X-4619523Y-70892380D02*
X-4619523Y-71606666D01*
X-4667142Y-71749523D01*
X-4762380Y-71844761D01*
X-4905238Y-71892380D01*
X-5000476Y-71892380D01*
X-3619523Y-71892380D02*
X-4190952Y-71892380D01*
X-3905238Y-71892380D02*
X-3905238Y-70892380D01*
X-4000476Y-71035238D01*
X-4095714Y-71130476D01*
X-4190952Y-71178095D01*
X-3143333Y-71892380D02*
X-2952857Y-71892380D01*
X-2857619Y-71844761D01*
X-2810000Y-71797142D01*
X-2714761Y-71654285D01*
X-2667142Y-71463809D01*
X-2667142Y-71082857D01*
X-2714761Y-70987619D01*
X-2762380Y-70940000D01*
X-2857619Y-70892380D01*
X-3048095Y-70892380D01*
X-3143333Y-70940000D01*
X-3190952Y-70987619D01*
X-3238571Y-71082857D01*
X-3238571Y-71320952D01*
X-3190952Y-71416190D01*
X-3143333Y-71463809D01*
X-3048095Y-71511428D01*
X-2857619Y-71511428D01*
X-2762380Y-71463809D01*
X-2714761Y-71416190D01*
X-2667142Y-71320952D01*
%TO.C,J16*%
X-5057619Y-7839523D02*
X-4343333Y-7839523D01*
X-4200476Y-7887142D01*
X-4105238Y-7982380D01*
X-4057619Y-8125238D01*
X-4057619Y-8220476D01*
X-4057619Y-6839523D02*
X-4057619Y-7410952D01*
X-4057619Y-7125238D02*
X-5057619Y-7125238D01*
X-4914761Y-7220476D01*
X-4819523Y-7315714D01*
X-4771904Y-7410952D01*
X-5057619Y-5982380D02*
X-5057619Y-6172857D01*
X-5010000Y-6268095D01*
X-4962380Y-6315714D01*
X-4819523Y-6410952D01*
X-4629047Y-6458571D01*
X-4248095Y-6458571D01*
X-4152857Y-6410952D01*
X-4105238Y-6363333D01*
X-4057619Y-6268095D01*
X-4057619Y-6077619D01*
X-4105238Y-5982380D01*
X-4152857Y-5934761D01*
X-4248095Y-5887142D01*
X-4486190Y-5887142D01*
X-4581428Y-5934761D01*
X-4629047Y-5982380D01*
X-4676666Y-6077619D01*
X-4676666Y-6268095D01*
X-4629047Y-6363333D01*
X-4581428Y-6410952D01*
X-4486190Y-6458571D01*
%TO.C,J5*%
X16892380Y-28783333D02*
X17606666Y-28783333D01*
X17749523Y-28830952D01*
X17844761Y-28926190D01*
X17892380Y-29069047D01*
X17892380Y-29164285D01*
X16892380Y-27830952D02*
X16892380Y-28307142D01*
X17368571Y-28354761D01*
X17320952Y-28307142D01*
X17273333Y-28211904D01*
X17273333Y-27973809D01*
X17320952Y-27878571D01*
X17368571Y-27830952D01*
X17463809Y-27783333D01*
X17701904Y-27783333D01*
X17797142Y-27830952D01*
X17844761Y-27878571D01*
X17892380Y-27973809D01*
X17892380Y-28211904D01*
X17844761Y-28307142D01*
X17797142Y-28354761D01*
%TO.C,D1*%
X9351904Y-49842380D02*
X9351904Y-48842380D01*
X9590000Y-48842380D01*
X9732857Y-48890000D01*
X9828095Y-48985238D01*
X9875714Y-49080476D01*
X9923333Y-49270952D01*
X9923333Y-49413809D01*
X9875714Y-49604285D01*
X9828095Y-49699523D01*
X9732857Y-49794761D01*
X9590000Y-49842380D01*
X9351904Y-49842380D01*
X10875714Y-49842380D02*
X10304285Y-49842380D01*
X10590000Y-49842380D02*
X10590000Y-48842380D01*
X10494761Y-48985238D01*
X10399523Y-49080476D01*
X10304285Y-49128095D01*
X12438095Y-52452380D02*
X12438095Y-51452380D01*
X13009523Y-52452380D02*
X12580952Y-51880952D01*
X13009523Y-51452380D02*
X12438095Y-52023809D01*
%TD*%
M02*
