%TF.GenerationSoftware,KiCad,Pcbnew,5.1.12-84ad8e8a86~92~ubuntu18.04.1*%
%TF.CreationDate,2022-01-05T22:45:31-05:00*%
%TF.ProjectId,remote,72656d6f-7465-42e6-9b69-6361645f7063,rev?*%
%TF.SameCoordinates,Original*%
%TF.FileFunction,Profile,NP*%
%FSLAX46Y46*%
G04 Gerber Fmt 4.6, Leading zero omitted, Abs format (unit mm)*
G04 Created by KiCad (PCBNEW 5.1.12-84ad8e8a86~92~ubuntu18.04.1) date 2022-01-05 22:45:31*
%MOMM*%
%LPD*%
G01*
G04 APERTURE LIST*
%TA.AperFunction,Profile*%
%ADD10C,0.050000*%
%TD*%
G04 APERTURE END LIST*
D10*
X21590000Y22488624D02*
X21590000Y21551744D01*
X21590000Y22490000D02*
X21590000Y22488624D01*
X17988280Y-75870336D02*
X18678624Y-75870336D01*
X6408704Y-73135040D02*
X11386536Y-73135040D01*
X14687408Y-74502688D02*
G75*
G03*
X11386536Y-73135040I-3301795J-3301795D01*
G01*
X14687408Y-74502688D02*
G75*
G03*
X17988280Y-75870336I3301795J3301795D01*
G01*
X3107832Y-74502688D02*
G75*
G02*
X-193040Y-75870336I-3301795J3301795D01*
G01*
X3107832Y-74502688D02*
G75*
G02*
X6408704Y-73135040I3301795J-3301795D01*
G01*
X21590000Y-72958960D02*
X21590000Y-21010880D01*
X20222352Y-17710008D02*
G75*
G02*
X18854704Y-14409136I3301795J3301795D01*
G01*
X20222352Y-17710008D02*
G75*
G02*
X21590000Y-21010880I-3301795J-3301795D01*
G01*
X18854704Y14950000D02*
X18854704Y-14409136D01*
X20222352Y18250872D02*
G75*
G03*
X18854704Y14950000I3301795J-3301795D01*
G01*
X20222352Y18250872D02*
G75*
G03*
X21590000Y21551744I-3301795J3301795D01*
G01*
X-3175937Y18873158D02*
X-6995160Y18873158D01*
X-3175000Y23116540D02*
X-6995160Y23116540D01*
X-6995160Y23116540D02*
G75*
G03*
X-6995160Y18873158I0J-2121691D01*
G01*
X-3175937Y18873158D02*
G75*
G03*
X-3175000Y23116540I937J2121691D01*
G01*
X-31750536Y22488624D02*
X-31750536Y-2743200D01*
X18678624Y25400000D02*
X13366016Y25400000D01*
X18678624Y25400000D02*
G75*
G02*
X21590000Y22490000I0J-2911376D01*
G01*
X13366016Y25400000D02*
X13365480Y36484024D01*
X-28839160Y-75870336D02*
G75*
G02*
X-31750536Y-72958960I0J2911376D01*
G01*
X-193040Y-75870336D02*
X-28839160Y-75870336D01*
X21590000Y-72958960D02*
G75*
G02*
X18678624Y-75870336I-2911376J0D01*
G01*
X10454104Y39395400D02*
G75*
G02*
X13365480Y36484024I0J-2911376D01*
G01*
X-655856Y36484024D02*
G75*
G02*
X2255520Y39395400I2911376J0D01*
G01*
X-31750536Y22488624D02*
G75*
G02*
X-28839160Y25400000I2911376J0D01*
G01*
X-655856Y36484024D02*
X-655320Y25400000D01*
X2255520Y39395400D02*
X10454104Y39395400D01*
X-28839160Y25400000D02*
X-655320Y25400000D01*
X-31750536Y-2743200D02*
X-31750536Y-72958960D01*
M02*
