%TF.GenerationSoftware,KiCad,Pcbnew,5.1.12-84ad8e8a86~92~ubuntu18.04.1*%
%TF.CreationDate,2022-01-08T21:29:22-05:00*%
%TF.ProjectId,remote,72656d6f-7465-42e6-9b69-6361645f7063,rev?*%
%TF.SameCoordinates,Original*%
%TF.FileFunction,Paste,Top*%
%TF.FilePolarity,Positive*%
%FSLAX46Y46*%
G04 Gerber Fmt 4.6, Leading zero omitted, Abs format (unit mm)*
G04 Created by KiCad (PCBNEW 5.1.12-84ad8e8a86~92~ubuntu18.04.1) date 2022-01-08 21:29:22*
%MOMM*%
%LPD*%
G01*
G04 APERTURE LIST*
%ADD10O,1.000000X2.000000*%
G04 APERTURE END LIST*
D10*
%TO.C,U1*%
X31040000Y-119480000D03*
X33040000Y-119480000D03*
X35040000Y-119480000D03*
X37040000Y-119480000D03*
X39040000Y-119480000D03*
X41040000Y-119480000D03*
X43040000Y-119480000D03*
X45040000Y-119480000D03*
X45040000Y-103480000D03*
X43040000Y-103480000D03*
X41040000Y-103480000D03*
X39040000Y-103480000D03*
X37040000Y-103480000D03*
X35040000Y-103480000D03*
X33040000Y-103480000D03*
X31040000Y-103480000D03*
%TD*%
%TO.C,J20*%
G36*
G01*
X34560000Y-152505000D02*
X34560000Y-151255000D01*
G75*
G02*
X34710000Y-151105000I150000J0D01*
G01*
X35010000Y-151105000D01*
G75*
G02*
X35160000Y-151255000I0J-150000D01*
G01*
X35160000Y-152505000D01*
G75*
G02*
X35010000Y-152655000I-150000J0D01*
G01*
X34710000Y-152655000D01*
G75*
G02*
X34560000Y-152505000I0J150000D01*
G01*
G37*
G36*
G01*
X35560000Y-152505000D02*
X35560000Y-151255000D01*
G75*
G02*
X35710000Y-151105000I150000J0D01*
G01*
X36010000Y-151105000D01*
G75*
G02*
X36160000Y-151255000I0J-150000D01*
G01*
X36160000Y-152505000D01*
G75*
G02*
X36010000Y-152655000I-150000J0D01*
G01*
X35710000Y-152655000D01*
G75*
G02*
X35560000Y-152505000I0J150000D01*
G01*
G37*
G36*
G01*
X36560000Y-152505000D02*
X36560000Y-151255000D01*
G75*
G02*
X36710000Y-151105000I150000J0D01*
G01*
X37010000Y-151105000D01*
G75*
G02*
X37160000Y-151255000I0J-150000D01*
G01*
X37160000Y-152505000D01*
G75*
G02*
X37010000Y-152655000I-150000J0D01*
G01*
X36710000Y-152655000D01*
G75*
G02*
X36560000Y-152505000I0J150000D01*
G01*
G37*
G36*
G01*
X37560000Y-152505000D02*
X37560000Y-151255000D01*
G75*
G02*
X37710000Y-151105000I150000J0D01*
G01*
X38010000Y-151105000D01*
G75*
G02*
X38160000Y-151255000I0J-150000D01*
G01*
X38160000Y-152505000D01*
G75*
G02*
X38010000Y-152655000I-150000J0D01*
G01*
X37710000Y-152655000D01*
G75*
G02*
X37560000Y-152505000I0J150000D01*
G01*
G37*
G36*
G01*
X32960000Y-156405001D02*
X32960000Y-155104999D01*
G75*
G02*
X33209999Y-154855000I249999J0D01*
G01*
X33910001Y-154855000D01*
G75*
G02*
X34160000Y-155104999I0J-249999D01*
G01*
X34160000Y-156405001D01*
G75*
G02*
X33910001Y-156655000I-249999J0D01*
G01*
X33209999Y-156655000D01*
G75*
G02*
X32960000Y-156405001I0J249999D01*
G01*
G37*
G36*
G01*
X38560000Y-156405001D02*
X38560000Y-155104999D01*
G75*
G02*
X38809999Y-154855000I249999J0D01*
G01*
X39510001Y-154855000D01*
G75*
G02*
X39760000Y-155104999I0J-249999D01*
G01*
X39760000Y-156405001D01*
G75*
G02*
X39510001Y-156655000I-249999J0D01*
G01*
X38809999Y-156655000D01*
G75*
G02*
X38560000Y-156405001I0J249999D01*
G01*
G37*
%TD*%
M02*
