%TF.GenerationSoftware,KiCad,Pcbnew,5.1.6-c6e7f7d~87~ubuntu18.04.1*%
%TF.CreationDate,2021-12-28T13:40:06-05:00*%
%TF.ProjectId,remote,72656d6f-7465-42e6-9b69-6361645f7063,rev?*%
%TF.SameCoordinates,Original*%
%TF.FileFunction,Profile,NP*%
%FSLAX46Y46*%
G04 Gerber Fmt 4.6, Leading zero omitted, Abs format (unit mm)*
G04 Created by KiCad (PCBNEW 5.1.6-c6e7f7d~87~ubuntu18.04.1) date 2021-12-28 13:40:06*
%MOMM*%
%LPD*%
G01*
G04 APERTURE LIST*
%TA.AperFunction,Profile*%
%ADD10C,0.050000*%
%TD*%
G04 APERTURE END LIST*
D10*
X3020580Y1540580D02*
X48980052Y1540580D01*
X48979736Y-109159948D02*
X46019948Y-109160000D01*
X34000000Y-106140052D02*
X34000000Y-104260000D01*
X43000000Y-104260000D02*
X34000000Y-104260000D01*
X46019948Y-109160000D02*
G75*
G02*
X43000000Y-106139736I316J3020264D01*
G01*
X43000000Y-104260000D02*
X43000000Y-106139736D01*
X34000000Y-106140052D02*
G75*
G02*
X30979736Y-109160000I-3020264J316D01*
G01*
X5320000Y-84870052D02*
X5320000Y-77950000D01*
X5320000Y-84870052D02*
X3028264Y-84870052D01*
X3019948Y-77950000D02*
X5320000Y-77950000D01*
X8000Y-87890000D02*
G75*
G02*
X3028264Y-84870052I3020264J-316D01*
G01*
X3019948Y-77950000D02*
G75*
G02*
X0Y-74929736I316J3020264D01*
G01*
X34763000Y-23371000D02*
G75*
G03*
X34763000Y-23371000I-1500000J0D01*
G01*
X38763000Y-23371000D02*
G75*
G03*
X38763000Y-23371000I-1500000J0D01*
G01*
X21220000Y-292512D02*
G75*
G03*
X21220000Y-4385000I0J-2046244D01*
G01*
X3027948Y-109160264D02*
G75*
G02*
X8000Y-106140000I316J3020264D01*
G01*
X8000Y-106140000D02*
X8000Y-87890000D01*
X48980052Y1540580D02*
G75*
G02*
X52000000Y-1479684I-316J-3020264D01*
G01*
X26763000Y-27461000D02*
G75*
G03*
X26763000Y-27461000I-1500000J0D01*
G01*
X22793000Y-27361000D02*
G75*
G03*
X22793000Y-27361000I-1500000J0D01*
G01*
X18793000Y-27361000D02*
G75*
G03*
X18793000Y-27361000I-1500000J0D01*
G01*
X30763000Y-27461000D02*
G75*
G03*
X30763000Y-27461000I-1500000J0D01*
G01*
X42763000Y-11371000D02*
G75*
G03*
X42763000Y-11371000I-1500000J0D01*
G01*
X10463000Y-11401000D02*
G75*
G03*
X10463000Y-11401000I-1500000J0D01*
G01*
X10463000Y-19401000D02*
G75*
G03*
X10463000Y-19401000I-1500000J0D01*
G01*
X30763000Y-11371000D02*
G75*
G03*
X30763000Y-11371000I-1500000J0D01*
G01*
X26763000Y-11371000D02*
G75*
G03*
X26763000Y-11371000I-1500000J0D01*
G01*
X10463000Y-15401000D02*
G75*
G03*
X10463000Y-15401000I-1500000J0D01*
G01*
X14763000Y-11371000D02*
G75*
G03*
X14763000Y-11371000I-1500000J0D01*
G01*
X18763000Y-11371000D02*
G75*
G03*
X18763000Y-11371000I-1500000J0D01*
G01*
X10493000Y-23391000D02*
G75*
G03*
X10493000Y-23391000I-1500000J0D01*
G01*
X22763000Y-11371000D02*
G75*
G03*
X22763000Y-11371000I-1500000J0D01*
G01*
X38763000Y-11371000D02*
G75*
G03*
X38763000Y-11371000I-1500000J0D01*
G01*
X34763000Y-11371000D02*
G75*
G03*
X34763000Y-11371000I-1500000J0D01*
G01*
X22793000Y-23361000D02*
G75*
G03*
X22793000Y-23361000I-1500000J0D01*
G01*
X14793000Y-23361000D02*
G75*
G03*
X14793000Y-23361000I-1500000J0D01*
G01*
X22763000Y-15371000D02*
G75*
G03*
X22763000Y-15371000I-1500000J0D01*
G01*
X14763000Y-19371000D02*
G75*
G03*
X14763000Y-19371000I-1500000J0D01*
G01*
X30763000Y-19371000D02*
G75*
G03*
X30763000Y-19371000I-1500000J0D01*
G01*
X38763000Y-19371000D02*
G75*
G03*
X38763000Y-19371000I-1500000J0D01*
G01*
X22763000Y-19371000D02*
G75*
G03*
X22763000Y-19371000I-1500000J0D01*
G01*
X26763000Y-19371000D02*
G75*
G03*
X26763000Y-19371000I-1500000J0D01*
G01*
X30763000Y-23371000D02*
G75*
G03*
X30763000Y-23371000I-1500000J0D01*
G01*
X42763000Y-23371000D02*
G75*
G03*
X42763000Y-23371000I-1500000J0D01*
G01*
X34763000Y-19371000D02*
G75*
G03*
X34763000Y-19371000I-1500000J0D01*
G01*
X30763000Y-15371000D02*
G75*
G03*
X30763000Y-15371000I-1500000J0D01*
G01*
X38763000Y-15371000D02*
G75*
G03*
X38763000Y-15371000I-1500000J0D01*
G01*
X42763000Y-19371000D02*
G75*
G03*
X42763000Y-19371000I-1500000J0D01*
G01*
X18763000Y-19371000D02*
G75*
G03*
X18763000Y-19371000I-1500000J0D01*
G01*
X34763000Y-15371000D02*
G75*
G03*
X34763000Y-15371000I-1500000J0D01*
G01*
X26763000Y-15371000D02*
G75*
G03*
X26763000Y-15371000I-1500000J0D01*
G01*
X18763000Y-15371000D02*
G75*
G03*
X18763000Y-15371000I-1500000J0D01*
G01*
X14763000Y-15371000D02*
G75*
G03*
X14763000Y-15371000I-1500000J0D01*
G01*
X26763000Y-23371000D02*
G75*
G03*
X26763000Y-23371000I-1500000J0D01*
G01*
X42763000Y-15371000D02*
G75*
G03*
X42763000Y-15371000I-1500000J0D01*
G01*
X18763000Y-23371000D02*
G75*
G03*
X18763000Y-23371000I-1500000J0D01*
G01*
X52000000Y-1479684D02*
X52000000Y-106140000D01*
X0Y-1480000D02*
X0Y-74929736D01*
X30892000Y-4390000D02*
X21220000Y-4385000D01*
X30892000Y-297512D02*
G75*
G02*
X30892000Y-4390000I0J-2046244D01*
G01*
X21220000Y-292512D02*
X30892000Y-297512D01*
X0Y-1480000D02*
G75*
G02*
X3020580Y1540580I3020580J0D01*
G01*
X52000000Y-106140000D02*
G75*
G02*
X48979736Y-109159948I-3020264J316D01*
G01*
X3027948Y-109160264D02*
X30979736Y-109160000D01*
M02*
