  0
SECTION
  2
HEADER
  9
$ACADVER
  1
AC1014
  9
$HANDSEED
  5
FFFF
  9
$MEASUREMENT
 70
     1
  0
ENDSEC
  0
SECTION
  2
TABLES
  0
TABLE
  2
VPORT
  5
8
330
0
100
AcDbSymbolTable
 70
     4
  0
VPORT
  5
2E
330
8
100
AcDbSymbolTableRecord
100
AcDbViewportTableRecord
  2
*ACTIVE
 70
     0
 10
0.0
 20
0.0
 11
1.0
 21
1.0
 12
210.0
 22
148.5
 13
0.0
 23
0.0
 14
10.0
 24
10.0
 15
10.0
 25
10.0
 16
0.0
 26
0.0
 36
1.0
 17
0.0
 27
0.0
 37
0.0
 40
341.0
 41
1.24
 42
50.0
 43
0.0
 44
0.0
 50
0.0
 51
0.0
 71
     0
 72
   100
 73
     1
 74
     3
 75
     0
 76
     0
 77
     0
 78
     0
  0
ENDTAB
  0
TABLE
  2
LTYPE
  5
5
330
0
100
AcDbSymbolTable
 70
     1
  0
LTYPE
  5
14
330
5
100
AcDbSymbolTableRecord
100
AcDbLinetypeTableRecord
  2
BYBLOCK
 70
     0
  3

 72
    65
 73
     0
 40
0.0
  0
LTYPE
  5
15
330
5
100
AcDbSymbolTableRecord
100
AcDbLinetypeTableRecord
  2
BYLAYER
 70
     0
  3

 72
    65
 73
     0
 40
0.0
  0
LTYPE
  5
16
330
5
100
AcDbSymbolTableRecord
100
AcDbLinetypeTableRecord
  2
CONTINUOUS
 70
     0
  3
Solid line
 72
    65
 73
     0
 40
0.0
  0
ENDTAB
  0
TABLE
  2
LAYER
  5
2
100
AcDbSymbolTable
 70
1
  0
LAYER
  5
50
100
AcDbSymbolTableRecord
100
AcDbLayerTableRecord
  2
0
 70
0
  6
CONTINUOUS
  0
ENDTAB
  0
TABLE
  2
STYLE
  5
3
330
0
100
AcDbSymbolTable
 70
     1
  0
STYLE
  5
11
330
3
100
AcDbSymbolTableRecord
100
AcDbTextStyleTableRecord
  2
STANDARD
 70
     0
 40
0.0
 41
1.0
 50
0.0
 71
     0
 42
2.5
  3
txt
  4

  0
ENDTAB
  0
TABLE
  2
VIEW
  5
6
330
0
100
AcDbSymbolTable
 70
     0
  0
ENDTAB
  0
TABLE
  2
UCS
  5
7
330
0
100
AcDbSymbolTable
 70
     0
  0
ENDTAB
  0
TABLE
  2
APPID
  5
9
330
0
100
AcDbSymbolTable
 70
     2
  0
APPID
  5
12
330
9
100
AcDbSymbolTableRecord
100
AcDbRegAppTableRecord
  2
ACAD
 70
     0
  0
ENDTAB
  0
TABLE
  2
DIMSTYLE
  5
A
330
0
100
AcDbSymbolTable
 70
     1
  0
DIMSTYLE
105
27
330
A
100
AcDbSymbolTableRecord
100
AcDbDimStyleTableRecord
  2
ISO-25
 70
     0
  3

  4

  5

  6

  7

 40
1.0
 41
2.5
 42
0.625
 43
3.75
 44
1.25
 45
0.0
 46
0.0
 47
0.0
 48
0.0
140
2.5
141
2.5
142
0.0
143
0.03937007874016
144
1.0
145
0.0
146
1.0
147
0.625
 71
     0
 72
     0
 73
     0
 74
     0
 75
     0
 76
     0
 77
     1
 78
     8
170
     0
171
     3
172
     1
173
     0
174
     0
175
     0
176
     0
177
     0
178
     0
270
     2
271
     2
272
     2
273
     2
274
     3
340
11
275
     0
280
     0
281
     0
282
     0
283
     0
284
     8
285
     0
286
     0
287
     3
288
     0
  0
ENDTAB
  0
TABLE
  2
BLOCK_RECORD
  5
1
330
0
100
AcDbSymbolTable
 70
     1
  0
BLOCK_RECORD
  5
1F
330
1
100
AcDbSymbolTableRecord
100
AcDbBlockTableRecord
  2
*MODEL_SPACE
  0
BLOCK_RECORD
  5
1B
330
1
100
AcDbSymbolTableRecord
100
AcDbBlockTableRecord
  2
*PAPER_SPACE
  0
ENDTAB
  0
ENDSEC
  0
SECTION
  2
BLOCKS
  0
BLOCK
  5
20
330
1F
100
AcDbEntity
  8
0
100
AcDbBlockBegin
  2
*MODEL_SPACE
 70
     0
 10
0.0
 20
0.0
 30
0.0
  3
*MODEL_SPACE
  1

  0
ENDBLK
  5
21
330
1F
100
AcDbEntity
  8
0
100
AcDbBlockEnd
  0
BLOCK
  5
1C
330
1B
100
AcDbEntity
 67
     1
  8
0
100
AcDbBlockBegin
  2
*PAPER_SPACE
  1

  0
ENDBLK
  5
1D
330
1B
100
AcDbEntity
 67
     1
  8
0
100
AcDbBlockEnd
  0
ENDSEC
  0
SECTION
  2
ENTITIES
  0
SPLINE
  5
100
100
AcDbEntity
  8
0
 62
7
100
AcDbSpline
 70
8
 71
3
 72
8
 73
4
 74
0
 40
0
 40
0
 40
0
 40
0
 40
1
 40
1
 40
1
 40
1
 10
55.531487
 20
-110.185271
 30
0.0
 10
55.531487
 20
-111.149886
 30
0.0
 10
55.016871
 20
-112.041227
 30
0.0
 10
54.181489
 20
-112.523535
 30
0.0
  0
SPLINE
  5
101
100
AcDbEntity
  8
0
 62
7
100
AcDbSpline
 70
8
 71
3
 72
8
 73
4
 74
0
 40
0
 40
0
 40
0
 40
0
 40
1
 40
1
 40
1
 40
1
 10
54.181489
 20
-112.523535
 30
0.0
 10
53.346108
 20
-113.005843
 30
0.0
 10
52.316876
 20
-113.005843
 30
0.0
 10
51.481495
 20
-112.523535
 30
0.0
  0
SPLINE
  5
102
100
AcDbEntity
  8
0
 62
7
100
AcDbSpline
 70
8
 71
3
 72
8
 73
4
 74
0
 40
0
 40
0
 40
0
 40
0
 40
1
 40
1
 40
1
 40
1
 10
51.481495
 20
-112.523535
 30
0.0
 10
50.646113
 20
-112.041227
 30
0.0
 10
50.131497
 20
-111.149886
 30
0.0
 10
50.131497
 20
-110.185271
 30
0.0
  0
SPLINE
  5
103
100
AcDbEntity
  8
0
 62
7
100
AcDbSpline
 70
8
 71
3
 72
8
 73
4
 74
0
 40
0
 40
0
 40
0
 40
0
 40
1
 40
1
 40
1
 40
1
 10
50.131497
 20
-110.185271
 30
0.0
 10
50.131497
 20
-109.220656
 30
0.0
 10
50.646113
 20
-108.329315
 30
0.0
 10
51.481495
 20
-107.847007
 30
0.0
  0
SPLINE
  5
104
100
AcDbEntity
  8
0
 62
7
100
AcDbSpline
 70
8
 71
3
 72
8
 73
4
 74
0
 40
0
 40
0
 40
0
 40
0
 40
1
 40
1
 40
1
 40
1
 10
51.481495
 20
-107.847007
 30
0.0
 10
52.316876
 20
-107.364700
 30
0.0
 10
53.346108
 20
-107.364700
 30
0.0
 10
54.181489
 20
-107.847007
 30
0.0
  0
SPLINE
  5
105
100
AcDbEntity
  8
0
 62
7
100
AcDbSpline
 70
8
 71
3
 72
8
 73
4
 74
0
 40
0
 40
0
 40
0
 40
0
 40
1
 40
1
 40
1
 40
1
 10
54.181489
 20
-107.847007
 30
0.0
 10
55.016871
 20
-108.329315
 30
0.0
 10
55.531487
 20
-109.220656
 30
0.0
 10
55.531487
 20
-110.185271
 30
0.0
  0
SPLINE
  5
106
100
AcDbEntity
  8
0
 62
7
100
AcDbSpline
 70
8
 71
3
 72
8
 73
4
 74
0
 40
0
 40
0
 40
0
 40
0
 40
1
 40
1
 40
1
 40
1
 10
9.584512
 20
-110.185271
 30
0.0
 10
9.584512
 20
-111.149886
 30
0.0
 10
9.069896
 20
-112.041227
 30
0.0
 10
8.234515
 20
-112.523535
 30
0.0
  0
SPLINE
  5
107
100
AcDbEntity
  8
0
 62
7
100
AcDbSpline
 70
8
 71
3
 72
8
 73
4
 74
0
 40
0
 40
0
 40
0
 40
0
 40
1
 40
1
 40
1
 40
1
 10
8.234515
 20
-112.523535
 30
0.0
 10
7.399134
 20
-113.005843
 30
0.0
 10
6.369902
 20
-113.005843
 30
0.0
 10
5.534520
 20
-112.523535
 30
0.0
  0
SPLINE
  5
108
100
AcDbEntity
  8
0
 62
7
100
AcDbSpline
 70
8
 71
3
 72
8
 73
4
 74
0
 40
0
 40
0
 40
0
 40
0
 40
1
 40
1
 40
1
 40
1
 10
5.534520
 20
-112.523535
 30
0.0
 10
4.699139
 20
-112.041227
 30
0.0
 10
4.184523
 20
-111.149886
 30
0.0
 10
4.184523
 20
-110.185271
 30
0.0
  0
SPLINE
  5
109
100
AcDbEntity
  8
0
 62
7
100
AcDbSpline
 70
8
 71
3
 72
8
 73
4
 74
0
 40
0
 40
0
 40
0
 40
0
 40
1
 40
1
 40
1
 40
1
 10
4.184523
 20
-110.185271
 30
0.0
 10
4.184523
 20
-109.220656
 30
0.0
 10
4.699139
 20
-108.329315
 30
0.0
 10
5.534520
 20
-107.847007
 30
0.0
  0
SPLINE
  5
10a
100
AcDbEntity
  8
0
 62
7
100
AcDbSpline
 70
8
 71
3
 72
8
 73
4
 74
0
 40
0
 40
0
 40
0
 40
0
 40
1
 40
1
 40
1
 40
1
 10
5.534520
 20
-107.847007
 30
0.0
 10
6.369902
 20
-107.364700
 30
0.0
 10
7.399134
 20
-107.364700
 30
0.0
 10
8.234515
 20
-107.847007
 30
0.0
  0
SPLINE
  5
10b
100
AcDbEntity
  8
0
 62
7
100
AcDbSpline
 70
8
 71
3
 72
8
 73
4
 74
0
 40
0
 40
0
 40
0
 40
0
 40
1
 40
1
 40
1
 40
1
 10
8.234515
 20
-107.847007
 30
0.0
 10
9.069896
 20
-108.329315
 30
0.0
 10
9.584512
 20
-109.220656
 30
0.0
 10
9.584512
 20
-110.185271
 30
0.0
  0
LWPOLYLINE
  5
10c
100
AcDbEntity
  8
0
 62
7
100
AcDbPolyline
 90
1
 70
1
 10
55.531487
 20
-110.185271
 30
0.0
  0
LWPOLYLINE
  5
10d
100
AcDbEntity
  8
0
 62
7
100
AcDbPolyline
 90
1
 70
1
 10
9.584512
 20
-110.185271
 30
0.0
  0
LWPOLYLINE
  5
10e
100
AcDbEntity
  8
0
 62
7
100
AcDbPolyline
 90
20
 70
0
 10
14.470380
 20
-65.012133
 30
0.0
 10
14.726920
 20
-65.098493
 30
0.0
 10
15.156180
 20
-65.098493
 30
0.0
 10
15.326360
 20
-65.012133
 30
0.0
 10
15.412720
 20
-64.925773
 30
0.0
 10
15.499080
 20
-64.755593
 30
0.0
 10
15.499080
 20
-64.585413
 30
0.0
 10
15.412720
 20
-64.412693
 30
0.0
 10
15.326360
 20
-64.326333
 30
0.0
 10
15.156180
 20
-64.242513
 30
0.0
 10
14.813280
 20
-64.156153
 30
0.0
 10
14.640560
 20
-64.069793
 30
0.0
 10
14.556740
 20
-63.983433
 30
0.0
 10
14.470380
 20
-63.813253
 30
0.0
 10
14.470380
 20
-63.640533
 30
0.0
 10
14.556740
 20
-63.470353
 30
0.0
 10
14.640560
 20
-63.383993
 30
0.0
 10
14.813280
 20
-63.297633
 30
0.0
 10
15.242540
 20
-63.297633
 30
0.0
 10
15.499080
 20
-63.383993
 30
0.0
  0
LWPOLYLINE
  5
10f
100
AcDbEntity
  8
0
 62
7
100
AcDbPolyline
 90
2
 70
0
 10
16.268700
 20
-65.098493
 30
0.0
 10
16.268700
 20
-63.297633
 30
0.0
  0
LWPOLYLINE
  5
110
100
AcDbEntity
  8
0
 62
7
100
AcDbPolyline
 90
2
 70
0
 10
16.268700
 20
-64.156153
 30
0.0
 10
17.297400
 20
-64.156153
 30
0.0
  0
LWPOLYLINE
  5
111
100
AcDbEntity
  8
0
 62
7
100
AcDbPolyline
 90
2
 70
0
 10
17.297400
 20
-65.098493
 30
0.0
 10
17.297400
 20
-63.297633
 30
0.0
  0
LWPOLYLINE
  5
112
100
AcDbEntity
  8
0
 62
7
100
AcDbPolyline
 90
2
 70
0
 10
18.069560
 20
-64.585413
 30
0.0
 10
18.928080
 20
-64.585413
 30
0.0
  0
LWPOLYLINE
  5
113
100
AcDbEntity
  8
0
 62
7
100
AcDbPolyline
 90
3
 70
0
 10
17.899380
 20
-65.098493
 30
0.0
 10
18.498820
 20
-63.297633
 30
0.0
 10
19.098260
 20
-65.098493
 30
0.0
  0
LWPOLYLINE
  5
114
100
AcDbEntity
  8
0
 62
7
100
AcDbPolyline
 90
2
 70
0
 10
20.726400
 20
-65.098493
 30
0.0
 10
20.126960
 20
-64.242513
 30
0.0
  0
LWPOLYLINE
  5
115
100
AcDbEntity
  8
0
 62
7
100
AcDbPolyline
 90
11
 70
0
 10
19.697700
 20
-65.098493
 30
0.0
 10
19.697700
 20
-63.297633
 30
0.0
 10
20.383500
 20
-63.297633
 30
0.0
 10
20.556220
 20
-63.383993
 30
0.0
 10
20.640040
 20
-63.470353
 30
0.0
 10
20.726400
 20
-63.640533
 30
0.0
 10
20.726400
 20
-63.899613
 30
0.0
 10
20.640040
 20
-64.069793
 30
0.0
 10
20.556220
 20
-64.156153
 30
0.0
 10
20.383500
 20
-64.242513
 30
0.0
 10
19.697700
 20
-64.242513
 30
0.0
  0
LWPOLYLINE
  5
116
100
AcDbEntity
  8
0
 62
7
100
AcDbPolyline
 90
11
 70
0
 10
21.498560
 20
-65.098493
 30
0.0
 10
21.498560
 20
-63.297633
 30
0.0
 10
22.184360
 20
-63.297633
 30
0.0
 10
22.354540
 20
-63.383993
 30
0.0
 10
22.440900
 20
-63.470353
 30
0.0
 10
22.527260
 20
-63.640533
 30
0.0
 10
22.527260
 20
-63.899613
 30
0.0
 10
22.440900
 20
-64.069793
 30
0.0
 10
22.354540
 20
-64.156153
 30
0.0
 10
22.184360
 20
-64.242513
 30
0.0
 10
21.498560
 20
-64.242513
 30
0.0
  0
LWPOLYLINE
  5
117
100
AcDbEntity
  8
0
 62
7
100
AcDbPolyline
 90
12
 70
1
 10
24.671020
 20
-65.098493
 30
0.0
 10
24.671020
 20
-63.297633
 30
0.0
 10
25.097740
 20
-63.297633
 30
0.0
 10
25.356820
 20
-63.383993
 30
0.0
 10
25.527000
 20
-63.556713
 30
0.0
 10
25.613360
 20
-63.726893
 30
0.0
 10
25.697180
 20
-64.069793
 30
0.0
 10
25.697180
 20
-64.326333
 30
0.0
 10
25.613360
 20
-64.669233
 30
0.0
 10
25.527000
 20
-64.841953
 30
0.0
 10
25.356820
 20
-65.012133
 30
0.0
 10
25.097740
 20
-65.098493
 30
0.0
  0
LWPOLYLINE
  5
118
100
AcDbEntity
  8
0
 62
7
100
AcDbPolyline
 90
2
 70
0
 10
26.469340
 20
-65.098493
 30
0.0
 10
26.469340
 20
-63.297633
 30
0.0
  0
LWPOLYLINE
  5
119
100
AcDbEntity
  8
0
 62
7
100
AcDbPolyline
 90
20
 70
0
 10
27.241500
 20
-65.012133
 30
0.0
 10
27.498040
 20
-65.098493
 30
0.0
 10
27.927300
 20
-65.098493
 30
0.0
 10
28.097480
 20
-65.012133
 30
0.0
 10
28.183840
 20
-64.925773
 30
0.0
 10
28.270200
 20
-64.755593
 30
0.0
 10
28.270200
 20
-64.585413
 30
0.0
 10
28.183840
 20
-64.412693
 30
0.0
 10
28.097480
 20
-64.326333
 30
0.0
 10
27.927300
 20
-64.242513
 30
0.0
 10
27.584400
 20
-64.156153
 30
0.0
 10
27.411680
 20
-64.069793
 30
0.0
 10
27.327860
 20
-63.983433
 30
0.0
 10
27.241500
 20
-63.813253
 30
0.0
 10
27.241500
 20
-63.640533
 30
0.0
 10
27.327860
 20
-63.470353
 30
0.0
 10
27.411680
 20
-63.383993
 30
0.0
 10
27.584400
 20
-63.297633
 30
0.0
 10
28.013660
 20
-63.297633
 30
0.0
 10
28.270200
 20
-63.383993
 30
0.0
  0
LWPOLYLINE
  5
11a
100
AcDbEntity
  8
0
 62
7
100
AcDbPolyline
 90
11
 70
0
 10
29.042360
 20
-65.098493
 30
0.0
 10
29.042360
 20
-63.297633
 30
0.0
 10
29.728160
 20
-63.297633
 30
0.0
 10
29.898340
 20
-63.383993
 30
0.0
 10
29.984700
 20
-63.470353
 30
0.0
 10
30.071060
 20
-63.640533
 30
0.0
 10
30.071060
 20
-63.899613
 30
0.0
 10
29.984700
 20
-64.069793
 30
0.0
 10
29.898340
 20
-64.156153
 30
0.0
 10
29.728160
 20
-64.242513
 30
0.0
 10
29.042360
 20
-64.242513
 30
0.0
  0
LWPOLYLINE
  5
11b
100
AcDbEntity
  8
0
 62
7
100
AcDbPolyline
 90
3
 70
0
 10
31.699200
 20
-65.098493
 30
0.0
 10
30.840680
 20
-65.098493
 30
0.0
 10
30.840680
 20
-63.297633
 30
0.0
  0
LWPOLYLINE
  5
11c
100
AcDbEntity
  8
0
 62
7
100
AcDbPolyline
 90
2
 70
0
 10
32.212280
 20
-64.585413
 30
0.0
 10
33.070800
 20
-64.585413
 30
0.0
  0
LWPOLYLINE
  5
11d
100
AcDbEntity
  8
0
 62
7
100
AcDbPolyline
 90
3
 70
0
 10
32.042100
 20
-65.098493
 30
0.0
 10
32.641540
 20
-63.297633
 30
0.0
 10
33.240980
 20
-65.098493
 30
0.0
  0
LWPOLYLINE
  5
11e
100
AcDbEntity
  8
0
 62
7
100
AcDbPolyline
 90
2
 70
0
 10
34.183320
 20
-64.242513
 30
0.0
 10
34.183320
 20
-65.098493
 30
0.0
  0
SPLINE
  5
11f
100
AcDbEntity
  8
0
 62
7
100
AcDbSpline
 70
8
 71
3
 72
8
 73
4
 74
0
 40
0
 40
0
 40
0
 40
0
 40
1
 40
1
 40
1
 40
1
 10
9.584512
 20
-16.426607
 30
0.0
 10
9.584512
 20
-17.391222
 30
0.0
 10
9.069896
 20
-18.282563
 30
0.0
 10
8.234515
 20
-18.764871
 30
0.0
  0
SPLINE
  5
120
100
AcDbEntity
  8
0
 62
7
100
AcDbSpline
 70
8
 71
3
 72
8
 73
4
 74
0
 40
0
 40
0
 40
0
 40
0
 40
1
 40
1
 40
1
 40
1
 10
8.234515
 20
-18.764871
 30
0.0
 10
7.399134
 20
-19.247178
 30
0.0
 10
6.369902
 20
-19.247178
 30
0.0
 10
5.534520
 20
-18.764871
 30
0.0
  0
SPLINE
  5
121
100
AcDbEntity
  8
0
 62
7
100
AcDbSpline
 70
8
 71
3
 72
8
 73
4
 74
0
 40
0
 40
0
 40
0
 40
0
 40
1
 40
1
 40
1
 40
1
 10
5.534520
 20
-18.764871
 30
0.0
 10
4.699139
 20
-18.282563
 30
0.0
 10
4.184523
 20
-17.391222
 30
0.0
 10
4.184523
 20
-16.426607
 30
0.0
  0
SPLINE
  5
122
100
AcDbEntity
  8
0
 62
7
100
AcDbSpline
 70
8
 71
3
 72
8
 73
4
 74
0
 40
0
 40
0
 40
0
 40
0
 40
1
 40
1
 40
1
 40
1
 10
4.184523
 20
-16.426607
 30
0.0
 10
4.184523
 20
-15.461992
 30
0.0
 10
4.699139
 20
-14.570650
 30
0.0
 10
5.534520
 20
-14.088343
 30
0.0
  0
SPLINE
  5
123
100
AcDbEntity
  8
0
 62
7
100
AcDbSpline
 70
8
 71
3
 72
8
 73
4
 74
0
 40
0
 40
0
 40
0
 40
0
 40
1
 40
1
 40
1
 40
1
 10
5.534520
 20
-14.088343
 30
0.0
 10
6.369902
 20
-13.606035
 30
0.0
 10
7.399134
 20
-13.606035
 30
0.0
 10
8.234515
 20
-14.088343
 30
0.0
  0
SPLINE
  5
124
100
AcDbEntity
  8
0
 62
7
100
AcDbSpline
 70
8
 71
3
 72
8
 73
4
 74
0
 40
0
 40
0
 40
0
 40
0
 40
1
 40
1
 40
1
 40
1
 10
8.234515
 20
-14.088343
 30
0.0
 10
9.069896
 20
-14.570650
 30
0.0
 10
9.584512
 20
-15.461992
 30
0.0
 10
9.584512
 20
-16.426607
 30
0.0
  0
LWPOLYLINE
  5
125
100
AcDbEntity
  8
0
 62
7
100
AcDbPolyline
 90
3
 70
0
 10
33.583880
 20
-63.297633
 30
0.0
 10
34.183320
 20
-64.242513
 30
0.0
 10
34.785300
 20
-63.297633
 30
0.0
  0
SPLINE
  5
126
100
AcDbEntity
  8
0
 62
7
100
AcDbSpline
 70
8
 71
3
 72
8
 73
4
 74
0
 40
0
 40
0
 40
0
 40
0
 40
1
 40
1
 40
1
 40
1
 10
55.531487
 20
-16.426607
 30
0.0
 10
55.531487
 20
-17.391222
 30
0.0
 10
55.016871
 20
-18.282563
 30
0.0
 10
54.181489
 20
-18.764871
 30
0.0
  0
SPLINE
  5
127
100
AcDbEntity
  8
0
 62
7
100
AcDbSpline
 70
8
 71
3
 72
8
 73
4
 74
0
 40
0
 40
0
 40
0
 40
0
 40
1
 40
1
 40
1
 40
1
 10
54.181489
 20
-18.764871
 30
0.0
 10
53.346108
 20
-19.247178
 30
0.0
 10
52.316876
 20
-19.247178
 30
0.0
 10
51.481495
 20
-18.764871
 30
0.0
  0
SPLINE
  5
128
100
AcDbEntity
  8
0
 62
7
100
AcDbSpline
 70
8
 71
3
 72
8
 73
4
 74
0
 40
0
 40
0
 40
0
 40
0
 40
1
 40
1
 40
1
 40
1
 10
51.481495
 20
-18.764871
 30
0.0
 10
50.646113
 20
-18.282563
 30
0.0
 10
50.131497
 20
-17.391222
 30
0.0
 10
50.131497
 20
-16.426607
 30
0.0
  0
SPLINE
  5
129
100
AcDbEntity
  8
0
 62
7
100
AcDbSpline
 70
8
 71
3
 72
8
 73
4
 74
0
 40
0
 40
0
 40
0
 40
0
 40
1
 40
1
 40
1
 40
1
 10
50.131497
 20
-16.426607
 30
0.0
 10
50.131497
 20
-15.461992
 30
0.0
 10
50.646113
 20
-14.570650
 30
0.0
 10
51.481495
 20
-14.088343
 30
0.0
  0
SPLINE
  5
12a
100
AcDbEntity
  8
0
 62
7
100
AcDbSpline
 70
8
 71
3
 72
8
 73
4
 74
0
 40
0
 40
0
 40
0
 40
0
 40
1
 40
1
 40
1
 40
1
 10
51.481495
 20
-14.088343
 30
0.0
 10
52.316876
 20
-13.606035
 30
0.0
 10
53.346108
 20
-13.606035
 30
0.0
 10
54.181489
 20
-14.088343
 30
0.0
  0
SPLINE
  5
12b
100
AcDbEntity
  8
0
 62
7
100
AcDbSpline
 70
8
 71
3
 72
8
 73
4
 74
0
 40
0
 40
0
 40
0
 40
0
 40
1
 40
1
 40
1
 40
1
 10
54.181489
 20
-14.088343
 30
0.0
 10
55.016871
 20
-14.570650
 30
0.0
 10
55.531487
 20
-15.461992
 30
0.0
 10
55.531487
 20
-16.426607
 30
0.0
  0
LWPOLYLINE
  5
12c
100
AcDbEntity
  8
0
 62
7
100
AcDbPolyline
 90
1
 70
1
 10
9.584512
 20
-16.426607
 30
0.0
  0
SPLINE
  5
12d
100
AcDbEntity
  8
0
 62
7
100
AcDbSpline
 70
8
 71
3
 72
8
 73
4
 74
0
 40
0
 40
0
 40
0
 40
0
 40
1
 40
1
 40
1
 40
1
 10
44.567577
 20
-46.670539
 30
0.0
 10
44.567577
 20
-47.635154
 30
0.0
 10
44.052961
 20
-48.526495
 30
0.0
 10
43.217579
 20
-49.008803
 30
0.0
  0
SPLINE
  5
12e
100
AcDbEntity
  8
0
 62
7
100
AcDbSpline
 70
8
 71
3
 72
8
 73
4
 74
0
 40
0
 40
0
 40
0
 40
0
 40
1
 40
1
 40
1
 40
1
 10
43.217579
 20
-49.008803
 30
0.0
 10
42.382198
 20
-49.491111
 30
0.0
 10
41.352966
 20
-49.491111
 30
0.0
 10
40.517585
 20
-49.008803
 30
0.0
  0
SPLINE
  5
12f
100
AcDbEntity
  8
0
 62
7
100
AcDbSpline
 70
8
 71
3
 72
8
 73
4
 74
0
 40
0
 40
0
 40
0
 40
0
 40
1
 40
1
 40
1
 40
1
 10
40.517585
 20
-49.008803
 30
0.0
 10
39.682203
 20
-48.526495
 30
0.0
 10
39.167587
 20
-47.635154
 30
0.0
 10
39.167587
 20
-46.670539
 30
0.0
  0
SPLINE
  5
130
100
AcDbEntity
  8
0
 62
7
100
AcDbSpline
 70
8
 71
3
 72
8
 73
4
 74
0
 40
0
 40
0
 40
0
 40
0
 40
1
 40
1
 40
1
 40
1
 10
39.167587
 20
-46.670539
 30
0.0
 10
39.167587
 20
-45.705924
 30
0.0
 10
39.682203
 20
-44.814583
 30
0.0
 10
40.517585
 20
-44.332275
 30
0.0
  0
SPLINE
  5
131
100
AcDbEntity
  8
0
 62
7
100
AcDbSpline
 70
8
 71
3
 72
8
 73
4
 74
0
 40
0
 40
0
 40
0
 40
0
 40
1
 40
1
 40
1
 40
1
 10
40.517585
 20
-44.332275
 30
0.0
 10
41.352966
 20
-43.849968
 30
0.0
 10
42.382198
 20
-43.849968
 30
0.0
 10
43.217579
 20
-44.332275
 30
0.0
  0
SPLINE
  5
132
100
AcDbEntity
  8
0
 62
7
100
AcDbSpline
 70
8
 71
3
 72
8
 73
4
 74
0
 40
0
 40
0
 40
0
 40
0
 40
1
 40
1
 40
1
 40
1
 10
43.217579
 20
-44.332275
 30
0.0
 10
44.052961
 20
-44.814583
 30
0.0
 10
44.567577
 20
-45.705924
 30
0.0
 10
44.567577
 20
-46.670539
 30
0.0
  0
LWPOLYLINE
  5
133
100
AcDbEntity
  8
0
 62
7
100
AcDbPolyline
 90
1
 70
1
 10
55.531487
 20
-16.426607
 30
0.0
  0
SPLINE
  5
134
100
AcDbEntity
  8
0
 62
7
100
AcDbSpline
 70
8
 71
3
 72
8
 73
4
 74
0
 40
0
 40
0
 40
0
 40
0
 40
1
 40
1
 40
1
 40
1
 10
10.547553
 20
-46.670539
 30
0.0
 10
10.547553
 20
-47.635154
 30
0.0
 10
10.032937
 20
-48.526495
 30
0.0
 10
9.197556
 20
-49.008803
 30
0.0
  0
SPLINE
  5
135
100
AcDbEntity
  8
0
 62
7
100
AcDbSpline
 70
8
 71
3
 72
8
 73
4
 74
0
 40
0
 40
0
 40
0
 40
0
 40
1
 40
1
 40
1
 40
1
 10
9.197556
 20
-49.008803
 30
0.0
 10
8.362175
 20
-49.491111
 30
0.0
 10
7.332943
 20
-49.491111
 30
0.0
 10
6.497561
 20
-49.008803
 30
0.0
  0
SPLINE
  5
136
100
AcDbEntity
  8
0
 62
7
100
AcDbSpline
 70
8
 71
3
 72
8
 73
4
 74
0
 40
0
 40
0
 40
0
 40
0
 40
1
 40
1
 40
1
 40
1
 10
6.497561
 20
-49.008803
 30
0.0
 10
5.662180
 20
-48.526495
 30
0.0
 10
5.147564
 20
-47.635154
 30
0.0
 10
5.147564
 20
-46.670539
 30
0.0
  0
SPLINE
  5
137
100
AcDbEntity
  8
0
 62
7
100
AcDbSpline
 70
8
 71
3
 72
8
 73
4
 74
0
 40
0
 40
0
 40
0
 40
0
 40
1
 40
1
 40
1
 40
1
 10
5.147564
 20
-46.670539
 30
0.0
 10
5.147564
 20
-45.705924
 30
0.0
 10
5.662180
 20
-44.814583
 30
0.0
 10
6.497561
 20
-44.332275
 30
0.0
  0
SPLINE
  5
138
100
AcDbEntity
  8
0
 62
7
100
AcDbSpline
 70
8
 71
3
 72
8
 73
4
 74
0
 40
0
 40
0
 40
0
 40
0
 40
1
 40
1
 40
1
 40
1
 10
6.497561
 20
-44.332275
 30
0.0
 10
7.332943
 20
-43.849968
 30
0.0
 10
8.362175
 20
-43.849968
 30
0.0
 10
9.197556
 20
-44.332275
 30
0.0
  0
SPLINE
  5
139
100
AcDbEntity
  8
0
 62
7
100
AcDbSpline
 70
8
 71
3
 72
8
 73
4
 74
0
 40
0
 40
0
 40
0
 40
0
 40
1
 40
1
 40
1
 40
1
 10
9.197556
 20
-44.332275
 30
0.0
 10
10.032937
 20
-44.814583
 30
0.0
 10
10.547553
 20
-45.705924
 30
0.0
 10
10.547553
 20
-46.670539
 30
0.0
  0
LWPOLYLINE
  5
13a
100
AcDbEntity
  8
0
 62
7
100
AcDbPolyline
 90
1
 70
1
 10
44.567577
 20
-46.670539
 30
0.0
  0
SPLINE
  5
13b
100
AcDbEntity
  8
0
 62
7
100
AcDbSpline
 70
8
 71
3
 72
8
 73
4
 74
0
 40
0
 40
0
 40
0
 40
0
 40
1
 40
1
 40
1
 40
1
 10
10.547553
 20
-79.690539
 30
0.0
 10
10.547553
 20
-80.655154
 30
0.0
 10
10.032937
 20
-81.546495
 30
0.0
 10
9.197556
 20
-82.028803
 30
0.0
  0
SPLINE
  5
13c
100
AcDbEntity
  8
0
 62
7
100
AcDbSpline
 70
8
 71
3
 72
8
 73
4
 74
0
 40
0
 40
0
 40
0
 40
0
 40
1
 40
1
 40
1
 40
1
 10
9.197556
 20
-82.028803
 30
0.0
 10
8.362175
 20
-82.511111
 30
0.0
 10
7.332943
 20
-82.511111
 30
0.0
 10
6.497561
 20
-82.028803
 30
0.0
  0
SPLINE
  5
13d
100
AcDbEntity
  8
0
 62
7
100
AcDbSpline
 70
8
 71
3
 72
8
 73
4
 74
0
 40
0
 40
0
 40
0
 40
0
 40
1
 40
1
 40
1
 40
1
 10
6.497561
 20
-82.028803
 30
0.0
 10
5.662180
 20
-81.546495
 30
0.0
 10
5.147564
 20
-80.655154
 30
0.0
 10
5.147564
 20
-79.690539
 30
0.0
  0
SPLINE
  5
13e
100
AcDbEntity
  8
0
 62
7
100
AcDbSpline
 70
8
 71
3
 72
8
 73
4
 74
0
 40
0
 40
0
 40
0
 40
0
 40
1
 40
1
 40
1
 40
1
 10
5.147564
 20
-79.690539
 30
0.0
 10
5.147564
 20
-78.725924
 30
0.0
 10
5.662180
 20
-77.834583
 30
0.0
 10
6.497561
 20
-77.352275
 30
0.0
  0
SPLINE
  5
13f
100
AcDbEntity
  8
0
 62
7
100
AcDbSpline
 70
8
 71
3
 72
8
 73
4
 74
0
 40
0
 40
0
 40
0
 40
0
 40
1
 40
1
 40
1
 40
1
 10
6.497561
 20
-77.352275
 30
0.0
 10
7.332943
 20
-76.869968
 30
0.0
 10
8.362175
 20
-76.869968
 30
0.0
 10
9.197556
 20
-77.352275
 30
0.0
  0
SPLINE
  5
140
100
AcDbEntity
  8
0
 62
7
100
AcDbSpline
 70
8
 71
3
 72
8
 73
4
 74
0
 40
0
 40
0
 40
0
 40
0
 40
1
 40
1
 40
1
 40
1
 10
9.197556
 20
-77.352275
 30
0.0
 10
10.032937
 20
-77.834583
 30
0.0
 10
10.547553
 20
-78.725924
 30
0.0
 10
10.547553
 20
-79.690539
 30
0.0
  0
LWPOLYLINE
  5
141
100
AcDbEntity
  8
0
 62
7
100
AcDbPolyline
 90
1
 70
1
 10
10.547553
 20
-46.670539
 30
0.0
  0
SPLINE
  5
142
100
AcDbEntity
  8
0
 62
7
100
AcDbSpline
 70
8
 71
3
 72
8
 73
4
 74
0
 40
0
 40
0
 40
0
 40
0
 40
1
 40
1
 40
1
 40
1
 10
44.567577
 20
-79.690539
 30
0.0
 10
44.567577
 20
-80.655154
 30
0.0
 10
44.052961
 20
-81.546495
 30
0.0
 10
43.217579
 20
-82.028803
 30
0.0
  0
SPLINE
  5
143
100
AcDbEntity
  8
0
 62
7
100
AcDbSpline
 70
8
 71
3
 72
8
 73
4
 74
0
 40
0
 40
0
 40
0
 40
0
 40
1
 40
1
 40
1
 40
1
 10
43.217579
 20
-82.028803
 30
0.0
 10
42.382198
 20
-82.511111
 30
0.0
 10
41.352966
 20
-82.511111
 30
0.0
 10
40.517585
 20
-82.028803
 30
0.0
  0
SPLINE
  5
144
100
AcDbEntity
  8
0
 62
7
100
AcDbSpline
 70
8
 71
3
 72
8
 73
4
 74
0
 40
0
 40
0
 40
0
 40
0
 40
1
 40
1
 40
1
 40
1
 10
40.517585
 20
-82.028803
 30
0.0
 10
39.682203
 20
-81.546495
 30
0.0
 10
39.167587
 20
-80.655154
 30
0.0
 10
39.167587
 20
-79.690539
 30
0.0
  0
SPLINE
  5
145
100
AcDbEntity
  8
0
 62
7
100
AcDbSpline
 70
8
 71
3
 72
8
 73
4
 74
0
 40
0
 40
0
 40
0
 40
0
 40
1
 40
1
 40
1
 40
1
 10
39.167587
 20
-79.690539
 30
0.0
 10
39.167587
 20
-78.725924
 30
0.0
 10
39.682203
 20
-77.834583
 30
0.0
 10
40.517585
 20
-77.352275
 30
0.0
  0
SPLINE
  5
146
100
AcDbEntity
  8
0
 62
7
100
AcDbSpline
 70
8
 71
3
 72
8
 73
4
 74
0
 40
0
 40
0
 40
0
 40
0
 40
1
 40
1
 40
1
 40
1
 10
40.517585
 20
-77.352275
 30
0.0
 10
41.352966
 20
-76.869968
 30
0.0
 10
42.382198
 20
-76.869968
 30
0.0
 10
43.217579
 20
-77.352275
 30
0.0
  0
SPLINE
  5
147
100
AcDbEntity
  8
0
 62
7
100
AcDbSpline
 70
8
 71
3
 72
8
 73
4
 74
0
 40
0
 40
0
 40
0
 40
0
 40
1
 40
1
 40
1
 40
1
 10
43.217579
 20
-77.352275
 30
0.0
 10
44.052961
 20
-77.834583
 30
0.0
 10
44.567577
 20
-78.725924
 30
0.0
 10
44.567577
 20
-79.690539
 30
0.0
  0
LWPOLYLINE
  5
148
100
AcDbEntity
  8
0
 62
7
100
AcDbPolyline
 90
1
 70
1
 10
10.547553
 20
-79.690539
 30
0.0
  0
LWPOLYLINE
  5
149
100
AcDbEntity
  8
0
 62
7
100
AcDbPolyline
 90
1
 70
1
 10
44.567577
 20
-79.690539
 30
0.0
  0
LWPOLYLINE
  5
14a
100
AcDbEntity
  8
0
 62
7
100
AcDbPolyline
 90
2
 70
0
 10
49.016920
 20
-80.460413
 30
0.0
 10
48.465740
 20
-79.960033
 30
0.0
  0
SPLINE
  5
14b
100
AcDbEntity
  8
0
 62
7
100
AcDbSpline
 70
8
 71
3
 72
8
 73
4
 74
0
 40
0
 40
0
 40
0
 40
0
 40
1
 40
1
 40
1
 40
1
 10
50.235284
 20
-79.892723
 30
0.0
 10
50.235284
 20
-80.869033
 30
0.0
 10
49.443828
 20
-81.660489
 30
0.0
 10
48.467518
 20
-81.660489
 30
0.0
  0
SPLINE
  5
14c
100
AcDbEntity
  8
0
 62
7
100
AcDbSpline
 70
8
 71
3
 72
8
 73
4
 74
0
 40
0
 40
0
 40
0
 40
0
 40
1
 40
1
 40
1
 40
1
 10
48.467518
 20
-81.660489
 30
0.0
 10
47.491208
 20
-81.660489
 30
0.0
 10
46.699752
 20
-80.869033
 30
0.0
 10
46.699752
 20
-79.892723
 30
0.0
  0
SPLINE
  5
14d
100
AcDbEntity
  8
0
 62
7
100
AcDbSpline
 70
8
 71
3
 72
8
 73
4
 74
0
 40
0
 40
0
 40
0
 40
0
 40
1
 40
1
 40
1
 40
1
 10
46.699752
 20
-79.892723
 30
0.0
 10
46.699752
 20
-78.916413
 30
0.0
 10
47.491208
 20
-78.124957
 30
0.0
 10
48.467518
 20
-78.124957
 30
0.0
  0
SPLINE
  5
14e
100
AcDbEntity
  8
0
 62
7
100
AcDbSpline
 70
8
 71
3
 72
8
 73
4
 74
0
 40
0
 40
0
 40
0
 40
0
 40
1
 40
1
 40
1
 40
1
 10
48.467518
 20
-78.124957
 30
0.0
 10
49.443828
 20
-78.124957
 30
0.0
 10
50.235284
 20
-78.916413
 30
0.0
 10
50.235284
 20
-79.892723
 30
0.0
  0
LWPOLYLINE
  5
14f
100
AcDbEntity
  8
0
 62
7
100
AcDbPolyline
 90
2
 70
0
 10
48.016160
 20
-80.460413
 30
0.0
 10
48.465740
 20
-79.960033
 30
0.0
  0
LWPOLYLINE
  5
150
100
AcDbEntity
  8
0
 62
7
100
AcDbPolyline
 90
1
 70
1
 10
50.235284
 20
-79.892723
 30
0.0
  0
LWPOLYLINE
  5
151
100
AcDbEntity
  8
0
 62
7
100
AcDbPolyline
 90
3
 70
0
 10
47.945040
 20
-63.251913
 30
0.0
 10
48.945800
 20
-62.893773
 30
0.0
 10
47.945040
 20
-62.538173
 30
0.0
  0
LWPOLYLINE
  5
152
100
AcDbEntity
  8
0
 62
7
100
AcDbPolyline
 90
20
 70
1
 10
47.444660
 20
-61.679653
 30
0.0
 10
47.444660
 20
-61.537413
 30
0.0
 10
47.515780
 20
-61.395173
 30
0.0
 10
47.586900
 20
-61.324053
 30
0.0
 10
47.731680
 20
-61.252933
 30
0.0
 10
48.016160
 20
-61.181813
 30
0.0
 10
48.374300
 20
-61.181813
 30
0.0
 10
48.658780
 20
-61.252933
 30
0.0
 10
48.801020
 20
-61.324053
 30
0.0
 10
48.874680
 20
-61.395173
 30
0.0
 10
48.945800
 20
-61.537413
 30
0.0
 10
48.945800
 20
-61.679653
 30
0.0
 10
48.874680
 20
-61.824433
 30
0.0
 10
48.801020
 20
-61.895553
 30
0.0
 10
48.658780
 20
-61.966673
 30
0.0
 10
48.374300
 20
-62.037793
 30
0.0
 10
48.016160
 20
-62.037793
 30
0.0
 10
47.731680
 20
-61.966673
 30
0.0
 10
47.586900
 20
-61.895553
 30
0.0
 10
47.515780
 20
-61.824433
 30
0.0
  0
LWPOLYLINE
  5
153
100
AcDbEntity
  8
0
 62
7
100
AcDbPolyline
 90
6
 70
0
 10
48.801020
 20
-60.536653
 30
0.0
 10
48.874680
 20
-60.465533
 30
0.0
 10
48.945800
 20
-60.536653
 30
0.0
 10
48.874680
 20
-60.610313
 30
0.0
 10
48.801020
 20
-60.536653
 30
0.0
 10
48.945800
 20
-60.536653
 30
0.0
  0
LWPOLYLINE
  5
154
100
AcDbEntity
  8
0
 62
7
100
AcDbPolyline
 90
2
 70
0
 10
48.945800
 20
-59.038053
 30
0.0
 10
48.945800
 20
-59.894033
 30
0.0
  0
LWPOLYLINE
  5
155
100
AcDbEntity
  8
0
 62
7
100
AcDbPolyline
 90
5
 70
0
 10
48.945800
 20
-59.467313
 30
0.0
 10
47.444660
 20
-59.467313
 30
0.0
 10
47.658020
 20
-59.609553
 30
0.0
 10
47.802800
 20
-59.751793
 30
0.0
 10
47.873920
 20
-59.894033
 30
0.0
  0
LWPOLYLINE
  5
156
100
AcDbEntity
  8
0
 62
7
100
AcDbPolyline
 90
2
 70
0
 10
47.467520
 20
-79.960033
 30
0.0
 10
48.465740
 20
-78.959273
 30
0.0
  0
LWPOLYLINE
  5
157
100
AcDbEntity
  8
0
 62
7
100
AcDbPolyline
 90
2
 70
0
 10
49.466500
 20
-79.858433
 30
0.0
 10
48.465740
 20
-78.959273
 30
0.0
  0
LWPOLYLINE
  5
158
100
AcDbEntity
  8
0
 62
7
100
AcDbPolyline
 90
2
 70
0
 10
47.980600
 20
-76.919653
 30
0.0
 10
47.980600
 20
-75.967153
 30
0.0
  0
LWPOLYLINE
  5
159
100
AcDbEntity
  8
0
 62
7
100
AcDbPolyline
 90
5
 70
0
 10
47.147480
 20
-76.561513
 30
0.0
 10
49.291240
 20
-76.561513
 30
0.0
 10
49.527460
 20
-76.442133
 30
0.0
 10
49.646840
 20
-76.203373
 30
0.0
 10
49.646840
 20
-75.967153
 30
0.0
  0
LWPOLYLINE
  5
15a
100
AcDbEntity
  8
0
 62
7
100
AcDbPolyline
 90
2
 70
0
 10
49.646840
 20
-75.134033
 30
0.0
 10
47.980600
 20
-75.134033
 30
0.0
  0
LWPOLYLINE
  5
15b
100
AcDbEntity
  8
0
 62
7
100
AcDbPolyline
 90
5
 70
0
 10
48.455580
 20
-75.134033
 30
0.0
 10
48.219360
 20
-75.014653
 30
0.0
 10
48.099980
 20
-74.895273
 30
0.0
 10
47.980600
 20
-74.656513
 30
0.0
 10
47.980600
 20
-74.417753
 30
0.0
  0
LWPOLYLINE
  5
15c
100
AcDbEntity
  8
0
 62
7
100
AcDbPolyline
 90
6
 70
0
 10
49.646840
 20
-72.512753
 30
0.0
 10
48.338740
 20
-72.512753
 30
0.0
 10
48.099980
 20
-72.632133
 30
0.0
 10
47.980600
 20
-72.870893
 30
0.0
 10
47.980600
 20
-73.348413
 30
0.0
 10
48.099980
 20
-73.584633
 30
0.0
  0
LWPOLYLINE
  5
15d
100
AcDbEntity
  8
0
 62
7
100
AcDbPolyline
 90
10
 70
0
 10
49.527460
 20
-72.512753
 30
0.0
 10
49.646840
 20
-72.751513
 30
0.0
 10
49.646840
 20
-73.348413
 30
0.0
 10
49.527460
 20
-73.584633
 30
0.0
 10
49.291240
 20
-73.704013
 30
0.0
 10
49.052480
 20
-73.704013
 30
0.0
 10
48.813720
 20
-73.584633
 30
0.0
 10
48.694340
 20
-73.348413
 30
0.0
 10
48.694340
 20
-72.751513
 30
0.0
 10
48.574960
 20
-72.512753
 30
0.0
  0
LWPOLYLINE
  5
15e
100
AcDbEntity
  8
0
 62
7
100
AcDbPolyline
 90
12
 70
0
 10
49.527460
 20
-70.252153
 30
0.0
 10
49.646840
 20
-70.490913
 30
0.0
 10
49.646840
 20
-70.965893
 30
0.0
 10
49.527460
 20
-71.204653
 30
0.0
 10
49.408080
 20
-71.324033
 30
0.0
 10
49.171860
 20
-71.443413
 30
0.0
 10
48.455580
 20
-71.443413
 30
0.0
 10
48.219360
 20
-71.324033
 30
0.0
 10
48.099980
 20
-71.204653
 30
0.0
 10
47.980600
 20
-70.965893
 30
0.0
 10
47.980600
 20
-70.490913
 30
0.0
 10
48.099980
 20
-70.252153
 30
0.0
  0
LWPOLYLINE
  5
15f
100
AcDbEntity
  8
0
 62
7
100
AcDbPolyline
 90
2
 70
0
 10
49.646840
 20
-69.180273
 30
0.0
 10
47.147480
 20
-69.180273
 30
0.0
  0
LWPOLYLINE
  5
160
100
AcDbEntity
  8
0
 62
7
100
AcDbPolyline
 90
2
 70
0
 10
48.694340
 20
-68.941513
 30
0.0
 10
49.646840
 20
-68.227773
 30
0.0
  0
LWPOLYLINE
  5
161
100
AcDbEntity
  8
0
 62
7
100
AcDbPolyline
 90
2
 70
0
 10
47.980600
 20
-68.227773
 30
0.0
 10
48.933100
 20
-69.180273
 30
0.0
  0
LWPOLYLINE
  5
162
100
AcDbEntity
  8
0
 62
7
100
AcDbPolyline
 90
13
 70
0
 10
49.527460
 20
-66.203393
 30
0.0
 10
49.646840
 20
-66.442153
 30
0.0
 10
49.646840
 20
-66.919673
 30
0.0
 10
49.527460
 20
-67.155893
 30
0.0
 10
49.291240
 20
-67.275273
 30
0.0
 10
48.338740
 20
-67.275273
 30
0.0
 10
48.099980
 20
-67.155893
 30
0.0
 10
47.980600
 20
-66.919673
 30
0.0
 10
47.980600
 20
-66.442153
 30
0.0
 10
48.099980
 20
-66.203393
 30
0.0
 10
48.338740
 20
-66.086553
 30
0.0
 10
48.574960
 20
-66.086553
 30
0.0
 10
48.813720
 20
-67.275273
 30
0.0
  0
LWPOLYLINE
  5
163
100
AcDbEntity
  8
0
 62
7
100
AcDbPolyline
 90
2
 70
0
 10
49.646840
 20
-65.014673
 30
0.0
 10
47.980600
 20
-65.014673
 30
0.0
  0
LWPOLYLINE
  5
164
100
AcDbEntity
  8
0
 62
7
100
AcDbPolyline
 90
5
 70
0
 10
48.455580
 20
-65.014673
 30
0.0
 10
48.219360
 20
-64.895293
 30
0.0
 10
48.099980
 20
-64.775913
 30
0.0
 10
47.980600
 20
-64.537153
 30
0.0
 10
47.980600
 20
-64.298393
 30
0.0
  0
LWPOLYLINE
  5
165
100
AcDbEntity
  8
0
 62
7
100
AcDbPolyline
 90
2
 70
0
 10
5.717540
 20
-30.104913
 30
0.0
 10
4.719320
 20
-30.104913
 30
0.0
  0
LWPOLYLINE
  5
166
100
AcDbEntity
  8
0
 62
7
100
AcDbPolyline
 90
5
 70
0
 10
5.717540
 20
-29.627393
 30
0.0
 10
4.719320
 20
-29.627393
 30
0.0
 10
5.433060
 20
-29.294653
 30
0.0
 10
4.719320
 20
-28.961913
 30
0.0
 10
5.717540
 20
-28.961913
 30
0.0
  0
LWPOLYLINE
  5
167
100
AcDbEntity
  8
0
 62
7
100
AcDbPolyline
 90
10
 70
0
 10
4.719320
 20
-28.484393
 30
0.0
 10
5.527040
 20
-28.484393
 30
0.0
 10
5.623560
 20
-28.438673
 30
0.0
 10
5.671820
 20
-28.390413
 30
0.0
 10
5.717540
 20
-28.293893
 30
0.0
 10
5.717540
 20
-28.103393
 30
0.0
 10
5.671820
 20
-28.009413
 30
0.0
 10
5.623560
 20
-27.961153
 30
0.0
 10
5.527040
 20
-27.912893
 30
0.0
 10
4.719320
 20
-27.912893
 30
0.0
  0
LWPOLYLINE
  5
168
100
AcDbEntity
  8
0
 62
7
100
AcDbPolyline
 90
20
 70
0
 10
49.392840
 20
-18.431073
 30
0.0
 10
49.463960
 20
-18.215173
 30
0.0
 10
49.463960
 20
-17.859573
 30
0.0
 10
49.392840
 20
-17.717333
 30
0.0
 10
49.321720
 20
-17.643673
 30
0.0
 10
49.179480
 20
-17.572553
 30
0.0
 10
49.037240
 20
-17.572553
 30
0.0
 10
48.892460
 20
-17.643673
 30
0.0
 10
48.821340
 20
-17.717333
 30
0.0
 10
48.750220
 20
-17.859573
 30
0.0
 10
48.679100
 20
-18.144053
 30
0.0
 10
48.607980
 20
-18.288833
 30
0.0
 10
48.536860
 20
-18.359953
 30
0.0
 10
48.394620
 20
-18.431073
 30
0.0
 10
48.249840
 20
-18.431073
 30
0.0
 10
48.107600
 20
-18.359953
 30
0.0
 10
48.036480
 20
-18.288833
 30
0.0
 10
47.965360
 20
-18.144053
 30
0.0
 10
47.965360
 20
-17.788453
 30
0.0
 10
48.036480
 20
-17.572553
 30
0.0
  0
LWPOLYLINE
  5
169
100
AcDbEntity
  8
0
 62
7
100
AcDbPolyline
 90
12
 70
1
 10
49.463960
 20
-16.929933
 30
0.0
 10
47.965360
 20
-16.929933
 30
0.0
 10
47.965360
 20
-16.574333
 30
0.0
 10
48.036480
 20
-16.358433
 30
0.0
 10
48.178720
 20
-16.216193
 30
0.0
 10
48.320960
 20
-16.145073
 30
0.0
 10
48.607980
 20
-16.073953
 30
0.0
 10
48.821340
 20
-16.073953
 30
0.0
 10
49.108360
 20
-16.145073
 30
0.0
 10
49.250600
 20
-16.216193
 30
0.0
 10
49.392840
 20
-16.358433
 30
0.0
 10
49.463960
 20
-16.574333
 30
0.0
  0
LWPOLYLINE
  5
16a
100
AcDbEntity
  8
0
 62
7
100
AcDbPolyline
 90
2
 70
0
 10
49.037240
 20
-15.502453
 30
0.0
 10
49.037240
 20
-14.788713
 30
0.0
  0
LWPOLYLINE
  5
16b
100
AcDbEntity
  8
0
 62
7
100
AcDbPolyline
 90
3
 70
0
 10
49.463960
 20
-15.644693
 30
0.0
 10
47.965360
 20
-15.144313
 30
0.0
 10
49.463960
 20
-14.643933
 30
0.0
  0
LWPOLYLINE
  5
16c
100
AcDbEntity
  8
0
 62
7
100
AcDbPolyline
 90
17
 70
0
 10
9.966960
 20
-112.172313
 30
0.0
 10
9.895840
 20
-112.314553
 30
0.0
 10
9.895840
 20
-112.530453
 30
0.0
 10
9.966960
 20
-112.743813
 30
0.0
 10
10.109200
 20
-112.886053
 30
0.0
 10
10.251440
 20
-112.957173
 30
0.0
 10
10.538460
 20
-113.028293
 30
0.0
 10
10.751820
 20
-113.028293
 30
0.0
 10
11.038840
 20
-112.957173
 30
0.0
 10
11.181080
 20
-112.886053
 30
0.0
 10
11.323320
 20
-112.743813
 30
0.0
 10
11.394440
 20
-112.530453
 30
0.0
 10
11.394440
 20
-112.385673
 30
0.0
 10
11.323320
 20
-112.172313
 30
0.0
 10
11.252200
 20
-112.101193
 30
0.0
 10
10.751820
 20
-112.101193
 30
0.0
 10
10.751820
 20
-112.385673
 30
0.0
  0
LWPOLYLINE
  5
16d
100
AcDbEntity
  8
0
 62
7
100
AcDbPolyline
 90
4
 70
0
 10
11.394440
 20
-111.458573
 30
0.0
 10
9.895840
 20
-111.458573
 30
0.0
 10
11.394440
 20
-110.600053
 30
0.0
 10
9.895840
 20
-110.600053
 30
0.0
  0
LWPOLYLINE
  5
16e
100
AcDbEntity
  8
0
 62
7
100
AcDbPolyline
 90
12
 70
1
 10
11.394440
 20
-109.886313
 30
0.0
 10
9.895840
 20
-109.886313
 30
0.0
 10
9.895840
 20
-109.528173
 30
0.0
 10
9.966960
 20
-109.314813
 30
0.0
 10
10.109200
 20
-109.172573
 30
0.0
 10
10.251440
 20
-109.101453
 30
0.0
 10
10.538460
 20
-109.030333
 30
0.0
 10
10.751820
 20
-109.030333
 30
0.0
 10
11.038840
 20
-109.101453
 30
0.0
 10
11.181080
 20
-109.172573
 30
0.0
 10
11.323320
 20
-109.314813
 30
0.0
 10
11.394440
 20
-109.528173
 30
0.0
  0
LWPOLYLINE
  5
16f
100
AcDbEntity
  8
0
 62
7
100
AcDbPolyline
 90
14
 70
0
 10
48.023780
 20
-111.202033
 30
0.0
 10
48.023780
 20
-110.272393
 30
0.0
 10
48.595280
 20
-110.772773
 30
0.0
 10
48.595280
 20
-110.559413
 30
0.0
 10
48.668940
 20
-110.417173
 30
0.0
 10
48.740060
 20
-110.346053
 30
0.0
 10
48.882300
 20
-110.272393
 30
0.0
 10
49.237900
 20
-110.272393
 30
0.0
 10
49.382680
 20
-110.346053
 30
0.0
 10
49.453800
 20
-110.417173
 30
0.0
 10
49.524920
 20
-110.559413
 30
0.0
 10
49.524920
 20
-110.988673
 30
0.0
 10
49.453800
 20
-111.130913
 30
0.0
 10
49.382680
 20
-111.202033
 30
0.0
  0
LWPOLYLINE
  5
170
100
AcDbEntity
  8
0
 62
7
100
AcDbPolyline
 90
3
 70
0
 10
48.023780
 20
-109.845673
 30
0.0
 10
49.524920
 20
-109.345293
 30
0.0
 10
48.023780
 20
-108.844913
 30
0.0
  0
LWPOLYLINE
  5
171
100
AcDbEntity
  8
0
 62
7
100
AcDbPolyline
 90
20
 70
0
 10
10.279380
 20
-15.004613
 30
0.0
 10
10.208260
 20
-15.217973
 30
0.0
 10
10.208260
 20
-15.576113
 30
0.0
 10
10.279380
 20
-15.718353
 30
0.0
 10
10.350500
 20
-15.789473
 30
0.0
 10
10.492740
 20
-15.860593
 30
0.0
 10
10.637520
 20
-15.860593
 30
0.0
 10
10.779760
 20
-15.789473
 30
0.0
 10
10.850880
 20
-15.718353
 30
0.0
 10
10.922000
 20
-15.576113
 30
0.0
 10
10.993120
 20
-15.289093
 30
0.0
 10
11.064240
 20
-15.146853
 30
0.0
 10
11.135360
 20
-15.075733
 30
0.0
 10
11.280140
 20
-15.004613
 30
0.0
 10
11.422380
 20
-15.004613
 30
0.0
 10
11.564620
 20
-15.075733
 30
0.0
 10
11.635740
 20
-15.146853
 30
0.0
 10
11.706860
 20
-15.289093
 30
0.0
 10
11.706860
 20
-15.647233
 30
0.0
 10
11.635740
 20
-15.860593
 30
0.0
  0
LWPOLYLINE
  5
172
100
AcDbEntity
  8
0
 62
7
100
AcDbPolyline
 90
16
 70
0
 10
10.350500
 20
-17.361733
 30
0.0
 10
10.279380
 20
-17.288073
 30
0.0
 10
10.208260
 20
-17.074713
 30
0.0
 10
10.208260
 20
-16.932473
 30
0.0
 10
10.279380
 20
-16.716573
 30
0.0
 10
10.421620
 20
-16.574333
 30
0.0
 10
10.563860
 20
-16.503213
 30
0.0
 10
10.850880
 20
-16.432093
 30
0.0
 10
11.064240
 20
-16.432093
 30
0.0
 10
11.351260
 20
-16.503213
 30
0.0
 10
11.493500
 20
-16.574333
 30
0.0
 10
11.635740
 20
-16.716573
 30
0.0
 10
11.706860
 20
-16.932473
 30
0.0
 10
11.706860
 20
-17.074713
 30
0.0
 10
11.635740
 20
-17.288073
 30
0.0
 10
11.564620
 20
-17.361733
 30
0.0
  0
LWPOLYLINE
  5
173
100
AcDbEntity
  8
0
 62
7
100
AcDbPolyline
 90
3
 70
0
 10
10.208260
 20
-18.718093
 30
0.0
 10
10.208260
 20
-18.004353
 30
0.0
 10
11.706860
 20
-18.004353
 30
0.0
  0
LWPOLYLINE
  5
174
100
AcDbEntity
  8
0
 62
7
100
AcDbPolyline
 90
11
 70
0
 10
36.873180
 20
-113.310233
 30
0.0
 10
35.575240
 20
-113.310233
 30
0.0
 10
35.575240
 20
-112.814933
 30
0.0
 10
35.636200
 20
-112.690473
 30
0.0
 10
35.697160
 20
-112.629513
 30
0.0
 10
35.821620
 20
-112.568553
 30
0.0
 10
36.007040
 20
-112.568553
 30
0.0
 10
36.131500
 20
-112.629513
 30
0.0
 10
36.192460
 20
-112.690473
 30
0.0
 10
36.255960
 20
-112.814933
 30
0.0
 10
36.255960
 20
-113.310233
 30
0.0
  0
LWPOLYLINE
  5
175
100
AcDbEntity
  8
0
 62
7
100
AcDbPolyline
 90
2
 70
0
 10
36.873180
 20
-111.268073
 30
0.0
 10
36.255960
 20
-111.699873
 30
0.0
  0
LWPOLYLINE
  5
176
100
AcDbEntity
  8
0
 62
7
100
AcDbPolyline
 90
11
 70
0
 10
36.873180
 20
-112.009753
 30
0.0
 10
35.575240
 20
-112.009753
 30
0.0
 10
35.575240
 20
-111.514453
 30
0.0
 10
35.636200
 20
-111.392533
 30
0.0
 10
35.697160
 20
-111.329033
 30
0.0
 10
35.821620
 20
-111.268073
 30
0.0
 10
36.007040
 20
-111.268073
 30
0.0
 10
36.131500
 20
-111.329033
 30
0.0
 10
36.192460
 20
-111.392533
 30
0.0
 10
36.255960
 20
-111.514453
 30
0.0
 10
36.255960
 20
-112.009753
 30
0.0
  0
LWPOLYLINE
  5
177
100
AcDbEntity
  8
0
 62
7
100
AcDbPolyline
 90
16
 70
1
 10
35.575240
 20
-110.462893
 30
0.0
 10
35.575240
 20
-110.216513
 30
0.0
 10
35.636200
 20
-110.092053
 30
0.0
 10
35.760660
 20
-109.967593
 30
0.0
 10
36.007040
 20
-109.906633
 30
0.0
 10
36.441380
 20
-109.906633
 30
0.0
 10
36.687760
 20
-109.967593
 30
0.0
 10
36.812220
 20
-110.092053
 30
0.0
 10
36.873180
 20
-110.216513
 30
0.0
 10
36.873180
 20
-110.462893
 30
0.0
 10
36.812220
 20
-110.587353
 30
0.0
 10
36.687760
 20
-110.711813
 30
0.0
 10
36.441380
 20
-110.772773
 30
0.0
 10
36.007040
 20
-110.772773
 30
0.0
 10
35.760660
 20
-110.711813
 30
0.0
 10
35.636200
 20
-110.587353
 30
0.0
  0
LWPOLYLINE
  5
178
100
AcDbEntity
  8
0
 62
7
100
AcDbPolyline
 90
17
 70
0
 10
35.636200
 20
-108.667113
 30
0.0
 10
35.575240
 20
-108.791573
 30
0.0
 10
35.575240
 20
-108.976993
 30
0.0
 10
35.636200
 20
-109.162413
 30
0.0
 10
35.760660
 20
-109.286873
 30
0.0
 10
35.885120
 20
-109.347833
 30
0.0
 10
36.131500
 20
-109.411333
 30
0.0
 10
36.316920
 20
-109.411333
 30
0.0
 10
36.565840
 20
-109.347833
 30
0.0
 10
36.687760
 20
-109.286873
 30
0.0
 10
36.812220
 20
-109.162413
 30
0.0
 10
36.873180
 20
-108.976993
 30
0.0
 10
36.873180
 20
-108.852533
 30
0.0
 10
36.812220
 20
-108.667113
 30
0.0
 10
36.751260
 20
-108.606153
 30
0.0
 10
36.316920
 20
-108.606153
 30
0.0
 10
36.316920
 20
-108.852533
 30
0.0
  0
LWPOLYLINE
  5
179
100
AcDbEntity
  8
0
 62
7
100
AcDbPolyline
 90
3
 70
0
 10
26.393140
 20
-113.058773
 30
0.0
 10
26.393140
 20
-113.675993
 30
0.0
 10
25.095200
 20
-113.675993
 30
0.0
  0
LWPOLYLINE
  5
17a
100
AcDbEntity
  8
0
 62
7
100
AcDbPolyline
 90
16
 70
1
 10
25.095200
 20
-112.378053
 30
0.0
 10
25.095200
 20
-112.129133
 30
0.0
 10
25.156160
 20
-112.004673
 30
0.0
 10
25.280620
 20
-111.882753
 30
0.0
 10
25.527000
 20
-111.819253
 30
0.0
 10
25.961340
 20
-111.819253
 30
0.0
 10
26.207720
 20
-111.882753
 30
0.0
 10
26.332180
 20
-112.004673
 30
0.0
 10
26.393140
 20
-112.129133
 30
0.0
 10
26.393140
 20
-112.378053
 30
0.0
 10
26.332180
 20
-112.499973
 30
0.0
 10
26.207720
 20
-112.624433
 30
0.0
 10
25.961340
 20
-112.685393
 30
0.0
 10
25.527000
 20
-112.685393
 30
0.0
 10
25.280620
 20
-112.624433
 30
0.0
 10
25.156160
 20
-112.499973
 30
0.0
  0
LWPOLYLINE
  5
17b
100
AcDbEntity
  8
0
 62
7
100
AcDbPolyline
 90
17
 70
0
 10
25.156160
 20
-110.582273
 30
0.0
 10
25.095200
 20
-110.704193
 30
0.0
 10
25.095200
 20
-110.892153
 30
0.0
 10
25.156160
 20
-111.077573
 30
0.0
 10
25.280620
 20
-111.199493
 30
0.0
 10
25.405080
 20
-111.262993
 30
0.0
 10
25.651460
 20
-111.323953
 30
0.0
 10
25.836880
 20
-111.323953
 30
0.0
 10
26.085800
 20
-111.262993
 30
0.0
 10
26.207720
 20
-111.199493
 30
0.0
 10
26.332180
 20
-111.077573
 30
0.0
 10
26.393140
 20
-110.892153
 30
0.0
 10
26.393140
 20
-110.767693
 30
0.0
 10
26.332180
 20
-110.582273
 30
0.0
 10
26.271220
 20
-110.518773
 30
0.0
 10
25.836880
 20
-110.518773
 30
0.0
 10
25.836880
 20
-110.767693
 30
0.0
  0
LWPOLYLINE
  5
17c
100
AcDbEntity
  8
0
 62
7
100
AcDbPolyline
 90
2
 70
0
 10
19.075400
 20
-17.328713
 30
0.0
 10
22.357080
 20
-17.328713
 30
0.0
  0
LWPOLYLINE
  5
17d
100
AcDbEntity
  8
0
 62
7
100
AcDbPolyline
 90
2
 70
0
 10
22.552660
 20
-17.496353
 30
0.0
 10
23.030180
 20
-17.496353
 30
0.0
  0
LWPOLYLINE
  5
17e
100
AcDbEntity
  8
0
 62
7
100
AcDbPolyline
 90
3
 70
0
 10
22.458680
 20
-17.780833
 30
0.0
 10
22.791420
 20
-16.782613
 30
0.0
 10
23.124160
 20
-17.780833
 30
0.0
  0
LWPOLYLINE
  5
17f
100
AcDbEntity
  8
0
 62
7
100
AcDbPolyline
 90
4
 70
0
 10
23.459440
 20
-17.780833
 30
0.0
 10
23.459440
 20
-16.782613
 30
0.0
 10
24.028400
 20
-17.780833
 30
0.0
 10
24.028400
 20
-16.782613
 30
0.0
  0
LWPOLYLINE
  5
180
100
AcDbEntity
  8
0
 62
7
100
AcDbPolyline
 90
2
 70
0
 10
24.363680
 20
-16.782613
 30
0.0
 10
24.935180
 20
-16.782613
 30
0.0
  0
LWPOLYLINE
  5
181
100
AcDbEntity
  8
0
 62
7
100
AcDbPolyline
 90
2
 70
0
 10
24.648160
 20
-17.780833
 30
0.0
 10
24.648160
 20
-16.782613
 30
0.0
  0
LWPOLYLINE
  5
182
100
AcDbEntity
  8
0
 62
7
100
AcDbPolyline
 90
2
 70
0
 10
36.708080
 20
-7.719893
 30
0.0
 10
37.424360
 20
-7.719893
 30
0.0
  0
LWPOLYLINE
  5
183
100
AcDbEntity
  8
0
 62
7
100
AcDbPolyline
 90
3
 70
0
 10
36.565840
 20
-8.146613
 30
0.0
 10
37.066220
 20
-6.648013
 30
0.0
 10
37.566600
 20
-8.146613
 30
0.0
  0
LWPOLYLINE
  5
184
100
AcDbEntity
  8
0
 62
7
100
AcDbPolyline
 90
4
 70
0
 10
38.066980
 20
-8.146613
 30
0.0
 10
38.066980
 20
-6.648013
 30
0.0
 10
38.922960
 20
-8.146613
 30
0.0
 10
38.922960
 20
-6.648013
 30
0.0
  0
LWPOLYLINE
  5
185
100
AcDbEntity
  8
0
 62
7
100
AcDbPolyline
 90
2
 70
0
 10
39.423340
 20
-6.648013
 30
0.0
 10
40.279320
 20
-6.648013
 30
0.0
  0
LWPOLYLINE
  5
186
100
AcDbEntity
  8
0
 62
7
100
AcDbPolyline
 90
2
 70
0
 10
39.852600
 20
-8.146613
 30
0.0
 10
39.852600
 20
-6.648013
 30
0.0
  0
LWPOLYLINE
  5
187
100
AcDbEntity
  8
0
 62
7
100
AcDbPolyline
 90
2
 70
0
 10
40.779700
 20
-7.361753
 30
0.0
 10
41.280080
 20
-7.361753
 30
0.0
  0
LWPOLYLINE
  5
188
100
AcDbEntity
  8
0
 62
7
100
AcDbPolyline
 90
4
 70
0
 10
41.495980
 20
-8.146613
 30
0.0
 10
40.779700
 20
-8.146613
 30
0.0
 10
40.779700
 20
-6.648013
 30
0.0
 10
41.495980
 20
-6.648013
 30
0.0
  0
LWPOLYLINE
  5
189
100
AcDbEntity
  8
0
 62
7
100
AcDbPolyline
 90
4
 70
0
 10
42.138600
 20
-8.146613
 30
0.0
 10
42.138600
 20
-6.648013
 30
0.0
 10
42.994580
 20
-8.146613
 30
0.0
 10
42.994580
 20
-6.648013
 30
0.0
  0
LWPOLYLINE
  5
18a
100
AcDbEntity
  8
0
 62
7
100
AcDbPolyline
 90
4
 70
0
 10
43.708320
 20
-8.146613
 30
0.0
 10
43.708320
 20
-6.648013
 30
0.0
 10
44.566840
 20
-8.146613
 30
0.0
 10
44.566840
 20
-6.648013
 30
0.0
  0
LWPOLYLINE
  5
18b
100
AcDbEntity
  8
0
 62
7
100
AcDbPolyline
 90
2
 70
0
 10
45.209460
 20
-7.719893
 30
0.0
 10
45.923200
 20
-7.719893
 30
0.0
  0
LWPOLYLINE
  5
18c
100
AcDbEntity
  8
0
 62
7
100
AcDbPolyline
 90
3
 70
0
 10
45.067220
 20
-8.146613
 30
0.0
 10
45.565060
 20
-6.648013
 30
0.0
 10
46.065440
 20
-8.146613
 30
0.0
  0
LWPOLYLINE
  5
18d
100
AcDbEntity
  8
0
 62
7
100
AcDbPolyline
 90
17
 70
0
 10
39.984680
 20
-4.268033
 30
0.0
 10
39.842440
 20
-4.196913
 30
0.0
 10
39.626540
 20
-4.196913
 30
0.0
 10
39.413180
 20
-4.268033
 30
0.0
 10
39.270940
 20
-4.412813
 30
0.0
 10
39.199820
 20
-4.555053
 30
0.0
 10
39.128700
 20
-4.839533
 30
0.0
 10
39.128700
 20
-5.055433
 30
0.0
 10
39.199820
 20
-5.339913
 30
0.0
 10
39.270940
 20
-5.484693
 30
0.0
 10
39.413180
 20
-5.626933
 30
0.0
 10
39.626540
 20
-5.698053
 30
0.0
 10
39.771320
 20
-5.698053
 30
0.0
 10
39.984680
 20
-5.626933
 30
0.0
 10
40.055800
 20
-5.555813
 30
0.0
 10
40.055800
 20
-5.055433
 30
0.0
 10
39.771320
 20
-5.055433
 30
0.0
  0
LWPOLYLINE
  5
18e
100
AcDbEntity
  8
0
 62
7
100
AcDbPolyline
 90
11
 70
0
 10
40.698420
 20
-5.698053
 30
0.0
 10
40.698420
 20
-4.196913
 30
0.0
 10
41.269920
 20
-4.196913
 30
0.0
 10
41.414700
 20
-4.268033
 30
0.0
 10
41.485820
 20
-4.341693
 30
0.0
 10
41.556940
 20
-4.483933
 30
0.0
 10
41.556940
 20
-4.697293
 30
0.0
 10
41.485820
 20
-4.839533
 30
0.0
 10
41.414700
 20
-4.913193
 30
0.0
 10
41.269920
 20
-4.984313
 30
0.0
 10
40.698420
 20
-4.984313
 30
0.0
  0
LWPOLYLINE
  5
18f
100
AcDbEntity
  8
0
 62
7
100
AcDbPolyline
 90
20
 70
0
 10
42.128440
 20
-5.626933
 30
0.0
 10
42.341800
 20
-5.698053
 30
0.0
 10
42.699940
 20
-5.698053
 30
0.0
 10
42.842180
 20
-5.626933
 30
0.0
 10
42.913300
 20
-5.555813
 30
0.0
 10
42.984420
 20
-5.411033
 30
0.0
 10
42.984420
 20
-5.268793
 30
0.0
 10
42.913300
 20
-5.126553
 30
0.0
 10
42.842180
 20
-5.055433
 30
0.0
 10
42.699940
 20
-4.984313
 30
0.0
 10
42.412920
 20
-4.913193
 30
0.0
 10
42.270680
 20
-4.839533
 30
0.0
 10
42.199560
 20
-4.768413
 30
0.0
 10
42.128440
 20
-4.626173
 30
0.0
 10
42.128440
 20
-4.483933
 30
0.0
 10
42.199560
 20
-4.341693
 30
0.0
 10
42.270680
 20
-4.268033
 30
0.0
 10
42.412920
 20
-4.196913
 30
0.0
 10
42.771060
 20
-4.196913
 30
0.0
 10
42.984420
 20
-4.268033
 30
0.0
  0
LWPOLYLINE
  5
190
100
AcDbEntity
  8
0
 62
7
100
AcDbPolyline
 90
2
 70
0
 10
21.302980
 20
-30.188733
 30
0.0
 10
20.802600
 20
-29.472453
 30
0.0
  0
LWPOLYLINE
  5
191
100
AcDbEntity
  8
0
 62
7
100
AcDbPolyline
 90
11
 70
0
 10
20.444460
 20
-30.188733
 30
0.0
 10
20.444460
 20
-28.687593
 30
0.0
 10
21.015960
 20
-28.687593
 30
0.0
 10
21.158200
 20
-28.758713
 30
0.0
 10
21.229320
 20
-28.829833
 30
0.0
 10
21.302980
 20
-28.974613
 30
0.0
 10
21.302980
 20
-29.187973
 30
0.0
 10
21.229320
 20
-29.330213
 30
0.0
 10
21.158200
 20
-29.401333
 30
0.0
 10
21.015960
 20
-29.472453
 30
0.0
 10
20.444460
 20
-29.472453
 30
0.0
  0
LWPOLYLINE
  5
192
100
AcDbEntity
  8
0
 62
7
100
AcDbPolyline
 90
2
 70
0
 10
22.445980
 20
-29.401333
 30
0.0
 10
21.945600
 20
-29.401333
 30
0.0
  0
LWPOLYLINE
  5
193
100
AcDbEntity
  8
0
 62
7
100
AcDbPolyline
 90
3
 70
0
 10
21.945600
 20
-30.188733
 30
0.0
 10
21.945600
 20
-28.687593
 30
0.0
 10
22.659340
 20
-28.687593
 30
0.0
  0
LWPOLYLINE
  5
194
100
AcDbEntity
  8
0
 62
7
100
AcDbPolyline
 90
5
 70
0
 10
23.230840
 20
-30.188733
 30
0.0
 10
23.230840
 20
-28.687593
 30
0.0
 10
23.731220
 20
-29.759473
 30
0.0
 10
24.231600
 20
-28.687593
 30
0.0
 10
24.231600
 20
-30.188733
 30
0.0
  0
LWPOLYLINE
  5
195
100
AcDbEntity
  8
0
 62
7
100
AcDbPolyline
 90
22
 70
0
 10
25.016460
 20
-30.188733
 30
0.0
 10
25.300940
 20
-30.188733
 30
0.0
 10
25.445720
 20
-30.115073
 30
0.0
 10
25.516840
 20
-30.043953
 30
0.0
 10
25.659080
 20
-29.830593
 30
0.0
 10
25.730200
 20
-29.546113
 30
0.0
 10
25.730200
 20
-28.974613
 30
0.0
 10
25.659080
 20
-28.829833
 30
0.0
 10
25.587960
 20
-28.758713
 30
0.0
 10
25.445720
 20
-28.687593
 30
0.0
 10
25.158700
 20
-28.687593
 30
0.0
 10
25.016460
 20
-28.758713
 30
0.0
 10
24.945340
 20
-28.829833
 30
0.0
 10
24.874220
 20
-28.974613
 30
0.0
 10
24.874220
 20
-29.330213
 30
0.0
 10
24.945340
 20
-29.472453
 30
0.0
 10
25.016460
 20
-29.546113
 30
0.0
 10
25.158700
 20
-29.617233
 30
0.0
 10
25.445720
 20
-29.617233
 30
0.0
 10
25.587960
 20
-29.546113
 30
0.0
 10
25.659080
 20
-29.472453
 30
0.0
 10
25.730200
 20
-29.330213
 30
0.0
  0
LWPOLYLINE
  5
196
100
AcDbEntity
  8
0
 62
7
100
AcDbPolyline
 90
16
 70
0
 10
27.086560
 20
-28.687593
 30
0.0
 10
26.372820
 20
-28.687593
 30
0.0
 10
26.301700
 20
-29.401333
 30
0.0
 10
26.372820
 20
-29.330213
 30
0.0
 10
26.515060
 20
-29.259093
 30
0.0
 10
26.873200
 20
-29.259093
 30
0.0
 10
27.015440
 20
-29.330213
 30
0.0
 10
27.086560
 20
-29.401333
 30
0.0
 10
27.160220
 20
-29.546113
 30
0.0
 10
27.160220
 20
-29.901713
 30
0.0
 10
27.086560
 20
-30.043953
 30
0.0
 10
27.015440
 20
-30.115073
 30
0.0
 10
26.873200
 20
-30.188733
 30
0.0
 10
26.515060
 20
-30.188733
 30
0.0
 10
26.372820
 20
-30.115073
 30
0.0
 10
26.301700
 20
-30.043953
 30
0.0
  0
LWPOLYLINE
  5
197
100
AcDbEntity
  8
0
 62
7
100
AcDbPolyline
 90
2
 70
0
 10
18.633440
 20
-23.356133
 30
0.0
 10
19.108420
 20
-23.356133
 30
0.0
  0
LWPOLYLINE
  5
198
100
AcDbEntity
  8
0
 62
7
100
AcDbPolyline
 90
3
 70
0
 10
18.539460
 20
-23.640613
 30
0.0
 10
18.872200
 20
-22.642393
 30
0.0
 10
19.204940
 20
-23.640613
 30
0.0
  0
LWPOLYLINE
  5
199
100
AcDbEntity
  8
0
 62
7
100
AcDbPolyline
 90
4
 70
0
 10
19.537680
 20
-23.640613
 30
0.0
 10
19.537680
 20
-22.642393
 30
0.0
 10
20.109180
 20
-23.640613
 30
0.0
 10
20.109180
 20
-22.642393
 30
0.0
  0
LWPOLYLINE
  5
19a
100
AcDbEntity
  8
0
 62
7
100
AcDbPolyline
 90
2
 70
0
 10
20.441920
 20
-22.642393
 30
0.0
 10
21.013420
 20
-22.642393
 30
0.0
  0
LWPOLYLINE
  5
19b
100
AcDbEntity
  8
0
 62
7
100
AcDbPolyline
 90
2
 70
0
 10
20.728940
 20
-23.640613
 30
0.0
 10
20.728940
 20
-22.642393
 30
0.0
  0
LWPOLYLINE
  5
19c
100
AcDbEntity
  8
0
 62
7
100
AcDbPolyline
 90
2
 70
0
 10
52.016660
 20
-30.988833
 30
0.0
 10
52.875180
 20
-30.988833
 30
0.0
  0
LWPOLYLINE
  5
19d
100
AcDbEntity
  8
0
 62
7
100
AcDbPolyline
 90
3
 70
0
 10
51.846480
 20
-31.504453
 30
0.0
 10
52.445920
 20
-29.703593
 30
0.0
 10
53.045360
 20
-31.504453
 30
0.0
  0
LWPOLYLINE
  5
19e
100
AcDbEntity
  8
0
 62
7
100
AcDbPolyline
 90
19
 70
0
 10
52.445920
 20
-34.560073
 30
0.0
 10
52.702460
 20
-34.646433
 30
0.0
 10
52.788820
 20
-34.732793
 30
0.0
 10
52.875180
 20
-34.902973
 30
0.0
 10
52.875180
 20
-35.159513
 30
0.0
 10
52.788820
 20
-35.332233
 30
0.0
 10
52.702460
 20
-35.418593
 30
0.0
 10
52.532280
 20
-35.502413
 30
0.0
 10
51.846480
 20
-35.502413
 30
0.0
 10
51.846480
 20
-33.704093
 30
0.0
 10
52.445920
 20
-33.704093
 30
0.0
 10
52.618640
 20
-33.790453
 30
0.0
 10
52.702460
 20
-33.874273
 30
0.0
 10
52.788820
 20
-34.046993
 30
0.0
 10
52.788820
 20
-34.217173
 30
0.0
 10
52.702460
 20
-34.389893
 30
0.0
 10
52.618640
 20
-34.473713
 30
0.0
 10
52.445920
 20
-34.560073
 30
0.0
 10
51.846480
 20
-34.560073
 30
0.0
  0
LWPOLYLINE
  5
19f
100
AcDbEntity
  8
0
 62
7
100
AcDbPolyline
 90
16
 70
0
 10
52.875180
 20
-55.931633
 30
0.0
 10
52.788820
 20
-56.017993
 30
0.0
 10
52.532280
 20
-56.104353
 30
0.0
 10
52.359560
 20
-56.104353
 30
0.0
 10
52.103020
 20
-56.017993
 30
0.0
 10
51.932840
 20
-55.845273
 30
0.0
 10
51.846480
 20
-55.675093
 30
0.0
 10
51.760120
 20
-55.332193
 30
0.0
 10
51.760120
 20
-55.075653
 30
0.0
 10
51.846480
 20
-54.732753
 30
0.0
 10
51.932840
 20
-54.560033
 30
0.0
 10
52.103020
 20
-54.389853
 30
0.0
 10
52.359560
 20
-54.303493
 30
0.0
 10
52.532280
 20
-54.303493
 30
0.0
 10
52.788820
 20
-54.389853
 30
0.0
 10
52.875180
 20
-54.473673
 30
0.0
  0
LWPOLYLINE
  5
1a0
100
AcDbEntity
  8
0
 62
7
100
AcDbPolyline
 90
16
 70
1
 10
52.052220
 20
-74.412673
 30
0.0
 10
52.395120
 20
-74.412673
 30
0.0
 10
52.565300
 20
-74.499033
 30
0.0
 10
52.738020
 20
-74.671753
 30
0.0
 10
52.824380
 20
-75.014653
 30
0.0
 10
52.824380
 20
-75.614093
 30
0.0
 10
52.738020
 20
-75.956993
 30
0.0
 10
52.565300
 20
-76.127173
 30
0.0
 10
52.395120
 20
-76.213533
 30
0.0
 10
52.052220
 20
-76.213533
 30
0.0
 10
51.879500
 20
-76.127173
 30
0.0
 10
51.709320
 20
-75.956993
 30
0.0
 10
51.622960
 20
-75.614093
 30
0.0
 10
51.622960
 20
-75.014653
 30
0.0
 10
51.709320
 20
-74.671753
 30
0.0
 10
51.879500
 20
-74.499033
 30
0.0
  0
LWPOLYLINE
  5
1a1
100
AcDbEntity
  8
0
 62
7
100
AcDbPolyline
 90
2
 70
0
 10
54.195980
 20
-75.271193
 30
0.0
 10
53.594000
 20
-75.271193
 30
0.0
  0
LWPOLYLINE
  5
1a2
100
AcDbEntity
  8
0
 62
7
100
AcDbPolyline
 90
3
 70
0
 10
53.594000
 20
-76.213533
 30
0.0
 10
53.594000
 20
-74.412673
 30
0.0
 10
54.452520
 20
-74.412673
 30
0.0
  0
LWPOLYLINE
  5
1a3
100
AcDbEntity
  8
0
 62
7
100
AcDbPolyline
 90
2
 70
0
 10
55.737760
 20
-75.271193
 30
0.0
 10
55.138320
 20
-75.271193
 30
0.0
  0
LWPOLYLINE
  5
1a4
100
AcDbEntity
  8
0
 62
7
100
AcDbPolyline
 90
3
 70
0
 10
55.138320
 20
-76.213533
 30
0.0
 10
55.138320
 20
-74.412673
 30
0.0
 10
55.994300
 20
-74.412673
 30
0.0
  0
LWPOLYLINE
  5
1a5
100
AcDbEntity
  8
0
 62
7
100
AcDbPolyline
 90
16
 70
1
 10
53.121560
 20
-62.342593
 30
0.0
 10
53.464460
 20
-62.342593
 30
0.0
 10
53.637180
 20
-62.428953
 30
0.0
 10
53.807360
 20
-62.601673
 30
0.0
 10
53.893720
 20
-62.944573
 30
0.0
 10
53.893720
 20
-63.544013
 30
0.0
 10
53.807360
 20
-63.886913
 30
0.0
 10
53.637180
 20
-64.057093
 30
0.0
 10
53.464460
 20
-64.143453
 30
0.0
 10
53.121560
 20
-64.143453
 30
0.0
 10
52.951380
 20
-64.057093
 30
0.0
 10
52.778660
 20
-63.886913
 30
0.0
 10
52.692300
 20
-63.544013
 30
0.0
 10
52.692300
 20
-62.944573
 30
0.0
 10
52.778660
 20
-62.601673
 30
0.0
 10
52.951380
 20
-62.428953
 30
0.0
  0
LWPOLYLINE
  5
1a6
100
AcDbEntity
  8
0
 62
7
100
AcDbPolyline
 90
4
 70
0
 10
54.665880
 20
-64.143453
 30
0.0
 10
54.665880
 20
-62.342593
 30
0.0
 10
55.694580
 20
-64.143453
 30
0.0
 10
55.694580
 20
-62.342593
 30
0.0
  0
LWPOLYLINE
  5
1a7
100
AcDbEntity
  8
0
 62
7
100
AcDbPolyline
 90
2
 70
0
 10
14.203680
 20
-112.527913
 30
0.0
 10
13.586460
 20
-112.959713
 30
0.0
  0
LWPOLYLINE
  5
1a8
100
AcDbEntity
  8
0
 62
7
100
AcDbPolyline
 90
11
 70
0
 10
14.203680
 20
-113.269593
 30
0.0
 10
12.903200
 20
-113.269593
 30
0.0
 10
12.903200
 20
-112.774293
 30
0.0
 10
12.966700
 20
-112.649833
 30
0.0
 10
13.027660
 20
-112.588873
 30
0.0
 10
13.152120
 20
-112.527913
 30
0.0
 10
13.337540
 20
-112.527913
 30
0.0
 10
13.462000
 20
-112.588873
 30
0.0
 10
13.522960
 20
-112.649833
 30
0.0
 10
13.586460
 20
-112.774293
 30
0.0
 10
13.586460
 20
-113.269593
 30
0.0
  0
LWPOLYLINE
  5
1a9
100
AcDbEntity
  8
0
 62
7
100
AcDbPolyline
 90
2
 70
0
 10
13.522960
 20
-111.969113
 30
0.0
 10
13.522960
 20
-111.537313
 30
0.0
  0
LWPOLYLINE
  5
1aa
100
AcDbEntity
  8
0
 62
7
100
AcDbPolyline
 90
4
 70
0
 10
14.203680
 20
-111.351893
 30
0.0
 10
14.203680
 20
-111.969113
 30
0.0
 10
12.903200
 20
-111.969113
 30
0.0
 10
12.903200
 20
-111.351893
 30
0.0
  0
LWPOLYLINE
  5
1ab
100
AcDbEntity
  8
0
 62
7
100
AcDbPolyline
 90
20
 70
0
 10
14.142720
 20
-110.856593
 30
0.0
 10
14.203680
 20
-110.671173
 30
0.0
 10
14.203680
 20
-110.361293
 30
0.0
 10
14.142720
 20
-110.236833
 30
0.0
 10
14.081760
 20
-110.175873
 30
0.0
 10
13.957300
 20
-110.112373
 30
0.0
 10
13.832840
 20
-110.112373
 30
0.0
 10
13.708380
 20
-110.175873
 30
0.0
 10
13.647420
 20
-110.236833
 30
0.0
 10
13.586460
 20
-110.361293
 30
0.0
 10
13.522960
 20
-110.607673
 30
0.0
 10
13.462000
 20
-110.732133
 30
0.0
 10
13.398500
 20
-110.793093
 30
0.0
 10
13.276580
 20
-110.856593
 30
0.0
 10
13.152120
 20
-110.856593
 30
0.0
 10
13.027660
 20
-110.793093
 30
0.0
 10
12.966700
 20
-110.732133
 30
0.0
 10
12.903200
 20
-110.607673
 30
0.0
 10
12.903200
 20
-110.297793
 30
0.0
 10
12.966700
 20
-110.112373
 30
0.0
  0
LWPOLYLINE
  5
1ac
100
AcDbEntity
  8
0
 62
7
100
AcDbPolyline
 90
2
 70
0
 10
13.522960
 20
-109.556113
 30
0.0
 10
13.522960
 20
-109.121773
 30
0.0
  0
LWPOLYLINE
  5
1ad
100
AcDbEntity
  8
0
 62
7
100
AcDbPolyline
 90
4
 70
0
 10
14.203680
 20
-108.936353
 30
0.0
 10
14.203680
 20
-109.556113
 30
0.0
 10
12.903200
 20
-109.556113
 30
0.0
 10
12.903200
 20
-108.936353
 30
0.0
  0
LWPOLYLINE
  5
1ae
100
AcDbEntity
  8
0
 62
7
100
AcDbPolyline
 90
2
 70
0
 10
12.903200
 20
-108.565513
 30
0.0
 10
12.903200
 20
-107.821293
 30
0.0
  0
LWPOLYLINE
  5
1af
100
AcDbEntity
  8
0
 62
7
100
AcDbPolyline
 90
2
 70
0
 10
14.203680
 20
-108.194673
 30
0.0
 10
12.903200
 20
-108.194673
 30
0.0
  0
LWPOLYLINE
  5
1b0
100
AcDbEntity
  8
0
 62
7
100
AcDbPolyline
 90
14
 70
0
 10
10.919460
 20
-38.796793
 30
0.0
 10
10.919460
 20
-38.177033
 30
0.0
 10
11.300460
 20
-38.512313
 30
0.0
 10
11.300460
 20
-38.367533
 30
0.0
 10
11.346180
 20
-38.273553
 30
0.0
 10
11.394440
 20
-38.225293
 30
0.0
 10
11.490960
 20
-38.177033
 30
0.0
 10
11.727180
 20
-38.177033
 30
0.0
 10
11.823700
 20
-38.225293
 30
0.0
 10
11.871960
 20
-38.273553
 30
0.0
 10
11.917680
 20
-38.367533
 30
0.0
 10
11.917680
 20
-38.654553
 30
0.0
 10
11.871960
 20
-38.748533
 30
0.0
 10
11.823700
 20
-38.796793
 30
0.0
  0
LWPOLYLINE
  5
1b1
100
AcDbEntity
  8
0
 62
7
100
AcDbPolyline
 90
3
 70
0
 10
10.919460
 20
-37.892553
 30
0.0
 10
11.917680
 20
-37.559813
 30
0.0
 10
10.919460
 20
-37.227073
 30
0.0
  0
LWPOLYLINE
  5
1b2
100
AcDbEntity
  8
0
 62
7
100
AcDbPolyline
 90
14
 70
0
 10
10.919460
 20
-36.988313
 30
0.0
 10
10.919460
 20
-36.368553
 30
0.0
 10
11.300460
 20
-36.701293
 30
0.0
 10
11.300460
 20
-36.559053
 30
0.0
 10
11.346180
 20
-36.465073
 30
0.0
 10
11.394440
 20
-36.416813
 30
0.0
 10
11.490960
 20
-36.368553
 30
0.0
 10
11.727180
 20
-36.368553
 30
0.0
 10
11.823700
 20
-36.416813
 30
0.0
 10
11.871960
 20
-36.465073
 30
0.0
 10
11.917680
 20
-36.559053
 30
0.0
 10
11.917680
 20
-36.846073
 30
0.0
 10
11.871960
 20
-36.940053
 30
0.0
 10
11.823700
 20
-36.988313
 30
0.0
  0
LWPOLYLINE
  5
1b3
100
AcDbEntity
  8
0
 62
7
100
AcDbPolyline
 90
17
 70
0
 10
15.915640
 20
-44.011413
 30
0.0
 10
15.869920
 20
-44.105393
 30
0.0
 10
15.869920
 20
-44.250173
 30
0.0
 10
15.915640
 20
-44.392413
 30
0.0
 10
16.012160
 20
-44.486393
 30
0.0
 10
16.106140
 20
-44.534653
 30
0.0
 10
16.296640
 20
-44.582913
 30
0.0
 10
16.438880
 20
-44.582913
 30
0.0
 10
16.629380
 20
-44.534653
 30
0.0
 10
16.725900
 20
-44.486393
 30
0.0
 10
16.819880
 20
-44.392413
 30
0.0
 10
16.868140
 20
-44.250173
 30
0.0
 10
16.868140
 20
-44.153653
 30
0.0
 10
16.819880
 20
-44.011413
 30
0.0
 10
16.774160
 20
-43.963153
 30
0.0
 10
16.438880
 20
-43.963153
 30
0.0
 10
16.438880
 20
-44.153653
 30
0.0
  0
LWPOLYLINE
  5
1b4
100
AcDbEntity
  8
0
 62
7
100
AcDbPolyline
 90
4
 70
0
 10
16.868140
 20
-43.533893
 30
0.0
 10
15.869920
 20
-43.533893
 30
0.0
 10
16.868140
 20
-42.962393
 30
0.0
 10
15.869920
 20
-42.962393
 30
0.0
  0
LWPOLYLINE
  5
1b5
100
AcDbEntity
  8
0
 62
7
100
AcDbPolyline
 90
12
 70
1
 10
16.868140
 20
-42.487413
 30
0.0
 10
15.869920
 20
-42.487413
 30
0.0
 10
15.869920
 20
-42.248653
 30
0.0
 10
15.915640
 20
-42.106413
 30
0.0
 10
16.012160
 20
-42.009893
 30
0.0
 10
16.106140
 20
-41.964173
 30
0.0
 10
16.296640
 20
-41.915913
 30
0.0
 10
16.438880
 20
-41.915913
 30
0.0
 10
16.629380
 20
-41.964173
 30
0.0
 10
16.725900
 20
-42.009893
 30
0.0
 10
16.819880
 20
-42.106413
 30
0.0
 10
16.868140
 20
-42.248653
 30
0.0
  0
LWPOLYLINE
  5
1b6
100
AcDbEntity
  8
0
 62
7
100
AcDbPolyline
 90
20
 70
0
 10
19.651980
 20
-38.448813
 30
0.0
 10
19.697700
 20
-38.306573
 30
0.0
 10
19.697700
 20
-38.067813
 30
0.0
 10
19.651980
 20
-37.973833
 30
0.0
 10
19.603720
 20
-37.925573
 30
0.0
 10
19.507200
 20
-37.877313
 30
0.0
 10
19.413220
 20
-37.877313
 30
0.0
 10
19.316700
 20
-37.925573
 30
0.0
 10
19.270980
 20
-37.973833
 30
0.0
 10
19.222720
 20
-38.067813
 30
0.0
 10
19.174460
 20
-38.258313
 30
0.0
 10
19.126200
 20
-38.354833
 30
0.0
 10
19.080480
 20
-38.403093
 30
0.0
 10
18.983960
 20
-38.448813
 30
0.0
 10
18.889980
 20
-38.448813
 30
0.0
 10
18.793460
 20
-38.403093
 30
0.0
 10
18.745200
 20
-38.354833
 30
0.0
 10
18.699480
 20
-38.258313
 30
0.0
 10
18.699480
 20
-38.022093
 30
0.0
 10
18.745200
 20
-37.877313
 30
0.0
  0
LWPOLYLINE
  5
1b7
100
AcDbEntity
  8
0
 62
7
100
AcDbPolyline
 90
16
 70
0
 10
19.603720
 20
-36.879093
 30
0.0
 10
19.651980
 20
-36.924813
 30
0.0
 10
19.697700
 20
-37.069593
 30
0.0
 10
19.697700
 20
-37.163573
 30
0.0
 10
19.651980
 20
-37.305813
 30
0.0
 10
19.555460
 20
-37.402333
 30
0.0
 10
19.461480
 20
-37.450593
 30
0.0
 10
19.270980
 20
-37.496313
 30
0.0
 10
19.126200
 20
-37.496313
 30
0.0
 10
18.935700
 20
-37.450593
 30
0.0
 10
18.841720
 20
-37.402333
 30
0.0
 10
18.745200
 20
-37.305813
 30
0.0
 10
18.699480
 20
-37.163573
 30
0.0
 10
18.699480
 20
-37.069593
 30
0.0
 10
18.745200
 20
-36.924813
 30
0.0
 10
18.793460
 20
-36.879093
 30
0.0
  0
LWPOLYLINE
  5
1b8
100
AcDbEntity
  8
0
 62
7
100
AcDbPolyline
 90
3
 70
0
 10
19.697700
 20
-35.972313
 30
0.0
 10
19.697700
 20
-36.449833
 30
0.0
 10
18.699480
 20
-36.449833
 30
0.0
  0
LWPOLYLINE
  5
1b9
100
AcDbEntity
  8
0
 62
7
100
AcDbPolyline
 90
20
 70
0
 10
21.780500
 20
-38.474213
 30
0.0
 10
21.828760
 20
-38.329433
 30
0.0
 10
21.828760
 20
-38.093213
 30
0.0
 10
21.780500
 20
-37.996693
 30
0.0
 10
21.732240
 20
-37.948433
 30
0.0
 10
21.638260
 20
-37.902713
 30
0.0
 10
21.541740
 20
-37.902713
 30
0.0
 10
21.447760
 20
-37.948433
 30
0.0
 10
21.399500
 20
-37.996693
 30
0.0
 10
21.351240
 20
-38.093213
 30
0.0
 10
21.305520
 20
-38.283713
 30
0.0
 10
21.257260
 20
-38.377693
 30
0.0
 10
21.209000
 20
-38.425953
 30
0.0
 10
21.115020
 20
-38.474213
 30
0.0
 10
21.018500
 20
-38.474213
 30
0.0
 10
20.924520
 20
-38.425953
 30
0.0
 10
20.876260
 20
-38.377693
 30
0.0
 10
20.828000
 20
-38.283713
 30
0.0
 10
20.828000
 20
-38.044953
 30
0.0
 10
20.876260
 20
-37.902713
 30
0.0
  0
LWPOLYLINE
  5
1ba
100
AcDbEntity
  8
0
 62
7
100
AcDbPolyline
 90
12
 70
1
 10
21.828760
 20
-37.473453
 30
0.0
 10
20.828000
 20
-37.473453
 30
0.0
 10
20.828000
 20
-37.234693
 30
0.0
 10
20.876260
 20
-37.092453
 30
0.0
 10
20.972780
 20
-36.998473
 30
0.0
 10
21.066760
 20
-36.950213
 30
0.0
 10
21.257260
 20
-36.901953
 30
0.0
 10
21.399500
 20
-36.901953
 30
0.0
 10
21.590000
 20
-36.950213
 30
0.0
 10
21.686520
 20
-36.998473
 30
0.0
 10
21.780500
 20
-37.092453
 30
0.0
 10
21.828760
 20
-37.234693
 30
0.0
  0
LWPOLYLINE
  5
1bb
100
AcDbEntity
  8
0
 62
7
100
AcDbPolyline
 90
2
 70
0
 10
21.541740
 20
-36.520953
 30
0.0
 10
21.541740
 20
-36.045973
 30
0.0
  0
LWPOLYLINE
  5
1bc
100
AcDbEntity
  8
0
 62
7
100
AcDbPolyline
 90
3
 70
0
 10
21.828760
 20
-36.617473
 30
0.0
 10
20.828000
 20
-36.282193
 30
0.0
 10
21.828760
 20
-35.949453
 30
0.0
  0
LWPOLYLINE
  5
1bd
100
AcDbEntity
  8
0
 62
7
100
AcDbPolyline
 90
20
 70
0
 10
26.141680
 20
-49.406373
 30
0.0
 10
26.189940
 20
-49.264133
 30
0.0
 10
26.189940
 20
-49.025373
 30
0.0
 10
26.141680
 20
-48.931393
 30
0.0
 10
26.093420
 20
-48.883133
 30
0.0
 10
25.999440
 20
-48.834873
 30
0.0
 10
25.902920
 20
-48.834873
 30
0.0
 10
25.808940
 20
-48.883133
 30
0.0
 10
25.760680
 20
-48.931393
 30
0.0
 10
25.712420
 20
-49.025373
 30
0.0
 10
25.664160
 20
-49.215873
 30
0.0
 10
25.618440
 20
-49.312393
 30
0.0
 10
25.570180
 20
-49.358113
 30
0.0
 10
25.473660
 20
-49.406373
 30
0.0
 10
25.379680
 20
-49.406373
 30
0.0
 10
25.283160
 20
-49.358113
 30
0.0
 10
25.237440
 20
-49.312393
 30
0.0
 10
25.189180
 20
-49.215873
 30
0.0
 10
25.189180
 20
-48.977113
 30
0.0
 10
25.237440
 20
-48.834873
 30
0.0
  0
LWPOLYLINE
  5
1be
100
AcDbEntity
  8
0
 62
7
100
AcDbPolyline
 90
16
 70
0
 10
26.093420
 20
-47.834113
 30
0.0
 10
26.141680
 20
-47.882373
 30
0.0
 10
26.189940
 20
-48.024613
 30
0.0
 10
26.189940
 20
-48.121133
 30
0.0
 10
26.141680
 20
-48.263373
 30
0.0
 10
26.045160
 20
-48.359893
 30
0.0
 10
25.951180
 20
-48.405613
 30
0.0
 10
25.760680
 20
-48.453873
 30
0.0
 10
25.618440
 20
-48.453873
 30
0.0
 10
25.427940
 20
-48.405613
 30
0.0
 10
25.331420
 20
-48.359893
 30
0.0
 10
25.237440
 20
-48.263373
 30
0.0
 10
25.189180
 20
-48.121133
 30
0.0
 10
25.189180
 20
-48.024613
 30
0.0
 10
25.237440
 20
-47.882373
 30
0.0
 10
25.283160
 20
-47.834113
 30
0.0
  0
LWPOLYLINE
  5
1bf
100
AcDbEntity
  8
0
 62
7
100
AcDbPolyline
 90
3
 70
0
 10
26.189940
 20
-46.929873
 30
0.0
 10
26.189940
 20
-47.407393
 30
0.0
 10
25.189180
 20
-47.407393
 30
0.0
  0
LWPOLYLINE
  5
1c0
100
AcDbEntity
  8
0
 62
7
100
AcDbPolyline
 90
17
 70
0
 10
20.096480
 20
-49.121893
 30
0.0
 10
20.048220
 20
-49.215873
 30
0.0
 10
20.048220
 20
-49.358113
 30
0.0
 10
20.096480
 20
-49.502893
 30
0.0
 10
20.190460
 20
-49.596873
 30
0.0
 10
20.286980
 20
-49.645133
 30
0.0
 10
20.477480
 20
-49.693393
 30
0.0
 10
20.619720
 20
-49.693393
 30
0.0
 10
20.810220
 20
-49.645133
 30
0.0
 10
20.906740
 20
-49.596873
 30
0.0
 10
21.000720
 20
-49.502893
 30
0.0
 10
21.048980
 20
-49.358113
 30
0.0
 10
21.048980
 20
-49.264133
 30
0.0
 10
21.000720
 20
-49.121893
 30
0.0
 10
20.952460
 20
-49.073633
 30
0.0
 10
20.619720
 20
-49.073633
 30
0.0
 10
20.619720
 20
-49.264133
 30
0.0
  0
LWPOLYLINE
  5
1c1
100
AcDbEntity
  8
0
 62
7
100
AcDbPolyline
 90
4
 70
0
 10
21.048980
 20
-48.644373
 30
0.0
 10
20.048220
 20
-48.644373
 30
0.0
 10
21.048980
 20
-48.072873
 30
0.0
 10
20.048220
 20
-48.072873
 30
0.0
  0
LWPOLYLINE
  5
1c2
100
AcDbEntity
  8
0
 62
7
100
AcDbPolyline
 90
12
 70
1
 10
21.048980
 20
-47.597893
 30
0.0
 10
20.048220
 20
-47.597893
 30
0.0
 10
20.048220
 20
-47.359133
 30
0.0
 10
20.096480
 20
-47.216893
 30
0.0
 10
20.190460
 20
-47.120373
 30
0.0
 10
20.286980
 20
-47.074653
 30
0.0
 10
20.477480
 20
-47.026393
 30
0.0
 10
20.619720
 20
-47.026393
 30
0.0
 10
20.810220
 20
-47.074653
 30
0.0
 10
20.906740
 20
-47.120373
 30
0.0
 10
21.000720
 20
-47.216893
 30
0.0
 10
21.048980
 20
-47.359133
 30
0.0
  0
LWPOLYLINE
  5
1c3
100
AcDbEntity
  8
0
 62
7
100
AcDbPolyline
 90
14
 70
0
 10
22.717760
 20
-49.454633
 30
0.0
 10
22.717760
 20
-48.834873
 30
0.0
 10
23.098760
 20
-49.167613
 30
0.0
 10
23.098760
 20
-49.025373
 30
0.0
 10
23.147020
 20
-48.931393
 30
0.0
 10
23.195280
 20
-48.883133
 30
0.0
 10
23.289260
 20
-48.834873
 30
0.0
 10
23.528020
 20
-48.834873
 30
0.0
 10
23.624540
 20
-48.883133
 30
0.0
 10
23.670260
 20
-48.931393
 30
0.0
 10
23.718520
 20
-49.025373
 30
0.0
 10
23.718520
 20
-49.312393
 30
0.0
 10
23.670260
 20
-49.406373
 30
0.0
 10
23.624540
 20
-49.454633
 30
0.0
  0
LWPOLYLINE
  5
1c4
100
AcDbEntity
  8
0
 62
7
100
AcDbPolyline
 90
3
 70
0
 10
22.717760
 20
-48.550393
 30
0.0
 10
23.718520
 20
-48.215113
 30
0.0
 10
22.717760
 20
-47.882373
 30
0.0
  0
LWPOLYLINE
  5
1c5
100
AcDbEntity
  8
0
 62
7
100
AcDbPolyline
 90
14
 70
0
 10
22.717760
 20
-47.646153
 30
0.0
 10
22.717760
 20
-47.026393
 30
0.0
 10
23.098760
 20
-47.359133
 30
0.0
 10
23.098760
 20
-47.216893
 30
0.0
 10
23.147020
 20
-47.120373
 30
0.0
 10
23.195280
 20
-47.074653
 30
0.0
 10
23.289260
 20
-47.026393
 30
0.0
 10
23.528020
 20
-47.026393
 30
0.0
 10
23.624540
 20
-47.074653
 30
0.0
 10
23.670260
 20
-47.120373
 30
0.0
 10
23.718520
 20
-47.216893
 30
0.0
 10
23.718520
 20
-47.501373
 30
0.0
 10
23.670260
 20
-47.597893
 30
0.0
 10
23.624540
 20
-47.646153
 30
0.0
  0
LWPOLYLINE
  5
1c6
100
AcDbEntity
  8
0
 62
7
100
AcDbPolyline
 90
20
 70
0
 10
28.729940
 20
-49.454633
 30
0.0
 10
28.778200
 20
-49.312393
 30
0.0
 10
28.778200
 20
-49.073633
 30
0.0
 10
28.729940
 20
-48.977113
 30
0.0
 10
28.684220
 20
-48.931393
 30
0.0
 10
28.587700
 20
-48.883133
 30
0.0
 10
28.493720
 20
-48.883133
 30
0.0
 10
28.397200
 20
-48.931393
 30
0.0
 10
28.348940
 20
-48.977113
 30
0.0
 10
28.303220
 20
-49.073633
 30
0.0
 10
28.254960
 20
-49.264133
 30
0.0
 10
28.206700
 20
-49.358113
 30
0.0
 10
28.158440
 20
-49.406373
 30
0.0
 10
28.064460
 20
-49.454633
 30
0.0
 10
27.967940
 20
-49.454633
 30
0.0
 10
27.873960
 20
-49.406373
 30
0.0
 10
27.825700
 20
-49.358113
 30
0.0
 10
27.777440
 20
-49.264133
 30
0.0
 10
27.777440
 20
-49.025373
 30
0.0
 10
27.825700
 20
-48.883133
 30
0.0
  0
LWPOLYLINE
  5
1c7
100
AcDbEntity
  8
0
 62
7
100
AcDbPolyline
 90
12
 70
1
 10
28.778200
 20
-48.453873
 30
0.0
 10
27.777440
 20
-48.453873
 30
0.0
 10
27.777440
 20
-48.215113
 30
0.0
 10
27.825700
 20
-48.072873
 30
0.0
 10
27.922220
 20
-47.978893
 30
0.0
 10
28.016200
 20
-47.930633
 30
0.0
 10
28.206700
 20
-47.882373
 30
0.0
 10
28.348940
 20
-47.882373
 30
0.0
 10
28.539440
 20
-47.930633
 30
0.0
 10
28.635960
 20
-47.978893
 30
0.0
 10
28.729940
 20
-48.072873
 30
0.0
 10
28.778200
 20
-48.215113
 30
0.0
  0
LWPOLYLINE
  5
1c8
100
AcDbEntity
  8
0
 62
7
100
AcDbPolyline
 90
2
 70
0
 10
28.493720
 20
-47.501373
 30
0.0
 10
28.493720
 20
-47.026393
 30
0.0
  0
LWPOLYLINE
  5
1c9
100
AcDbEntity
  8
0
 62
7
100
AcDbPolyline
 90
3
 70
0
 10
28.778200
 20
-47.597893
 30
0.0
 10
27.777440
 20
-47.265153
 30
0.0
 10
28.778200
 20
-46.929873
 30
0.0
  0
LWPOLYLINE
  5
1ca
100
AcDbEntity
  8
0
 62
7
100
AcDbPolyline
 90
17
 70
0
 10
5.153660
 20
-52.888713
 30
0.0
 10
5.059680
 20
-52.840453
 30
0.0
 10
4.917440
 20
-52.840453
 30
0.0
 10
4.772660
 20
-52.888713
 30
0.0
 10
4.678680
 20
-52.985233
 30
0.0
 10
4.630420
 20
-53.079213
 30
0.0
 10
4.582160
 20
-53.269713
 30
0.0
 10
4.582160
 20
-53.411953
 30
0.0
 10
4.630420
 20
-53.602453
 30
0.0
 10
4.678680
 20
-53.698973
 30
0.0
 10
4.772660
 20
-53.792953
 30
0.0
 10
4.917440
 20
-53.841213
 30
0.0
 10
5.011420
 20
-53.841213
 30
0.0
 10
5.153660
 20
-53.792953
 30
0.0
 10
5.201920
 20
-53.747233
 30
0.0
 10
5.201920
 20
-53.411953
 30
0.0
 10
5.011420
 20
-53.411953
 30
0.0
  0
LWPOLYLINE
  5
1cb
100
AcDbEntity
  8
0
 62
7
100
AcDbPolyline
 90
4
 70
0
 10
5.631180
 20
-53.841213
 30
0.0
 10
5.631180
 20
-52.840453
 30
0.0
 10
6.202680
 20
-53.841213
 30
0.0
 10
6.202680
 20
-52.840453
 30
0.0
  0
LWPOLYLINE
  5
1cc
100
AcDbEntity
  8
0
 62
7
100
AcDbPolyline
 90
12
 70
1
 10
6.677660
 20
-53.841213
 30
0.0
 10
6.677660
 20
-52.840453
 30
0.0
 10
6.916420
 20
-52.840453
 30
0.0
 10
7.058660
 20
-52.888713
 30
0.0
 10
7.155180
 20
-52.985233
 30
0.0
 10
7.200900
 20
-53.079213
 30
0.0
 10
7.249160
 20
-53.269713
 30
0.0
 10
7.249160
 20
-53.411953
 30
0.0
 10
7.200900
 20
-53.602453
 30
0.0
 10
7.155180
 20
-53.698973
 30
0.0
 10
7.058660
 20
-53.792953
 30
0.0
 10
6.916420
 20
-53.841213
 30
0.0
  0
LWPOLYLINE
  5
1cd
100
AcDbEntity
  8
0
 62
7
100
AcDbPolyline
 90
12
 70
1
 10
4.772660
 20
-56.350733
 30
0.0
 10
4.772660
 20
-55.352513
 30
0.0
 10
5.011420
 20
-55.352513
 30
0.0
 10
5.153660
 20
-55.398233
 30
0.0
 10
5.250180
 20
-55.494753
 30
0.0
 10
5.298440
 20
-55.588733
 30
0.0
 10
5.344160
 20
-55.779233
 30
0.0
 10
5.344160
 20
-55.924013
 30
0.0
 10
5.298440
 20
-56.114513
 30
0.0
 10
5.250180
 20
-56.208493
 30
0.0
 10
5.153660
 20
-56.305013
 30
0.0
 10
5.011420
 20
-56.350733
 30
0.0
  0
LWPOLYLINE
  5
1ce
100
AcDbEntity
  8
0
 62
7
100
AcDbPolyline
 90
2
 70
0
 10
6.296660
 20
-56.350733
 30
0.0
 10
5.725160
 20
-56.350733
 30
0.0
  0
LWPOLYLINE
  5
1cf
100
AcDbEntity
  8
0
 62
7
100
AcDbPolyline
 90
5
 70
0
 10
6.012180
 20
-56.350733
 30
0.0
 10
6.012180
 20
-55.352513
 30
0.0
 10
5.915660
 20
-55.494753
 30
0.0
 10
5.821680
 20
-55.588733
 30
0.0
 10
5.725160
 20
-55.636993
 30
0.0
  0
LWPOLYLINE
  5
1d0
100
AcDbEntity
  8
0
 62
7
100
AcDbPolyline
 90
2
 70
0
 10
7.249160
 20
-56.350733
 30
0.0
 10
6.677660
 20
-56.350733
 30
0.0
  0
LWPOLYLINE
  5
1d1
100
AcDbEntity
  8
0
 62
7
100
AcDbPolyline
 90
5
 70
0
 10
6.964680
 20
-56.350733
 30
0.0
 10
6.964680
 20
-55.352513
 30
0.0
 10
6.868160
 20
-55.494753
 30
0.0
 10
6.774180
 20
-55.588733
 30
0.0
 10
6.677660
 20
-55.636993
 30
0.0
  0
LWPOLYLINE
  5
1d2
100
AcDbEntity
  8
0
 62
7
100
AcDbPolyline
 90
12
 70
1
 10
4.772660
 20
-58.771353
 30
0.0
 10
4.772660
 20
-57.770593
 30
0.0
 10
5.011420
 20
-57.770593
 30
0.0
 10
5.153660
 20
-57.818853
 30
0.0
 10
5.250180
 20
-57.915373
 30
0.0
 10
5.298440
 20
-58.009353
 30
0.0
 10
5.344160
 20
-58.199853
 30
0.0
 10
5.344160
 20
-58.342093
 30
0.0
 10
5.298440
 20
-58.532593
 30
0.0
 10
5.250180
 20
-58.629113
 30
0.0
 10
5.153660
 20
-58.723093
 30
0.0
 10
5.011420
 20
-58.771353
 30
0.0
  0
LWPOLYLINE
  5
1d3
100
AcDbEntity
  8
0
 62
7
100
AcDbPolyline
 90
2
 70
0
 10
6.296660
 20
-58.771353
 30
0.0
 10
5.725160
 20
-58.771353
 30
0.0
  0
LWPOLYLINE
  5
1d4
100
AcDbEntity
  8
0
 62
7
100
AcDbPolyline
 90
5
 70
0
 10
6.012180
 20
-58.771353
 30
0.0
 10
6.012180
 20
-57.770593
 30
0.0
 10
5.915660
 20
-57.915373
 30
0.0
 10
5.821680
 20
-58.009353
 30
0.0
 10
5.725160
 20
-58.057613
 30
0.0
  0
LWPOLYLINE
  5
1d5
100
AcDbEntity
  8
0
 62
7
100
AcDbPolyline
 90
11
 70
0
 10
6.677660
 20
-57.867113
 30
0.0
 10
6.725920
 20
-57.818853
 30
0.0
 10
6.819900
 20
-57.770593
 30
0.0
 10
7.058660
 20
-57.770593
 30
0.0
 10
7.155180
 20
-57.818853
 30
0.0
 10
7.200900
 20
-57.867113
 30
0.0
 10
7.249160
 20
-57.961093
 30
0.0
 10
7.249160
 20
-58.057613
 30
0.0
 10
7.200900
 20
-58.199853
 30
0.0
 10
6.629400
 20
-58.771353
 30
0.0
 10
7.249160
 20
-58.771353
 30
0.0
  0
LWPOLYLINE
  5
1d6
100
AcDbEntity
  8
0
 62
7
100
AcDbPolyline
 90
12
 70
1
 10
4.772660
 20
-61.542493
 30
0.0
 10
4.772660
 20
-60.541733
 30
0.0
 10
5.011420
 20
-60.541733
 30
0.0
 10
5.153660
 20
-60.589993
 30
0.0
 10
5.250180
 20
-60.683973
 30
0.0
 10
5.298440
 20
-60.780493
 30
0.0
 10
5.344160
 20
-60.970993
 30
0.0
 10
5.344160
 20
-61.113233
 30
0.0
 10
5.298440
 20
-61.303733
 30
0.0
 10
5.250180
 20
-61.397713
 30
0.0
 10
5.153660
 20
-61.494233
 30
0.0
 10
5.011420
 20
-61.542493
 30
0.0
  0
LWPOLYLINE
  5
1d7
100
AcDbEntity
  8
0
 62
7
100
AcDbPolyline
 90
2
 70
0
 10
6.296660
 20
-61.542493
 30
0.0
 10
5.725160
 20
-61.542493
 30
0.0
  0
LWPOLYLINE
  5
1d8
100
AcDbEntity
  8
0
 62
7
100
AcDbPolyline
 90
5
 70
0
 10
6.012180
 20
-61.542493
 30
0.0
 10
6.012180
 20
-60.541733
 30
0.0
 10
5.915660
 20
-60.683973
 30
0.0
 10
5.821680
 20
-60.780493
 30
0.0
 10
5.725160
 20
-60.826213
 30
0.0
  0
LWPOLYLINE
  5
1d9
100
AcDbEntity
  8
0
 62
7
100
AcDbPolyline
 90
14
 70
0
 10
6.629400
 20
-60.541733
 30
0.0
 10
7.249160
 20
-60.541733
 30
0.0
 10
6.916420
 20
-60.922733
 30
0.0
 10
7.058660
 20
-60.922733
 30
0.0
 10
7.155180
 20
-60.970993
 30
0.0
 10
7.200900
 20
-61.016713
 30
0.0
 10
7.249160
 20
-61.113233
 30
0.0
 10
7.249160
 20
-61.351993
 30
0.0
 10
7.200900
 20
-61.445973
 30
0.0
 10
7.155180
 20
-61.494233
 30
0.0
 10
7.058660
 20
-61.542493
 30
0.0
 10
6.774180
 20
-61.542493
 30
0.0
 10
6.677660
 20
-61.494233
 30
0.0
 10
6.629400
 20
-61.445973
 30
0.0
  0
LWPOLYLINE
  5
1da
100
AcDbEntity
  8
0
 62
7
100
AcDbPolyline
 90
2
 70
0
 10
5.821680
 20
-63.706573
 30
0.0
 10
6.296660
 20
-63.706573
 30
0.0
  0
LWPOLYLINE
  5
1db
100
AcDbEntity
  8
0
 62
7
100
AcDbPolyline
 90
3
 70
0
 10
5.725160
 20
-63.991053
 30
0.0
 10
6.057900
 20
-62.992833
 30
0.0
 10
6.393180
 20
-63.991053
 30
0.0
  0
LWPOLYLINE
  5
1dc
100
AcDbEntity
  8
0
 62
7
100
AcDbPolyline
 90
2
 70
0
 10
7.249160
 20
-63.991053
 30
0.0
 10
6.677660
 20
-63.991053
 30
0.0
  0
LWPOLYLINE
  5
1dd
100
AcDbEntity
  8
0
 62
7
100
AcDbPolyline
 90
5
 70
0
 10
6.964680
 20
-63.991053
 30
0.0
 10
6.964680
 20
-62.992833
 30
0.0
 10
6.868160
 20
-63.135073
 30
0.0
 10
6.774180
 20
-63.229053
 30
0.0
 10
6.677660
 20
-63.277313
 30
0.0
  0
LWPOLYLINE
  5
1de
100
AcDbEntity
  8
0
 62
7
100
AcDbPolyline
 90
14
 70
0
 10
5.773420
 20
-65.662373
 30
0.0
 10
6.393180
 20
-65.662373
 30
0.0
 10
6.057900
 20
-66.043373
 30
0.0
 10
6.202680
 20
-66.043373
 30
0.0
 10
6.296660
 20
-66.089093
 30
0.0
 10
6.344920
 20
-66.137353
 30
0.0
 10
6.393180
 20
-66.233873
 30
0.0
 10
6.393180
 20
-66.470093
 30
0.0
 10
6.344920
 20
-66.566613
 30
0.0
 10
6.296660
 20
-66.614873
 30
0.0
 10
6.202680
 20
-66.660593
 30
0.0
 10
5.915660
 20
-66.660593
 30
0.0
 10
5.821680
 20
-66.614873
 30
0.0
 10
5.773420
 20
-66.566613
 30
0.0
  0
LWPOLYLINE
  5
1df
100
AcDbEntity
  8
0
 62
7
100
AcDbPolyline
 90
3
 70
0
 10
6.677660
 20
-65.662373
 30
0.0
 10
7.010400
 20
-66.660593
 30
0.0
 10
7.345680
 20
-65.662373
 30
0.0
  0
LWPOLYLINE
  5
1e0
100
AcDbEntity
  8
0
 62
7
100
AcDbPolyline
 90
20
 70
0
 10
44.660820
 20
-74.163753
 30
0.0
 10
44.709080
 20
-74.021513
 30
0.0
 10
44.709080
 20
-73.782753
 30
0.0
 10
44.660820
 20
-73.688773
 30
0.0
 10
44.612560
 20
-73.640513
 30
0.0
 10
44.518580
 20
-73.592253
 30
0.0
 10
44.422060
 20
-73.592253
 30
0.0
 10
44.328080
 20
-73.640513
 30
0.0
 10
44.279820
 20
-73.688773
 30
0.0
 10
44.231560
 20
-73.782753
 30
0.0
 10
44.185840
 20
-73.973253
 30
0.0
 10
44.137580
 20
-74.069773
 30
0.0
 10
44.089320
 20
-74.118033
 30
0.0
 10
43.995340
 20
-74.163753
 30
0.0
 10
43.898820
 20
-74.163753
 30
0.0
 10
43.804840
 20
-74.118033
 30
0.0
 10
43.756580
 20
-74.069773
 30
0.0
 10
43.708320
 20
-73.973253
 30
0.0
 10
43.708320
 20
-73.737033
 30
0.0
 10
43.756580
 20
-73.592253
 30
0.0
  0
LWPOLYLINE
  5
1e1
100
AcDbEntity
  8
0
 62
7
100
AcDbPolyline
 90
2
 70
0
 10
44.709080
 20
-73.165533
 30
0.0
 10
43.708320
 20
-73.165533
 30
0.0
  0
LWPOLYLINE
  5
1e2
100
AcDbEntity
  8
0
 62
7
100
AcDbPolyline
 90
7
 70
0
 10
44.709080
 20
-72.736273
 30
0.0
 10
44.185840
 20
-72.736273
 30
0.0
 10
44.089320
 20
-72.784533
 30
0.0
 10
44.041060
 20
-72.878513
 30
0.0
 10
44.041060
 20
-73.020753
 30
0.0
 10
44.089320
 20
-73.117273
 30
0.0
 10
44.137580
 20
-73.165533
 30
0.0
  0
LWPOLYLINE
  5
1e3
100
AcDbEntity
  8
0
 62
7
100
AcDbPolyline
 90
6
 70
0
 10
44.709080
 20
-71.832033
 30
0.0
 10
44.185840
 20
-71.832033
 30
0.0
 10
44.089320
 20
-71.877753
 30
0.0
 10
44.041060
 20
-71.974273
 30
0.0
 10
44.041060
 20
-72.164773
 30
0.0
 10
44.089320
 20
-72.258753
 30
0.0
  0
LWPOLYLINE
  5
1e4
100
AcDbEntity
  8
0
 62
7
100
AcDbPolyline
 90
10
 70
0
 10
44.660820
 20
-71.832033
 30
0.0
 10
44.709080
 20
-71.926013
 30
0.0
 10
44.709080
 20
-72.164773
 30
0.0
 10
44.660820
 20
-72.258753
 30
0.0
 10
44.566840
 20
-72.307013
 30
0.0
 10
44.470320
 20
-72.307013
 30
0.0
 10
44.376340
 20
-72.258753
 30
0.0
 10
44.328080
 20
-72.164773
 30
0.0
 10
44.328080
 20
-71.926013
 30
0.0
 10
44.279820
 20
-71.832033
 30
0.0
  0
LWPOLYLINE
  5
1e5
100
AcDbEntity
  8
0
 62
7
100
AcDbPolyline
 90
2
 70
0
 10
44.709080
 20
-71.354513
 30
0.0
 10
44.041060
 20
-71.354513
 30
0.0
  0
LWPOLYLINE
  5
1e6
100
AcDbEntity
  8
0
 62
7
100
AcDbPolyline
 90
5
 70
0
 10
44.231560
 20
-71.354513
 30
0.0
 10
44.137580
 20
-71.306253
 30
0.0
 10
44.089320
 20
-71.260533
 30
0.0
 10
44.041060
 20
-71.164013
 30
0.0
 10
44.041060
 20
-71.070033
 30
0.0
  0
LWPOLYLINE
  5
1e7
100
AcDbEntity
  8
0
 62
7
100
AcDbPolyline
 90
2
 70
0
 10
44.041060
 20
-70.734753
 30
0.0
 10
45.041820
 20
-70.734753
 30
0.0
  0
LWPOLYLINE
  5
1e8
100
AcDbEntity
  8
0
 62
7
100
AcDbPolyline
 90
12
 70
0
 10
44.089320
 20
-70.734753
 30
0.0
 10
44.041060
 20
-70.640773
 30
0.0
 10
44.041060
 20
-70.450273
 30
0.0
 10
44.089320
 20
-70.353753
 30
0.0
 10
44.137580
 20
-70.308033
 30
0.0
 10
44.231560
 20
-70.259773
 30
0.0
 10
44.518580
 20
-70.259773
 30
0.0
 10
44.612560
 20
-70.308033
 30
0.0
 10
44.660820
 20
-70.353753
 30
0.0
 10
44.709080
 20
-70.450273
 30
0.0
 10
44.709080
 20
-70.640773
 30
0.0
 10
44.660820
 20
-70.734753
 30
0.0
  0
LWPOLYLINE
  5
1e9
100
AcDbEntity
  8
0
 62
7
100
AcDbPolyline
 90
2
 70
0
 10
44.709080
 20
-68.641793
 30
0.0
 10
43.708320
 20
-68.641793
 30
0.0
  0
LWPOLYLINE
  5
1ea
100
AcDbEntity
  8
0
 62
7
100
AcDbPolyline
 90
12
 70
0
 10
44.660820
 20
-68.641793
 30
0.0
 10
44.709080
 20
-68.735773
 30
0.0
 10
44.709080
 20
-68.926273
 30
0.0
 10
44.660820
 20
-69.022793
 30
0.0
 10
44.612560
 20
-69.068513
 30
0.0
 10
44.518580
 20
-69.116773
 30
0.0
 10
44.231560
 20
-69.116773
 30
0.0
 10
44.137580
 20
-69.068513
 30
0.0
 10
44.089320
 20
-69.022793
 30
0.0
 10
44.041060
 20
-68.926273
 30
0.0
 10
44.041060
 20
-68.735773
 30
0.0
 10
44.089320
 20
-68.641793
 30
0.0
  0
LWPOLYLINE
  5
1eb
100
AcDbEntity
  8
0
 62
7
100
AcDbPolyline
 90
2
 70
0
 10
44.709080
 20
-68.164273
 30
0.0
 10
44.041060
 20
-68.164273
 30
0.0
  0
LWPOLYLINE
  5
1ec
100
AcDbEntity
  8
0
 62
7
100
AcDbPolyline
 90
6
 70
0
 10
43.708320
 20
-68.164273
 30
0.0
 10
43.756580
 20
-68.212533
 30
0.0
 10
43.804840
 20
-68.164273
 30
0.0
 10
43.756580
 20
-68.116013
 30
0.0
 10
43.708320
 20
-68.164273
 30
0.0
 10
43.804840
 20
-68.164273
 30
0.0
  0
LWPOLYLINE
  5
1ed
100
AcDbEntity
  8
0
 62
7
100
AcDbPolyline
 90
16
 70
0
 10
44.660820
 20
-67.735013
 30
0.0
 10
44.709080
 20
-67.641033
 30
0.0
 10
44.709080
 20
-67.450533
 30
0.0
 10
44.660820
 20
-67.354013
 30
0.0
 10
44.566840
 20
-67.308293
 30
0.0
 10
44.518580
 20
-67.308293
 30
0.0
 10
44.422060
 20
-67.354013
 30
0.0
 10
44.376340
 20
-67.450533
 30
0.0
 10
44.376340
 20
-67.592773
 30
0.0
 10
44.328080
 20
-67.689293
 30
0.0
 10
44.231560
 20
-67.735013
 30
0.0
 10
44.185840
 20
-67.735013
 30
0.0
 10
44.089320
 20
-67.689293
 30
0.0
 10
44.041060
 20
-67.592773
 30
0.0
 10
44.041060
 20
-67.450533
 30
0.0
 10
44.089320
 20
-67.354013
 30
0.0
  0
LWPOLYLINE
  5
1ee
100
AcDbEntity
  8
0
 62
7
100
AcDbPolyline
 90
2
 70
0
 10
44.041060
 20
-66.879033
 30
0.0
 10
45.041820
 20
-66.879033
 30
0.0
  0
LWPOLYLINE
  5
1ef
100
AcDbEntity
  8
0
 62
7
100
AcDbPolyline
 90
12
 70
0
 10
44.089320
 20
-66.879033
 30
0.0
 10
44.041060
 20
-66.782513
 30
0.0
 10
44.041060
 20
-66.592013
 30
0.0
 10
44.089320
 20
-66.498033
 30
0.0
 10
44.137580
 20
-66.449773
 30
0.0
 10
44.231560
 20
-66.401513
 30
0.0
 10
44.518580
 20
-66.401513
 30
0.0
 10
44.612560
 20
-66.449773
 30
0.0
 10
44.660820
 20
-66.498033
 30
0.0
 10
44.709080
 20
-66.592013
 30
0.0
 10
44.709080
 20
-66.782513
 30
0.0
 10
44.660820
 20
-66.879033
 30
0.0
  0
LWPOLYLINE
  5
1f0
100
AcDbEntity
  8
0
 62
7
100
AcDbPolyline
 90
4
 70
0
 10
44.709080
 20
-65.830013
 30
0.0
 10
44.660820
 20
-65.926533
 30
0.0
 10
44.566840
 20
-65.974793
 30
0.0
 10
43.708320
 20
-65.974793
 30
0.0
  0
LWPOLYLINE
  5
1f1
100
AcDbEntity
  8
0
 62
7
100
AcDbPolyline
 90
6
 70
0
 10
44.709080
 20
-65.022293
 30
0.0
 10
44.185840
 20
-65.022293
 30
0.0
 10
44.089320
 20
-65.068013
 30
0.0
 10
44.041060
 20
-65.164533
 30
0.0
 10
44.041060
 20
-65.355033
 30
0.0
 10
44.089320
 20
-65.449013
 30
0.0
  0
LWPOLYLINE
  5
1f2
100
AcDbEntity
  8
0
 62
7
100
AcDbPolyline
 90
10
 70
0
 10
44.660820
 20
-65.022293
 30
0.0
 10
44.709080
 20
-65.116273
 30
0.0
 10
44.709080
 20
-65.355033
 30
0.0
 10
44.660820
 20
-65.449013
 30
0.0
 10
44.566840
 20
-65.497273
 30
0.0
 10
44.470320
 20
-65.497273
 30
0.0
 10
44.376340
 20
-65.449013
 30
0.0
 10
44.328080
 20
-65.355033
 30
0.0
 10
44.328080
 20
-65.116273
 30
0.0
 10
44.279820
 20
-65.022293
 30
0.0
  0
LWPOLYLINE
  5
1f3
100
AcDbEntity
  8
0
 62
7
100
AcDbPolyline
 90
2
 70
0
 10
44.041060
 20
-64.641293
 30
0.0
 10
44.709080
 20
-64.402533
 30
0.0
  0
LWPOLYLINE
  5
1f4
100
AcDbEntity
  8
0
 62
7
100
AcDbPolyline
 90
5
 70
0
 10
44.041060
 20
-64.163773
 30
0.0
 10
44.709080
 20
-64.402533
 30
0.0
 10
44.947840
 20
-64.496513
 30
0.0
 10
44.993560
 20
-64.544773
 30
0.0
 10
45.041820
 20
-64.641293
 30
0.0
  0
LWPOLYLINE
  5
1f5
100
AcDbEntity
  8
0
 62
7
100
AcDbPolyline
 90
2
 70
0
 10
44.709080
 20
-63.020773
 30
0.0
 10
43.708320
 20
-63.020773
 30
0.0
  0
LWPOLYLINE
  5
1f6
100
AcDbEntity
  8
0
 62
7
100
AcDbPolyline
 90
12
 70
0
 10
44.089320
 20
-63.020773
 30
0.0
 10
44.041060
 20
-62.926793
 30
0.0
 10
44.041060
 20
-62.736293
 30
0.0
 10
44.089320
 20
-62.639773
 30
0.0
 10
44.137580
 20
-62.594053
 30
0.0
 10
44.231560
 20
-62.545793
 30
0.0
 10
44.518580
 20
-62.545793
 30
0.0
 10
44.612560
 20
-62.594053
 30
0.0
 10
44.660820
 20
-62.639773
 30
0.0
 10
44.709080
 20
-62.736293
 30
0.0
 10
44.709080
 20
-62.926793
 30
0.0
 10
44.660820
 20
-63.020773
 30
0.0
  0
LWPOLYLINE
  5
1f7
100
AcDbEntity
  8
0
 62
7
100
AcDbPolyline
 90
2
 70
0
 10
44.709080
 20
-62.116533
 30
0.0
 10
44.041060
 20
-62.116533
 30
0.0
  0
LWPOLYLINE
  5
1f8
100
AcDbEntity
  8
0
 62
7
100
AcDbPolyline
 90
5
 70
0
 10
44.231560
 20
-62.116533
 30
0.0
 10
44.137580
 20
-62.068273
 30
0.0
 10
44.089320
 20
-62.022553
 30
0.0
 10
44.041060
 20
-61.926033
 30
0.0
 10
44.041060
 20
-61.832053
 30
0.0
  0
LWPOLYLINE
  5
1f9
100
AcDbEntity
  8
0
 62
7
100
AcDbPolyline
 90
13
 70
0
 10
44.660820
 20
-61.115773
 30
0.0
 10
44.709080
 20
-61.212293
 30
0.0
 10
44.709080
 20
-61.402793
 30
0.0
 10
44.660820
 20
-61.496773
 30
0.0
 10
44.566840
 20
-61.545033
 30
0.0
 10
44.185840
 20
-61.545033
 30
0.0
 10
44.089320
 20
-61.496773
 30
0.0
 10
44.041060
 20
-61.402793
 30
0.0
 10
44.041060
 20
-61.212293
 30
0.0
 10
44.089320
 20
-61.115773
 30
0.0
 10
44.185840
 20
-61.070053
 30
0.0
 10
44.279820
 20
-61.070053
 30
0.0
 10
44.376340
 20
-61.545033
 30
0.0
  0
LWPOLYLINE
  5
1fa
100
AcDbEntity
  8
0
 62
7
100
AcDbPolyline
 90
6
 70
0
 10
44.709080
 20
-60.211533
 30
0.0
 10
44.185840
 20
-60.211533
 30
0.0
 10
44.089320
 20
-60.259793
 30
0.0
 10
44.041060
 20
-60.353773
 30
0.0
 10
44.041060
 20
-60.544273
 30
0.0
 10
44.089320
 20
-60.640793
 30
0.0
  0
LWPOLYLINE
  5
1fb
100
AcDbEntity
  8
0
 62
7
100
AcDbPolyline
 90
10
 70
0
 10
44.660820
 20
-60.211533
 30
0.0
 10
44.709080
 20
-60.308053
 30
0.0
 10
44.709080
 20
-60.544273
 30
0.0
 10
44.660820
 20
-60.640793
 30
0.0
 10
44.566840
 20
-60.689053
 30
0.0
 10
44.470320
 20
-60.689053
 30
0.0
 10
44.376340
 20
-60.640793
 30
0.0
 10
44.328080
 20
-60.544273
 30
0.0
 10
44.328080
 20
-60.308053
 30
0.0
 10
44.279820
 20
-60.211533
 30
0.0
  0
LWPOLYLINE
  5
1fc
100
AcDbEntity
  8
0
 62
7
100
AcDbPolyline
 90
2
 70
0
 10
44.709080
 20
-59.736553
 30
0.0
 10
43.708320
 20
-59.736553
 30
0.0
  0
LWPOLYLINE
  5
1fd
100
AcDbEntity
  8
0
 62
7
100
AcDbPolyline
 90
2
 70
0
 10
44.328080
 20
-59.640033
 30
0.0
 10
44.709080
 20
-59.355553
 30
0.0
  0
LWPOLYLINE
  5
1fe
100
AcDbEntity
  8
0
 62
7
100
AcDbPolyline
 90
2
 70
0
 10
44.041060
 20
-59.355553
 30
0.0
 10
44.422060
 20
-59.736553
 30
0.0
  0
LWPOLYLINE
  5
1ff
100
AcDbEntity
  8
0
 62
7
100
AcDbPolyline
 90
16
 70
1
 10
44.709080
 20
-58.784053
 30
0.0
 10
44.660820
 20
-58.878033
 30
0.0
 10
44.612560
 20
-58.926293
 30
0.0
 10
44.518580
 20
-58.974553
 30
0.0
 10
44.231560
 20
-58.974553
 30
0.0
 10
44.137580
 20
-58.926293
 30
0.0
 10
44.089320
 20
-58.878033
 30
0.0
 10
44.041060
 20
-58.784053
 30
0.0
 10
44.041060
 20
-58.641813
 30
0.0
 10
44.089320
 20
-58.545293
 30
0.0
 10
44.137580
 20
-58.497033
 30
0.0
 10
44.231560
 20
-58.451313
 30
0.0
 10
44.518580
 20
-58.451313
 30
0.0
 10
44.612560
 20
-58.497033
 30
0.0
 10
44.660820
 20
-58.545293
 30
0.0
 10
44.709080
 20
-58.641813
 30
0.0
  0
LWPOLYLINE
  5
200
100
AcDbEntity
  8
0
 62
7
100
AcDbPolyline
 90
2
 70
0
 10
44.041060
 20
-57.592793
 30
0.0
 10
44.709080
 20
-57.592793
 30
0.0
  0
LWPOLYLINE
  5
201
100
AcDbEntity
  8
0
 62
7
100
AcDbPolyline
 90
7
 70
0
 10
44.041060
 20
-58.022053
 30
0.0
 10
44.566840
 20
-58.022053
 30
0.0
 10
44.660820
 20
-57.973793
 30
0.0
 10
44.709080
 20
-57.879813
 30
0.0
 10
44.709080
 20
-57.735033
 30
0.0
 10
44.660820
 20
-57.641053
 30
0.0
 10
44.612560
 20
-57.592793
 30
0.0
  0
LWPOLYLINE
  5
202
100
AcDbEntity
  8
0
 62
7
100
AcDbPolyline
 90
2
 70
0
 10
44.041060
 20
-57.260053
 30
0.0
 10
44.041060
 20
-56.879053
 30
0.0
  0
LWPOLYLINE
  5
203
100
AcDbEntity
  8
0
 62
7
100
AcDbPolyline
 90
5
 70
0
 10
43.708320
 20
-57.117813
 30
0.0
 10
44.566840
 20
-57.117813
 30
0.0
 10
44.660820
 20
-57.069553
 30
0.0
 10
44.709080
 20
-56.973033
 30
0.0
 10
44.709080
 20
-56.879053
 30
0.0
  0
LWPOLYLINE
  5
204
100
AcDbEntity
  8
0
 62
7
100
AcDbPolyline
 90
20
 70
0
 10
35.862260
 20
-67.016193
 30
0.0
 10
35.907980
 20
-66.871413
 30
0.0
 10
35.907980
 20
-66.635193
 30
0.0
 10
35.862260
 20
-66.538673
 30
0.0
 10
35.814000
 20
-66.490413
 30
0.0
 10
35.717480
 20
-66.444693
 30
0.0
 10
35.623500
 20
-66.444693
 30
0.0
 10
35.526980
 20
-66.490413
 30
0.0
 10
35.481260
 20
-66.538673
 30
0.0
 10
35.433000
 20
-66.635193
 30
0.0
 10
35.384740
 20
-66.825693
 30
0.0
 10
35.336480
 20
-66.919673
 30
0.0
 10
35.290760
 20
-66.967933
 30
0.0
 10
35.194240
 20
-67.016193
 30
0.0
 10
35.100260
 20
-67.016193
 30
0.0
 10
35.003740
 20
-66.967933
 30
0.0
 10
34.955480
 20
-66.919673
 30
0.0
 10
34.909760
 20
-66.825693
 30
0.0
 10
34.909760
 20
-66.586933
 30
0.0
 10
34.955480
 20
-66.444693
 30
0.0
  0
LWPOLYLINE
  5
205
100
AcDbEntity
  8
0
 62
7
100
AcDbPolyline
 90
2
 70
0
 10
35.907980
 20
-66.015433
 30
0.0
 10
34.909760
 20
-66.015433
 30
0.0
  0
LWPOLYLINE
  5
206
100
AcDbEntity
  8
0
 62
7
100
AcDbPolyline
 90
7
 70
0
 10
35.907980
 20
-65.586173
 30
0.0
 10
35.384740
 20
-65.586173
 30
0.0
 10
35.290760
 20
-65.634433
 30
0.0
 10
35.242500
 20
-65.728413
 30
0.0
 10
35.242500
 20
-65.873193
 30
0.0
 10
35.290760
 20
-65.967173
 30
0.0
 10
35.336480
 20
-66.015433
 30
0.0
  0
LWPOLYLINE
  5
207
100
AcDbEntity
  8
0
 62
7
100
AcDbPolyline
 90
6
 70
0
 10
35.907980
 20
-64.681933
 30
0.0
 10
35.384740
 20
-64.681933
 30
0.0
 10
35.290760
 20
-64.730193
 30
0.0
 10
35.242500
 20
-64.824173
 30
0.0
 10
35.242500
 20
-65.014673
 30
0.0
 10
35.290760
 20
-65.111193
 30
0.0
  0
LWPOLYLINE
  5
208
100
AcDbEntity
  8
0
 62
7
100
AcDbPolyline
 90
10
 70
0
 10
35.862260
 20
-64.681933
 30
0.0
 10
35.907980
 20
-64.778453
 30
0.0
 10
35.907980
 20
-65.014673
 30
0.0
 10
35.862260
 20
-65.111193
 30
0.0
 10
35.765740
 20
-65.159453
 30
0.0
 10
35.671760
 20
-65.159453
 30
0.0
 10
35.575240
 20
-65.111193
 30
0.0
 10
35.526980
 20
-65.014673
 30
0.0
 10
35.526980
 20
-64.778453
 30
0.0
 10
35.481260
 20
-64.681933
 30
0.0
  0
LWPOLYLINE
  5
209
100
AcDbEntity
  8
0
 62
7
100
AcDbPolyline
 90
2
 70
0
 10
35.907980
 20
-64.206953
 30
0.0
 10
35.242500
 20
-64.206953
 30
0.0
  0
LWPOLYLINE
  5
20a
100
AcDbEntity
  8
0
 62
7
100
AcDbPolyline
 90
5
 70
0
 10
35.433000
 20
-64.206953
 30
0.0
 10
35.336480
 20
-64.158693
 30
0.0
 10
35.290760
 20
-64.110433
 30
0.0
 10
35.242500
 20
-64.016453
 30
0.0
 10
35.242500
 20
-63.919933
 30
0.0
  0
LWPOLYLINE
  5
20b
100
AcDbEntity
  8
0
 62
7
100
AcDbPolyline
 90
2
 70
0
 10
35.242500
 20
-63.587193
 30
0.0
 10
36.243260
 20
-63.587193
 30
0.0
  0
LWPOLYLINE
  5
20c
100
AcDbEntity
  8
0
 62
7
100
AcDbPolyline
 90
12
 70
0
 10
35.290760
 20
-63.587193
 30
0.0
 10
35.242500
 20
-63.490673
 30
0.0
 10
35.242500
 20
-63.300173
 30
0.0
 10
35.290760
 20
-63.206193
 30
0.0
 10
35.336480
 20
-63.157933
 30
0.0
 10
35.433000
 20
-63.109673
 30
0.0
 10
35.717480
 20
-63.109673
 30
0.0
 10
35.814000
 20
-63.157933
 30
0.0
 10
35.862260
 20
-63.206193
 30
0.0
 10
35.907980
 20
-63.300173
 30
0.0
 10
35.907980
 20
-63.490673
 30
0.0
 10
35.862260
 20
-63.587193
 30
0.0
  0
LWPOLYLINE
  5
20d
100
AcDbEntity
  8
0
 62
7
100
AcDbPolyline
 90
2
 70
0
 10
35.907980
 20
-61.491693
 30
0.0
 10
34.909760
 20
-61.491693
 30
0.0
  0
LWPOLYLINE
  5
20e
100
AcDbEntity
  8
0
 62
7
100
AcDbPolyline
 90
12
 70
0
 10
35.862260
 20
-61.491693
 30
0.0
 10
35.907980
 20
-61.585673
 30
0.0
 10
35.907980
 20
-61.776173
 30
0.0
 10
35.862260
 20
-61.872693
 30
0.0
 10
35.814000
 20
-61.920953
 30
0.0
 10
35.717480
 20
-61.966673
 30
0.0
 10
35.433000
 20
-61.966673
 30
0.0
 10
35.336480
 20
-61.920953
 30
0.0
 10
35.290760
 20
-61.872693
 30
0.0
 10
35.242500
 20
-61.776173
 30
0.0
 10
35.242500
 20
-61.585673
 30
0.0
 10
35.290760
 20
-61.491693
 30
0.0
  0
LWPOLYLINE
  5
20f
100
AcDbEntity
  8
0
 62
7
100
AcDbPolyline
 90
2
 70
0
 10
35.907980
 20
-61.014173
 30
0.0
 10
35.242500
 20
-61.014173
 30
0.0
  0
LWPOLYLINE
  5
210
100
AcDbEntity
  8
0
 62
7
100
AcDbPolyline
 90
6
 70
0
 10
34.909760
 20
-61.014173
 30
0.0
 10
34.955480
 20
-61.062433
 30
0.0
 10
35.003740
 20
-61.014173
 30
0.0
 10
34.955480
 20
-60.968453
 30
0.0
 10
34.909760
 20
-61.014173
 30
0.0
 10
35.003740
 20
-61.014173
 30
0.0
  0
LWPOLYLINE
  5
211
100
AcDbEntity
  8
0
 62
7
100
AcDbPolyline
 90
16
 70
0
 10
35.862260
 20
-60.587453
 30
0.0
 10
35.907980
 20
-60.490933
 30
0.0
 10
35.907980
 20
-60.300433
 30
0.0
 10
35.862260
 20
-60.206453
 30
0.0
 10
35.765740
 20
-60.158193
 30
0.0
 10
35.717480
 20
-60.158193
 30
0.0
 10
35.623500
 20
-60.206453
 30
0.0
 10
35.575240
 20
-60.300433
 30
0.0
 10
35.575240
 20
-60.445213
 30
0.0
 10
35.526980
 20
-60.539193
 30
0.0
 10
35.433000
 20
-60.587453
 30
0.0
 10
35.384740
 20
-60.587453
 30
0.0
 10
35.290760
 20
-60.539193
 30
0.0
 10
35.242500
 20
-60.445213
 30
0.0
 10
35.242500
 20
-60.300433
 30
0.0
 10
35.290760
 20
-60.206453
 30
0.0
  0
LWPOLYLINE
  5
212
100
AcDbEntity
  8
0
 62
7
100
AcDbPolyline
 90
2
 70
0
 10
35.242500
 20
-59.728933
 30
0.0
 10
36.243260
 20
-59.728933
 30
0.0
  0
LWPOLYLINE
  5
213
100
AcDbEntity
  8
0
 62
7
100
AcDbPolyline
 90
12
 70
0
 10
35.290760
 20
-59.728933
 30
0.0
 10
35.242500
 20
-59.634953
 30
0.0
 10
35.242500
 20
-59.444453
 30
0.0
 10
35.290760
 20
-59.347933
 30
0.0
 10
35.336480
 20
-59.302213
 30
0.0
 10
35.433000
 20
-59.253953
 30
0.0
 10
35.717480
 20
-59.253953
 30
0.0
 10
35.814000
 20
-59.302213
 30
0.0
 10
35.862260
 20
-59.347933
 30
0.0
 10
35.907980
 20
-59.444453
 30
0.0
 10
35.907980
 20
-59.634953
 30
0.0
 10
35.862260
 20
-59.728933
 30
0.0
  0
LWPOLYLINE
  5
214
100
AcDbEntity
  8
0
 62
7
100
AcDbPolyline
 90
4
 70
0
 10
35.907980
 20
-58.682453
 30
0.0
 10
35.862260
 20
-58.776433
 30
0.0
 10
35.765740
 20
-58.824693
 30
0.0
 10
34.909760
 20
-58.824693
 30
0.0
  0
LWPOLYLINE
  5
215
100
AcDbEntity
  8
0
 62
7
100
AcDbPolyline
 90
6
 70
0
 10
35.907980
 20
-57.872193
 30
0.0
 10
35.384740
 20
-57.872193
 30
0.0
 10
35.290760
 20
-57.920453
 30
0.0
 10
35.242500
 20
-58.014433
 30
0.0
 10
35.242500
 20
-58.204933
 30
0.0
 10
35.290760
 20
-58.301453
 30
0.0
  0
LWPOLYLINE
  5
216
100
AcDbEntity
  8
0
 62
7
100
AcDbPolyline
 90
10
 70
0
 10
35.862260
 20
-57.872193
 30
0.0
 10
35.907980
 20
-57.968713
 30
0.0
 10
35.907980
 20
-58.204933
 30
0.0
 10
35.862260
 20
-58.301453
 30
0.0
 10
35.765740
 20
-58.349713
 30
0.0
 10
35.671760
 20
-58.349713
 30
0.0
 10
35.575240
 20
-58.301453
 30
0.0
 10
35.526980
 20
-58.204933
 30
0.0
 10
35.526980
 20
-57.968713
 30
0.0
 10
35.481260
 20
-57.872193
 30
0.0
  0
LWPOLYLINE
  5
217
100
AcDbEntity
  8
0
 62
7
100
AcDbPolyline
 90
2
 70
0
 10
35.242500
 20
-57.491193
 30
0.0
 10
35.907980
 20
-57.252433
 30
0.0
  0
LWPOLYLINE
  5
218
100
AcDbEntity
  8
0
 62
7
100
AcDbPolyline
 90
5
 70
0
 10
35.242500
 20
-57.016213
 30
0.0
 10
35.907980
 20
-57.252433
 30
0.0
 10
36.146740
 20
-57.348953
 30
0.0
 10
36.195000
 20
-57.397213
 30
0.0
 10
36.243260
 20
-57.491193
 30
0.0
  0
LWPOLYLINE
  5
219
100
AcDbEntity
  8
0
 62
7
100
AcDbPolyline
 90
6
 70
0
 10
43.007280
 20
-109.368153
 30
0.0
 10
43.007280
 20
-110.295253
 30
0.0
 10
42.946320
 20
-110.480673
 30
0.0
 10
42.821860
 20
-110.605133
 30
0.0
 10
42.636440
 20
-110.666093
 30
0.0
 10
42.511980
 20
-110.666093
 30
0.0
  0
LWPOLYLINE
  5
21a
100
AcDbEntity
  8
0
 62
7
100
AcDbPolyline
 90
20
 70
0
 10
43.566080
 20
-110.605133
 30
0.0
 10
43.751500
 20
-110.666093
 30
0.0
 10
44.058840
 20
-110.666093
 30
0.0
 10
44.183300
 20
-110.605133
 30
0.0
 10
44.246800
 20
-110.544173
 30
0.0
 10
44.307760
 20
-110.419713
 30
0.0
 10
44.307760
 20
-110.295253
 30
0.0
 10
44.246800
 20
-110.170793
 30
0.0
 10
44.183300
 20
-110.109833
 30
0.0
 10
44.058840
 20
-110.048873
 30
0.0
 10
43.812460
 20
-109.985373
 30
0.0
 10
43.688000
 20
-109.924413
 30
0.0
 10
43.627040
 20
-109.863453
 30
0.0
 10
43.566080
 20
-109.738993
 30
0.0
 10
43.566080
 20
-109.614533
 30
0.0
 10
43.627040
 20
-109.490073
 30
0.0
 10
43.688000
 20
-109.429113
 30
0.0
 10
43.812460
 20
-109.368153
 30
0.0
 10
44.122340
 20
-109.368153
 30
0.0
 10
44.307760
 20
-109.429113
 30
0.0
  0
LWPOLYLINE
  5
21b
100
AcDbEntity
  8
0
 62
7
100
AcDbPolyline
 90
2
 70
0
 10
44.678600
 20
-109.368153
 30
0.0
 10
45.422820
 20
-109.368153
 30
0.0
  0
LWPOLYLINE
  5
21c
100
AcDbEntity
  8
0
 62
7
100
AcDbPolyline
 90
2
 70
0
 10
45.049440
 20
-110.666093
 30
0.0
 10
45.049440
 20
-109.368153
 30
0.0
  0
LWPOLYLINE
  5
21d
100
AcDbEntity
  8
0
 62
7
100
AcDbPolyline
 90
14
 70
0
 10
42.016680
 20
-107.328533
 30
0.0
 10
42.821860
 20
-107.328533
 30
0.0
 10
42.387520
 20
-107.821293
 30
0.0
 10
42.575480
 20
-107.821293
 30
0.0
 10
42.697400
 20
-107.884793
 30
0.0
 10
42.760900
 20
-107.945753
 30
0.0
 10
42.821860
 20
-108.070213
 30
0.0
 10
42.821860
 20
-108.380093
 30
0.0
 10
42.760900
 20
-108.504553
 30
0.0
 10
42.697400
 20
-108.565513
 30
0.0
 10
42.575480
 20
-108.626473
 30
0.0
 10
42.202100
 20
-108.626473
 30
0.0
 10
42.080180
 20
-108.565513
 30
0.0
 10
42.016680
 20
-108.504553
 30
0.0
  0
LWPOLYLINE
  5
21e
100
AcDbEntity
  8
0
 62
7
100
AcDbPolyline
 90
6
 70
0
 10
43.378120
 20
-108.504553
 30
0.0
 10
43.441620
 20
-108.565513
 30
0.0
 10
43.378120
 20
-108.626473
 30
0.0
 10
43.317160
 20
-108.565513
 30
0.0
 10
43.378120
 20
-108.504553
 30
0.0
 10
43.378120
 20
-108.626473
 30
0.0
  0
LWPOLYLINE
  5
21f
100
AcDbEntity
  8
0
 62
7
100
AcDbPolyline
 90
3
 70
0
 10
43.873420
 20
-107.328533
 30
0.0
 10
44.742100
 20
-107.328533
 30
0.0
 10
44.183300
 20
-108.626473
 30
0.0
  0
LWPOLYLINE
  5
220
100
AcDbEntity
  8
0
 62
7
100
AcDbPolyline
 90
3
 70
0
 10
45.049440
 20
-107.328533
 30
0.0
 10
45.483780
 20
-108.626473
 30
0.0
 10
45.918120
 20
-107.328533
 30
0.0
  0
LWPOLYLINE
  5
221
100
AcDbEntity
  8
0
 62
7
100
AcDbPolyline
 90
2
 70
0
 10
50.256440
 20
-100.488313
 30
0.0
 10
55.336440
 20
-100.488313
 30
0.0
  0
LWPOLYLINE
  5
222
100
AcDbEntity
  8
0
 62
7
100
AcDbPolyline
 90
2
 70
0
 10
50.256440
 20
-91.598313
 30
0.0
 10
50.256440
 20
-100.488313
 30
0.0
  0
LWPOLYLINE
  5
223
100
AcDbEntity
  8
0
 62
7
100
AcDbPolyline
 90
2
 70
0
 10
55.336440
 20
-91.598313
 30
0.0
 10
50.256440
 20
-91.598313
 30
0.0
  0
LWPOLYLINE
  5
224
100
AcDbEntity
  8
0
 62
7
100
AcDbPolyline
 90
2
 70
0
 10
46.446440
 20
-111.179173
 30
0.0
 10
46.446440
 20
-104.933313
 30
0.0
  0
LWPOLYLINE
  5
225
100
AcDbEntity
  8
0
 62
7
100
AcDbPolyline
 90
2
 70
0
 10
41.366440
 20
-104.044313
 30
0.0
 10
41.366440
 20
-111.329033
 30
0.0
  0
LWPOLYLINE
  5
226
100
AcDbEntity
  8
0
 62
7
100
AcDbPolyline
 90
2
 70
0
 10
50.271680
 20
-83.406813
 30
0.0
 10
50.271680
 20
-84.735233
 30
0.0
  0
LWPOLYLINE
  5
227
100
AcDbEntity
  8
0
 62
7
100
AcDbPolyline
 90
2
 70
0
 10
48.940720
 20
-83.406813
 30
0.0
 10
50.271680
 20
-83.406813
 30
0.0
  0
LWPOLYLINE
  5
228
100
AcDbEntity
  8
0
 62
7
100
AcDbPolyline
 90
3
 70
0
 10
47.670720
 20
-83.406813
 30
0.0
 10
47.670720
 20
-86.066193
 30
0.0
 10
9.509760
 20
-86.066193
 30
0.0
  0
LWPOLYLINE
  5
229
100
AcDbEntity
  8
0
 62
7
100
AcDbPolyline
 90
2
 70
0
 10
9.509760
 20
-83.406813
 30
0.0
 10
9.509760
 20
-86.066193
 30
0.0
  0
LWPOLYLINE
  5
22a
100
AcDbEntity
  8
0
 62
7
100
AcDbPolyline
 90
2
 70
0
 10
38.699440
 20
-103.726813
 30
0.0
 10
40.030400
 20
-103.726813
 30
0.0
  0
LWPOLYLINE
  5
22b
100
AcDbEntity
  8
0
 62
7
100
AcDbPolyline
 90
2
 70
0
 10
37.429440
 20
-106.386193
 30
0.0
 10
9.380220
 20
-106.386193
 30
0.0
  0
LWPOLYLINE
  5
22c
100
AcDbEntity
  8
0
 62
7
100
AcDbPolyline
 90
2
 70
0
 10
37.429440
 20
-103.726813
 30
0.0
 10
9.380220
 20
-103.726813
 30
0.0
  0
LWPOLYLINE
  5
22d
100
AcDbEntity
  8
0
 62
7
100
AcDbPolyline
 90
2
 70
0
 10
37.429440
 20
-103.726813
 30
0.0
 10
37.429440
 20
-106.386193
 30
0.0
  0
LWPOLYLINE
  5
22e
100
AcDbEntity
  8
0
 62
7
100
AcDbPolyline
 90
2
 70
0
 10
40.030400
 20
-103.726813
 30
0.0
 10
40.030400
 20
-105.055233
 30
0.0
  0
LWPOLYLINE
  5
22f
100
AcDbEntity
  8
0
 62
7
100
AcDbPolyline
 90
2
 70
0
 10
9.380220
 20
-103.726813
 30
0.0
 10
9.380220
 20
-106.386193
 30
0.0
  0
LWPOLYLINE
  5
230
100
AcDbEntity
  8
0
 62
7
100
AcDbPolyline
 90
2
 70
0
 10
4.490720
 20
-83.406813
 30
0.0
 10
55.290720
 20
-83.406813
 30
0.0
  0
LWPOLYLINE
  5
231
100
AcDbEntity
  8
0
 62
7
100
AcDbPolyline
 90
3
 70
0
 10
4.490720
 20
-106.396353
 30
0.0
 10
55.290720
 20
-106.396353
 30
0.0
 10
55.290720
 20
-83.406813
 30
0.0
  0
LWPOLYLINE
  5
232
100
AcDbEntity
  8
0
 62
7
100
AcDbPolyline
 90
2
 70
0
 10
4.490720
 20
-83.406813
 30
0.0
 10
4.490720
 20
-106.396353
 30
0.0
  0
LWPOLYLINE
  5
233
100
AcDbEntity
  8
0
 62
7
100
AcDbPolyline
 90
2
 70
0
 10
45.125640
 20
-37.719833
 30
0.0
 10
34.886900
 20
-37.719833
 30
0.0
  0
LWPOLYLINE
  5
234
100
AcDbEntity
  8
0
 62
7
100
AcDbPolyline
 90
2
 70
0
 10
45.125640
 20
-28.230393
 30
0.0
 10
34.886900
 20
-28.230393
 30
0.0
  0
LWPOLYLINE
  5
235
100
AcDbEntity
  8
0
 62
7
100
AcDbPolyline
 90
2
 70
0
 10
45.125640
 20
-37.719833
 30
0.0
 10
45.125640
 20
-28.230393
 30
0.0
  0
LWPOLYLINE
  5
236
100
AcDbEntity
  8
0
 62
7
100
AcDbPolyline
 90
2
 70
0
 10
34.886900
 20
-37.719833
 30
0.0
 10
34.886900
 20
-28.230393
 30
0.0
  0
LWPOLYLINE
  5
237
100
AcDbEntity
  8
0
 62
7
100
AcDbPolyline
 90
2
 70
0
 10
45.125640
 20
-21.829593
 30
0.0
 10
43.926760
 20
-21.829593
 30
0.0
  0
LWPOLYLINE
  5
238
100
AcDbEntity
  8
0
 62
7
100
AcDbPolyline
 90
2
 70
0
 10
42.727880
 20
-21.829593
 30
0.0
 10
41.526460
 20
-21.829593
 30
0.0
  0
LWPOLYLINE
  5
239
100
AcDbEntity
  8
0
 62
7
100
AcDbPolyline
 90
2
 70
0
 10
40.325040
 20
-21.829593
 30
0.0
 10
39.126160
 20
-21.829593
 30
0.0
  0
LWPOLYLINE
  5
23a
100
AcDbEntity
  8
0
 62
7
100
AcDbPolyline
 90
2
 70
0
 10
37.927280
 20
-21.829593
 30
0.0
 10
36.725860
 20
-21.829593
 30
0.0
  0
LWPOLYLINE
  5
23b
100
AcDbEntity
  8
0
 62
7
100
AcDbPolyline
 90
2
 70
0
 10
35.526980
 20
-21.829593
 30
0.0
 10
34.886900
 20
-21.829593
 30
0.0
  0
LWPOLYLINE
  5
23c
100
AcDbEntity
  8
0
 62
7
100
AcDbPolyline
 90
2
 70
0
 10
45.125640
 20
-27.989093
 30
0.0
 10
45.125640
 20
-26.790213
 30
0.0
  0
LWPOLYLINE
  5
23d
100
AcDbEntity
  8
0
 62
7
100
AcDbPolyline
 90
2
 70
0
 10
45.125640
 20
-25.588793
 30
0.0
 10
45.125640
 20
-24.389913
 30
0.0
  0
LWPOLYLINE
  5
23e
100
AcDbEntity
  8
0
 62
7
100
AcDbPolyline
 90
2
 70
0
 10
45.125640
 20
-23.188493
 30
0.0
 10
45.125640
 20
-21.989613
 30
0.0
  0
LWPOLYLINE
  5
23f
100
AcDbEntity
  8
0
 62
7
100
AcDbPolyline
 90
2
 70
0
 10
34.886900
 20
-27.989093
 30
0.0
 10
34.886900
 20
-26.790213
 30
0.0
  0
LWPOLYLINE
  5
240
100
AcDbEntity
  8
0
 62
7
100
AcDbPolyline
 90
2
 70
0
 10
34.886900
 20
-25.588793
 30
0.0
 10
34.886900
 20
-24.389913
 30
0.0
  0
LWPOLYLINE
  5
241
100
AcDbEntity
  8
0
 62
7
100
AcDbPolyline
 90
2
 70
0
 10
34.886900
 20
-23.188493
 30
0.0
 10
34.886900
 20
-21.989613
 30
0.0
  0
LWPOLYLINE
  5
242
100
AcDbEntity
  8
0
 62
7
100
AcDbPolyline
 90
2
 70
0
 10
42.547540
 20
-40.259833
 30
0.0
 10
42.547540
 20
-37.719833
 30
0.0
  0
LWPOLYLINE
  5
243
100
AcDbEntity
  8
0
 62
7
100
AcDbPolyline
 90
2
 70
0
 10
40.007540
 20
-40.259833
 30
0.0
 10
40.007540
 20
-37.719833
 30
0.0
  0
LWPOLYLINE
  5
244
100
AcDbEntity
  8
0
 62
7
100
AcDbPolyline
 90
2
 70
0
 10
37.467540
 20
-40.259833
 30
0.0
 10
37.467540
 20
-37.719833
 30
0.0
  0
LWPOLYLINE
  5
245
100
AcDbEntity
  8
0
 62
7
100
AcDbPolyline
 90
2
 70
0
 10
7.617460
 20
-67.219393
 30
0.0
 10
10.276840
 20
-67.219393
 30
0.0
  0
LWPOLYLINE
  5
246
100
AcDbEntity
  8
0
 62
7
100
AcDbPolyline
 90
2
 70
0
 10
7.617460
 20
-54.458433
 30
0.0
 10
7.617460
 20
-67.219393
 30
0.0
  0
LWPOLYLINE
  5
247
100
AcDbEntity
  8
0
 62
7
100
AcDbPolyline
 90
2
 70
0
 10
10.276840
 20
-54.458433
 30
0.0
 10
10.276840
 20
-67.219393
 30
0.0
  0
LWPOLYLINE
  5
248
100
AcDbEntity
  8
0
 62
7
100
AcDbPolyline
 90
2
 70
0
 10
7.617460
 20
-54.458433
 30
0.0
 10
10.276840
 20
-54.458433
 30
0.0
  0
LWPOLYLINE
  5
249
100
AcDbEntity
  8
0
 62
7
100
AcDbPolyline
 90
3
 70
0
 10
7.617460
 20
-53.188433
 30
0.0
 10
7.617460
 20
-51.860013
 30
0.0
 10
8.945880
 20
-51.860013
 30
0.0
  0
LWPOLYLINE
  5
24a
100
AcDbEntity
  8
0
 62
7
100
AcDbPolyline
 90
2
 70
0
 10
14.185900
 20
-15.469433
 30
0.0
 10
14.185900
 20
-19.068613
 30
0.0
  0
LWPOLYLINE
  5
24b
100
AcDbEntity
  8
0
 62
7
100
AcDbPolyline
 90
2
 70
0
 10
21.546820
 20
-15.469433
 30
0.0
 10
21.546820
 20
-19.068613
 30
0.0
  0
LWPOLYLINE
  5
24c
100
AcDbEntity
  8
0
 62
7
100
AcDbPolyline
 90
2
 70
0
 10
16.065500
 20
-20.948213
 30
0.0
 10
19.667220
 20
-20.948213
 30
0.0
  0
LWPOLYLINE
  5
24d
100
AcDbEntity
  8
0
 62
7
100
AcDbPolyline
 90
2
 70
0
 10
16.065500
 20
-13.589833
 30
0.0
 10
19.667220
 20
-13.589833
 30
0.0
  0
LWPOLYLINE
  5
24e
100
AcDbEntity
  8
0
 62
7
100
AcDbPolyline
 90
2
 70
0
 10
49.382680
 20
-46.439653
 30
0.0
 10
49.151540
 20
-46.439653
 30
0.0
  0
LWPOLYLINE
  5
24f
100
AcDbEntity
  8
0
 62
7
100
AcDbPolyline
 90
3
 70
0
 10
53.050440
 20
-45.918953
 30
0.0
 10
53.050440
 20
-53.640553
 30
0.0
 10
49.151540
 20
-53.640553
 30
0.0
  0
LWPOLYLINE
  5
250
100
AcDbEntity
  8
0
 62
7
100
AcDbPolyline
 90
2
 70
0
 10
46.042580
 20
-45.918953
 30
0.0
 10
46.042580
 20
-46.439653
 30
0.0
  0
LWPOLYLINE
  5
251
100
AcDbEntity
  8
0
 62
7
100
AcDbPolyline
 90
2
 70
0
 10
53.050440
 20
-45.918953
 30
0.0
 10
49.151540
 20
-45.918953
 30
0.0
  0
LWPOLYLINE
  5
252
100
AcDbEntity
  8
0
 62
7
100
AcDbPolyline
 90
2
 70
0
 10
49.382680
 20
-53.119853
 30
0.0
 10
49.151540
 20
-53.119853
 30
0.0
  0
LWPOLYLINE
  5
253
100
AcDbEntity
  8
0
 62
7
100
AcDbPolyline
 90
2
 70
0
 10
46.550580
 20
-46.439653
 30
0.0
 10
46.042580
 20
-46.439653
 30
0.0
  0
LWPOLYLINE
  5
254
100
AcDbEntity
  8
0
 62
7
100
AcDbPolyline
 90
2
 70
0
 10
46.550580
 20
-45.918953
 30
0.0
 10
46.042580
 20
-45.918953
 30
0.0
  0
LWPOLYLINE
  5
255
100
AcDbEntity
  8
0
 62
7
100
AcDbPolyline
 90
2
 70
0
 10
49.382680
 20
-52.578833
 30
0.0
 10
49.382680
 20
-53.119853
 30
0.0
  0
LWPOLYLINE
  5
256
100
AcDbEntity
  8
0
 62
7
100
AcDbPolyline
 90
3
 70
0
 10
46.550580
 20
-53.119853
 30
0.0
 10
46.042580
 20
-53.119853
 30
0.0
 10
46.042580
 20
-53.640553
 30
0.0
  0
LWPOLYLINE
  5
257
100
AcDbEntity
  8
0
 62
7
100
AcDbPolyline
 90
2
 70
0
 10
46.550580
 20
-53.640553
 30
0.0
 10
46.042580
 20
-53.640553
 30
0.0
  0
LWPOLYLINE
  5
258
100
AcDbEntity
  8
0
 62
7
100
AcDbPolyline
 90
2
 70
0
 10
49.382680
 20
-46.439653
 30
0.0
 10
49.382680
 20
-46.980673
 30
0.0
  0
LWPOLYLINE
  5
259
100
AcDbEntity
  8
0
 62
7
100
AcDbPolyline
 90
2
 70
0
 10
49.382680
 20
-48.080493
 30
0.0
 10
49.382680
 20
-51.479013
 30
0.0
  0
LWPOLYLINE
  5
25a
100
AcDbEntity
  8
0
 62
7
100
AcDbPolyline
 90
2
 70
0
 10
27.409140
 20
-90.582313
 30
0.0
 10
27.409140
 20
-91.270653
 30
0.0
  0
LWPOLYLINE
  5
25b
100
AcDbEntity
  8
0
 62
7
100
AcDbPolyline
 90
2
 70
0
 10
27.409140
 20
-101.202053
 30
0.0
 10
27.409140
 20
-100.511173
 30
0.0
  0
LWPOLYLINE
  5
25c
100
AcDbEntity
  8
0
 62
7
100
AcDbPolyline
 90
2
 70
0
 10
25.689560
 20
-91.270653
 30
0.0
 10
25.689560
 20
-100.511173
 30
0.0
  0
LWPOLYLINE
  5
25d
100
AcDbEntity
  8
0
 62
7
100
AcDbPolyline
 90
2
 70
0
 10
29.128720
 20
-91.270653
 30
0.0
 10
25.689560
 20
-91.270653
 30
0.0
  0
LWPOLYLINE
  5
25e
100
AcDbEntity
  8
0
 62
7
100
AcDbPolyline
 90
2
 70
0
 10
29.128720
 20
-100.511173
 30
0.0
 10
29.128720
 20
-91.270653
 30
0.0
  0
LWPOLYLINE
  5
25f
100
AcDbEntity
  8
0
 62
7
100
AcDbPolyline
 90
2
 70
0
 10
25.689560
 20
-100.511173
 30
0.0
 10
29.128720
 20
-100.511173
 30
0.0
  0
LWPOLYLINE
  5
260
100
AcDbEntity
  8
0
 62
7
100
AcDbPolyline
 90
2
 70
0
 10
15.966440
 20
-81.499273
 30
0.0
 10
15.966440
 20
-78.839893
 30
0.0
  0
LWPOLYLINE
  5
261
100
AcDbEntity
  8
0
 62
7
100
AcDbPolyline
 90
3
 70
0
 10
15.966440
 20
-81.499273
 30
0.0
 10
36.347400
 20
-81.499273
 30
0.0
 10
36.347400
 20
-78.839893
 30
0.0
  0
LWPOLYLINE
  5
262
100
AcDbEntity
  8
0
 62
7
100
AcDbPolyline
 90
2
 70
0
 10
15.966440
 20
-78.839893
 30
0.0
 10
36.347400
 20
-78.839893
 30
0.0
  0
LWPOLYLINE
  5
263
100
AcDbEntity
  8
0
 62
7
100
AcDbPolyline
 90
2
 70
0
 10
13.365480
 20
-78.839893
 30
0.0
 10
14.696440
 20
-78.839893
 30
0.0
  0
LWPOLYLINE
  5
264
100
AcDbEntity
  8
0
 62
7
100
AcDbPolyline
 90
2
 70
0
 10
13.365480
 20
-80.168313
 30
0.0
 10
13.365480
 20
-78.839893
 30
0.0
  0
LWPOLYLINE
  5
265
100
AcDbEntity
  8
0
 62
7
100
AcDbPolyline
 90
2
 70
0
 10
36.606480
 20
-76.630093
 30
0.0
 10
36.606480
 20
-49.779753
 30
0.0
  0
LWPOLYLINE
  5
266
100
AcDbEntity
  8
0
 62
7
100
AcDbPolyline
 90
2
 70
0
 10
45.295820
 20
-82.568613
 30
0.0
 10
45.295820
 20
-43.452613
 30
0.0
  0
LWPOLYLINE
  5
267
100
AcDbEntity
  8
0
 62
7
100
AcDbPolyline
 90
2
 70
0
 10
36.606480
 20
-76.630093
 30
0.0
 10
13.106400
 20
-76.630093
 30
0.0
  0
LWPOLYLINE
  5
268
100
AcDbEntity
  8
0
 62
7
100
AcDbPolyline
 90
2
 70
0
 10
36.606480
 20
-49.779753
 30
0.0
 10
13.106400
 20
-49.779753
 30
0.0
  0
LWPOLYLINE
  5
269
100
AcDbEntity
  8
0
 62
7
100
AcDbPolyline
 90
2
 70
0
 10
4.175760
 20
-82.568613
 30
0.0
 10
4.175760
 20
-43.452613
 30
0.0
  0
LWPOLYLINE
  5
26a
100
AcDbEntity
  8
0
 62
7
100
AcDbPolyline
 90
2
 70
0
 10
45.295820
 20
-82.568613
 30
0.0
 10
4.175760
 20
-82.568613
 30
0.0
  0
LWPOLYLINE
  5
26b
100
AcDbEntity
  8
0
 62
7
100
AcDbPolyline
 90
2
 70
0
 10
4.175760
 20
-43.452613
 30
0.0
 10
45.295820
 20
-43.452613
 30
0.0
  0
LWPOLYLINE
  5
26c
100
AcDbEntity
  8
0
 62
7
100
AcDbPolyline
 90
2
 70
0
 10
13.106400
 20
-76.630093
 30
0.0
 10
13.106400
 20
-49.779753
 30
0.0
  0
LWPOLYLINE
  5
26d
100
AcDbEntity
  8
0
 62
7
100
AcDbPolyline
 90
2
 70
0
 10
25.326340
 20
-41.550153
 30
0.0
 10
25.326340
 20
-38.890773
 30
0.0
  0
LWPOLYLINE
  5
26e
100
AcDbEntity
  8
0
 62
7
100
AcDbPolyline
 90
2
 70
0
 10
12.565380
 20
-41.550153
 30
0.0
 10
25.326340
 20
-41.550153
 30
0.0
  0
LWPOLYLINE
  5
26f
100
AcDbEntity
  8
0
 62
7
100
AcDbPolyline
 90
2
 70
0
 10
12.565380
 20
-38.890773
 30
0.0
 10
25.326340
 20
-38.890773
 30
0.0
  0
LWPOLYLINE
  5
270
100
AcDbEntity
  8
0
 62
7
100
AcDbPolyline
 90
2
 70
0
 10
12.565380
 20
-41.550153
 30
0.0
 10
12.565380
 20
-38.890773
 30
0.0
  0
LWPOLYLINE
  5
271
100
AcDbEntity
  8
0
 62
7
100
AcDbPolyline
 90
3
 70
0
 10
11.295380
 20
-41.550153
 30
0.0
 10
9.964420
 20
-41.550153
 30
0.0
 10
9.964420
 20
-40.219193
 30
0.0
  0
LWPOLYLINE
  5
272
100
AcDbEntity
  8
0
 62
7
100
AcDbPolyline
 90
2
 70
0
 10
30.980380
 20
-42.759193
 30
0.0
 10
17.645380
 20
-42.759193
 30
0.0
  0
LWPOLYLINE
  5
273
100
AcDbEntity
  8
0
 62
7
100
AcDbPolyline
 90
2
 70
0
 10
4.310380
 20
-42.759193
 30
0.0
 10
17.645380
 20
-42.759193
 30
0.0
  0
LWPOLYLINE
  5
274
100
AcDbEntity
  8
0
 62
7
100
AcDbPolyline
 90
2
 70
0
 10
4.310380
 20
-22.439193
 30
0.0
 10
4.310380
 20
-42.759193
 30
0.0
  0
LWPOLYLINE
  5
275
100
AcDbEntity
  8
0
 62
7
100
AcDbPolyline
 90
2
 70
0
 10
30.980380
 20
-22.439193
 30
0.0
 10
30.980380
 20
-42.759193
 30
0.0
  0
LWPOLYLINE
  5
276
100
AcDbEntity
  8
0
 62
7
100
AcDbPolyline
 90
2
 70
0
 10
11.295380
 20
-40.219193
 30
0.0
 10
11.295380
 20
-41.489193
 30
0.0
  0
LWPOLYLINE
  5
277
100
AcDbEntity
  8
0
 62
7
100
AcDbPolyline
 90
2
 70
0
 10
4.310380
 20
-22.439193
 30
0.0
 10
30.980380
 20
-22.439193
 30
0.0
  0
LWPOLYLINE
  5
278
100
AcDbEntity
  8
0
 62
7
100
AcDbPolyline
 90
2
 70
0
 10
33.307020
 20
-37.905253
 30
0.0
 10
17.307560
 20
-37.905253
 30
0.0
  0
LWPOLYLINE
  5
279
100
AcDbEntity
  8
0
 62
7
100
AcDbPolyline
 90
2
 70
0
 10
33.307020
 20
-26.104413
 30
0.0
 10
33.307020
 20
-25.705633
 30
0.0
  0
LWPOLYLINE
  5
27a
100
AcDbEntity
  8
0
 62
7
100
AcDbPolyline
 90
2
 70
0
 10
33.307020
 20
-28.105933
 30
0.0
 10
33.307020
 20
-27.704613
 30
0.0
  0
LWPOLYLINE
  5
27b
100
AcDbEntity
  8
0
 62
7
100
AcDbPolyline
 90
2
 70
0
 10
33.307020
 20
-30.104913
 30
0.0
 10
33.307020
 20
-29.706133
 30
0.0
  0
LWPOLYLINE
  5
27c
100
AcDbEntity
  8
0
 62
7
100
AcDbPolyline
 90
2
 70
0
 10
33.307020
 20
-32.106433
 30
0.0
 10
33.307020
 20
-31.705113
 30
0.0
  0
LWPOLYLINE
  5
27d
100
AcDbEntity
  8
0
 62
7
100
AcDbPolyline
 90
2
 70
0
 10
33.307020
 20
-33.706633
 30
0.0
 10
33.307020
 20
-34.105413
 30
0.0
  0
LWPOLYLINE
  5
27e
100
AcDbEntity
  8
0
 62
7
100
AcDbPolyline
 90
2
 70
0
 10
33.307020
 20
-35.705613
 30
0.0
 10
33.307020
 20
-36.104393
 30
0.0
  0
LWPOLYLINE
  5
27f
100
AcDbEntity
  8
0
 62
7
100
AcDbPolyline
 90
3
 70
0
 10
34.307780
 20
-37.704593
 30
0.0
 10
33.307020
 20
-37.704593
 30
0.0
 10
33.307020
 20
-37.905253
 30
0.0
  0
LWPOLYLINE
  5
280
100
AcDbEntity
  8
0
 62
7
100
AcDbPolyline
 90
2
 70
0
 10
33.307020
 20
-24.105433
 30
0.0
 10
33.307020
 20
-23.704113
 30
0.0
  0
LWPOLYLINE
  5
281
100
AcDbEntity
  8
0
 62
7
100
AcDbPolyline
 90
2
 70
0
 10
17.307560
 20
-37.905253
 30
0.0
 10
17.307560
 20
-37.704593
 30
0.0
  0
LWPOLYLINE
  5
282
100
AcDbEntity
  8
0
 62
7
100
AcDbPolyline
 90
2
 70
0
 10
17.307560
 20
-36.104393
 30
0.0
 10
17.307560
 20
-35.705613
 30
0.0
  0
LWPOLYLINE
  5
283
100
AcDbEntity
  8
0
 62
7
100
AcDbPolyline
 90
2
 70
0
 10
17.307560
 20
-34.105413
 30
0.0
 10
17.307560
 20
-33.706633
 30
0.0
  0
LWPOLYLINE
  5
284
100
AcDbEntity
  8
0
 62
7
100
AcDbPolyline
 90
2
 70
0
 10
17.307560
 20
-32.106433
 30
0.0
 10
17.307560
 20
-31.705113
 30
0.0
  0
LWPOLYLINE
  5
285
100
AcDbEntity
  8
0
 62
7
100
AcDbPolyline
 90
2
 70
0
 10
17.307560
 20
-30.104913
 30
0.0
 10
17.307560
 20
-29.706133
 30
0.0
  0
LWPOLYLINE
  5
286
100
AcDbEntity
  8
0
 62
7
100
AcDbPolyline
 90
2
 70
0
 10
17.307560
 20
-28.105933
 30
0.0
 10
17.307560
 20
-27.704613
 30
0.0
  0
LWPOLYLINE
  5
287
100
AcDbEntity
  8
0
 62
7
100
AcDbPolyline
 90
2
 70
0
 10
17.307560
 20
-26.104413
 30
0.0
 10
17.307560
 20
-25.705633
 30
0.0
  0
LWPOLYLINE
  5
288
100
AcDbEntity
  8
0
 62
7
100
AcDbPolyline
 90
2
 70
0
 10
17.307560
 20
-24.105433
 30
0.0
 10
17.307560
 20
-23.704113
 30
0.0
  0
LWPOLYLINE
  5
289
100
AcDbEntity
  8
0
 62
7
100
AcDbPolyline
 90
4
 70
0
 10
17.307560
 20
-22.106453
 30
0.0
 10
17.307560
 20
-21.905793
 30
0.0
 10
33.307020
 20
-21.905793
 30
0.0
 10
33.307020
 20
-22.106453
 30
0.0
  0
LWPOLYLINE
  5
28a
100
AcDbEntity
  8
0
 62
7
100
AcDbPolyline
 90
2
 70
0
 10
15.725140
 20
-111.928473
 30
0.0
 10
15.725140
 20
-109.248773
 30
0.0
  0
LWPOLYLINE
  5
28b
100
AcDbEntity
  8
0
 62
7
100
AcDbPolyline
 90
2
 70
0
 10
21.965920
 20
-109.248773
 30
0.0
 10
21.965920
 20
-111.928473
 30
0.0
  0
LWPOLYLINE
  5
28c
100
AcDbEntity
  8
0
 62
7
100
AcDbPolyline
 90
2
 70
0
 10
21.816060
 20
-113.709013
 30
0.0
 10
15.877540
 20
-113.709013
 30
0.0
  0
SPLINE
  5
28d
100
AcDbEntity
  8
0
 62
7
100
AcDbSpline
 70
8
 71
3
 72
8
 73
4
 74
0
 40
0
 40
0
 40
0
 40
0
 40
1
 40
1
 40
1
 40
1
 10
20.261776
 20
-110.590401
 30
0.0
 10
20.261776
 20
-111.095651
 30
0.0
 10
19.992228
 20
-111.562521
 30
0.0
 10
19.554669
 20
-111.815146
 30
0.0
  0
SPLINE
  5
28e
100
AcDbEntity
  8
0
 62
7
100
AcDbSpline
 70
8
 71
3
 72
8
 73
4
 74
0
 40
0
 40
0
 40
0
 40
0
 40
1
 40
1
 40
1
 40
1
 10
19.554669
 20
-111.815146
 30
0.0
 10
19.117110
 20
-112.067771
 30
0.0
 10
18.578014
 20
-112.067771
 30
0.0
 10
18.140455
 20
-111.815146
 30
0.0
  0
SPLINE
  5
28f
100
AcDbEntity
  8
0
 62
7
100
AcDbSpline
 70
8
 71
3
 72
8
 73
4
 74
0
 40
0
 40
0
 40
0
 40
0
 40
1
 40
1
 40
1
 40
1
 10
18.140455
 20
-111.815146
 30
0.0
 10
17.702896
 20
-111.562521
 30
0.0
 10
17.433348
 20
-111.095651
 30
0.0
 10
17.433348
 20
-110.590401
 30
0.0
  0
SPLINE
  5
290
100
AcDbEntity
  8
0
 62
7
100
AcDbSpline
 70
8
 71
3
 72
8
 73
4
 74
0
 40
0
 40
0
 40
0
 40
0
 40
1
 40
1
 40
1
 40
1
 10
17.433348
 20
-110.590401
 30
0.0
 10
17.433348
 20
-110.085151
 30
0.0
 10
17.702896
 20
-109.618281
 30
0.0
 10
18.140455
 20
-109.365656
 30
0.0
  0
SPLINE
  5
291
100
AcDbEntity
  8
0
 62
7
100
AcDbSpline
 70
8
 71
3
 72
8
 73
4
 74
0
 40
0
 40
0
 40
0
 40
0
 40
1
 40
1
 40
1
 40
1
 10
18.140455
 20
-109.365656
 30
0.0
 10
18.578014
 20
-109.113031
 30
0.0
 10
19.117110
 20
-109.113031
 30
0.0
 10
19.554669
 20
-109.365656
 30
0.0
  0
SPLINE
  5
292
100
AcDbEntity
  8
0
 62
7
100
AcDbSpline
 70
8
 71
3
 72
8
 73
4
 74
0
 40
0
 40
0
 40
0
 40
0
 40
1
 40
1
 40
1
 40
1
 10
19.554669
 20
-109.365656
 30
0.0
 10
19.992228
 20
-109.618281
 30
0.0
 10
20.261776
 20
-110.085151
 30
0.0
 10
20.261776
 20
-110.590401
 30
0.0
  0
LWPOLYLINE
  5
293
100
AcDbEntity
  8
0
 62
7
100
AcDbPolyline
 90
2
 70
0
 10
21.816060
 20
-107.468233
 30
0.0
 10
15.877540
 20
-107.468233
 30
0.0
  0
LWPOLYLINE
  5
294
100
AcDbEntity
  8
0
 62
7
100
AcDbPolyline
 90
1
 70
1
 10
20.261776
 20
-110.590401
 30
0.0
  0
LWPOLYLINE
  5
295
100
AcDbEntity
  8
0
 62
7
100
AcDbPolyline
 90
2
 70
0
 10
49.382680
 20
-36.482853
 30
0.0
 10
49.151540
 20
-36.482853
 30
0.0
  0
LWPOLYLINE
  5
296
100
AcDbEntity
  8
0
 62
7
100
AcDbPolyline
 90
3
 70
0
 10
53.050440
 20
-35.962153
 30
0.0
 10
53.050440
 20
-43.683753
 30
0.0
 10
49.151540
 20
-43.683753
 30
0.0
  0
LWPOLYLINE
  5
297
100
AcDbEntity
  8
0
 62
7
100
AcDbPolyline
 90
2
 70
0
 10
46.042580
 20
-35.962153
 30
0.0
 10
46.042580
 20
-36.482853
 30
0.0
  0
LWPOLYLINE
  5
298
100
AcDbEntity
  8
0
 62
7
100
AcDbPolyline
 90
2
 70
0
 10
53.050440
 20
-35.962153
 30
0.0
 10
49.151540
 20
-35.962153
 30
0.0
  0
LWPOLYLINE
  5
299
100
AcDbEntity
  8
0
 62
7
100
AcDbPolyline
 90
2
 70
0
 10
49.382680
 20
-43.163053
 30
0.0
 10
49.151540
 20
-43.163053
 30
0.0
  0
LWPOLYLINE
  5
29a
100
AcDbEntity
  8
0
 62
7
100
AcDbPolyline
 90
2
 70
0
 10
46.550580
 20
-36.482853
 30
0.0
 10
46.042580
 20
-36.482853
 30
0.0
  0
LWPOLYLINE
  5
29b
100
AcDbEntity
  8
0
 62
7
100
AcDbPolyline
 90
2
 70
0
 10
46.550580
 20
-35.962153
 30
0.0
 10
46.042580
 20
-35.962153
 30
0.0
  0
LWPOLYLINE
  5
29c
100
AcDbEntity
  8
0
 62
7
100
AcDbPolyline
 90
2
 70
0
 10
49.382680
 20
-42.622033
 30
0.0
 10
49.382680
 20
-43.163053
 30
0.0
  0
LWPOLYLINE
  5
29d
100
AcDbEntity
  8
0
 62
7
100
AcDbPolyline
 90
3
 70
0
 10
46.550580
 20
-43.163053
 30
0.0
 10
46.042580
 20
-43.163053
 30
0.0
 10
46.042580
 20
-43.683753
 30
0.0
  0
LWPOLYLINE
  5
29e
100
AcDbEntity
  8
0
 62
7
100
AcDbPolyline
 90
2
 70
0
 10
46.550580
 20
-43.683753
 30
0.0
 10
46.042580
 20
-43.683753
 30
0.0
  0
LWPOLYLINE
  5
29f
100
AcDbEntity
  8
0
 62
7
100
AcDbPolyline
 90
2
 70
0
 10
49.382680
 20
-36.482853
 30
0.0
 10
49.382680
 20
-37.023873
 30
0.0
  0
LWPOLYLINE
  5
2a0
100
AcDbEntity
  8
0
 62
7
100
AcDbPolyline
 90
2
 70
0
 10
49.382680
 20
-38.123693
 30
0.0
 10
49.382680
 20
-41.522213
 30
0.0
  0
LWPOLYLINE
  5
2a1
100
AcDbEntity
  8
0
 62
7
100
AcDbPolyline
 90
2
 70
0
 10
49.255680
 20
-21.888013
 30
0.0
 10
49.027080
 20
-21.888013
 30
0.0
  0
LWPOLYLINE
  5
2a2
100
AcDbEntity
  8
0
 62
7
100
AcDbPolyline
 90
3
 70
0
 10
52.925980
 20
-21.369853
 30
0.0
 10
52.925980
 20
-29.088913
 30
0.0
 10
49.027080
 20
-29.088913
 30
0.0
  0
LWPOLYLINE
  5
2a3
100
AcDbEntity
  8
0
 62
7
100
AcDbPolyline
 90
2
 70
0
 10
45.915580
 20
-21.369853
 30
0.0
 10
45.915580
 20
-21.888013
 30
0.0
  0
LWPOLYLINE
  5
2a4
100
AcDbEntity
  8
0
 62
7
100
AcDbPolyline
 90
2
 70
0
 10
52.925980
 20
-21.369853
 30
0.0
 10
49.027080
 20
-21.369853
 30
0.0
  0
LWPOLYLINE
  5
2a5
100
AcDbEntity
  8
0
 62
7
100
AcDbPolyline
 90
2
 70
0
 10
49.255680
 20
-28.568213
 30
0.0
 10
49.027080
 20
-28.568213
 30
0.0
  0
LWPOLYLINE
  5
2a6
100
AcDbEntity
  8
0
 62
7
100
AcDbPolyline
 90
2
 70
0
 10
46.426120
 20
-21.888013
 30
0.0
 10
45.915580
 20
-21.888013
 30
0.0
  0
LWPOLYLINE
  5
2a7
100
AcDbEntity
  8
0
 62
7
100
AcDbPolyline
 90
2
 70
0
 10
46.426120
 20
-21.369853
 30
0.0
 10
45.915580
 20
-21.369853
 30
0.0
  0
LWPOLYLINE
  5
2a8
100
AcDbEntity
  8
0
 62
7
100
AcDbPolyline
 90
2
 70
0
 10
49.255680
 20
-28.029733
 30
0.0
 10
49.255680
 20
-28.568213
 30
0.0
  0
LWPOLYLINE
  5
2a9
100
AcDbEntity
  8
0
 62
7
100
AcDbPolyline
 90
3
 70
0
 10
46.426120
 20
-28.568213
 30
0.0
 10
45.915580
 20
-28.568213
 30
0.0
 10
45.915580
 20
-29.088913
 30
0.0
  0
LWPOLYLINE
  5
2aa
100
AcDbEntity
  8
0
 62
7
100
AcDbPolyline
 90
2
 70
0
 10
46.426120
 20
-29.088913
 30
0.0
 10
45.915580
 20
-29.088913
 30
0.0
  0
LWPOLYLINE
  5
2ab
100
AcDbEntity
  8
0
 62
7
100
AcDbPolyline
 90
2
 70
0
 10
49.255680
 20
-21.888013
 30
0.0
 10
49.255680
 20
-22.429033
 30
0.0
  0
LWPOLYLINE
  5
2ac
100
AcDbEntity
  8
0
 62
7
100
AcDbPolyline
 90
2
 70
0
 10
49.255680
 20
-23.528853
 30
0.0
 10
49.255680
 20
-26.929913
 30
0.0
  0
SPLINE
  5
2ad
100
AcDbEntity
  8
0
 62
7
100
AcDbSpline
 70
8
 71
3
 72
8
 73
4
 74
0
 40
0
 40
0
 40
0
 40
0
 40
1
 40
1
 40
1
 40
1
 10
42.434891
 20
-18.381645
 30
0.0
 10
42.434891
 20
-18.560277
 30
0.0
 10
42.339592
 20
-18.725340
 30
0.0
 10
42.184892
 20
-18.814657
 30
0.0
  0
SPLINE
  5
2ae
100
AcDbEntity
  8
0
 62
7
100
AcDbSpline
 70
8
 71
3
 72
8
 73
4
 74
0
 40
0
 40
0
 40
0
 40
0
 40
1
 40
1
 40
1
 40
1
 10
42.184892
 20
-18.814657
 30
0.0
 10
42.030191
 20
-18.903973
 30
0.0
 10
41.839593
 20
-18.903973
 30
0.0
 10
41.684893
 20
-18.814657
 30
0.0
  0
SPLINE
  5
2af
100
AcDbEntity
  8
0
 62
7
100
AcDbSpline
 70
8
 71
3
 72
8
 73
4
 74
0
 40
0
 40
0
 40
0
 40
0
 40
1
 40
1
 40
1
 40
1
 10
41.684893
 20
-18.814657
 30
0.0
 10
41.530192
 20
-18.725340
 30
0.0
 10
41.434893
 20
-18.560277
 30
0.0
 10
41.434893
 20
-18.381645
 30
0.0
  0
SPLINE
  5
2b0
100
AcDbEntity
  8
0
 62
7
100
AcDbSpline
 70
8
 71
3
 72
8
 73
4
 74
0
 40
0
 40
0
 40
0
 40
0
 40
1
 40
1
 40
1
 40
1
 10
41.434893
 20
-18.381645
 30
0.0
 10
41.434893
 20
-18.203012
 30
0.0
 10
41.530192
 20
-18.037949
 30
0.0
 10
41.684893
 20
-17.948633
 30
0.0
  0
SPLINE
  5
2b1
100
AcDbEntity
  8
0
 62
7
100
AcDbSpline
 70
8
 71
3
 72
8
 73
4
 74
0
 40
0
 40
0
 40
0
 40
0
 40
1
 40
1
 40
1
 40
1
 10
41.684893
 20
-17.948633
 30
0.0
 10
41.839593
 20
-17.859317
 30
0.0
 10
42.030191
 20
-17.859317
 30
0.0
 10
42.184892
 20
-17.948633
 30
0.0
  0
SPLINE
  5
2b2
100
AcDbEntity
  8
0
 62
7
100
AcDbSpline
 70
8
 71
3
 72
8
 73
4
 74
0
 40
0
 40
0
 40
0
 40
0
 40
1
 40
1
 40
1
 40
1
 10
42.184892
 20
-17.948633
 30
0.0
 10
42.339592
 20
-18.037949
 30
0.0
 10
42.434891
 20
-18.203012
 30
0.0
 10
42.434891
 20
-18.381645
 30
0.0
  0
LWPOLYLINE
  5
2b3
100
AcDbEntity
  8
0
 62
7
100
AcDbPolyline
 90
5
 70
1
 10
44.333160
 20
-19.881413
 30
0.0
 10
40.134540
 20
-19.881413
 30
0.0
 10
39.334440
 20
-19.081313
 30
0.0
 10
39.334440
 20
-14.880153
 30
0.0
 10
44.333160
 20
-14.880153
 30
0.0
  0
LWPOLYLINE
  5
2b4
100
AcDbEntity
  8
0
 62
7
100
AcDbPolyline
 90
1
 70
1
 10
42.434891
 20
-18.381645
 30
0.0
  0
LWPOLYLINE
  5
2b5
100
AcDbEntity
  8
0
 62
7
100
AcDbPolyline
 90
2
 70
0
 10
39.580820
 20
-90.582313
 30
0.0
 10
39.580820
 20
-91.270653
 30
0.0
  0
LWPOLYLINE
  5
2b6
100
AcDbEntity
  8
0
 62
7
100
AcDbPolyline
 90
2
 70
0
 10
39.580820
 20
-101.202053
 30
0.0
 10
39.580820
 20
-100.511173
 30
0.0
  0
LWPOLYLINE
  5
2b7
100
AcDbEntity
  8
0
 62
7
100
AcDbPolyline
 90
2
 70
0
 10
37.861240
 20
-91.270653
 30
0.0
 10
37.861240
 20
-100.511173
 30
0.0
  0
LWPOLYLINE
  5
2b8
100
AcDbEntity
  8
0
 62
7
100
AcDbPolyline
 90
2
 70
0
 10
41.300400
 20
-91.270653
 30
0.0
 10
37.861240
 20
-91.270653
 30
0.0
  0
LWPOLYLINE
  5
2b9
100
AcDbEntity
  8
0
 62
7
100
AcDbPolyline
 90
2
 70
0
 10
41.300400
 20
-100.511173
 30
0.0
 10
41.300400
 20
-91.270653
 30
0.0
  0
LWPOLYLINE
  5
2ba
100
AcDbEntity
  8
0
 62
7
100
AcDbPolyline
 90
2
 70
0
 10
37.861240
 20
-100.511173
 30
0.0
 10
41.300400
 20
-100.511173
 30
0.0
  0
LWPOLYLINE
  5
2bb
100
AcDbEntity
  8
0
 62
7
100
AcDbPolyline
 90
2
 70
0
 10
23.352760
 20
-90.582313
 30
0.0
 10
23.352760
 20
-91.270653
 30
0.0
  0
LWPOLYLINE
  5
2bc
100
AcDbEntity
  8
0
 62
7
100
AcDbPolyline
 90
2
 70
0
 10
23.352760
 20
-101.202053
 30
0.0
 10
23.352760
 20
-100.511173
 30
0.0
  0
LWPOLYLINE
  5
2bd
100
AcDbEntity
  8
0
 62
7
100
AcDbPolyline
 90
2
 70
0
 10
21.630640
 20
-91.270653
 30
0.0
 10
21.630640
 20
-100.511173
 30
0.0
  0
LWPOLYLINE
  5
2be
100
AcDbEntity
  8
0
 62
7
100
AcDbPolyline
 90
2
 70
0
 10
25.072340
 20
-91.270653
 30
0.0
 10
21.630640
 20
-91.270653
 30
0.0
  0
LWPOLYLINE
  5
2bf
100
AcDbEntity
  8
0
 62
7
100
AcDbPolyline
 90
2
 70
0
 10
25.072340
 20
-100.511173
 30
0.0
 10
25.072340
 20
-91.270653
 30
0.0
  0
LWPOLYLINE
  5
2c0
100
AcDbEntity
  8
0
 62
7
100
AcDbPolyline
 90
2
 70
0
 10
21.630640
 20
-100.511173
 30
0.0
 10
25.072340
 20
-100.511173
 30
0.0
  0
LWPOLYLINE
  5
2c1
100
AcDbEntity
  8
0
 62
7
100
AcDbPolyline
 90
2
 70
0
 10
35.524440
 20
-90.582313
 30
0.0
 10
35.524440
 20
-91.270653
 30
0.0
  0
LWPOLYLINE
  5
2c2
100
AcDbEntity
  8
0
 62
7
100
AcDbPolyline
 90
2
 70
0
 10
35.524440
 20
-101.202053
 30
0.0
 10
35.524440
 20
-100.511173
 30
0.0
  0
LWPOLYLINE
  5
2c3
100
AcDbEntity
  8
0
 62
7
100
AcDbPolyline
 90
2
 70
0
 10
33.804860
 20
-91.270653
 30
0.0
 10
33.804860
 20
-100.511173
 30
0.0
  0
LWPOLYLINE
  5
2c4
100
AcDbEntity
  8
0
 62
7
100
AcDbPolyline
 90
2
 70
0
 10
37.244020
 20
-91.270653
 30
0.0
 10
33.804860
 20
-91.270653
 30
0.0
  0
LWPOLYLINE
  5
2c5
100
AcDbEntity
  8
0
 62
7
100
AcDbPolyline
 90
2
 70
0
 10
37.244020
 20
-100.511173
 30
0.0
 10
37.244020
 20
-91.270653
 30
0.0
  0
LWPOLYLINE
  5
2c6
100
AcDbEntity
  8
0
 62
7
100
AcDbPolyline
 90
2
 70
0
 10
33.804860
 20
-100.511173
 30
0.0
 10
37.244020
 20
-100.511173
 30
0.0
  0
LWPOLYLINE
  5
2c7
100
AcDbEntity
  8
0
 62
7
100
AcDbPolyline
 90
2
 70
0
 10
31.465520
 20
-90.582313
 30
0.0
 10
31.465520
 20
-91.270653
 30
0.0
  0
LWPOLYLINE
  5
2c8
100
AcDbEntity
  8
0
 62
7
100
AcDbPolyline
 90
2
 70
0
 10
31.465520
 20
-101.202053
 30
0.0
 10
31.465520
 20
-100.511173
 30
0.0
  0
LWPOLYLINE
  5
2c9
100
AcDbEntity
  8
0
 62
7
100
AcDbPolyline
 90
2
 70
0
 10
29.745940
 20
-91.270653
 30
0.0
 10
29.745940
 20
-100.511173
 30
0.0
  0
LWPOLYLINE
  5
2ca
100
AcDbEntity
  8
0
 62
7
100
AcDbPolyline
 90
2
 70
0
 10
33.187640
 20
-91.270653
 30
0.0
 10
29.745940
 20
-91.270653
 30
0.0
  0
LWPOLYLINE
  5
2cb
100
AcDbEntity
  8
0
 62
7
100
AcDbPolyline
 90
2
 70
0
 10
33.187640
 20
-100.511173
 30
0.0
 10
33.187640
 20
-91.270653
 30
0.0
  0
LWPOLYLINE
  5
2cc
100
AcDbEntity
  8
0
 62
7
100
AcDbPolyline
 90
2
 70
0
 10
29.745940
 20
-100.511173
 30
0.0
 10
33.187640
 20
-100.511173
 30
0.0
  0
LWPOLYLINE
  5
2cd
100
AcDbEntity
  8
0
 62
7
100
AcDbPolyline
 90
2
 70
0
 10
19.293840
 20
-101.202053
 30
0.0
 10
19.293840
 20
-100.511173
 30
0.0
  0
LWPOLYLINE
  5
2ce
100
AcDbEntity
  8
0
 62
7
100
AcDbPolyline
 90
2
 70
0
 10
19.293840
 20
-90.582313
 30
0.0
 10
19.293840
 20
-91.270653
 30
0.0
  0
LWPOLYLINE
  5
2cf
100
AcDbEntity
  8
0
 62
7
100
AcDbPolyline
 90
2
 70
0
 10
21.013420
 20
-100.511173
 30
0.0
 10
21.013420
 20
-91.270653
 30
0.0
  0
LWPOLYLINE
  5
2d0
100
AcDbEntity
  8
0
 62
7
100
AcDbPolyline
 90
2
 70
0
 10
17.574260
 20
-100.511173
 30
0.0
 10
21.013420
 20
-100.511173
 30
0.0
  0
LWPOLYLINE
  5
2d1
100
AcDbEntity
  8
0
 62
7
100
AcDbPolyline
 90
2
 70
0
 10
17.574260
 20
-91.270653
 30
0.0
 10
17.574260
 20
-100.511173
 30
0.0
  0
LWPOLYLINE
  5
2d2
100
AcDbEntity
  8
0
 62
7
100
AcDbPolyline
 90
2
 70
0
 10
21.013420
 20
-91.270653
 30
0.0
 10
17.574260
 20
-91.270653
 30
0.0
  0
LWPOLYLINE
  5
2d3
100
AcDbEntity
  8
0
 62
7
100
AcDbPolyline
 90
2
 70
0
 10
15.237460
 20
-101.202053
 30
0.0
 10
15.237460
 20
-100.511173
 30
0.0
  0
LWPOLYLINE
  5
2d4
100
AcDbEntity
  8
0
 62
7
100
AcDbPolyline
 90
2
 70
0
 10
15.237460
 20
-90.582313
 30
0.0
 10
15.237460
 20
-91.270653
 30
0.0
  0
LWPOLYLINE
  5
2d5
100
AcDbEntity
  8
0
 62
7
100
AcDbPolyline
 90
2
 70
0
 10
16.957040
 20
-100.511173
 30
0.0
 10
16.957040
 20
-91.270653
 30
0.0
  0
LWPOLYLINE
  5
2d6
100
AcDbEntity
  8
0
 62
7
100
AcDbPolyline
 90
2
 70
0
 10
13.517880
 20
-100.511173
 30
0.0
 10
16.957040
 20
-100.511173
 30
0.0
  0
LWPOLYLINE
  5
2d7
100
AcDbEntity
  8
0
 62
7
100
AcDbPolyline
 90
2
 70
0
 10
13.517880
 20
-91.270653
 30
0.0
 10
13.517880
 20
-100.511173
 30
0.0
  0
LWPOLYLINE
  5
2d8
100
AcDbEntity
  8
0
 62
7
100
AcDbPolyline
 90
2
 70
0
 10
16.957040
 20
-91.270653
 30
0.0
 10
13.517880
 20
-91.270653
 30
0.0
  0
SPLINE
  5
2d9
100
AcDbEntity
  8
0
 62
7
100
AcDbSpline
 70
8
 71
3
 72
8
 73
4
 74
0
 40
0
 40
0
 40
0
 40
0
 40
1
 40
1
 40
1
 40
1
 10
9.836734
 20
-70.386519
 30
0.0
 10
9.659932
 20
-70.229136
 30
0.0
 10
9.462133
 20
-70.097065
 30
0.0
 10
9.249004
 20
-69.994089
 30
0.0
  0
SPLINE
  5
2da
100
AcDbEntity
  8
0
 62
7
100
AcDbSpline
 70
8
 71
3
 72
8
 73
4
 74
0
 40
0
 40
0
 40
0
 40
0
 40
1
 40
1
 40
1
 40
1
 10
7.047230
 20
-69.960053
 30
0.0
 10
6.487827
 20
-70.220893
 30
0.0
 10
6.040573
 20
-70.673779
 30
0.0
 10
5.786755
 20
-71.236403
 30
0.0
  0
SPLINE
  5
2db
100
AcDbEntity
  8
0
 62
7
100
AcDbSpline
 70
8
 71
3
 72
8
 73
4
 74
0
 40
0
 40
0
 40
0
 40
0
 40
1
 40
1
 40
1
 40
1
 10
5.786755
 20
-73.386513
 30
0.0
 10
6.043769
 20
-73.940658
 30
0.0
 10
6.488338
 20
-74.386154
 30
0.0
 10
7.041947
 20
-74.644321
 30
0.0
  0
SPLINE
  5
2dc
100
AcDbEntity
  8
0
 62
7
100
AcDbSpline
 70
8
 71
3
 72
8
 73
4
 74
0
 40
0
 40
0
 40
0
 40
0
 40
1
 40
1
 40
1
 40
1
 10
9.258783
 20
-74.619175
 30
0.0
 10
9.467779
 20
-74.518169
 30
0.0
 10
9.662184
 20
-74.389413
 30
0.0
 10
9.836734
 20
-74.236397
 30
0.0
  0
LWPOLYLINE
  5
2dd
100
AcDbEntity
  8
0
 62
7
100
AcDbPolyline
 90
2
 70
0
 10
9.834880
 20
-74.234873
 30
0.0
 10
9.834880
 20
-70.384233
 30
0.0
  0
LWPOLYLINE
  5
2de
100
AcDbEntity
  8
0
 62
7
100
AcDbPolyline
 90
4
 70
0
 10
6.040120
 20
-92.398413
 30
0.0
 10
8.542020
 20
-92.398413
 30
0.0
 10
8.542020
 20
-93.449973
 30
0.0
 10
9.530080
 20
-93.449973
 30
0.0
  0
LWPOLYLINE
  5
2df
100
AcDbEntity
  8
0
 62
7
100
AcDbPolyline
 90
3
 70
0
 10
6.040120
 20
-98.618873
 30
0.0
 10
8.542020
 20
-98.618873
 30
0.0
 10
8.542020
 20
-97.569853
 30
0.0
  0
LWPOLYLINE
  5
2e0
100
AcDbEntity
  8
0
 62
7
100
AcDbPolyline
 90
2
 70
0
 10
4.071620
 20
-93.569353
 30
0.0
 10
4.071620
 20
-97.447933
 30
0.0
  0
LWPOLYLINE
  5
2e1
100
AcDbEntity
  8
0
 62
7
100
AcDbPolyline
 90
2
 70
0
 10
32.204660
 20
-110.681333
 30
0.0
 10
32.204660
 20
-113.340713
 30
0.0
  0
LWPOLYLINE
  5
2e2
100
AcDbEntity
  8
0
 62
7
100
AcDbPolyline
 90
3
 70
0
 10
32.204660
 20
-110.681333
 30
0.0
 10
27.063700
 20
-110.681333
 30
0.0
 10
27.063700
 20
-113.340713
 30
0.0
  0
LWPOLYLINE
  5
2e3
100
AcDbEntity
  8
0
 62
7
100
AcDbPolyline
 90
2
 70
0
 10
32.204660
 20
-113.340713
 30
0.0
 10
27.063700
 20
-113.340713
 30
0.0
  0
LWPOLYLINE
  5
2e4
100
AcDbEntity
  8
0
 62
7
100
AcDbPolyline
 90
2
 70
0
 10
34.805620
 20
-113.340713
 30
0.0
 10
33.474660
 20
-113.340713
 30
0.0
  0
LWPOLYLINE
  5
2e5
100
AcDbEntity
  8
0
 62
7
100
AcDbPolyline
 90
2
 70
0
 10
34.805620
 20
-112.009753
 30
0.0
 10
34.805620
 20
-113.340713
 30
0.0
  0
LWPOLYLINE
  5
2e6
100
AcDbEntity
  8
0
 62
7
100
AcDbPolyline
 90
3
 70
0
 10
19.265900
 20
-45.189973
 30
0.0
 10
19.265900
 20
-43.859013
 30
0.0
 10
20.596860
 20
-43.859013
 30
0.0
  0
LWPOLYLINE
  5
2e7
100
AcDbEntity
  8
0
 62
7
100
AcDbPolyline
 90
2
 70
0
 10
21.866860
 20
-43.859013
 30
0.0
 10
29.545280
 20
-43.859013
 30
0.0
  0
LWPOLYLINE
  5
2e8
100
AcDbEntity
  8
0
 62
7
100
AcDbPolyline
 90
2
 70
0
 10
29.545280
 20
-46.518393
 30
0.0
 10
29.545280
 20
-43.859013
 30
0.0
  0
LWPOLYLINE
  5
2e9
100
AcDbEntity
  8
0
 62
7
100
AcDbPolyline
 90
2
 70
0
 10
21.866860
 20
-46.518393
 30
0.0
 10
29.545280
 20
-46.518393
 30
0.0
  0
LWPOLYLINE
  5
2ea
100
AcDbEntity
  8
0
 62
7
100
AcDbPolyline
 90
2
 70
0
 10
21.866860
 20
-46.518393
 30
0.0
 10
21.866860
 20
-43.859013
 30
0.0
  0
LWPOLYLINE
  5
2eb
100
AcDbEntity
  8
0
 62
7
100
AcDbPolyline
 90
2
 70
0
 10
53.357780
 20
-68.110933
 30
0.0
 10
56.019700
 20
-68.110933
 30
0.0
  0
LWPOLYLINE
  5
2ec
100
AcDbEntity
  8
0
 62
7
100
AcDbPolyline
 90
3
 70
0
 10
53.357780
 20
-68.110933
 30
0.0
 10
53.357780
 20
-73.251893
 30
0.0
 10
56.019700
 20
-73.251893
 30
0.0
  0
LWPOLYLINE
  5
2ed
100
AcDbEntity
  8
0
 62
7
100
AcDbPolyline
 90
2
 70
0
 10
56.019700
 20
-68.110933
 30
0.0
 10
56.019700
 20
-73.251893
 30
0.0
  0
LWPOLYLINE
  5
2ee
100
AcDbEntity
  8
0
 62
7
100
AcDbPolyline
 90
2
 70
0
 10
56.019700
 20
-65.512513
 30
0.0
 10
56.019700
 20
-66.840933
 30
0.0
  0
LWPOLYLINE
  5
2ef
100
AcDbEntity
  8
0
 62
7
100
AcDbPolyline
 90
2
 70
0
 10
54.688740
 20
-65.512513
 30
0.0
 10
56.019700
 20
-65.512513
 30
0.0
  0
LWPOLYLINE
  5
2f0
100
AcDbEntity
  8
0
 62
7
100
AcDbPolyline
 90
4
 70
1
 10
47.076360
 20
-91.928513
 30
0.0
 10
43.136820
 20
-91.928513
 30
0.0
 10
43.136820
 20
-101.069973
 30
0.0
 10
47.076360
 20
-101.069973
 30
0.0
  0
LWPOLYLINE
  5
2f1
100
AcDbEntity
  8
0
 62
7
100
AcDbPolyline
 90
2
 70
0
 10
45.105320
 20
-91.788813
 30
0.0
 10
45.105320
 20
-91.928513
 30
0.0
  0
LWPOLYLINE
  5
2f2
100
AcDbEntity
  8
0
 62
7
100
AcDbPolyline
 90
2
 70
0
 10
45.105320
 20
-101.209673
 30
0.0
 10
45.105320
 20
-101.069973
 30
0.0
  0
LWPOLYLINE
  5
2f3
100
AcDbEntity
  8
0
 62
7
100
AcDbPolyline
 90
2
 70
0
 10
47.076360
 20
-93.383933
 30
0.0
 10
43.136820
 20
-93.383933
 30
0.0
  0
LWPOLYLINE
  5
2f4
100
AcDbEntity
  8
0
 62
7
100
AcDbPolyline
 90
2
 70
0
 10
47.076360
 20
-93.503313
 30
0.0
 10
43.136820
 20
-93.503313
 30
0.0
  0
LWPOLYLINE
  5
2f5
100
AcDbEntity
  8
0
 62
7
100
AcDbPolyline
 90
2
 70
0
 10
47.076360
 20
-93.264553
 30
0.0
 10
43.136820
 20
-93.264553
 30
0.0
  0
LWPOLYLINE
  5
2f6
100
AcDbEntity
  8
0
 62
7
100
AcDbPolyline
 90
10
 70
0
 10
50.939700
 20
-85.611533
 30
0.0
 10
51.747420
 20
-85.611533
 30
0.0
 10
51.843940
 20
-85.563273
 30
0.0
 10
51.892200
 20
-85.515013
 30
0.0
 10
51.937920
 20
-85.421033
 30
0.0
 10
51.937920
 20
-85.230533
 30
0.0
 10
51.892200
 20
-85.134013
 30
0.0
 10
51.843940
 20
-85.088293
 30
0.0
 10
51.747420
 20
-85.040033
 30
0.0
 10
50.939700
 20
-85.040033
 30
0.0
  0
LWPOLYLINE
  5
2f7
100
AcDbEntity
  8
0
 62
7
100
AcDbPolyline
 90
11
 70
0
 10
51.033680
 20
-84.610773
 30
0.0
 10
50.985420
 20
-84.562513
 30
0.0
 10
50.939700
 20
-84.468533
 30
0.0
 10
50.939700
 20
-84.229773
 30
0.0
 10
50.985420
 20
-84.135793
 30
0.0
 10
51.033680
 20
-84.087533
 30
0.0
 10
51.130200
 20
-84.039273
 30
0.0
 10
51.224180
 20
-84.039273
 30
0.0
 10
51.366420
 20
-84.087533
 30
0.0
 10
51.937920
 20
-84.659033
 30
0.0
 10
51.937920
 20
-84.039273
 30
0.0
  0
LWPOLYLINE
  5
2f8
100
AcDbEntity
  8
0
 62
7
100
AcDbPolyline
 90
2
 70
0
 10
51.752500
 20
-87.630833
 30
0.0
 10
51.419760
 20
-87.155853
 30
0.0
  0
LWPOLYLINE
  5
2f9
100
AcDbEntity
  8
0
 62
7
100
AcDbPolyline
 90
11
 70
0
 10
51.181000
 20
-87.630833
 30
0.0
 10
51.181000
 20
-86.632613
 30
0.0
 10
51.562000
 20
-86.632613
 30
0.0
 10
51.658520
 20
-86.678333
 30
0.0
 10
51.704240
 20
-86.726593
 30
0.0
 10
51.752500
 20
-86.823113
 30
0.0
 10
51.752500
 20
-86.965353
 30
0.0
 10
51.704240
 20
-87.059333
 30
0.0
 10
51.658520
 20
-87.107593
 30
0.0
 10
51.562000
 20
-87.155853
 30
0.0
 10
51.181000
 20
-87.155853
 30
0.0
  0
LWPOLYLINE
  5
2fa
100
AcDbEntity
  8
0
 62
7
100
AcDbPolyline
 90
2
 70
0
 10
52.181760
 20
-87.107593
 30
0.0
 10
52.514500
 20
-87.107593
 30
0.0
  0
LWPOLYLINE
  5
2fb
100
AcDbEntity
  8
0
 62
7
100
AcDbPolyline
 90
4
 70
0
 10
52.656740
 20
-87.630833
 30
0.0
 10
52.181760
 20
-87.630833
 30
0.0
 10
52.181760
 20
-86.632613
 30
0.0
 10
52.656740
 20
-86.632613
 30
0.0
  0
LWPOLYLINE
  5
2fc
100
AcDbEntity
  8
0
 62
7
100
AcDbPolyline
 90
2
 70
0
 10
53.418740
 20
-87.107593
 30
0.0
 10
53.086000
 20
-87.107593
 30
0.0
  0
LWPOLYLINE
  5
2fd
100
AcDbEntity
  8
0
 62
7
100
AcDbPolyline
 90
3
 70
0
 10
53.086000
 20
-87.630833
 30
0.0
 10
53.086000
 20
-86.632613
 30
0.0
 10
53.563520
 20
-86.632613
 30
0.0
  0
LWPOLYLINE
  5
2fe
100
AcDbEntity
  8
0
 62
7
100
AcDbPolyline
 90
2
 70
0
 10
54.086760
 20
-86.632613
 30
0.0
 10
54.086760
 20
-86.868833
 30
0.0
  0
LWPOLYLINE
  5
2ff
100
AcDbEntity
  8
0
 62
7
100
AcDbPolyline
 90
3
 70
0
 10
53.848000
 20
-86.774853
 30
0.0
 10
54.086760
 20
-86.868833
 30
0.0
 10
54.325520
 20
-86.774853
 30
0.0
  0
LWPOLYLINE
  5
300
100
AcDbEntity
  8
0
 62
7
100
AcDbPolyline
 90
3
 70
0
 10
53.944520
 20
-87.059333
 30
0.0
 10
54.086760
 20
-86.868833
 30
0.0
 10
54.229000
 20
-87.059333
 30
0.0
  0
LWPOLYLINE
  5
301
100
AcDbEntity
  8
0
 62
7
100
AcDbPolyline
 90
2
 70
0
 10
54.848760
 20
-86.632613
 30
0.0
 10
54.848760
 20
-86.868833
 30
0.0
  0
LWPOLYLINE
  5
302
100
AcDbEntity
  8
0
 62
7
100
AcDbPolyline
 90
3
 70
0
 10
54.610000
 20
-86.774853
 30
0.0
 10
54.848760
 20
-86.868833
 30
0.0
 10
55.087520
 20
-86.774853
 30
0.0
  0
LWPOLYLINE
  5
303
100
AcDbEntity
  8
0
 62
7
100
AcDbPolyline
 90
3
 70
0
 10
54.706520
 20
-87.059333
 30
0.0
 10
54.848760
 20
-86.868833
 30
0.0
 10
54.991000
 20
-87.059333
 30
0.0
  0
LWPOLYLINE
  5
304
100
AcDbEntity
  8
0
 62
7
100
AcDbPolyline
 90
6
 70
0
 10
36.570920
 20
-21.357153
 30
0.0
 10
36.476940
 20
-21.308893
 30
0.0
 10
36.380420
 20
-21.214913
 30
0.0
 10
36.238180
 20
-21.070133
 30
0.0
 10
36.141660
 20
-21.024413
 30
0.0
 10
36.047680
 20
-21.024413
 30
0.0
  0
LWPOLYLINE
  5
305
100
AcDbEntity
  8
0
 62
7
100
AcDbPolyline
 90
16
 70
1
 10
36.095940
 20
-21.260633
 30
0.0
 10
35.999420
 20
-21.214913
 30
0.0
 10
35.905440
 20
-21.118393
 30
0.0
 10
35.857180
 20
-20.927893
 30
0.0
 10
35.857180
 20
-20.595153
 30
0.0
 10
35.905440
 20
-20.404653
 30
0.0
 10
35.999420
 20
-20.308133
 30
0.0
 10
36.095940
 20
-20.262413
 30
0.0
 10
36.286440
 20
-20.262413
 30
0.0
 10
36.380420
 20
-20.308133
 30
0.0
 10
36.476940
 20
-20.404653
 30
0.0
 10
36.522660
 20
-20.595153
 30
0.0
 10
36.522660
 20
-20.927893
 30
0.0
 10
36.476940
 20
-21.118393
 30
0.0
 10
36.380420
 20
-21.214913
 30
0.0
 10
36.286440
 20
-21.260633
 30
0.0
  0
LWPOLYLINE
  5
306
100
AcDbEntity
  8
0
 62
7
100
AcDbPolyline
 90
2
 70
0
 10
37.475160
 20
-21.260633
 30
0.0
 10
36.903660
 20
-21.260633
 30
0.0
  0
LWPOLYLINE
  5
307
100
AcDbEntity
  8
0
 62
7
100
AcDbPolyline
 90
5
 70
0
 10
37.190680
 20
-21.260633
 30
0.0
 10
37.190680
 20
-20.262413
 30
0.0
 10
37.094160
 20
-20.404653
 30
0.0
 10
37.000180
 20
-20.498633
 30
0.0
 10
36.903660
 20
-20.546893
 30
0.0
  0
LWPOLYLINE
  5
308
100
AcDbEntity
  8
0
 62
7
100
AcDbPolyline
 90
6
 70
0
 10
10.645140
 20
-66.978093
 30
0.0
 10
11.361420
 20
-66.978093
 30
0.0
 10
11.503660
 20
-67.023813
 30
0.0
 10
11.597640
 20
-67.120333
 30
0.0
 10
11.645900
 20
-67.262573
 30
0.0
 10
11.645900
 20
-67.356553
 30
0.0
  0
LWPOLYLINE
  5
309
100
AcDbEntity
  8
0
 62
7
100
AcDbPolyline
 90
11
 70
0
 10
10.741660
 20
-66.548833
 30
0.0
 10
10.693400
 20
-66.500573
 30
0.0
 10
10.645140
 20
-66.406593
 30
0.0
 10
10.645140
 20
-66.167833
 30
0.0
 10
10.693400
 20
-66.071313
 30
0.0
 10
10.741660
 20
-66.025593
 30
0.0
 10
10.835640
 20
-65.977333
 30
0.0
 10
10.932160
 20
-65.977333
 30
0.0
 10
11.074400
 20
-66.025593
 30
0.0
 10
11.645900
 20
-66.597093
 30
0.0
 10
11.645900
 20
-65.977333
 30
0.0
  0
LWPOLYLINE
  5
30a
100
AcDbEntity
  8
0
 62
7
100
AcDbPolyline
 90
6
 70
0
 10
12.738100
 20
-17.633513
 30
0.0
 10
13.451840
 20
-17.633513
 30
0.0
 10
13.596620
 20
-17.679233
 30
0.0
 10
13.690600
 20
-17.775753
 30
0.0
 10
13.738860
 20
-17.917993
 30
0.0
 10
13.738860
 20
-18.014513
 30
0.0
  0
LWPOLYLINE
  5
30b
100
AcDbEntity
  8
0
 62
7
100
AcDbPolyline
 90
2
 70
0
 10
13.738860
 20
-16.632753
 30
0.0
 10
13.738860
 20
-17.204253
 30
0.0
  0
LWPOLYLINE
  5
30c
100
AcDbEntity
  8
0
 62
7
100
AcDbPolyline
 90
5
 70
0
 10
13.738860
 20
-16.917233
 30
0.0
 10
12.738100
 20
-16.917233
 30
0.0
 10
12.880340
 20
-17.013753
 30
0.0
 10
12.976860
 20
-17.107733
 30
0.0
 10
13.025120
 20
-17.204253
 30
0.0
  0
LWPOLYLINE
  5
30d
100
AcDbEntity
  8
0
 62
7
100
AcDbPolyline
 90
20
 70
0
 10
49.075340
 20
-51.113253
 30
0.0
 10
49.123600
 20
-50.971013
 30
0.0
 10
49.123600
 20
-50.732253
 30
0.0
 10
49.075340
 20
-50.635733
 30
0.0
 10
49.029620
 20
-50.590013
 30
0.0
 10
48.933100
 20
-50.541753
 30
0.0
 10
48.839120
 20
-50.541753
 30
0.0
 10
48.742600
 20
-50.590013
 30
0.0
 10
48.694340
 20
-50.635733
 30
0.0
 10
48.648620
 20
-50.732253
 30
0.0
 10
48.600360
 20
-50.922753
 30
0.0
 10
48.552100
 20
-51.016733
 30
0.0
 10
48.503840
 20
-51.064993
 30
0.0
 10
48.409860
 20
-51.113253
 30
0.0
 10
48.313340
 20
-51.113253
 30
0.0
 10
48.219360
 20
-51.064993
 30
0.0
 10
48.171100
 20
-51.016733
 30
0.0
 10
48.122840
 20
-50.922753
 30
0.0
 10
48.122840
 20
-50.683993
 30
0.0
 10
48.171100
 20
-50.541753
 30
0.0
  0
LWPOLYLINE
  5
30e
100
AcDbEntity
  8
0
 62
7
100
AcDbPolyline
 90
5
 70
0
 10
48.122840
 20
-50.209013
 30
0.0
 10
49.123600
 20
-49.970253
 30
0.0
 10
48.409860
 20
-49.779753
 30
0.0
 10
49.123600
 20
-49.589253
 30
0.0
 10
48.122840
 20
-49.350493
 30
0.0
  0
LWPOLYLINE
  5
30f
100
AcDbEntity
  8
0
 62
7
100
AcDbPolyline
 90
14
 70
0
 10
48.122840
 20
-49.066013
 30
0.0
 10
48.122840
 20
-48.446253
 30
0.0
 10
48.503840
 20
-48.778993
 30
0.0
 10
48.503840
 20
-48.636753
 30
0.0
 10
48.552100
 20
-48.542773
 30
0.0
 10
48.600360
 20
-48.494513
 30
0.0
 10
48.694340
 20
-48.446253
 30
0.0
 10
48.933100
 20
-48.446253
 30
0.0
 10
49.029620
 20
-48.494513
 30
0.0
 10
49.075340
 20
-48.542773
 30
0.0
 10
49.123600
 20
-48.636753
 30
0.0
 10
49.123600
 20
-48.923773
 30
0.0
 10
49.075340
 20
-49.017753
 30
0.0
 10
49.029620
 20
-49.066013
 30
0.0
  0
LWPOLYLINE
  5
310
100
AcDbEntity
  8
0
 62
7
100
AcDbPolyline
 90
2
 70
0
 10
27.388820
 20
-88.110893
 30
0.0
 10
27.056080
 20
-87.635913
 30
0.0
  0
LWPOLYLINE
  5
311
100
AcDbEntity
  8
0
 62
7
100
AcDbPolyline
 90
11
 70
0
 10
26.817320
 20
-88.110893
 30
0.0
 10
26.817320
 20
-87.112673
 30
0.0
 10
27.198320
 20
-87.112673
 30
0.0
 10
27.294840
 20
-87.158393
 30
0.0
 10
27.343100
 20
-87.206653
 30
0.0
 10
27.388820
 20
-87.303173
 30
0.0
 10
27.388820
 20
-87.445413
 30
0.0
 10
27.343100
 20
-87.539393
 30
0.0
 10
27.294840
 20
-87.587653
 30
0.0
 10
27.198320
 20
-87.635913
 30
0.0
 10
26.817320
 20
-87.635913
 30
0.0
  0
LWPOLYLINE
  5
312
100
AcDbEntity
  8
0
 62
7
100
AcDbPolyline
 90
2
 70
0
 10
28.247340
 20
-87.445413
 30
0.0
 10
28.247340
 20
-88.110893
 30
0.0
  0
LWPOLYLINE
  5
313
100
AcDbEntity
  8
0
 62
7
100
AcDbPolyline
 90
3
 70
0
 10
28.008580
 20
-87.064413
 30
0.0
 10
27.769820
 20
-87.778153
 30
0.0
 10
28.389580
 20
-87.778153
 30
0.0
  0
LWPOLYLINE
  5
314
100
AcDbEntity
  8
0
 62
7
100
AcDbPolyline
 90
10
 70
0
 10
11.379200
 20
-80.930313
 30
0.0
 10
12.189460
 20
-80.930313
 30
0.0
 10
12.283440
 20
-80.884593
 30
0.0
 10
12.331700
 20
-80.836333
 30
0.0
 10
12.377420
 20
-80.739813
 30
0.0
 10
12.377420
 20
-80.549313
 30
0.0
 10
12.331700
 20
-80.455333
 30
0.0
 10
12.283440
 20
-80.407073
 30
0.0
 10
12.189460
 20
-80.358813
 30
0.0
 10
11.379200
 20
-80.358813
 30
0.0
  0
LWPOLYLINE
  5
315
100
AcDbEntity
  8
0
 62
7
100
AcDbPolyline
 90
2
 70
0
 10
11.711940
 20
-79.454573
 30
0.0
 10
12.377420
 20
-79.454573
 30
0.0
  0
LWPOLYLINE
  5
316
100
AcDbEntity
  8
0
 62
7
100
AcDbPolyline
 90
3
 70
0
 10
11.330940
 20
-79.693333
 30
0.0
 10
12.044680
 20
-79.932093
 30
0.0
 10
12.044680
 20
-79.312333
 30
0.0
  0
LWPOLYLINE
  5
317
100
AcDbEntity
  8
0
 62
7
100
AcDbPolyline
 90
10
 70
0
 10
8.219440
 20
-41.031993
 30
0.0
 10
9.027160
 20
-41.031993
 30
0.0
 10
9.123680
 20
-40.983733
 30
0.0
 10
9.171940
 20
-40.935473
 30
0.0
 10
9.217660
 20
-40.841493
 30
0.0
 10
9.217660
 20
-40.650993
 30
0.0
 10
9.171940
 20
-40.554473
 30
0.0
 10
9.123680
 20
-40.506213
 30
0.0
 10
9.027160
 20
-40.460493
 30
0.0
 10
8.219440
 20
-40.460493
 30
0.0
  0
LWPOLYLINE
  5
318
100
AcDbEntity
  8
0
 62
7
100
AcDbPolyline
 90
14
 70
0
 10
8.219440
 20
-40.079493
 30
0.0
 10
8.219440
 20
-39.459733
 30
0.0
 10
8.600440
 20
-39.792473
 30
0.0
 10
8.600440
 20
-39.650233
 30
0.0
 10
8.646160
 20
-39.553713
 30
0.0
 10
8.694420
 20
-39.507993
 30
0.0
 10
8.790940
 20
-39.459733
 30
0.0
 10
9.027160
 20
-39.459733
 30
0.0
 10
9.123680
 20
-39.507993
 30
0.0
 10
9.171940
 20
-39.553713
 30
0.0
 10
9.217660
 20
-39.650233
 30
0.0
 10
9.217660
 20
-39.934713
 30
0.0
 10
9.171940
 20
-40.031233
 30
0.0
 10
9.123680
 20
-40.079493
 30
0.0
  0
LWPOLYLINE
  5
319
100
AcDbEntity
  8
0
 62
7
100
AcDbPolyline
 90
10
 70
0
 10
27.005280
 20
-22.962433
 30
0.0
 10
27.005280
 20
-23.770153
 30
0.0
 10
27.051000
 20
-23.866673
 30
0.0
 10
27.099260
 20
-23.914933
 30
0.0
 10
27.195780
 20
-23.960653
 30
0.0
 10
27.386280
 20
-23.960653
 30
0.0
 10
27.480260
 20
-23.914933
 30
0.0
 10
27.528520
 20
-23.866673
 30
0.0
 10
27.576780
 20
-23.770153
 30
0.0
 10
27.576780
 20
-22.962433
 30
0.0
  0
LWPOLYLINE
  5
31a
100
AcDbEntity
  8
0
 62
7
100
AcDbPolyline
 90
2
 70
0
 10
28.575000
 20
-23.960653
 30
0.0
 10
28.003500
 20
-23.960653
 30
0.0
  0
LWPOLYLINE
  5
31b
100
AcDbEntity
  8
0
 62
7
100
AcDbPolyline
 90
5
 70
0
 10
28.290520
 20
-23.960653
 30
0.0
 10
28.290520
 20
-22.962433
 30
0.0
 10
28.194000
 20
-23.104673
 30
0.0
 10
28.100020
 20
-23.198653
 30
0.0
 10
28.003500
 20
-23.246913
 30
0.0
  0
LWPOLYLINE
  5
31c
100
AcDbEntity
  8
0
 62
7
100
AcDbPolyline
 90
20
 70
0
 10
17.642840
 20
-113.228953
 30
0.0
 10
17.785080
 20
-113.277213
 30
0.0
 10
18.023840
 20
-113.277213
 30
0.0
 10
18.117820
 20
-113.228953
 30
0.0
 10
18.166080
 20
-113.180693
 30
0.0
 10
18.214340
 20
-113.086713
 30
0.0
 10
18.214340
 20
-112.990193
 30
0.0
 10
18.166080
 20
-112.896213
 30
0.0
 10
18.117820
 20
-112.847953
 30
0.0
 10
18.023840
 20
-112.799693
 30
0.0
 10
17.833340
 20
-112.753973
 30
0.0
 10
17.736820
 20
-112.705713
 30
0.0
 10
17.691100
 20
-112.657453
 30
0.0
 10
17.642840
 20
-112.563473
 30
0.0
 10
17.642840
 20
-112.466953
 30
0.0
 10
17.691100
 20
-112.372973
 30
0.0
 10
17.736820
 20
-112.324713
 30
0.0
 10
17.833340
 20
-112.276453
 30
0.0
 10
18.072100
 20
-112.276453
 30
0.0
 10
18.214340
 20
-112.324713
 30
0.0
  0
LWPOLYLINE
  5
31d
100
AcDbEntity
  8
0
 62
7
100
AcDbPolyline
 90
5
 70
0
 10
18.547080
 20
-112.276453
 30
0.0
 10
18.785840
 20
-113.277213
 30
0.0
 10
18.976340
 20
-112.563473
 30
0.0
 10
19.166840
 20
-113.277213
 30
0.0
 10
19.405600
 20
-112.276453
 30
0.0
  0
LWPOLYLINE
  5
31e
100
AcDbEntity
  8
0
 62
7
100
AcDbPolyline
 90
2
 70
0
 10
20.213320
 20
-112.609193
 30
0.0
 10
20.213320
 20
-113.277213
 30
0.0
  0
LWPOLYLINE
  5
31f
100
AcDbEntity
  8
0
 62
7
100
AcDbPolyline
 90
3
 70
0
 10
19.974560
 20
-112.228193
 30
0.0
 10
19.738340
 20
-112.944473
 30
0.0
 10
20.355560
 20
-112.944473
 30
0.0
  0
LWPOLYLINE
  5
320
100
AcDbEntity
  8
0
 62
7
100
AcDbPolyline
 90
20
 70
0
 10
49.075340
 20
-41.156453
 30
0.0
 10
49.123600
 20
-41.014213
 30
0.0
 10
49.123600
 20
-40.775453
 30
0.0
 10
49.075340
 20
-40.678933
 30
0.0
 10
49.029620
 20
-40.633213
 30
0.0
 10
48.933100
 20
-40.584953
 30
0.0
 10
48.839120
 20
-40.584953
 30
0.0
 10
48.742600
 20
-40.633213
 30
0.0
 10
48.694340
 20
-40.678933
 30
0.0
 10
48.648620
 20
-40.775453
 30
0.0
 10
48.600360
 20
-40.965953
 30
0.0
 10
48.552100
 20
-41.059933
 30
0.0
 10
48.503840
 20
-41.108193
 30
0.0
 10
48.409860
 20
-41.156453
 30
0.0
 10
48.313340
 20
-41.156453
 30
0.0
 10
48.219360
 20
-41.108193
 30
0.0
 10
48.171100
 20
-41.059933
 30
0.0
 10
48.122840
 20
-40.965953
 30
0.0
 10
48.122840
 20
-40.727193
 30
0.0
 10
48.171100
 20
-40.584953
 30
0.0
  0
LWPOLYLINE
  5
321
100
AcDbEntity
  8
0
 62
7
100
AcDbPolyline
 90
5
 70
0
 10
48.122840
 20
-40.252213
 30
0.0
 10
49.123600
 20
-40.013453
 30
0.0
 10
48.409860
 20
-39.822953
 30
0.0
 10
49.123600
 20
-39.632453
 30
0.0
 10
48.122840
 20
-39.393693
 30
0.0
  0
LWPOLYLINE
  5
322
100
AcDbEntity
  8
0
 62
7
100
AcDbPolyline
 90
11
 70
0
 10
48.219360
 20
-39.060953
 30
0.0
 10
48.171100
 20
-39.012693
 30
0.0
 10
48.122840
 20
-38.918713
 30
0.0
 10
48.122840
 20
-38.679953
 30
0.0
 10
48.171100
 20
-38.585973
 30
0.0
 10
48.219360
 20
-38.537713
 30
0.0
 10
48.313340
 20
-38.489453
 30
0.0
 10
48.409860
 20
-38.489453
 30
0.0
 10
48.552100
 20
-38.537713
 30
0.0
 10
49.123600
 20
-39.109213
 30
0.0
 10
49.123600
 20
-38.489453
 30
0.0
  0
LWPOLYLINE
  5
323
100
AcDbEntity
  8
0
 62
7
100
AcDbPolyline
 90
20
 70
0
 10
48.950880
 20
-26.561613
 30
0.0
 10
48.999140
 20
-26.419373
 30
0.0
 10
48.999140
 20
-26.180613
 30
0.0
 10
48.950880
 20
-26.086633
 30
0.0
 10
48.902620
 20
-26.038373
 30
0.0
 10
48.808640
 20
-25.990113
 30
0.0
 10
48.712120
 20
-25.990113
 30
0.0
 10
48.618140
 20
-26.038373
 30
0.0
 10
48.569880
 20
-26.086633
 30
0.0
 10
48.521620
 20
-26.180613
 30
0.0
 10
48.475900
 20
-26.371113
 30
0.0
 10
48.427640
 20
-26.467633
 30
0.0
 10
48.379380
 20
-26.515893
 30
0.0
 10
48.285400
 20
-26.561613
 30
0.0
 10
48.188880
 20
-26.561613
 30
0.0
 10
48.094900
 20
-26.515893
 30
0.0
 10
48.046640
 20
-26.467633
 30
0.0
 10
47.998380
 20
-26.371113
 30
0.0
 10
47.998380
 20
-26.134893
 30
0.0
 10
48.046640
 20
-25.990113
 30
0.0
  0
LWPOLYLINE
  5
324
100
AcDbEntity
  8
0
 62
7
100
AcDbPolyline
 90
5
 70
0
 10
47.998380
 20
-25.657373
 30
0.0
 10
48.999140
 20
-25.418613
 30
0.0
 10
48.285400
 20
-25.228113
 30
0.0
 10
48.999140
 20
-25.037613
 30
0.0
 10
47.998380
 20
-24.801393
 30
0.0
  0
LWPOLYLINE
  5
325
100
AcDbEntity
  8
0
 62
7
100
AcDbPolyline
 90
2
 70
0
 10
48.999140
 20
-23.894613
 30
0.0
 10
48.999140
 20
-24.466113
 30
0.0
  0
LWPOLYLINE
  5
326
100
AcDbEntity
  8
0
 62
7
100
AcDbPolyline
 90
5
 70
0
 10
48.999140
 20
-24.181633
 30
0.0
 10
47.998380
 20
-24.181633
 30
0.0
 10
48.140620
 20
-24.275613
 30
0.0
 10
48.237140
 20
-24.372133
 30
0.0
 10
48.285400
 20
-24.466113
 30
0.0
  0
LWPOLYLINE
  5
327
100
AcDbEntity
  8
0
 62
7
100
AcDbPolyline
 90
20
 70
0
 10
40.243760
 20
-14.273093
 30
0.0
 10
40.424100
 20
-14.334053
 30
0.0
 10
40.726360
 20
-14.334053
 30
0.0
 10
40.848280
 20
-14.273093
 30
0.0
 10
40.909240
 20
-14.212133
 30
0.0
 10
40.970200
 20
-14.092753
 30
0.0
 10
40.970200
 20
-13.970833
 30
0.0
 10
40.909240
 20
-13.848913
 30
0.0
 10
40.848280
 20
-13.790493
 30
0.0
 10
40.726360
 20
-13.729533
 30
0.0
 10
40.485060
 20
-13.668573
 30
0.0
 10
40.365680
 20
-13.607613
 30
0.0
 10
40.304720
 20
-13.546653
 30
0.0
 10
40.243760
 20
-13.427273
 30
0.0
 10
40.243760
 20
-13.305353
 30
0.0
 10
40.304720
 20
-13.183433
 30
0.0
 10
40.365680
 20
-13.125013
 30
0.0
 10
40.485060
 20
-13.064053
 30
0.0
 10
40.787320
 20
-13.064053
 30
0.0
 10
40.970200
 20
-13.125013
 30
0.0
  0
LWPOLYLINE
  5
328
100
AcDbEntity
  8
0
 62
7
100
AcDbPolyline
 90
11
 70
0
 10
41.513760
 20
-14.334053
 30
0.0
 10
41.513760
 20
-13.064053
 30
0.0
 10
41.996360
 20
-13.064053
 30
0.0
 10
42.118280
 20
-13.125013
 30
0.0
 10
42.179240
 20
-13.183433
 30
0.0
 10
42.240200
 20
-13.305353
 30
0.0
 10
42.240200
 20
-13.488233
 30
0.0
 10
42.179240
 20
-13.607613
 30
0.0
 10
42.118280
 20
-13.668573
 30
0.0
 10
41.996360
 20
-13.729533
 30
0.0
 10
41.513760
 20
-13.729533
 30
0.0
  0
LWPOLYLINE
  5
329
100
AcDbEntity
  8
0
 62
7
100
AcDbPolyline
 90
2
 70
0
 10
43.449240
 20
-14.334053
 30
0.0
 10
42.722800
 20
-14.334053
 30
0.0
  0
LWPOLYLINE
  5
32a
100
AcDbEntity
  8
0
 62
7
100
AcDbPolyline
 90
5
 70
0
 10
43.086020
 20
-14.334053
 30
0.0
 10
43.086020
 20
-13.064053
 30
0.0
 10
42.964100
 20
-13.244393
 30
0.0
 10
42.844720
 20
-13.366313
 30
0.0
 10
42.722800
 20
-13.427273
 30
0.0
  0
LWPOLYLINE
  5
32b
100
AcDbEntity
  8
0
 62
7
100
AcDbPolyline
 90
2
 70
0
 10
39.179500
 20
-88.110893
 30
0.0
 10
38.846760
 20
-87.635913
 30
0.0
  0
LWPOLYLINE
  5
32c
100
AcDbEntity
  8
0
 62
7
100
AcDbPolyline
 90
11
 70
0
 10
38.608000
 20
-88.110893
 30
0.0
 10
38.608000
 20
-87.112673
 30
0.0
 10
38.989000
 20
-87.112673
 30
0.0
 10
39.085520
 20
-87.158393
 30
0.0
 10
39.131240
 20
-87.206653
 30
0.0
 10
39.179500
 20
-87.303173
 30
0.0
 10
39.179500
 20
-87.445413
 30
0.0
 10
39.131240
 20
-87.539393
 30
0.0
 10
39.085520
 20
-87.587653
 30
0.0
 10
38.989000
 20
-87.635913
 30
0.0
 10
38.608000
 20
-87.635913
 30
0.0
  0
LWPOLYLINE
  5
32d
100
AcDbEntity
  8
0
 62
7
100
AcDbPolyline
 90
3
 70
0
 10
39.512240
 20
-87.112673
 30
0.0
 10
40.180260
 20
-87.112673
 30
0.0
 10
39.751000
 20
-88.110893
 30
0.0
  0
LWPOLYLINE
  5
32e
100
AcDbEntity
  8
0
 62
7
100
AcDbPolyline
 90
2
 70
0
 10
23.220680
 20
-88.110893
 30
0.0
 10
22.885400
 20
-87.635913
 30
0.0
  0
LWPOLYLINE
  5
32f
100
AcDbEntity
  8
0
 62
7
100
AcDbPolyline
 90
11
 70
0
 10
22.649180
 20
-88.110893
 30
0.0
 10
22.649180
 20
-87.112673
 30
0.0
 10
23.030180
 20
-87.112673
 30
0.0
 10
23.124160
 20
-87.158393
 30
0.0
 10
23.172420
 20
-87.206653
 30
0.0
 10
23.220680
 20
-87.303173
 30
0.0
 10
23.220680
 20
-87.445413
 30
0.0
 10
23.172420
 20
-87.539393
 30
0.0
 10
23.124160
 20
-87.587653
 30
0.0
 10
23.030180
 20
-87.635913
 30
0.0
 10
22.649180
 20
-87.635913
 30
0.0
  0
LWPOLYLINE
  5
330
100
AcDbEntity
  8
0
 62
7
100
AcDbPolyline
 90
14
 70
0
 10
23.553420
 20
-87.112673
 30
0.0
 10
24.173180
 20
-87.112673
 30
0.0
 10
23.837900
 20
-87.493673
 30
0.0
 10
23.982680
 20
-87.493673
 30
0.0
 10
24.076660
 20
-87.539393
 30
0.0
 10
24.124920
 20
-87.587653
 30
0.0
 10
24.173180
 20
-87.684173
 30
0.0
 10
24.173180
 20
-87.920393
 30
0.0
 10
24.124920
 20
-88.016913
 30
0.0
 10
24.076660
 20
-88.065173
 30
0.0
 10
23.982680
 20
-88.110893
 30
0.0
 10
23.695660
 20
-88.110893
 30
0.0
 10
23.601680
 20
-88.065173
 30
0.0
 10
23.553420
 20
-88.016913
 30
0.0
  0
LWPOLYLINE
  5
331
100
AcDbEntity
  8
0
 62
7
100
AcDbPolyline
 90
2
 70
0
 10
35.229800
 20
-88.110893
 30
0.0
 10
34.897060
 20
-87.635913
 30
0.0
  0
LWPOLYLINE
  5
332
100
AcDbEntity
  8
0
 62
7
100
AcDbPolyline
 90
11
 70
0
 10
34.658300
 20
-88.110893
 30
0.0
 10
34.658300
 20
-87.112673
 30
0.0
 10
35.039300
 20
-87.112673
 30
0.0
 10
35.133280
 20
-87.158393
 30
0.0
 10
35.181540
 20
-87.206653
 30
0.0
 10
35.229800
 20
-87.303173
 30
0.0
 10
35.229800
 20
-87.445413
 30
0.0
 10
35.181540
 20
-87.539393
 30
0.0
 10
35.133280
 20
-87.587653
 30
0.0
 10
35.039300
 20
-87.635913
 30
0.0
 10
34.658300
 20
-87.635913
 30
0.0
  0
LWPOLYLINE
  5
333
100
AcDbEntity
  8
0
 62
7
100
AcDbPolyline
 90
22
 70
0
 10
36.085780
 20
-87.112673
 30
0.0
 10
35.895280
 20
-87.112673
 30
0.0
 10
35.801300
 20
-87.158393
 30
0.0
 10
35.753040
 20
-87.206653
 30
0.0
 10
35.659060
 20
-87.348893
 30
0.0
 10
35.610800
 20
-87.539393
 30
0.0
 10
35.610800
 20
-87.920393
 30
0.0
 10
35.659060
 20
-88.016913
 30
0.0
 10
35.704780
 20
-88.065173
 30
0.0
 10
35.801300
 20
-88.110893
 30
0.0
 10
35.991800
 20
-88.110893
 30
0.0
 10
36.085780
 20
-88.065173
 30
0.0
 10
36.134040
 20
-88.016913
 30
0.0
 10
36.182300
 20
-87.920393
 30
0.0
 10
36.182300
 20
-87.684173
 30
0.0
 10
36.134040
 20
-87.587653
 30
0.0
 10
36.085780
 20
-87.539393
 30
0.0
 10
35.991800
 20
-87.493673
 30
0.0
 10
35.801300
 20
-87.493673
 30
0.0
 10
35.704780
 20
-87.539393
 30
0.0
 10
35.659060
 20
-87.587653
 30
0.0
 10
35.610800
 20
-87.684173
 30
0.0
  0
LWPOLYLINE
  5
334
100
AcDbEntity
  8
0
 62
7
100
AcDbPolyline
 90
2
 70
0
 10
31.269940
 20
-88.110893
 30
0.0
 10
30.937200
 20
-87.635913
 30
0.0
  0
LWPOLYLINE
  5
335
100
AcDbEntity
  8
0
 62
7
100
AcDbPolyline
 90
11
 70
0
 10
30.698440
 20
-88.110893
 30
0.0
 10
30.698440
 20
-87.112673
 30
0.0
 10
31.079440
 20
-87.112673
 30
0.0
 10
31.173420
 20
-87.158393
 30
0.0
 10
31.221680
 20
-87.206653
 30
0.0
 10
31.269940
 20
-87.303173
 30
0.0
 10
31.269940
 20
-87.445413
 30
0.0
 10
31.221680
 20
-87.539393
 30
0.0
 10
31.173420
 20
-87.587653
 30
0.0
 10
31.079440
 20
-87.635913
 30
0.0
 10
30.698440
 20
-87.635913
 30
0.0
  0
LWPOLYLINE
  5
336
100
AcDbEntity
  8
0
 62
7
100
AcDbPolyline
 90
16
 70
0
 10
32.174180
 20
-87.112673
 30
0.0
 10
31.699200
 20
-87.112673
 30
0.0
 10
31.650940
 20
-87.587653
 30
0.0
 10
31.699200
 20
-87.539393
 30
0.0
 10
31.793180
 20
-87.493673
 30
0.0
 10
32.031940
 20
-87.493673
 30
0.0
 10
32.125920
 20
-87.539393
 30
0.0
 10
32.174180
 20
-87.587653
 30
0.0
 10
32.222440
 20
-87.684173
 30
0.0
 10
32.222440
 20
-87.920393
 30
0.0
 10
32.174180
 20
-88.016913
 30
0.0
 10
32.125920
 20
-88.065173
 30
0.0
 10
32.031940
 20
-88.110893
 30
0.0
 10
31.793180
 20
-88.110893
 30
0.0
 10
31.699200
 20
-88.065173
 30
0.0
 10
31.650940
 20
-88.016913
 30
0.0
  0
LWPOLYLINE
  5
337
100
AcDbEntity
  8
0
 62
7
100
AcDbPolyline
 90
2
 70
0
 10
18.920460
 20
-88.110893
 30
0.0
 10
18.585180
 20
-87.635913
 30
0.0
  0
LWPOLYLINE
  5
338
100
AcDbEntity
  8
0
 62
7
100
AcDbPolyline
 90
11
 70
0
 10
18.348960
 20
-88.110893
 30
0.0
 10
18.348960
 20
-87.112673
 30
0.0
 10
18.729960
 20
-87.112673
 30
0.0
 10
18.823940
 20
-87.158393
 30
0.0
 10
18.872200
 20
-87.206653
 30
0.0
 10
18.920460
 20
-87.303173
 30
0.0
 10
18.920460
 20
-87.445413
 30
0.0
 10
18.872200
 20
-87.539393
 30
0.0
 10
18.823940
 20
-87.587653
 30
0.0
 10
18.729960
 20
-87.635913
 30
0.0
 10
18.348960
 20
-87.635913
 30
0.0
  0
LWPOLYLINE
  5
339
100
AcDbEntity
  8
0
 62
7
100
AcDbPolyline
 90
11
 70
0
 10
19.301460
 20
-87.206653
 30
0.0
 10
19.347180
 20
-87.158393
 30
0.0
 10
19.443700
 20
-87.112673
 30
0.0
 10
19.682460
 20
-87.112673
 30
0.0
 10
19.776440
 20
-87.158393
 30
0.0
 10
19.824700
 20
-87.206653
 30
0.0
 10
19.872960
 20
-87.303173
 30
0.0
 10
19.872960
 20
-87.397153
 30
0.0
 10
19.824700
 20
-87.539393
 30
0.0
 10
19.253200
 20
-88.110893
 30
0.0
 10
19.872960
 20
-88.110893
 30
0.0
  0
LWPOLYLINE
  5
33a
100
AcDbEntity
  8
0
 62
7
100
AcDbPolyline
 90
2
 70
0
 10
15.110460
 20
-88.110893
 30
0.0
 10
14.775180
 20
-87.635913
 30
0.0
  0
LWPOLYLINE
  5
33b
100
AcDbEntity
  8
0
 62
7
100
AcDbPolyline
 90
11
 70
0
 10
14.538960
 20
-88.110893
 30
0.0
 10
14.538960
 20
-87.112673
 30
0.0
 10
14.919960
 20
-87.112673
 30
0.0
 10
15.013940
 20
-87.158393
 30
0.0
 10
15.062200
 20
-87.206653
 30
0.0
 10
15.110460
 20
-87.303173
 30
0.0
 10
15.110460
 20
-87.445413
 30
0.0
 10
15.062200
 20
-87.539393
 30
0.0
 10
15.013940
 20
-87.587653
 30
0.0
 10
14.919960
 20
-87.635913
 30
0.0
 10
14.538960
 20
-87.635913
 30
0.0
  0
LWPOLYLINE
  5
33c
100
AcDbEntity
  8
0
 62
7
100
AcDbPolyline
 90
2
 70
0
 10
16.062960
 20
-88.110893
 30
0.0
 10
15.491460
 20
-88.110893
 30
0.0
  0
LWPOLYLINE
  5
33d
100
AcDbEntity
  8
0
 62
7
100
AcDbPolyline
 90
5
 70
0
 10
15.775940
 20
-88.110893
 30
0.0
 10
15.775940
 20
-87.112673
 30
0.0
 10
15.681960
 20
-87.254913
 30
0.0
 10
15.585440
 20
-87.348893
 30
0.0
 10
15.491460
 20
-87.397153
 30
0.0
  0
LWPOLYLINE
  5
33e
100
AcDbEntity
  8
0
 62
7
100
AcDbPolyline
 90
6
 70
0
 10
5.702300
 20
-75.896033
 30
0.0
 10
5.605780
 20
-75.850313
 30
0.0
 10
5.511800
 20
-75.753793
 30
0.0
 10
5.367020
 20
-75.611553
 30
0.0
 10
5.273040
 20
-75.563293
 30
0.0
 10
5.176520
 20
-75.563293
 30
0.0
  0
LWPOLYLINE
  5
33f
100
AcDbEntity
  8
0
 62
7
100
AcDbPolyline
 90
16
 70
1
 10
5.224780
 20
-75.802053
 30
0.0
 10
5.130800
 20
-75.753793
 30
0.0
 10
5.034280
 20
-75.659813
 30
0.0
 10
4.986020
 20
-75.469313
 30
0.0
 10
4.986020
 20
-75.134033
 30
0.0
 10
5.034280
 20
-74.943533
 30
0.0
 10
5.130800
 20
-74.849553
 30
0.0
 10
5.224780
 20
-74.801293
 30
0.0
 10
5.415280
 20
-74.801293
 30
0.0
 10
5.511800
 20
-74.849553
 30
0.0
 10
5.605780
 20
-74.943533
 30
0.0
 10
5.654040
 20
-75.134033
 30
0.0
 10
5.654040
 20
-75.469313
 30
0.0
 10
5.605780
 20
-75.659813
 30
0.0
 10
5.511800
 20
-75.753793
 30
0.0
 10
5.415280
 20
-75.802053
 30
0.0
  0
LWPOLYLINE
  5
340
100
AcDbEntity
  8
0
 62
7
100
AcDbPolyline
 90
14
 70
0
 10
5.986780
 20
-74.801293
 30
0.0
 10
6.606540
 20
-74.801293
 30
0.0
 10
6.271260
 20
-75.182293
 30
0.0
 10
6.416040
 20
-75.182293
 30
0.0
 10
6.510020
 20
-75.230553
 30
0.0
 10
6.558280
 20
-75.278813
 30
0.0
 10
6.606540
 20
-75.372793
 30
0.0
 10
6.606540
 20
-75.611553
 30
0.0
 10
6.558280
 20
-75.705533
 30
0.0
 10
6.510020
 20
-75.753793
 30
0.0
 10
6.416040
 20
-75.802053
 30
0.0
 10
6.129020
 20
-75.802053
 30
0.0
 10
6.035040
 20
-75.753793
 30
0.0
 10
5.986780
 20
-75.705533
 30
0.0
  0
LWPOLYLINE
  5
341
100
AcDbEntity
  8
0
 62
7
100
AcDbPolyline
 90
6
 70
0
 10
6.626860
 20
-99.289433
 30
0.0
 10
6.626860
 20
-100.003173
 30
0.0
 10
6.578600
 20
-100.145413
 30
0.0
 10
6.484620
 20
-100.241933
 30
0.0
 10
6.342380
 20
-100.287653
 30
0.0
 10
6.245860
 20
-100.287653
 30
0.0
  0
LWPOLYLINE
  5
342
100
AcDbEntity
  8
0
 62
7
100
AcDbPolyline
 90
11
 70
0
 10
7.056120
 20
-99.383413
 30
0.0
 10
7.104380
 20
-99.335153
 30
0.0
 10
7.198360
 20
-99.289433
 30
0.0
 10
7.437120
 20
-99.289433
 30
0.0
 10
7.531100
 20
-99.335153
 30
0.0
 10
7.579360
 20
-99.383413
 30
0.0
 10
7.627620
 20
-99.479933
 30
0.0
 10
7.627620
 20
-99.573913
 30
0.0
 10
7.579360
 20
-99.716153
 30
0.0
 10
7.007860
 20
-100.287653
 30
0.0
 10
7.627620
 20
-100.287653
 30
0.0
  0
LWPOLYLINE
  5
343
100
AcDbEntity
  8
0
 62
7
100
AcDbPolyline
 90
20
 70
1
 10
8.247380
 20
-99.289433
 30
0.0
 10
8.341360
 20
-99.289433
 30
0.0
 10
8.437880
 20
-99.335153
 30
0.0
 10
8.483600
 20
-99.383413
 30
0.0
 10
8.531860
 20
-99.479933
 30
0.0
 10
8.580120
 20
-99.670433
 30
0.0
 10
8.580120
 20
-99.906653
 30
0.0
 10
8.531860
 20
-100.097153
 30
0.0
 10
8.483600
 20
-100.193673
 30
0.0
 10
8.437880
 20
-100.241933
 30
0.0
 10
8.341360
 20
-100.287653
 30
0.0
 10
8.247380
 20
-100.287653
 30
0.0
 10
8.150860
 20
-100.241933
 30
0.0
 10
8.102600
 20
-100.193673
 30
0.0
 10
8.056880
 20
-100.097153
 30
0.0
 10
8.008620
 20
-99.906653
 30
0.0
 10
8.008620
 20
-99.670433
 30
0.0
 10
8.056880
 20
-99.479933
 30
0.0
 10
8.102600
 20
-99.383413
 30
0.0
 10
8.150860
 20
-99.335153
 30
0.0
  0
LWPOLYLINE
  5
344
100
AcDbEntity
  8
0
 62
7
100
AcDbPolyline
 90
6
 70
0
 10
30.396180
 20
-109.152253
 30
0.0
 10
30.396180
 20
-109.865993
 30
0.0
 10
30.347920
 20
-110.008233
 30
0.0
 10
30.253940
 20
-110.104753
 30
0.0
 10
30.111700
 20
-110.150473
 30
0.0
 10
30.015180
 20
-110.150473
 30
0.0
  0
LWPOLYLINE
  5
345
100
AcDbEntity
  8
0
 62
7
100
AcDbPolyline
 90
2
 70
0
 10
31.396940
 20
-110.150473
 30
0.0
 10
30.825440
 20
-110.150473
 30
0.0
  0
LWPOLYLINE
  5
346
100
AcDbEntity
  8
0
 62
7
100
AcDbPolyline
 90
5
 70
0
 10
31.109920
 20
-110.150473
 30
0.0
 10
31.109920
 20
-109.152253
 30
0.0
 10
31.015940
 20
-109.294493
 30
0.0
 10
30.919420
 20
-109.388473
 30
0.0
 10
30.825440
 20
-109.436733
 30
0.0
  0
LWPOLYLINE
  5
347
100
AcDbEntity
  8
0
 62
7
100
AcDbPolyline
 90
22
 70
0
 10
31.871920
 20
-110.150473
 30
0.0
 10
32.062420
 20
-110.150473
 30
0.0
 10
32.158940
 20
-110.104753
 30
0.0
 10
32.207200
 20
-110.056493
 30
0.0
 10
32.301180
 20
-109.914253
 30
0.0
 10
32.349440
 20
-109.723753
 30
0.0
 10
32.349440
 20
-109.342753
 30
0.0
 10
32.301180
 20
-109.246233
 30
0.0
 10
32.252920
 20
-109.197973
 30
0.0
 10
32.158940
 20
-109.152253
 30
0.0
 10
31.968440
 20
-109.152253
 30
0.0
 10
31.871920
 20
-109.197973
 30
0.0
 10
31.826200
 20
-109.246233
 30
0.0
 10
31.777940
 20
-109.342753
 30
0.0
 10
31.777940
 20
-109.578973
 30
0.0
 10
31.826200
 20
-109.675493
 30
0.0
 10
31.871920
 20
-109.723753
 30
0.0
 10
31.968440
 20
-109.769473
 30
0.0
 10
32.158940
 20
-109.769473
 30
0.0
 10
32.252920
 20
-109.723753
 30
0.0
 10
32.301180
 20
-109.675493
 30
0.0
 10
32.349440
 20
-109.578973
 30
0.0
  0
LWPOLYLINE
  5
348
100
AcDbEntity
  8
0
 62
7
100
AcDbPolyline
 90
6
 70
0
 10
29.959300
 20
-46.099293
 30
0.0
 10
30.673040
 20
-46.099293
 30
0.0
 10
30.815280
 20
-46.147553
 30
0.0
 10
30.911800
 20
-46.241533
 30
0.0
 10
30.957520
 20
-46.383773
 30
0.0
 10
30.957520
 20
-46.480293
 30
0.0
  0
LWPOLYLINE
  5
349
100
AcDbEntity
  8
0
 62
7
100
AcDbPolyline
 90
2
 70
0
 10
30.957520
 20
-45.098533
 30
0.0
 10
30.957520
 20
-45.670033
 30
0.0
  0
LWPOLYLINE
  5
34a
100
AcDbEntity
  8
0
 62
7
100
AcDbPolyline
 90
5
 70
0
 10
30.957520
 20
-45.385553
 30
0.0
 10
29.959300
 20
-45.385553
 30
0.0
 10
30.101540
 20
-45.479533
 30
0.0
 10
30.195520
 20
-45.576053
 30
0.0
 10
30.243780
 20
-45.670033
 30
0.0
  0
LWPOLYLINE
  5
34b
100
AcDbEntity
  8
0
 62
7
100
AcDbPolyline
 90
22
 70
0
 10
29.959300
 20
-44.242553
 30
0.0
 10
29.959300
 20
-44.433053
 30
0.0
 10
30.007560
 20
-44.527033
 30
0.0
 10
30.053280
 20
-44.575293
 30
0.0
 10
30.195520
 20
-44.669273
 30
0.0
 10
30.386020
 20
-44.717533
 30
0.0
 10
30.767020
 20
-44.717533
 30
0.0
 10
30.863540
 20
-44.669273
 30
0.0
 10
30.911800
 20
-44.623553
 30
0.0
 10
30.957520
 20
-44.527033
 30
0.0
 10
30.957520
 20
-44.336533
 30
0.0
 10
30.911800
 20
-44.242553
 30
0.0
 10
30.863540
 20
-44.194293
 30
0.0
 10
30.767020
 20
-44.146033
 30
0.0
 10
30.530800
 20
-44.146033
 30
0.0
 10
30.434280
 20
-44.194293
 30
0.0
 10
30.386020
 20
-44.242553
 30
0.0
 10
30.340300
 20
-44.336533
 30
0.0
 10
30.340300
 20
-44.527033
 30
0.0
 10
30.386020
 20
-44.623553
 30
0.0
 10
30.434280
 20
-44.669273
 30
0.0
 10
30.530800
 20
-44.717533
 30
0.0
  0
LWPOLYLINE
  5
34c
100
AcDbEntity
  8
0
 62
7
100
AcDbPolyline
 90
6
 70
0
 10
51.907440
 20
-67.041593
 30
0.0
 10
52.623720
 20
-67.041593
 30
0.0
 10
52.765960
 20
-67.089853
 30
0.0
 10
52.859940
 20
-67.186373
 30
0.0
 10
52.908200
 20
-67.328613
 30
0.0
 10
52.908200
 20
-67.422593
 30
0.0
  0
LWPOLYLINE
  5
34d
100
AcDbEntity
  8
0
 62
7
100
AcDbPolyline
 90
16
 70
0
 10
51.907440
 20
-66.089093
 30
0.0
 10
51.907440
 20
-66.566613
 30
0.0
 10
52.384960
 20
-66.614873
 30
0.0
 10
52.336700
 20
-66.566613
 30
0.0
 10
52.288440
 20
-66.470093
 30
0.0
 10
52.288440
 20
-66.233873
 30
0.0
 10
52.336700
 20
-66.137353
 30
0.0
 10
52.384960
 20
-66.089093
 30
0.0
 10
52.478940
 20
-66.043373
 30
0.0
 10
52.717700
 20
-66.043373
 30
0.0
 10
52.814220
 20
-66.089093
 30
0.0
 10
52.859940
 20
-66.137353
 30
0.0
 10
52.908200
 20
-66.233873
 30
0.0
 10
52.908200
 20
-66.470093
 30
0.0
 10
52.859940
 20
-66.566613
 30
0.0
 10
52.814220
 20
-66.614873
 30
0.0
  0
LWPOLYLINE
  5
34e
100
AcDbEntity
  8
0
 62
7
100
AcDbPolyline
 90
12
 70
1
 10
44.368720
 20
-88.100733
 30
0.0
 10
44.368720
 20
-87.102513
 30
0.0
 10
44.607480
 20
-87.102513
 30
0.0
 10
44.749720
 20
-87.148233
 30
0.0
 10
44.843700
 20
-87.244753
 30
0.0
 10
44.891960
 20
-87.338733
 30
0.0
 10
44.940220
 20
-87.529233
 30
0.0
 10
44.940220
 20
-87.674013
 30
0.0
 10
44.891960
 20
-87.864513
 30
0.0
 10
44.843700
 20
-87.958493
 30
0.0
 10
44.749720
 20
-88.055013
 30
0.0
 10
44.607480
 20
-88.100733
 30
0.0
  0
LWPOLYLINE
  5
34f
100
AcDbEntity
  8
0
 62
7
100
AcDbPolyline
 90
2
 70
0
 10
45.892720
 20
-88.100733
 30
0.0
 10
45.321220
 20
-88.100733
 30
0.0
  0
LWPOLYLINE
  5
350
100
AcDbEntity
  8
0
 62
7
100
AcDbPolyline
 90
5
 70
0
 10
45.605700
 20
-88.100733
 30
0.0
 10
45.605700
 20
-87.102513
 30
0.0
 10
45.511720
 20
-87.244753
 30
0.0
 10
45.415200
 20
-87.338733
 30
0.0
 10
45.321220
 20
-87.386993
 30
0.0
  0
LWPOLYLINE
  5
351
100
AcDbEntity
  8
0
 62
7
100
AcDbPolyline
 90
2
 70
0
 10
47.454820
 20
-90.711853
 30
0.0
 10
47.454820
 20
-89.711093
 30
0.0
  0
LWPOLYLINE
  5
352
100
AcDbEntity
  8
0
 62
7
100
AcDbPolyline
 90
2
 70
0
 10
48.026320
 20
-90.711853
 30
0.0
 10
47.597060
 20
-90.140353
 30
0.0
  0
LWPOLYLINE
  5
353
100
AcDbEntity
  8
0
 62
7
100
AcDbPolyline
 90
2
 70
0
 10
48.026320
 20
-89.711093
 30
0.0
 10
47.454820
 20
-90.282593
 30
0.0
  0
LWPOLYLINE
  5
354
100
AcDbEntity
  8
0
 62
7
100
AcDbPolyline
 90
2
 70
0
 10
56.606440
 20
-15.771693
 30
0.0
 10
56.606440
 20
-16.706413
 30
0.0
  0
LWPOLYLINE
  5
355
100
AcDbEntity
  8
0
 62
7
100
AcDbPolyline
 90
2
 70
0
 10
56.606440
 20
-15.769153
 30
0.0
 10
56.606440
 20
-15.771693
 30
0.0
  0
LWPOLYLINE
  5
356
100
AcDbEntity
  8
0
 62
7
100
AcDbPolyline
 90
2
 70
0
 10
53.004720
 20
-114.130653
 30
0.0
 10
53.695600
 20
-114.130653
 30
0.0
  0
SPLINE
  5
357
100
AcDbEntity
  8
0
 62
7
100
AcDbSpline
 70
8
 71
3
 72
8
 73
4
 74
0
 40
0
 40
0
 40
0
 40
0
 40
1
 40
1
 40
1
 40
1
 10
49.705006
 20
-112.763117
 30
0.0
 10
48.829496
 20
-111.887666
 30
0.0
 10
47.642138
 20
-111.395765
 30
0.0
 10
46.404022
 20
-111.395581
 30
0.0
  0
SPLINE
  5
358
100
AcDbEntity
  8
0
 62
7
100
AcDbSpline
 70
8
 71
3
 72
8
 73
4
 74
0
 40
0
 40
0
 40
0
 40
0
 40
1
 40
1
 40
1
 40
1
 10
49.705006
 20
-112.763117
 30
0.0
 10
50.580412
 20
-113.638599
 30
0.0
 10
51.767671
 20
-114.130588
 30
0.0
 10
53.005736
 20
-114.130907
 30
0.0
  0
SPLINE
  5
359
100
AcDbEntity
  8
0
 62
7
100
AcDbSpline
 70
8
 71
3
 72
8
 73
4
 74
0
 40
0
 40
0
 40
0
 40
0
 40
1
 40
1
 40
1
 40
1
 10
34.824416
 20
-114.130907
 30
0.0
 10
36.062569
 20
-114.130655
 30
0.0
 10
37.249932
 20
-113.638662
 30
0.0
 10
38.125400
 20
-112.763117
 30
0.0
  0
SPLINE
  5
35a
100
AcDbEntity
  8
0
 62
7
100
AcDbSpline
 70
8
 71
3
 72
8
 73
4
 74
0
 40
0
 40
0
 40
0
 40
0
 40
1
 40
1
 40
1
 40
1
 10
41.426384
 20
-111.395581
 30
0.0
 10
40.188268
 20
-111.395765
 30
0.0
 10
39.000910
 20
-111.887666
 30
0.0
 10
38.125400
 20
-112.763117
 30
0.0
  0
LWPOLYLINE
  5
35b
100
AcDbEntity
  8
0
 62
7
100
AcDbPolyline
 90
2
 70
0
 10
41.424860
 20
-111.395073
 30
0.0
 10
46.403260
 20
-111.395073
 30
0.0
  0
SPLINE
  5
35c
100
AcDbEntity
  8
0
 62
7
100
AcDbSpline
 70
8
 71
3
 72
8
 73
4
 74
0
 40
0
 40
0
 40
0
 40
0
 40
1
 40
1
 40
1
 40
1
 10
53.872384
 20
-52.669511
 30
0.0
 10
53.872568
 20
-53.907628
 30
0.0
 10
54.364469
 20
-55.094986
 30
0.0
 10
55.239920
 20
-55.970495
 30
0.0
  0
SPLINE
  5
35d
100
AcDbEntity
  8
0
 62
7
100
AcDbSpline
 70
8
 71
3
 72
8
 73
4
 74
0
 40
0
 40
0
 40
0
 40
0
 40
1
 40
1
 40
1
 40
1
 10
56.607456
 20
-59.271225
 30
0.0
 10
56.607204
 20
-58.033197
 30
0.0
 10
56.115309
 20
-56.845942
 30
0.0
 10
55.239920
 20
-55.970495
 30
0.0
  0
LWPOLYLINE
  5
35e
100
AcDbEntity
  8
0
 62
7
100
AcDbPolyline
 90
2
 70
0
 10
56.606440
 20
-111.217273
 30
0.0
 10
56.606440
 20
-59.269193
 30
0.0
  0
SPLINE
  5
35f
100
AcDbEntity
  8
0
 62
7
100
AcDbSpline
 70
8
 71
3
 72
8
 73
4
 74
0
 40
0
 40
0
 40
0
 40
0
 40
1
 40
1
 40
1
 40
1
 10
55.239920
 20
-20.009582
 30
0.0
 10
54.364493
 20
-20.885066
 30
0.0
 10
53.872595
 20
-22.072383
 30
0.0
 10
53.872384
 20
-23.310464
 30
0.0
  0
SPLINE
  5
360
100
AcDbEntity
  8
0
 62
7
100
AcDbSpline
 70
8
 71
3
 72
8
 73
4
 74
0
 40
0
 40
0
 40
0
 40
0
 40
1
 40
1
 40
1
 40
1
 10
55.239920
 20
-20.009582
 30
0.0
 10
56.115347
 20
-19.134097
 30
0.0
 10
56.607245
 20
-17.946780
 30
0.0
 10
56.607456
 20
-16.708699
 30
0.0
  0
LWPOLYLINE
  5
361
100
AcDbEntity
  8
0
 62
7
100
AcDbPolyline
 90
2
 70
0
 10
53.870860
 20
-23.310413
 30
0.0
 10
53.870860
 20
-52.667733
 30
0.0
  0
LWPOLYLINE
  5
362
100
AcDbEntity
  8
0
 62
7
100
AcDbPolyline
 90
2
 70
0
 10
31.841440
 20
-19.386113
 30
0.0
 10
28.021280
 20
-19.386113
 30
0.0
  0
SPLINE
  5
363
100
AcDbEntity
  8
0
 62
7
100
AcDbSpline
 70
8
 71
3
 72
8
 73
4
 74
0
 40
0
 40
0
 40
0
 40
0
 40
1
 40
1
 40
1
 40
1
 10
28.022296
 20
-15.143917
 30
0.0
 10
27.264289
 20
-15.143917
 30
0.0
 10
26.563862
 20
-15.548309
 30
0.0
 10
26.184859
 20
-16.204762
 30
0.0
  0
SPLINE
  5
364
100
AcDbEntity
  8
0
 62
7
100
AcDbSpline
 70
8
 71
3
 72
8
 73
4
 74
0
 40
0
 40
0
 40
0
 40
0
 40
1
 40
1
 40
1
 40
1
 10
26.184859
 20
-16.204762
 30
0.0
 10
25.805855
 20
-16.861215
 30
0.0
 10
25.805855
 20
-17.669999
 30
0.0
 10
26.184859
 20
-18.326452
 30
0.0
  0
SPLINE
  5
365
100
AcDbEntity
  8
0
 62
7
100
AcDbSpline
 70
8
 71
3
 72
8
 73
4
 74
0
 40
0
 40
0
 40
0
 40
0
 40
1
 40
1
 40
1
 40
1
 10
26.184859
 20
-18.326452
 30
0.0
 10
26.563862
 20
-18.982905
 30
0.0
 10
27.264289
 20
-19.387297
 30
0.0
 10
28.022296
 20
-19.387297
 30
0.0
  0
SPLINE
  5
366
100
AcDbEntity
  8
0
 62
7
100
AcDbSpline
 70
8
 71
3
 72
8
 73
4
 74
0
 40
0
 40
0
 40
0
 40
0
 40
1
 40
1
 40
1
 40
1
 10
31.841694
 20
-19.387297
 30
0.0
 10
33.013471
 20
-19.387507
 30
0.0
 10
33.963554
 20
-18.437765
 30
0.0
 10
33.963765
 20
-17.265988
 30
0.0
  0
SPLINE
  5
367
100
AcDbEntity
  8
0
 62
7
100
AcDbSpline
 70
8
 71
3
 72
8
 73
4
 74
0
 40
0
 40
0
 40
0
 40
0
 40
1
 40
1
 40
1
 40
1
 10
33.963765
 20
-17.265988
 30
0.0
 10
33.963975
 20
-16.094211
 30
0.0
 10
33.014233
 20
-15.144127
 30
0.0
 10
31.842456
 20
-15.143917
 30
0.0
  0
LWPOLYLINE
  5
368
100
AcDbEntity
  8
0
 62
7
100
AcDbPolyline
 90
2
 70
0
 10
31.841440
 20
-15.141773
 30
0.0
 10
28.021280
 20
-15.141773
 30
0.0
  0
LWPOLYLINE
  5
369
100
AcDbEntity
  8
0
 62
7
100
AcDbPolyline
 90
2
 70
0
 10
3.266440
 20
-15.771693
 30
0.0
 10
3.266440
 20
-41.001513
 30
0.0
  0
SPLINE
  5
36a
100
AcDbEntity
  8
0
 62
7
100
AcDbSpline
 70
8
 71
3
 72
8
 73
4
 74
0
 40
0
 40
0
 40
0
 40
0
 40
1
 40
1
 40
1
 40
1
 10
56.607456
 20
-15.770449
 30
0.0
 10
56.606699
 20
-14.163087
 30
0.0
 10
55.303470
 20
-12.860461
 30
0.0
 10
53.696108
 20
-12.860447
 30
0.0
  0
SPLINE
  5
36b
100
AcDbEntity
  8
0
 62
7
100
AcDbSpline
 70
8
 71
3
 72
8
 73
4
 74
0
 40
0
 40
0
 40
0
 40
0
 40
1
 40
1
 40
1
 40
1
 10
3.267024
 20
-111.219305
 30
0.0
 10
3.266964
 20
-111.991489
 30
0.0
 10
3.573670
 20
-112.732067
 30
0.0
 10
4.119665
 20
-113.278105
 30
0.0
  0
SPLINE
  5
36c
100
AcDbEntity
  8
0
 62
7
100
AcDbSpline
 70
8
 71
3
 72
8
 73
4
 74
0
 40
0
 40
0
 40
0
 40
0
 40
1
 40
1
 40
1
 40
1
 10
4.119665
 20
-113.278105
 30
0.0
 10
4.665660
 20
-113.824143
 30
0.0
 10
5.406214
 20
-114.130907
 30
0.0
 10
6.178398
 20
-114.130907
 30
0.0
  0
LWPOLYLINE
  5
36d
100
AcDbEntity
  8
0
 62
7
100
AcDbPolyline
 90
3
 70
0
 10
53.695600
 20
-12.858313
 30
0.0
 10
48.381920
 20
-12.858313
 30
0.0
 10
48.381920
 20
-1.776293
 30
0.0
  0
SPLINE
  5
36e
100
AcDbEntity
  8
0
 62
7
100
AcDbSpline
 70
8
 71
3
 72
8
 73
4
 74
0
 40
0
 40
0
 40
0
 40
0
 40
1
 40
1
 40
1
 40
1
 10
53.696108
 20
-114.130907
 30
0.0
 10
54.468287
 20
-114.130900
 30
0.0
 10
55.208835
 20
-113.824133
 30
0.0
 10
55.754824
 20
-113.278096
 30
0.0
  0
SPLINE
  5
36f
100
AcDbEntity
  8
0
 62
7
100
AcDbSpline
 70
8
 71
3
 72
8
 73
4
 74
0
 40
0
 40
0
 40
0
 40
0
 40
1
 40
1
 40
1
 40
1
 10
55.754824
 20
-113.278096
 30
0.0
 10
56.300814
 20
-112.732059
 30
0.0
 10
56.607517
 20
-111.991485
 30
0.0
 10
56.607456
 20
-111.219305
 30
0.0
  0
SPLINE
  5
370
100
AcDbEntity
  8
0
 62
7
100
AcDbSpline
 70
8
 71
3
 72
8
 73
4
 74
0
 40
0
 40
0
 40
0
 40
0
 40
1
 40
1
 40
1
 40
1
 10
48.382936
 20
-1.776420
 30
0.0
 10
48.382932
 20
-0.168526
 30
0.0
 10
47.079482
 20
1.134932
 30
0.0
 10
45.471588
 20
1.134946
 30
0.0
  0
SPLINE
  5
371
100
AcDbEntity
  8
0
 62
7
100
AcDbSpline
 70
8
 71
3
 72
8
 73
4
 74
0
 40
0
 40
0
 40
0
 40
0
 40
1
 40
1
 40
1
 40
1
 10
37.272976
 20
1.134946
 30
0.0
 10
35.665082
 20
1.134932
 30
0.0
 10
34.361632
 20
-0.168526
 30
0.0
 10
34.361628
 20
-1.776420
 30
0.0
  0
SPLINE
  5
372
100
AcDbEntity
  8
0
 62
7
100
AcDbSpline
 70
8
 71
3
 72
8
 73
4
 74
0
 40
0
 40
0
 40
0
 40
0
 40
1
 40
1
 40
1
 40
1
 10
6.178398
 20
-12.860447
 30
0.0
 10
5.406253
 20
-12.860447
 30
0.0
 10
4.665734
 20
-13.167180
 30
0.0
 10
4.119746
 20
-13.713168
 30
0.0
  0
SPLINE
  5
373
100
AcDbEntity
  8
0
 62
7
100
AcDbSpline
 70
8
 71
3
 72
8
 73
4
 74
0
 40
0
 40
0
 40
0
 40
0
 40
1
 40
1
 40
1
 40
1
 10
4.119746
 20
-13.713168
 30
0.0
 10
3.573757
 20
-14.259157
 30
0.0
 10
3.267024
 20
-14.999676
 30
0.0
 10
3.267024
 20
-15.771820
 30
0.0
  0
LWPOLYLINE
  5
374
100
AcDbEntity
  8
0
 62
7
100
AcDbPolyline
 90
2
 70
0
 10
34.823400
 20
-114.130653
 30
0.0
 10
6.177280
 20
-114.130653
 30
0.0
  0
LWPOLYLINE
  5
375
100
AcDbEntity
  8
0
 62
7
100
AcDbPolyline
 90
2
 70
0
 10
34.361120
 20
-1.776293
 30
0.0
 10
34.361120
 20
-12.858313
 30
0.0
  0
LWPOLYLINE
  5
376
100
AcDbEntity
  8
0
 62
7
100
AcDbPolyline
 90
2
 70
0
 10
37.271960
 20
1.137087
 30
0.0
 10
45.471080
 20
1.137087
 30
0.0
  0
LWPOLYLINE
  5
377
100
AcDbEntity
  8
0
 62
7
100
AcDbPolyline
 90
2
 70
0
 10
6.177280
 20
-12.858313
 30
0.0
 10
34.361120
 20
-12.858313
 30
0.0
  0
LWPOLYLINE
  5
378
100
AcDbEntity
  8
0
 62
7
100
AcDbPolyline
 90
2
 70
0
 10
3.266440
 20
-41.001513
 30
0.0
 10
3.266440
 20
-111.217273
 30
0.0
  0
ENDSEC
  0
SECTION
  2
OBJECTS
  0
DICTIONARY
  5
C
330
0
100
AcDbDictionary
  3
ACAD_GROUP
350
D
  3
ACAD_MLINESTYLE
350
17
  0
DICTIONARY
  5
D
330
C
100
AcDbDictionary
  0
DICTIONARY
  5
1A
330
C
100
AcDbDictionary
  0
DICTIONARY
  5
17
330
C
100
AcDbDictionary
  3
STANDARD
350
18
  0
DICTIONARY
  5
19
330
C
100
AcDbDictionary
  0
ENDSEC
  0
EOF
