<?xml version="1.0" standalone="no"?>
 <!DOCTYPE svg PUBLIC "-//W3C//DTD SVG 1.1//EN" 
 "http://www.w3.org/Graphics/SVG/1.1/DTD/svg11.dtd"> 
<svg
  xmlns:svg="http://www.w3.org/2000/svg"
  xmlns="http://www.w3.org/2000/svg"
  xmlns:xlink="http://www.w3.org/1999/xlink"
  version="1.1"
  width="3.520440cm" height="7.340600cm" viewBox="0 0 13860 28900">
<title>SVG Picture created as remote-brd.svg date 2022/01/08 21:44:15 </title>
  <desc>Picture generated by PCBNEW </desc>
<g style="fill:#000000; fill-opacity:1;stroke:#000000; stroke-opacity:1;
stroke-linecap:round; stroke-linejoin:round;"
 transform="translate(0 0) scale(1 1)">
</g>
<g style="fill:#000000; fill-opacity:0.0; 
stroke:#000000; stroke-width:-0.000393701; stroke-opacity:1; 
stroke-linecap:round; stroke-linejoin:round;">
</g>
<g style="fill:#000000; fill-opacity:0.0; 
stroke:#000000; stroke-width:78.7402; stroke-opacity:1; 
stroke-linecap:round; stroke-linejoin:round;">
<text x="4307.18" y="6801.34"
textLength="1349.83" font-size="629.921" lengthAdjust="spacingAndGlyphs"
text-anchor="middle" opacity="0">LOG</text>
<path d="M3969 6778
L3744 6778
L3744 6306
" />
<path d="M4217 6306
L4307 6306
L4352 6328
L4397 6373
L4419 6463
L4419 6621
L4397 6711
L4352 6756
L4307 6778
L4217 6778
L4172 6756
L4127 6711
L4104 6621
L4104 6463
L4127 6373
L4172 6328
L4217 6306
" />
<path d="M4869 6328
L4824 6306
L4757 6306
L4689 6328
L4644 6373
L4622 6418
L4599 6508
L4599 6576
L4622 6666
L4644 6711
L4689 6756
L4757 6778
L4802 6778
L4869 6756
L4892 6733
L4892 6576
L4802 6576
" />
<text x="4531.59" y="8671.42"
textLength="2014.62" font-size="629.921" lengthAdjust="spacingAndGlyphs"
text-anchor="middle" opacity="0">PROG</text>
<path d="M3687 8648
L3687 8176
L3867 8176
L3912 8198
L3935 8221
L3957 8266
L3957 8333
L3935 8378
L3912 8401
L3867 8423
L3687 8423
" />
<path d="M4430 8648
L4272 8423
" />
<path d="M4160 8648
L4160 8176
L4340 8176
L4385 8198
L4407 8221
L4430 8266
L4430 8333
L4407 8378
L4385 8401
L4340 8423
L4160 8423
" />
<path d="M4722 8176
L4812 8176
L4857 8198
L4902 8243
L4925 8333
L4925 8491
L4902 8581
L4857 8626
L4812 8648
L4722 8648
L4677 8626
L4632 8581
L4610 8491
L4610 8333
L4632 8243
L4677 8198
L4722 8176
" />
<path d="M5375 8198
L5330 8176
L5262 8176
L5195 8198
L5150 8243
L5127 8288
L5105 8378
L5105 8446
L5127 8536
L5150 8581
L5195 8626
L5262 8648
L5307 8648
L5375 8626
L5397 8603
L5397 8446
L5307 8446
" />
<text x="2960.72" y="16521.8"
textLength="1257.22" font-size="734.908" lengthAdjust="spacingAndGlyphs"
text-anchor="middle" opacity="0">ON</text>
<path d="M2619 15944
L2724 15944
L2776 15970
L2829 16023
L2855 16128
L2855 16311
L2829 16416
L2776 16469
L2724 16495
L2619 16495
L2567 16469
L2514 16416
L2488 16311
L2488 16128
L2514 16023
L2567 15970
L2619 15944
" />
<path d="M3091 16495
L3091 15944
L3406 16495
L3406 15944
" />
<text x="3303.24" y="20525.7"
textLength="1624.67" font-size="734.908" lengthAdjust="spacingAndGlyphs"
text-anchor="middle" opacity="0">OFF</text>
<path d="M2778 19948
L2883 19948
L2935 19974
L2988 20027
L3014 20132
L3014 20315
L2988 20420
L2935 20473
L2883 20499
L2778 20499
L2725 20473
L2673 20420
L2647 20315
L2647 20132
L2673 20027
L2725 19974
L2778 19948
" />
<path d="M3434 20210
L3250 20210
" />
<path d="M3250 20499
L3250 19948
L3513 19948
" />
<path d="M3906 20210
L3723 20210
" />
<path d="M3723 20499
L3723 19948
L3985 19948
" />
</g>
<g style="fill:#000000; fill-opacity:0.0; 
stroke:#000000; stroke-width:59.0551; stroke-opacity:1; 
stroke-linecap:round; stroke-linejoin:round;">
<text x="6059.15" y="7167.48"
textLength="1002.25" font-size="629.921" lengthAdjust="spacingAndGlyphs"
text-anchor="middle" opacity="0">16</text>
<path d="M5969 7144
L5699 7144
" />
<path d="M5834 7144
L5834 6672
L5789 6740
L5744 6785
L5699 6807
" />
<path d="M6374 6672
L6284 6672
L6239 6695
L6216 6717
L6171 6785
L6149 6875
L6149 7054
L6171 7099
L6194 7122
L6239 7144
L6329 7144
L6374 7122
L6396 7099
L6419 7054
L6419 6942
L6396 6897
L6374 6875
L6329 6852
L6239 6852
L6194 6875
L6171 6897
L6149 6942
" />
<text x="11488.3" y="11726.5"
textLength="526.715" font-size="629.921" lengthAdjust="spacingAndGlyphs"
text-anchor="middle" opacity="0">8</text>
<path d="M11443 11434
L11398 11411
L11375 11389
L11353 11344
L11353 11321
L11375 11276
L11398 11254
L11443 11231
L11533 11231
L11578 11254
L11600 11276
L11623 11321
L11623 11344
L11600 11389
L11578 11411
L11533 11434
L11443 11434
L11398 11456
L11375 11479
L11353 11524
L11353 11614
L11375 11659
L11398 11681
L11443 11704
L11533 11704
L11578 11681
L11600 11659
L11623 11614
L11623 11524
L11600 11479
L11578 11456
L11533 11434
" />
<text x="5964.66" y="11777.7"
textLength="526.715" font-size="629.921" lengthAdjust="spacingAndGlyphs"
text-anchor="middle" opacity="0">1</text>
<path d="M6099 11755
L5829 11755
" />
<path d="M5964 11755
L5964 11282
L5919 11350
L5874 11395
L5829 11417
" />
<g transform="rotate(-90 11468.6 7269.84)">
<text x="11468.6" y="7506.06"
textLength="1336.61" font-size="629.921" lengthAdjust="spacingAndGlyphs"
text-anchor="middle" opacity="0">ANT</text>
</g>
<path d="M11547 7809
L11547 7584
" />
<path d="M11682 7854
L11209 7697
L11682 7539
" />
<path d="M11682 7382
L11209 7382
L11682 7112
L11209 7112
" />
<path d="M11209 6954
L11209 6684
" />
<path d="M11682 6819
L11209 6819
" />
<text x="5484.35" y="24533.6"
textLength="931.665" font-size="629.921" lengthAdjust="spacingAndGlyphs"
text-anchor="middle" opacity="0">A4</text>
<path d="M5146 24376
L5371 24376
" />
<path d="M5101 24511
L5259 24038
L5416 24511
" />
<path d="M5776 24196
L5776 24511
" />
<path d="M5664 24016
L5551 24353
L5844 24353
" />
<text x="5484.35" y="23580.9"
textLength="999.156" font-size="629.921" lengthAdjust="spacingAndGlyphs"
text-anchor="middle" opacity="0">G1</text>
<path d="M5383 23108
L5338 23085
L5270 23085
L5203 23108
L5158 23153
L5135 23198
L5113 23288
L5113 23355
L5135 23445
L5158 23490
L5203 23535
L5270 23558
L5315 23558
L5383 23535
L5405 23513
L5405 23355
L5315 23355
" />
<path d="M5855 23558
L5585 23558
" />
<path d="M5720 23558
L5720 23085
L5675 23153
L5630 23198
L5585 23220
" />
<text x="5728.44" y="22561.2"
textLength="1516.59" font-size="629.921" lengthAdjust="spacingAndGlyphs"
text-anchor="middle" opacity="0">GND</text>
<path d="M5368 22088
L5323 22066
L5255 22066
L5188 22088
L5143 22133
L5121 22178
L5098 22268
L5098 22336
L5121 22426
L5143 22471
L5188 22516
L5255 22538
L5300 22538
L5368 22516
L5390 22493
L5390 22336
L5300 22336
" />
<path d="M5593 22538
L5593 22066
L5863 22538
L5863 22066
" />
<path d="M6088 22538
L6088 22066
L6200 22066
L6268 22088
L6313 22133
L6335 22178
L6358 22268
L6358 22336
L6335 22426
L6313 22471
L6268 22516
L6200 22538
L6088 22538
" />
<text x="8641.83" y="9513.94"
textLength="2973.28" font-size="787.402" lengthAdjust="spacingAndGlyphs"
text-anchor="middle" opacity="0">RFM95</text>
<path d="M7671 9485
L7474 9204
" />
<path d="M7334 9485
L7334 8895
L7559 8895
L7615 8923
L7643 8951
L7671 9007
L7671 9092
L7643 9148
L7615 9176
L7559 9204
L7334 9204
" />
<path d="M8121 9176
L7924 9176
" />
<path d="M7924 9485
L7924 8895
L8205 8895
" />
<path d="M8430 9485
L8430 8895
L8627 9317
L8824 8895
L8824 9485
" />
<path d="M9133 9485
L9246 9485
L9302 9457
L9330 9429
L9387 9345
L9415 9232
L9415 9007
L9387 8951
L9358 8923
L9302 8895
L9190 8895
L9133 8923
L9105 8951
L9077 9007
L9077 9148
L9105 9204
L9133 9232
L9190 9260
L9302 9260
L9358 9232
L9387 9204
L9415 9148
" />
<path d="M9949 8895
L9668 8895
L9640 9176
L9668 9148
L9724 9120
L9865 9120
L9921 9148
L9949 9176
L9977 9232
L9977 9373
L9949 9429
L9921 9457
L9865 9485
L9724 9485
L9668 9457
L9640 9429
" />
<text x="4958.76" y="3665.51"
textLength="3929.41" font-size="787.402" lengthAdjust="spacingAndGlyphs"
text-anchor="middle" opacity="0">ANTENNA</text>
<path d="M3144 3468
L3426 3468
" />
<path d="M3088 3637
L3285 3046
L3482 3637
" />
<path d="M3679 3637
L3679 3046
L4016 3637
L4016 3046
" />
<path d="M4213 3046
L4550 3046
" />
<path d="M4382 3637
L4382 3046
" />
<path d="M4747 3328
L4944 3328
" />
<path d="M5029 3637
L4747 3637
L4747 3046
L5029 3046
" />
<path d="M5282 3637
L5282 3046
L5619 3637
L5619 3046
" />
<path d="M5900 3637
L5900 3046
L6238 3637
L6238 3046
" />
<path d="M6491 3468
L6772 3468
" />
<path d="M6435 3637
L6631 3046
L6828 3637
" />
<text x="4856.39" y="2700.95"
textLength="1820.3" font-size="787.402" lengthAdjust="spacingAndGlyphs"
text-anchor="middle" opacity="0">GPS</text>
<path d="M4434 2110
L4378 2082
L4293 2082
L4209 2110
L4153 2166
L4125 2222
L4097 2335
L4097 2419
L4125 2532
L4153 2588
L4209 2644
L4293 2672
L4350 2672
L4434 2644
L4462 2616
L4462 2419
L4350 2419
" />
<path d="M4715 2672
L4715 2082
L4940 2082
L4997 2110
L5025 2138
L5053 2194
L5053 2279
L5025 2335
L4997 2363
L4940 2391
L4715 2391
" />
<path d="M5278 2644
L5362 2672
L5503 2672
L5559 2644
L5587 2616
L5615 2560
L5615 2504
L5587 2447
L5559 2419
L5503 2391
L5390 2363
L5334 2335
L5306 2307
L5278 2251
L5278 2194
L5306 2138
L5334 2110
L5390 2082
L5531 2082
L5615 2110
" />
</g>
<g style="fill:#000000; fill-opacity:0.0; 
stroke:#000000; stroke-width:47.2441; stroke-opacity:1; 
stroke-linecap:round; stroke-linejoin:round;">
<path d="M3019 15254
L2496 15254
" />
<path d="M2496 15254
L2496 14730
" />
<path d="M2496 14230
L2496 10206
" />
<path d="M3543 10206
L2496 10206
" />
<path d="M3543 14230
L3543 10206
" />
<path d="M3543 14230
L2496 14230
" />
<path d="M10925 20521
L10653 20521
" />
<path d="M6744 20521
L7015 20521
" />
<path d="M10653 19844
L7015 19844
" />
<path d="M10653 21198
L10653 19844
" />
<path d="M7015 21198
L10653 21198
" />
<path d="M7015 19844
L7015 21198
" />
<path d="M3693 25722
L3693 26824
" />
<path d="M3693 26824
L2905 26824
" />
<path d="M2905 26824
L2905 25722
" />
<path d="M2905 25722
L3693 25722
" />
</g>
<g style="fill:#000000; fill-opacity:0.0; 
stroke:#000000; stroke-width:78.7402; stroke-opacity:1; 
stroke-linecap:round; stroke-linejoin:round;">
<path d="M11874 12387
L11795 12387
" />
<path d="M11874 6088
L11874 12387
" />
<path d="M11795 6088
L11874 6088
" />
<path d="M11007 6088
L11165 6088
" />
<path d="M10220 6088
L10378 6088
" />
<path d="M9433 6088
L9590 6088
" />
<path d="M8645 6088
L8803 6088
" />
<path d="M7858 6088
L8015 6088
" />
<path d="M7070 6088
L7228 6088
" />
<path d="M6283 6088
L6441 6088
" />
<path d="M5574 6088
L5653 6088
" />
<path d="M11007 12387
L11165 12387
" />
<path d="M5653 12387
L5574 12387
" />
<path d="M5653 12781
L5653 12387
" />
<path d="M6441 12387
L6283 12387
" />
<path d="M7228 12387
L7070 12387
" />
<path d="M7858 12387
L8015 12387
" />
<path d="M8645 12387
L8803 12387
" />
<path d="M9433 12387
L9590 12387
" />
<path d="M10220 12387
L10378 12387
" />
<path d="M5574 12387
L5574 6088
" />
</g>
<g style="fill:#000000; fill-opacity:0.0; 
stroke:#000000; stroke-width:47.2441; stroke-opacity:1; 
stroke-linecap:round; stroke-linejoin:round;">
<path d="M6838 26212
L6838 25228
" />
<path d="M6838 25228
L7252 25228
" />
<path d="M7252 25228
L7252 24838
" />
<path d="M9287 26212
L9287 25228
" />
<path d="M9287 25228
L8874 25228
" />
<path d="M7299 26988
L8826 26988
" />
<path d="M13193 7025
L4141 7025
" />
<path d="M4141 27025
L13193 27025
" />
<path d="M4141 7025
L4141 27025
" />
<path d="M13193 7025
L13193 27025
" />
<path d="M5193 8950
L4145 8950
" />
<path d="M5193 21017
L4669 21017
" />
<path d="M5193 19994
L4145 19994
" />
<path d="M5193 19994
L5193 8950
" />
<path d="M4145 19994
L4145 8950
" />
<path d="M5193 20494
L5193 21017
" />
<path d="M13193 9002
L12145 9002
" />
<path d="M12145 24025
L12145 9002
" />
<path d="M13193 24025
L12145 24025
" />
<path d="M13193 24525
L13193 25049
" />
<path d="M13193 25049
L12669 25049
" />
<path d="M10086 3206
L10086 4624
" />
<path d="M12984 3206
L12984 4624
" />
<path d="M10826 5364
L12244 5364
" />
<path d="M10826 2466
L12244 2466
" />
<path d="M10952 17427
L10681 17427
" />
<path d="M6771 17427
L7043 17427
" />
<path d="M10681 16750
L7043 16750
" />
<path d="M10681 18104
L10681 16750
" />
<path d="M7043 18104
L10681 18104
" />
<path d="M7043 16750
L7043 18104
" />
<path d="M10952 18974
L10681 18974
" />
<path d="M6771 18974
L7043 18974
" />
<path d="M10681 18297
L7043 18297
" />
<path d="M10681 19651
L10681 18297
" />
<path d="M7043 19651
L10681 19651
" />
<path d="M7043 18297
L7043 19651
" />
<path d="M3019 9053
L2496 9053
" />
<path d="M2496 9053
L2496 8529
" />
<path d="M2496 8029
L2496 6006
" />
<path d="M3543 6006
L2496 6006
" />
<path d="M3543 8029
L3543 6006
" />
<path d="M3543 8029
L2496 8029
" />
<path d="M3039 16671
L3563 16671
" />
<path d="M3563 16671
L3563 17195
" />
<path d="M3563 17695
L3563 19718
" />
<path d="M2515 19718
L3563 19718
" />
<path d="M2515 17695
L2515 19718
" />
<path d="M2515 17695
L3563 17695
" />
</g>
<g style="fill:#000000; fill-opacity:0.0; 
stroke:#000000; stroke-width:59.0551; stroke-opacity:1; 
stroke-linecap:round; stroke-linejoin:round;">
<g transform="rotate(-90 3822.93 11368.3)">
<text x="3822.93" y="11565.1"
textLength="751.687" font-size="524.934" lengthAdjust="spacingAndGlyphs"
text-anchor="middle" opacity="0">J2</text>
</g>
<path d="M3607 11499
L3888 11499
L3944 11518
L3982 11555
L4001 11611
L4001 11649
" />
<path d="M3644 11330
L3626 11312
L3607 11274
L3607 11180
L3626 11143
L3644 11124
L3682 11105
L3719 11105
L3776 11124
L4001 11349
L4001 11105
" />
<g transform="rotate(-90 5657.57 20470.6)">
<text x="5657.57" y="20667.5"
textLength="845.426" font-size="524.934" lengthAdjust="spacingAndGlyphs"
text-anchor="middle" opacity="0">R3</text>
</g>
<path d="M5835 20536
L5648 20667
" />
<path d="M5835 20761
L5441 20761
L5441 20611
L5460 20573
L5479 20554
L5516 20536
L5573 20536
L5610 20554
L5629 20573
L5648 20611
L5648 20761
" />
<path d="M5441 20405
L5441 20161
L5591 20292
L5591 20236
L5610 20198
L5629 20180
L5666 20161
L5760 20161
L5798 20180
L5816 20198
L5835 20236
L5835 20348
L5816 20386
L5798 20405
" />
<text x="3295.37" y="25510"
textLength="1145.39" font-size="524.934" lengthAdjust="spacingAndGlyphs"
text-anchor="middle" opacity="0">JP1</text>
<path d="M2967 25097
L2967 25378
L2948 25435
L2911 25472
L2854 25491
L2817 25491
" />
<path d="M3154 25491
L3154 25097
L3304 25097
L3342 25116
L3360 25135
L3379 25172
L3379 25228
L3360 25266
L3342 25285
L3304 25303
L3154 25303
" />
<path d="M3754 25491
L3529 25491
" />
<path d="M3642 25491
L3642 25097
L3604 25153
L3567 25191
L3529 25210
" />
<text x="8598.52" y="8502.13"
textLength="864.173" font-size="524.934" lengthAdjust="spacingAndGlyphs"
text-anchor="middle" opacity="0">U1</text>
<path d="M8298 8089
L8298 8408
L8317 8445
L8336 8464
L8373 8483
L8448 8483
L8486 8464
L8504 8445
L8523 8408
L8523 8089
" />
<path d="M8917 8483
L8692 8483
" />
<path d="M8804 8483
L8804 8089
L8767 8145
L8729 8183
L8692 8202
" />
<text x="8063.09" y="24561.2"
textLength="1126.64" font-size="524.934" lengthAdjust="spacingAndGlyphs"
text-anchor="middle" opacity="0">J20</text>
<path d="M7744 24148
L7744 24429
L7725 24486
L7688 24523
L7631 24542
L7594 24542
" />
<path d="M7913 24186
L7931 24167
L7969 24148
L8063 24148
L8100 24167
L8119 24186
L8138 24223
L8138 24261
L8119 24317
L7894 24542
L8138 24542
" />
<path d="M8381 24148
L8419 24148
L8456 24167
L8475 24186
L8494 24223
L8513 24298
L8513 24392
L8494 24467
L8475 24504
L8456 24523
L8419 24542
L8381 24542
L8344 24523
L8325 24504
L8306 24467
L8288 24392
L8288 24298
L8306 24223
L8325 24186
L8344 24167
L8381 24148
" />
<text x="12624.9" y="25724.9"
textLength="864.173" font-size="524.934" lengthAdjust="spacingAndGlyphs"
text-anchor="middle" opacity="0">U2</text>
<path d="M12324 25312
L12324 25631
L12343 25668
L12362 25687
L12399 25706
L12474 25706
L12512 25687
L12531 25668
L12549 25631
L12549 25312
" />
<path d="M12718 25349
L12737 25331
L12774 25312
L12868 25312
L12906 25331
L12924 25349
L12943 25387
L12943 25424
L12924 25481
L12699 25706
L12943 25706
" />
<text x="11303.2" y="26931.3"
textLength="2157.76" font-size="524.934" lengthAdjust="spacingAndGlyphs"
text-anchor="middle" opacity="0">feather</text>
<path d="M10300 26650
L10450 26650
" />
<path d="M10356 26912
L10356 26575
L10375 26537
L10412 26518
L10450 26518
" />
<path d="M10731 26893
L10693 26912
L10618 26912
L10581 26893
L10562 26856
L10562 26706
L10581 26668
L10618 26650
L10693 26650
L10731 26668
L10750 26706
L10750 26743
L10562 26781
" />
<path d="M11087 26912
L11087 26706
L11068 26668
L11031 26650
L10956 26650
L10918 26668
" />
<path d="M11087 26893
L11050 26912
L10956 26912
L10918 26893
L10900 26856
L10900 26818
L10918 26781
L10956 26762
L11050 26762
L11087 26743
" />
<path d="M11218 26650
L11368 26650
" />
<path d="M11275 26518
L11275 26856
L11293 26893
L11331 26912
L11368 26912
" />
<path d="M11500 26912
L11500 26518
" />
<path d="M11668 26912
L11668 26706
L11650 26668
L11612 26650
L11556 26650
L11518 26668
L11500 26687
" />
<path d="M12006 26893
L11968 26912
L11893 26912
L11856 26893
L11837 26856
L11837 26706
L11856 26668
L11893 26650
L11968 26650
L12006 26668
L12025 26706
L12025 26743
L11837 26781
" />
<path d="M12193 26912
L12193 26650
" />
<path d="M12193 26725
L12212 26687
L12231 26668
L12268 26650
L12306 26650
" />
<g transform="rotate(-90 9732.41 3927.54)">
<text x="9732.41" y="4124.39"
textLength="751.687" font-size="524.934" lengthAdjust="spacingAndGlyphs"
text-anchor="middle" opacity="0">J1</text>
</g>
<path d="M9516 4058
L9798 4058
L9854 4077
L9891 4115
L9910 4171
L9910 4208
" />
<path d="M9910 3665
L9910 3890
" />
<path d="M9910 3777
L9516 3777
L9573 3815
L9610 3852
L9629 3890
" />
<g transform="rotate(90 5621.39 17509.2)">
<text x="5621.39" y="17706"
textLength="845.426" font-size="524.934" lengthAdjust="spacingAndGlyphs"
text-anchor="middle" opacity="0">R1</text>
</g>
<path d="M5443 17443
L5630 17312
" />
<path d="M5443 17218
L5836 17218
L5836 17368
L5818 17406
L5799 17424
L5761 17443
L5705 17443
L5668 17424
L5649 17406
L5630 17368
L5630 17218
" />
<path d="M5443 17818
L5443 17593
" />
<path d="M5443 17706
L5836 17706
L5780 17668
L5743 17631
L5724 17593
" />
<g transform="rotate(90 5621.39 18959)">
<text x="5621.39" y="19155.9"
textLength="845.426" font-size="524.934" lengthAdjust="spacingAndGlyphs"
text-anchor="middle" opacity="0">R2</text>
</g>
<path d="M5443 18893
L5630 18762
" />
<path d="M5443 18668
L5836 18668
L5836 18818
L5818 18855
L5799 18874
L5761 18893
L5705 18893
L5668 18874
L5649 18855
L5630 18818
L5630 18668
" />
<path d="M5799 19043
L5818 19062
L5836 19099
L5836 19193
L5818 19230
L5799 19249
L5761 19268
L5724 19268
L5668 19249
L5443 19024
L5443 19268
" />
<text x="3082.77" y="5769.84"
textLength="1126.64" font-size="524.934" lengthAdjust="spacingAndGlyphs"
text-anchor="middle" opacity="0">J19</text>
<path d="M2764 5357
L2764 5638
L2745 5694
L2707 5732
L2651 5751
L2614 5751
" />
<path d="M3157 5751
L2932 5751
" />
<path d="M3045 5751
L3045 5357
L3007 5413
L2970 5451
L2932 5469
" />
<path d="M3345 5751
L3420 5751
L3457 5732
L3476 5713
L3513 5657
L3532 5582
L3532 5432
L3513 5394
L3495 5376
L3457 5357
L3382 5357
L3345 5376
L3326 5394
L3307 5432
L3307 5526
L3326 5563
L3345 5582
L3382 5601
L3457 5601
L3495 5582
L3513 5563
L3532 5526
" />
<g transform="rotate(-90 3846.55 16978.5)">
<text x="3846.55" y="17175.4"
textLength="751.687" font-size="524.934" lengthAdjust="spacingAndGlyphs"
text-anchor="middle" opacity="0">J5</text>
</g>
<path d="M3630 17109
L3912 17109
L3968 17128
L4005 17165
L4024 17222
L4024 17259
" />
<path d="M3630 16734
L3630 16922
L3818 16941
L3799 16922
L3780 16884
L3780 16791
L3799 16753
L3818 16734
L3855 16716
L3949 16716
L3987 16734
L4005 16753
L4024 16791
L4024 16884
L4005 16922
L3987 16941
" />
<g >
</g>
</g>
<g style="fill:#000000; fill-opacity:0.0; 
stroke:#000000; stroke-width:59.0551; stroke-opacity:1; 
stroke-linecap:round; stroke-linejoin:round;">
</g>
<g style="fill:#000000; fill-opacity:0.0; 
stroke:#000000; stroke-width:19.685; stroke-opacity:1; 
stroke-linecap:round; stroke-linejoin:round;">
<path d="M2256 25955
L2255 26182
" />
<path d="M2924 24337
L2924 21259
" />
<path d="M2590.65 25146.7 A1146.21 1146.21 0.0 0 0 2256.52 25955.6" />
<path d="M2590.64 25146.7 A1146.21 1146.21 0.0 0 0 2924.77 24337.8" />
<path d="M2924.77 21259.8 A1146.21 1146.21 0.0 0 0 2590.64 20450.9" />
<path d="M2256.52 19642 A1146.21 1146.21 0.0 0 0 2590.65 20450.9" />
<path d="M10350.5 2179.29 A1146.21 1146.21 0.0 0 0 9204.28 3325.5" />
<path d="M13854.4 3325.5 A1146.21 1146.21 0.0 0 0 12708.2 2179.29" />
<path d="M10350 2179
L12708 2179
" />
<path d="M9204 5519
L9204 3325
" />
<path d="M7776 5519
L9204 5519
" />
<path d="M2256 26182.7 A1146.21 1146.21 0.0 0 0 3402.21 27328.9" />
<path d="M12708.2 27328.9 A1146.21 1146.21 0.0 0 0 13854.4 26182.7" />
<path d="M3402 27328
L12708 27328
" />
<path d="M2255 5519
L2256 19642
" />
<path d="M13854 3325
L13854 26182
" />
<path d="M7776 5519
L7775 1156
" />
<path d="M7775.87 1156.05 A1146.21 1146.21 0.0 0 0 6629.66 9.84291" />
<path d="M3401.87 9.84291 A1146.21 1146.21 0.0 0 0 2255.66 1156.05" />
<path d="M2255 1156
L2255 5519
" />
<path d="M3401 9
L6629 9
" />
<g >
</g>
<g >
</g>
<g >
</g>
<g >
</g>
<g >
</g>
<g >
</g>
<g >
</g>
<g >
</g>
<g >
</g>
<g >
</g>
<g >
</g>
<g >
</g>
<g >
</g>
<g >
</g>
</g> 
</svg>
