  0
SECTION
  2
HEADER
  9
$ACADVER
  1
AC1014
  9
$HANDSEED
  5
FFFF
  9
$MEASUREMENT
 70
     1
  0
ENDSEC
  0
SECTION
  2
TABLES
  0
TABLE
  2
VPORT
  5
8
330
0
100
AcDbSymbolTable
 70
     4
  0
VPORT
  5
2E
330
8
100
AcDbSymbolTableRecord
100
AcDbViewportTableRecord
  2
*ACTIVE
 70
     0
 10
0.0
 20
0.0
 11
1.0
 21
1.0
 12
210.0
 22
148.5
 13
0.0
 23
0.0
 14
10.0
 24
10.0
 15
10.0
 25
10.0
 16
0.0
 26
0.0
 36
1.0
 17
0.0
 27
0.0
 37
0.0
 40
341.0
 41
1.24
 42
50.0
 43
0.0
 44
0.0
 50
0.0
 51
0.0
 71
     0
 72
   100
 73
     1
 74
     3
 75
     0
 76
     0
 77
     0
 78
     0
  0
ENDTAB
  0
TABLE
  2
LTYPE
  5
5
330
0
100
AcDbSymbolTable
 70
     1
  0
LTYPE
  5
14
330
5
100
AcDbSymbolTableRecord
100
AcDbLinetypeTableRecord
  2
BYBLOCK
 70
     0
  3

 72
    65
 73
     0
 40
0.0
  0
LTYPE
  5
15
330
5
100
AcDbSymbolTableRecord
100
AcDbLinetypeTableRecord
  2
BYLAYER
 70
     0
  3

 72
    65
 73
     0
 40
0.0
  0
LTYPE
  5
16
330
5
100
AcDbSymbolTableRecord
100
AcDbLinetypeTableRecord
  2
CONTINUOUS
 70
     0
  3
Solid line
 72
    65
 73
     0
 40
0.0
  0
ENDTAB
  0
TABLE
  2
LAYER
  5
2
100
AcDbSymbolTable
 70
1
  0
LAYER
  5
50
100
AcDbSymbolTableRecord
100
AcDbLayerTableRecord
  2
0
 70
0
  6
CONTINUOUS
  0
ENDTAB
  0
TABLE
  2
STYLE
  5
3
330
0
100
AcDbSymbolTable
 70
     1
  0
STYLE
  5
11
330
3
100
AcDbSymbolTableRecord
100
AcDbTextStyleTableRecord
  2
STANDARD
 70
     0
 40
0.0
 41
1.0
 50
0.0
 71
     0
 42
2.5
  3
txt
  4

  0
ENDTAB
  0
TABLE
  2
VIEW
  5
6
330
0
100
AcDbSymbolTable
 70
     0
  0
ENDTAB
  0
TABLE
  2
UCS
  5
7
330
0
100
AcDbSymbolTable
 70
     0
  0
ENDTAB
  0
TABLE
  2
APPID
  5
9
330
0
100
AcDbSymbolTable
 70
     2
  0
APPID
  5
12
330
9
100
AcDbSymbolTableRecord
100
AcDbRegAppTableRecord
  2
ACAD
 70
     0
  0
ENDTAB
  0
TABLE
  2
DIMSTYLE
  5
A
330
0
100
AcDbSymbolTable
 70
     1
  0
DIMSTYLE
105
27
330
A
100
AcDbSymbolTableRecord
100
AcDbDimStyleTableRecord
  2
ISO-25
 70
     0
  3

  4

  5

  6

  7

 40
1.0
 41
2.5
 42
0.625
 43
3.75
 44
1.25
 45
0.0
 46
0.0
 47
0.0
 48
0.0
140
2.5
141
2.5
142
0.0
143
0.03937007874016
144
1.0
145
0.0
146
1.0
147
0.625
 71
     0
 72
     0
 73
     0
 74
     0
 75
     0
 76
     0
 77
     1
 78
     8
170
     0
171
     3
172
     1
173
     0
174
     0
175
     0
176
     0
177
     0
178
     0
270
     2
271
     2
272
     2
273
     2
274
     3
340
11
275
     0
280
     0
281
     0
282
     0
283
     0
284
     8
285
     0
286
     0
287
     3
288
     0
  0
ENDTAB
  0
TABLE
  2
BLOCK_RECORD
  5
1
330
0
100
AcDbSymbolTable
 70
     1
  0
BLOCK_RECORD
  5
1F
330
1
100
AcDbSymbolTableRecord
100
AcDbBlockTableRecord
  2
*MODEL_SPACE
  0
BLOCK_RECORD
  5
1B
330
1
100
AcDbSymbolTableRecord
100
AcDbBlockTableRecord
  2
*PAPER_SPACE
  0
ENDTAB
  0
ENDSEC
  0
SECTION
  2
BLOCKS
  0
BLOCK
  5
20
330
1F
100
AcDbEntity
  8
0
100
AcDbBlockBegin
  2
*MODEL_SPACE
 70
     0
 10
0.0
 20
0.0
 30
0.0
  3
*MODEL_SPACE
  1

  0
ENDBLK
  5
21
330
1F
100
AcDbEntity
  8
0
100
AcDbBlockEnd
  0
BLOCK
  5
1C
330
1B
100
AcDbEntity
 67
     1
  8
0
100
AcDbBlockBegin
  2
*PAPER_SPACE
  1

  0
ENDBLK
  5
1D
330
1B
100
AcDbEntity
 67
     1
  8
0
100
AcDbBlockEnd
  0
ENDSEC
  0
SECTION
  2
ENTITIES
  0
LWPOLYLINE
  5
100
100
AcDbEntity
  8
0
 62
7
100
AcDbPolyline
 90
3
 70
0
 10
10.081260
 20
-16.511422
 30
0.0
 10
9.509760
 20
-16.511422
 30
0.0
 10
9.509760
 20
-15.312542
 30
0.0
  0
LWPOLYLINE
  5
101
100
AcDbEntity
  8
0
 62
7
100
AcDbPolyline
 90
16
 70
1
 10
10.711180
 20
-15.312542
 30
0.0
 10
10.939780
 20
-15.312542
 30
0.0
 10
11.054080
 20
-15.368422
 30
0.0
 10
11.168380
 20
-15.482722
 30
0.0
 10
11.224260
 20
-15.711322
 30
0.0
 10
11.224260
 20
-16.112642
 30
0.0
 10
11.168380
 20
-16.341242
 30
0.0
 10
11.054080
 20
-16.455542
 30
0.0
 10
10.939780
 20
-16.511422
 30
0.0
 10
10.711180
 20
-16.511422
 30
0.0
 10
10.596880
 20
-16.455542
 30
0.0
 10
10.482580
 20
-16.341242
 30
0.0
 10
10.424160
 20
-16.112642
 30
0.0
 10
10.424160
 20
-15.711322
 30
0.0
 10
10.482580
 20
-15.482722
 30
0.0
 10
10.596880
 20
-15.368422
 30
0.0
  0
LWPOLYLINE
  5
102
100
AcDbEntity
  8
0
 62
7
100
AcDbPolyline
 90
17
 70
0
 10
12.367260
 20
-15.368422
 30
0.0
 10
12.252960
 20
-15.312542
 30
0.0
 10
12.082780
 20
-15.312542
 30
0.0
 10
11.910060
 20
-15.368422
 30
0.0
 10
11.795760
 20
-15.482722
 30
0.0
 10
11.739880
 20
-15.597022
 30
0.0
 10
11.681460
 20
-15.825622
 30
0.0
 10
11.681460
 20
-15.998342
 30
0.0
 10
11.739880
 20
-16.226942
 30
0.0
 10
11.795760
 20
-16.341242
 30
0.0
 10
11.910060
 20
-16.455542
 30
0.0
 10
12.082780
 20
-16.511422
 30
0.0
 10
12.197080
 20
-16.511422
 30
0.0
 10
12.367260
 20
-16.455542
 30
0.0
 10
12.425680
 20
-16.397122
 30
0.0
 10
12.425680
 20
-15.998342
 30
0.0
 10
12.197080
 20
-15.998342
 30
0.0
  0
LWPOLYLINE
  5
103
100
AcDbEntity
  8
0
 62
7
100
AcDbPolyline
 90
11
 70
0
 10
9.364980
 20
-21.261222
 30
0.0
 10
9.364980
 20
-20.062342
 30
0.0
 10
9.822180
 20
-20.062342
 30
0.0
 10
9.936480
 20
-20.118222
 30
0.0
 10
9.994900
 20
-20.176642
 30
0.0
 10
10.050780
 20
-20.290942
 30
0.0
 10
10.050780
 20
-20.461122
 30
0.0
 10
9.994900
 20
-20.575422
 30
0.0
 10
9.936480
 20
-20.633842
 30
0.0
 10
9.822180
 20
-20.689722
 30
0.0
 10
9.364980
 20
-20.689722
 30
0.0
  0
LWPOLYLINE
  5
104
100
AcDbEntity
  8
0
 62
7
100
AcDbPolyline
 90
2
 70
0
 10
11.252200
 20
-21.261222
 30
0.0
 10
10.850880
 20
-20.689722
 30
0.0
  0
LWPOLYLINE
  5
105
100
AcDbEntity
  8
0
 62
7
100
AcDbPolyline
 90
11
 70
0
 10
10.566400
 20
-21.261222
 30
0.0
 10
10.566400
 20
-20.062342
 30
0.0
 10
11.023600
 20
-20.062342
 30
0.0
 10
11.137900
 20
-20.118222
 30
0.0
 10
11.193780
 20
-20.176642
 30
0.0
 10
11.252200
 20
-20.290942
 30
0.0
 10
11.252200
 20
-20.461122
 30
0.0
 10
11.193780
 20
-20.575422
 30
0.0
 10
11.137900
 20
-20.633842
 30
0.0
 10
11.023600
 20
-20.689722
 30
0.0
 10
10.566400
 20
-20.689722
 30
0.0
  0
LWPOLYLINE
  5
106
100
AcDbEntity
  8
0
 62
7
100
AcDbPolyline
 90
16
 70
1
 10
11.993880
 20
-20.062342
 30
0.0
 10
12.222480
 20
-20.062342
 30
0.0
 10
12.336780
 20
-20.118222
 30
0.0
 10
12.451080
 20
-20.232522
 30
0.0
 10
12.509500
 20
-20.461122
 30
0.0
 10
12.509500
 20
-20.862442
 30
0.0
 10
12.451080
 20
-21.091042
 30
0.0
 10
12.336780
 20
-21.205342
 30
0.0
 10
12.222480
 20
-21.261222
 30
0.0
 10
11.993880
 20
-21.261222
 30
0.0
 10
11.879580
 20
-21.205342
 30
0.0
 10
11.765280
 20
-21.091042
 30
0.0
 10
11.709400
 20
-20.862442
 30
0.0
 10
11.709400
 20
-20.461122
 30
0.0
 10
11.765280
 20
-20.232522
 30
0.0
 10
11.879580
 20
-20.118222
 30
0.0
  0
LWPOLYLINE
  5
107
100
AcDbEntity
  8
0
 62
7
100
AcDbPolyline
 90
17
 70
0
 10
13.652500
 20
-20.118222
 30
0.0
 10
13.538200
 20
-20.062342
 30
0.0
 10
13.365480
 20
-20.062342
 30
0.0
 10
13.195300
 20
-20.118222
 30
0.0
 10
13.081000
 20
-20.232522
 30
0.0
 10
13.022580
 20
-20.346822
 30
0.0
 10
12.966700
 20
-20.575422
 30
0.0
 10
12.966700
 20
-20.748142
 30
0.0
 10
13.022580
 20
-20.976742
 30
0.0
 10
13.081000
 20
-21.091042
 30
0.0
 10
13.195300
 20
-21.205342
 30
0.0
 10
13.365480
 20
-21.261222
 30
0.0
 10
13.479780
 20
-21.261222
 30
0.0
 10
13.652500
 20
-21.205342
 30
0.0
 10
13.708380
 20
-21.146922
 30
0.0
 10
13.708380
 20
-20.748142
 30
0.0
 10
13.479780
 20
-20.748142
 30
0.0
  0
LWPOLYLINE
  5
108
100
AcDbEntity
  8
0
 62
7
100
AcDbPolyline
 90
16
 70
1
 10
6.652260
 20
-39.793062
 30
0.0
 10
6.918960
 20
-39.793062
 30
0.0
 10
7.051040
 20
-39.859102
 30
0.0
 10
7.185660
 20
-39.993722
 30
0.0
 10
7.251700
 20
-40.260422
 30
0.0
 10
7.251700
 20
-40.725242
 30
0.0
 10
7.185660
 20
-40.991942
 30
0.0
 10
7.051040
 20
-41.126562
 30
0.0
 10
6.918960
 20
-41.192602
 30
0.0
 10
6.652260
 20
-41.192602
 30
0.0
 10
6.520180
 20
-41.126562
 30
0.0
 10
6.385560
 20
-40.991942
 30
0.0
 10
6.319520
 20
-40.725242
 30
0.0
 10
6.319520
 20
-40.260422
 30
0.0
 10
6.385560
 20
-39.993722
 30
0.0
 10
6.520180
 20
-39.859102
 30
0.0
  0
LWPOLYLINE
  5
109
100
AcDbEntity
  8
0
 62
7
100
AcDbPolyline
 90
4
 70
0
 10
7.851140
 20
-41.192602
 30
0.0
 10
7.851140
 20
-39.793062
 30
0.0
 10
8.651240
 20
-41.192602
 30
0.0
 10
8.651240
 20
-39.793062
 30
0.0
  0
LWPOLYLINE
  5
10a
100
AcDbEntity
  8
0
 62
7
100
AcDbPolyline
 90
16
 70
1
 10
7.056120
 20
-49.963222
 30
0.0
 10
7.322820
 20
-49.963222
 30
0.0
 10
7.454900
 20
-50.029262
 30
0.0
 10
7.589520
 20
-50.163882
 30
0.0
 10
7.655560
 20
-50.430582
 30
0.0
 10
7.655560
 20
-50.895402
 30
0.0
 10
7.589520
 20
-51.162102
 30
0.0
 10
7.454900
 20
-51.296722
 30
0.0
 10
7.322820
 20
-51.362762
 30
0.0
 10
7.056120
 20
-51.362762
 30
0.0
 10
6.921500
 20
-51.296722
 30
0.0
 10
6.789420
 20
-51.162102
 30
0.0
 10
6.723380
 20
-50.895402
 30
0.0
 10
6.723380
 20
-50.430582
 30
0.0
 10
6.789420
 20
-50.163882
 30
0.0
 10
6.921500
 20
-50.029262
 30
0.0
  0
LWPOLYLINE
  5
10b
100
AcDbEntity
  8
0
 62
7
100
AcDbPolyline
 90
2
 70
0
 10
8.722360
 20
-50.628702
 30
0.0
 10
8.255000
 20
-50.628702
 30
0.0
  0
LWPOLYLINE
  5
10c
100
AcDbEntity
  8
0
 62
7
100
AcDbPolyline
 90
3
 70
0
 10
8.255000
 20
-51.362762
 30
0.0
 10
8.255000
 20
-49.963222
 30
0.0
 10
8.923020
 20
-49.963222
 30
0.0
  0
LWPOLYLINE
  5
10d
100
AcDbEntity
  8
0
 62
7
100
AcDbPolyline
 90
2
 70
0
 10
9.921240
 20
-50.628702
 30
0.0
 10
9.456420
 20
-50.628702
 30
0.0
  0
LWPOLYLINE
  5
10e
100
AcDbEntity
  8
0
 62
7
100
AcDbPolyline
 90
3
 70
0
 10
9.456420
 20
-51.362762
 30
0.0
 10
9.456420
 20
-49.963222
 30
0.0
 10
10.121900
 20
-49.963222
 30
0.0
  0
LWPOLYLINE
  5
10f
100
AcDbEntity
  8
0
 62
7
100
AcDbPolyline
 90
2
 70
0
 10
15.161260
 20
-17.441062
 30
0.0
 10
14.475460
 20
-17.441062
 30
0.0
  0
LWPOLYLINE
  5
110
100
AcDbEntity
  8
0
 62
7
100
AcDbPolyline
 90
5
 70
0
 10
14.818360
 20
-17.441062
 30
0.0
 10
14.818360
 20
-16.242182
 30
0.0
 10
14.704060
 20
-16.414902
 30
0.0
 10
14.589760
 20
-16.529202
 30
0.0
 10
14.475460
 20
-16.585082
 30
0.0
  0
LWPOLYLINE
  5
111
100
AcDbEntity
  8
0
 62
7
100
AcDbPolyline
 90
22
 70
0
 10
16.189960
 20
-16.242182
 30
0.0
 10
15.961360
 20
-16.242182
 30
0.0
 10
15.847060
 20
-16.300602
 30
0.0
 10
15.788640
 20
-16.356482
 30
0.0
 10
15.674340
 20
-16.529202
 30
0.0
 10
15.618460
 20
-16.757802
 30
0.0
 10
15.618460
 20
-17.212462
 30
0.0
 10
15.674340
 20
-17.326762
 30
0.0
 10
15.732760
 20
-17.385182
 30
0.0
 10
15.847060
 20
-17.441062
 30
0.0
 10
16.075660
 20
-17.441062
 30
0.0
 10
16.189960
 20
-17.385182
 30
0.0
 10
16.245840
 20
-17.326762
 30
0.0
 10
16.304260
 20
-17.212462
 30
0.0
 10
16.304260
 20
-16.927982
 30
0.0
 10
16.245840
 20
-16.813682
 30
0.0
 10
16.189960
 20
-16.757802
 30
0.0
 10
16.075660
 20
-16.699382
 30
0.0
 10
15.847060
 20
-16.699382
 30
0.0
 10
15.732760
 20
-16.757802
 30
0.0
 10
15.674340
 20
-16.813682
 30
0.0
 10
15.618460
 20
-16.927982
 30
0.0
  0
LWPOLYLINE
  5
112
100
AcDbEntity
  8
0
 62
7
100
AcDbPolyline
 90
32
 70
0
 10
29.065220
 20
-28.337662
 30
0.0
 10
28.950920
 20
-28.279242
 30
0.0
 10
28.892500
 20
-28.223362
 30
0.0
 10
28.836620
 20
-28.109062
 30
0.0
 10
28.836620
 20
-28.050642
 30
0.0
 10
28.892500
 20
-27.936342
 30
0.0
 10
28.950920
 20
-27.880462
 30
0.0
 10
29.065220
 20
-27.822042
 30
0.0
 10
29.293820
 20
-27.822042
 30
0.0
 10
29.408120
 20
-27.880462
 30
0.0
 10
29.464000
 20
-27.936342
 30
0.0
 10
29.522420
 20
-28.050642
 30
0.0
 10
29.522420
 20
-28.109062
 30
0.0
 10
29.464000
 20
-28.223362
 30
0.0
 10
29.408120
 20
-28.279242
 30
0.0
 10
29.293820
 20
-28.337662
 30
0.0
 10
29.065220
 20
-28.337662
 30
0.0
 10
28.950920
 20
-28.393542
 30
0.0
 10
28.892500
 20
-28.451962
 30
0.0
 10
28.836620
 20
-28.566262
 30
0.0
 10
28.836620
 20
-28.794862
 30
0.0
 10
28.892500
 20
-28.909162
 30
0.0
 10
28.950920
 20
-28.965042
 30
0.0
 10
29.065220
 20
-29.023462
 30
0.0
 10
29.293820
 20
-29.023462
 30
0.0
 10
29.408120
 20
-28.965042
 30
0.0
 10
29.464000
 20
-28.909162
 30
0.0
 10
29.522420
 20
-28.794862
 30
0.0
 10
29.522420
 20
-28.566262
 30
0.0
 10
29.464000
 20
-28.451962
 30
0.0
 10
29.408120
 20
-28.393542
 30
0.0
 10
29.293820
 20
-28.337662
 30
0.0
  0
LWPOLYLINE
  5
113
100
AcDbEntity
  8
0
 62
7
100
AcDbPolyline
 90
2
 70
0
 10
15.491460
 20
-29.153002
 30
0.0
 10
14.805660
 20
-29.153002
 30
0.0
  0
LWPOLYLINE
  5
114
100
AcDbEntity
  8
0
 62
7
100
AcDbPolyline
 90
5
 70
0
 10
15.148560
 20
-29.153002
 30
0.0
 10
15.148560
 20
-27.951582
 30
0.0
 10
15.034260
 20
-28.124302
 30
0.0
 10
14.919960
 20
-28.238602
 30
0.0
 10
14.805660
 20
-28.294482
 30
0.0
  0
LWPOLYLINE
  5
115
100
AcDbEntity
  8
0
 62
7
100
AcDbPolyline
 90
2
 70
0
 10
29.329380
 20
-19.130162
 30
0.0
 10
29.329380
 20
-18.558662
 30
0.0
  0
LWPOLYLINE
  5
116
100
AcDbEntity
  8
0
 62
7
100
AcDbPolyline
 90
3
 70
0
 10
29.672280
 20
-19.244462
 30
0.0
 10
28.470860
 20
-18.845682
 30
0.0
 10
29.672280
 20
-18.444362
 30
0.0
  0
LWPOLYLINE
  5
117
100
AcDbEntity
  8
0
 62
7
100
AcDbPolyline
 90
4
 70
0
 10
29.672280
 20
-18.045582
 30
0.0
 10
28.470860
 20
-18.045582
 30
0.0
 10
29.672280
 20
-17.359782
 30
0.0
 10
28.470860
 20
-17.359782
 30
0.0
  0
LWPOLYLINE
  5
118
100
AcDbEntity
  8
0
 62
7
100
AcDbPolyline
 90
2
 70
0
 10
28.470860
 20
-16.958462
 30
0.0
 10
28.470860
 20
-16.272662
 30
0.0
  0
LWPOLYLINE
  5
119
100
AcDbEntity
  8
0
 62
7
100
AcDbPolyline
 90
2
 70
0
 10
29.672280
 20
-16.615562
 30
0.0
 10
28.470860
 20
-16.615562
 30
0.0
  0
LWPOLYLINE
  5
11a
100
AcDbEntity
  8
0
 62
7
100
AcDbPolyline
 90
2
 70
0
 10
13.070840
 20
-61.210342
 30
0.0
 10
13.642340
 20
-61.210342
 30
0.0
  0
LWPOLYLINE
  5
11b
100
AcDbEntity
  8
0
 62
7
100
AcDbPolyline
 90
3
 70
0
 10
12.956540
 20
-61.553242
 30
0.0
 10
13.357860
 20
-60.351822
 30
0.0
 10
13.756640
 20
-61.553242
 30
0.0
  0
LWPOLYLINE
  5
11c
100
AcDbEntity
  8
0
 62
7
100
AcDbPolyline
 90
2
 70
0
 10
14.671040
 20
-60.753142
 30
0.0
 10
14.671040
 20
-61.553242
 30
0.0
  0
LWPOLYLINE
  5
11d
100
AcDbEntity
  8
0
 62
7
100
AcDbPolyline
 90
3
 70
0
 10
14.386560
 20
-60.295942
 30
0.0
 10
14.099540
 20
-61.151922
 30
0.0
 10
14.843760
 20
-61.151922
 30
0.0
  0
LWPOLYLINE
  5
11e
100
AcDbEntity
  8
0
 62
7
100
AcDbPolyline
 90
17
 70
0
 10
13.672820
 20
-57.989622
 30
0.0
 10
13.558520
 20
-57.931202
 30
0.0
 10
13.385800
 20
-57.931202
 30
0.0
 10
13.215620
 20
-57.989622
 30
0.0
 10
13.101320
 20
-58.103922
 30
0.0
 10
13.042900
 20
-58.218222
 30
0.0
 10
12.987020
 20
-58.446822
 30
0.0
 10
12.987020
 20
-58.617002
 30
0.0
 10
13.042900
 20
-58.845602
 30
0.0
 10
13.101320
 20
-58.959902
 30
0.0
 10
13.215620
 20
-59.074202
 30
0.0
 10
13.385800
 20
-59.132622
 30
0.0
 10
13.500100
 20
-59.132622
 30
0.0
 10
13.672820
 20
-59.074202
 30
0.0
 10
13.728700
 20
-59.018322
 30
0.0
 10
13.728700
 20
-58.617002
 30
0.0
 10
13.500100
 20
-58.617002
 30
0.0
  0
LWPOLYLINE
  5
11f
100
AcDbEntity
  8
0
 62
7
100
AcDbPolyline
 90
2
 70
0
 10
14.871700
 20
-59.132622
 30
0.0
 10
14.185900
 20
-59.132622
 30
0.0
  0
LWPOLYLINE
  5
120
100
AcDbEntity
  8
0
 62
7
100
AcDbPolyline
 90
5
 70
0
 10
14.528800
 20
-59.132622
 30
0.0
 10
14.528800
 20
-57.931202
 30
0.0
 10
14.414500
 20
-58.103922
 30
0.0
 10
14.300200
 20
-58.218222
 30
0.0
 10
14.185900
 20
-58.274102
 30
0.0
  0
LWPOLYLINE
  5
121
100
AcDbEntity
  8
0
 62
7
100
AcDbPolyline
 90
17
 70
0
 10
13.634720
 20
-55.398822
 30
0.0
 10
13.520420
 20
-55.342942
 30
0.0
 10
13.347700
 20
-55.342942
 30
0.0
 10
13.177520
 20
-55.398822
 30
0.0
 10
13.063220
 20
-55.513122
 30
0.0
 10
13.007340
 20
-55.627422
 30
0.0
 10
12.948920
 20
-55.856022
 30
0.0
 10
12.948920
 20
-56.028742
 30
0.0
 10
13.007340
 20
-56.257342
 30
0.0
 10
13.063220
 20
-56.371642
 30
0.0
 10
13.177520
 20
-56.485942
 30
0.0
 10
13.347700
 20
-56.541822
 30
0.0
 10
13.462000
 20
-56.541822
 30
0.0
 10
13.634720
 20
-56.485942
 30
0.0
 10
13.690600
 20
-56.427522
 30
0.0
 10
13.690600
 20
-56.028742
 30
0.0
 10
13.462000
 20
-56.028742
 30
0.0
  0
LWPOLYLINE
  5
122
100
AcDbEntity
  8
0
 62
7
100
AcDbPolyline
 90
4
 70
0
 10
14.206220
 20
-56.541822
 30
0.0
 10
14.206220
 20
-55.342942
 30
0.0
 10
14.892020
 20
-56.541822
 30
0.0
 10
14.892020
 20
-55.342942
 30
0.0
  0
LWPOLYLINE
  5
123
100
AcDbEntity
  8
0
 62
7
100
AcDbPolyline
 90
12
 70
1
 10
15.463520
 20
-56.541822
 30
0.0
 10
15.463520
 20
-55.342942
 30
0.0
 10
15.748000
 20
-55.342942
 30
0.0
 10
15.920720
 20
-55.398822
 30
0.0
 10
16.035020
 20
-55.513122
 30
0.0
 10
16.090900
 20
-55.627422
 30
0.0
 10
16.149320
 20
-55.856022
 30
0.0
 10
16.149320
 20
-56.028742
 30
0.0
 10
16.090900
 20
-56.257342
 30
0.0
 10
16.035020
 20
-56.371642
 30
0.0
 10
15.920720
 20
-56.485942
 30
0.0
 10
15.748000
 20
-56.541822
 30
0.0
  0
LWPOLYLINE
  5
124
100
AcDbEntity
  8
0
 62
7
100
AcDbPolyline
 90
2
 70
0
 10
19.484340
 20
-23.387202
 30
0.0
 10
18.983960
 20
-22.673462
 30
0.0
  0
LWPOLYLINE
  5
125
100
AcDbEntity
  8
0
 62
7
100
AcDbPolyline
 90
11
 70
0
 10
18.628360
 20
-23.387202
 30
0.0
 10
18.628360
 20
-21.888602
 30
0.0
 10
19.199860
 20
-21.888602
 30
0.0
 10
19.342100
 20
-21.959722
 30
0.0
 10
19.413220
 20
-22.030842
 30
0.0
 10
19.484340
 20
-22.173082
 30
0.0
 10
19.484340
 20
-22.388982
 30
0.0
 10
19.413220
 20
-22.531222
 30
0.0
 10
19.342100
 20
-22.602342
 30
0.0
 10
19.199860
 20
-22.673462
 30
0.0
 10
18.628360
 20
-22.673462
 30
0.0
  0
LWPOLYLINE
  5
126
100
AcDbEntity
  8
0
 62
7
100
AcDbPolyline
 90
2
 70
0
 10
20.627340
 20
-22.602342
 30
0.0
 10
20.126960
 20
-22.602342
 30
0.0
  0
LWPOLYLINE
  5
127
100
AcDbEntity
  8
0
 62
7
100
AcDbPolyline
 90
3
 70
0
 10
20.126960
 20
-23.387202
 30
0.0
 10
20.126960
 20
-21.888602
 30
0.0
 10
20.840700
 20
-21.888602
 30
0.0
  0
LWPOLYLINE
  5
128
100
AcDbEntity
  8
0
 62
7
100
AcDbPolyline
 90
5
 70
0
 10
21.412200
 20
-23.387202
 30
0.0
 10
21.412200
 20
-21.888602
 30
0.0
 10
21.912580
 20
-22.960482
 30
0.0
 10
22.412960
 20
-21.888602
 30
0.0
 10
22.412960
 20
-23.387202
 30
0.0
  0
LWPOLYLINE
  5
129
100
AcDbEntity
  8
0
 62
7
100
AcDbPolyline
 90
22
 70
0
 10
23.197820
 20
-23.387202
 30
0.0
 10
23.484840
 20
-23.387202
 30
0.0
 10
23.627080
 20
-23.316082
 30
0.0
 10
23.698200
 20
-23.244962
 30
0.0
 10
23.842980
 20
-23.031602
 30
0.0
 10
23.914100
 20
-22.744582
 30
0.0
 10
23.914100
 20
-22.173082
 30
0.0
 10
23.842980
 20
-22.030842
 30
0.0
 10
23.769320
 20
-21.959722
 30
0.0
 10
23.627080
 20
-21.888602
 30
0.0
 10
23.342600
 20
-21.888602
 30
0.0
 10
23.197820
 20
-21.959722
 30
0.0
 10
23.126700
 20
-22.030842
 30
0.0
 10
23.055580
 20
-22.173082
 30
0.0
 10
23.055580
 20
-22.531222
 30
0.0
 10
23.126700
 20
-22.673462
 30
0.0
 10
23.197820
 20
-22.744582
 30
0.0
 10
23.342600
 20
-22.815702
 30
0.0
 10
23.627080
 20
-22.815702
 30
0.0
 10
23.769320
 20
-22.744582
 30
0.0
 10
23.842980
 20
-22.673462
 30
0.0
 10
23.914100
 20
-22.531222
 30
0.0
  0
LWPOLYLINE
  5
12a
100
AcDbEntity
  8
0
 62
7
100
AcDbPolyline
 90
16
 70
0
 10
25.270460
 20
-21.888602
 30
0.0
 10
24.556720
 20
-21.888602
 30
0.0
 10
24.485600
 20
-22.602342
 30
0.0
 10
24.556720
 20
-22.531222
 30
0.0
 10
24.698960
 20
-22.460102
 30
0.0
 10
25.057100
 20
-22.460102
 30
0.0
 10
25.199340
 20
-22.531222
 30
0.0
 10
25.270460
 20
-22.602342
 30
0.0
 10
25.341580
 20
-22.744582
 30
0.0
 10
25.341580
 20
-23.102722
 30
0.0
 10
25.270460
 20
-23.244962
 30
0.0
 10
25.199340
 20
-23.316082
 30
0.0
 10
25.057100
 20
-23.387202
 30
0.0
 10
24.698960
 20
-23.387202
 30
0.0
 10
24.556720
 20
-23.316082
 30
0.0
 10
24.485600
 20
-23.244962
 30
0.0
  0
LWPOLYLINE
  5
12b
100
AcDbEntity
  8
0
 62
7
100
AcDbPolyline
 90
2
 70
0
 10
7.985760
 20
-8.104022
 30
0.0
 10
8.702040
 20
-8.104022
 30
0.0
  0
LWPOLYLINE
  5
12c
100
AcDbEntity
  8
0
 62
7
100
AcDbPolyline
 90
3
 70
0
 10
7.843520
 20
-8.533282
 30
0.0
 10
8.343900
 20
-7.032142
 30
0.0
 10
8.844280
 20
-8.533282
 30
0.0
  0
LWPOLYLINE
  5
12d
100
AcDbEntity
  8
0
 62
7
100
AcDbPolyline
 90
4
 70
0
 10
9.344660
 20
-8.533282
 30
0.0
 10
9.344660
 20
-7.032142
 30
0.0
 10
10.200640
 20
-8.533282
 30
0.0
 10
10.200640
 20
-7.032142
 30
0.0
  0
LWPOLYLINE
  5
12e
100
AcDbEntity
  8
0
 62
7
100
AcDbPolyline
 90
2
 70
0
 10
10.701020
 20
-7.032142
 30
0.0
 10
11.557000
 20
-7.032142
 30
0.0
  0
LWPOLYLINE
  5
12f
100
AcDbEntity
  8
0
 62
7
100
AcDbPolyline
 90
2
 70
0
 10
11.130280
 20
-8.533282
 30
0.0
 10
11.130280
 20
-7.032142
 30
0.0
  0
LWPOLYLINE
  5
130
100
AcDbEntity
  8
0
 62
7
100
AcDbPolyline
 90
2
 70
0
 10
12.057380
 20
-7.748422
 30
0.0
 10
12.557760
 20
-7.748422
 30
0.0
  0
LWPOLYLINE
  5
131
100
AcDbEntity
  8
0
 62
7
100
AcDbPolyline
 90
4
 70
0
 10
12.773660
 20
-8.533282
 30
0.0
 10
12.057380
 20
-8.533282
 30
0.0
 10
12.057380
 20
-7.032142
 30
0.0
 10
12.773660
 20
-7.032142
 30
0.0
  0
LWPOLYLINE
  5
132
100
AcDbEntity
  8
0
 62
7
100
AcDbPolyline
 90
4
 70
0
 10
13.416280
 20
-8.533282
 30
0.0
 10
13.416280
 20
-7.032142
 30
0.0
 10
14.272260
 20
-8.533282
 30
0.0
 10
14.272260
 20
-7.032142
 30
0.0
  0
LWPOLYLINE
  5
133
100
AcDbEntity
  8
0
 62
7
100
AcDbPolyline
 90
4
 70
0
 10
14.986000
 20
-8.533282
 30
0.0
 10
14.986000
 20
-7.032142
 30
0.0
 10
15.844520
 20
-8.533282
 30
0.0
 10
15.844520
 20
-7.032142
 30
0.0
  0
LWPOLYLINE
  5
134
100
AcDbEntity
  8
0
 62
7
100
AcDbPolyline
 90
2
 70
0
 10
16.487140
 20
-8.104022
 30
0.0
 10
17.200880
 20
-8.104022
 30
0.0
  0
LWPOLYLINE
  5
135
100
AcDbEntity
  8
0
 62
7
100
AcDbPolyline
 90
3
 70
0
 10
16.344900
 20
-8.533282
 30
0.0
 10
16.842740
 20
-7.032142
 30
0.0
 10
17.343120
 20
-8.533282
 30
0.0
  0
LWPOLYLINE
  5
136
100
AcDbEntity
  8
0
 62
7
100
AcDbPolyline
 90
17
 70
0
 10
11.262360
 20
-4.654702
 30
0.0
 10
11.120120
 20
-4.583582
 30
0.0
 10
10.904220
 20
-4.583582
 30
0.0
 10
10.690860
 20
-4.654702
 30
0.0
 10
10.548620
 20
-4.796942
 30
0.0
 10
10.477500
 20
-4.939182
 30
0.0
 10
10.406380
 20
-5.226202
 30
0.0
 10
10.406380
 20
-5.439562
 30
0.0
 10
10.477500
 20
-5.726582
 30
0.0
 10
10.548620
 20
-5.868822
 30
0.0
 10
10.690860
 20
-6.011062
 30
0.0
 10
10.904220
 20
-6.082182
 30
0.0
 10
11.049000
 20
-6.082182
 30
0.0
 10
11.262360
 20
-6.011062
 30
0.0
 10
11.333480
 20
-5.939942
 30
0.0
 10
11.333480
 20
-5.439562
 30
0.0
 10
11.049000
 20
-5.439562
 30
0.0
  0
LWPOLYLINE
  5
137
100
AcDbEntity
  8
0
 62
7
100
AcDbPolyline
 90
11
 70
0
 10
11.976100
 20
-6.082182
 30
0.0
 10
11.976100
 20
-4.583582
 30
0.0
 10
12.547600
 20
-4.583582
 30
0.0
 10
12.692380
 20
-4.654702
 30
0.0
 10
12.763500
 20
-4.725822
 30
0.0
 10
12.834620
 20
-4.868062
 30
0.0
 10
12.834620
 20
-5.083962
 30
0.0
 10
12.763500
 20
-5.226202
 30
0.0
 10
12.692380
 20
-5.297322
 30
0.0
 10
12.547600
 20
-5.368442
 30
0.0
 10
11.976100
 20
-5.368442
 30
0.0
  0
LWPOLYLINE
  5
138
100
AcDbEntity
  8
0
 62
7
100
AcDbPolyline
 90
20
 70
0
 10
13.406120
 20
-6.011062
 30
0.0
 10
13.619480
 20
-6.082182
 30
0.0
 10
13.977620
 20
-6.082182
 30
0.0
 10
14.119860
 20
-6.011062
 30
0.0
 10
14.190980
 20
-5.939942
 30
0.0
 10
14.262100
 20
-5.797702
 30
0.0
 10
14.262100
 20
-5.655462
 30
0.0
 10
14.190980
 20
-5.510682
 30
0.0
 10
14.119860
 20
-5.439562
 30
0.0
 10
13.977620
 20
-5.368442
 30
0.0
 10
13.690600
 20
-5.297322
 30
0.0
 10
13.548360
 20
-5.226202
 30
0.0
 10
13.477240
 20
-5.155082
 30
0.0
 10
13.406120
 20
-5.012842
 30
0.0
 10
13.406120
 20
-4.868062
 30
0.0
 10
13.477240
 20
-4.725822
 30
0.0
 10
13.548360
 20
-4.654702
 30
0.0
 10
13.690600
 20
-4.583582
 30
0.0
 10
14.048740
 20
-4.583582
 30
0.0
 10
14.262100
 20
-4.654702
 30
0.0
  0
LWPOLYLINE
  5
139
100
AcDbEntity
  8
0
 62
7
100
AcDbPolyline
 90
3
 70
0
 10
7.668260
 20
-38.040462
 30
0.0
 10
6.339840
 20
-38.040462
 30
0.0
 10
6.339840
 20
-36.709502
 30
0.0
  0
LWPOLYLINE
  5
13a
100
AcDbEntity
  8
0
 62
7
100
AcDbPolyline
 90
2
 70
0
 10
6.339840
 20
-35.439502
 30
0.0
 10
6.339840
 20
-25.218542
 30
0.0
  0
LWPOLYLINE
  5
13b
100
AcDbEntity
  8
0
 62
7
100
AcDbPolyline
 90
2
 70
0
 10
8.999220
 20
-25.218542
 30
0.0
 10
6.339840
 20
-25.218542
 30
0.0
  0
LWPOLYLINE
  5
13c
100
AcDbEntity
  8
0
 62
7
100
AcDbPolyline
 90
2
 70
0
 10
8.999220
 20
-35.439502
 30
0.0
 10
8.999220
 20
-25.218542
 30
0.0
  0
LWPOLYLINE
  5
13d
100
AcDbEntity
  8
0
 62
7
100
AcDbPolyline
 90
2
 70
0
 10
8.999220
 20
-35.439502
 30
0.0
 10
6.339840
 20
-35.439502
 30
0.0
  0
LWPOLYLINE
  5
13e
100
AcDbEntity
  8
0
 62
7
100
AcDbPolyline
 90
2
 70
0
 10
27.749500
 20
-51.418642
 30
0.0
 10
27.058620
 20
-51.418642
 30
0.0
  0
LWPOLYLINE
  5
13f
100
AcDbEntity
  8
0
 62
7
100
AcDbPolyline
 90
2
 70
0
 10
17.129760
 20
-51.418642
 30
0.0
 10
17.818100
 20
-51.418642
 30
0.0
  0
LWPOLYLINE
  5
140
100
AcDbEntity
  8
0
 62
7
100
AcDbPolyline
 90
2
 70
0
 10
27.058620
 20
-49.699062
 30
0.0
 10
17.818100
 20
-49.699062
 30
0.0
  0
LWPOLYLINE
  5
141
100
AcDbEntity
  8
0
 62
7
100
AcDbPolyline
 90
2
 70
0
 10
27.058620
 20
-53.138222
 30
0.0
 10
27.058620
 20
-49.699062
 30
0.0
  0
LWPOLYLINE
  5
142
100
AcDbEntity
  8
0
 62
7
100
AcDbPolyline
 90
2
 70
0
 10
17.818100
 20
-53.138222
 30
0.0
 10
27.058620
 20
-53.138222
 30
0.0
  0
LWPOLYLINE
  5
143
100
AcDbEntity
  8
0
 62
7
100
AcDbPolyline
 90
2
 70
0
 10
17.818100
 20
-49.699062
 30
0.0
 10
17.818100
 20
-53.138222
 30
0.0
  0
LWPOLYLINE
  5
144
100
AcDbEntity
  8
0
 62
7
100
AcDbPolyline
 90
4
 70
1
 10
9.380220
 20
-64.629182
 30
0.0
 10
9.380220
 20
-67.428262
 30
0.0
 10
7.378700
 20
-67.428262
 30
0.0
 10
7.378700
 20
-64.629182
 30
0.0
  0
LWPOLYLINE
  5
145
100
AcDbEntity
  8
0
 62
7
100
AcDbPolyline
 90
2
 70
0
 10
30.159960
 20
-30.758282
 30
0.0
 10
29.959300
 20
-30.758282
 30
0.0
  0
LWPOLYLINE
  5
146
100
AcDbEntity
  8
0
 62
7
100
AcDbPolyline
 90
2
 70
0
 10
30.159960
 20
-14.758822
 30
0.0
 10
30.159960
 20
-30.758282
 30
0.0
  0
LWPOLYLINE
  5
147
100
AcDbEntity
  8
0
 62
7
100
AcDbPolyline
 90
2
 70
0
 10
29.959300
 20
-14.758822
 30
0.0
 10
30.159960
 20
-14.758822
 30
0.0
  0
LWPOLYLINE
  5
148
100
AcDbEntity
  8
0
 62
7
100
AcDbPolyline
 90
2
 70
0
 10
27.957780
 20
-14.758822
 30
0.0
 10
28.359100
 20
-14.758822
 30
0.0
  0
LWPOLYLINE
  5
149
100
AcDbEntity
  8
0
 62
7
100
AcDbPolyline
 90
2
 70
0
 10
25.958800
 20
-14.758822
 30
0.0
 10
26.360120
 20
-14.758822
 30
0.0
  0
LWPOLYLINE
  5
14a
100
AcDbEntity
  8
0
 62
7
100
AcDbPolyline
 90
2
 70
0
 10
23.959820
 20
-14.758822
 30
0.0
 10
24.358600
 20
-14.758822
 30
0.0
  0
LWPOLYLINE
  5
14b
100
AcDbEntity
  8
0
 62
7
100
AcDbPolyline
 90
2
 70
0
 10
21.958300
 20
-14.758822
 30
0.0
 10
22.359620
 20
-14.758822
 30
0.0
  0
LWPOLYLINE
  5
14c
100
AcDbEntity
  8
0
 62
7
100
AcDbPolyline
 90
2
 70
0
 10
19.959320
 20
-14.758822
 30
0.0
 10
20.358100
 20
-14.758822
 30
0.0
  0
LWPOLYLINE
  5
14d
100
AcDbEntity
  8
0
 62
7
100
AcDbPolyline
 90
2
 70
0
 10
17.957800
 20
-14.758822
 30
0.0
 10
18.359120
 20
-14.758822
 30
0.0
  0
LWPOLYLINE
  5
14e
100
AcDbEntity
  8
0
 62
7
100
AcDbPolyline
 90
2
 70
0
 10
15.958820
 20
-14.758822
 30
0.0
 10
16.360140
 20
-14.758822
 30
0.0
  0
LWPOLYLINE
  5
14f
100
AcDbEntity
  8
0
 62
7
100
AcDbPolyline
 90
2
 70
0
 10
14.157960
 20
-14.758822
 30
0.0
 10
14.358620
 20
-14.758822
 30
0.0
  0
LWPOLYLINE
  5
150
100
AcDbEntity
  8
0
 62
7
100
AcDbPolyline
 90
2
 70
0
 10
27.957780
 20
-30.758282
 30
0.0
 10
28.359100
 20
-30.758282
 30
0.0
  0
LWPOLYLINE
  5
151
100
AcDbEntity
  8
0
 62
7
100
AcDbPolyline
 90
2
 70
0
 10
14.358620
 20
-30.758282
 30
0.0
 10
14.157960
 20
-30.758282
 30
0.0
  0
LWPOLYLINE
  5
152
100
AcDbEntity
  8
0
 62
7
100
AcDbPolyline
 90
2
 70
0
 10
14.358620
 20
-31.759042
 30
0.0
 10
14.358620
 20
-30.758282
 30
0.0
  0
LWPOLYLINE
  5
153
100
AcDbEntity
  8
0
 62
7
100
AcDbPolyline
 90
2
 70
0
 10
16.360140
 20
-30.758282
 30
0.0
 10
15.958820
 20
-30.758282
 30
0.0
  0
LWPOLYLINE
  5
154
100
AcDbEntity
  8
0
 62
7
100
AcDbPolyline
 90
2
 70
0
 10
18.359120
 20
-30.758282
 30
0.0
 10
17.957800
 20
-30.758282
 30
0.0
  0
LWPOLYLINE
  5
155
100
AcDbEntity
  8
0
 62
7
100
AcDbPolyline
 90
2
 70
0
 10
19.959320
 20
-30.758282
 30
0.0
 10
20.358100
 20
-30.758282
 30
0.0
  0
LWPOLYLINE
  5
156
100
AcDbEntity
  8
0
 62
7
100
AcDbPolyline
 90
2
 70
0
 10
21.958300
 20
-30.758282
 30
0.0
 10
22.359620
 20
-30.758282
 30
0.0
  0
LWPOLYLINE
  5
157
100
AcDbEntity
  8
0
 62
7
100
AcDbPolyline
 90
2
 70
0
 10
23.959820
 20
-30.758282
 30
0.0
 10
24.358600
 20
-30.758282
 30
0.0
  0
LWPOLYLINE
  5
158
100
AcDbEntity
  8
0
 62
7
100
AcDbPolyline
 90
2
 70
0
 10
25.958800
 20
-30.758282
 30
0.0
 10
26.360120
 20
-30.758282
 30
0.0
  0
LWPOLYLINE
  5
159
100
AcDbEntity
  8
0
 62
7
100
AcDbPolyline
 90
2
 70
0
 10
14.157960
 20
-30.758282
 30
0.0
 10
14.157960
 20
-14.758822
 30
0.0
  0
LWPOLYLINE
  5
15a
100
AcDbEntity
  8
0
 62
7
100
AcDbPolyline
 90
4
 70
0
 10
17.368520
 20
-65.873782
 30
0.0
 10
17.368520
 20
-63.374422
 30
0.0
 10
18.420080
 20
-63.374422
 30
0.0
 10
18.420080
 20
-62.383822
 30
0.0
  0
LWPOLYLINE
  5
15b
100
AcDbEntity
  8
0
 62
7
100
AcDbPolyline
 90
3
 70
0
 10
23.588980
 20
-65.873782
 30
0.0
 10
23.588980
 20
-63.374422
 30
0.0
 10
22.539960
 20
-63.374422
 30
0.0
  0
LWPOLYLINE
  5
15c
100
AcDbEntity
  8
0
 62
7
100
AcDbPolyline
 90
2
 70
0
 10
18.539460
 20
-67.844822
 30
0.0
 10
22.418040
 20
-67.844822
 30
0.0
  0
LWPOLYLINE
  5
15d
100
AcDbEntity
  8
0
 62
7
100
AcDbPolyline
 90
2
 70
0
 10
33.510220
 20
-17.138802
 30
0.0
 10
10.518140
 20
-17.138802
 30
0.0
  0
LWPOLYLINE
  5
15e
100
AcDbEntity
  8
0
 62
7
100
AcDbPolyline
 90
2
 70
0
 10
10.518140
 20
-67.938802
 30
0.0
 10
33.510220
 20
-67.938802
 30
0.0
  0
LWPOLYLINE
  5
15f
100
AcDbEntity
  8
0
 62
7
100
AcDbPolyline
 90
2
 70
0
 10
10.518140
 20
-17.138802
 30
0.0
 10
10.518140
 20
-67.938802
 30
0.0
  0
LWPOLYLINE
  5
160
100
AcDbEntity
  8
0
 62
7
100
AcDbPolyline
 90
2
 70
0
 10
33.510220
 20
-17.138802
 30
0.0
 10
33.510220
 20
-67.938802
 30
0.0
  0
LWPOLYLINE
  5
161
100
AcDbEntity
  8
0
 62
7
100
AcDbPolyline
 90
2
 70
0
 10
13.190220
 20
-22.028302
 30
0.0
 10
10.528300
 20
-22.028302
 30
0.0
  0
LWPOLYLINE
  5
162
100
AcDbEntity
  8
0
 62
7
100
AcDbPolyline
 90
2
 70
0
 10
13.190220
 20
-52.678482
 30
0.0
 10
11.859260
 20
-52.678482
 30
0.0
  0
LWPOLYLINE
  5
163
100
AcDbEntity
  8
0
 62
7
100
AcDbPolyline
 90
2
 70
0
 10
13.190220
 20
-50.080062
 30
0.0
 10
10.528300
 20
-50.080062
 30
0.0
  0
LWPOLYLINE
  5
164
100
AcDbEntity
  8
0
 62
7
100
AcDbPolyline
 90
2
 70
0
 10
13.190220
 20
-50.080062
 30
0.0
 10
13.190220
 20
-22.028302
 30
0.0
  0
LWPOLYLINE
  5
165
100
AcDbEntity
  8
0
 62
7
100
AcDbPolyline
 90
2
 70
0
 10
10.528300
 20
-50.080062
 30
0.0
 10
10.528300
 20
-22.028302
 30
0.0
  0
LWPOLYLINE
  5
166
100
AcDbEntity
  8
0
 62
7
100
AcDbPolyline
 90
2
 70
0
 10
13.190220
 20
-51.350062
 30
0.0
 10
13.190220
 20
-52.678482
 30
0.0
  0
LWPOLYLINE
  5
167
100
AcDbEntity
  8
0
 62
7
100
AcDbPolyline
 90
2
 70
0
 10
33.510220
 20
-22.160382
 30
0.0
 10
30.848300
 20
-22.160382
 30
0.0
  0
LWPOLYLINE
  5
168
100
AcDbEntity
  8
0
 62
7
100
AcDbPolyline
 90
2
 70
0
 10
30.848300
 20
-60.318802
 30
0.0
 10
30.848300
 20
-22.160382
 30
0.0
  0
LWPOLYLINE
  5
169
100
AcDbEntity
  8
0
 62
7
100
AcDbPolyline
 90
2
 70
0
 10
33.510220
 20
-60.318802
 30
0.0
 10
30.848300
 20
-60.318802
 30
0.0
  0
LWPOLYLINE
  5
16a
100
AcDbEntity
  8
0
 62
7
100
AcDbPolyline
 90
3
 70
0
 10
33.510220
 20
-61.588802
 30
0.0
 10
33.510220
 20
-62.919762
 30
0.0
 10
32.179260
 20
-62.919762
 30
0.0
  0
LWPOLYLINE
  5
16b
100
AcDbEntity
  8
0
 62
7
100
AcDbPolyline
 90
2
 70
0
 10
25.618440
 20
-7.438542
 30
0.0
 10
25.618440
 20
-11.040262
 30
0.0
  0
LWPOLYLINE
  5
16c
100
AcDbEntity
  8
0
 62
7
100
AcDbPolyline
 90
2
 70
0
 10
32.979360
 20
-7.438542
 30
0.0
 10
32.979360
 20
-11.040262
 30
0.0
  0
LWPOLYLINE
  5
16d
100
AcDbEntity
  8
0
 62
7
100
AcDbPolyline
 90
2
 70
0
 10
27.498040
 20
-12.919862
 30
0.0
 10
31.099760
 20
-12.919862
 30
0.0
  0
LWPOLYLINE
  5
16e
100
AcDbEntity
  8
0
 62
7
100
AcDbPolyline
 90
2
 70
0
 10
27.498040
 20
-5.558942
 30
0.0
 10
31.099760
 20
-5.558942
 30
0.0
  0
LWPOLYLINE
  5
16f
100
AcDbEntity
  8
0
 62
7
100
AcDbPolyline
 90
2
 70
0
 10
27.818080
 20
-43.559882
 30
0.0
 10
27.129740
 20
-43.559882
 30
0.0
  0
LWPOLYLINE
  5
170
100
AcDbEntity
  8
0
 62
7
100
AcDbPolyline
 90
2
 70
0
 10
17.198340
 20
-43.559882
 30
0.0
 10
17.889220
 20
-43.559882
 30
0.0
  0
LWPOLYLINE
  5
171
100
AcDbEntity
  8
0
 62
7
100
AcDbPolyline
 90
2
 70
0
 10
27.129740
 20
-41.840302
 30
0.0
 10
17.889220
 20
-41.840302
 30
0.0
  0
LWPOLYLINE
  5
172
100
AcDbEntity
  8
0
 62
7
100
AcDbPolyline
 90
2
 70
0
 10
27.129740
 20
-45.279462
 30
0.0
 10
27.129740
 20
-41.840302
 30
0.0
  0
LWPOLYLINE
  5
173
100
AcDbEntity
  8
0
 62
7
100
AcDbPolyline
 90
2
 70
0
 10
17.889220
 20
-45.279462
 30
0.0
 10
27.129740
 20
-45.279462
 30
0.0
  0
LWPOLYLINE
  5
174
100
AcDbEntity
  8
0
 62
7
100
AcDbPolyline
 90
2
 70
0
 10
17.889220
 20
-41.840302
 30
0.0
 10
17.889220
 20
-45.279462
 30
0.0
  0
LWPOLYLINE
  5
175
100
AcDbEntity
  8
0
 62
7
100
AcDbPolyline
 90
2
 70
0
 10
27.818080
 20
-47.489262
 30
0.0
 10
27.129740
 20
-47.489262
 30
0.0
  0
LWPOLYLINE
  5
176
100
AcDbEntity
  8
0
 62
7
100
AcDbPolyline
 90
2
 70
0
 10
17.198340
 20
-47.489262
 30
0.0
 10
17.889220
 20
-47.489262
 30
0.0
  0
LWPOLYLINE
  5
177
100
AcDbEntity
  8
0
 62
7
100
AcDbPolyline
 90
2
 70
0
 10
27.129740
 20
-45.769682
 30
0.0
 10
17.889220
 20
-45.769682
 30
0.0
  0
LWPOLYLINE
  5
178
100
AcDbEntity
  8
0
 62
7
100
AcDbPolyline
 90
2
 70
0
 10
27.129740
 20
-49.208842
 30
0.0
 10
27.129740
 20
-45.769682
 30
0.0
  0
LWPOLYLINE
  5
179
100
AcDbEntity
  8
0
 62
7
100
AcDbPolyline
 90
2
 70
0
 10
17.889220
 20
-49.208842
 30
0.0
 10
27.129740
 20
-49.208842
 30
0.0
  0
LWPOLYLINE
  5
17a
100
AcDbEntity
  8
0
 62
7
100
AcDbPolyline
 90
2
 70
0
 10
17.889220
 20
-45.769682
 30
0.0
 10
17.889220
 20
-49.208842
 30
0.0
  0
LWPOLYLINE
  5
17b
100
AcDbEntity
  8
0
 62
7
100
AcDbPolyline
 90
3
 70
0
 10
7.668260
 20
-22.289922
 30
0.0
 10
6.339840
 20
-22.289922
 30
0.0
 10
6.339840
 20
-20.958962
 30
0.0
  0
LWPOLYLINE
  5
17c
100
AcDbEntity
  8
0
 62
7
100
AcDbPolyline
 90
2
 70
0
 10
6.339840
 20
-19.688962
 30
0.0
 10
6.339840
 20
-14.550542
 30
0.0
  0
LWPOLYLINE
  5
17d
100
AcDbEntity
  8
0
 62
7
100
AcDbPolyline
 90
2
 70
0
 10
8.999220
 20
-14.550542
 30
0.0
 10
6.339840
 20
-14.550542
 30
0.0
  0
LWPOLYLINE
  5
17e
100
AcDbEntity
  8
0
 62
7
100
AcDbPolyline
 90
2
 70
0
 10
8.999220
 20
-19.688962
 30
0.0
 10
8.999220
 20
-14.550542
 30
0.0
  0
LWPOLYLINE
  5
17f
100
AcDbEntity
  8
0
 62
7
100
AcDbPolyline
 90
2
 70
0
 10
8.999220
 20
-19.688962
 30
0.0
 10
6.339840
 20
-19.688962
 30
0.0
  0
LWPOLYLINE
  5
180
100
AcDbEntity
  8
0
 62
7
100
AcDbPolyline
 90
3
 70
0
 10
7.719060
 20
-41.639642
 30
0.0
 10
9.050020
 20
-41.639642
 30
0.0
 10
9.050020
 20
-42.970602
 30
0.0
  0
LWPOLYLINE
  5
181
100
AcDbEntity
  8
0
 62
7
100
AcDbPolyline
 90
2
 70
0
 10
9.050020
 20
-44.240602
 30
0.0
 10
9.050020
 20
-49.379022
 30
0.0
  0
LWPOLYLINE
  5
182
100
AcDbEntity
  8
0
 62
7
100
AcDbPolyline
 90
2
 70
0
 10
6.388100
 20
-49.379022
 30
0.0
 10
9.050020
 20
-49.379022
 30
0.0
  0
LWPOLYLINE
  5
183
100
AcDbEntity
  8
0
 62
7
100
AcDbPolyline
 90
2
 70
0
 10
6.388100
 20
-44.240602
 30
0.0
 10
6.388100
 20
-49.379022
 30
0.0
  0
LWPOLYLINE
  5
184
100
AcDbEntity
  8
0
 62
7
100
AcDbPolyline
 90
2
 70
0
 10
6.388100
 20
-44.240602
 30
0.0
 10
9.050020
 20
-44.240602
 30
0.0
  0
LWPOLYLINE
  5
185
100
AcDbEntity
  8
0
 62
7
100
AcDbPolyline
 90
6
 70
0
 10
9.161780
 20
-28.502762
 30
0.0
 10
9.875520
 20
-28.502762
 30
0.0
 10
10.017760
 20
-28.551022
 30
0.0
 10
10.114280
 20
-28.645002
 30
0.0
 10
10.162540
 20
-28.787242
 30
0.0
 10
10.162540
 20
-28.883762
 30
0.0
  0
LWPOLYLINE
  5
186
100
AcDbEntity
  8
0
 62
7
100
AcDbPolyline
 90
11
 70
0
 10
9.255760
 20
-28.073502
 30
0.0
 10
9.210040
 20
-28.027782
 30
0.0
 10
9.161780
 20
-27.931262
 30
0.0
 10
9.161780
 20
-27.692502
 30
0.0
 10
9.210040
 20
-27.598522
 30
0.0
 10
9.255760
 20
-27.550262
 30
0.0
 10
9.352280
 20
-27.502002
 30
0.0
 10
9.446260
 20
-27.502002
 30
0.0
 10
9.591040
 20
-27.550262
 30
0.0
 10
10.162540
 20
-28.121762
 30
0.0
 10
10.162540
 20
-27.502002
 30
0.0
  0
LWPOLYLINE
  5
187
100
AcDbEntity
  8
0
 62
7
100
AcDbPolyline
 90
2
 70
0
 10
14.820900
 20
-51.456742
 30
0.0
 10
14.345920
 20
-51.789482
 30
0.0
  0
LWPOLYLINE
  5
188
100
AcDbEntity
  8
0
 62
7
100
AcDbPolyline
 90
11
 70
0
 10
14.820900
 20
-52.028242
 30
0.0
 10
13.820140
 20
-52.028242
 30
0.0
 10
13.820140
 20
-51.647242
 30
0.0
 10
13.868400
 20
-51.550722
 30
0.0
 10
13.916660
 20
-51.502462
 30
0.0
 10
14.010640
 20
-51.456742
 30
0.0
 10
14.155420
 20
-51.456742
 30
0.0
 10
14.249400
 20
-51.502462
 30
0.0
 10
14.297660
 20
-51.550722
 30
0.0
 10
14.345920
 20
-51.647242
 30
0.0
 10
14.345920
 20
-52.028242
 30
0.0
  0
LWPOLYLINE
  5
189
100
AcDbEntity
  8
0
 62
7
100
AcDbPolyline
 90
14
 70
0
 10
13.820140
 20
-51.124002
 30
0.0
 10
13.820140
 20
-50.504242
 30
0.0
 10
14.201140
 20
-50.836982
 30
0.0
 10
14.201140
 20
-50.694742
 30
0.0
 10
14.249400
 20
-50.598222
 30
0.0
 10
14.297660
 20
-50.552502
 30
0.0
 10
14.391640
 20
-50.504242
 30
0.0
 10
14.630400
 20
-50.504242
 30
0.0
 10
14.726920
 20
-50.552502
 30
0.0
 10
14.772640
 20
-50.598222
 30
0.0
 10
14.820900
 20
-50.694742
 30
0.0
 10
14.820900
 20
-50.979222
 30
0.0
 10
14.772640
 20
-51.075742
 30
0.0
 10
14.726920
 20
-51.124002
 30
0.0
  0
LWPOLYLINE
  5
18a
100
AcDbEntity
  8
0
 62
7
100
AcDbPolyline
 90
6
 70
0
 10
7.536180
 20
-63.041682
 30
0.0
 10
7.536180
 20
-63.755422
 30
0.0
 10
7.487920
 20
-63.900202
 30
0.0
 10
7.393940
 20
-63.994182
 30
0.0
 10
7.249160
 20
-64.042442
 30
0.0
 10
7.155180
 20
-64.042442
 30
0.0
  0
LWPOLYLINE
  5
18b
100
AcDbEntity
  8
0
 62
7
100
AcDbPolyline
 90
11
 70
0
 10
8.011160
 20
-64.042442
 30
0.0
 10
8.011160
 20
-63.041682
 30
0.0
 10
8.392160
 20
-63.041682
 30
0.0
 10
8.488680
 20
-63.089942
 30
0.0
 10
8.534400
 20
-63.138202
 30
0.0
 10
8.582660
 20
-63.232182
 30
0.0
 10
8.582660
 20
-63.374422
 30
0.0
 10
8.534400
 20
-63.470942
 30
0.0
 10
8.488680
 20
-63.519202
 30
0.0
 10
8.392160
 20
-63.564922
 30
0.0
 10
8.011160
 20
-63.564922
 30
0.0
  0
LWPOLYLINE
  5
18c
100
AcDbEntity
  8
0
 62
7
100
AcDbPolyline
 90
2
 70
0
 10
9.535160
 20
-64.042442
 30
0.0
 10
8.963660
 20
-64.042442
 30
0.0
  0
LWPOLYLINE
  5
18d
100
AcDbEntity
  8
0
 62
7
100
AcDbPolyline
 90
5
 70
0
 10
9.250680
 20
-64.042442
 30
0.0
 10
9.250680
 20
-63.041682
 30
0.0
 10
9.154160
 20
-63.183922
 30
0.0
 10
9.060180
 20
-63.280442
 30
0.0
 10
8.963660
 20
-63.328702
 30
0.0
  0
LWPOLYLINE
  5
18e
100
AcDbEntity
  8
0
 62
7
100
AcDbPolyline
 90
10
 70
0
 10
21.076920
 20
-19.841362
 30
0.0
 10
21.076920
 20
-20.651622
 30
0.0
 10
21.125180
 20
-20.745602
 30
0.0
 10
21.173440
 20
-20.793862
 30
0.0
 10
21.267420
 20
-20.842122
 30
0.0
 10
21.457920
 20
-20.842122
 30
0.0
 10
21.554440
 20
-20.793862
 30
0.0
 10
21.600160
 20
-20.745602
 30
0.0
 10
21.648420
 20
-20.651622
 30
0.0
 10
21.648420
 20
-19.841362
 30
0.0
  0
LWPOLYLINE
  5
18f
100
AcDbEntity
  8
0
 62
7
100
AcDbPolyline
 90
2
 70
0
 10
22.649180
 20
-20.842122
 30
0.0
 10
22.077680
 20
-20.842122
 30
0.0
  0
LWPOLYLINE
  5
190
100
AcDbEntity
  8
0
 62
7
100
AcDbPolyline
 90
5
 70
0
 10
22.362160
 20
-20.842122
 30
0.0
 10
22.362160
 20
-19.841362
 30
0.0
 10
22.268180
 20
-19.983602
 30
0.0
 10
22.171660
 20
-20.080122
 30
0.0
 10
22.077680
 20
-20.128382
 30
0.0
  0
LWPOLYLINE
  5
191
100
AcDbEntity
  8
0
 62
7
100
AcDbPolyline
 90
6
 70
0
 10
19.669760
 20
-60.631222
 30
0.0
 10
19.669760
 20
-61.344962
 30
0.0
 10
19.621500
 20
-61.489742
 30
0.0
 10
19.527520
 20
-61.583722
 30
0.0
 10
19.382740
 20
-61.631982
 30
0.0
 10
19.288760
 20
-61.631982
 30
0.0
  0
LWPOLYLINE
  5
192
100
AcDbEntity
  8
0
 62
7
100
AcDbPolyline
 90
11
 70
0
 10
20.099020
 20
-60.727742
 30
0.0
 10
20.144740
 20
-60.679482
 30
0.0
 10
20.241260
 20
-60.631222
 30
0.0
 10
20.480020
 20
-60.631222
 30
0.0
 10
20.574000
 20
-60.679482
 30
0.0
 10
20.622260
 20
-60.727742
 30
0.0
 10
20.670520
 20
-60.821722
 30
0.0
 10
20.670520
 20
-60.918242
 30
0.0
 10
20.622260
 20
-61.060482
 30
0.0
 10
20.050760
 20
-61.631982
 30
0.0
 10
20.670520
 20
-61.631982
 30
0.0
  0
LWPOLYLINE
  5
193
100
AcDbEntity
  8
0
 62
7
100
AcDbPolyline
 90
20
 70
1
 10
21.287740
 20
-60.631222
 30
0.0
 10
21.384260
 20
-60.631222
 30
0.0
 10
21.478240
 20
-60.679482
 30
0.0
 10
21.526500
 20
-60.727742
 30
0.0
 10
21.574760
 20
-60.821722
 30
0.0
 10
21.623020
 20
-61.012222
 30
0.0
 10
21.623020
 20
-61.250982
 30
0.0
 10
21.574760
 20
-61.441482
 30
0.0
 10
21.526500
 20
-61.535462
 30
0.0
 10
21.478240
 20
-61.583722
 30
0.0
 10
21.384260
 20
-61.631982
 30
0.0
 10
21.287740
 20
-61.631982
 30
0.0
 10
21.193760
 20
-61.583722
 30
0.0
 10
21.145500
 20
-61.535462
 30
0.0
 10
21.097240
 20
-61.441482
 30
0.0
 10
21.051520
 20
-61.250982
 30
0.0
 10
21.051520
 20
-61.012222
 30
0.0
 10
21.097240
 20
-60.821722
 30
0.0
 10
21.145500
 20
-60.727742
 30
0.0
 10
21.193760
 20
-60.679482
 30
0.0
  0
LWPOLYLINE
  5
194
100
AcDbEntity
  8
0
 62
7
100
AcDbPolyline
 90
10
 70
0
 10
31.302960
 20
-63.587782
 30
0.0
 10
31.302960
 20
-64.398042
 30
0.0
 10
31.351220
 20
-64.492022
 30
0.0
 10
31.399480
 20
-64.540282
 30
0.0
 10
31.493460
 20
-64.588542
 30
0.0
 10
31.683960
 20
-64.588542
 30
0.0
 10
31.780480
 20
-64.540282
 30
0.0
 10
31.828740
 20
-64.492022
 30
0.0
 10
31.874460
 20
-64.398042
 30
0.0
 10
31.874460
 20
-63.587782
 30
0.0
  0
LWPOLYLINE
  5
195
100
AcDbEntity
  8
0
 62
7
100
AcDbPolyline
 90
11
 70
0
 10
32.303720
 20
-63.681762
 30
0.0
 10
32.351980
 20
-63.636042
 30
0.0
 10
32.445960
 20
-63.587782
 30
0.0
 10
32.684720
 20
-63.587782
 30
0.0
 10
32.781240
 20
-63.636042
 30
0.0
 10
32.826960
 20
-63.681762
 30
0.0
 10
32.875220
 20
-63.778282
 30
0.0
 10
32.875220
 20
-63.872262
 30
0.0
 10
32.826960
 20
-64.017042
 30
0.0
 10
32.255460
 20
-64.588542
 30
0.0
 10
32.875220
 20
-64.588542
 30
0.0
  0
LWPOLYLINE
  5
196
100
AcDbEntity
  8
0
 62
7
100
AcDbPolyline
 90
2
 70
0
 10
26.162000
 20
-66.986302
 30
0.0
 10
26.543000
 20
-66.986302
 30
0.0
  0
LWPOLYLINE
  5
197
100
AcDbEntity
  8
0
 62
7
100
AcDbPolyline
 90
5
 70
0
 10
26.304240
 20
-67.651782
 30
0.0
 10
26.304240
 20
-66.795802
 30
0.0
 10
26.352500
 20
-66.699282
 30
0.0
 10
26.446480
 20
-66.651022
 30
0.0
 10
26.543000
 20
-66.651022
 30
0.0
  0
LWPOLYLINE
  5
198
100
AcDbEntity
  8
0
 62
7
100
AcDbPolyline
 90
13
 70
0
 10
27.256740
 20
-67.603522
 30
0.0
 10
27.160220
 20
-67.651782
 30
0.0
 10
26.969720
 20
-67.651782
 30
0.0
 10
26.875740
 20
-67.603522
 30
0.0
 10
26.827480
 20
-67.509542
 30
0.0
 10
26.827480
 20
-67.128542
 30
0.0
 10
26.875740
 20
-67.032022
 30
0.0
 10
26.969720
 20
-66.986302
 30
0.0
 10
27.160220
 20
-66.986302
 30
0.0
 10
27.256740
 20
-67.032022
 30
0.0
 10
27.305000
 20
-67.128542
 30
0.0
 10
27.305000
 20
-67.222522
 30
0.0
 10
26.827480
 20
-67.319042
 30
0.0
  0
LWPOLYLINE
  5
199
100
AcDbEntity
  8
0
 62
7
100
AcDbPolyline
 90
6
 70
0
 10
28.160980
 20
-67.651782
 30
0.0
 10
28.160980
 20
-67.128542
 30
0.0
 10
28.112720
 20
-67.032022
 30
0.0
 10
28.018740
 20
-66.986302
 30
0.0
 10
27.828240
 20
-66.986302
 30
0.0
 10
27.731720
 20
-67.032022
 30
0.0
  0
LWPOLYLINE
  5
19a
100
AcDbEntity
  8
0
 62
7
100
AcDbPolyline
 90
10
 70
0
 10
28.160980
 20
-67.603522
 30
0.0
 10
28.067000
 20
-67.651782
 30
0.0
 10
27.828240
 20
-67.651782
 30
0.0
 10
27.731720
 20
-67.603522
 30
0.0
 10
27.686000
 20
-67.509542
 30
0.0
 10
27.686000
 20
-67.413022
 30
0.0
 10
27.731720
 20
-67.319042
 30
0.0
 10
27.828240
 20
-67.270782
 30
0.0
 10
28.067000
 20
-67.270782
 30
0.0
 10
28.160980
 20
-67.222522
 30
0.0
  0
LWPOLYLINE
  5
19b
100
AcDbEntity
  8
0
 62
7
100
AcDbPolyline
 90
2
 70
0
 10
28.493720
 20
-66.986302
 30
0.0
 10
28.874720
 20
-66.986302
 30
0.0
  0
LWPOLYLINE
  5
19c
100
AcDbEntity
  8
0
 62
7
100
AcDbPolyline
 90
5
 70
0
 10
28.638500
 20
-66.651022
 30
0.0
 10
28.638500
 20
-67.509542
 30
0.0
 10
28.684220
 20
-67.603522
 30
0.0
 10
28.780740
 20
-67.651782
 30
0.0
 10
28.874720
 20
-67.651782
 30
0.0
  0
LWPOLYLINE
  5
19d
100
AcDbEntity
  8
0
 62
7
100
AcDbPolyline
 90
2
 70
0
 10
29.210000
 20
-67.651782
 30
0.0
 10
29.210000
 20
-66.651022
 30
0.0
  0
LWPOLYLINE
  5
19e
100
AcDbEntity
  8
0
 62
7
100
AcDbPolyline
 90
7
 70
0
 10
29.636720
 20
-67.651782
 30
0.0
 10
29.636720
 20
-67.128542
 30
0.0
 10
29.591000
 20
-67.032022
 30
0.0
 10
29.494480
 20
-66.986302
 30
0.0
 10
29.352240
 20
-66.986302
 30
0.0
 10
29.255720
 20
-67.032022
 30
0.0
 10
29.210000
 20
-67.080282
 30
0.0
  0
LWPOLYLINE
  5
19f
100
AcDbEntity
  8
0
 62
7
100
AcDbPolyline
 90
13
 70
0
 10
30.495240
 20
-67.603522
 30
0.0
 10
30.398720
 20
-67.651782
 30
0.0
 10
30.208220
 20
-67.651782
 30
0.0
 10
30.114240
 20
-67.603522
 30
0.0
 10
30.065980
 20
-67.509542
 30
0.0
 10
30.065980
 20
-67.128542
 30
0.0
 10
30.114240
 20
-67.032022
 30
0.0
 10
30.208220
 20
-66.986302
 30
0.0
 10
30.398720
 20
-66.986302
 30
0.0
 10
30.495240
 20
-67.032022
 30
0.0
 10
30.543500
 20
-67.128542
 30
0.0
 10
30.543500
 20
-67.222522
 30
0.0
 10
30.065980
 20
-67.319042
 30
0.0
  0
LWPOLYLINE
  5
1a0
100
AcDbEntity
  8
0
 62
7
100
AcDbPolyline
 90
2
 70
0
 10
30.970220
 20
-67.651782
 30
0.0
 10
30.970220
 20
-66.986302
 30
0.0
  0
LWPOLYLINE
  5
1a1
100
AcDbEntity
  8
0
 62
7
100
AcDbPolyline
 90
5
 70
0
 10
30.970220
 20
-67.176802
 30
0.0
 10
31.018480
 20
-67.080282
 30
0.0
 10
31.066740
 20
-67.032022
 30
0.0
 10
31.160720
 20
-66.986302
 30
0.0
 10
31.257240
 20
-66.986302
 30
0.0
  0
LWPOLYLINE
  5
1a2
100
AcDbEntity
  8
0
 62
7
100
AcDbPolyline
 90
6
 70
0
 10
24.170640
 20
-9.602622
 30
0.0
 10
24.886920
 20
-9.602622
 30
0.0
 10
25.029160
 20
-9.650882
 30
0.0
 10
25.123140
 20
-9.747402
 30
0.0
 10
25.171400
 20
-9.889642
 30
0.0
 10
25.171400
 20
-9.983622
 30
0.0
  0
LWPOLYLINE
  5
1a3
100
AcDbEntity
  8
0
 62
7
100
AcDbPolyline
 90
2
 70
0
 10
25.171400
 20
-8.604402
 30
0.0
 10
25.171400
 20
-9.175902
 30
0.0
  0
LWPOLYLINE
  5
1a4
100
AcDbEntity
  8
0
 62
7
100
AcDbPolyline
 90
5
 70
0
 10
25.171400
 20
-8.888882
 30
0.0
 10
24.170640
 20
-8.888882
 30
0.0
 10
24.315420
 20
-8.985402
 30
0.0
 10
24.409400
 20
-9.079382
 30
0.0
 10
24.457660
 20
-9.175902
 30
0.0
  0
LWPOLYLINE
  5
1a5
100
AcDbEntity
  8
0
 62
7
100
AcDbPolyline
 90
2
 70
0
 10
13.825220
 20
-43.600522
 30
0.0
 10
14.300200
 20
-43.267782
 30
0.0
  0
LWPOLYLINE
  5
1a6
100
AcDbEntity
  8
0
 62
7
100
AcDbPolyline
 90
11
 70
0
 10
13.825220
 20
-43.029022
 30
0.0
 10
14.823440
 20
-43.029022
 30
0.0
 10
14.823440
 20
-43.410022
 30
0.0
 10
14.777720
 20
-43.506542
 30
0.0
 10
14.729460
 20
-43.552262
 30
0.0
 10
14.632940
 20
-43.600522
 30
0.0
 10
14.490700
 20
-43.600522
 30
0.0
 10
14.396720
 20
-43.552262
 30
0.0
 10
14.348460
 20
-43.506542
 30
0.0
 10
14.300200
 20
-43.410022
 30
0.0
 10
14.300200
 20
-43.029022
 30
0.0
  0
LWPOLYLINE
  5
1a7
100
AcDbEntity
  8
0
 62
7
100
AcDbPolyline
 90
2
 70
0
 10
13.825220
 20
-44.553022
 30
0.0
 10
13.825220
 20
-43.981522
 30
0.0
  0
LWPOLYLINE
  5
1a8
100
AcDbEntity
  8
0
 62
7
100
AcDbPolyline
 90
5
 70
0
 10
13.825220
 20
-44.268542
 30
0.0
 10
14.823440
 20
-44.268542
 30
0.0
 10
14.681200
 20
-44.172022
 30
0.0
 10
14.587220
 20
-44.078042
 30
0.0
 10
14.538960
 20
-43.981522
 30
0.0
  0
LWPOLYLINE
  5
1a9
100
AcDbEntity
  8
0
 62
7
100
AcDbPolyline
 90
2
 70
0
 10
13.825220
 20
-47.283522
 30
0.0
 10
14.300200
 20
-46.950782
 30
0.0
  0
LWPOLYLINE
  5
1aa
100
AcDbEntity
  8
0
 62
7
100
AcDbPolyline
 90
11
 70
0
 10
13.825220
 20
-46.712022
 30
0.0
 10
14.823440
 20
-46.712022
 30
0.0
 10
14.823440
 20
-47.093022
 30
0.0
 10
14.777720
 20
-47.187002
 30
0.0
 10
14.729460
 20
-47.235262
 30
0.0
 10
14.632940
 20
-47.283522
 30
0.0
 10
14.490700
 20
-47.283522
 30
0.0
 10
14.396720
 20
-47.235262
 30
0.0
 10
14.348460
 20
-47.187002
 30
0.0
 10
14.300200
 20
-47.093022
 30
0.0
 10
14.300200
 20
-46.712022
 30
0.0
  0
LWPOLYLINE
  5
1ab
100
AcDbEntity
  8
0
 62
7
100
AcDbPolyline
 90
11
 70
0
 10
14.729460
 20
-47.664522
 30
0.0
 10
14.777720
 20
-47.712782
 30
0.0
 10
14.823440
 20
-47.806762
 30
0.0
 10
14.823440
 20
-48.045522
 30
0.0
 10
14.777720
 20
-48.139502
 30
0.0
 10
14.729460
 20
-48.187762
 30
0.0
 10
14.632940
 20
-48.236022
 30
0.0
 10
14.538960
 20
-48.236022
 30
0.0
 10
14.396720
 20
-48.187762
 30
0.0
 10
13.825220
 20
-47.616262
 30
0.0
 10
13.825220
 20
-48.236022
 30
0.0
  0
LWPOLYLINE
  5
1ac
100
AcDbEntity
  8
0
 62
7
100
AcDbPolyline
 90
6
 70
0
 10
7.020560
 20
-12.902082
 30
0.0
 10
7.020560
 20
-13.615822
 30
0.0
 10
6.972300
 20
-13.758062
 30
0.0
 10
6.875780
 20
-13.854582
 30
0.0
 10
6.733540
 20
-13.902842
 30
0.0
 10
6.639560
 20
-13.902842
 30
0.0
  0
LWPOLYLINE
  5
1ad
100
AcDbEntity
  8
0
 62
7
100
AcDbPolyline
 90
2
 70
0
 10
8.018780
 20
-13.902842
 30
0.0
 10
7.447280
 20
-13.902842
 30
0.0
  0
LWPOLYLINE
  5
1ae
100
AcDbEntity
  8
0
 62
7
100
AcDbPolyline
 90
5
 70
0
 10
7.734300
 20
-13.902842
 30
0.0
 10
7.734300
 20
-12.902082
 30
0.0
 10
7.637780
 20
-13.044322
 30
0.0
 10
7.543800
 20
-13.140842
 30
0.0
 10
7.447280
 20
-13.186562
 30
0.0
  0
LWPOLYLINE
  5
1af
100
AcDbEntity
  8
0
 62
7
100
AcDbPolyline
 90
22
 70
0
 10
8.496300
 20
-13.902842
 30
0.0
 10
8.686800
 20
-13.902842
 30
0.0
 10
8.780780
 20
-13.854582
 30
0.0
 10
8.829040
 20
-13.806322
 30
0.0
 10
8.923020
 20
-13.664082
 30
0.0
 10
8.971280
 20
-13.473582
 30
0.0
 10
8.971280
 20
-13.092582
 30
0.0
 10
8.923020
 20
-12.996062
 30
0.0
 10
8.877300
 20
-12.950342
 30
0.0
 10
8.780780
 20
-12.902082
 30
0.0
 10
8.590280
 20
-12.902082
 30
0.0
 10
8.496300
 20
-12.950342
 30
0.0
 10
8.448040
 20
-12.996062
 30
0.0
 10
8.399780
 20
-13.092582
 30
0.0
 10
8.399780
 20
-13.331342
 30
0.0
 10
8.448040
 20
-13.425322
 30
0.0
 10
8.496300
 20
-13.473582
 30
0.0
 10
8.590280
 20
-13.521842
 30
0.0
 10
8.780780
 20
-13.521842
 30
0.0
 10
8.877300
 20
-13.473582
 30
0.0
 10
8.923020
 20
-13.425322
 30
0.0
 10
8.971280
 20
-13.331342
 30
0.0
  0
LWPOLYLINE
  5
1b0
100
AcDbEntity
  8
0
 62
7
100
AcDbPolyline
 90
6
 70
0
 10
9.220200
 20
-42.752162
 30
0.0
 10
9.936480
 20
-42.752162
 30
0.0
 10
10.078720
 20
-42.800422
 30
0.0
 10
10.172700
 20
-42.894402
 30
0.0
 10
10.220960
 20
-43.039182
 30
0.0
 10
10.220960
 20
-43.133162
 30
0.0
  0
LWPOLYLINE
  5
1b1
100
AcDbEntity
  8
0
 62
7
100
AcDbPolyline
 90
16
 70
0
 10
9.220200
 20
-41.799662
 30
0.0
 10
9.220200
 20
-42.277182
 30
0.0
 10
9.697720
 20
-42.325442
 30
0.0
 10
9.649460
 20
-42.277182
 30
0.0
 10
9.601200
 20
-42.180662
 30
0.0
 10
9.601200
 20
-41.944442
 30
0.0
 10
9.649460
 20
-41.847922
 30
0.0
 10
9.697720
 20
-41.799662
 30
0.0
 10
9.791700
 20
-41.753942
 30
0.0
 10
10.030460
 20
-41.753942
 30
0.0
 10
10.126980
 20
-41.799662
 30
0.0
 10
10.172700
 20
-41.847922
 30
0.0
 10
10.220960
 20
-41.944442
 30
0.0
 10
10.220960
 20
-42.180662
 30
0.0
 10
10.172700
 20
-42.277182
 30
0.0
 10
10.126980
 20
-42.325442
 30
0.0
  0
LWPOLYLINE
  5
1b2
100
AcDbEntity
  8
0
 62
7
100
AcDbPolyline
 90
2
 70
0
 10
5.730240
 20
-65.221002
 30
0.0
 10
5.727700
 20
-65.797582
 30
0.0
  0
SPLINE
  5
1b3
100
AcDbEntity
  8
0
 62
7
100
AcDbSpline
 70
8
 71
3
 72
8
 73
4
 74
0
 40
0
 40
0
 40
0
 40
0
 40
1
 40
1
 40
1
 40
1
 10
6.580251
 20
-63.167920
 30
0.0
 10
6.036731
 20
-63.713575
 30
0.0
 10
5.731563
 20
-64.452362
 30
0.0
 10
5.731561
 20
-65.222526
 30
0.0
  0
SPLINE
  5
1b4
100
AcDbEntity
  8
0
 62
7
100
AcDbSpline
 70
8
 71
3
 72
8
 73
4
 74
0
 40
0
 40
0
 40
0
 40
0
 40
1
 40
1
 40
1
 40
1
 10
6.580226
 20
-63.167920
 30
0.0
 10
7.123746
 20
-62.622265
 30
0.0
 10
7.428914
 20
-61.883479
 30
0.0
 10
7.428916
 20
-61.113314
 30
0.0
  0
SPLINE
  5
1b5
100
AcDbEntity
  8
0
 62
7
100
AcDbSpline
 70
8
 71
3
 72
8
 73
4
 74
0
 40
0
 40
0
 40
0
 40
0
 40
1
 40
1
 40
1
 40
1
 10
7.428916
 20
-53.295194
 30
0.0
 10
7.428914
 20
-52.525030
 30
0.0
 10
7.123746
 20
-51.786243
 30
0.0
 10
6.580226
 20
-51.240588
 30
0.0
  0
SPLINE
  5
1b6
100
AcDbEntity
  8
0
 62
7
100
AcDbSpline
 70
8
 71
3
 72
8
 73
4
 74
0
 40
0
 40
0
 40
0
 40
0
 40
1
 40
1
 40
1
 40
1
 10
5.731561
 20
-49.185982
 30
0.0
 10
5.731563
 20
-49.956147
 30
0.0
 10
6.036731
 20
-50.694933
 30
0.0
 10
6.580251
 20
-51.240588
 30
0.0
  0
SPLINE
  5
1b7
100
AcDbEntity
  8
0
 62
7
100
AcDbSpline
 70
8
 71
3
 72
8
 73
4
 74
0
 40
0
 40
0
 40
0
 40
0
 40
1
 40
1
 40
1
 40
1
 10
26.290270
 20
-4.830699
 30
0.0
 10
25.518121
 20
-4.830692
 30
0.0
 10
24.777596
 20
-5.137422
 30
0.0
 10
24.231602
 20
-5.683412
 30
0.0
  0
SPLINE
  5
1b8
100
AcDbEntity
  8
0
 62
7
100
AcDbSpline
 70
8
 71
3
 72
8
 73
4
 74
0
 40
0
 40
0
 40
0
 40
0
 40
1
 40
1
 40
1
 40
1
 10
24.231602
 20
-5.683412
 30
0.0
 10
23.685608
 20
-6.229401
 30
0.0
 10
23.378871
 20
-6.969924
 30
0.0
 10
23.378871
 20
-7.742072
 30
0.0
  0
SPLINE
  5
1b9
100
AcDbEntity
  8
0
 62
7
100
AcDbSpline
 70
8
 71
3
 72
8
 73
4
 74
0
 40
0
 40
0
 40
0
 40
0
 40
1
 40
1
 40
1
 40
1
 10
35.190176
 20
-7.742072
 30
0.0
 10
35.190176
 20
-6.134175
 30
0.0
 10
33.886725
 20
-4.830713
 30
0.0
 10
32.278828
 20
-4.830699
 30
0.0
  0
LWPOLYLINE
  5
1ba
100
AcDbEntity
  8
0
 62
7
100
AcDbPolyline
 90
2
 70
0
 10
7.426960
 20
-61.111282
 30
0.0
 10
7.426960
 20
-53.293162
 30
0.0
  0
LWPOLYLINE
  5
1bb
100
AcDbEntity
  8
0
 62
7
100
AcDbPolyline
 90
2
 70
0
 10
26.289000
 20
-4.829962
 30
0.0
 10
32.278320
 20
-4.829962
 30
0.0
  0
LWPOLYLINE
  5
1bc
100
AcDbEntity
  8
0
 62
7
100
AcDbPolyline
 90
2
 70
0
 10
23.378160
 20
-13.313562
 30
0.0
 10
23.378160
 20
-7.740802
 30
0.0
  0
SPLINE
  5
1bd
100
AcDbEntity
  8
0
 62
7
100
AcDbSpline
 70
8
 71
3
 72
8
 73
4
 74
0
 40
0
 40
0
 40
0
 40
0
 40
1
 40
1
 40
1
 40
1
 10
5.730240
 20
-65.799360
 30
0.0
 10
5.730254
 20
-67.407258
 30
0.0
 10
7.033716
 20
-68.710708
 30
0.0
 10
8.641613
 20
-68.710708
 30
0.0
  0
SPLINE
  5
1be
100
AcDbEntity
  8
0
 62
7
100
AcDbSpline
 70
8
 71
3
 72
8
 73
4
 74
0
 40
0
 40
0
 40
0
 40
0
 40
1
 40
1
 40
1
 40
1
 10
32.278828
 20
-68.710708
 30
0.0
 10
33.886715
 20
-68.710694
 30
0.0
 10
35.190162
 20
-67.407248
 30
0.0
 10
35.190176
 20
-65.799360
 30
0.0
  0
LWPOLYLINE
  5
1bf
100
AcDbEntity
  8
0
 62
7
100
AcDbPolyline
 90
2
 70
0
 10
19.751040
 20
-13.313562
 30
0.0
 10
23.378160
 20
-13.313562
 30
0.0
  0
LWPOLYLINE
  5
1c0
100
AcDbEntity
  8
0
 62
7
100
AcDbPolyline
 90
2
 70
0
 10
8.641080
 20
-68.708422
 30
0.0
 10
32.278320
 20
-68.708422
 30
0.0
  0
LWPOLYLINE
  5
1c1
100
AcDbEntity
  8
0
 62
7
100
AcDbPolyline
 90
2
 70
0
 10
5.727700
 20
-13.313562
 30
0.0
 10
5.730240
 20
-49.185982
 30
0.0
  0
LWPOLYLINE
  5
1c2
100
AcDbEntity
  8
0
 62
7
100
AcDbPolyline
 90
2
 70
0
 10
35.189160
 20
-7.740802
 30
0.0
 10
35.189160
 20
-65.797582
 30
0.0
  0
SPLINE
  5
1c3
100
AcDbEntity
  8
0
 62
7
100
AcDbSpline
 70
8
 71
3
 72
8
 73
4
 74
0
 40
0
 40
0
 40
0
 40
0
 40
1
 40
1
 40
1
 40
1
 10
19.750710
 20
-2.231669
 30
0.0
 10
19.750706
 20
-0.623765
 30
0.0
 10
18.447241
 20
0.679697
 30
0.0
 10
16.839336
 20
0.679697
 30
0.0
  0
SPLINE
  5
1c4
100
AcDbEntity
  8
0
 62
7
100
AcDbSpline
 70
8
 71
3
 72
8
 73
4
 74
0
 40
0
 40
0
 40
0
 40
0
 40
1
 40
1
 40
1
 40
1
 10
8.640750
 20
0.679697
 30
0.0
 10
7.032846
 20
0.679697
 30
0.0
 10
5.729380
 20
-0.623765
 30
0.0
 10
5.729376
 20
-2.231669
 30
0.0
  0
LWPOLYLINE
  5
1c5
100
AcDbEntity
  8
0
 62
7
100
AcDbPolyline
 90
2
 70
0
 10
19.751040
 20
-13.313562
 30
0.0
 10
19.748500
 20
-2.231542
 30
0.0
  0
LWPOLYLINE
  5
1c6
100
AcDbEntity
  8
0
 62
7
100
AcDbPolyline
 90
2
 70
0
 10
5.727700
 20
-2.231542
 30
0.0
 10
5.727700
 20
-13.313562
 30
0.0
  0
LWPOLYLINE
  5
1c7
100
AcDbEntity
  8
0
 62
7
100
AcDbPolyline
 90
2
 70
0
 10
8.638540
 20
0.681838
 30
0.0
 10
16.837660
 20
0.681838
 30
0.0
  0
ENDSEC
  0
SECTION
  2
OBJECTS
  0
DICTIONARY
  5
C
330
0
100
AcDbDictionary
  3
ACAD_GROUP
350
D
  3
ACAD_MLINESTYLE
350
17
  0
DICTIONARY
  5
D
330
C
100
AcDbDictionary
  0
DICTIONARY
  5
1A
330
C
100
AcDbDictionary
  0
DICTIONARY
  5
17
330
C
100
AcDbDictionary
  3
STANDARD
350
18
  0
DICTIONARY
  5
19
330
C
100
AcDbDictionary
  0
ENDSEC
  0
EOF
