<?xml version="1.0" standalone="no"?>
 <!DOCTYPE svg PUBLIC "-//W3C//DTD SVG 1.1//EN" 
 "http://www.w3.org/Graphics/SVG/1.1/DTD/svg11.dtd"> 
<svg
  xmlns:svg="http://www.w3.org/2000/svg"
  xmlns="http://www.w3.org/2000/svg"
  xmlns:xlink="http://www.w3.org/1999/xlink"
  version="1.1"
  width="6.235700cm" height="12.082780cm" viewBox="0 0 24550 47570">
<title>SVG Picture created as remote-brd.svg date 2022/01/07 16:24:08 </title>
  <desc>Picture generated by PCBNEW </desc>
<g style="fill:#000000; fill-opacity:1;stroke:#000000; stroke-opacity:1;
stroke-linecap:round; stroke-linejoin:round;"
 transform="translate(0 0) scale(1 1)">
</g>
<g style="fill:#000000; fill-opacity:0.0; 
stroke:#000000; stroke-width:-0.000393701; stroke-opacity:1; 
stroke-linecap:round; stroke-linejoin:round;">
</g>
<g style="fill:#000000; fill-opacity:0.0; 
stroke:#000000; stroke-width:47.2441; stroke-opacity:1; 
stroke-linecap:round; stroke-linejoin:round;">
<circle cx="20799.8" cy="43836.7" r="1062.99" /> 
<circle cx="2710.44" cy="43836.7" r="1062.99" /> 
</g>
<g style="fill:#000000; fill-opacity:0.0; 
stroke:#000000; stroke-width:78.7402; stroke-opacity:1; 
stroke-linecap:round; stroke-linejoin:round;">
<text x="9662.43" y="26120.2"
textLength="8277" font-size="944.882" lengthAdjust="spacingAndGlyphs"
text-anchor="middle" opacity="0">SHARP DISPLAY</text>
<path d="M5697 26052
L5798 26086
L5967 26086
L6034 26052
L6068 26018
L6102 25951
L6102 25884
L6068 25816
L6034 25782
L5967 25749
L5832 25715
L5764 25681
L5731 25647
L5697 25580
L5697 25512
L5731 25445
L5764 25411
L5832 25377
L6001 25377
L6102 25411
" />
<path d="M6405 26086
L6405 25377
" />
<path d="M6405 25715
L6810 25715
" />
<path d="M6810 26086
L6810 25377
" />
<path d="M7114 25884
L7452 25884
" />
<path d="M7047 26086
L7283 25377
L7519 26086
" />
<path d="M8160 26086
L7924 25749
" />
<path d="M7755 26086
L7755 25377
L8025 25377
L8093 25411
L8126 25445
L8160 25512
L8160 25614
L8126 25681
L8093 25715
L8025 25749
L7755 25749
" />
<path d="M8464 26086
L8464 25377
L8734 25377
L8801 25411
L8835 25445
L8869 25512
L8869 25614
L8835 25681
L8801 25715
L8734 25749
L8464 25749
" />
<path d="M9713 26086
L9713 25377
L9881 25377
L9983 25411
L10050 25479
L10084 25546
L10117 25681
L10117 25782
L10084 25917
L10050 25985
L9983 26052
L9881 26086
L9713 26086
" />
<path d="M10421 26086
L10421 25377
" />
<path d="M10725 26052
L10826 26086
L10995 26086
L11062 26052
L11096 26018
L11130 25951
L11130 25884
L11096 25816
L11062 25782
L10995 25749
L10860 25715
L10792 25681
L10759 25647
L10725 25580
L10725 25512
L10759 25445
L10792 25411
L10860 25377
L11029 25377
L11130 25411
" />
<path d="M11434 26086
L11434 25377
L11704 25377
L11771 25411
L11805 25445
L11839 25512
L11839 25614
L11805 25681
L11771 25715
L11704 25749
L11434 25749
" />
<path d="M12480 26086
L12142 26086
L12142 25377
" />
<path d="M12682 25884
L13020 25884
" />
<path d="M12615 26086
L12851 25377
L13087 26086
" />
<path d="M13458 25749
L13458 26086
" />
<path d="M13222 25377
L13458 25749
L13695 25377
" />
</g>
<g style="fill:#000000; fill-opacity:0.0; 
stroke:#000000; stroke-width:47.2441; stroke-opacity:1; 
stroke-linecap:round; stroke-linejoin:round;">
<circle cx="2710.44" cy="6923.84" r="1062.99" /> 
<circle cx="20799.8" cy="6923.84" r="1062.99" /> 
<circle cx="16483.3" cy="18830.9" r="1062.99" /> 
<circle cx="3089.59" cy="18830.9" r="1062.99" /> 
<circle cx="3089.59" cy="31830.9" r="1062.99" /> 
<circle cx="16483.3" cy="31830.9" r="1062.99" /> 
</g>
<g style="fill:#000000; fill-opacity:0.0; 
stroke:#000000; stroke-width:196.85; stroke-opacity:1; 
stroke-linecap:round; stroke-linejoin:round;">
<path d="M19298 32134
L19081 31937
" />
<path d="M18904 32134
L19081 31937
" />
</g>
<g style="fill:#000000; fill-opacity:0.0; 
stroke:#000000; stroke-width:47.2441; stroke-opacity:1; 
stroke-linecap:round; stroke-linejoin:round;">
<circle cx="19081.7" cy="31910.5" r="695.971" /> 
</g>
<g style="fill:#000000; fill-opacity:0.0; 
stroke:#000000; stroke-width:59.0551; stroke-opacity:1; 
stroke-linecap:round; stroke-linejoin:round;">
<g transform="rotate(-90 19003 24515.9)">
<text x="19003" y="24811.2"
textLength="1958.38" font-size="787.402" lengthAdjust="spacingAndGlyphs"
text-anchor="middle" opacity="0">v0.1</text>
</g>
<path d="M18876 25359
L19270 25218
L18876 25078
" />
<path d="M18679 24740
L18679 24684
L18707 24628
L18735 24600
L18792 24572
L18904 24544
L19045 24544
L19157 24572
L19213 24600
L19242 24628
L19270 24684
L19270 24740
L19242 24797
L19213 24825
L19157 24853
L19045 24881
L18904 24881
L18792 24853
L18735 24825
L18707 24797
L18679 24740
" />
<path d="M19213 24290
L19242 24262
L19270 24290
L19242 24319
L19213 24290
L19270 24290
" />
<path d="M19270 23700
L19270 24037
" />
<path d="M19270 23869
L18679 23869
L18763 23925
L18820 23981
L18848 24037
" />
</g>
<g style="fill:#000000; fill-opacity:0.0; 
stroke:#000000; stroke-width:196.85; stroke-opacity:1; 
stroke-linecap:round; stroke-linejoin:round;">
<path d="M18688 31937
L19081 31543
" />
<path d="M19475 31897
L19081 31543
" />
</g>
<g style="fill:#000000; fill-opacity:0.0; 
stroke:#000000; stroke-width:118.11; stroke-opacity:1; 
stroke-linecap:round; stroke-linejoin:round;">
<g transform="rotate(-90 19101.4 28256.1)">
<text x="19101.4" y="28748.2"
textLength="5232.38" font-size="1312.34" lengthAdjust="spacingAndGlyphs"
text-anchor="middle" opacity="0">tracker</text>
</g>
<path d="M18890 30740
L18890 30365
" />
<path d="M18562 30599
L19406 30599
L19499 30552
L19546 30458
L19546 30365
" />
<path d="M19546 30037
L18890 30037
" />
<path d="M19077 30037
L18984 29990
L18937 29943
L18890 29849
L18890 29755
" />
<path d="M19546 29005
L19031 29005
L18937 29052
L18890 29146
L18890 29334
L18937 29427
" />
<path d="M19499 29005
L19546 29099
L19546 29334
L19499 29427
L19406 29474
L19312 29474
L19218 29427
L19171 29334
L19171 29099
L19124 29005
" />
<path d="M19499 28115
L19546 28209
L19546 28396
L19499 28490
L19452 28537
L19359 28584
L19077 28584
L18984 28537
L18937 28490
L18890 28396
L18890 28209
L18937 28115
" />
<path d="M19546 27693
L18562 27693
" />
<path d="M19171 27599
L19546 27318
" />
<path d="M18890 27318
L19265 27693
" />
<path d="M19499 26521
L19546 26615
L19546 26803
L19499 26896
L19406 26943
L19031 26943
L18937 26896
L18890 26803
L18890 26615
L18937 26521
L19031 26475
L19124 26475
L19218 26943
" />
<path d="M19546 26053
L18890 26053
" />
<path d="M19077 26053
L18984 26006
L18937 25959
L18890 25865
L18890 25771
" />
</g>
<g style="fill:#000000; fill-opacity:0.0; 
stroke:#000000; stroke-width:59.0551; stroke-opacity:1; 
stroke-linecap:round; stroke-linejoin:round;">
<g transform="rotate(-90 2073.84 11878.1)">
<text x="2073.84" y="12075"
textLength="1203.41" font-size="524.934" lengthAdjust="spacingAndGlyphs"
text-anchor="middle" opacity="0">IMU</text>
</g>
<path d="M2251 12309
L1858 12309
" />
<path d="M2251 12121
L1858 12121
L2139 11990
L1858 11859
L2251 11859
" />
<path d="M1858 11671
L2176 11671
L2214 11653
L2233 11634
L2251 11596
L2251 11521
L2233 11484
L2214 11465
L2176 11446
L1858 11446
" />
</g>
<g style="fill:#000000; fill-opacity:0.0; 
stroke:#000000; stroke-width:78.7402; stroke-opacity:1; 
stroke-linecap:round; stroke-linejoin:round;">
<g transform="rotate(-90 19207.7 6996.22)">
<text x="19207.7" y="7291.5"
textLength="1735.94" font-size="787.402" lengthAdjust="spacingAndGlyphs"
text-anchor="middle" opacity="0">SDA</text>
</g>
<path d="M19446 7713
L19474 7628
L19474 7488
L19446 7432
L19418 7403
L19362 7375
L19306 7375
L19249 7403
L19221 7432
L19193 7488
L19165 7600
L19137 7657
L19109 7685
L19053 7713
L18996 7713
L18940 7685
L18912 7657
L18884 7600
L18884 7460
L18912 7375
" />
<path d="M19474 7122
L18884 7122
L18884 6982
L18912 6897
L18968 6841
L19024 6813
L19137 6785
L19221 6785
L19334 6813
L19390 6841
L19446 6897
L19474 6982
L19474 7122
" />
<path d="M19306 6560
L19306 6279
" />
<path d="M19474 6616
L18884 6419
L19474 6222
" />
<g transform="rotate(-90 4219.51 44169.4)">
<text x="4219.51" y="44464.7"
textLength="1902.14" font-size="787.402" lengthAdjust="spacingAndGlyphs"
text-anchor="middle" opacity="0">GND</text>
</g>
<path d="M3924 44619
L3896 44675
L3896 44760
L3924 44844
L3980 44900
L4036 44928
L4149 44956
L4233 44956
L4346 44928
L4402 44900
L4458 44844
L4486 44760
L4486 44703
L4458 44619
L4430 44591
L4233 44591
L4233 44703
" />
<path d="M4486 44338
L3896 44338
L4486 44000
L3896 44000
" />
<path d="M4486 43719
L3896 43719
L3896 43578
L3924 43494
L3980 43438
L4036 43410
L4149 43382
L4233 43382
L4346 43410
L4402 43438
L4458 43494
L4486 43578
L4486 43719
" />
<g transform="rotate(-90 19231.3 43787.6)">
<text x="19231.3" y="44082.8"
textLength="1170.98" font-size="787.402" lengthAdjust="spacingAndGlyphs"
text-anchor="middle" opacity="0">3V</text>
</g>
<path d="M18907 44237
L18907 43871
L19132 44068
L19132 43984
L19161 43928
L19189 43900
L19245 43871
L19385 43871
L19442 43900
L19470 43928
L19498 43984
L19498 44153
L19470 44209
L19442 44237
" />
<path d="M18907 43703
L19498 43506
L18907 43309
" />
<g transform="rotate(-270 4286.44 7067.09)">
<text x="4286.44" y="7362.36"
textLength="1733.41" font-size="787.402" lengthAdjust="spacingAndGlyphs"
text-anchor="middle" opacity="0">SCL</text>
</g>
<path d="M4047 6364
L4019 6448
L4019 6589
L4047 6645
L4075 6673
L4131 6701
L4188 6701
L4244 6673
L4272 6645
L4300 6589
L4328 6476
L4356 6420
L4384 6392
L4441 6364
L4497 6364
L4553 6392
L4581 6420
L4609 6476
L4609 6617
L4581 6701
" />
<path d="M4075 7292
L4047 7263
L4019 7179
L4019 7123
L4047 7038
L4103 6982
L4159 6954
L4272 6926
L4356 6926
L4469 6954
L4525 6982
L4581 7038
L4609 7123
L4609 7179
L4581 7263
L4553 7292
" />
<path d="M4019 7826
L4019 7545
L4609 7545
" />
</g>
<g style="fill:#000000; fill-opacity:0.0; 
stroke:#000000; stroke-width:59.0551; stroke-opacity:1; 
stroke-linecap:round; stroke-linejoin:round;">
<g transform="rotate(-90 14286.4 44153.7)">
<text x="14286.4" y="44409.6"
textLength="2173.98" font-size="682.415" lengthAdjust="spacingAndGlyphs"
text-anchor="middle" opacity="0">PROG</text>
</g>
<path d="M14517 45067
L14006 45067
L14006 44872
L14030 44823
L14054 44799
L14103 44775
L14176 44775
L14225 44799
L14249 44823
L14274 44872
L14274 45067
" />
<path d="M14517 44263
L14274 44433
" />
<path d="M14517 44555
L14006 44555
L14006 44360
L14030 44312
L14054 44287
L14103 44263
L14176 44263
L14225 44287
L14249 44312
L14274 44360
L14274 44555
" />
<path d="M14006 43946
L14006 43849
L14030 43800
L14079 43751
L14176 43727
L14347 43727
L14444 43751
L14493 43800
L14517 43849
L14517 43946
L14493 43995
L14444 44044
L14347 44068
L14176 44068
L14079 44044
L14030 43995
L14006 43946
" />
<path d="M14030 43239
L14006 43288
L14006 43361
L14030 43434
L14079 43483
L14128 43507
L14225 43532
L14298 43532
L14396 43507
L14444 43483
L14493 43434
L14517 43361
L14517 43312
L14493 43239
L14469 43215
L14298 43215
L14298 43312
" />
<g transform="rotate(-90 10160.5 44602.5)">
<text x="10160.5" y="44858.4"
textLength="1539.09" font-size="682.415" lengthAdjust="spacingAndGlyphs"
text-anchor="middle" opacity="0">LOG</text>
</g>
<path d="M10391 44968
L10391 45211
L9880 45211
" />
<path d="M9880 44700
L9880 44602
L9904 44553
L9953 44505
L10050 44480
L10221 44480
L10318 44505
L10367 44553
L10391 44602
L10391 44700
L10367 44748
L10318 44797
L10221 44821
L10050 44821
L9953 44797
L9904 44748
L9880 44700
" />
<path d="M9904 43993
L9880 44041
L9880 44115
L9904 44188
L9953 44236
L10002 44261
L10099 44285
L10172 44285
L10270 44261
L10318 44236
L10367 44188
L10391 44115
L10391 44066
L10367 43993
L10343 43968
L10172 43968
L10172 44066
" />
</g>
<g style="fill:#000000; fill-opacity:0.0; 
stroke:#000000; stroke-width:47.2441; stroke-opacity:1; 
stroke-linecap:round; stroke-linejoin:round;">
<path d="M7510 7279
L8802 7279
" />
</g>
<g style="fill:#000000; fill-opacity:0.0; 
stroke:#000000; stroke-width:59.0551; stroke-opacity:1; 
stroke-linecap:round; stroke-linejoin:round;">
<text x="9329.75" y="7476.54"
textLength="1126.64" font-size="524.934" lengthAdjust="spacingAndGlyphs"
text-anchor="middle" opacity="0">ANT</text>
<path d="M8879 7345
L9067 7345
" />
<path d="M8842 7457
L8973 7064
L9104 7457
" />
<path d="M9236 7457
L9236 7064
L9460 7457
L9460 7064
" />
<path d="M9592 7064
L9817 7064
" />
<path d="M9704 7457
L9704 7064
" />
<text x="16266.8" y="3693.07"
textLength="3929.41" font-size="787.402" lengthAdjust="spacingAndGlyphs"
text-anchor="middle" opacity="0">ANTENNA</text>
<path d="M14452 3496
L14734 3496
" />
<path d="M14396 3664
L14593 3074
L14790 3664
" />
<path d="M14987 3664
L14987 3074
L15324 3664
L15324 3074
" />
<path d="M15521 3074
L15858 3074
" />
<path d="M15690 3664
L15690 3074
" />
<path d="M16055 3355
L16252 3355
" />
<path d="M16337 3664
L16055 3664
L16055 3074
L16337 3074
" />
<path d="M16590 3664
L16590 3074
L16927 3664
L16927 3074
" />
<path d="M17208 3664
L17208 3074
L17546 3664
L17546 3074
" />
<path d="M17799 3496
L18080 3496
" />
<path d="M17743 3664
L17939 3074
L18136 3664
" />
<text x="16164.4" y="2728.5"
textLength="1820.3" font-size="787.402" lengthAdjust="spacingAndGlyphs"
text-anchor="middle" opacity="0">GPS</text>
<path d="M15742 2137
L15686 2109
L15601 2109
L15517 2137
L15461 2194
L15433 2250
L15405 2362
L15405 2447
L15433 2559
L15461 2616
L15517 2672
L15601 2700
L15658 2700
L15742 2672
L15770 2644
L15770 2447
L15658 2447
" />
<path d="M16023 2700
L16023 2109
L16248 2109
L16305 2137
L16333 2166
L16361 2222
L16361 2306
L16333 2362
L16305 2391
L16248 2419
L16023 2419
" />
<path d="M16586 2672
L16670 2700
L16811 2700
L16867 2672
L16895 2644
L16923 2587
L16923 2531
L16895 2475
L16867 2447
L16811 2419
L16698 2391
L16642 2362
L16614 2334
L16586 2278
L16586 2222
L16614 2166
L16642 2137
L16698 2109
L16839 2109
L16923 2137
" />
<text x="9357.31" y="12370.2"
textLength="2973.28" font-size="787.402" lengthAdjust="spacingAndGlyphs"
text-anchor="middle" opacity="0">RFM95</text>
<path d="M8387 12342
L8190 12060
" />
<path d="M8049 12342
L8049 11751
L8274 11751
L8330 11779
L8358 11807
L8387 11864
L8387 11948
L8358 12004
L8330 12032
L8274 12060
L8049 12060
" />
<path d="M8837 12032
L8640 12032
" />
<path d="M8640 12342
L8640 11751
L8921 11751
" />
<path d="M9146 12342
L9146 11751
L9343 12173
L9540 11751
L9540 12342
" />
<path d="M9849 12342
L9961 12342
L10018 12313
L10046 12285
L10102 12201
L10130 12089
L10130 11864
L10102 11807
L10074 11779
L10018 11751
L9905 11751
L9849 11779
L9821 11807
L9793 11864
L9793 12004
L9821 12060
L9849 12089
L9905 12117
L10018 12117
L10074 12089
L10102 12060
L10130 12004
" />
<path d="M10664 11751
L10383 11751
L10355 12032
L10383 12004
L10439 11976
L10580 11976
L10636 12004
L10664 12032
L10693 12089
L10693 12229
L10664 12285
L10636 12313
L10580 12342
L10439 12342
L10383 12313
L10355 12285
" />
<text x="7786.44" y="9783.62"
textLength="1126.64" font-size="524.934" lengthAdjust="spacingAndGlyphs"
text-anchor="middle" opacity="0">ANT</text>
<path d="M7336 9652
L7523 9652
" />
<path d="M7299 9764
L7430 9371
L7561 9764
" />
<path d="M7692 9764
L7692 9371
L7917 9764
L7917 9371
" />
<path d="M8048 9371
L8273 9371
" />
<path d="M8161 9764
L8161 9371
" />
<text x="20648.6" y="12893.9"
textLength="684.196" font-size="944.882" lengthAdjust="spacingAndGlyphs"
text-anchor="middle" opacity="0">A</text>
<path d="M20479 12657
L20817 12657
" />
<path d="M20412 12860
L20648 12151
L20884 12860
" />
<text x="20598" y="14468.7"
textLength="785.433" font-size="944.882" lengthAdjust="spacingAndGlyphs"
text-anchor="middle" opacity="0">B</text>
<path d="M20648 14063
L20749 14097
L20783 14131
L20817 14198
L20817 14299
L20783 14367
L20749 14401
L20682 14434
L20412 14434
L20412 13726
L20648 13726
L20716 13760
L20749 13793
L20783 13861
L20783 13928
L20749 13996
L20716 14029
L20648 14063
L20412 14063
" />
<text x="20598" y="22578.9"
textLength="785.433" font-size="944.882" lengthAdjust="spacingAndGlyphs"
text-anchor="middle" opacity="0">C</text>
<path d="M20817 22477
L20783 22511
L20682 22545
L20614 22545
L20513 22511
L20446 22443
L20412 22376
L20378 22241
L20378 22140
L20412 22005
L20446 21937
L20513 21870
L20614 21836
L20682 21836
L20783 21870
L20817 21903
" />
</g>
<g style="fill:#000000; fill-opacity:0.0; 
stroke:#000000; stroke-width:78.7402; stroke-opacity:1; 
stroke-linecap:round; stroke-linejoin:round;">
<text x="21168.3" y="30496.2"
textLength="2034.03" font-size="944.882" lengthAdjust="spacingAndGlyphs"
text-anchor="middle" opacity="0">OFF</text>
<path d="M20493 29753
L20628 29753
L20695 29787
L20763 29855
L20797 29990
L20797 30226
L20763 30361
L20695 30428
L20628 30462
L20493 30462
L20425 30428
L20358 30361
L20324 30226
L20324 29990
L20358 29855
L20425 29787
L20493 29753
" />
<path d="M21337 30091
L21100 30091
" />
<path d="M21100 30462
L21100 29753
L21438 29753
" />
<path d="M21944 30091
L21708 30091
" />
<path d="M21708 30462
L21708 29753
L22045 29753
" />
<text x="21353.4" y="25744.3"
textLength="1587.18" font-size="944.882" lengthAdjust="spacingAndGlyphs"
text-anchor="middle" opacity="0">ON</text>
<path d="M20914 25001
L21049 25001
L21117 25035
L21184 25103
L21218 25238
L21218 25474
L21184 25609
L21117 25676
L21049 25710
L20914 25710
L20847 25676
L20779 25609
L20745 25474
L20745 25238
L20779 25103
L20847 25035
L20914 25001
" />
<path d="M21522 25710
L21522 25001
L21927 25710
L21927 25001
" />
</g>
<g style="fill:#000000; fill-opacity:0.0; 
stroke:#000000; stroke-width:59.0551; stroke-opacity:1; 
stroke-linecap:round; stroke-linejoin:round;">
<g transform="rotate(-90 5361.25 44015.9)">
<text x="5361.25" y="44271.8"
textLength="2417.7" font-size="682.415" lengthAdjust="spacingAndGlyphs"
text-anchor="middle" opacity="0">RESET</text>
</g>
<path d="M5592 44759
L5349 44929
" />
<path d="M5592 45051
L5080 45051
L5080 44856
L5105 44807
L5129 44783
L5178 44759
L5251 44759
L5300 44783
L5324 44807
L5349 44856
L5349 45051
" />
<path d="M5324 44539
L5324 44369
" />
<path d="M5592 44296
L5592 44539
L5080 44539
L5080 44296
" />
<path d="M5568 44101
L5592 44028
L5592 43906
L5568 43857
L5544 43833
L5495 43808
L5446 43808
L5397 43833
L5373 43857
L5349 43906
L5324 44003
L5300 44052
L5275 44076
L5227 44101
L5178 44101
L5129 44076
L5105 44052
L5080 44003
L5080 43881
L5105 43808
" />
<path d="M5324 43589
L5324 43418
" />
<path d="M5592 43345
L5592 43589
L5080 43589
L5080 43345
" />
<path d="M5080 43199
L5080 42906
" />
<path d="M5592 43053
L5080 43053
" />
<g transform="rotate(-90 4514.79 15244.3)">
<text x="4514.79" y="15441.1"
textLength="1164.14" font-size="524.934" lengthAdjust="spacingAndGlyphs"
text-anchor="middle" opacity="0">3V3</text>
</g>
<path d="M4299 15731
L4299 15487
L4449 15619
L4449 15562
L4467 15525
L4486 15506
L4524 15487
L4617 15487
L4655 15506
L4674 15525
L4692 15562
L4692 15675
L4674 15712
L4655 15731
" />
<path d="M4299 15375
L4692 15244
L4299 15113
" />
<path d="M4299 15019
L4299 14775
L4449 14906
L4449 14850
L4467 14813
L4486 14794
L4524 14775
L4617 14775
L4655 14794
L4674 14813
L4692 14850
L4692 14963
L4674 15000
L4655 15019
" />
<g transform="rotate(-90 6463.61 17484.4)">
<text x="6463.61" y="17681.3"
textLength="1276.62" font-size="524.934" lengthAdjust="spacingAndGlyphs"
text-anchor="middle" opacity="0">GND</text>
</g>
<path d="M6266 17784
L6248 17821
L6248 17878
L6266 17934
L6304 17971
L6341 17990
L6416 18009
L6472 18009
L6547 17990
L6585 17971
L6622 17934
L6641 17878
L6641 17840
L6622 17784
L6604 17765
L6472 17765
L6472 17840
" />
<path d="M6641 17596
L6248 17596
L6641 17371
L6248 17371
" />
<path d="M6641 17184
L6248 17184
L6248 17090
L6266 17034
L6304 16996
L6341 16978
L6416 16959
L6472 16959
L6547 16978
L6585 16996
L6622 17034
L6641 17090
L6641 17184
" />
<g transform="rotate(-90 7577.78 15126.1)">
<text x="7577.78" y="15323"
textLength="1164.14" font-size="524.934" lengthAdjust="spacingAndGlyphs"
text-anchor="middle" opacity="0">SCL</text>
</g>
<path d="M7737 15594
L7755 15538
L7755 15444
L7737 15407
L7718 15388
L7680 15369
L7643 15369
L7605 15388
L7587 15407
L7568 15444
L7549 15519
L7530 15557
L7512 15576
L7474 15594
L7437 15594
L7399 15576
L7380 15557
L7362 15519
L7362 15426
L7380 15369
" />
<path d="M7718 14976
L7737 14994
L7755 15051
L7755 15088
L7737 15144
L7699 15182
L7662 15201
L7587 15219
L7530 15219
L7455 15201
L7418 15182
L7380 15144
L7362 15088
L7362 15051
L7380 14994
L7399 14976
" />
<path d="M7755 14619
L7755 14807
L7362 14807
" />
<g transform="rotate(-90 8416.36 15126.1)">
<text x="8416.36" y="15323"
textLength="1182.88" font-size="524.934" lengthAdjust="spacingAndGlyphs"
text-anchor="middle" opacity="0">SDA</text>
</g>
<path d="M8575 15604
L8594 15547
L8594 15454
L8575 15416
L8556 15397
L8519 15379
L8481 15379
L8444 15397
L8425 15416
L8406 15454
L8388 15529
L8369 15566
L8350 15585
L8313 15604
L8275 15604
L8238 15585
L8219 15566
L8200 15529
L8200 15435
L8219 15379
" />
<path d="M8594 15210
L8200 15210
L8200 15116
L8219 15060
L8257 15023
L8294 15004
L8369 14985
L8425 14985
L8500 15004
L8538 15023
L8575 15060
L8594 15116
L8594 15210
" />
<path d="M8481 14835
L8481 14648
" />
<path d="M8594 14873
L8200 14741
L8594 14610
" />
<g transform="rotate(-90 10132.9 19440)">
<text x="10132.9" y="19636.8"
textLength="1164.14" font-size="524.934" lengthAdjust="spacingAndGlyphs"
text-anchor="middle" opacity="0">SCL</text>
</g>
<path d="M10292 19908
L10311 19852
L10311 19758
L10292 19721
L10273 19702
L10236 19683
L10198 19683
L10161 19702
L10142 19721
L10123 19758
L10104 19833
L10086 19871
L10067 19889
L10029 19908
L9992 19908
L9954 19889
L9936 19871
L9917 19833
L9917 19739
L9936 19683
" />
<path d="M10273 19289
L10292 19308
L10311 19364
L10311 19402
L10292 19458
L10254 19496
L10217 19514
L10142 19533
L10086 19533
L10011 19514
L9973 19496
L9936 19458
L9917 19402
L9917 19364
L9936 19308
L9954 19289
" />
<path d="M10311 18933
L10311 19121
L9917 19121
" />
<g transform="rotate(-90 8109.28 19496.2)">
<text x="8109.28" y="19693.1"
textLength="1276.62" font-size="524.934" lengthAdjust="spacingAndGlyphs"
text-anchor="middle" opacity="0">GND</text>
</g>
<path d="M7912 19796
L7893 19833
L7893 19889
L7912 19946
L7949 19983
L7987 20002
L8062 20021
L8118 20021
L8193 20002
L8231 19983
L8268 19946
L8287 19889
L8287 19852
L8268 19796
L8249 19777
L8118 19777
L8118 19852
" />
<path d="M8287 19608
L7893 19608
L8287 19383
L7893 19383
" />
<path d="M8287 19196
L7893 19196
L7893 19102
L7912 19046
L7949 19008
L7987 18990
L8062 18971
L8118 18971
L8193 18990
L8231 19008
L8268 19046
L8287 19102
L8287 19196
" />
<g transform="rotate(-90 9160.46 19440)">
<text x="9160.46" y="19636.8"
textLength="1164.14" font-size="524.934" lengthAdjust="spacingAndGlyphs"
text-anchor="middle" opacity="0">3V3</text>
</g>
<path d="M8944 19927
L8944 19683
L9094 19814
L9094 19758
L9113 19721
L9132 19702
L9169 19683
L9263 19683
L9301 19702
L9319 19721
L9338 19758
L9338 19871
L9319 19908
L9301 19927
" />
<path d="M8944 19571
L9338 19439
L8944 19308
" />
<path d="M8944 19215
L8944 18971
L9094 19102
L9094 19046
L9113 19008
L9132 18990
L9169 18971
L9263 18971
L9301 18990
L9319 19008
L9338 19046
L9338 19158
L9319 19196
L9301 19215
" />
<g transform="rotate(-90 11152.6 19449.4)">
<text x="11152.6" y="19646.2"
textLength="1182.88" font-size="524.934" lengthAdjust="spacingAndGlyphs"
text-anchor="middle" opacity="0">SDA</text>
</g>
<path d="M11311 19927
L11330 19871
L11330 19777
L11311 19739
L11293 19721
L11255 19702
L11218 19702
L11180 19721
L11161 19739
L11143 19777
L11124 19852
L11105 19889
L11086 19908
L11049 19927
L11011 19927
L10974 19908
L10955 19889
L10936 19852
L10936 19758
L10955 19702
" />
<path d="M11330 19533
L10936 19533
L10936 19439
L10955 19383
L10993 19346
L11030 19327
L11105 19308
L11161 19308
L11236 19327
L11274 19346
L11311 19383
L11330 19439
L11330 19533
" />
<path d="M11218 19158
L11218 18971
" />
<path d="M11330 19196
L10936 19065
L11330 18933
" />
<text x="2329.75" y="21673.4"
textLength="1276.62" font-size="524.934" lengthAdjust="spacingAndGlyphs"
text-anchor="middle" opacity="0">GND</text>
<path d="M2029 21279
L1992 21260
L1936 21260
L1879 21279
L1842 21317
L1823 21354
L1804 21429
L1804 21485
L1823 21560
L1842 21598
L1879 21635
L1936 21654
L1973 21654
L2029 21635
L2048 21617
L2048 21485
L1973 21485
" />
<path d="M2217 21654
L2217 21260
L2442 21654
L2442 21260
" />
<path d="M2629 21654
L2629 21260
L2723 21260
L2779 21279
L2817 21317
L2835 21354
L2854 21429
L2854 21485
L2835 21560
L2817 21598
L2779 21635
L2723 21654
L2629 21654
" />
<text x="2357.87" y="22661.6"
textLength="1220.38" font-size="524.934" lengthAdjust="spacingAndGlyphs"
text-anchor="middle" opacity="0">D11</text>
<path d="M1879 22642
L1879 22249
L1973 22249
L2029 22267
L2067 22305
L2086 22342
L2104 22417
L2104 22474
L2086 22549
L2067 22586
L2029 22624
L1973 22642
L1879 22642
" />
<path d="M2479 22642
L2254 22642
" />
<path d="M2367 22642
L2367 22249
L2329 22305
L2292 22342
L2254 22361
" />
<path d="M2854 22642
L2629 22642
" />
<path d="M2742 22642
L2742 22249
L2704 22305
L2667 22342
L2629 22361
" />
<text x="2357.87" y="23614.3"
textLength="1220.38" font-size="524.934" lengthAdjust="spacingAndGlyphs"
text-anchor="middle" opacity="0">D12</text>
<path d="M1879 23595
L1879 23201
L1973 23201
L2029 23220
L2067 23258
L2086 23295
L2104 23370
L2104 23426
L2086 23501
L2067 23539
L2029 23576
L1973 23595
L1879 23595
" />
<path d="M2479 23595
L2254 23595
" />
<path d="M2367 23595
L2367 23201
L2329 23258
L2292 23295
L2254 23314
" />
<path d="M2629 23239
L2648 23220
L2685 23201
L2779 23201
L2817 23220
L2835 23239
L2854 23276
L2854 23314
L2835 23370
L2610 23595
L2854 23595
" />
<text x="2357.87" y="24704.9"
textLength="1220.38" font-size="524.934" lengthAdjust="spacingAndGlyphs"
text-anchor="middle" opacity="0">D13</text>
<path d="M1879 24686
L1879 24292
L1973 24292
L2029 24311
L2067 24348
L2086 24386
L2104 24461
L2104 24517
L2086 24592
L2067 24629
L2029 24667
L1973 24686
L1879 24686
" />
<path d="M2479 24686
L2254 24686
" />
<path d="M2367 24686
L2367 24292
L2329 24348
L2292 24386
L2254 24404
" />
<path d="M2610 24292
L2854 24292
L2723 24442
L2779 24442
L2817 24461
L2835 24479
L2854 24517
L2854 24611
L2835 24648
L2817 24667
L2779 24686
L2667 24686
L2629 24667
L2610 24648
" />
<text x="2573.47" y="25669.4"
textLength="789.183" font-size="524.934" lengthAdjust="spacingAndGlyphs"
text-anchor="middle" opacity="0">A1</text>
<path d="M2292 25538
L2479 25538
" />
<path d="M2254 25650
L2385 25257
L2517 25650
" />
<path d="M2854 25650
L2629 25650
" />
<path d="M2742 25650
L2742 25257
L2704 25313
L2667 25350
L2629 25369
" />
<text x="2573.47" y="26720.6"
textLength="789.183" font-size="524.934" lengthAdjust="spacingAndGlyphs"
text-anchor="middle" opacity="0">3V</text>
<path d="M2273 26308
L2517 26308
L2385 26458
L2442 26458
L2479 26476
L2498 26495
L2517 26533
L2517 26626
L2498 26664
L2479 26683
L2442 26701
L2329 26701
L2292 26683
L2273 26664
" />
<path d="M2629 26308
L2760 26701
L2892 26308
" />
<g transform="rotate(-90 17424.2 26271.8)">
<text x="17424.2" y="26468.7"
textLength="6994.66" font-size="524.934" lengthAdjust="spacingAndGlyphs"
text-anchor="middle" opacity="0">Sharp display breakout</text>
</g>
<path d="M17583 29655
L17602 29599
L17602 29505
L17583 29468
L17564 29449
L17527 29430
L17489 29430
L17452 29449
L17433 29468
L17414 29505
L17396 29580
L17377 29618
L17358 29637
L17321 29655
L17283 29655
L17246 29637
L17227 29618
L17208 29580
L17208 29487
L17227 29430
" />
<path d="M17602 29262
L17208 29262
" />
<path d="M17602 29093
L17396 29093
L17358 29112
L17339 29149
L17339 29205
L17358 29243
L17377 29262
" />
<path d="M17602 28737
L17396 28737
L17358 28755
L17339 28793
L17339 28868
L17358 28905
" />
<path d="M17583 28737
L17602 28774
L17602 28868
L17583 28905
L17546 28924
L17508 28924
L17471 28905
L17452 28868
L17452 28774
L17433 28737
" />
<path d="M17602 28549
L17339 28549
" />
<path d="M17414 28549
L17377 28530
L17358 28512
L17339 28474
L17339 28437
" />
<path d="M17339 28305
L17733 28305
" />
<path d="M17358 28305
L17339 28268
L17339 28193
L17358 28155
L17377 28137
L17414 28118
L17527 28118
L17564 28137
L17583 28155
L17602 28193
L17602 28268
L17583 28305
" />
<path d="M17602 27481
L17208 27481
" />
<path d="M17583 27481
L17602 27518
L17602 27593
L17583 27631
L17564 27649
L17527 27668
L17414 27668
L17377 27649
L17358 27631
L17339 27593
L17339 27518
L17358 27481
" />
<path d="M17602 27293
L17339 27293
" />
<path d="M17208 27293
L17227 27312
L17246 27293
L17227 27274
L17208 27293
L17246 27293
" />
<path d="M17583 27124
L17602 27087
L17602 27012
L17583 26974
L17546 26956
L17527 26956
L17489 26974
L17471 27012
L17471 27068
L17452 27106
L17414 27124
L17396 27124
L17358 27106
L17339 27068
L17339 27012
L17358 26974
" />
<path d="M17339 26787
L17733 26787
" />
<path d="M17358 26787
L17339 26749
L17339 26674
L17358 26637
L17377 26618
L17414 26599
L17527 26599
L17564 26618
L17583 26637
L17602 26674
L17602 26749
L17583 26787
" />
<path d="M17602 26374
L17583 26412
L17546 26431
L17208 26431
" />
<path d="M17602 26056
L17396 26056
L17358 26074
L17339 26112
L17339 26187
L17358 26224
" />
<path d="M17583 26056
L17602 26093
L17602 26187
L17583 26224
L17546 26243
L17508 26243
L17471 26224
L17452 26187
L17452 26093
L17433 26056
" />
<path d="M17339 25906
L17602 25812
" />
<path d="M17339 25718
L17602 25812
L17696 25849
L17714 25868
L17733 25906
" />
<path d="M17602 25268
L17208 25268
" />
<path d="M17358 25268
L17339 25231
L17339 25156
L17358 25118
L17377 25100
L17414 25081
L17527 25081
L17564 25100
L17583 25118
L17602 25156
L17602 25231
L17583 25268
" />
<path d="M17602 24912
L17339 24912
" />
<path d="M17414 24912
L17377 24893
L17358 24875
L17339 24837
L17339 24800
" />
<path d="M17583 24518
L17602 24556
L17602 24631
L17583 24668
L17546 24687
L17396 24687
L17358 24668
L17339 24631
L17339 24556
L17358 24518
L17396 24500
L17433 24500
L17471 24687
" />
<path d="M17602 24162
L17396 24162
L17358 24181
L17339 24218
L17339 24293
L17358 24331
" />
<path d="M17583 24162
L17602 24200
L17602 24293
L17583 24331
L17546 24350
L17508 24350
L17471 24331
L17452 24293
L17452 24200
L17433 24162
" />
<path d="M17602 23975
L17208 23975
" />
<path d="M17452 23937
L17602 23825
" />
<path d="M17339 23825
L17489 23975
" />
<path d="M17602 23600
L17583 23637
L17564 23656
L17527 23675
L17414 23675
L17377 23656
L17358 23637
L17339 23600
L17339 23544
L17358 23506
L17377 23487
L17414 23469
L17527 23469
L17564 23487
L17583 23506
L17602 23544
L17602 23600
" />
<path d="M17339 23131
L17602 23131
" />
<path d="M17339 23300
L17546 23300
L17583 23281
L17602 23244
L17602 23187
L17583 23150
L17564 23131
" />
<path d="M17339 23000
L17339 22850
" />
<path d="M17208 22944
L17546 22944
L17583 22925
L17602 22887
L17602 22850
" />
<g transform="rotate(-90 13959.7 24882)">
<text x="13959.7" y="25078.9"
textLength="4145.01" font-size="524.934" lengthAdjust="spacingAndGlyphs"
text-anchor="middle" opacity="0">Sharp display</text>
</g>
<path d="M14119 26841
L14137 26784
L14137 26691
L14119 26653
L14100 26634
L14062 26616
L14025 26616
L13987 26634
L13969 26653
L13950 26691
L13931 26766
L13912 26803
L13894 26822
L13856 26841
L13819 26841
L13781 26822
L13762 26803
L13744 26766
L13744 26672
L13762 26616
" />
<path d="M14137 26447
L13744 26447
" />
<path d="M14137 26278
L13931 26278
L13894 26297
L13875 26334
L13875 26391
L13894 26428
L13912 26447
" />
<path d="M14137 25922
L13931 25922
L13894 25941
L13875 25978
L13875 26053
L13894 26091
" />
<path d="M14119 25922
L14137 25960
L14137 26053
L14119 26091
L14081 26110
L14044 26110
L14006 26091
L13987 26053
L13987 25960
L13969 25922
" />
<path d="M14137 25735
L13875 25735
" />
<path d="M13950 25735
L13912 25716
L13894 25697
L13875 25660
L13875 25622
" />
<path d="M13875 25491
L14269 25491
" />
<path d="M13894 25491
L13875 25453
L13875 25378
L13894 25341
L13912 25322
L13950 25303
L14062 25303
L14100 25322
L14119 25341
L14137 25378
L14137 25453
L14119 25491
" />
<path d="M14137 24666
L13744 24666
" />
<path d="M14119 24666
L14137 24703
L14137 24778
L14119 24816
L14100 24835
L14062 24853
L13950 24853
L13912 24835
L13894 24816
L13875 24778
L13875 24703
L13894 24666
" />
<path d="M14137 24478
L13875 24478
" />
<path d="M13744 24478
L13762 24497
L13781 24478
L13762 24460
L13744 24478
L13781 24478
" />
<path d="M14119 24310
L14137 24272
L14137 24197
L14119 24160
L14081 24141
L14062 24141
L14025 24160
L14006 24197
L14006 24254
L13987 24291
L13950 24310
L13931 24310
L13894 24291
L13875 24254
L13875 24197
L13894 24160
" />
<path d="M13875 23972
L14269 23972
" />
<path d="M13894 23972
L13875 23935
L13875 23860
L13894 23822
L13912 23804
L13950 23785
L14062 23785
L14100 23804
L14119 23822
L14137 23860
L14137 23935
L14119 23972
" />
<path d="M14137 23560
L14119 23597
L14081 23616
L13744 23616
" />
<path d="M14137 23241
L13931 23241
L13894 23260
L13875 23297
L13875 23372
L13894 23410
" />
<path d="M14119 23241
L14137 23279
L14137 23372
L14119 23410
L14081 23429
L14044 23429
L14006 23410
L13987 23372
L13987 23279
L13969 23241
" />
<path d="M13875 23091
L14137 22997
" />
<path d="M13875 22904
L14137 22997
L14231 23035
L14250 23054
L14269 23091
" />
<text x="17298.3" y="44051.3"
textLength="1344.11" font-size="682.415" lengthAdjust="spacingAndGlyphs"
text-anchor="middle" opacity="0">JST</text>
<path d="M16932 43515
L16932 43880
L16908 43953
L16859 44002
L16786 44026
L16737 44026
" />
<path d="M17152 44002
L17225 44026
L17346 44026
L17395 44002
L17420 43978
L17444 43929
L17444 43880
L17420 43831
L17395 43807
L17346 43783
L17249 43758
L17200 43734
L17176 43710
L17152 43661
L17152 43612
L17176 43563
L17200 43539
L17249 43515
L17371 43515
L17444 43539
" />
<path d="M17590 43515
L17883 43515
" />
<path d="M17736 44026
L17736 43515
" />
<text x="17298.3" y="43248.2"
textLength="1734.06" font-size="682.415" lengthAdjust="spacingAndGlyphs"
text-anchor="middle" opacity="0">3.7V</text>
<path d="M16542 42712
L16859 42712
L16688 42906
L16762 42906
L16810 42931
L16835 42955
L16859 43004
L16859 43126
L16835 43175
L16810 43199
L16762 43223
L16615 43223
L16567 43199
L16542 43175
" />
<path d="M17078 43175
L17103 43199
L17078 43223
L17054 43199
L17078 43175
L17078 43223
" />
<path d="M17273 42712
L17615 42712
L17395 43223
" />
<path d="M17736 42712
L17907 43223
L18078 42712
" />
</g>
<g style="fill:#000000; fill-opacity:0.0; 
stroke:#000000; stroke-width:47.2441; stroke-opacity:1; 
stroke-linecap:round; stroke-linejoin:round;">
<path d="M19786 40019
L21786 40019
" />
<path d="M19786 36519
L19786 40019
" />
<path d="M21786 36519
L19786 36519
" />
<path d="M18286 44228
L18286 41769
" />
<path d="M16286 41419
L16286 44287
" />
<path d="M19792 33294
L19792 33817
" />
<path d="M19268 33294
L19792 33294
" />
<path d="M18768 33294
L18768 34341
" />
<path d="M18768 34341
L3744 34341
" />
<path d="M3744 33294
L3744 34341
" />
<path d="M15236 41294
L15760 41294
" />
<path d="M14736 42341
L3693 42341
" />
<path d="M14736 41294
L3693 41294
" />
<path d="M14736 41294
L14736 42341
" />
<path d="M15760 41294
L15760 41817
" />
<path d="M3693 41294
L3693 42341
" />
<path d="M1768 33294
L21768 33294
" />
<path d="M1768 42345
L21768 42345
" />
<path d="M21768 42345
L21768 33294
" />
<path d="M1768 33294
L1768 42345
" />
<path d="M17766 15307
L13735 15307
" />
<path d="M17766 11571
L13735 11571
" />
<path d="M17766 15307
L17766 11571
" />
<path d="M13735 15307
L13735 11571
" />
<path d="M17766 9051
L17294 9051
" />
<path d="M16822 9051
L16349 9051
" />
<path d="M15876 9051
L15404 9051
" />
<path d="M14932 9051
L14459 9051
" />
<path d="M13987 9051
L13735 9051
" />
<path d="M17766 11476
L17766 11004
" />
<path d="M17766 10531
L17766 10059
" />
<path d="M17766 9586
L17766 9114
" />
<path d="M13735 11476
L13735 11004
" />
<path d="M13735 10531
L13735 10059
" />
<path d="M13735 9586
L13735 9114
" />
<path d="M16751 16307
L16751 15307
" />
<path d="M15751 16307
L15751 15307
" />
<path d="M14751 16307
L14751 15307
" />
<path d="M2999 26921
L4046 26921
" />
<path d="M2999 21897
L2999 26921
" />
<path d="M4046 21897
L4046 26921
" />
<path d="M2999 21897
L4046 21897
" />
<path d="M2999 21397
L2999 20874
" />
<path d="M2999 20874
L3522 20874
" />
<path d="M5585 6547
L5585 7964
" />
<path d="M8483 6547
L8483 7964
" />
<path d="M6325 8704
L7743 8704
" />
<path d="M6325 5807
L7743 5807
" />
<path d="M19442 18740
L19351 18740
" />
<path d="M20886 18535
L20886 21575
" />
<path d="M20886 21575
L19351 21575
" />
<path d="M18127 18535
L18127 18740
" />
<path d="M20886 18535
L19351 18535
" />
<path d="M19442 21370
L19351 21370
" />
<path d="M18327 18740
L18127 18740
" />
<path d="M18327 18535
L18127 18535
" />
<path d="M19442 21157
L19442 21370
" />
<path d="M18327 21370
L18127 21370
" />
<path d="M18127 21370
L18127 21575
" />
<path d="M18327 21575
L18127 21575
" />
<path d="M19442 18740
L19442 18953
" />
<path d="M19442 19386
L19442 20724
" />
<path d="M10791 36119
L10791 36390
" />
<path d="M10791 40300
L10791 40028
" />
<path d="M10114 36390
L10114 40028
" />
<path d="M11468 36390
L10114 36390
" />
<path d="M11468 40028
L11468 36390
" />
<path d="M10114 40028
L11468 40028
" />
<path d="M6286 32543
L6286 31496
" />
<path d="M6286 32543
L14310 32543
" />
<path d="M14310 32543
L14310 31496
" />
<path d="M6286 31496
L14310 31496
" />
<path d="M5262 31496
L5786 31496
" />
<path d="M5262 32019
L5262 31496
" />
<path d="M14412 30626
L14412 20055
" />
<path d="M17833 32964
L17833 17564
" />
<path d="M14412 30626
L5160 30626
" />
<path d="M14412 20055
L5160 20055
" />
<path d="M1644 32964
L1644 17564
" />
<path d="M17833 32964
L1644 32964
" />
<path d="M1644 17564
L17833 17564
" />
<path d="M5160 30626
L5160 20055
" />
<path d="M9971 16815
L9971 15768
" />
<path d="M4947 16815
L9971 16815
" />
<path d="M4947 15768
L9971 15768
" />
<path d="M4947 16815
L4947 15768
" />
<path d="M4447 16815
L3923 16815
" />
<path d="M3923 16815
L3923 16291
" />
<path d="M12197 17291
L6947 17291
" />
<path d="M1697 17291
L6947 17291
" />
<path d="M1697 9291
L1697 17291
" />
<path d="M12197 9291
L12197 17291
" />
<path d="M4447 16291
L4447 16791
" />
<path d="M1697 9291
L12197 9291
" />
</g>
<g style="fill:#000000; fill-opacity:0.0; 
stroke:#000000; stroke-width:78.7402; stroke-opacity:1; 
stroke-linecap:round; stroke-linejoin:round;">
<path d="M13113 15380
L6814 15380
" />
<path d="M13113 10734
L13113 10577
" />
<path d="M13113 11522
L13113 11364
" />
<path d="M13113 12309
L13113 12152
" />
<path d="M13113 13097
L13113 12939
" />
<path d="M13113 13727
L13113 13884
" />
<path d="M13113 14514
L13113 14671
" />
<path d="M13507 15301
L13113 15301
" />
<path d="M13113 15301
L13113 15380
" />
<path d="M13113 9947
L13113 9789
" />
<path d="M6814 15380
L6814 15301
" />
<path d="M6814 14671
L6814 14514
" />
<path d="M6814 13884
L6814 13727
" />
<path d="M6814 13097
L6814 12939
" />
<path d="M6814 12309
L6814 12152
" />
<path d="M6814 11522
L6814 11364
" />
<path d="M6814 10734
L6814 10577
" />
<path d="M6814 9947
L6814 9789
" />
<path d="M6814 9160
L6814 9081
" />
<path d="M6814 9081
L13113 9081
" />
<path d="M13113 9081
L13113 9160
" />
</g>
<g style="fill:#000000; fill-opacity:0.0; 
stroke:#000000; stroke-width:47.2441; stroke-opacity:1; 
stroke-linecap:round; stroke-linejoin:round;">
<path d="M6191 44523
L6191 43468
" />
<path d="M8648 43468
L8648 44523
" />
<path d="M8589 45224
L6251 45224
" />
<path d="M8589 42767
L6251 42767
" />
<circle cx="7420.3" cy="43996.2" r="556.777" /> 
<path d="M19442 14820
L19351 14820
" />
<path d="M20886 14615
L20886 17655
" />
<path d="M20886 17655
L19351 17655
" />
<path d="M18127 14615
L18127 14820
" />
<path d="M20886 14615
L19351 14615
" />
<path d="M19442 17450
L19351 17450
" />
<path d="M18327 14820
L18127 14820
" />
<path d="M18327 14615
L18127 14615
" />
<path d="M19442 17237
L19442 17450
" />
<path d="M18327 17450
L18127 17450
" />
<path d="M18127 17450
L18127 17655
" />
<path d="M18327 17655
L18127 17655
" />
<path d="M19442 14820
L19442 15033
" />
<path d="M19442 15466
L19442 16804
" />
<path d="M19392 9074
L19302 9074
" />
<path d="M20837 8870
L20837 11909
" />
<path d="M20837 11909
L19302 11909
" />
<path d="M18077 8870
L18077 9074
" />
<path d="M20837 8870
L19302 8870
" />
<path d="M19392 11704
L19302 11704
" />
<path d="M18278 9074
L18077 9074
" />
<path d="M18278 8870
L18077 8870
" />
<path d="M19392 11492
L19392 11704
" />
<path d="M18278 11704
L18077 11704
" />
<path d="M18077 11704
L18077 11909
" />
<path d="M18278 11909
L18077 11909
" />
<path d="M19392 9074
L19392 9287
" />
<path d="M19392 9720
L19392 11059
" />
</g>
<g style="fill:#000000; fill-opacity:0.0; 
stroke:#000000; stroke-width:50; stroke-opacity:1; 
stroke-linecap:round; stroke-linejoin:round;">
<path d="M17454 8284
L15801 8284
" />
<path d="M15801 8284
L15486 7969
" />
<path d="M15486 7969
L15486 6315
" />
<path d="M15486 6315
L17454 6315
" />
<path d="M17454 6315
L17454 8284
" />
<circle cx="16509.8" cy="7693.54" r="196.85" /> 
</g>
<g style="fill:#000000; fill-opacity:0.0; 
stroke:#000000; stroke-width:47.2441; stroke-opacity:1; 
stroke-linecap:round; stroke-linejoin:round;">
<path d="M15583 36119
L15583 36390
" />
<path d="M15583 40300
L15583 40028
" />
<path d="M14906 36390
L14906 40028
" />
<path d="M16260 36390
L14906 36390
" />
<path d="M16260 40028
L16260 36390
" />
<path d="M14906 40028
L16260 40028
" />
<path d="M9194 36119
L9194 36390
" />
<path d="M9194 40300
L9194 40028
" />
<path d="M8516 36390
L8516 40028
" />
<path d="M9871 36390
L8516 36390
" />
<path d="M9871 40028
L9871 36390
" />
<path d="M8516 40028
L9871 40028
" />
<path d="M13986 36119
L13986 36390
" />
<path d="M13986 40300
L13986 40028
" />
<path d="M13309 36390
L13309 40028
" />
<path d="M14663 36390
L13309 36390
" />
<path d="M14663 40028
L14663 36390
" />
<path d="M13309 40028
L14663 40028
" />
<path d="M12388 36119
L12388 36390
" />
<path d="M12388 40300
L12388 40028
" />
<path d="M11711 36390
L11711 40028
" />
<path d="M13066 36390
L11711 36390
" />
<path d="M13066 40028
L13066 36390
" />
<path d="M11711 40028
L13066 40028
" />
<path d="M7596 40300
L7596 40028
" />
<path d="M7596 36119
L7596 36390
" />
<path d="M8273 40028
L8273 36390
" />
<path d="M6919 40028
L8273 40028
" />
<path d="M6919 36390
L6919 40028
" />
<path d="M8273 36390
L6919 36390
" />
<path d="M5999 40300
L5999 40028
" />
<path d="M5999 36119
L5999 36390
" />
<path d="M6676 40028
L6676 36390
" />
<path d="M5322 40028
L6676 40028
" />
<path d="M5322 36390
L5322 40028
" />
<path d="M6676 36390
L5322 36390
" />
<path d="M3872 29683
L3872 28167
" />
<path d="M3872.73 28167.9 A1006.68 1006.68 0.0 0 0 3641.34 28013.4" />
<path d="M2774.5 28000 A1014.96 1014.96 0.0 0 0 2278.25 28502.5" />
<path d="M2278.25 29349 A1019.88 1019.88 0.0 0 0 2772.42 29844.2" />
<path d="M3645.19 29834.3 A1015.53 1015.53 0.0 0 0 3872.73 29683.6" />
<path d="M2378 36834
L3363 36834
" />
<path d="M3363 36834
L3363 37248
" />
<path d="M3363 37248
L3752 37248
" />
<path d="M2378 39283
L3363 39283
" />
<path d="M3363 39283
L3363 38870
" />
<path d="M1603 37295
L1603 38822
" />
<path d="M12679 44032
L12679 45079
" />
<path d="M12679 44032
L10655 44032
" />
<path d="M10655 44032
L10655 45079
" />
<path d="M12679 45079
L10655 45079
" />
<path d="M13703 45079
L13179 45079
" />
<path d="M13703 44555
L13703 45079
" />
<path d="M7585 18248
L7585 17724
" />
<path d="M7585 17724
L8109 17724
" />
<path d="M8609 17724
L11632 17724
" />
<path d="M11632 18771
L11632 17724
" />
<path d="M8609 18771
L11632 18771
" />
<path d="M8609 18771
L8609 17724
" />
<path d="M21007 27272
L22055 27272
" />
<path d="M21007 27272
L21007 29296
" />
<path d="M21007 29296
L22055 29296
" />
<path d="M22055 27272
L22055 29296
" />
<path d="M22055 26249
L22055 26772
" />
<path d="M21531 26249
L22055 26249
" />
<path d="M18534 36649
L16983 36649
" />
<path d="M16983 36649
L16983 40248
" />
<path d="M16983 40248
L18534 40248
" />
<path d="M18534 40248
L18534 36649
" />
<path d="M17758 36594
L17758 36649
" />
<path d="M17758 40303
L17758 40248
" />
<path d="M18534 37222
L16983 37222
" />
<path d="M18534 37269
L16983 37269
" />
<path d="M18534 37175
L16983 37175
" />
</g>
<g style="fill:#000000; fill-opacity:0.0; 
stroke:#000000; stroke-width:59.0551; stroke-opacity:1; 
stroke-linecap:round; stroke-linejoin:round;">
<g transform="rotate(-90 20270.7 33862.4)">
<text x="20270.7" y="34059.2"
textLength="864.173" font-size="524.934" lengthAdjust="spacingAndGlyphs"
text-anchor="middle" opacity="0">U2</text>
</g>
<path d="M20055 34162
L20373 34162
L20411 34143
L20430 34124
L20448 34087
L20448 34012
L20430 33974
L20411 33956
L20373 33937
L20055 33937
" />
<path d="M20092 33768
L20073 33749
L20055 33712
L20055 33618
L20073 33581
L20092 33562
L20130 33543
L20167 33543
L20223 33562
L20448 33787
L20448 33543
" />
<text x="20900.6" y="34976.5"
textLength="1764.06" font-size="524.934" lengthAdjust="spacingAndGlyphs"
text-anchor="middle" opacity="0">REF**</text>
<path d="M20375 34957
L20244 34770
" />
<path d="M20150 34957
L20150 34564
L20300 34564
L20338 34582
L20356 34601
L20375 34639
L20375 34695
L20356 34732
L20338 34751
L20300 34770
L20150 34770
" />
<path d="M20544 34751
L20675 34751
" />
<path d="M20731 34957
L20544 34957
L20544 34564
L20731 34564
" />
<path d="M21031 34751
L20900 34751
" />
<path d="M20900 34957
L20900 34564
L21088 34564
" />
<path d="M21294 34564
L21294 34657
" />
<path d="M21200 34620
L21294 34657
L21388 34620
" />
<path d="M21238 34732
L21294 34657
L21350 34732
" />
<path d="M21594 34564
L21594 34657
" />
<path d="M21500 34620
L21594 34657
L21688 34620
" />
<path d="M21538 34732
L21594 34657
L21650 34732
" />
<text x="14436" y="8846.61"
textLength="864.173" font-size="524.934" lengthAdjust="spacingAndGlyphs"
text-anchor="middle" opacity="0">Q1</text>
<path d="M14398 8865
L14361 8846
L14323 8809
L14267 8752
L14229 8734
L14192 8734
" />
<path d="M14211 8827
L14173 8809
L14136 8771
L14117 8696
L14117 8565
L14136 8490
L14173 8452
L14211 8434
L14286 8434
L14323 8452
L14361 8490
L14379 8565
L14379 8696
L14361 8771
L14323 8809
L14286 8827
L14211 8827
" />
<path d="M14754 8827
L14529 8827
" />
<path d="M14642 8827
L14642 8434
L14604 8490
L14567 8527
L14529 8546
" />
<g transform="rotate(-90 4407.53 26694.8)">
<text x="4407.53" y="26891.6"
textLength="751.687" font-size="524.934" lengthAdjust="spacingAndGlyphs"
text-anchor="middle" opacity="0">J2</text>
</g>
<path d="M4191 26826
L4473 26826
L4529 26844
L4566 26882
L4585 26938
L4585 26975
" />
<path d="M4229 26657
L4210 26638
L4191 26601
L4191 26507
L4210 26469
L4229 26451
L4266 26432
L4304 26432
L4360 26451
L4585 26676
L4585 26432
" />
<g transform="rotate(-90 5231.32 7267.87)">
<text x="5231.32" y="7464.72"
textLength="751.687" font-size="524.934" lengthAdjust="spacingAndGlyphs"
text-anchor="middle" opacity="0">J1</text>
</g>
<path d="M5015 7399
L5296 7399
L5353 7417
L5390 7455
L5409 7511
L5409 7549
" />
<path d="M5409 7005
L5409 7230
" />
<path d="M5409 7117
L5015 7117
L5071 7155
L5109 7192
L5128 7230
" />
<g transform="rotate(-90 19162.6 20055.5)">
<text x="19162.6" y="20252.3"
textLength="1276.62" font-size="524.934" lengthAdjust="spacingAndGlyphs"
text-anchor="middle" opacity="0">SW3</text>
</g>
<path d="M19321 20580
L19340 20524
L19340 20430
L19321 20392
L19303 20374
L19265 20355
L19228 20355
L19190 20374
L19171 20392
L19153 20430
L19134 20505
L19115 20542
L19096 20561
L19059 20580
L19021 20580
L18984 20561
L18965 20542
L18946 20505
L18946 20411
L18965 20355
" />
<path d="M18946 20224
L19340 20130
L19059 20055
L19340 19980
L18946 19886
" />
<path d="M18946 19774
L18946 19530
L19096 19661
L19096 19605
L19115 19568
L19134 19549
L19171 19530
L19265 19530
L19303 19549
L19321 19568
L19340 19605
L19340 19718
L19321 19755
L19303 19774
" />
<text x="10849.4" y="35165.5"
textLength="845.426" font-size="524.934" lengthAdjust="spacingAndGlyphs"
text-anchor="middle" opacity="0">R4</text>
<path d="M10783 35146
L10652 34959
" />
<path d="M10558 35146
L10558 34753
L10708 34753
L10746 34771
L10765 34790
L10783 34828
L10783 34884
L10765 34921
L10746 34940
L10708 34959
L10558 34959
" />
<path d="M11121 34884
L11121 35146
" />
<path d="M11027 34734
L10933 35015
L11177 35015
" />
<g transform="rotate(-90 4695.89 32019.8)">
<text x="4695.89" y="32216.7"
textLength="864.173" font-size="524.934" lengthAdjust="spacingAndGlyphs"
text-anchor="middle" opacity="0">U4</text>
</g>
<path d="M4480 32319
L4799 32319
L4836 32301
L4855 32282
L4873 32244
L4873 32169
L4855 32132
L4836 32113
L4799 32094
L4480 32094
" />
<path d="M4611 31738
L4873 31738
" />
<path d="M4461 31832
L4742 31926
L4742 31682
" />
<g transform="rotate(-90 3451.8 16311.2)">
<text x="3451.8" y="16508"
textLength="864.173" font-size="524.934" lengthAdjust="spacingAndGlyphs"
text-anchor="middle" opacity="0">U3</text>
</g>
<path d="M3236 16611
L3554 16611
L3592 16592
L3611 16573
L3629 16536
L3629 16461
L3611 16423
L3592 16404
L3554 16386
L3236 16386
" />
<path d="M3236 16236
L3236 15992
L3386 16123
L3386 16067
L3404 16029
L3423 16011
L3461 15992
L3554 15992
L3592 16011
L3611 16029
L3629 16067
L3629 16179
L3611 16217
L3592 16236
" />
<text x="10932.1" y="9909.61"
textLength="864.173" font-size="524.934" lengthAdjust="spacingAndGlyphs"
text-anchor="middle" opacity="0">U1</text>
<path d="M10632 9497
L10632 9815
L10650 9853
L10669 9872
L10707 9890
L10782 9890
L10819 9872
L10838 9853
L10857 9815
L10857 9497
" />
<path d="M11250 9890
L11025 9890
" />
<path d="M11138 9890
L11138 9497
L11100 9553
L11063 9590
L11025 9609
" />
<text x="7471.29" y="45073"
textLength="1276.62" font-size="524.934" lengthAdjust="spacingAndGlyphs"
text-anchor="middle" opacity="0">SW4</text>
<path d="M6946 45035
L7002 45054
L7096 45054
L7133 45035
L7152 45016
L7171 44979
L7171 44941
L7152 44904
L7133 44885
L7096 44866
L7021 44848
L6983 44829
L6965 44810
L6946 44773
L6946 44735
L6965 44698
L6983 44679
L7021 44660
L7115 44660
L7171 44679
" />
<path d="M7302 44660
L7396 45054
L7471 44773
L7546 45054
L7640 44660
" />
<path d="M7958 44791
L7958 45054
" />
<path d="M7864 44641
L7771 44923
L8014 44923
" />
<g transform="rotate(-90 19162.6 16135.5)">
<text x="19162.6" y="16332.3"
textLength="1276.62" font-size="524.934" lengthAdjust="spacingAndGlyphs"
text-anchor="middle" opacity="0">SW2</text>
</g>
<path d="M19321 16660
L19340 16604
L19340 16510
L19321 16472
L19303 16454
L19265 16435
L19228 16435
L19190 16454
L19171 16472
L19153 16510
L19134 16585
L19115 16622
L19096 16641
L19059 16660
L19021 16660
L18984 16641
L18965 16622
L18946 16585
L18946 16491
L18965 16435
" />
<path d="M18946 16304
L19340 16210
L19059 16135
L19340 16060
L18946 15966
" />
<path d="M18984 15835
L18965 15816
L18946 15779
L18946 15685
L18965 15648
L18984 15629
L19021 15610
L19059 15610
L19115 15629
L19340 15854
L19340 15610
" />
<g transform="rotate(-90 19113.2 10389.9)">
<text x="19113.2" y="10586.8"
textLength="1276.62" font-size="524.934" lengthAdjust="spacingAndGlyphs"
text-anchor="middle" opacity="0">SW1</text>
</g>
<path d="M19272 10914
L19291 10858
L19291 10764
L19272 10727
L19253 10708
L19216 10689
L19178 10689
L19141 10708
L19122 10727
L19103 10764
L19085 10839
L19066 10877
L19047 10896
L19010 10914
L18972 10914
L18935 10896
L18916 10877
L18897 10839
L18897 10746
L18916 10689
" />
<path d="M18897 10558
L19291 10464
L19010 10389
L19291 10314
L18897 10221
" />
<path d="M19291 9864
L19291 10089
" />
<path d="M19291 9977
L18897 9977
L18953 10014
L18991 10052
L19010 10089
" />
<text x="16475.4" y="6124.17"
textLength="1529.15" font-size="666.667" lengthAdjust="spacingAndGlyphs"
text-anchor="middle" opacity="0">SP1</text>
<path d="M15844 6076
L15915 6100
L16034 6100
L16082 6076
L16106 6052
L16130 6005
L16130 5957
L16106 5909
L16082 5886
L16034 5862
L15939 5838
L15892 5814
L15868 5790
L15844 5743
L15844 5695
L15868 5647
L15892 5624
L15939 5600
L16058 5600
L16130 5624
" />
<path d="M16344 6100
L16344 5600
L16534 5600
L16582 5624
L16606 5647
L16630 5695
L16630 5767
L16606 5814
L16582 5838
L16534 5862
L16344 5862
" />
<path d="M17106 6100
L16820 6100
" />
<path d="M16963 6100
L16963 5600
L16915 5671
L16868 5719
L16820 5743
" />
<text x="15491.2" y="35165.5"
textLength="845.426" font-size="524.934" lengthAdjust="spacingAndGlyphs"
text-anchor="middle" opacity="0">R7</text>
<path d="M15425 35146
L15294 34959
" />
<path d="M15200 35146
L15200 34753
L15350 34753
L15388 34771
L15406 34790
L15425 34828
L15425 34884
L15406 34921
L15388 34940
L15350 34959
L15200 34959
" />
<path d="M15556 34753
L15819 34753
L15650 35146
" />
<text x="9207.7" y="35165.5"
textLength="845.426" font-size="524.934" lengthAdjust="spacingAndGlyphs"
text-anchor="middle" opacity="0">R3</text>
<path d="M9142 35146
L9010 34959
" />
<path d="M8917 35146
L8917 34753
L9067 34753
L9104 34771
L9123 34790
L9142 34828
L9142 34884
L9123 34921
L9104 34940
L9067 34959
L8917 34959
" />
<path d="M9273 34753
L9517 34753
L9385 34903
L9442 34903
L9479 34921
L9498 34940
L9517 34978
L9517 35071
L9498 35109
L9479 35128
L9442 35146
L9329 35146
L9292 35128
L9273 35109
" />
<text x="13936" y="35165.5"
textLength="845.426" font-size="524.934" lengthAdjust="spacingAndGlyphs"
text-anchor="middle" opacity="0">R6</text>
<path d="M13870 35146
L13739 34959
" />
<path d="M13645 35146
L13645 34753
L13795 34753
L13832 34771
L13851 34790
L13870 34828
L13870 34884
L13851 34921
L13832 34940
L13795 34959
L13645 34959
" />
<path d="M14207 34753
L14132 34753
L14095 34771
L14076 34790
L14039 34846
L14020 34921
L14020 35071
L14039 35109
L14057 35128
L14095 35146
L14170 35146
L14207 35128
L14226 35109
L14245 35071
L14245 34978
L14226 34940
L14207 34921
L14170 34903
L14095 34903
L14057 34921
L14039 34940
L14020 34978
" />
<text x="12377" y="35165.5"
textLength="845.426" font-size="524.934" lengthAdjust="spacingAndGlyphs"
text-anchor="middle" opacity="0">R5</text>
<path d="M12311 35146
L12180 34959
" />
<path d="M12086 35146
L12086 34753
L12236 34753
L12273 34771
L12292 34790
L12311 34828
L12311 34884
L12292 34921
L12273 34940
L12236 34959
L12086 34959
" />
<path d="M12667 34753
L12480 34753
L12461 34940
L12480 34921
L12517 34903
L12611 34903
L12648 34921
L12667 34940
L12686 34978
L12686 35071
L12667 35109
L12648 35128
L12611 35146
L12517 35146
L12480 35128
L12461 35109
" />
<text x="7514.79" y="35165.5"
textLength="845.426" font-size="524.934" lengthAdjust="spacingAndGlyphs"
text-anchor="middle" opacity="0">R2</text>
<path d="M7449 35146
L7317 34959
" />
<path d="M7224 35146
L7224 34753
L7374 34753
L7411 34771
L7430 34790
L7449 34828
L7449 34884
L7430 34921
L7411 34940
L7374 34959
L7224 34959
" />
<path d="M7599 34790
L7617 34771
L7655 34753
L7749 34753
L7786 34771
L7805 34790
L7824 34828
L7824 34865
L7805 34921
L7580 35146
L7824 35146
" />
<text x="6014.79" y="35165.5"
textLength="845.426" font-size="524.934" lengthAdjust="spacingAndGlyphs"
text-anchor="middle" opacity="0">R1</text>
<path d="M5949 35146
L5817 34959
" />
<path d="M5724 35146
L5724 34753
L5874 34753
L5911 34771
L5930 34790
L5949 34828
L5949 34884
L5930 34921
L5911 34940
L5874 34959
L5724 34959
" />
<path d="M6324 35146
L6099 35146
" />
<path d="M6211 35146
L6211 34753
L6174 34809
L6136 34846
L6099 34865
" />
<text x="2282.51" y="30319.1"
textLength="864.173" font-size="524.934" lengthAdjust="spacingAndGlyphs"
text-anchor="middle" opacity="0">Q3</text>
<path d="M2245 30337
L2207 30319
L2170 30281
L2113 30225
L2076 30206
L2038 30206
" />
<path d="M2057 30300
L2020 30281
L1982 30244
L1963 30169
L1963 30037
L1982 29962
L2020 29925
L2057 29906
L2132 29906
L2170 29925
L2207 29962
L2226 30037
L2226 30169
L2207 30244
L2170 30281
L2132 30300
L2057 30300
" />
<path d="M2357 29906
L2601 29906
L2469 30056
L2526 30056
L2563 30075
L2582 30094
L2601 30131
L2601 30225
L2582 30262
L2563 30281
L2526 30300
L2413 30300
L2376 30281
L2357 30262
" />
<text x="2928.38" y="39959.6"
textLength="1126.64" font-size="524.934" lengthAdjust="spacingAndGlyphs"
text-anchor="middle" opacity="0">J20</text>
<path d="M2609 39547
L2609 39828
L2590 39884
L2553 39922
L2497 39940
L2459 39940
" />
<path d="M2778 39584
L2797 39565
L2834 39547
L2928 39547
L2965 39565
L2984 39584
L3003 39622
L3003 39659
L2984 39715
L2759 39940
L3003 39940
" />
<path d="M3247 39547
L3284 39547
L3322 39565
L3340 39584
L3359 39622
L3378 39697
L3378 39790
L3359 39865
L3340 39903
L3322 39922
L3284 39940
L3247 39940
L3209 39922
L3190 39903
L3172 39865
L3153 39790
L3153 39697
L3172 39622
L3190 39584
L3209 39565
L3247 39547
" />
<text x="12286.4" y="43842.7"
textLength="1126.64" font-size="524.934" lengthAdjust="spacingAndGlyphs"
text-anchor="middle" opacity="0">J19</text>
<path d="M11967 43430
L11967 43711
L11948 43767
L11911 43805
L11855 43823
L11817 43823
" />
<path d="M12361 43823
L12136 43823
" />
<path d="M12248 43823
L12248 43430
L12211 43486
L12173 43523
L12136 43542
" />
<path d="M12548 43823
L12623 43823
L12661 43805
L12680 43786
L12717 43730
L12736 43655
L12736 43505
L12717 43467
L12698 43448
L12661 43430
L12586 43430
L12548 43448
L12530 43467
L12511 43505
L12511 43598
L12530 43636
L12548 43655
L12586 43673
L12661 43673
L12698 43655
L12717 43636
L12736 43598
" />
<g transform="rotate(-90 12010.9 18287.6)">
<text x="12010.9" y="18484.4"
textLength="1126.64" font-size="524.934" lengthAdjust="spacingAndGlyphs"
text-anchor="middle" opacity="0">J16</text>
</g>
<path d="M11795 18606
L12076 18606
L12132 18625
L12170 18662
L12188 18718
L12188 18756
" />
<path d="M12188 18212
L12188 18437
" />
<path d="M12188 18325
L11795 18325
L11851 18362
L11888 18400
L11907 18437
" />
<path d="M11795 17875
L11795 17950
L11814 17987
L11832 18006
L11888 18043
L11963 18062
L12113 18062
L12151 18043
L12170 18025
L12188 17987
L12188 17912
L12170 17875
L12151 17856
L12113 17837
L12020 17837
L11982 17856
L11963 17875
L11945 17912
L11945 17987
L11963 18025
L11982 18043
L12020 18062
" />
<g transform="rotate(-90 20652.6 26720.6)">
<text x="20652.6" y="26917.5"
textLength="751.687" font-size="524.934" lengthAdjust="spacingAndGlyphs"
text-anchor="middle" opacity="0">J5</text>
</g>
<path d="M20436 26851
L20718 26851
L20774 26870
L20811 26908
L20830 26964
L20830 27001
" />
<path d="M20436 26476
L20436 26664
L20624 26683
L20605 26664
L20586 26626
L20586 26533
L20605 26495
L20624 26476
L20661 26458
L20755 26458
L20793 26476
L20811 26495
L20830 26533
L20830 26626
L20811 26664
L20793 26683
" />
<text x="17758.9" y="35161.6"
textLength="845.426" font-size="524.934" lengthAdjust="spacingAndGlyphs"
text-anchor="middle" opacity="0">D1</text>
<path d="M17468 35142
L17468 34749
L17562 34749
L17618 34767
L17655 34805
L17674 34842
L17693 34917
L17693 34974
L17674 35049
L17655 35086
L17618 35124
L17562 35142
L17468 35142
" />
<path d="M18068 35142
L17843 35142
" />
<path d="M17955 35142
L17955 34749
L17918 34805
L17880 34842
L17843 34861
" />
<text x="18786.4" y="36189.1"
textLength="470.472" font-size="524.934" lengthAdjust="spacingAndGlyphs"
text-anchor="middle" opacity="0">K</text>
<path d="M18683 36170
L18683 35776
" />
<path d="M18908 36170
L18739 35945
" />
<path d="M18908 35776
L18683 36001
" />
<g >
</g>
</g>
<g style="fill:#000000; fill-opacity:0.0; 
stroke:#000000; stroke-width:59.0551; stroke-opacity:1; 
stroke-linecap:round; stroke-linejoin:round;">
</g>
<g style="fill:#000000; fill-opacity:0.0; 
stroke:#000000; stroke-width:19.685; stroke-opacity:1; 
stroke-linecap:round; stroke-linejoin:round;">
<path d="M22286 6666
L22286 7034
" />
<path d="M22286 6665
L22286 6666
" />
<path d="M20868 45390
L21140 45390
" />
<path d="M16309 44313
L18269 44313
" />
<path d="M19568.9 44851.6 A1838.36 1838.36 0.0 0 0 18269.3 44313.2" />
<path d="M19568.9 44851.6 A1838.36 1838.36 0.0 0 0 20868.4 45390.1" />
<path d="M13710.4 45390.1 A1838.36 1838.36 0.0 0 0 15010 44851.6" />
<path d="M16309.6 44313.2 A1838.36 1838.36 0.0 0 0 15010 44851.6" />
<path d="M22286 44243
L22286 23791
" />
<path d="M21209.6 21192.7 A1838.36 1838.36 0.0 0 0 21748 22492.3" />
<path d="M22286.4 23791.8 A1838.36 1838.36 0.0 0 0 21748 22492.3" />
<path d="M21209 9634
L21209 21192
" />
<path d="M21748 8334.46 A1838.36 1838.36 0.0 0 0 21209.6 9634.02" />
<path d="M21748 8334.46 A1838.36 1838.36 0.0 0 0 22286.4 7034.9" />
<path d="M12536 8089
L11032 8089
" />
<path d="M12536 6418
L11032 6418
" />
<path d="M11032.4 6418.84 A835.311 835.311 0.0 0 0 11032.4 8089.47" />
<path d="M12536.1 8089.47 A835.311 835.311 0.0 1 0 12536.4 6418.84" />
<path d="M1286 6666
L1286 16599
" />
<path d="M21140 5519
L19048 5519
" />
<path d="M22286.4 6665.51 A1146.21 1146.21 0.0 0 0 21140.2 5519.84" />
<path d="M19048 5519
L19048 1156
" />
<path d="M1286.23 44243.8 A1146.21 1146.21 0.0 0 0 2432.44 45390.1" />
<path d="M13710 45390
L2432 45390
" />
<path d="M21140.2 45390.1 A1146.21 1146.21 0.0 0 0 22286.4 44243.8" />
<path d="M19048.4 1156.05 A1146.21 1146.21 0.0 0 0 17902.2 9.84291" />
<path d="M14674.4 9.84291 A1146.21 1146.21 0.0 0 0 13528.2 1156.05" />
<path d="M2432.44 5519.84 A1146.21 1146.21 0.0 0 0 1286.23 6666.05" />
<path d="M13528 1156
L13528 5519
" />
<path d="M14674 9
L17902 9
" />
<path d="M2432 5519
L13528 5519
" />
<path d="M1286 16599
L1286 44243
" />
<g >
</g>
<g >
</g>
<g >
</g>
<g >
</g>
<g >
</g>
<g >
</g>
<g >
</g>
<g >
</g>
<g >
</g>
<g >
</g>
<g >
</g>
<g >
</g>
<g >
</g>
<g >
</g>
<g >
</g>
<g >
</g>
<g >
</g>
<g >
</g>
<g >
</g>
<g >
</g>
<g >
</g>
<g >
</g>
<g >
</g>
<g >
</g>
<g >
</g>
<g >
</g>
<g >
</g>
<g >
</g>
<g >
</g>
<g >
</g>
<g >
</g>
<g >
</g>
</g> 
</svg>
